0
SECTION
2
HEADER
9
$INSUNITS
70
4
9
$ACADVER
1
AC1014
9
$HANDSEED
5
FFFF
0
ENDSEC
0
SECTION
2
TABLES
0
TABLE
2
VPORT
5
8
100
AcDbSymbolTable
0
ENDTAB
0
TABLE
2
LTYPE
5
5
100
AcDbSymbolTable
0
LTYPE
5
14
100
AcDbSymbolTableRecord
100
AcDbLinetypeTableRecord
2
BYBLOCK
70
0
0
LTYPE
5
15
100
AcDbSymbolTableRecord
100
AcDbLinetypeTableRecord
2
BYLAYER
70
0
0
ENDTAB
0
TABLE
2
LAYER
5
2
100
AcDbSymbolTable
70
2
0
LAYER
5
50
100
AcDbSymbolTableRecord
100
AcDbLayerTableRecord
2
0
70
0
6
CONTINUOUS
0
ENDTAB
0
TABLE
2
STYLE
5
3
100
AcDbSymbolTable
70
1
0
STYLE
5
11
100
AcDbSymbolTableRecord
100
AcDbTextStyleTableRecord
2
STANDARD
70
0
0
ENDTAB
0
TABLE
2
VIEW
5
6
100
AcDbSymbolTable
70
0
0
ENDTAB
0
TABLE
2
UCS
5
7
100
AcDbSymbolTable
70
0
0
ENDTAB
0
TABLE
2
APPID
5
9
100
AcDbSymbolTable
70
2
0
APPID
5
12
100
AcDbSymbolTableRecord
100
AcDbRegAppTableRecord
2
ACAD
70
0
0
ENDTAB
0
TABLE
2
DIMSTYLE
5
A
100
AcDbSymbolTable
70
1
0
ENDTAB
0
TABLE
2
BLOCK_RECORD
5
1
100
AcDbSymbolTable
70
1
0
BLOCK_RECORD
5
1F
100
AcDbSymbolTableRecord
100
AcDbBlockTableRecord
2
*MODEL_SPACE
0
BLOCK_RECORD
5
1B
100
AcDbSymbolTableRecord
100
AcDbBlockTableRecord
2
*PAPER_SPACE
0
ENDTAB
0
ENDSEC
0
SECTION
2
BLOCKS
0
BLOCK
5
20
100
AcDbEntity
100
AcDbBlockBegin
2
*MODEL_SPACE
0
ENDBLK
5
21
100
AcDbEntity
100
AcDbBlockEnd
0
BLOCK
5
1C
100
AcDbEntity
100
AcDbBlockBegin
2
*PAPER_SPACE
0
ENDBLK
5
1D
100
AcDbEntity
100
AcDbBlockEnd
0
ENDSEC
0
SECTION
2
ENTITIES
0
LWPOLYLINE
5
100
100
AcDbEntity
8
0
100
AcDbPolyline
90
8
70
1
43
0.0
10
54.912499999999994
20
-74.462499999999991
42
-0.41421356237309503
10
55.412499999999994
20
-73.962499999999977
10
68.412499999999994
20
-73.962499999999991
42
-0.41421356237309503
10
68.912499999999994
20
-74.462499999999991
10
68.912500000000009
20
-87.462500000000006
42
-0.41421356237309503
10
68.412499999999994
20
-87.962500000000006
10
55.412499999999994
20
-87.962500000000006
42
-0.41421356237309503
10
54.912500000000001
20
-87.462500000000006
0
LWPOLYLINE
5
101
100
AcDbEntity
8
0
100
AcDbPolyline
90
8
70
1
43
0.0
10
73.962500000000006
20
-87.462500000000006
10
73.962500000000006
20
-74.462499999999991
42
-0.41421356237309503
10
74.462499999999991
20
-73.962500000000006
10
87.462500000000006
20
-73.962499999999977
42
-0.41421356237309503
10
87.962500000000006
20
-74.462499999999991
10
87.962500000000006
20
-87.462500000000006
42
-0.41421356237309503
10
87.462500000000006
20
-87.962500000000006
10
74.462499999999991
20
-87.962499999999991
42
-0.41421356237309503
0
LWPOLYLINE
5
102
100
AcDbEntity
8
0
100
AcDbPolyline
90
8
70
1
43
0.0
10
335.61249999999995
20
-68.412500000000009
42
-0.41421356237309503
10
335.11249999999995
20
-68.912499999999994
10
322.11250000000001
20
-68.91249999999998
42
-0.41421356237309503
10
321.61250000000001
20
-68.412500000000009
10
321.61250000000001
20
-55.412499999999994
42
-0.41421356237309503
10
322.11250000000001
20
-54.912500000000009
10
335.11249999999995
20
-54.912500000000023
42
-0.41421356237309503
10
335.61249999999995
20
-55.412499999999994
0
LWPOLYLINE
5
103
100
AcDbEntity
8
0
100
AcDbPolyline
90
8
70
1
43
0.0
10
93.012499999999989
20
-87.462500000000006
10
93.012499999999989
20
-74.462499999999991
42
-0.41421356237309503
10
93.512500000000003
20
-73.962499999999977
10
106.51249999999999
20
-73.962499999999977
42
-0.41421356237309503
10
107.0125
20
-74.462499999999991
10
107.0125
20
-87.462500000000006
42
-0.41421356237309503
10
106.51249999999999
20
-87.962500000000006
10
93.512500000000003
20
-87.962500000000006
42
-0.41421356237309503
0
LWPOLYLINE
5
104
100
AcDbEntity
8
0
100
AcDbPolyline
90
8
70
1
43
0.0
10
26.719249999999999
20
-74.962499999999991
42
-0.41421356237309503
10
27.219249999999995
20
-75.462499999999991
10
27.219250000000006
20
-88.462499999999991
42
-0.41421356237309503
10
26.719249999999999
20
-88.962500000000006
10
20.969249999999995
20
-88.962499999999977
42
-0.41421356237309503
10
20.469249999999999
20
-88.462499999999991
10
20.469250000000009
20
-75.462499999999991
42
-0.41421356237309503
10
20.969249999999995
20
-74.962500000000006
0
LWPOLYLINE
5
105
100
AcDbEntity
8
0
100
AcDbPolyline
90
8
70
1
43
0.0
10
49.362500000000004
20
-73.962500000000006
10
36.362499999999997
20
-73.962500000000006
42
0.41421356237309503
10
35.862499999999997
20
-74.462499999999991
10
35.862499999999997
20
-87.462500000000006
42
0.41421356237309503
10
36.362499999999997
20
-87.962500000000006
10
49.362500000000004
20
-87.962500000000006
42
0.41421356237309503
10
49.862499999999997
20
-87.462500000000006
10
49.862499999999997
20
-74.462499999999991
42
0.41421356237309503
0
LWPOLYLINE
5
106
100
AcDbEntity
8
0
100
AcDbPolyline
90
8
70
1
43
0.0
10
192.73750000000001
20
-68.412500000000009
42
-0.41421356237309503
10
192.23749999999998
20
-68.912499999999994
10
179.23749999999998
20
-68.912500000000009
42
-0.41421356237309503
10
178.73749999999998
20
-68.412500000000009
10
178.73750000000001
20
-55.412499999999994
42
-0.41421356237309503
10
179.23749999999998
20
-54.912500000000009
10
192.23749999999998
20
-54.912499999999994
42
-0.41421356237309503
10
192.73750000000001
20
-55.412499999999994
0
LWPOLYLINE
5
107
100
AcDbEntity
8
0
100
AcDbPolyline
90
8
70
1
43
0.0
10
4.9062499999999876
20
-74.462499999999991
42
-0.41421356237309503
10
5.4062499999999947
20
-73.962499999999977
10
18.406249999999993
20
-73.962499999999991
42
-0.41421356237309503
10
18.906249999999993
20
-74.462499999999991
10
18.90625
20
-87.462500000000006
42
-0.41421356237309503
10
18.406249999999993
20
-87.962500000000006
10
5.4062499999999947
20
-87.962500000000006
42
-0.41421356237309503
10
4.9062499999999964
20
-87.462500000000006
0
LWPOLYLINE
5
108
100
AcDbEntity
8
0
100
AcDbPolyline
90
8
70
1
43
0.0
10
112.0625
20
-74.462499999999991
42
-0.41421356237309503
10
112.56250000000001
20
-73.962499999999977
10
125.5625
20
-73.962499999999977
42
-0.41421356237309503
10
126.06250000000001
20
-74.462499999999991
10
126.06250000000001
20
-87.462500000000006
42
-0.41421356237309503
10
125.5625
20
-87.962500000000006
10
112.56250000000001
20
-87.962500000000006
42
-0.41421356237309503
10
112.0625
20
-87.462500000000006
0
LWPOLYLINE
5
109
100
AcDbEntity
8
0
100
AcDbPolyline
90
8
70
1
43
0.0
10
2.8432499999999949
20
-88.962500000000006
10
-2.9067500000000059
20
-88.962500000000006
42
-0.41421356237309503
10
-3.4067500000000051
20
-88.462499999999991
10
-3.4067499999999953
20
-75.462499999999991
42
-0.41421356237309503
10
-2.9067500000000059
20
-74.962500000000006
10
2.8432499999999949
20
-74.962499999999991
42
-0.41421356237309503
10
3.3432499999999954
20
-75.462499999999991
10
3.3432500000000021
20
-88.462499999999991
42
-0.41421356237309503
0
LWPOLYLINE
5
110
100
AcDbEntity
8
0
100
AcDbPolyline
90
8
70
1
43
0.0
10
297.51250000000005
20
-68.412500000000009
10
297.51250000000005
20
-55.412499999999994
42
0.41421356237309503
10
297.01250000000005
20
-54.912500000000009
10
284.01250000000005
20
-54.912500000000009
42
0.41421356237309503
10
283.51250000000005
20
-55.412499999999994
10
283.51250000000005
20
-68.412500000000009
42
0.41421356237309503
10
284.01250000000005
20
-68.912499999999994
10
297.01250000000005
20
-68.912499999999994
42
0.41421356237309503
0
LWPOLYLINE
5
111
100
AcDbEntity
8
0
100
AcDbPolyline
90
8
70
1
43
0.0
10
211.28749999999999
20
-54.912500000000009
10
198.28749999999999
20
-54.912500000000009
42
0.41421356237309503
10
197.78750000000002
20
-55.412499999999994
10
197.78749999999999
20
-68.412500000000009
42
0.41421356237309503
10
198.28749999999999
20
-68.912499999999994
10
211.28749999999999
20
-68.912499999999994
42
0.41421356237309503
10
211.78750000000002
20
-68.412500000000009
10
211.78750000000002
20
-55.412499999999994
42
0.41421356237309503
0
LWPOLYLINE
5
112
100
AcDbEntity
8
0
100
AcDbPolyline
90
8
70
1
43
0.0
10
207.8125
20
-87.962500000000006
42
-0.41421356237309503
10
207.3125
20
-87.462500000000006
10
207.3125
20
-74.462499999999991
42
-0.41421356237309503
10
207.8125
20
-73.962499999999977
10
220.8125
20
-73.962499999999977
42
-0.41421356237309503
10
221.3125
20
-74.462499999999991
10
221.3125
20
-87.462500000000006
42
-0.41421356237309503
10
220.8125
20
-87.962500000000006
0
LWPOLYLINE
5
113
100
AcDbEntity
8
0
100
AcDbPolyline
90
8
70
1
43
0.0
10
247.50625000000002
20
-87.462500000000006
42
-0.41421356237309503
10
247.00625000000002
20
-87.962500000000006
10
234.00625000000002
20
-87.962500000000006
42
-0.41421356237309503
10
233.50625000000002
20
-87.462500000000006
10
233.50625000000002
20
-74.462499999999991
42
-0.41421356237309503
10
234.00625000000002
20
-73.962499999999977
10
247.00625000000002
20
-73.962499999999977
42
-0.41421356237309503
10
247.50625000000002
20
-74.462499999999991
0
LWPOLYLINE
5
114
100
AcDbEntity
8
0
100
AcDbPolyline
90
8
70
1
43
0.0
10
150.16249999999999
20
-87.462500000000006
10
150.16250000000002
20
-74.462499999999991
42
-0.41421356237309503
10
150.66249999999999
20
-73.962500000000006
10
163.66250000000002
20
-73.962499999999977
42
-0.41421356237309503
10
164.16250000000002
20
-74.462499999999991
10
164.16250000000002
20
-87.462500000000006
42
-0.41421356237309503
10
163.66250000000002
20
-87.962500000000006
10
150.66249999999999
20
-87.962500000000006
42
-0.41421356237309503
0
LWPOLYLINE
5
115
100
AcDbEntity
8
0
100
AcDbPolyline
90
8
70
1
43
0.0
10
259.70000000000005
20
-74.462499999999991
42
-0.41421356237309503
10
260.20000000000005
20
-73.962499999999977
10
273.20000000000005
20
-73.962499999999977
42
-0.41421356237309503
10
273.70000000000005
20
-74.462499999999991
10
273.70000000000005
20
-87.462500000000006
42
-0.41421356237309503
10
273.20000000000005
20
-87.962500000000006
10
260.20000000000005
20
-87.962500000000006
42
-0.41421356237309503
10
259.70000000000005
20
-87.462500000000006
0
LWPOLYLINE
5
116
100
AcDbEntity
8
0
100
AcDbPolyline
90
8
70
1
43
0.0
10
297.01250000000005
20
-73.962500000000006
10
284.01250000000005
20
-73.962500000000006
42
0.41421356237309503
10
283.51250000000005
20
-74.462499999999991
10
283.51250000000005
20
-87.462500000000006
42
0.41421356237309503
10
284.01250000000005
20
-87.962500000000006
10
297.01250000000005
20
-87.962500000000006
42
0.41421356237309503
10
297.51250000000005
20
-87.462500000000006
10
297.51250000000005
20
-74.462499999999991
42
0.41421356237309503
0
LWPOLYLINE
5
117
100
AcDbEntity
8
0
100
AcDbPolyline
90
8
70
1
43
0.0
10
131.61249999999998
20
-87.962500000000006
42
-0.41421356237309503
10
131.11249999999998
20
-87.462500000000006
10
131.11249999999998
20
-74.462499999999991
42
-0.41421356237309503
10
131.61249999999998
20
-73.962499999999977
10
144.61250000000001
20
-73.962500000000006
42
-0.41421356237309503
10
145.11249999999998
20
-74.462499999999991
10
145.11250000000001
20
-87.462500000000006
42
-0.41421356237309503
10
144.61250000000001
20
-87.962500000000006
0
LWPOLYLINE
5
118
100
AcDbEntity
8
0
100
AcDbPolyline
90
8
70
1
43
0.0
10
201.76249999999999
20
-73.962500000000006
10
188.76249999999999
20
-73.962500000000006
42
0.41421356237309503
10
188.26249999999999
20
-74.462499999999991
10
188.26249999999999
20
-87.462500000000006
42
0.41421356237309503
10
188.76249999999999
20
-87.962500000000006
10
201.76249999999999
20
-87.962500000000006
42
0.41421356237309503
10
202.26249999999999
20
-87.462500000000006
10
202.26249999999999
20
-74.462499999999991
42
0.41421356237309503
0
LWPOLYLINE
5
119
100
AcDbEntity
8
0
100
AcDbPolyline
90
8
70
1
43
0.0
10
169.21250000000001
20
-87.462500000000006
10
169.21250000000001
20
-74.462499999999991
42
-0.41421356237309503
10
169.71250000000001
20
-73.962500000000006
10
182.71250000000003
20
-73.962499999999977
42
-0.41421356237309503
10
183.21250000000003
20
-74.462499999999991
10
183.21250000000003
20
-87.462500000000006
42
-0.41421356237309503
10
182.71250000000003
20
-87.962500000000006
10
169.71250000000001
20
-87.962500000000006
42
-0.41421356237309503
0
LWPOLYLINE
5
120
100
AcDbEntity
8
0
100
AcDbPolyline
90
8
70
1
43
0.0
10
11.762499999999996
20
-106.51249999999999
10
11.762499999999996
20
-93.512500000000003
42
0.41421356237309503
10
11.262499999999998
20
-93.012499999999989
10
-1.7375000000000052
20
-93.012499999999989
42
0.41421356237309503
10
-2.2375000000000056
20
-93.512500000000003
10
-2.2375000000000056
20
-106.51249999999999
42
0.41421356237309503
10
-1.7375000000000052
20
-107.0125
10
11.262499999999998
20
-107.0125
42
0.41421356237309503
0
LWPOLYLINE
5
121
100
AcDbEntity
8
0
100
AcDbPolyline
90
8
70
1
43
0.0
10
340.66250000000002
20
-96.987500000000011
10
340.66249999999997
20
-83.987499999999997
42
-0.41421356237309503
10
341.16250000000002
20
-83.487499999999983
10
354.16249999999997
20
-83.487500000000026
42
-0.41421356237309503
10
354.66249999999997
20
-83.987499999999997
10
354.66250000000002
20
-96.987500000000011
42
-0.41421356237309503
10
354.16249999999997
20
-97.487500000000011
10
341.16250000000002
20
-97.487499999999983
42
-0.41421356237309503
0
LWPOLYLINE
5
122
100
AcDbEntity
8
0
100
AcDbPolyline
90
8
70
1
43
0.0
10
45.387499999999996
20
-93.512500000000003
42
-0.41421356237309503
10
45.887500000000003
20
-93.012499999999989
10
58.887499999999989
20
-93.012499999999989
42
-0.41421356237309503
10
59.387499999999989
20
-93.512500000000003
10
59.387499999999996
20
-106.51249999999999
42
-0.41421356237309503
10
58.887499999999989
20
-107.0125
10
45.887500000000003
20
-107.01249999999999
42
-0.41421356237309503
10
45.387500000000003
20
-106.51249999999999
0
LWPOLYLINE
5
123
100
AcDbEntity
8
0
100
AcDbPolyline
90
8
70
1
43
0.0
10
353.16250000000002
20
-99.050500000000028
42
-0.41421356237309503
10
353.66250000000002
20
-99.5505
10
353.66250000000002
20
-105.30050000000001
42
-0.41421356237309503
10
353.16250000000002
20
-105.8005
10
340.16250000000002
20
-105.80049999999999
42
-0.41421356237309503
10
339.66250000000002
20
-105.30050000000001
10
339.66250000000002
20
-99.5505
42
-0.41421356237309503
10
340.16250000000002
20
-99.050500000000014
0
LWPOLYLINE
5
124
100
AcDbEntity
8
0
100
AcDbPolyline
90
8
70
1
43
0.0
10
302.5625
20
-87.462500000000006
10
302.5625
20
-74.462499999999991
42
-0.41421356237309503
10
303.0625
20
-73.962499999999977
10
316.06249999999994
20
-73.96250000000002
42
-0.41421356237309503
10
316.56249999999994
20
-74.462499999999991
10
316.56249999999994
20
-87.462500000000006
42
-0.41421356237309503
10
316.06249999999994
20
-87.962500000000006
10
303.0625
20
-87.962500000000006
42
-0.41421356237309503
0
LWPOLYLINE
5
125
100
AcDbEntity
8
0
100
AcDbPolyline
90
8
70
1
43
0.0
10
321.61249999999995
20
-74.462499999999991
42
-0.41421356237309503
10
322.11250000000001
20
-73.962499999999977
10
335.11249999999995
20
-73.96250000000002
42
-0.41421356237309503
10
335.61249999999995
20
-74.462499999999991
10
335.61250000000001
20
-87.462500000000006
42
-0.41421356237309503
10
335.11249999999995
20
-87.962500000000006
10
322.11250000000001
20
-87.962499999999977
42
-0.41421356237309503
10
321.61250000000001
20
-87.462500000000006
0
LWPOLYLINE
5
126
100
AcDbEntity
8
0
100
AcDbPolyline
90
8
70
1
43
0.0
10
340.16250000000002
20
-81.924499999999995
10
353.16250000000002
20
-81.924499999999995
42
0.41421356237309503
10
353.66250000000002
20
-81.424499999999995
10
353.66250000000002
20
-75.674499999999995
42
0.41421356237309503
10
353.16250000000002
20
-75.174499999999995
10
340.16250000000002
20
-75.174499999999981
42
0.41421356237309503
10
339.66250000000002
20
-75.674499999999995
10
339.66250000000002
20
-81.424499999999995
42
0.41421356237309503
0
LWPOLYLINE
5
127
100
AcDbEntity
8
0
100
AcDbPolyline
90
8
70
1
43
0.0
10
35.074999999999996
20
-93.012499999999989
42
-0.41421356237309503
10
35.574999999999989
20
-93.512500000000003
10
35.575000000000003
20
-106.51249999999999
42
-0.41421356237309503
10
35.074999999999996
20
-107.0125
10
22.074999999999996
20
-107.01249999999999
42
-0.41421356237309503
10
21.574999999999996
20
-106.51249999999999
10
21.574999999999989
20
-93.512500000000003
42
-0.41421356237309503
10
22.074999999999996
20
-93.012499999999989
0
LWPOLYLINE
5
128
100
AcDbEntity
8
0
100
AcDbPolyline
90
8
70
1
43
0.0
10
293.03750000000002
20
-93.512500000000003
42
-0.41421356237309503
10
293.53750000000002
20
-93.012499999999989
10
306.53750000000002
20
-93.012499999999989
42
-0.41421356237309503
10
307.03750000000002
20
-93.512500000000003
10
307.03750000000002
20
-106.51249999999999
42
-0.41421356237309503
10
306.53750000000002
20
-107.0125
10
293.53750000000002
20
-107.0125
42
-0.41421356237309503
10
293.03750000000002
20
-106.51249999999999
0
LWPOLYLINE
5
129
100
AcDbEntity
8
0
100
AcDbPolyline
90
8
70
1
43
0.0
10
244.62500000000003
20
-107.0125
10
231.625
20
-107.0125
42
-0.41421356237309503
10
231.125
20
-106.51249999999999
10
231.125
20
-93.512500000000003
42
-0.41421356237309503
10
231.625
20
-93.012499999999989
10
244.62500000000003
20
-93.012499999999989
42
-0.41421356237309503
10
245.12500000000003
20
-93.512500000000003
10
245.12500000000003
20
-106.51249999999999
42
-0.41421356237309503
0
LWPOLYLINE
5
130
100
AcDbEntity
8
0
100
AcDbPolyline
90
8
70
1
43
0.0
10
268.4375
20
-107.0125
10
255.4375
20
-107.0125
42
-0.41421356237309503
10
254.9375
20
-106.51249999999999
10
254.9375
20
-93.512500000000003
42
-0.41421356237309503
10
255.4375
20
-93.012499999999989
10
268.4375
20
-93.012499999999989
42
-0.41421356237309503
10
268.9375
20
-93.512500000000003
10
268.9375
20
-106.51249999999999
42
-0.41421356237309503
0
LWPOLYLINE
5
131
100
AcDbEntity
8
0
100
AcDbPolyline
90
8
70
1
43
0.0
10
72.824999999999989
20
-107.51249999999999
10
72.824999999999989
20
-94.512500000000003
42
-0.41421356237309503
10
73.324999999999989
20
-94.012499999999989
10
79.074999999999989
20
-94.012499999999989
42
-0.41421356237309503
10
79.574999999999989
20
-94.512500000000003
10
79.574999999999989
20
-107.51249999999999
42
-0.41421356237309503
10
79.074999999999989
20
-108.01249999999999
10
73.324999999999989
20
-108.01249999999999
42
-0.41421356237309503
0
LWPOLYLINE
5
132
100
AcDbEntity
8
0
100
AcDbPolyline
90
8
70
1
43
0.0
10
220.8125
20
-93.012499999999989
10
207.8125
20
-93.012499999999989
42
0.41421356237309503
10
207.31250000000003
20
-93.512500000000003
10
207.31250000000003
20
-106.51249999999999
42
0.41421356237309503
10
207.8125
20
-107.0125
10
220.8125
20
-107.0125
42
0.41421356237309503
10
221.3125
20
-106.51249999999999
10
221.3125
20
-93.512500000000003
42
0.41421356237309503
0
LWPOLYLINE
5
133
100
AcDbEntity
8
0
100
AcDbPolyline
90
8
70
1
43
0.0
10
126.34999999999999
20
-106.51249999999999
10
126.34999999999999
20
-93.512500000000003
42
-0.41421356237309503
10
126.85000000000001
20
-93.012499999999989
10
139.84999999999999
20
-93.012499999999989
42
-0.41421356237309503
10
140.34999999999999
20
-93.512500000000003
10
140.34999999999999
20
-106.51249999999999
42
-0.41421356237309503
10
139.84999999999999
20
-107.0125
10
126.85000000000001
20
-107.0125
42
-0.41421356237309503
0
LWPOLYLINE
5
134
100
AcDbEntity
8
0
100
AcDbPolyline
90
8
70
1
43
0.0
10
315.35050000000001
20
-107.51249999999999
10
315.35050000000001
20
-94.512500000000003
42
0.41421356237309503
10
314.85050000000001
20
-94.012499999999989
10
309.10050000000001
20
-94.012499999999989
42
0.41421356237309503
10
308.60050000000001
20
-94.512500000000003
10
308.60050000000001
20
-107.51249999999999
42
0.41421356237309503
10
309.10050000000001
20
-108.01249999999999
10
314.85050000000001
20
-108.01249999999999
42
0.41421356237309503
0
LWPOLYLINE
5
135
100
AcDbEntity
8
0
100
AcDbPolyline
90
8
70
1
43
0.0
10
187.12500000000003
20
-94.512500000000003
42
-0.41421356237309503
10
187.62500000000003
20
-94.012499999999989
10
193.37500000000003
20
-94.012499999999989
42
-0.41421356237309503
10
193.87500000000003
20
-94.512500000000003
10
193.87500000000003
20
-107.51249999999999
42
-0.41421356237309503
10
193.37500000000003
20
-108.01249999999999
10
187.62500000000003
20
-108.01249999999999
42
-0.41421356237309503
10
187.12500000000003
20
-107.51249999999999
0
LWPOLYLINE
5
136
100
AcDbEntity
8
0
100
AcDbPolyline
90
8
70
1
43
0.0
10
290.97450000000003
20
-108.01249999999999
10
285.22450000000003
20
-108.01249999999999
42
-0.41421356237309503
10
284.72450000000003
20
-107.51249999999999
10
284.72450000000003
20
-94.512500000000003
42
-0.41421356237309503
10
285.22450000000003
20
-94.012499999999989
10
290.97450000000003
20
-94.012499999999989
42
-0.41421356237309503
10
291.47450000000003
20
-94.512500000000003
10
291.47450000000003
20
-107.51249999999999
42
-0.41421356237309503
0
LWPOLYLINE
5
137
100
AcDbEntity
8
0
100
AcDbPolyline
90
8
70
1
43
0.0
10
335.11249999999995
20
-107.0125
10
322.11250000000001
20
-107.01249999999996
42
-0.41421356237309503
10
321.61250000000001
20
-106.51249999999999
10
321.61249999999995
20
-93.512500000000003
42
-0.41421356237309503
10
322.11250000000001
20
-93.012499999999989
10
335.11249999999995
20
-93.01249999999996
42
-0.41421356237309503
10
335.61250000000001
20
-93.512500000000003
10
335.61250000000001
20
-106.51249999999999
42
-0.41421356237309503
0
LWPOLYLINE
5
138
100
AcDbEntity
8
0
100
AcDbPolyline
90
4
70
1
43
0.0
10
357.1875
20
-109.53749999999999
10
-9.5250000000000057
20
-109.53749999999999
10
-9.5250000000000057
20
9.5250000000000021
10
357.1875
20
9.5250000000000057
0
LWPOLYLINE
5
139
100
AcDbEntity
8
0
100
AcDbPolyline
90
8
70
1
43
0.0
10
178.73749999999998
20
6.5000000000000018
42
-0.41421356237309503
10
179.23749999999998
20
7.0000000000000018
10
192.23749999999998
20
7.0000000000000089
42
-0.41421356237309503
10
192.73750000000001
20
6.5000000000000018
10
192.73750000000001
20
-6.4999999999999991
42
-0.41421356237309503
10
192.23749999999998
20
-6.9999999999999973
10
179.23749999999998
20
-7.0000000000000062
42
-0.41421356237309503
10
178.73749999999998
20
-6.4999999999999991
0
LWPOLYLINE
5
140
100
AcDbEntity
8
0
100
AcDbPolyline
90
8
70
1
43
0.0
10
35.862499999999997
20
-6.4999999999999991
10
35.862499999999997
20
6.5000000000000018
42
-0.41421356237309503
10
36.362499999999997
20
7.0000000000000018
10
49.362500000000004
20
7
42
-0.41421356237309503
10
49.862499999999997
20
6.5000000000000018
10
49.862499999999997
20
-6.4999999999999991
42
-0.41421356237309503
10
49.362500000000004
20
-6.9999999999999973
10
36.362499999999997
20
-6.9999999999999973
42
-0.41421356237309503
0
LWPOLYLINE
5
141
100
AcDbEntity
8
0
100
AcDbPolyline
90
8
70
1
43
0.0
10
17.312499999999993
20
-6.9999999999999973
42
-0.41421356237309503
10
16.812499999999993
20
-6.4999999999999991
10
16.812499999999993
20
6.5000000000000018
42
-0.41421356237309503
10
17.312499999999993
20
7.0000000000000018
10
30.312499999999996
20
7.0000000000000036
42
-0.41421356237309503
10
30.8125
20
6.5000000000000018
10
30.812499999999993
20
-6.4999999999999991
42
-0.41421356237309503
10
30.312499999999996
20
-6.9999999999999973
0
LWPOLYLINE
5
142
100
AcDbEntity
8
0
100
AcDbPolyline
90
8
70
1
43
0.0
10
6.9999999999999947
20
-6.4999999999999991
42
-0.41421356237309503
10
6.4999999999999947
20
-7
10
-6.5000000000000053
20
-7
42
-0.41421356237309503
10
-7.0000000000000062
20
-6.4999999999999991
10
-7.0000000000000062
20
6.5000000000000018
42
-0.41421356237309503
10
-6.5000000000000053
20
7.0000000000000018
10
6.4999999999999947
20
7.0000000000000018
42
-0.41421356237309503
10
6.9999999999999947
20
6.5000000000000018
0
LWPOLYLINE
5
143
100
AcDbEntity
8
0
100
AcDbPolyline
90
8
70
1
43
0.0
10
97.775000000000006
20
6.5000000000000018
42
-0.41421356237309503
10
98.275000000000006
20
7.0000000000000018
10
111.27499999999999
20
7.0000000000000089
42
-0.41421356237309503
10
111.77500000000001
20
6.5000000000000018
10
111.77499999999998
20
-6.4999999999999991
42
-0.41421356237309503
10
111.27499999999999
20
-6.9999999999999973
10
98.275000000000006
20
-7.0000000000000062
42
-0.41421356237309503
10
97.775000000000006
20
-6.4999999999999991
0
LWPOLYLINE
5
144
100
AcDbEntity
8
0
100
AcDbPolyline
90
8
70
1
43
0.0
10
55.412499999999994
20
-6.9999999999999973
42
-0.41421356237309503
10
54.912500000000001
20
-6.4999999999999991
10
54.912500000000001
20
6.5000000000000018
42
-0.41421356237309503
10
55.412499999999994
20
7.0000000000000018
10
68.412499999999994
20
7
42
-0.41421356237309503
10
68.912499999999994
20
6.5000000000000018
10
68.912499999999994
20
-6.4999999999999991
42
-0.41421356237309503
10
68.412499999999994
20
-6.9999999999999973
0
LWPOLYLINE
5
145
100
AcDbEntity
8
0
100
AcDbPolyline
90
8
70
1
43
0.0
10
149.375
20
-6.9999999999999973
10
136.375
20
-7.0000000000000062
42
-0.41421356237309503
10
135.875
20
-6.4999999999999991
10
135.875
20
6.5000000000000018
42
-0.41421356237309503
10
136.375
20
7.0000000000000018
10
149.375
20
7.0000000000000089
42
-0.41421356237309503
10
149.875
20
6.5000000000000018
10
149.875
20
-6.4999999999999991
42
-0.41421356237309503
0
LWPOLYLINE
5
146
100
AcDbEntity
8
0
100
AcDbPolyline
90
8
70
1
43
0.0
10
154.92500000000001
20
6.5000000000000018
42
-0.41421356237309503
10
155.42500000000001
20
7.0000000000000018
10
168.42499999999998
20
7.0000000000000089
42
-0.41421356237309503
10
168.92499999999998
20
6.5000000000000018
10
168.92499999999998
20
-6.4999999999999991
42
-0.41421356237309503
10
168.42499999999998
20
-7
10
155.42500000000001
20
-7.0000000000000062
42
-0.41421356237309503
10
154.92500000000001
20
-6.4999999999999991
0
LWPOLYLINE
5
147
100
AcDbEntity
8
0
100
AcDbPolyline
90
8
70
1
43
0.0
10
130.82499999999999
20
-6.4999999999999991
42
-0.41421356237309503
10
130.32499999999999
20
-7
10
117.325
20
-7.0000000000000062
42
-0.41421356237309503
10
116.82499999999999
20
-6.4999999999999991
10
116.82499999999999
20
6.5000000000000018
42
-0.41421356237309503
10
117.325
20
7.0000000000000018
10
130.32499999999999
20
7.0000000000000089
42
-0.41421356237309503
10
130.82499999999999
20
6.5000000000000018
0
LWPOLYLINE
5
148
100
AcDbEntity
8
0
100
AcDbPolyline
90
8
70
1
43
0.0
10
197.78750000000002
20
-6.4999999999999991
10
197.78749999999999
20
6.5000000000000018
42
-0.41421356237309503
10
198.28749999999999
20
7.0000000000000018
10
211.28749999999999
20
7.0000000000000089
42
-0.41421356237309503
10
211.78750000000002
20
6.5000000000000018
10
211.78750000000002
20
-6.4999999999999991
42
-0.41421356237309503
10
211.28749999999999
20
-6.9999999999999973
10
198.28749999999999
20
-6.9999999999999707
42
-0.41421356237309503
0
LWPOLYLINE
5
149
100
AcDbEntity
8
0
100
AcDbPolyline
90
8
70
1
43
0.0
10
73.962500000000006
20
-6.4999999999999991
10
73.962499999999991
20
6.5000000000000018
42
-0.41421356237309503
10
74.462499999999991
20
7.0000000000000018
10
87.462500000000006
20
7.0000000000000089
42
-0.41421356237309503
10
87.962500000000006
20
6.5000000000000018
10
87.962500000000006
20
-6.4999999999999991
42
-0.41421356237309503
10
87.462500000000006
20
-7
10
74.462499999999991
20
-6.9999999999999885
42
-0.41421356237309503
0
LWPOLYLINE
5
150
100
AcDbEntity
8
0
100
AcDbPolyline
90
8
70
1
43
0.0
10
216.83750000000003
20
-6.4999999999999991
10
216.83750000000001
20
6.5000000000000018
42
-0.41421356237309503
10
217.33750000000001
20
7.0000000000000018
10
230.33750000000001
20
7.0000000000000089
42
-0.41421356237309503
10
230.83750000000003
20
6.5000000000000018
10
230.83750000000003
20
-6.4999999999999991
42
-0.41421356237309503
10
230.33750000000001
20
-7
10
217.33750000000001
20
-6.9999999999999707
42
-0.41421356237309503
0
LWPOLYLINE
5
151
100
AcDbEntity
8
0
100
AcDbPolyline
90
8
70
1
43
0.0
10
316.06249999999994
20
6.9999999999999734
42
-0.41421356237309503
10
316.56249999999994
20
6.5000000000000018
10
316.56249999999994
20
-6.4999999999999991
42
-0.41421356237309503
10
316.06249999999994
20
-6.9999999999999973
10
303.0625
20
-7.0000000000000062
42
-0.41421356237309503
10
302.5625
20
-6.4999999999999991
10
302.5625
20
6.5000000000000018
42
-0.41421356237309503
10
303.0625
20
7.0000000000000018
0
LWPOLYLINE
5
152
100
AcDbEntity
8
0
100
AcDbPolyline
90
8
70
1
43
0.0
10
354.66249999999997
20
-6.4999999999999991
42
-0.41421356237309503
10
354.16249999999997
20
-7
10
341.16250000000002
20
-6.9999999999999707
42
-0.41421356237309503
10
340.66250000000002
20
-6.4999999999999991
10
340.66250000000002
20
6.5000000000000018
42
-0.41421356237309503
10
341.16250000000002
20
7.0000000000000018
10
354.16249999999997
20
6.9999999999999734
42
-0.41421356237309503
10
354.66249999999997
20
6.5000000000000018
0
LWPOLYLINE
5
153
100
AcDbEntity
8
0
100
AcDbPolyline
90
8
70
1
43
0.0
10
-7.0000000000000036
20
-17.312499999999996
42
-0.41421356237309503
10
-6.5000000000000053
20
-16.8125
10
6.4999999999999947
20
-16.812499999999996
42
-0.41421356237309503
10
6.9999999999999947
20
-17.312499999999996
10
6.9999999999999973
20
-30.3125
42
-0.41421356237309503
10
6.4999999999999947
20
-30.812500000000004
10
-6.5000000000000053
20
-30.8125
42
-0.41421356237309503
10
-7.0000000000000062
20
-30.3125
0
LWPOLYLINE
5
154
100
AcDbEntity
8
0
100
AcDbPolyline
90
8
70
1
43
0.0
10
322.11250000000001
20
-6.9999999999999707
42
-0.41421356237309503
10
321.61250000000001
20
-6.4999999999999991
10
321.61250000000001
20
6.5000000000000018
42
-0.41421356237309503
10
322.11250000000001
20
7.0000000000000018
10
335.11249999999995
20
6.9999999999999734
42
-0.41421356237309503
10
335.61249999999995
20
6.5000000000000018
10
335.61249999999995
20
-6.4999999999999991
42
-0.41421356237309503
10
335.11249999999995
20
-6.9999999999999973
0
LWPOLYLINE
5
155
100
AcDbEntity
8
0
100
AcDbPolyline
90
8
70
1
43
0.0
10
12.049999999999997
20
-30.3125
10
12.049999999999997
20
-17.312499999999996
42
-0.41421356237309503
10
12.549999999999994
20
-16.8125
10
25.549999999999997
20
-16.812499999999993
42
-0.41421356237309503
10
26.050000000000001
20
-17.312499999999996
10
26.050000000000001
20
-30.3125
42
-0.41421356237309503
10
25.549999999999997
20
-30.812500000000004
10
12.549999999999994
20
-30.8125
42
-0.41421356237309503
0
LWPOLYLINE
5
156
100
AcDbEntity
8
0
100
AcDbPolyline
90
8
70
1
43
0.0
10
249.88750000000005
20
-6.4999999999999991
10
249.88750000000005
20
6.5000000000000018
42
0.41421356237309503
10
249.38750000000002
20
7.0000000000000018
10
236.38750000000002
20
7.0000000000000018
42
0.41421356237309503
10
235.88750000000002
20
6.5000000000000018
10
235.88750000000002
20
-6.4999999999999991
42
0.41421356237309503
10
236.38750000000002
20
-6.9999999999999973
10
249.38750000000002
20
-6.9999999999999973
42
0.41421356237309503
0
LWPOLYLINE
5
157
100
AcDbEntity
8
0
100
AcDbPolyline
90
8
70
1
43
0.0
10
283.51250000000005
20
-6.4999999999999991
10
283.51250000000005
20
6.5000000000000018
42
-0.41421356237309503
10
284.01250000000005
20
7.0000000000000018
10
297.01250000000005
20
7.0000000000000089
42
-0.41421356237309503
10
297.51250000000005
20
6.5000000000000018
10
297.51250000000005
20
-6.4999999999999991
42
-0.41421356237309503
10
297.01250000000005
20
-7
10
284.01250000000005
20
-7.0000000000000062
42
-0.41421356237309503
0
LWPOLYLINE
5
158
100
AcDbEntity
8
0
100
AcDbPolyline
90
8
70
1
43
0.0
10
50.149999999999999
20
-17.312499999999996
42
-0.41421356237309503
10
50.649999999999991
20
-16.8125
10
63.649999999999991
20
-16.8125
42
-0.41421356237309503
10
64.149999999999991
20
-17.312499999999996
10
64.149999999999991
20
-30.3125
42
-0.41421356237309503
10
63.649999999999991
20
-30.812500000000004
10
50.649999999999991
20
-30.8125
42
-0.41421356237309503
10
50.149999999999999
20
-30.3125
0
LWPOLYLINE
5
159
100
AcDbEntity
8
0
100
AcDbPolyline
90
8
70
1
43
0.0
10
44.600000000000001
20
-16.8125
10
31.599999999999994
20
-16.8125
42
0.41421356237309503
10
31.099999999999994
20
-17.312499999999996
10
31.099999999999994
20
-30.3125
42
0.41421356237309503
10
31.599999999999994
20
-30.812500000000004
10
44.600000000000001
20
-30.812500000000004
42
0.41421356237309503
10
45.099999999999994
20
-30.3125
10
45.099999999999994
20
-17.312499999999996
42
0.41421356237309503
0
LWPOLYLINE
5
160
100
AcDbEntity
8
0
100
AcDbPolyline
90
8
70
1
43
0.0
10
88.25
20
-17.312499999999996
42
-0.41421356237309503
10
88.75
20
-16.8125
10
101.75
20
-16.812499999999989
42
-0.41421356237309503
10
102.25000000000001
20
-17.312499999999996
10
102.25000000000001
20
-30.3125
42
-0.41421356237309503
10
101.75
20
-30.812500000000004
10
88.75
20
-30.812500000000007
42
-0.41421356237309503
10
88.25
20
-30.3125
0
LWPOLYLINE
5
161
100
AcDbEntity
8
0
100
AcDbPolyline
90
8
70
1
43
0.0
10
126.85000000000001
20
-30.812500000000007
42
-0.41421356237309503
10
126.34999999999999
20
-30.3125
10
126.35000000000002
20
-17.312499999999996
42
-0.41421356237309503
10
126.85000000000001
20
-16.8125
10
139.84999999999999
20
-16.812499999999989
42
-0.41421356237309503
10
140.34999999999999
20
-17.312499999999996
10
140.34999999999999
20
-30.3125
42
-0.41421356237309503
10
139.84999999999999
20
-30.812500000000004
0
LWPOLYLINE
5
162
100
AcDbEntity
8
0
100
AcDbPolyline
90
8
70
1
43
0.0
10
120.79999999999998
20
-30.812500000000004
10
107.80000000000001
20
-30.812500000000007
42
-0.41421356237309503
10
107.30000000000001
20
-30.3125
10
107.30000000000001
20
-17.312499999999996
42
-0.41421356237309503
10
107.80000000000001
20
-16.8125
10
120.79999999999998
20
-16.812499999999989
42
-0.41421356237309503
10
121.29999999999998
20
-17.312499999999996
10
121.29999999999998
20
-30.3125
42
-0.41421356237309503
0
LWPOLYLINE
5
163
100
AcDbEntity
8
0
100
AcDbPolyline
90
8
70
1
43
0.0
10
177.94999999999999
20
-16.8125
10
164.95000000000002
20
-16.8125
42
0.41421356237309503
10
164.44999999999999
20
-17.312499999999996
10
164.44999999999999
20
-30.3125
42
0.41421356237309503
10
164.95000000000002
20
-30.812500000000004
10
177.94999999999999
20
-30.812500000000004
42
0.41421356237309503
10
178.44999999999999
20
-30.3125
10
178.44999999999999
20
-17.312499999999996
42
0.41421356237309503
0
LWPOLYLINE
5
164
100
AcDbEntity
8
0
100
AcDbPolyline
90
8
70
1
43
0.0
10
82.699999999999989
20
-30.812500000000004
10
69.699999999999989
20
-30.8125
42
-0.41421356237309503
10
69.199999999999989
20
-30.3125
10
69.199999999999989
20
-17.312499999999996
42
-0.41421356237309503
10
69.699999999999989
20
-16.8125
10
82.699999999999989
20
-16.812499999999989
42
-0.41421356237309503
10
83.200000000000003
20
-17.312499999999996
10
83.200000000000003
20
-30.3125
42
-0.41421356237309503
0
LWPOLYLINE
5
165
100
AcDbEntity
8
0
100
AcDbPolyline
90
8
70
1
43
0.0
10
158.90000000000001
20
-30.812500000000004
10
145.90000000000001
20
-30.812500000000007
42
-0.41421356237309503
10
145.40000000000001
20
-30.3125
10
145.40000000000003
20
-17.312499999999996
42
-0.41421356237309503
10
145.90000000000001
20
-16.8125
10
158.90000000000001
20
-16.812499999999989
42
-0.41421356237309503
10
159.40000000000001
20
-17.312499999999996
10
159.40000000000001
20
-30.3125
42
-0.41421356237309503
0
LWPOLYLINE
5
166
100
AcDbEntity
8
0
100
AcDbPolyline
90
8
70
1
43
0.0
10
235.10000000000002
20
-30.812500000000004
10
222.10000000000002
20
-30.812500000000007
42
-0.41421356237309503
10
221.59999999999999
20
-30.3125
10
221.59999999999999
20
-17.312499999999996
42
-0.41421356237309503
10
222.10000000000002
20
-16.8125
10
235.10000000000002
20
-16.812499999999989
42
-0.41421356237309503
10
235.60000000000002
20
-17.312499999999996
10
235.60000000000002
20
-30.3125
42
-0.41421356237309503
0
LWPOLYLINE
5
167
100
AcDbEntity
8
0
100
AcDbPolyline
90
8
70
1
43
0.0
10
248.11199999999999
20
-17.8125
10
242.36199999999999
20
-17.8125
42
0.41421356237309503
10
241.86199999999999
20
-18.3125
10
241.86199999999999
20
-31.3125
42
0.41421356237309503
10
242.36199999999999
20
-31.8125
10
248.11199999999999
20
-31.8125
42
0.41421356237309503
10
248.61199999999999
20
-31.3125
10
248.61199999999999
20
-18.3125
42
0.41421356237309503
0
LWPOLYLINE
5
168
100
AcDbEntity
8
0
100
AcDbPolyline
90
8
70
1
43
0.0
10
266.238
20
-31.812500000000007
42
-0.41421356237309503
10
265.738
20
-31.3125
10
265.738
20
-18.3125
42
-0.41421356237309503
10
266.238
20
-17.8125
10
271.988
20
-17.812499999999993
42
-0.41421356237309503
10
272.488
20
-18.3125
10
272.488
20
-31.3125
42
-0.41421356237309503
10
271.988
20
-31.8125
0
LWPOLYLINE
5
169
100
AcDbEntity
8
0
100
AcDbPolyline
90
8
70
1
43
0.0
10
297.51250000000005
20
-30.3125
10
297.51250000000005
20
-17.312499999999996
42
0.41421356237309503
10
297.01250000000005
20
-16.8125
10
284.01250000000005
20
-16.8125
42
0.41421356237309503
10
283.51250000000005
20
-17.312499999999996
10
283.51250000000005
20
-30.3125
42
0.41421356237309503
10
284.01250000000005
20
-30.812500000000004
10
297.01250000000005
20
-30.812500000000004
42
0.41421356237309503
0
LWPOLYLINE
5
170
100
AcDbEntity
8
0
100
AcDbPolyline
90
8
70
1
43
0.0
10
316.06249999999994
20
-30.812500000000004
10
303.0625
20
-30.812500000000007
42
-0.41421356237309503
10
302.5625
20
-30.3125
10
302.5625
20
-17.312499999999996
42
-0.41421356237309503
10
303.0625
20
-16.8125
10
316.06249999999994
20
-16.812499999999954
42
-0.41421356237309503
10
316.5625
20
-17.312499999999996
10
316.56249999999994
20
-30.3125
42
-0.41421356237309503
0
LWPOLYLINE
5
171
100
AcDbEntity
8
0
100
AcDbPolyline
90
8
70
1
43
0.0
10
11.262499999999998
20
-35.862500000000004
42
-0.41421356237309503
10
11.762499999999996
20
-36.362499999999997
10
11.762499999999987
20
-49.362500000000011
42
-0.41421356237309503
10
11.262499999999998
20
-49.862499999999997
10
-1.7375000000000052
20
-49.862500000000011
42
-0.41421356237309503
10
-2.2375000000000056
20
-49.362500000000011
10
-2.2375000000000034
20
-36.362499999999997
42
-0.41421356237309503
10
-1.7375000000000052
20
-35.862500000000004
0
LWPOLYLINE
5
172
100
AcDbEntity
8
0
100
AcDbPolyline
90
8
70
1
43
0.0
10
203.05000000000001
20
-30.812500000000007
42
-0.41421356237309503
10
202.54999999999998
20
-30.3125
10
202.54999999999998
20
-17.312499999999996
42
-0.41421356237309503
10
203.05000000000001
20
-16.8125
10
216.05000000000001
20
-16.812499999999989
42
-0.41421356237309503
10
216.55000000000001
20
-17.312499999999996
10
216.55000000000001
20
-30.3125
42
-0.41421356237309503
10
216.05000000000001
20
-30.812500000000004
0
LWPOLYLINE
5
173
100
AcDbEntity
8
0
100
AcDbPolyline
90
8
70
1
43
0.0
10
197.5
20
-30.3125
10
197.5
20
-17.312499999999996
42
0.41421356237309503
10
197.00000000000003
20
-16.8125
10
184.00000000000003
20
-16.8125
42
0.41421356237309503
10
183.5
20
-17.312499999999996
10
183.5
20
-30.3125
42
0.41421356237309503
10
184.00000000000003
20
-30.812500000000004
10
197.00000000000003
20
-30.812500000000004
42
0.41421356237309503
0
LWPOLYLINE
5
174
100
AcDbEntity
8
0
100
AcDbPolyline
90
8
70
1
43
0.0
10
264.17500000000001
20
-30.3125
10
264.17500000000001
20
-17.312499999999996
42
0.41421356237309503
10
263.67500000000001
20
-16.8125
10
250.67499999999998
20
-16.8125
42
0.41421356237309503
10
250.17499999999998
20
-17.312499999999996
10
250.17499999999998
20
-30.3125
42
0.41421356237309503
10
250.67499999999998
20
-30.812500000000004
10
263.67500000000001
20
-30.812500000000004
42
0.41421356237309503
0
LWPOLYLINE
5
175
100
AcDbEntity
8
0
100
AcDbPolyline
90
8
70
1
43
0.0
10
97.775000000000006
20
-36.362499999999997
42
-0.41421356237309503
10
98.275000000000006
20
-35.862500000000004
10
111.27499999999999
20
-35.86249999999999
42
-0.41421356237309503
10
111.77500000000001
20
-36.362499999999997
10
111.77499999999998
20
-49.362500000000011
42
-0.41421356237309503
10
111.27499999999999
20
-49.862499999999997
10
98.275000000000006
20
-49.862500000000018
42
-0.41421356237309503
10
97.775000000000006
20
-49.362500000000011
0
LWPOLYLINE
5
176
100
AcDbEntity
8
0
100
AcDbPolyline
90
8
70
1
43
0.0
10
78.724999999999994
20
-36.362499999999997
42
-0.41421356237309503
10
79.224999999999994
20
-35.862500000000004
10
92.224999999999994
20
-35.86249999999999
42
-0.41421356237309503
10
92.725000000000009
20
-36.362499999999997
10
92.724999999999994
20
-49.362500000000011
42
-0.41421356237309503
10
92.224999999999994
20
-49.862499999999997
10
79.224999999999994
20
-49.862500000000018
42
-0.41421356237309503
10
78.724999999999994
20
-49.362500000000011
0
LWPOLYLINE
5
177
100
AcDbEntity
8
0
100
AcDbPolyline
90
8
70
1
43
0.0
10
335.61249999999995
20
-30.3125
42
-0.41421356237309503
10
335.11249999999995
20
-30.812500000000004
10
322.11250000000001
20
-30.812499999999972
42
-0.41421356237309503
10
321.61250000000001
20
-30.3125
10
321.61250000000001
20
-17.312499999999996
42
-0.41421356237309503
10
322.11250000000001
20
-16.8125
10
335.11249999999995
20
-16.812500000000025
42
-0.41421356237309503
10
335.61249999999995
20
-17.312499999999996
0
LWPOLYLINE
5
178
100
AcDbEntity
8
0
100
AcDbPolyline
90
8
70
1
43
0.0
10
340.66250000000002
20
-30.3125
10
340.66250000000002
20
-17.312499999999996
42
-0.41421356237309503
10
341.16250000000002
20
-16.8125
10
354.16249999999997
20
-16.812499999999954
42
-0.41421356237309503
10
354.66250000000002
20
-17.312499999999996
10
354.66249999999997
20
-30.3125
42
-0.41421356237309503
10
354.16249999999997
20
-30.812500000000004
10
341.16250000000002
20
-30.812499999999972
42
-0.41421356237309503
0
LWPOLYLINE
5
179
100
AcDbEntity
8
0
100
AcDbPolyline
90
8
70
1
43
0.0
10
35.074999999999996
20
-35.862500000000004
42
-0.41421356237309503
10
35.574999999999989
20
-36.362499999999997
10
35.574999999999982
20
-49.362500000000011
42
-0.41421356237309503
10
35.074999999999996
20
-49.862499999999997
10
22.074999999999996
20
-49.862500000000011
42
-0.41421356237309503
10
21.574999999999996
20
-49.362500000000011
10
21.574999999999996
20
-36.362499999999997
42
-0.41421356237309503
10
22.074999999999996
20
-35.862500000000004
0
LWPOLYLINE
5
180
100
AcDbEntity
8
0
100
AcDbPolyline
90
8
70
1
43
0.0
10
73.175000000000011
20
-49.862499999999997
10
60.174999999999997
20
-49.862500000000011
42
-0.41421356237309503
10
59.675000000000004
20
-49.362500000000011
10
59.675000000000004
20
-36.362499999999997
42
-0.41421356237309503
10
60.174999999999997
20
-35.862500000000004
10
73.175000000000011
20
-35.86249999999999
42
-0.41421356237309503
10
73.675000000000011
20
-36.362499999999997
10
73.674999999999997
20
-49.362500000000011
42
-0.41421356237309503
0
LWPOLYLINE
5
181
100
AcDbEntity
8
0
100
AcDbPolyline
90
8
70
1
43
0.0
10
40.625
20
-49.362500000000011
10
40.625
20
-36.362499999999997
42
-0.41421356237309503
10
41.125
20
-35.862500000000004
10
54.125
20
-35.86249999999999
42
-0.41421356237309503
10
54.625
20
-36.362499999999997
10
54.624999999999986
20
-49.362500000000011
42
-0.41421356237309503
10
54.125
20
-49.862499999999997
10
41.125
20
-49.862500000000011
42
-0.41421356237309503
0
LWPOLYLINE
5
182
100
AcDbEntity
8
0
100
AcDbPolyline
90
8
70
1
43
0.0
10
187.97499999999999
20
-49.362500000000011
10
187.97499999999999
20
-36.362499999999997
42
0.41421356237309503
10
187.47500000000002
20
-35.862500000000004
10
174.47500000000002
20
-35.862500000000004
42
0.41421356237309503
10
173.97500000000002
20
-36.362499999999997
10
173.97500000000002
20
-49.362500000000011
42
0.41421356237309503
10
174.47500000000002
20
-49.862499999999997
10
187.47500000000002
20
-49.862499999999997
42
0.41421356237309503
0
LWPOLYLINE
5
183
100
AcDbEntity
8
0
100
AcDbPolyline
90
8
70
1
43
0.0
10
206.52500000000003
20
-35.862500000000004
10
193.52500000000003
20
-35.862500000000004
42
0.41421356237309503
10
193.02500000000003
20
-36.362499999999997
10
193.02500000000003
20
-49.362500000000011
42
0.41421356237309503
10
193.52500000000003
20
-49.862499999999997
10
206.52500000000003
20
-49.862499999999997
42
0.41421356237309503
10
207.02500000000001
20
-49.362500000000011
10
207.02500000000001
20
-36.362499999999997
42
0.41421356237309503
0
LWPOLYLINE
5
184
100
AcDbEntity
8
0
100
AcDbPolyline
90
8
70
1
43
0.0
10
231.125
20
-36.362499999999997
42
-0.41421356237309503
10
231.625
20
-35.862500000000004
10
244.62500000000003
20
-35.86249999999999
42
-0.41421356237309503
10
245.12500000000003
20
-36.362499999999997
10
245.12500000000003
20
-49.362500000000011
42
-0.41421356237309503
10
244.62500000000003
20
-49.862499999999997
10
231.625
20
-49.862500000000018
42
-0.41421356237309503
10
231.125
20
-49.362500000000011
0
LWPOLYLINE
5
185
100
AcDbEntity
8
0
100
AcDbPolyline
90
8
70
1
43
0.0
10
130.82499999999999
20
-49.362500000000011
10
130.82499999999999
20
-36.362499999999997
42
0.41421356237309503
10
130.32499999999999
20
-35.862500000000004
10
117.325
20
-35.862500000000004
42
0.41421356237309503
10
116.82499999999999
20
-36.362499999999997
10
116.82499999999999
20
-49.362500000000011
42
0.41421356237309503
10
117.325
20
-49.862499999999997
10
130.32499999999999
20
-49.862499999999997
42
0.41421356237309503
0
LWPOLYLINE
5
186
100
AcDbEntity
8
0
100
AcDbPolyline
90
8
70
1
43
0.0
10
154.92500000000001
20
-36.362499999999997
42
-0.41421356237309503
10
155.42500000000001
20
-35.862500000000004
10
168.42499999999998
20
-35.86249999999999
42
-0.41421356237309503
10
168.92499999999998
20
-36.362499999999997
10
168.92499999999998
20
-49.362500000000011
42
-0.41421356237309503
10
168.42499999999998
20
-49.862499999999997
10
155.42500000000001
20
-49.862500000000018
42
-0.41421356237309503
10
154.92500000000001
20
-49.362500000000011
0
LWPOLYLINE
5
187
100
AcDbEntity
8
0
100
AcDbPolyline
90
8
70
1
43
0.0
10
135.87500000000003
20
-36.362499999999997
42
-0.41421356237309503
10
136.375
20
-35.862500000000004
10
149.375
20
-35.86249999999999
42
-0.41421356237309503
10
149.875
20
-36.362499999999997
10
149.875
20
-49.362500000000011
42
-0.41421356237309503
10
149.375
20
-49.862499999999997
10
136.375
20
-49.862500000000018
42
-0.41421356237309503
10
135.875
20
-49.362500000000011
0
LWPOLYLINE
5
188
100
AcDbEntity
8
0
100
AcDbPolyline
90
8
70
1
43
0.0
10
254.9375
20
-49.362500000000011
10
254.9375
20
-36.362499999999997
42
-0.41421356237309503
10
255.4375
20
-35.862500000000004
10
268.4375
20
-35.862500000000026
42
-0.41421356237309503
10
268.9375
20
-36.362499999999997
10
268.9375
20
-49.362500000000011
42
-0.41421356237309503
10
268.4375
20
-49.862499999999997
10
255.4375
20
-49.862500000000018
42
-0.41421356237309503
0
LWPOLYLINE
5
189
100
AcDbEntity
8
0
100
AcDbPolyline
90
8
70
1
43
0.0
10
225.57500000000002
20
-35.86249999999999
42
-0.41421356237309503
10
226.07500000000002
20
-36.362499999999997
10
226.07500000000002
20
-49.362500000000011
42
-0.41421356237309503
10
225.57500000000002
20
-49.862499999999997
10
212.57499999999999
20
-49.862500000000018
42
-0.41421356237309503
10
212.07499999999999
20
-49.362500000000011
10
212.07499999999999
20
-36.362499999999997
42
-0.41421356237309503
10
212.57499999999999
20
-35.862500000000004
0
LWPOLYLINE
5
190
100
AcDbEntity
8
0
100
AcDbPolyline
90
8
70
1
43
0.0
10
340.16250000000002
20
-37.0745
10
353.16250000000002
20
-37.074500000000029
42
-0.41421356237309503
10
353.66250000000002
20
-37.5745
10
353.66250000000008
20
-43.3245
42
-0.41421356237309503
10
353.16250000000002
20
-43.8245
10
340.16250000000002
20
-43.824499999999972
42
-0.41421356237309503
10
339.66250000000002
20
-43.3245
10
339.66250000000002
20
-37.5745
42
-0.41421356237309503
0
LWPOLYLINE
5
191
100
AcDbEntity
8
0
100
AcDbPolyline
90
8
70
1
43
0.0
10
39.837499999999999
20
-68.912499999999994
10
26.837499999999995
20
-68.912500000000009
42
-0.41421356237309503
10
26.337499999999991
20
-68.412500000000009
10
26.337500000000006
20
-55.412499999999994
42
-0.41421356237309503
10
26.837499999999995
20
-54.912500000000009
10
39.837499999999999
20
-54.912500000000001
42
-0.41421356237309503
10
40.337499999999991
20
-55.412499999999994
10
40.337499999999984
20
-68.412500000000009
42
-0.41421356237309503
0
LWPOLYLINE
5
192
100
AcDbEntity
8
0
100
AcDbPolyline
90
8
70
1
43
0.0
10
354.66249999999997
20
-58.887500000000003
42
-0.41421356237309503
10
354.16249999999997
20
-59.387499999999989
10
341.16250000000002
20
-59.387499999999974
42
-0.41421356237309503
10
340.66250000000002
20
-58.887500000000003
10
340.66249999999997
20
-45.88750000000001
42
-0.41421356237309503
10
341.16250000000002
20
-45.387500000000003
10
354.16249999999997
20
-45.387500000000038
42
-0.41421356237309503
10
354.66249999999997
20
-45.88750000000001
0
LWPOLYLINE
5
193
100
AcDbEntity
8
0
100
AcDbPolyline
90
8
70
1
43
0.0
10
9.3812499999999943
20
-68.412500000000009
10
9.3812499999999943
20
-55.412499999999994
42
0.41421356237309503
10
8.8812499999999979
20
-54.912500000000009
10
-4.1187500000000057
20
-54.912500000000009
42
0.41421356237309503
10
-4.6187500000000057
20
-55.412499999999994
10
-4.6187500000000057
20
-68.412500000000009
42
0.41421356237309503
10
-4.1187500000000057
20
-68.912499999999994
10
8.8812499999999961
20
-68.912499999999994
42
0.41421356237309503
0
LWPOLYLINE
5
194
100
AcDbEntity
8
0
100
AcDbPolyline
90
8
70
1
43
0.0
10
335.61249999999995
20
-49.362500000000011
42
-0.41421356237309503
10
335.11249999999995
20
-49.862499999999997
10
322.11250000000001
20
-49.862499999999983
42
-0.41421356237309503
10
321.61250000000001
20
-49.362500000000011
10
321.61250000000001
20
-36.362499999999997
42
-0.41421356237309503
10
322.11250000000001
20
-35.862500000000004
10
335.11249999999995
20
-35.862499999999955
42
-0.41421356237309503
10
335.61250000000001
20
-36.362499999999997
0
LWPOLYLINE
5
195
100
AcDbEntity
8
0
100
AcDbPolyline
90
8
70
1
43
0.0
10
297.51250000000005
20
-49.362500000000011
10
297.51250000000005
20
-36.362499999999997
42
0.41421356237309503
10
297.01250000000005
20
-35.862500000000004
10
284.01250000000005
20
-35.862500000000004
42
0.41421356237309503
10
283.51250000000005
20
-36.362499999999997
10
283.51250000000005
20
-49.362500000000011
42
0.41421356237309503
10
284.01250000000005
20
-49.862499999999997
10
297.01250000000005
20
-49.862499999999997
42
0.41421356237309503
0
LWPOLYLINE
5
196
100
AcDbEntity
8
0
100
AcDbPolyline
90
8
70
1
43
0.0
10
340.16250000000002
20
-67.700499999999977
42
-0.41421356237309503
10
339.66250000000002
20
-67.200500000000005
10
339.66250000000002
20
-61.450499999999991
42
-0.41421356237309503
10
340.16250000000002
20
-60.950500000000005
10
353.16250000000002
20
-60.950500000000019
42
-0.41421356237309503
10
353.66250000000002
20
-61.450499999999991
10
353.66250000000002
20
-67.200500000000005
42
-0.41421356237309503
10
353.16250000000002
20
-67.700499999999991
0
LWPOLYLINE
5
197
100
AcDbEntity
8
0
100
AcDbPolyline
90
8
70
1
43
0.0
10
316.06249999999994
20
-35.862500000000004
10
303.0625
20
-35.862500000000004
42
0.41421356237309503
10
302.5625
20
-36.362499999999997
10
302.5625
20
-49.362500000000011
42
0.41421356237309503
10
303.0625
20
-49.862499999999997
10
316.06249999999994
20
-49.862499999999997
42
0.41421356237309503
10
316.5625
20
-49.362500000000011
10
316.5625
20
-36.362499999999997
42
0.41421356237309503
0
LWPOLYLINE
5
198
100
AcDbEntity
8
0
100
AcDbPolyline
90
8
70
1
43
0.0
10
58.887499999999989
20
-54.912500000000009
10
45.887500000000003
20
-54.912500000000009
42
0.41421356237309503
10
45.387500000000003
20
-55.412499999999994
10
45.387500000000003
20
-68.412500000000009
42
0.41421356237309503
10
45.887500000000003
20
-68.912499999999994
10
58.887499999999989
20
-68.912499999999994
42
0.41421356237309503
10
59.387499999999989
20
-68.412500000000009
10
59.387499999999989
20
-55.412499999999994
42
0.41421356237309503
0
LWPOLYLINE
5
199
100
AcDbEntity
8
0
100
AcDbPolyline
90
8
70
1
43
0.0
10
141.13749999999999
20
-68.912500000000009
42
-0.41421356237309503
10
140.63749999999999
20
-68.412500000000009
10
140.63750000000002
20
-55.412499999999994
42
-0.41421356237309503
10
141.13749999999999
20
-54.912500000000009
10
154.13749999999999
20
-54.912499999999994
42
-0.41421356237309503
10
154.63750000000002
20
-55.412499999999994
10
154.63749999999999
20
-68.412500000000009
42
-0.41421356237309503
10
154.13749999999999
20
-68.912499999999994
0
LWPOLYLINE
5
200
100
AcDbEntity
8
0
100
AcDbPolyline
90
8
70
1
43
0.0
10
77.937500000000014
20
-54.912500000000009
10
64.9375
20
-54.912500000000009
42
0.41421356237309503
10
64.4375
20
-55.412499999999994
10
64.4375
20
-68.412500000000009
42
0.41421356237309503
10
64.9375
20
-68.912499999999994
10
77.937500000000014
20
-68.912499999999994
42
0.41421356237309503
10
78.4375
20
-68.412500000000009
10
78.4375
20
-55.412499999999994
42
0.41421356237309503
0
LWPOLYLINE
5
201
100
AcDbEntity
8
0
100
AcDbPolyline
90
8
70
1
43
0.0
10
116.03749999999999
20
-54.912500000000009
10
103.03750000000001
20
-54.912500000000009
42
0.41421356237309503
10
102.53749999999999
20
-55.412499999999994
10
102.53749999999999
20
-68.412500000000009
42
0.41421356237309503
10
103.03750000000001
20
-68.912499999999994
10
116.03749999999999
20
-68.912499999999994
42
0.41421356237309503
10
116.53750000000001
20
-68.412500000000009
10
116.53750000000001
20
-55.412499999999994
42
0.41421356237309503
0
LWPOLYLINE
5
202
100
AcDbEntity
8
0
100
AcDbPolyline
90
8
70
1
43
0.0
10
96.987500000000011
20
-68.912499999999994
10
83.987499999999997
20
-68.912500000000009
42
-0.41421356237309503
10
83.487499999999983
20
-68.412500000000009
10
83.487500000000011
20
-55.412499999999994
42
-0.41421356237309503
10
83.987499999999997
20
-54.912500000000009
10
96.987500000000011
20
-54.912499999999994
42
-0.41421356237309503
10
97.487500000000011
20
-55.412499999999994
10
97.487499999999997
20
-68.412500000000009
42
-0.41421356237309503
0
LWPOLYLINE
5
203
100
AcDbEntity
8
0
100
AcDbPolyline
90
8
70
1
43
0.0
10
121.58750000000003
20
-55.412499999999994
42
-0.41421356237309503
10
122.08750000000002
20
-54.912500000000009
10
135.08750000000001
20
-54.912499999999994
42
-0.41421356237309503
10
135.58750000000001
20
-55.412499999999994
10
135.58750000000001
20
-68.412500000000009
42
-0.41421356237309503
10
135.08750000000001
20
-68.912499999999994
10
122.08750000000002
20
-68.912500000000009
42
-0.41421356237309503
10
121.58750000000001
20
-68.412500000000009
0
LWPOLYLINE
5
204
100
AcDbEntity
8
0
100
AcDbPolyline
90
8
70
1
43
0.0
10
173.1875
20
-68.912499999999994
10
160.1875
20
-68.912500000000009
42
-0.41421356237309503
10
159.6875
20
-68.412500000000009
10
159.68750000000003
20
-55.412499999999994
42
-0.41421356237309503
10
160.1875
20
-54.912500000000009
10
173.1875
20
-54.912499999999994
42
-0.41421356237309503
10
173.68750000000003
20
-55.412499999999994
10
173.6875
20
-68.412500000000009
42
-0.41421356237309503
0
LWPOLYLINE
5
205
100
AcDbEntity
8
0
100
AcDbPolyline
90
8
70
1
43
0.0
10
263.35675000000003
20
-56.412499999999994
42
-0.41421356237309503
10
263.85675000000003
20
-55.912500000000009
10
269.60675000000003
20
-55.912499999999987
42
-0.41421356237309503
10
270.10675000000003
20
-56.412499999999994
10
270.10675000000003
20
-69.412499999999994
42
-0.41421356237309503
10
269.60675000000003
20
-69.912500000000009
10
263.85675000000003
20
-69.912500000000009
42
-0.41421356237309503
10
263.35675000000003
20
-69.412499999999994
0
LWPOLYLINE
5
206
100
AcDbEntity
8
0
100
AcDbPolyline
90
8
70
1
43
0.0
10
316.5625
20
-68.412500000000009
10
316.5625
20
-55.412499999999994
42
0.41421356237309503
10
316.06249999999994
20
-54.912500000000009
10
303.0625
20
-54.912500000000009
42
0.41421356237309503
10
302.5625
20
-55.412499999999994
10
302.5625
20
-68.412500000000009
42
0.41421356237309503
10
303.0625
20
-68.912499999999994
10
316.06249999999994
20
-68.912499999999994
42
0.41421356237309503
0
LWPOLYLINE
5
207
100
AcDbEntity
8
0
100
AcDbPolyline
90
8
70
1
43
0.0
10
245.73075000000003
20
-55.912499999999987
42
-0.41421356237309503
10
246.23075000000003
20
-56.412499999999994
10
246.23075000000003
20
-69.412499999999994
42
-0.41421356237309503
10
245.73075000000003
20
-69.912500000000009
10
239.98075
20
-69.912500000000009
42
-0.41421356237309503
10
239.48075
20
-69.412499999999994
10
239.48075000000003
20
-56.412499999999994
42
-0.41421356237309503
10
239.98075
20
-55.912500000000009
0
LWPOLYLINE
5
208
100
AcDbEntity
8
0
100
AcDbPolyline
90
8
70
1
43
0.0
10
261.79374999999999
20
-68.412500000000009
42
-0.41421356237309503
10
261.29375000000005
20
-68.912499999999994
10
248.29375000000002
20
-68.912500000000009
42
-0.41421356237309503
10
247.79375000000002
20
-68.412500000000009
10
247.79375000000002
20
-55.412499999999994
42
-0.41421356237309503
10
248.29375000000002
20
-54.912500000000009
10
261.29375000000005
20
-54.912499999999994
42
-0.41421356237309503
10
261.79375000000005
20
-55.412499999999994
0
LWPOLYLINE
5
209
100
AcDbEntity
8
0
100
AcDbPolyline
90
8
70
1
43
0.0
10
230.83750000000003
20
-68.412500000000009
42
-0.41421356237309503
10
230.33750000000001
20
-68.912499999999994
10
217.33750000000001
20
-68.912500000000009
42
-0.41421356237309503
10
216.83750000000001
20
-68.412500000000009
10
216.83750000000003
20
-55.412499999999994
42
-0.41421356237309503
10
217.33750000000001
20
-54.912500000000009
10
230.33750000000001
20
-54.912499999999994
42
-0.41421356237309503
10
230.83750000000003
20
-55.412499999999994
0
ENDSEC
0
SECTION
2
OBJECTS
0
DICTIONARY
5
C
100
AcDbDictionary
3
ACAD_GROUP
350
D
3
ACAD_MLINESTYLE
350
17
0
DICTIONARY
5
D
100
AcDbDictionary
0
DICTIONARY
5
1A
330
C
100
AcDbDictionary
0
DICTIONARY
5
17
100
AcDbDictionary
0
ENDSEC
0
EOF
