0
SECTION
2
HEADER
9
$INSUNITS
70
4
9
$ACADVER
1
AC1014
9
$HANDSEED
5
FFFF
0
ENDSEC
0
SECTION
2
TABLES
0
TABLE
2
VPORT
5
8
100
AcDbSymbolTable
0
ENDTAB
0
TABLE
2
LTYPE
5
5
100
AcDbSymbolTable
0
LTYPE
5
14
100
AcDbSymbolTableRecord
100
AcDbLinetypeTableRecord
2
BYBLOCK
70
0
0
LTYPE
5
15
100
AcDbSymbolTableRecord
100
AcDbLinetypeTableRecord
2
BYLAYER
70
0
0
ENDTAB
0
TABLE
2
LAYER
5
2
100
AcDbSymbolTable
70
2
0
LAYER
5
50
100
AcDbSymbolTableRecord
100
AcDbLayerTableRecord
2
0
70
0
6
CONTINUOUS
0
ENDTAB
0
TABLE
2
STYLE
5
3
100
AcDbSymbolTable
70
1
0
STYLE
5
11
100
AcDbSymbolTableRecord
100
AcDbTextStyleTableRecord
2
STANDARD
70
0
0
ENDTAB
0
TABLE
2
VIEW
5
6
100
AcDbSymbolTable
70
0
0
ENDTAB
0
TABLE
2
UCS
5
7
100
AcDbSymbolTable
70
0
0
ENDTAB
0
TABLE
2
APPID
5
9
100
AcDbSymbolTable
70
2
0
APPID
5
12
100
AcDbSymbolTableRecord
100
AcDbRegAppTableRecord
2
ACAD
70
0
0
ENDTAB
0
TABLE
2
DIMSTYLE
5
A
100
AcDbSymbolTable
70
1
0
ENDTAB
0
TABLE
2
BLOCK_RECORD
5
1
100
AcDbSymbolTable
70
1
0
BLOCK_RECORD
5
1F
100
AcDbSymbolTableRecord
100
AcDbBlockTableRecord
2
*MODEL_SPACE
0
BLOCK_RECORD
5
1B
100
AcDbSymbolTableRecord
100
AcDbBlockTableRecord
2
*PAPER_SPACE
0
ENDTAB
0
ENDSEC
0
SECTION
2
BLOCKS
0
BLOCK
5
20
100
AcDbEntity
100
AcDbBlockBegin
2
*MODEL_SPACE
0
ENDBLK
5
21
100
AcDbEntity
100
AcDbBlockEnd
0
BLOCK
5
1C
100
AcDbEntity
100
AcDbBlockBegin
2
*PAPER_SPACE
0
ENDBLK
5
1D
100
AcDbEntity
100
AcDbBlockEnd
0
ENDSEC
0
SECTION
2
ENTITIES
0
LWPOLYLINE
5
100
100
AcDbEntity
8
0
100
AcDbPolyline
90
276
70
1
43
0.0
10
-183.35624999999999
20
55.150000000000006
42
-0.41421356237309764
10
-181.35625000000002
20
57.15000000000002
10
-176.83125000000001
20
57.15000000000002
42
0.41421356237313145
10
-176.33125000000001
20
57.650000000000013
10
-176.33125000000001
20
59.90000000000002
42
-0.99999999999999989
10
-171.33125000000001
20
59.90000000000002
10
-171.33125000000001
20
57.650000000000013
42
0.41421356237313145
10
-170.83124999999998
20
57.15000000000002
10
-139.73124999999999
20
57.15000000000002
42
-0.41421356237308982
10
-139.23124999999999
20
56.65000000000002
10
-139.23124999999999
20
55.125000000000021
42
-0.41421356237308982
10
-139.73124999999999
20
54.625000000000021
10
-151.75624999999997
20
54.624999999999993
42
0.41421356237312101
10
-152.25624999999997
20
54.125000000000014
10
-152.25625000000002
20
41.125000000000007
42
0.41421356237312101
10
-151.75624999999997
20
40.625000000000007
10
-138.75624999999999
20
40.625000000000007
42
0.41421356237312101
10
-138.25624999999997
20
41.125000000000007
10
-138.25624999999997
20
51.125000000000014
42
-0.41421356237308982
10
-137.75624999999994
20
51.625000000000014
10
-133.70625000000013
20
51.625000000000014
42
-0.41421356237310025
10
-133.2062500000001
20
51.125000000000014
10
-133.20625000000001
20
41.125000000000007
42
0.41421356237312101
10
-132.70624999999995
20
40.625000000000007
10
-119.70624999999998
20
40.625000000000007
42
0.41421356237312101
10
-119.20624999999994
20
41.125000000000007
10
-119.20624999999994
20
54.125000000000014
42
0.41421356237312101
10
-119.70624999999998
20
54.625000000000014
10
-131.73124999999996
20
54.625
42
-0.41421356237310542
10
-132.23124999999996
20
55.124999999999993
10
-132.23124999999996
20
56.65000000000002
42
-0.41421356237308982
10
-131.73124999999996
20
57.15000000000002
10
-86.343750000000028
20
57.15000000000002
42
0.41421356237308982
10
-85.843750000000014
20
57.650000000000013
10
-85.843750000000014
20
59.90000000000002
42
-0.99999999999999989
10
-80.843750000000014
20
59.90000000000002
10
-80.843750000000014
20
57.650000000000013
42
0.41421356237308982
10
-80.34375
20
57.15000000000002
10
-49.24374999999992
20
57.15000000000002
42
-0.41421356237309503
10
-48.743749999999928
20
56.65000000000002
10
-48.743749999999928
20
55.125000000000021
42
-0.41421356237309503
10
-49.24374999999992
20
54.625000000000021
10
-61.268749999999912
20
54.624999999999993
42
0.41421356237312101
10
-61.768749999999919
20
54.125000000000014
10
-61.768749999999955
20
41.125000000000007
42
0.41421356237312101
10
-61.268749999999912
20
40.625000000000007
10
-48.26874999999994
20
40.625000000000007
42
0.41421356237312101
10
-47.768749999999898
20
41.125000000000007
10
-47.768749999999898
20
51.125000000000007
42
-0.41421356237309503
10
-47.268749999999898
20
51.625000000000007
10
-43.218750000000206
20
51.625000000000007
42
-0.4142135623730846
10
-42.718750000000213
20
51.125000000000028
10
-42.718749999999943
20
41.125000000000007
42
0.41421356237312101
10
-42.218749999999901
20
40.625000000000007
10
-29.218749999999929
20
40.625000000000007
42
0.41421356237312101
10
-28.718749999999886
20
41.125000000000007
10
-28.718749999999886
20
54.125000000000014
42
0.41421356237312101
10
-29.218749999999929
20
54.625000000000014
10
-41.243749999999899
20
54.624999999999993
42
-0.41421356237310542
10
-41.743749999999899
20
55.124999999999993
10
-41.743749999999899
20
56.65000000000002
42
-0.41421356237309503
10
-41.243749999999899
20
57.15000000000002
10
-2.9999999999999982
20
57.15000000000002
42
0.41421356237309437
10
-2.5
20
57.650000000000013
10
-2.5
20
59.90000000000002
42
-0.99999999999999989
10
2.5
20
59.90000000000002
10
2.5
20
57.650000000000013
42
0.41421356237309537
10
2.9999999999999982
20
57.15000000000002
10
60.293750000000102
20
57.15000000000002
42
-0.41421356237309503
10
60.793750000000102
20
56.65000000000002
10
60.793750000000102
20
55.125000000000014
42
-0.41421356237310542
10
60.293750000000102
20
54.625000000000014
10
48.268750000000118
20
54.624999999999993
42
0.41421356237312101
10
47.768750000000111
20
54.125000000000014
10
47.768750000000075
20
41.125000000000007
42
0.41421356237312101
10
48.268750000000118
20
40.625000000000007
10
61.26875000000009
20
40.625000000000007
42
0.41421356237312101
10
61.768750000000132
20
41.125000000000007
10
61.768750000000132
20
51.125000000000007
42
-0.41421356237309503
10
62.268750000000132
20
51.625000000000007
10
66.318749999999824
20
51.625000000000007
42
-0.4142135623730846
10
66.818749999999824
20
51.125000000000028
10
66.81875000000008
20
41.125000000000007
42
0.41421356237312101
10
67.318750000000136
20
40.625000000000007
10
80.318750000000108
20
40.625000000000007
42
0.41421356237312101
10
80.818750000000136
20
41.125000000000007
10
80.818750000000136
20
54.125000000000014
42
0.41421356237312101
10
80.318750000000108
20
54.625000000000014
10
68.293750000000131
20
54.624999999999993
42
-0.41421356237310542
10
67.793750000000131
20
55.124999999999993
10
67.793750000000131
20
56.65000000000002
42
-0.41421356237309503
10
68.293750000000131
20
57.15000000000002
10
80.34375
20
57.15000000000002
42
0.41421356237308982
10
80.843750000000014
20
57.650000000000013
10
80.843750000000014
20
59.90000000000002
42
-0.99999999999999989
10
85.843750000000014
20
59.90000000000002
10
85.843750000000014
20
57.650000000000013
42
0.41421356237308982
10
86.343750000000028
20
57.15000000000002
10
142.25624999999997
20
57.15000000000002
42
0.41421356237308982
10
142.75624999999997
20
57.650000000000013
10
142.75624999999997
20
59.90000000000002
42
-0.99999999999999989
10
147.75624999999997
20
59.90000000000002
10
147.75624999999997
20
57.650000000000013
42
0.41421356237308982
10
148.25624999999999
20
57.15000000000002
10
160.30625000000018
20
57.15000000000002
42
-0.41421356237313145
10
160.8062500000002
20
56.65000000000002
10
160.8062500000002
20
55.125000000000014
42
-0.41421356237313145
10
160.30625000000018
20
54.625000000000014
10
148.28125000000011
20
54.624999999999993
42
0.41421356237312101
10
147.78125000000011
20
54.125000000000014
10
147.78125000000006
20
41.125000000000007
42
0.41421356237312101
10
148.28125000000011
20
40.625000000000007
10
161.28125000000009
20
40.625000000000007
42
0.41421356237312101
10
161.78125000000011
20
41.125000000000007
10
161.78125000000009
20
51.125000000000007
42
-0.41421356237312101
10
162.28125000000011
20
51.625000000000007
10
166.33124999999995
20
51.625000000000007
42
-0.41421356237313145
10
166.83124999999995
20
51.125000000000007
10
166.83125000000007
20
41.125000000000007
42
0.41421356237312101
10
167.33125000000013
20
40.625000000000007
10
180.3312500000001
20
40.625000000000007
42
0.41421356237312101
10
180.83125000000013
20
41.125000000000007
10
180.83125000000013
20
54.125000000000014
42
0.41421356237312101
10
180.3312500000001
20
54.625000000000014
10
168.30625000000009
20
54.624999999999993
42
-0.41421356237313145
10
167.80625000000009
20
55.124999999999993
10
167.80625000000009
20
56.65000000000002
42
-0.41421356237313145
10
168.30625000000009
20
57.15000000000002
10
181.35625000000002
20
57.15000000000002
42
-0.41421356237309631
10
183.35624999999999
20
55.150000000000013
10
183.35624999999999
20
3.025000000000011
42
-0.41421356237312817
10
182.85624999999999
20
2.5250000000000119
10
181.33125000000013
20
2.5249999999999959
42
-0.41421356237309698
10
180.83125000000013
20
3.0250000000000066
10
180.83125000000013
20
16.025000000000009
42
0.41421356237312101
10
180.3312500000001
20
16.525000000000006
10
167.33125000000013
20
16.524999999999991
42
0.41421356237312101
10
166.83125000000013
20
16.025000000000009
10
166.83125000000007
20
3.0250000000000021
42
0.41421356237312101
10
167.33125000000013
20
2.5250000000000039
10
176.85624999999999
20
2.5250000000000017
42
-0.41421356237312851
10
177.35624999999999
20
2.0250000000000088
10
177.35624999999999
20
-2.0249999999999928
42
-0.41421356237312773
10
176.85624999999999
20
-2.5249999999999844
10
167.33125000000013
20
-2.5250000000000217
42
0.41421356237312101
10
166.83125000000013
20
-3.0250000000000021
10
166.83125000000007
20
-16.025000000000009
42
0.41421356237312101
10
167.33125000000013
20
-16.525000000000006
10
180.3312500000001
20
-16.525000000000006
42
0.41421356237312101
10
180.83125000000013
20
-16.025000000000009
10
180.83125000000013
20
-3.0250000000000021
42
-0.41421356237309731
10
181.33125000000013
20
-2.524999999999991
10
182.85624999999999
20
-2.5250000000000021
42
-0.41421356237312917
10
183.35624999999999
20
-3.0249999999999932
10
183.35624999999999
20
-55.149999999999999
42
-0.41421356237309631
10
181.35625000000002
20
-57.149999999999999
10
176.83125000000001
20
-57.149999999999999
42
0.41421356237313145
10
176.33125000000001
20
-57.649999999999999
10
176.33125000000001
20
-59.900000000000006
42
-0.99999999999999989
10
171.33125000000001
20
-59.900000000000006
10
171.33125000000001
20
-57.649999999999999
42
0.41421356237313145
10
170.83124999999998
20
-57.149999999999999
10
148.84375000000003
20
-57.149999999999999
42
-0.41421356237308982
10
148.34375
20
-56.649999999999999
10
148.34375
20
-55.125000000000014
42
-0.41421356237310542
10
148.84375000000003
20
-54.625000000000014
10
161.28125000000009
20
-54.625000000000014
42
0.41421356237312101
10
161.78125000000011
20
-54.125000000000014
10
161.78125000000011
20
-41.125000000000007
42
0.41421356237312101
10
161.28125000000009
20
-40.625000000000007
10
148.28125000000011
20
-40.625000000000028
42
0.41421356237312101
10
147.78125000000011
20
-41.125000000000007
10
147.78125000000009
20
-50.650000000000006
42
-0.41421356237311585
10
147.28125000000009
20
-51.149999999999991
10
142.39325000000008
20
-51.150000000000006
42
-0.41421356237305862
10
141.89325000000008
20
-50.650000000000006
10
141.89325000000008
20
-39.374999999999979
42
0.41421356237309764
10
141.39325000000011
20
-38.874999999999979
10
134.89325000000008
20
-38.874999999999979
42
0.41421356237309503
10
134.39325000000008
20
-39.374999999999979
10
134.39325000000008
20
-53.874999999999972
42
0.41421356237309503
10
134.89325000000008
20
-54.374999999999986
10
140.84375
20
-54.374999999999986
42
-0.41421356237308982
10
141.34375000000003
20
-54.874999999999979
10
141.34375000000003
20
-56.649999999999999
42
-0.41421356237308982
10
140.84375
20
-57.149999999999999
10
86.343750000000028
20
-57.149999999999999
42
0.41421356237308982
10
85.843750000000014
20
-57.649999999999999
10
85.843750000000014
20
-59.900000000000006
42
-0.99999999999999989
10
80.843750000000014
20
-59.900000000000006
10
80.843750000000014
20
-57.649999999999999
42
0.41421356237308982
10
80.34375
20
-57.149999999999999
10
57.387500000000038
20
-57.149999999999999
42
-0.41421356237309503
10
56.887500000000045
20
-56.649999999999999
10
56.887500000000045
20
-55.125
42
-0.41421356237309503
10
57.387500000000038
20
-54.625
10
70.793750000000017
20
-54.625
42
0.41421356237314183
10
71.293750000000074
20
-54.125000000000007
10
71.293750000000074
20
-41.125
42
0.41421356237314183
10
70.793750000000017
20
-40.625
10
57.793750000000088
20
-40.625000000000014
42
0.41421356237314183
10
57.293750000000045
20
-41.125
10
57.293750000000045
20
-51.125000000000007
42
-0.41421356237309503
10
56.793750000000045
20
-51.625000000000007
10
47.981250000000053
20
-51.625000000000007
42
-0.41421356237309503
10
47.481250000000053
20
-51.125000000000007
10
47.481250000000053
20
-41.125
42
0.41421356237314183
10
46.98125000000001
20
-40.625
10
33.981250000000074
20
-40.625000000000014
42
0.41421356237314183
10
33.481250000000031
20
-41.125
10
33.481250000000031
20
-54.125000000000007
42
0.41421356237314183
10
33.981250000000074
20
-54.625
10
47.38750000000006
20
-54.625
42
-0.41421356237309503
10
47.88750000000006
20
-55.125
10
47.88750000000006
20
-56.649999999999999
42
-0.41421356237310025
10
47.387500000000045
20
-57.149999999999999
10
19.66875000000001
20
-57.149999999999999
42
0.41421356237309631
10
19.16875000000001
20
-57.649999999999999
10
19.16875000000001
20
-59.900000000000006
42
-0.99999999999999989
10
14.16875000000001
20
-59.900000000000006
10
14.16875000000001
20
-57.649999999999999
42
0.41421356237310025
10
13.668750000000003
20
-57.149999999999999
10
-94.63124999999998
20
-57.149999999999999
42
0.41421356237308982
10
-95.131249999999994
20
-57.649999999999999
10
-95.131249999999994
20
-59.900000000000006
42
-0.99999999999999989
10
-100.13124999999999
20
-59.900000000000006
10
-100.13124999999999
20
-57.649999999999999
42
0.41421356237308982
10
-100.63124999999999
20
-57.149999999999999
10
-128.34999999999997
20
-57.149999999999999
42
-0.41421356237308982
10
-128.84999999999997
20
-56.649999999999999
10
-128.84999999999997
20
-55.125
42
-0.41421356237308982
10
-128.34999999999997
20
-54.625
10
-114.94375000000002
20
-54.625
42
0.41421356237314183
10
-114.44374999999997
20
-54.125000000000007
10
-114.44374999999997
20
-41.125
42
0.41421356237314183
10
-114.94375000000002
20
-40.625
10
-127.94374999999995
20
-40.625000000000014
42
0.41421356237314183
10
-128.44374999999999
20
-41.125
10
-128.44374999999999
20
-51.125000000000007
42
-0.41421356237310542
10
-128.94374999999999
20
-51.625000000000007
10
-137.75624999999994
20
-51.625
42
-0.41421356237310542
10
-138.25624999999997
20
-51.125000000000007
10
-138.25624999999997
20
-41.125
42
0.41421356237314183
10
-138.75624999999999
20
-40.625
10
-151.75624999999994
20
-40.625000000000014
42
0.41421356237314183
10
-152.25624999999997
20
-41.125
10
-152.25624999999997
20
-54.125000000000007
42
0.41421356237314183
10
-151.75624999999994
20
-54.625
10
-138.34999999999997
20
-54.625
42
-0.41421356237308982
10
-137.84999999999997
20
-55.125
10
-137.84999999999997
20
-56.649999999999999
42
-0.41421356237308982
10
-138.34999999999997
20
-57.149999999999999
10
-166.06874999999999
20
-57.149999999999999
42
0.41421356237313145
10
-166.56874999999999
20
-57.649999999999999
10
-166.56874999999999
20
-59.900000000000006
42
-0.99999999999999989
10
-171.56874999999999
20
-59.900000000000006
10
-171.56874999999999
20
-57.649999999999999
42
0.41421356237313145
10
-172.06874999999999
20
-57.149999999999999
10
-181.35625000000002
20
-57.149999999999999
42
-0.41421356237309631
10
-183.35624999999999
20
-55.149999999999999
10
-183.35624999999999
20
-3.025000000000011
42
-0.41421356237312723
10
-182.85624999999999
20
-2.5250000000000132
10
-178.94999999999999
20
-2.525000000000019
42
-0.41421356237313045
10
-178.44999999999999
20
-3.0250000000000155
10
-178.45000000000002
20
-16.024999999999999
42
0.41421356237312101
10
-177.94999999999999
20
-16.524999999999999
10
-162.56875000000002
20
-16.524999999999999
42
0.41421356237312101
10
-162.06874999999997
20
-16.024999999999999
10
-162.06874999999997
20
-3.0249999999999932
42
0.41421356237312101
10
-162.56875000000002
20
-2.524999999999995
10
-176.85624999999999
20
-2.5250000000000048
42
-0.4142135623731284
10
-177.35624999999999
20
-2.0250000000000123
10
-177.35624999999999
20
2.0250000000000301
42
0.41421356237312873
10
-177.85624999999999
20
2.5250000000000301
10
-182.85624999999999
20
2.5250000000000368
42
-0.41421356237312884
10
-183.35624999999999
20
3.0250000000000288
0
LWPOLYLINE
5
101
100
AcDbEntity
8
0
100
AcDbPolyline
90
8
70
1
43
0.0
10
-180.33124999999998
20
40.625000000000007
10
-167.33125000000001
20
40.625000000000007
42
0.41421356237312101
10
-166.83124999999995
20
41.125000000000007
10
-166.83124999999995
20
54.125000000000014
42
0.41421356237312101
10
-167.33125000000001
20
54.625000000000014
10
-180.33124999999998
20
54.624999999999993
42
0.41421356237312101
10
-180.83124999999998
20
54.125000000000014
10
-180.83125000000001
20
41.125000000000007
42
0.41421356237312101
0
LWPOLYLINE
5
102
100
AcDbEntity
8
0
100
AcDbPolyline
90
8
70
1
43
0.0
10
-100.15624999999994
20
41.125000000000007
42
-0.41421356237312101
10
-100.65624999999997
20
40.625000000000007
10
-113.65624999999994
20
40.624999999999993
42
-0.41421356237312101
10
-114.15624999999999
20
41.125000000000007
10
-114.15624999999994
20
54.125000000000014
42
-0.41421356237312101
10
-113.65624999999994
20
54.624999999999993
10
-100.65624999999997
20
54.625000000000028
42
-0.41421356237312101
10
-100.15624999999993
20
54.125000000000014
0
LWPOLYLINE
5
103
100
AcDbEntity
8
0
100
AcDbPolyline
90
8
70
1
43
0.0
10
-81.106249999999932
20
41.125000000000007
42
-0.41421356237312101
10
-81.60624999999996
20
40.625000000000007
10
-94.606249999999932
20
40.624999999999993
42
-0.41421356237312101
10
-95.106249999999974
20
41.125000000000007
10
-95.106249999999932
20
54.125000000000014
42
-0.41421356237312101
10
-94.606249999999932
20
54.624999999999993
10
-81.60624999999996
20
54.625000000000028
42
-0.41421356237312101
10
-81.106249999999918
20
54.125000000000014
0
LWPOLYLINE
5
104
100
AcDbEntity
8
0
100
AcDbPolyline
90
8
70
1
43
0.0
10
-9.6687499999999282
20
41.125000000000007
42
-0.41421356237312101
10
-10.168749999999953
20
40.625000000000007
10
-23.168749999999925
20
40.624999999999993
42
-0.41421356237312101
10
-23.668749999999967
20
41.125000000000007
10
-23.668749999999932
20
54.125000000000014
42
-0.41421356237312101
10
-23.168749999999925
20
54.624999999999993
10
-10.168749999999953
20
54.625000000000028
42
-0.41421356237312101
10
-9.6687499999999105
20
54.125000000000014
0
LWPOLYLINE
5
105
100
AcDbEntity
8
0
100
AcDbPolyline
90
8
70
1
43
0.0
10
9.3812500000000831
20
41.125000000000007
42
-0.41421356237312101
10
8.8812500000000583
20
40.625000000000007
10
-4.1187499999999133
20
40.624999999999993
42
-0.41421356237312101
10
-4.6187499999999559
20
41.125000000000007
10
-4.6187499999999204
20
54.125000000000014
42
-0.41421356237312101
10
-4.1187499999999133
20
54.624999999999993
10
8.8812500000000583
20
54.625000000000028
42
-0.41421356237312101
10
9.3812500000001009
20
54.125000000000014
0
LWPOLYLINE
5
106
100
AcDbEntity
8
0
100
AcDbPolyline
90
8
70
1
43
0.0
10
42.718750000000099
20
41.125000000000007
42
-0.41421356237312101
10
42.218750000000078
20
40.625000000000007
10
29.218750000000107
20
40.624999999999993
42
-0.41421356237312101
10
28.718750000000064
20
41.125000000000007
10
28.718750000000099
20
54.125000000000014
42
-0.41421356237312101
10
29.218750000000107
20
54.624999999999993
10
42.218750000000078
20
54.625000000000028
42
-0.41421356237312101
10
42.718750000000121
20
54.125000000000014
0
LWPOLYLINE
5
107
100
AcDbEntity
8
0
100
AcDbPolyline
90
8
70
1
43
0.0
10
99.868750000000105
20
41.125000000000007
42
-0.41421356237312101
10
99.368750000000077
20
40.625000000000007
10
86.368750000000105
20
40.624999999999993
42
-0.41421356237312101
10
85.868750000000063
20
41.125000000000007
10
85.868750000000091
20
54.125000000000014
42
-0.41421356237312101
10
86.368750000000105
20
54.624999999999993
10
99.368750000000077
20
54.625000000000028
42
-0.41421356237312101
10
99.868750000000119
20
54.125000000000014
0
LWPOLYLINE
5
108
100
AcDbEntity
8
0
100
AcDbPolyline
90
8
70
1
43
0.0
10
142.73125000000013
20
41.125000000000007
42
-0.41421356237312101
10
142.2312500000001
20
40.625000000000007
10
129.23125000000013
20
40.624999999999993
42
-0.41421356237312101
10
128.7312500000001
20
41.125000000000007
10
128.73125000000013
20
54.125000000000014
42
-0.41421356237312101
10
129.23125000000013
20
54.624999999999993
10
142.2312500000001
20
54.625000000000028
42
-0.41421356237312101
10
142.73125000000016
20
54.125000000000014
0
LWPOLYLINE
5
109
100
AcDbEntity
8
0
100
AcDbPolyline
90
8
70
1
43
0.0
10
123.68125000000012
20
41.125000000000007
42
-0.41421356237312101
10
123.18125000000009
20
40.625000000000007
10
110.18125000000012
20
40.624999999999993
42
-0.41421356237312101
10
109.68125000000008
20
41.125000000000007
10
109.68125000000012
20
54.125000000000014
42
-0.41421356237312101
10
110.18125000000012
20
54.624999999999993
10
123.18125000000009
20
54.625000000000028
42
-0.41421356237312101
10
123.68125000000013
20
54.125000000000014
0
LWPOLYLINE
5
110
100
AcDbEntity
8
0
100
AcDbPolyline
90
8
70
1
43
0.0
10
142.73125000000016
20
22.075000000000003
10
142.73125000000016
20
35.07500000000001
42
0.41421356237312101
10
142.2312500000001
20
35.57500000000001
10
129.23125000000013
20
35.574999999999989
42
0.41421356237312101
10
128.73125000000013
20
35.07500000000001
10
128.7312500000001
20
22.075000000000003
42
0.41421356237312101
10
129.23125000000013
20
21.575000000000006
10
142.2312500000001
20
21.575000000000006
42
0.41421356237312101
0
LWPOLYLINE
5
111
100
AcDbEntity
8
0
100
AcDbPolyline
90
8
70
1
43
0.0
10
180.83125000000013
20
22.075000000000003
10
180.83125000000013
20
35.07500000000001
42
0.41421356237312101
10
180.3312500000001
20
35.57500000000001
10
167.33125000000013
20
35.574999999999989
42
0.41421356237312101
10
166.83125000000013
20
35.07500000000001
10
166.83125000000007
20
22.075000000000003
42
0.41421356237312101
10
167.33125000000013
20
21.575000000000006
10
180.3312500000001
20
21.575000000000006
42
0.41421356237312101
0
LWPOLYLINE
5
112
100
AcDbEntity
8
0
100
AcDbPolyline
90
8
70
1
43
0.0
10
161.28125000000009
20
35.57500000000001
10
148.28125000000011
20
35.574999999999989
42
0.41421356237312101
10
147.78125000000011
20
35.07500000000001
10
147.78125000000006
20
22.075000000000003
42
0.41421356237312101
10
148.28125000000011
20
21.575000000000006
10
161.28125000000009
20
21.575000000000006
42
0.41421356237312101
10
161.78125000000011
20
22.075000000000003
10
161.78125000000011
20
35.07500000000001
42
0.41421356237312101
0
LWPOLYLINE
5
113
100
AcDbEntity
8
0
100
AcDbPolyline
90
8
70
1
43
0.0
10
109.68125000000012
20
35.07500000000001
42
-0.41421356237312101
10
110.18125000000012
20
35.574999999999989
10
123.18125000000009
20
35.575000000000031
42
-0.41421356237312101
10
123.68125000000013
20
35.07500000000001
10
123.68125000000012
20
22.075000000000003
42
-0.41421356237312101
10
123.18125000000009
20
21.575000000000006
10
110.18125000000012
20
21.574999999999989
42
-0.41421356237312101
10
109.68125000000008
20
22.075000000000003
0
LWPOLYLINE
5
114
100
AcDbEntity
8
0
100
AcDbPolyline
90
8
70
1
43
0.0
10
142.73125000000016
20
3.0250000000000021
10
142.73125000000016
20
16.025000000000009
42
0.41421356237312101
10
142.2312500000001
20
16.525000000000006
10
129.23125000000013
20
16.524999999999991
42
0.41421356237312101
10
128.73125000000013
20
16.025000000000009
10
128.7312500000001
20
3.0250000000000021
42
0.41421356237312101
10
129.23125000000013
20
2.5250000000000039
10
142.2312500000001
20
2.5250000000000039
42
0.41421356237312101
0
LWPOLYLINE
5
115
100
AcDbEntity
8
0
100
AcDbPolyline
90
8
70
1
43
0.0
10
161.28125000000009
20
16.525000000000006
10
148.28125000000011
20
16.524999999999991
42
0.41421356237312101
10
147.78125000000011
20
16.025000000000009
10
147.78125000000006
20
3.0250000000000021
42
0.41421356237312101
10
148.28125000000011
20
2.5250000000000039
10
161.28125000000009
20
2.5250000000000039
42
0.41421356237312101
10
161.78125000000011
20
3.0250000000000021
10
161.78125000000011
20
16.025000000000009
42
0.41421356237312101
0
LWPOLYLINE
5
116
100
AcDbEntity
8
0
100
AcDbPolyline
90
8
70
1
43
0.0
10
109.68125000000012
20
16.025000000000009
42
-0.41421356237312101
10
110.18125000000012
20
16.524999999999991
10
123.18125000000009
20
16.525000000000027
42
-0.41421356237312101
10
123.68125000000013
20
16.025000000000009
10
123.68125000000012
20
3.0250000000000021
42
-0.41421356237312101
10
123.18125000000009
20
2.5250000000000039
10
110.18125000000012
20
2.5249999999999861
42
-0.41421356237312101
10
109.68125000000008
20
3.0250000000000021
0
LWPOLYLINE
5
117
100
AcDbEntity
8
0
100
AcDbPolyline
90
8
70
1
43
0.0
10
142.73125000000016
20
-16.025000000000009
10
142.73125000000016
20
-3.0250000000000021
42
0.41421356237312101
10
142.2312500000001
20
-2.5250000000000039
10
129.23125000000013
20
-2.5250000000000217
42
0.41421356237312101
10
128.73125000000013
20
-3.0250000000000021
10
128.7312500000001
20
-16.025000000000009
42
0.41421356237312101
10
129.23125000000013
20
-16.525000000000006
10
142.2312500000001
20
-16.525000000000006
42
0.41421356237312101
0
LWPOLYLINE
5
118
100
AcDbEntity
8
0
100
AcDbPolyline
90
8
70
1
43
0.0
10
161.28125000000009
20
-2.5250000000000039
10
148.28125000000011
20
-2.5250000000000217
42
0.41421356237312101
10
147.78125000000011
20
-3.0250000000000021
10
147.78125000000006
20
-16.025000000000009
42
0.41421356237312101
10
148.28125000000011
20
-16.525000000000006
10
161.28125000000009
20
-16.525000000000006
42
0.41421356237312101
10
161.78125000000011
20
-16.025000000000009
10
161.78125000000011
20
-3.0250000000000021
42
0.41421356237312101
0
LWPOLYLINE
5
119
100
AcDbEntity
8
0
100
AcDbPolyline
90
8
70
1
43
0.0
10
109.68125000000012
20
-3.0250000000000021
42
-0.41421356237312101
10
110.18125000000012
20
-2.5250000000000217
10
123.18125000000009
20
-2.5249999999999861
42
-0.41421356237312101
10
123.68125000000013
20
-3.0250000000000021
10
123.68125000000012
20
-16.025000000000009
42
-0.41421356237312101
10
123.18125000000009
20
-16.525000000000006
10
110.18125000000012
20
-16.525000000000027
42
-0.41421356237312101
10
109.68125000000008
20
-16.025000000000009
0
LWPOLYLINE
5
120
100
AcDbEntity
8
0
100
AcDbPolyline
90
8
70
1
43
0.0
10
142.73125000000016
20
-35.075000000000003
10
142.73125000000016
20
-22.074999999999996
42
0.41421356237312101
10
142.2312500000001
20
-21.574999999999996
10
129.23125000000013
20
-21.575000000000017
42
0.41421356237312101
10
128.73125000000013
20
-22.074999999999996
10
128.7312500000001
20
-35.075000000000003
42
0.41421356237312101
10
129.23125000000013
20
-35.575000000000003
10
142.2312500000001
20
-35.575000000000003
42
0.41421356237312101
0
LWPOLYLINE
5
121
100
AcDbEntity
8
0
100
AcDbPolyline
90
8
70
1
43
0.0
10
161.28125000000009
20
-21.574999999999996
10
148.28125000000011
20
-21.575000000000017
42
0.41421356237312101
10
147.78125000000011
20
-22.074999999999996
10
147.78125000000006
20
-35.075000000000003
42
0.41421356237312101
10
148.28125000000011
20
-35.575000000000003
10
161.28125000000009
20
-35.575000000000003
42
0.41421356237312101
10
161.78125000000011
20
-35.075000000000003
10
161.78125000000011
20
-22.074999999999996
42
0.41421356237312101
0
LWPOLYLINE
5
122
100
AcDbEntity
8
0
100
AcDbPolyline
90
8
70
1
43
0.0
10
109.68125000000012
20
-22.074999999999996
42
-0.41421356237312101
10
110.18125000000012
20
-21.575000000000017
10
123.18125000000009
20
-21.574999999999982
42
-0.41421356237312101
10
123.68125000000013
20
-22.074999999999996
10
123.68125000000012
20
-35.075000000000003
42
-0.41421356237312101
10
123.18125000000009
20
-35.575000000000003
10
110.18125000000012
20
-35.575000000000017
42
-0.41421356237312101
10
109.68125000000008
20
-35.075000000000003
0
LWPOLYLINE
5
123
100
AcDbEntity
8
0
100
AcDbPolyline
90
8
70
1
43
0.0
10
133.20625000000013
20
-54.125000000000014
42
-0.41421356237312101
10
132.7062500000001
20
-54.625000000000014
10
119.70625000000013
20
-54.625000000000028
42
-0.41421356237312101
10
119.20625000000008
20
-54.125000000000014
10
119.20625000000013
20
-41.125000000000007
42
-0.41421356237312101
10
119.70625000000013
20
-40.625000000000028
10
132.7062500000001
20
-40.624999999999993
42
-0.41421356237312101
10
133.20625000000013
20
-41.125000000000007
0
LWPOLYLINE
5
124
100
AcDbEntity
8
0
100
AcDbPolyline
90
8
70
1
43
0.0
10
180.3312500000001
20
-31.099999999999987
42
-0.41421356237312101
10
180.83125000000013
20
-31.600000000000001
10
180.8312500000001
20
-44.600000000000009
42
-0.41421356237312101
10
180.3312500000001
20
-45.100000000000009
10
167.33125000000013
20
-45.100000000000023
42
-0.41421356237312101
10
166.83125000000007
20
-44.600000000000009
10
166.83125000000013
20
-31.600000000000001
42
-0.41421356237312101
10
167.33125000000013
20
-31.100000000000023
0
LWPOLYLINE
5
125
100
AcDbEntity
8
0
100
AcDbPolyline
90
8
70
1
43
0.0
10
-180.33124999999998
20
21.574999999999989
42
-0.41421356237312101
10
-180.83125000000001
20
22.075000000000003
10
-180.83124999999998
20
35.07500000000001
42
-0.41421356237312101
10
-180.33124999999998
20
35.574999999999989
10
-167.33125000000001
20
35.575000000000031
42
-0.41421356237312101
10
-166.83124999999995
20
35.07500000000001
10
-166.83124999999995
20
22.075000000000003
42
-0.41421356237312101
10
-167.33125000000001
20
21.575000000000006
0
LWPOLYLINE
5
126
100
AcDbEntity
8
0
100
AcDbPolyline
90
8
70
1
43
0.0
10
-147.78124999999997
20
22.075000000000003
42
-0.41421356237312101
10
-148.28125
20
21.575000000000006
10
-161.28124999999997
20
21.574999999999989
42
-0.41421356237312101
10
-161.78125
20
22.075000000000003
10
-161.78124999999997
20
35.07500000000001
42
-0.41421356237312101
10
-161.28124999999997
20
35.574999999999989
10
-148.28125
20
35.575000000000031
42
-0.41421356237312101
10
-147.78124999999994
20
35.07500000000001
0
LWPOLYLINE
5
127
100
AcDbEntity
8
0
100
AcDbPolyline
90
8
70
1
43
0.0
10
-128.73124999999996
20
22.075000000000003
42
-0.41421356237312101
10
-129.23124999999999
20
21.575000000000006
10
-142.23124999999996
20
21.574999999999989
42
-0.41421356237312101
10
-142.73124999999999
20
22.075000000000003
10
-142.73124999999996
20
35.07500000000001
42
-0.41421356237312101
10
-142.23124999999996
20
35.574999999999989
10
-129.23124999999999
20
35.575000000000031
42
-0.41421356237312101
10
-128.73124999999993
20
35.07500000000001
0
LWPOLYLINE
5
128
100
AcDbEntity
8
0
100
AcDbPolyline
90
8
70
1
43
0.0
10
-109.68124999999995
20
22.075000000000003
42
-0.41421356237312101
10
-110.18124999999998
20
21.575000000000006
10
-123.18124999999995
20
21.574999999999989
42
-0.41421356237312101
10
-123.68124999999999
20
22.075000000000003
10
-123.68124999999995
20
35.07500000000001
42
-0.41421356237312101
10
-123.18124999999995
20
35.574999999999989
10
-110.18124999999998
20
35.575000000000031
42
-0.41421356237312101
10
-109.68124999999993
20
35.07500000000001
0
LWPOLYLINE
5
129
100
AcDbEntity
8
0
100
AcDbPolyline
90
8
70
1
43
0.0
10
-47.481249999999946
20
35.07500000000001
10
-47.481249999999982
20
22.075000000000003
42
0.41421356237312101
10
-46.981249999999939
20
21.575000000000006
10
-33.981249999999967
20
21.575000000000006
42
0.41421356237312101
10
-33.481249999999925
20
22.075000000000003
10
-33.481249999999925
20
35.07500000000001
42
0.41421356237312101
10
-33.981249999999967
20
35.57500000000001
10
-46.981249999999939
20
35.574999999999989
42
0.41421356237312101
0
LWPOLYLINE
5
130
100
AcDbEntity
8
0
100
AcDbPolyline
90
8
70
1
43
0.0
10
-52.531249999999936
20
22.075000000000003
10
-52.531249999999936
20
35.07500000000001
42
0.41421356237312101
10
-53.031249999999979
20
35.57500000000001
10
-66.031249999999943
20
35.574999999999989
42
0.41421356237312101
10
-66.531249999999957
20
35.07500000000001
10
-66.53125
20
22.075000000000003
42
0.41421356237312101
10
-66.031249999999943
20
21.575000000000006
10
-53.031249999999979
20
21.575000000000006
42
0.41421356237312101
0
LWPOLYLINE
5
131
100
AcDbEntity
8
0
100
AcDbPolyline
90
8
70
1
43
0.0
10
-71.581249999999969
20
22.075000000000003
42
-0.41421356237312101
10
-72.081249999999983
20
21.575000000000006
10
-85.081249999999955
20
21.574999999999989
42
-0.41421356237312101
10
-85.581250000000011
20
22.075000000000003
10
-85.581249999999969
20
35.07500000000001
42
-0.41421356237312101
10
-85.081249999999955
20
35.574999999999989
10
-72.081249999999983
20
35.575000000000031
42
-0.41421356237312101
10
-71.581249999999955
20
35.07500000000001
0
LWPOLYLINE
5
132
100
AcDbEntity
8
0
100
AcDbPolyline
90
8
70
1
43
0.0
10
-104.63124999999998
20
35.07500000000001
10
-104.63125000000002
20
22.075000000000003
42
0.41421356237312101
10
-104.13124999999997
20
21.575000000000006
10
-91.131249999999994
20
21.575000000000006
42
0.41421356237312101
10
-90.631249999999966
20
22.075000000000003
10
-90.631249999999966
20
35.07500000000001
42
0.41421356237312101
10
-91.131249999999994
20
35.57500000000001
10
-104.13124999999997
20
35.574999999999989
42
0.41421356237312101
0
LWPOLYLINE
5
133
100
AcDbEntity
8
0
100
AcDbPolyline
90
8
70
1
43
0.0
10
28.718750000000064
20
35.07500000000001
10
28.718750000000028
20
22.075000000000003
42
0.41421356237312101
10
29.218750000000071
20
21.575000000000006
10
42.218750000000043
20
21.575000000000006
42
0.41421356237312101
10
42.718750000000085
20
22.075000000000003
10
42.718750000000085
20
35.07500000000001
42
0.41421356237312101
10
42.218750000000043
20
35.57500000000001
10
29.218750000000071
20
35.574999999999989
42
0.41421356237312101
0
LWPOLYLINE
5
134
100
AcDbEntity
8
0
100
AcDbPolyline
90
8
70
1
43
0.0
10
23.668750000000074
20
22.075000000000003
10
23.668750000000074
20
35.07500000000001
42
0.41421356237312101
10
23.168750000000031
20
35.57500000000001
10
10.16875000000006
20
35.574999999999989
42
0.41421356237312101
10
9.6687500000000526
20
35.07500000000001
10
9.6687500000000171
20
22.075000000000003
42
0.41421356237312101
10
10.16875000000006
20
21.575000000000006
10
23.168750000000031
20
21.575000000000006
42
0.41421356237312101
0
LWPOLYLINE
5
135
100
AcDbEntity
8
0
100
AcDbPolyline
90
8
70
1
43
0.0
10
4.6187500000000448
20
22.075000000000003
42
-0.41421356237312101
10
4.1187500000000199
20
21.575000000000006
10
-8.8812499999999517
20
21.574999999999989
42
-0.41421356237312101
10
-9.3812499999999943
20
22.075000000000003
10
-9.3812499999999588
20
35.07500000000001
42
-0.41421356237312101
10
-8.8812499999999517
20
35.574999999999989
10
4.1187500000000199
20
35.575000000000031
42
-0.41421356237312101
10
4.6187500000000625
20
35.07500000000001
0
LWPOLYLINE
5
136
100
AcDbEntity
8
0
100
AcDbPolyline
90
8
70
1
43
0.0
10
-28.43124999999997
20
35.07500000000001
10
-28.431250000000006
20
22.075000000000003
42
0.41421356237312101
10
-27.931249999999963
20
21.575000000000006
10
-14.931249999999991
20
21.575000000000006
42
0.41421356237312101
10
-14.431249999999949
20
22.075000000000003
10
-14.431249999999949
20
35.07500000000001
42
0.41421356237312101
10
-14.931249999999991
20
35.57500000000001
10
-27.931249999999963
20
35.574999999999989
42
0.41421356237312101
0
LWPOLYLINE
5
137
100
AcDbEntity
8
0
100
AcDbPolyline
90
8
70
1
43
0.0
10
47.768750000000075
20
35.07500000000001
10
47.76875000000004
20
22.075000000000003
42
0.41421356237312101
10
48.268750000000082
20
21.575000000000006
10
61.268750000000054
20
21.575000000000006
42
0.41421356237312101
10
61.768750000000097
20
22.075000000000003
10
61.768750000000097
20
35.07500000000001
42
0.41421356237312101
10
61.268750000000054
20
35.57500000000001
10
48.268750000000082
20
35.574999999999989
42
0.41421356237312101
0
LWPOLYLINE
5
138
100
AcDbEntity
8
0
100
AcDbPolyline
90
8
70
1
43
0.0
10
90.343750000000099
20
22.075000000000003
42
-0.41421356237312101
10
89.843750000000071
20
21.575000000000006
10
76.843750000000099
20
21.574999999999989
42
-0.41421356237312101
10
76.343750000000057
20
22.075000000000003
10
76.343750000000085
20
35.07500000000001
42
-0.41421356237312101
10
76.843750000000099
20
35.574999999999989
10
89.843750000000071
20
35.575000000000031
42
-0.41421356237312101
10
90.343750000000114
20
35.07500000000001
0
LWPOLYLINE
5
139
100
AcDbEntity
8
0
100
AcDbPolyline
90
8
70
1
43
0.0
10
-162.06874999999997
20
3.0250000000000021
42
-0.41421356237312101
10
-162.56875000000002
20
2.5250000000000039
10
-175.56874999999997
20
2.5249999999999861
42
-0.41421356237312101
10
-176.06875000000002
20
3.0250000000000021
10
-176.06874999999999
20
16.025000000000009
42
-0.41421356237312101
10
-175.56874999999997
20
16.524999999999991
10
-162.56875000000002
20
16.525000000000027
42
-0.41421356237312101
10
-162.06874999999997
20
16.025000000000009
0
LWPOLYLINE
5
140
100
AcDbEntity
8
0
100
AcDbPolyline
90
8
70
1
43
0.0
10
-75.556249999999949
20
2.5250000000000039
10
-62.556249999999984
20
2.5250000000000039
42
0.41421356237312101
10
-62.056249999999942
20
3.0250000000000021
10
-62.056249999999942
20
16.025000000000009
42
0.41421356237312101
10
-62.556249999999984
20
16.525000000000006
10
-75.556249999999949
20
16.524999999999991
42
0.41421356237312101
10
-76.056249999999963
20
16.025000000000009
10
-76.056250000000006
20
3.0250000000000021
42
0.41421356237312101
0
LWPOLYLINE
5
141
100
AcDbEntity
8
0
100
AcDbPolyline
90
8
70
1
43
0.0
10
-37.456249999999933
20
2.5250000000000039
10
-24.456249999999962
20
2.5250000000000039
42
0.41421356237312101
10
-23.956249999999919
20
3.0250000000000021
10
-23.956249999999919
20
16.025000000000009
42
0.41421356237312101
10
-24.456249999999962
20
16.525000000000006
10
-37.456249999999933
20
16.524999999999991
42
0.41421356237312101
10
-37.95624999999994
20
16.025000000000009
10
-37.956249999999976
20
3.0250000000000021
42
0.41421356237312101
0
LWPOLYLINE
5
142
100
AcDbEntity
8
0
100
AcDbPolyline
90
8
70
1
43
0.0
10
-43.506249999999973
20
16.525000000000027
42
-0.41421356237312101
10
-43.00624999999993
20
16.025000000000009
10
-43.006249999999952
20
3.0250000000000021
42
-0.41421356237312101
10
-43.506249999999973
20
2.5250000000000039
10
-56.506249999999945
20
2.5249999999999861
42
-0.41421356237312101
10
-57.006249999999987
20
3.0250000000000021
10
-57.006249999999952
20
16.025000000000009
42
-0.41421356237312101
10
-56.506249999999945
20
16.524999999999991
0
LWPOLYLINE
5
143
100
AcDbEntity
8
0
100
AcDbPolyline
90
8
70
1
43
0.0
10
13.643750000000026
20
16.525000000000027
42
-0.41421356237312101
10
14.143750000000068
20
16.025000000000009
10
14.14375000000005
20
3.0250000000000021
42
-0.41421356237312101
10
13.643750000000026
20
2.5250000000000039
10
0.643750000000054
20
2.5249999999999861
42
-0.41421356237312101
10
0.14375000000001137
20
3.0250000000000021
10
0.1437500000000469
20
16.025000000000009
42
-0.41421356237312101
10
0.643750000000054
20
16.524999999999991
0
LWPOLYLINE
5
144
100
AcDbEntity
8
0
100
AcDbPolyline
90
8
70
1
43
0.0
10
52.243750000000077
20
3.0250000000000021
42
-0.41421356237312101
10
51.743750000000048
20
2.5250000000000039
10
38.743750000000077
20
2.5249999999999861
42
-0.41421356237312101
10
38.243750000000034
20
3.0250000000000021
10
38.24375000000007
20
16.025000000000009
42
-0.41421356237312101
10
38.743750000000077
20
16.524999999999991
10
51.743750000000048
20
16.525000000000027
42
-0.41421356237312101
10
52.243750000000091
20
16.025000000000009
0
LWPOLYLINE
5
145
100
AcDbEntity
8
0
100
AcDbPolyline
90
8
70
1
43
0.0
10
57.293750000000081
20
16.025000000000009
10
57.293750000000045
20
3.0250000000000021
42
0.41421356237312101
10
57.793750000000088
20
2.5250000000000039
10
70.79375000000006
20
2.5250000000000039
42
0.41421356237312101
10
71.293750000000102
20
3.0250000000000021
10
71.293750000000102
20
16.025000000000009
42
0.41421356237312101
10
70.79375000000006
20
16.525000000000006
10
57.793750000000088
20
16.524999999999991
42
0.41421356237312101
0
LWPOLYLINE
5
146
100
AcDbEntity
8
0
100
AcDbPolyline
90
8
70
1
43
0.0
10
33.19375000000008
20
3.0250000000000021
10
33.19375000000008
20
16.025000000000009
42
0.41421356237312101
10
32.693750000000037
20
16.525000000000006
10
19.693750000000065
20
16.524999999999991
42
0.41421356237312101
10
19.193750000000058
20
16.025000000000009
10
19.193750000000023
20
3.0250000000000021
42
0.41421356237312101
10
19.693750000000065
20
2.5250000000000039
10
32.693750000000037
20
2.5250000000000039
42
0.41421356237312101
0
LWPOLYLINE
5
147
100
AcDbEntity
8
0
100
AcDbPolyline
90
8
70
1
43
0.0
10
-133.20624999999995
20
16.025000000000009
10
-133.20625000000001
20
3.0250000000000021
42
0.41421356237312101
10
-132.70624999999995
20
2.5250000000000039
10
-119.70624999999998
20
2.5250000000000039
42
0.41421356237312101
10
-119.20624999999994
20
3.0250000000000021
10
-119.20624999999994
20
16.025000000000009
42
0.41421356237312101
10
-119.70624999999998
20
16.525000000000006
10
-132.70624999999995
20
16.524999999999991
42
0.41421356237312101
0
LWPOLYLINE
5
148
100
AcDbEntity
8
0
100
AcDbPolyline
90
8
70
1
43
0.0
10
-152.25624999999997
20
16.025000000000009
10
-152.25625000000002
20
3.0250000000000021
42
0.41421356237312101
10
-151.75624999999997
20
2.5250000000000039
10
-138.75624999999999
20
2.5250000000000039
42
0.41421356237312101
10
-138.25624999999997
20
3.0250000000000021
10
-138.25624999999997
20
16.025000000000009
42
0.41421356237312101
10
-138.75624999999999
20
16.525000000000006
10
-151.75624999999997
20
16.524999999999991
42
0.41421356237312101
0
LWPOLYLINE
5
149
100
AcDbEntity
8
0
100
AcDbPolyline
90
8
70
1
43
0.0
10
-5.4062499999999858
20
16.525000000000027
42
-0.41421356237312101
10
-4.9062499999999432
20
16.025000000000009
10
-4.9062499999999609
20
3.0250000000000021
42
-0.41421356237312101
10
-5.4062499999999858
20
2.5250000000000039
10
-18.406249999999957
20
2.5249999999999861
42
-0.41421356237312101
10
-18.90625
20
3.0250000000000021
10
-18.906249999999964
20
16.025000000000009
42
-0.41421356237312101
10
-18.406249999999957
20
16.524999999999991
0
LWPOLYLINE
5
150
100
AcDbEntity
8
0
100
AcDbPolyline
90
8
70
1
43
0.0
10
-81.606249999999989
20
16.525000000000027
42
-0.41421356237312101
10
-81.10624999999996
20
16.025000000000009
10
-81.106249999999974
20
3.0250000000000021
42
-0.41421356237312101
10
-81.606249999999989
20
2.5250000000000039
10
-94.60624999999996
20
2.5249999999999861
42
-0.41421356237312101
10
-95.106250000000017
20
3.0250000000000021
10
-95.106249999999974
20
16.025000000000009
42
-0.41421356237312101
10
-94.60624999999996
20
16.524999999999991
0
LWPOLYLINE
5
151
100
AcDbEntity
8
0
100
AcDbPolyline
90
8
70
1
43
0.0
10
-113.65624999999994
20
2.5250000000000039
10
-100.65624999999997
20
2.5250000000000039
42
0.41421356237312101
10
-100.15624999999993
20
3.0250000000000021
10
-100.15624999999993
20
16.025000000000009
42
0.41421356237312101
10
-100.65624999999997
20
16.525000000000006
10
-113.65624999999994
20
16.524999999999991
42
0.41421356237312101
10
-114.15624999999994
20
16.025000000000009
10
-114.15624999999999
20
3.0250000000000021
42
0.41421356237312101
0
LWPOLYLINE
5
152
100
AcDbEntity
8
0
100
AcDbPolyline
90
8
70
1
43
0.0
10
95.106250000000102
20
3.0250000000000021
42
-0.41421356237312101
10
94.606250000000074
20
2.5250000000000039
10
81.606250000000102
20
2.5249999999999861
42
-0.41421356237312101
10
81.10625000000006
20
3.0250000000000021
10
81.106250000000102
20
16.025000000000009
42
-0.41421356237312101
10
81.606250000000102
20
16.524999999999991
10
94.606250000000074
20
16.525000000000027
42
-0.41421356237312101
10
95.106250000000117
20
16.025000000000009
0
LWPOLYLINE
5
153
100
AcDbEntity
8
0
100
AcDbPolyline
90
8
70
1
43
0.0
10
-33.193749999999937
20
-3.0249999999999932
10
-33.193749999999973
20
-16.024999999999999
42
0.41421356237312101
10
-32.69374999999993
20
-16.524999999999999
10
-19.693749999999959
20
-16.524999999999999
42
0.41421356237312101
10
-19.193749999999916
20
-16.024999999999999
10
-19.193749999999916
20
-3.0249999999999932
42
0.41421356237312101
10
-19.693749999999959
20
-2.524999999999995
10
-32.69374999999993
20
-2.5250000000000128
42
0.41421356237312101
0
LWPOLYLINE
5
154
100
AcDbEntity
8
0
100
AcDbPolyline
90
8
70
1
43
0.0
10
-70.79374999999996
20
-16.525000000000016
42
-0.41421356237312101
10
-71.293749999999989
20
-16.024999999999999
10
-71.29374999999996
20
-3.0249999999999932
42
-0.41421356237312101
10
-70.79374999999996
20
-2.5250000000000128
10
-57.793749999999982
20
-2.5249999999999773
42
-0.41421356237312101
10
-57.293749999999939
20
-3.0249999999999932
10
-57.29374999999996
20
-16.024999999999999
42
-0.41421356237312101
10
-57.793749999999982
20
-16.524999999999999
0
LWPOLYLINE
5
155
100
AcDbEntity
8
0
100
AcDbPolyline
90
8
70
1
43
0.0
10
-14.143749999999962
20
-3.0249999999999932
42
-0.41421356237312101
10
-13.643749999999955
20
-2.5250000000000128
10
-0.64374999999998295
20
-2.5249999999999773
42
-0.41421356237312101
10
-0.14374999999994031
20
-3.0249999999999932
10
-0.14374999999995808
20
-16.024999999999999
42
-0.41421356237312101
10
-0.64374999999998295
20
-16.524999999999999
10
-13.643749999999955
20
-16.525000000000016
42
-0.41421356237312101
10
-14.143749999999997
20
-16.024999999999999
0
LWPOLYLINE
5
156
100
AcDbEntity
8
0
100
AcDbPolyline
90
8
70
1
43
0.0
10
18.906250000000053
20
-16.024999999999999
42
-0.41421356237312101
10
18.406250000000028
20
-16.524999999999999
10
5.4062500000000568
20
-16.525000000000016
42
-0.41421356237312101
10
4.9062500000000142
20
-16.024999999999999
10
4.9062500000000497
20
-3.0249999999999932
42
-0.41421356237312101
10
5.4062500000000568
20
-2.5250000000000128
10
18.406250000000028
20
-2.5249999999999773
42
-0.41421356237312101
10
18.906250000000071
20
-3.0249999999999932
0
LWPOLYLINE
5
157
100
AcDbEntity
8
0
100
AcDbPolyline
90
8
70
1
43
0.0
10
-76.343749999999972
20
-16.024999999999999
42
-0.41421356237312101
10
-76.84375
20
-16.524999999999999
10
-89.843749999999972
20
-16.525000000000016
42
-0.41421356237312101
10
-90.34375
20
-16.024999999999999
10
-90.343749999999972
20
-3.0249999999999932
42
-0.41421356237312101
10
-89.843749999999972
20
-2.5250000000000128
10
-76.84375
20
-2.5249999999999773
42
-0.41421356237312101
10
-76.343749999999943
20
-3.0249999999999932
0
LWPOLYLINE
5
158
100
AcDbEntity
8
0
100
AcDbPolyline
90
8
70
1
43
0.0
10
-38.74374999999997
20
-2.5249999999999773
42
-0.41421356237312101
10
-38.243749999999928
20
-3.0249999999999932
10
-38.243749999999949
20
-16.024999999999999
42
-0.41421356237312101
10
-38.74374999999997
20
-16.524999999999999
10
-51.743749999999942
20
-16.525000000000016
42
-0.41421356237312101
10
-52.243749999999984
20
-16.024999999999999
10
-52.243749999999949
20
-3.0249999999999932
42
-0.41421356237312101
10
-51.743749999999942
20
-2.5250000000000128
0
LWPOLYLINE
5
159
100
AcDbEntity
8
0
100
AcDbPolyline
90
8
70
1
43
0.0
10
-95.893749999999969
20
-2.524999999999995
10
-108.89374999999994
20
-2.5250000000000128
42
0.41421356237312101
10
-109.39374999999995
20
-3.0249999999999932
10
-109.39374999999998
20
-16.024999999999999
42
0.41421356237312101
10
-108.89374999999994
20
-16.524999999999999
10
-95.893749999999969
20
-16.524999999999999
42
0.41421356237312101
10
-95.393749999999926
20
-16.024999999999999
10
-95.393749999999926
20
-3.0249999999999932
42
0.41421356237312101
0
LWPOLYLINE
5
160
100
AcDbEntity
8
0
100
AcDbPolyline
90
8
70
1
43
0.0
10
43.50625000000008
20
-16.524999999999999
10
56.506250000000051
20
-16.524999999999999
42
0.41421356237312101
10
57.006250000000094
20
-16.024999999999999
10
57.006250000000094
20
-3.0249999999999932
42
0.41421356237312101
10
56.506250000000051
20
-2.524999999999995
10
43.50625000000008
20
-2.5250000000000128
42
0.41421356237312101
10
43.006250000000072
20
-3.0249999999999932
10
43.006250000000037
20
-16.024999999999999
42
0.41421356237312101
0
LWPOLYLINE
5
161
100
AcDbEntity
8
0
100
AcDbPolyline
90
8
70
1
43
0.0
10
-114.94374999999998
20
-2.5249999999999773
42
-0.41421356237312101
10
-114.44374999999994
20
-3.0249999999999932
10
-114.44374999999995
20
-16.024999999999999
42
-0.41421356237312101
10
-114.94374999999998
20
-16.524999999999999
10
-127.94374999999995
20
-16.525000000000016
42
-0.41421356237312101
10
-128.44374999999999
20
-16.024999999999999
10
-128.44374999999997
20
-3.0249999999999932
42
-0.41421356237312101
10
-127.94374999999995
20
-2.5250000000000128
0
LWPOLYLINE
5
162
100
AcDbEntity
8
0
100
AcDbPolyline
90
8
70
1
43
0.0
10
-133.99374999999998
20
-2.5249999999999773
42
-0.41421356237312101
10
-133.49374999999995
20
-3.0249999999999932
10
-133.49374999999998
20
-16.024999999999999
42
-0.41421356237312101
10
-133.99374999999998
20
-16.524999999999999
10
-146.99374999999998
20
-16.525000000000016
42
-0.41421356237312101
10
-147.49375000000001
20
-16.024999999999999
10
-147.49374999999998
20
-3.0249999999999932
42
-0.41421356237312101
10
-146.99374999999998
20
-2.5250000000000128
0
LWPOLYLINE
5
163
100
AcDbEntity
8
0
100
AcDbPolyline
90
8
70
1
43
0.0
10
24.456250000000068
20
-16.524999999999999
10
37.45625000000004
20
-16.524999999999999
42
0.41421356237312101
10
37.956250000000082
20
-16.024999999999999
10
37.956250000000082
20
-3.0249999999999932
42
0.41421356237312101
10
37.45625000000004
20
-2.524999999999995
10
24.456250000000068
20
-2.5250000000000128
42
0.41421356237312101
10
23.956250000000061
20
-3.0249999999999932
10
23.956250000000026
20
-16.024999999999999
42
0.41421356237312101
0
LWPOLYLINE
5
164
100
AcDbEntity
8
0
100
AcDbPolyline
90
8
70
1
43
0.0
10
87.962500000000091
20
-16.024999999999999
42
-0.41421356237312101
10
87.462500000000063
20
-16.524999999999999
10
74.462500000000091
20
-16.525000000000016
42
-0.41421356237312101
10
73.962500000000063
20
-16.024999999999999
10
73.962500000000091
20
-3.0249999999999932
42
-0.41421356237312101
10
74.462500000000091
20
-2.5250000000000128
10
87.462500000000063
20
-2.5249999999999773
42
-0.41421356237312101
10
87.962500000000119
20
-3.0249999999999932
0
LWPOLYLINE
5
165
100
AcDbEntity
8
0
100
AcDbPolyline
90
8
70
1
43
0.0
10
28.431250000000077
20
-35.07500000000001
10
28.431250000000077
20
-22.075000000000003
42
0.41421356237312101
10
27.931250000000034
20
-21.575000000000006
10
14.931250000000063
20
-21.575000000000024
42
0.41421356237312101
10
14.431250000000055
20
-22.075000000000003
10
14.43125000000002
20
-35.07500000000001
42
0.41421356237312101
10
14.931250000000063
20
-35.57500000000001
10
27.931250000000034
20
-35.57500000000001
42
0.41421356237312101
0
LWPOLYLINE
5
166
100
AcDbEntity
8
0
100
AcDbPolyline
90
8
70
1
43
0.0
10
-4.6187499999999559
20
-22.075000000000003
10
-4.6187499999999915
20
-35.07500000000001
42
0.41421356237312101
10
-4.1187499999999488
20
-35.57500000000001
10
8.8812500000000227
20
-35.57500000000001
42
0.41421356237312101
10
9.3812500000000654
20
-35.07500000000001
10
9.3812500000000654
20
-22.075000000000003
42
0.41421356237312101
10
8.8812500000000227
20
-21.575000000000006
10
-4.1187499999999488
20
-21.575000000000024
42
0.41421356237312101
0
LWPOLYLINE
5
167
100
AcDbEntity
8
0
100
AcDbPolyline
90
8
70
1
43
0.0
10
-80.318749999999966
20
-35.575000000000031
42
-0.41421356237312101
10
-80.818749999999994
20
-35.07500000000001
10
-80.818749999999966
20
-22.075000000000003
42
-0.41421356237312101
10
-80.318749999999966
20
-21.575000000000024
10
-67.318749999999994
20
-21.574999999999989
42
-0.41421356237312101
10
-66.818749999999937
20
-22.075000000000003
10
-66.818749999999966
20
-35.07500000000001
42
-0.41421356237312101
10
-67.318749999999994
20
-35.57500000000001
0
LWPOLYLINE
5
168
100
AcDbEntity
8
0
100
AcDbPolyline
90
8
70
1
43
0.0
10
-86.368749999999963
20
-21.575000000000006
10
-99.368749999999935
20
-21.575000000000024
42
0.41421356237312101
10
-99.868749999999949
20
-22.075000000000003
10
-99.868749999999977
20
-35.07500000000001
42
0.41421356237312101
10
-99.368749999999935
20
-35.57500000000001
10
-86.368749999999963
20
-35.57500000000001
42
0.41421356237312101
10
-85.86874999999992
20
-35.07500000000001
10
-85.86874999999992
20
-22.075000000000003
42
0.41421356237312101
0
LWPOLYLINE
5
169
100
AcDbEntity
8
0
100
AcDbPolyline
90
8
70
1
43
0.0
10
-118.41874999999995
20
-35.57500000000001
10
-105.41874999999997
20
-35.57500000000001
42
0.41421356237312101
10
-104.91874999999993
20
-35.07500000000001
10
-104.91874999999993
20
-22.075000000000003
42
0.41421356237312101
10
-105.41874999999997
20
-21.575000000000006
10
-118.41874999999995
20
-21.575000000000024
42
0.41421356237312101
10
-118.91874999999996
20
-22.075000000000003
10
-118.91874999999999
20
-35.07500000000001
42
0.41421356237312101
0
LWPOLYLINE
5
170
100
AcDbEntity
8
0
100
AcDbPolyline
90
8
70
1
43
0.0
10
-124.46874999999999
20
-21.574999999999989
42
-0.41421356237312101
10
-123.96874999999994
20
-22.075000000000003
10
-123.96874999999996
20
-35.07500000000001
42
-0.41421356237312101
10
-124.46874999999999
20
-35.57500000000001
10
-137.46874999999994
20
-35.575000000000031
42
-0.41421356237312101
10
-137.96875
20
-35.07500000000001
10
-137.96874999999997
20
-22.075000000000003
42
-0.41421356237312101
10
-137.46874999999994
20
-21.575000000000024
0
LWPOLYLINE
5
171
100
AcDbEntity
8
0
100
AcDbPolyline
90
8
70
1
43
0.0
10
-9.6687499999999105
20
-35.07500000000001
10
-9.6687499999999105
20
-22.075000000000003
42
0.41421356237312101
10
-10.168749999999953
20
-21.575000000000006
10
-23.168749999999925
20
-21.575000000000024
42
0.41421356237312101
10
-23.668749999999932
20
-22.075000000000003
10
-23.668749999999967
20
-35.07500000000001
42
0.41421356237312101
10
-23.168749999999925
20
-35.57500000000001
10
-10.168749999999953
20
-35.57500000000001
42
0.41421356237312101
0
LWPOLYLINE
5
172
100
AcDbEntity
8
0
100
AcDbPolyline
90
8
70
1
43
0.0
10
-47.768749999999933
20
-35.07500000000001
10
-47.768749999999933
20
-22.075000000000003
42
0.41421356237312101
10
-48.268749999999976
20
-21.575000000000006
10
-61.268749999999947
20
-21.575000000000024
42
0.41421356237312101
10
-61.768749999999955
20
-22.075000000000003
10
-61.76874999999999
20
-35.07500000000001
42
0.41421356237312101
10
-61.268749999999947
20
-35.57500000000001
10
-48.268749999999976
20
-35.57500000000001
42
0.41421356237312101
0
LWPOLYLINE
5
173
100
AcDbEntity
8
0
100
AcDbPolyline
90
8
70
1
43
0.0
10
-28.71874999999994
20
-35.07500000000001
42
-0.41421356237312101
10
-29.218749999999964
20
-35.57500000000001
10
-42.218749999999936
20
-35.575000000000031
42
-0.41421356237312101
10
-42.718749999999979
20
-35.07500000000001
10
-42.718749999999943
20
-22.075000000000003
42
-0.41421356237312101
10
-42.218749999999936
20
-21.575000000000024
10
-29.218749999999964
20
-21.574999999999989
42
-0.41421356237312101
10
-28.718749999999922
20
-22.075000000000003
0
LWPOLYLINE
5
174
100
AcDbEntity
8
0
100
AcDbPolyline
90
8
70
1
43
0.0
10
33.981250000000074
20
-35.575000000000031
42
-0.41421356237312101
10
33.481250000000031
20
-35.07500000000001
10
33.481250000000067
20
-22.075000000000003
42
-0.41421356237312101
10
33.981250000000074
20
-21.575000000000024
10
46.981250000000045
20
-21.574999999999989
42
-0.41421356237312101
10
47.481250000000088
20
-22.075000000000003
10
47.481250000000074
20
-35.07500000000001
42
-0.41421356237312101
10
46.981250000000045
20
-35.57500000000001
0
LWPOLYLINE
5
175
100
AcDbEntity
8
0
100
AcDbPolyline
90
8
70
1
43
0.0
10
-168.92499999999998
20
-22.075000000000003
42
-0.41421356237314183
10
-168.42499999999995
20
-21.575000000000024
10
-155.42500000000001
20
-21.574999999999989
42
-0.41421356237312101
10
-154.92499999999995
20
-22.075000000000003
10
-154.92499999999995
20
-35.07500000000001
42
-0.41421356237312101
10
-155.42499999999998
20
-35.57500000000001
10
-168.42499999999995
20
-35.574999999999989
42
-0.41421356237314183
10
-168.92499999999998
20
-35.07500000000001
0
LWPOLYLINE
5
176
100
AcDbEntity
8
0
100
AcDbPolyline
90
8
70
1
43
0.0
10
-176.06874999999999
20
-41.125
42
-0.41421356237314183
10
-175.56874999999994
20
-40.625000000000014
10
-162.56875000000002
20
-40.625000000000014
42
-0.41421356237314183
10
-162.06874999999997
20
-41.125
10
-162.06874999999997
20
-54.125000000000007
42
-0.41421356237314183
10
-162.56875000000002
20
-54.625
10
-175.56874999999994
20
-54.624999999999986
42
-0.41421356237314183
10
-176.06874999999999
20
-54.125000000000007
0
LWPOLYLINE
5
177
100
AcDbEntity
8
0
100
AcDbPolyline
90
8
70
1
43
0.0
10
-33.481249999999946
20
-54.125000000000007
42
-0.41421356237314183
10
-33.981250000000003
20
-54.625
10
-46.981249999999939
20
-54.624999999999986
42
-0.41421356237314183
10
-47.481249999999982
20
-54.125000000000007
10
-47.481249999999982
20
-41.125
42
-0.41421356237314183
10
-46.981249999999939
20
-40.625000000000014
10
-33.981250000000003
20
-40.625000000000014
42
-0.41421356237314183
10
-33.48124999999996
20
-41.125
0
LWPOLYLINE
5
178
100
AcDbEntity
8
0
100
AcDbPolyline
90
8
70
1
43
0.0
10
95.106250000000102
20
-54.125000000000007
42
-0.41421356237314183
10
94.606250000000045
20
-54.625
10
81.606250000000102
20
-54.624999999999986
42
-0.41421356237314183
10
81.10625000000006
20
-54.125000000000007
10
81.10625000000006
20
-41.125
42
-0.41421356237314183
10
81.606250000000102
20
-40.625000000000014
10
94.606250000000045
20
-40.625000000000014
42
-0.41421356237314183
10
95.106250000000074
20
-41.125
0
LWPOLYLINE
5
179
100
AcDbEntity
8
0
100
AcDbPolyline
90
8
70
1
43
0.0
10
73.675000000000082
20
-35.07500000000001
42
-0.41421356237312101
10
73.175000000000068
20
-35.57500000000001
10
60.17500000000009
20
-35.575000000000031
42
-0.41421356237312101
10
59.675000000000047
20
-35.07500000000001
10
59.675000000000082
20
-22.075000000000003
42
-0.41421356237312101
10
60.17500000000009
20
-21.575000000000024
10
73.175000000000068
20
-21.574999999999989
42
-0.41421356237312101
10
73.675000000000097
20
-22.075000000000003
0
LWPOLYLINE
5
180
100
AcDbEntity
8
0
100
AcDbPolyline
90
8
70
1
43
0.0
10
99.868750000000105
20
-35.07500000000001
42
-0.41421356237312101
10
99.368750000000077
20
-35.57500000000001
10
86.368750000000105
20
-35.575000000000031
42
-0.41421356237312101
10
85.868750000000063
20
-35.07500000000001
10
85.868750000000091
20
-22.075000000000003
42
-0.41421356237312101
10
86.368750000000105
20
-21.575000000000024
10
99.368750000000077
20
-21.574999999999989
42
-0.41421356237312101
10
99.868750000000119
20
-22.075000000000003
0
LWPOLYLINE
5
181
100
AcDbEntity
8
0
100
AcDbPolyline
90
8
70
1
43
0.0
10
74.656750000000073
20
35.324999999999982
10
68.156750000000059
20
35.324999999999982
42
0.41421356237309764
10
67.656750000000073
20
34.824999999999989
10
67.656750000000073
20
20.324999999999985
42
0.41421356237309764
10
68.156750000000059
20
19.824999999999985
10
74.656750000000073
20
19.824999999999985
42
0.41421356237309503
10
75.156750000000073
20
20.324999999999985
10
75.156750000000073
20
34.824999999999989
42
0.41421356237309503
0
LWPOLYLINE
5
182
100
AcDbEntity
8
0
100
AcDbPolyline
90
8
70
1
43
0.0
10
92.030750000000097
20
19.824999999999996
42
-0.41421356237309503
10
91.530750000000097
20
20.324999999999985
10
91.530750000000083
20
34.824999999999989
42
-0.41421356237309503
10
92.030750000000097
20
35.324999999999982
10
98.530750000000111
20
35.324999999999982
42
-0.41421356237309764
10
99.030750000000097
20
34.824999999999989
10
99.030750000000097
20
20.324999999999985
42
-0.41421356237309764
10
98.530750000000111
20
19.824999999999985
0
LWPOLYLINE
5
183
100
AcDbEntity
8
0
100
AcDbPolyline
90
8
70
1
43
0.0
10
72.775500000000065
20
-17.77500000000002
42
-0.41421356237309503
10
72.275500000000065
20
-18.27500000000002
10
65.775500000000051
20
-18.275000000000013
42
-0.41421356237309764
10
65.275500000000065
20
-17.77500000000002
10
65.275500000000065
20
-3.275000000000019
42
-0.41421356237309764
10
65.775500000000051
20
-2.7750000000000208
10
72.275500000000065
20
-2.7750000000000208
42
-0.41421356237309503
10
72.775500000000065
20
-3.275000000000019
0
LWPOLYLINE
5
184
100
AcDbEntity
8
0
100
AcDbPolyline
90
8
70
1
43
0.0
10
96.149500000000103
20
-18.27500000000002
10
89.649500000000089
20
-18.275000000000009
42
-0.41421356237309503
10
89.149500000000103
20
-17.77500000000002
10
89.149500000000074
20
-3.275000000000019
42
-0.41421356237309503
10
89.649500000000089
20
-2.7750000000000208
10
96.149500000000103
20
-2.7750000000000252
42
-0.41421356237309764
10
96.649500000000103
20
-3.275000000000019
10
96.649500000000103
20
-17.77500000000002
42
-0.41421356237309764
0
LWPOLYLINE
5
185
100
AcDbEntity
8
0
100
AcDbPolyline
90
8
70
1
43
0.0
10
-170.11199999999997
20
-36.825000000000031
42
-0.41421356237309503
10
-170.61199999999997
20
-37.325000000000031
10
-177.11199999999997
20
-37.32500000000001
42
-0.41421356237309764
10
-177.61199999999997
20
-36.825000000000031
10
-177.61199999999999
20
-22.325000000000031
42
-0.41421356237309764
10
-177.11199999999997
20
-21.825000000000031
10
-170.61199999999997
20
-21.825000000000024
42
-0.41421356237309503
10
-170.11199999999997
20
-22.325000000000031
0
LWPOLYLINE
5
186
100
AcDbEntity
8
0
100
AcDbPolyline
90
8
70
1
43
0.0
10
-146.73799999999994
20
-37.325000000000031
10
-153.23799999999994
20
-37.325000000000024
42
-0.41421356237309503
10
-153.73799999999994
20
-36.825000000000031
10
-153.73799999999994
20
-22.325000000000031
42
-0.41421356237309503
10
-153.23799999999994
20
-21.825000000000031
10
-146.73799999999994
20
-21.825000000000038
42
-0.41421356237309764
10
-146.23799999999994
20
-22.325000000000031
10
-146.23799999999994
20
-36.825000000000031
42
-0.41421356237309764
0
LWPOLYLINE
5
187
100
AcDbEntity
8
0
100
AcDbPolyline
90
8
70
1
43
0.0
10
110.51925000000006
20
-53.874999999999972
10
110.51925000000006
20
-39.374999999999979
42
-0.41421356237309764
10
111.01925000000006
20
-38.874999999999979
10
117.51925000000007
20
-38.874999999999986
42
-0.41421356237309503
10
118.01925000000006
20
-39.374999999999979
10
118.01925000000008
20
-53.874999999999972
42
-0.41421356237309503
10
117.51925000000007
20
-54.374999999999986
10
111.01925000000006
20
-54.374999999999972
42
-0.41421356237310025
0
LWPOLYLINE
5
188
100
AcDbEntity
8
0
100
AcDbPolyline
90
8
70
1
43
0.0
10
-93.131249999999994
20
-54.125000000000007
10
-93.131249999999994
20
-38.125000000000007
42
0.41421356237308982
10
-93.631249999999994
20
-37.625000000000014
10
-101.63124999999997
20
-37.625000000000014
42
0.41421356237308982
10
-102.13124999999998
20
-38.125000000000007
10
-102.13124999999998
20
-54.125000000000007
42
0.41421356237308982
10
-101.63124999999997
20
-54.625
10
-93.631249999999994
20
-54.625
42
0.41421356237308982
0
LWPOLYLINE
5
189
100
AcDbEntity
8
0
100
AcDbPolyline
90
8
70
1
43
0.0
10
12.66875000000006
20
-54.625
42
-0.41421356237308982
10
12.168750000000053
20
-54.125000000000007
10
12.168750000000053
20
-38.125000000000007
42
-0.41421356237308982
10
12.66875000000006
20
-37.625000000000014
10
20.668750000000031
20
-37.625000000000014
42
-0.41421356237308982
10
21.168750000000038
20
-38.125000000000007
10
21.168750000000038
20
-54.125000000000007
42
-0.41421356237308982
10
20.668750000000031
20
-54.625
0
LWPOLYLINE
5
190
100
AcDbEntity
8
0
100
AcDbPolyline
90
8
70
1
43
0.0
10
180.08125000000013
20
-53.787000000000006
10
165.58125000000015
20
-53.787000000000006
42
-0.41421356237313145
10
165.08125000000013
20
-53.287000000000006
10
165.08125000000013
20
-46.786999999999999
42
-0.41421356237313145
10
165.58125000000015
20
-46.287000000000006
10
180.08125000000013
20
-46.28700000000002
42
-0.41421356237312101
10
180.58125000000015
20
-46.786999999999999
10
180.58125000000018
20
-53.287000000000006
42
-0.41421356237312101
0
LWPOLYLINE
5
191
100
AcDbEntity
8
0
100
AcDbPolyline
90
8
70
1
43
0.0
10
165.08125000000013
20
-22.913000000000004
10
165.08125000000013
20
-29.413000000000011
42
0.41421356237313145
10
165.58125000000015
20
-29.913000000000007
10
180.08125000000013
20
-29.91299999999999
42
0.41421356237312101
10
180.58125000000015
20
-29.413000000000011
10
180.58125000000018
20
-22.913000000000004
42
0.41421356237312101
10
180.08125000000013
20
-22.413000000000007
10
165.58125000000015
20
-22.413000000000007
42
0.41421356237313145
0
CIRCLE
5
192
100
AcDbEntity
8
0
100
AcDbCircle
10
-173.83125000000001
20
59.90000000000002
30
0
40
1.5000000000000107
210
0
220
0
230
1
0
CIRCLE
5
193
100
AcDbEntity
8
0
100
AcDbCircle
10
173.83125000000001
20
-59.900000000000006
30
0
40
1.5000000000000107
210
0
220
0
230
1
0
CIRCLE
5
194
100
AcDbEntity
8
0
100
AcDbCircle
10
83.343750000000014
20
59.90000000000002
30
0
40
1.5000000000000107
210
0
220
0
230
1
0
CIRCLE
5
195
100
AcDbEntity
8
0
100
AcDbCircle
10
-83.343750000000014
20
59.90000000000002
30
0
40
1.5000000000000107
210
0
220
0
230
1
0
CIRCLE
5
196
100
AcDbEntity
8
0
100
AcDbCircle
10
-169.06874999999999
20
-59.900000000000006
30
0
40
1.5000000000000107
210
0
220
0
230
1
0
CIRCLE
5
197
100
AcDbEntity
8
0
100
AcDbCircle
10
-97.631249999999994
20
-59.900000000000006
30
0
40
1.5000000000000107
210
0
220
0
230
1
0
CIRCLE
5
198
100
AcDbEntity
8
0
100
AcDbCircle
10
16.66875000000001
20
-59.900000000000006
30
0
40
1.5000000000000107
210
0
220
0
230
1
0
CIRCLE
5
199
100
AcDbEntity
8
0
100
AcDbCircle
10
0
20
59.90000000000002
30
0
40
1.5000000000000107
210
0
220
0
230
1
0
CIRCLE
5
200
100
AcDbEntity
8
0
100
AcDbCircle
10
83.343750000000014
20
-59.900000000000006
30
0
40
1.5000000000000107
210
0
220
0
230
1
0
CIRCLE
5
201
100
AcDbEntity
8
0
100
AcDbCircle
10
145.25624999999997
20
59.90000000000002
30
0
40
1.5000000000000107
210
0
220
0
230
1
0
ENDSEC
0
SECTION
2
OBJECTS
0
DICTIONARY
5
C
100
AcDbDictionary
3
ACAD_GROUP
350
D
3
ACAD_MLINESTYLE
350
17
0
DICTIONARY
5
D
100
AcDbDictionary
0
DICTIONARY
5
1A
330
C
100
AcDbDictionary
0
DICTIONARY
5
17
100
AcDbDictionary
0
ENDSEC
0
EOF
