0
SECTION
2
HEADER
9
$INSUNITS
70
4
9
$ACADVER
1
AC1014
9
$HANDSEED
5
FFFF
0
ENDSEC
0
SECTION
2
TABLES
0
TABLE
2
VPORT
5
8
100
AcDbSymbolTable
0
ENDTAB
0
TABLE
2
LTYPE
5
5
100
AcDbSymbolTable
0
LTYPE
5
14
100
AcDbSymbolTableRecord
100
AcDbLinetypeTableRecord
2
BYBLOCK
70
0
0
LTYPE
5
15
100
AcDbSymbolTableRecord
100
AcDbLinetypeTableRecord
2
BYLAYER
70
0
0
ENDTAB
0
TABLE
2
LAYER
5
2
100
AcDbSymbolTable
70
2
0
LAYER
5
50
100
AcDbSymbolTableRecord
100
AcDbLayerTableRecord
2
0
70
0
6
CONTINUOUS
0
ENDTAB
0
TABLE
2
STYLE
5
3
100
AcDbSymbolTable
70
1
0
STYLE
5
11
100
AcDbSymbolTableRecord
100
AcDbTextStyleTableRecord
2
STANDARD
70
0
0
ENDTAB
0
TABLE
2
VIEW
5
6
100
AcDbSymbolTable
70
0
0
ENDTAB
0
TABLE
2
UCS
5
7
100
AcDbSymbolTable
70
0
0
ENDTAB
0
TABLE
2
APPID
5
9
100
AcDbSymbolTable
70
2
0
APPID
5
12
100
AcDbSymbolTableRecord
100
AcDbRegAppTableRecord
2
ACAD
70
0
0
ENDTAB
0
TABLE
2
DIMSTYLE
5
A
100
AcDbSymbolTable
70
1
0
ENDTAB
0
TABLE
2
BLOCK_RECORD
5
1
100
AcDbSymbolTable
70
1
0
BLOCK_RECORD
5
1F
100
AcDbSymbolTableRecord
100
AcDbBlockTableRecord
2
*MODEL_SPACE
0
BLOCK_RECORD
5
1B
100
AcDbSymbolTableRecord
100
AcDbBlockTableRecord
2
*PAPER_SPACE
0
ENDTAB
0
ENDSEC
0
SECTION
2
BLOCKS
0
BLOCK
5
20
100
AcDbEntity
100
AcDbBlockBegin
2
*MODEL_SPACE
0
ENDBLK
5
21
100
AcDbEntity
100
AcDbBlockEnd
0
BLOCK
5
1C
100
AcDbEntity
100
AcDbBlockBegin
2
*PAPER_SPACE
0
ENDBLK
5
1D
100
AcDbEntity
100
AcDbBlockEnd
0
ENDSEC
0
SECTION
2
ENTITIES
0
LWPOLYLINE
5
100
100
AcDbEntity
8
0
100
AcDbPolyline
90
8
70
1
43
0.0
10
119.70625000000014
20
-54.625000000000021
10
132.7062500000001
20
-54.625000000000014
42
0.4142135623730846
10
133.20625000000013
20
-54.125000000000021
10
133.20625000000013
20
-41.125000000000007
42
0.41421356237312623
10
132.7062500000001
20
-40.624999999999993
10
119.70625000000014
20
-40.625000000000014
42
0.41421356237309503
10
119.20625000000015
20
-41.125000000000007
10
119.20625000000008
20
-54.125000000000021
42
0.41421356237312101
0
LWPOLYLINE
5
101
100
AcDbEntity
8
0
100
AcDbPolyline
90
8
70
1
43
0.0
10
180.3312500000001
20
-31.099999999999994
10
167.33125000000013
20
-31.100000000000026
42
0.41421356237309764
10
166.83125000000015
20
-31.600000000000001
10
166.83125000000013
20
-44.600000000000009
42
0.41421356237314705
10
167.33125000000013
20
-45.100000000000016
10
180.33125000000007
20
-45.099999999999994
42
0.41421356237310542
10
180.83125000000007
20
-44.600000000000009
10
180.8312500000001
20
-31.600000000000001
42
0.4142135623730846
0
LWPOLYLINE
5
102
100
AcDbEntity
8
0
100
AcDbPolyline
90
8
70
1
43
0.0
10
-166.83124999999995
20
22.07500000000001
10
-166.83124999999995
20
35.07500000000001
42
0.41421356237308721
10
-167.33125000000001
20
35.575000000000031
10
-180.33125000000001
20
35.574999999999989
42
0.41421356237316009
10
-180.83125000000001
20
35.07500000000001
10
-180.83125000000001
20
22.07500000000001
42
0.41421356237314705
10
-180.33125000000001
20
21.574999999999992
10
-167.33125000000001
20
21.575000000000017
42
0.41421356237310802
0
LWPOLYLINE
5
103
100
AcDbEntity
8
0
100
AcDbPolyline
90
8
70
1
43
0.0
10
-4.1187499999999124
20
54.625
42
0.41421356237311358
10
-4.6187499999999204
20
54.125000000000021
10
-4.6187499999999639
20
41.125000000000007
42
0.41421356237312557
10
-4.1187499999999133
20
40.624999999999993
10
8.8812500000000583
20
40.625000000000007
42
0.41421356237311907
10
9.3812500000000831
20
41.125000000000007
10
9.3812500000001044
20
54.125000000000021
42
0.41421356237313339
10
8.8812500000000583
20
54.625000000000021
0
LWPOLYLINE
5
104
100
AcDbEntity
8
0
100
AcDbPolyline
90
8
70
1
43
0.0
10
-113.65624999999994
20
40.624999999999993
10
-100.65624999999997
20
40.625000000000014
42
0.41421356237311585
10
-100.15624999999994
20
41.125000000000007
10
-100.15624999999993
20
54.125000000000021
42
0.4142135623730846
10
-100.65624999999997
20
54.625000000000021
10
-113.65624999999994
20
54.624999999999993
42
0.41421356237311585
10
-114.15624999999994
20
54.125000000000021
10
-114.15624999999999
20
41.125000000000007
42
0.41421356237309503
0
LWPOLYLINE
5
105
100
AcDbEntity
8
0
100
AcDbPolyline
90
8
70
1
43
0.0
10
99.868750000000119
20
54.125000000000021
42
0.4142135623730846
10
99.368750000000077
20
54.625000000000021
10
86.368750000000091
20
54.624999999999993
42
0.41421356237310542
10
85.868750000000091
20
54.125000000000021
10
85.868750000000063
20
41.125000000000007
42
0.41421356237311063
10
86.368750000000091
20
40.624999999999993
10
99.368750000000077
20
40.625000000000014
42
0.41421356237311585
10
99.868750000000105
20
41.125000000000007
0
LWPOLYLINE
5
106
100
AcDbEntity
8
0
100
AcDbPolyline
90
8
70
1
43
0.0
10
-23.168749999999925
20
54.625
42
0.41421356237312101
10
-23.668749999999928
20
54.125000000000021
10
-23.668749999999967
20
41.125000000000007
42
0.41421356237313145
10
-23.168749999999925
20
40.624999999999993
10
-10.168749999999953
20
40.625
42
0.41421356237311846
10
-9.6687499999999282
20
41.125000000000007
10
-9.6687499999999087
20
54.125000000000021
42
0.41421356237313273
10
-10.168749999999953
20
54.625000000000021
0
LWPOLYLINE
5
107
100
AcDbEntity
8
0
100
AcDbPolyline
90
8
70
1
43
0.0
10
123.18125000000009
20
54.625000000000021
10
110.18125000000013
20
54.624999999999993
42
0.41421356237310542
10
109.68125000000015
20
54.125000000000021
10
109.68125000000008
20
41.125000000000007
42
0.41421356237315748
10
110.18125000000013
20
40.624999999999993
10
123.18125000000009
20
40.625
42
0.41421356237313667
10
123.68125000000013
20
41.125000000000007
10
123.68125000000013
20
54.125000000000021
42
0.4142135623730846
0
LWPOLYLINE
5
108
100
AcDbEntity
8
0
100
AcDbPolyline
90
8
70
1
43
0.0
10
42.218750000000078
20
54.625000000000021
10
29.21875000000011
20
54.625
42
0.41421356237311324
10
28.718750000000099
20
54.125000000000021
10
28.718750000000068
20
41.125000000000007
42
0.41421356237313145
10
29.21875000000011
20
40.624999999999993
10
42.218750000000078
20
40.625
42
0.41421356237314183
10
42.718750000000092
20
41.125000000000007
10
42.718750000000121
20
54.125000000000021
42
0.41421356237314183
0
LWPOLYLINE
5
109
100
AcDbEntity
8
0
100
AcDbPolyline
90
8
70
1
43
0.0
10
-81.106249999999932
20
41.125000000000007
10
-81.106249999999875
20
54.125000000000021
42
0.4142135623730846
10
-81.606249999999946
20
54.625000000000021
10
-94.606249999999918
20
54.624999999999993
42
0.41421356237309503
10
-95.106249999999918
20
54.125000000000021
10
-95.106249999999974
20
41.125000000000007
42
0.41421356237313667
10
-94.606249999999918
20
40.624999999999993
10
-81.606249999999946
20
40.625
42
0.41421356237313667
0
LWPOLYLINE
5
110
100
AcDbEntity
8
0
100
AcDbPolyline
90
8
70
1
43
0.0
10
142.73125000000016
20
54.125000000000021
42
0.4142135623730846
10
142.2312500000001
20
54.625000000000021
10
129.23125000000013
20
54.624999999999986
42
0.41421356237314183
10
128.73125000000013
20
54.125000000000021
10
128.7312500000001
20
41.125000000000007
42
0.41421356237315227
10
129.23125000000013
20
40.624999999999993
10
142.2312500000001
20
40.625
42
0.41421356237313667
10
142.73125000000016
20
41.125000000000007
0
LWPOLYLINE
5
111
100
AcDbEntity
8
0
100
AcDbPolyline
90
8
70
1
43
0.0
10
-180.83125000000001
20
41.125000000000007
10
-180.83125000000001
20
54.125000000000021
42
-0.41421356237318868
10
-180.33125000000001
20
54.624999999999993
10
-167.33125000000001
20
54.625000000000028
42
-0.41421356237307422
10
-166.83124999999995
20
54.125000000000021
10
-166.83124999999995
20
41.125000000000007
42
-0.41421356237310025
10
-167.33125000000001
20
40.625000000000007
10
-180.33125000000001
20
40.624999999999993
42
-0.41421356237314183
0
LWPOLYLINE
5
112
100
AcDbEntity
8
0
100
AcDbPolyline
90
8
70
1
43
0.0
10
167.33125000000013
20
35.574999999999989
10
180.3312500000001
20
35.575000000000003
42
-0.41421356237310802
10
180.83125000000013
20
35.07500000000001
10
180.83125000000013
20
22.07500000000001
42
-0.41421356237310281
10
180.3312500000001
20
21.57500000000001
10
167.33125000000013
20
21.575000000000003
42
-0.41421356237313667
10
166.83125000000013
20
22.07500000000001
10
166.83125000000015
20
35.07500000000001
42
-0.41421356237309764
0
LWPOLYLINE
5
113
100
AcDbEntity
8
0
100
AcDbPolyline
90
268
70
1
43
0.0
10
-170.83124999999995
20
57.150000000000027
42
-0.41421356237312623
10
-171.33125000000004
20
57.650000000000013
10
-171.33125000000004
20
59.90000000000002
42
0.99999999999999989
10
-176.33125000000004
20
59.90000000000002
10
-176.33125000000004
20
57.650000000000013
42
-0.41421356237318346
10
-176.83125000000001
20
57.150000000000027
10
-181.35624999999999
20
57.150000000000027
42
0.41421356237309764
10
-183.35624999999999
20
55.150000000000013
10
-183.35624999999999
20
3.0250000000000288
42
0.41421356237317308
10
-182.85624999999999
20
2.5250000000000368
10
-177.85624999999999
20
2.525000000000043
42
-0.41421356237313978
10
-177.35624999999999
20
2.0250000000000301
10
-177.35624999999999
20
-2.0250000000000123
42
0.41421356237317358
10
-176.85624999999999
20
-2.5250000000000048
10
-162.56875000000005
20
-2.5249999999999839
42
-0.41421356237313794
10
-162.06874999999997
20
-3.0249999999999932
10
-162.06874999999997
20
-16.024999999999999
42
-0.41421356237304169
10
-162.56875000000005
20
-16.524999999999999
10
-177.94999999999999
20
-16.525000000000006
42
-0.41421356237313667
10
-178.45000000000005
20
-16.024999999999999
10
-178.44999999999999
20
-3.0250000000000155
42
0.41421356237314089
10
-178.94999999999999
20
-2.525000000000019
10
-182.85624999999999
20
-2.5250000000000004
42
0.41421356237313861
10
-183.35624999999999
20
-3.025000000000011
10
-183.35624999999999
20
-55.150000000000006
42
0.41421356237309503
10
-181.35625000000002
20
-57.149999999999999
10
-172.06874999999999
20
-57.149999999999999
42
-0.41421356237313667
10
-171.56874999999999
20
-57.650000000000006
10
-171.56874999999999
20
-59.90000000000002
42
0.99999999999999989
10
-166.56874999999999
20
-59.90000000000002
10
-166.56874999999999
20
-57.650000000000006
42
-0.41421356237314705
10
-166.06874999999999
20
-57.149999999999999
10
-138.84999999999997
20
-57.149999999999999
42
0.41421356237308982
10
-138.34999999999997
20
-56.649999999999999
10
-138.34999999999997
20
-52.125
42
-0.41421356237312101
10
-137.84999999999997
20
-51.625000000000007
10
-128.94374999999999
20
-51.625000000000021
42
0.41421356237310025
10
-128.44374999999999
20
-51.125000000000007
10
-128.44374999999999
20
-41.125
42
-0.41421356237313667
10
-127.94374999999997
20
-40.625000000000014
10
-114.94375000000002
20
-40.625
42
-0.41421356237311063
10
-114.44374999999997
20
-41.125
10
-114.44374999999997
20
-54.125000000000014
42
-0.4142135623731783
10
-114.94375000000004
20
-54.625
10
-128.34999999999997
20
-54.625000000000014
42
0.4142135623730846
10
-128.84999999999997
20
-55.125
10
-128.84999999999997
20
-56.649999999999999
42
0.41421356237308982
10
-128.34999999999997
20
-57.149999999999999
10
-100.63124999999999
20
-57.149999999999999
42
-0.41421356237310542
10
-100.13125000000001
20
-57.650000000000006
10
-100.13125000000001
20
-59.90000000000002
42
0.99999999999999989
10
-95.131250000000009
20
-59.90000000000002
10
-95.131250000000009
20
-57.650000000000006
42
-0.41421356237310542
10
-94.63124999999998
20
-57.149999999999999
10
-47.981249999999982
20
-57.149999999999999
42
0.41421356237309503
10
-47.481249999999982
20
-56.649999999999999
10
-47.481249999999982
20
-41.125
42
-0.41421356237315227
10
-46.981249999999932
20
-40.625000000000014
10
-33.981250000000003
20
-40.625000000000014
42
-0.41421356237313667
10
-33.48124999999996
20
-41.125
10
-33.481249999999953
20
-56.649999999999999
42
0.41421356237309503
10
-32.981249999999953
20
-57.149999999999999
10
13.668750000000005
20
-57.149999999999991
42
-0.41421356237310936
10
14.16875000000001
20
-57.650000000000006
10
14.16875000000001
20
-59.90000000000002
42
0.99999999999999989
10
19.168750000000014
20
-59.90000000000002
10
19.168750000000017
20
-57.650000000000006
42
-0.41421356237311063
10
19.668750000000017
20
-57.149999999999999
10
47.387500000000045
20
-57.149999999999999
42
0.41421356237309503
10
47.887500000000067
20
-56.649999999999999
10
47.887500000000067
20
-55.125
42
0.41421356237309503
10
47.387500000000067
20
-54.625
10
33.981250000000074
20
-54.625
42
-0.41421356237313667
10
33.481250000000031
20
-54.125000000000014
10
33.481250000000024
20
-41.125
42
-0.41421356237313667
10
33.981250000000074
20
-40.625000000000014
10
46.98125000000001
20
-40.625
42
-0.41421356237313667
10
47.481250000000045
20
-41.125
10
47.481250000000053
20
-51.125000000000007
42
0.41421356237311063
10
47.981250000000053
20
-51.625000000000014
10
56.887500000000045
20
-51.625000000000007
42
-0.41421356237310542
10
57.387500000000045
20
-52.125000000000028
10
57.387500000000038
20
-56.649999999999999
42
0.41421356237309503
10
57.887500000000038
20
-57.149999999999999
10
80.34375
20
-57.150000000000006
42
-0.41421356237308982
10
80.843750000000014
20
-57.650000000000006
10
80.843750000000014
20
-59.90000000000002
42
0.99999999999999989
10
85.843750000000014
20
-59.90000000000002
10
85.843750000000014
20
-57.650000000000006
42
-0.41421356237311063
10
86.343750000000043
20
-57.149999999999999
10
140.84375
20
-57.149999999999991
42
0.4142135623730534
10
141.34375000000003
20
-56.649999999999999
10
141.34375000000006
20
-54.874999999999979
42
0.4142135623730846
10
140.84375
20
-54.375
10
134.89325000000008
20
-54.375
42
-0.41421356237311585
10
134.39325000000008
20
-53.874999999999972
10
134.39325000000008
20
-39.374999999999986
42
-0.41421356237305862
10
134.89325000000008
20
-38.874999999999979
10
141.39325000000014
20
-38.874999999999979
42
-0.41421356237309243
10
141.89325000000011
20
-39.374999999999986
10
141.89325000000011
20
-50.650000000000013
42
0.414213562373069
10
142.39325000000011
20
-51.15000000000002
10
147.28125000000009
20
-51.149999999999991
42
0.41421356237310025
10
147.78125000000011
20
-50.650000000000013
10
147.78125000000014
20
-41.125000000000007
42
-0.41421356237312623
10
148.28125000000014
20
-40.625000000000028
10
161.28125000000009
20
-40.624999999999993
42
-0.41421356237314183
10
161.78125000000017
20
-41.125000000000007
10
161.78125000000017
20
-54.125000000000021
42
-0.41421356237304818
10
161.28125000000009
20
-54.625000000000021
10
148.84375000000006
20
-54.625000000000014
42
0.41421356237311063
10
148.34375
20
-55.125000000000028
10
148.34375
20
-56.649999999999999
42
0.41421356237310025
10
148.84375000000003
20
-57.149999999999999
10
170.83124999999995
20
-57.149999999999999
42
-0.41421356237313667
10
171.33125000000004
20
-57.650000000000006
10
171.33125000000004
20
-59.90000000000002
42
0.99999999999999989
10
176.33125000000004
20
-59.90000000000002
10
176.33125000000001
20
-57.650000000000006
42
-0.41421356237310025
10
176.83125000000001
20
-57.149999999999999
10
181.35625000000002
20
-57.149999999999999
42
0.41421356237309503
10
183.35624999999999
20
-55.150000000000006
10
183.35624999999999
20
-3.0249999999999932
42
0.41421356237317242
10
182.85624999999999
20
-2.5250000000000021
10
181.33125000000013
20
-2.5249999999999955
42
0.41421356237313633
10
180.83125000000013
20
-3.0250000000000021
10
180.83125000000013
20
-16.025000000000006
42
-0.41421356237310281
10
180.3312500000001
20
-16.525000000000006
10
167.33125000000013
20
-16.525000000000013
42
-0.41421356237313534
10
166.83125000000013
20
-16.025000000000006
10
166.83125000000015
20
-3.0250000000000021
42
-0.41421356237309798
10
167.33125000000013
20
-2.5250000000000217
10
176.85624999999999
20
-2.5249999999999839
42
0.41421356237312723
10
177.35624999999999
20
-2.0249999999999928
10
177.35624999999999
20
2.0250000000000092
42
0.41421356237317358
10
176.85624999999999
20
2.5250000000000017
10
167.33125000000013
20
2.5249999999999968
42
-0.41421356237313567
10
166.83125000000013
20
3.0250000000000021
10
166.83125000000015
20
16.025000000000006
42
-0.41421356237309892
10
167.33125000000013
20
16.524999999999991
10
180.3312500000001
20
16.525000000000006
42
-0.41421356237311063
10
180.83125000000013
20
16.025000000000006
10
180.83125000000013
20
3.0250000000000066
42
0.41421356237301277
10
181.33125000000013
20
2.5249999999999959
10
182.85624999999999
20
2.5249999999999986
42
0.41421356237314022
10
183.35624999999999
20
3.025000000000011
10
183.35624999999999
20
55.150000000000013
42
0.41421356237308721
10
181.35625000000002
20
57.150000000000027
10
168.30625000000009
20
57.149999999999999
42
0.41421356237313667
10
167.80625000000012
20
56.650000000000027
10
167.80625000000012
20
55.124999999999993
42
0.41421356237310542
10
168.30625000000009
20
54.624999999999993
10
180.3312500000001
20
54.625000000000028
42
-0.41421356237307422
10
180.83125000000013
20
54.125000000000021
10
180.83125000000018
20
41.125000000000007
42
-0.41421356237310025
10
180.3312500000001
20
40.625000000000007
10
167.33125000000013
20
40.624999999999993
42
-0.41421356237314183
10
166.83125000000013
20
41.125000000000007
10
166.83124999999995
20
51.125000000000007
42
0.41421356237314705
10
166.33124999999995
20
51.625000000000014
10
162.28125000000017
20
51.625000000000014
42
0.41421356237313667
10
161.78125000000009
20
51.125000000000007
10
161.78125000000017
20
41.125000000000007
42
-0.41421356237304302
10
161.28125000000009
20
40.625000000000007
10
148.28125000000014
20
40.625
42
-0.41421356237313667
10
147.78125000000006
20
41.125000000000007
10
147.78125000000014
20
54.125000000000021
42
-0.41421356237307944
10
148.28125000000014
20
54.624999999999993
10
160.3062500000002
20
54.625000000000014
42
0.41421356237314183
10
160.80625000000023
20
55.125000000000028
10
160.8062500000002
20
56.650000000000027
42
0.4142135623730222
10
160.3062500000002
20
57.150000000000027
10
148.25624999999999
20
57.150000000000027
42
-0.41421356237311585
10
147.75624999999997
20
57.650000000000013
10
147.75624999999997
20
59.90000000000002
42
0.99999999999999989
10
142.75624999999997
20
59.90000000000002
10
142.75624999999997
20
57.650000000000013
42
-0.41421356237310025
10
142.25624999999997
20
57.150000000000027
10
86.343750000000043
20
57.150000000000027
42
-0.41421356237311585
10
85.843750000000014
20
57.650000000000013
10
85.843750000000014
20
59.90000000000002
42
0.99999999999999989
10
80.843750000000014
20
59.90000000000002
10
80.843750000000014
20
57.650000000000013
42
-0.41421356237310025
10
80.34375
20
57.150000000000027
10
68.293750000000131
20
57.150000000000027
42
0.41421356237310542
10
67.793750000000131
20
56.650000000000027
10
67.793750000000131
20
55.124999999999993
42
0.41421356237313667
10
68.293750000000131
20
54.624999999999993
10
80.318750000000108
20
54.625000000000021
42
-0.41421356237310025
10
80.818750000000122
20
54.125000000000021
10
80.818750000000136
20
41.125000000000007
42
-0.41421356237311585
10
80.318750000000108
20
40.625000000000007
10
67.318750000000136
20
40.625000000000007
42
-0.41421356237312623
10
66.81875000000008
20
41.125000000000007
10
66.818749999999824
20
51.125000000000028
42
0.41421356237308982
10
66.318749999999824
20
51.625000000000014
10
62.268750000000139
20
51.625000000000014
42
0.41421356237311585
10
61.768750000000132
20
51.125000000000007
10
61.768750000000132
20
41.125000000000007
42
-0.41421356237310542
10
61.268750000000097
20
40.625000000000007
10
48.268750000000118
20
40.625
42
-0.41421356237311585
10
47.768750000000075
20
41.125000000000007
10
47.768750000000104
20
54.125000000000021
42
-0.41421356237308982
10
48.268750000000118
20
54.624999999999993
10
60.293750000000102
20
54.625000000000021
42
0.41421356237313145
10
60.793750000000102
20
55.125000000000028
10
60.793750000000102
20
56.650000000000027
42
0.41421356237310542
10
60.293750000000102
20
57.150000000000027
10
2.9999999999999982
20
57.150000000000027
42
-0.41421356237310997
10
2.5
20
57.650000000000013
10
2.5
20
59.90000000000002
42
0.99999999999999989
10
-2.5
20
59.90000000000002
10
-2.5000000000000053
20
57.650000000000013
42
-0.41421356237309698
10
-2.9999999999999982
20
57.150000000000027
10
-41.243749999999899
20
57.150000000000027
42
0.41421356237310542
10
-41.743749999999899
20
56.650000000000027
10
-41.743749999999899
20
55.124999999999993
42
0.41421356237313667
10
-41.243749999999899
20
54.624999999999993
10
-29.218749999999929
20
54.625000000000021
42
-0.41421356237310802
10
-28.71874999999989
20
54.125000000000021
10
-28.71874999999989
20
41.125000000000007
42
-0.41421356237312884
10
-29.218749999999929
20
40.625000000000007
10
-42.218749999999908
20
40.625
42
-0.41421356237311585
10
-42.718749999999936
20
41.125000000000007
10
-42.71875000000022
20
51.125000000000028
42
0.41421356237308982
10
-43.218750000000213
20
51.625000000000014
10
-47.268749999999898
20
51.625000000000014
42
0.41421356237307944
10
-47.768749999999898
20
51.125000000000007
10
-47.768749999999905
20
41.125000000000007
42
-0.41421356237311585
10
-48.26874999999994
20
40.625000000000007
10
-61.268749999999912
20
40.625000000000007
42
-0.41421356237312623
10
-61.768749999999962
20
41.125000000000007
10
-61.768749999999926
20
54.125000000000021
42
-0.41421356237308982
10
-61.268749999999912
20
54.624999999999993
10
-49.24374999999992
20
54.625000000000021
42
0.41421356237309503
10
-48.743749999999935
20
55.125000000000028
10
-48.743749999999935
20
56.650000000000027
42
0.41421356237311063
10
-49.24374999999992
20
57.150000000000027
10
-80.34375
20
57.150000000000034
42
-0.41421356237310025
10
-80.843750000000014
20
57.650000000000013
10
-80.843750000000014
20
59.90000000000002
42
0.99999999999999989
10
-85.843750000000014
20
59.90000000000002
10
-85.843750000000014
20
57.650000000000013
42
-0.4142135623730534
10
-86.343750000000043
20
57.150000000000027
10
-131.73124999999996
20
57.150000000000027
42
0.41421356237307944
10
-132.23124999999996
20
56.650000000000027
10
-132.23124999999996
20
55.124999999999993
42
0.41421356237311585
10
-131.73124999999996
20
54.625
10
-119.70624999999998
20
54.625000000000014
42
-0.4142135623730846
10
-119.20624999999994
20
54.125000000000021
10
-119.20624999999994
20
41.125000000000007
42
-0.41421356237308982
10
-119.70624999999998
20
40.625000000000007
10
-132.70624999999995
20
40.625000000000007
42
-0.41421356237312101
10
-133.20625000000001
20
41.125000000000007
10
-133.2062500000001
20
51.125000000000028
42
0.41421356237312101
10
-133.70625000000013
20
51.625000000000021
10
-137.75624999999994
20
51.625000000000014
42
0.41421356237309503
10
-138.25624999999997
20
51.125000000000028
10
-138.25624999999997
20
41.125000000000007
42
-0.41421356237311585
10
-138.75624999999999
20
40.625000000000007
10
-151.75624999999997
20
40.625000000000007
42
-0.41421356237312101
10
-152.25625000000005
20
41.125000000000007
10
-152.25624999999997
20
54.125000000000021
42
-0.41421356237311585
10
-151.75624999999997
20
54.624999999999993
10
-139.73124999999999
20
54.625000000000028
42
0.41421356237308982
10
-139.23124999999999
20
55.125000000000028
10
-139.23124999999999
20
56.650000000000027
42
0.41421356237310542
10
-139.73124999999999
20
57.150000000000027
0
LWPOLYLINE
5
114
100
AcDbEntity
8
0
100
AcDbPolyline
90
8
70
1
43
0.0
10
-162.56875000000005
20
16.525000000000027
10
-175.56874999999997
20
16.524999999999984
42
0.41421356237316009
10
-176.06874999999999
20
16.025000000000006
10
-176.06875000000008
20
3.0250000000000021
42
0.41421356237316753
10
-175.56874999999997
20
2.5249999999999861
10
-162.56875000000005
20
2.5249999999999928
42
0.41421356237313794
10
-162.06874999999997
20
3.0250000000000021
10
-162.06874999999997
20
16.025000000000006
42
0.41421356237310542
0
LWPOLYLINE
5
115
100
AcDbEntity
8
0
100
AcDbPolyline
90
8
70
1
43
0.0
10
89.843750000000057
20
35.575000000000031
10
76.843750000000099
20
35.574999999999989
42
0.41421356237312884
10
76.343750000000071
20
35.07500000000001
10
76.343750000000043
20
22.07500000000001
42
0.41421356237311585
10
76.843750000000099
20
21.574999999999992
10
89.843750000000057
20
21.575000000000021
42
0.41421356237314705
10
90.343750000000099
20
22.07500000000001
10
90.343750000000128
20
35.07500000000001
42
0.41421356237312623
0
LWPOLYLINE
5
116
100
AcDbEntity
8
0
100
AcDbPolyline
90
8
70
1
43
0.0
10
81.10625000000006
20
3.0250000000000021
42
0.41421356237312462
10
81.606250000000102
20
2.5249999999999861
10
94.606250000000074
20
2.525000000000011
42
0.41421356237311679
10
95.106250000000102
20
3.0250000000000021
10
95.106250000000131
20
16.025000000000006
42
0.41421356237309503
10
94.606250000000074
20
16.525000000000027
10
81.606250000000102
20
16.524999999999991
42
0.41421356237313406
10
81.106250000000117
20
16.025000000000006
0
LWPOLYLINE
5
117
100
AcDbEntity
8
0
100
AcDbPolyline
90
8
70
1
43
0.0
10
73.962500000000091
20
-3.0249999999999932
10
73.962500000000077
20
-16.024999999999999
42
0.41421356237311974
10
74.462500000000091
20
-16.525000000000016
10
87.462500000000063
20
-16.524999999999991
42
0.41421356237311585
10
87.962500000000091
20
-16.024999999999999
10
87.962500000000134
20
-3.0249999999999932
42
0.41421356237309437
10
87.462500000000063
20
-2.5249999999999773
10
74.462500000000091
20
-2.5250000000000177
42
0.41421356237312851
0
LWPOLYLINE
5
118
100
AcDbEntity
8
0
100
AcDbPolyline
90
8
70
1
43
0.0
10
-168.42500000000001
20
-21.575000000000056
42
0.41421356237310542
10
-168.92499999999995
20
-22.07500000000001
10
-168.92499999999998
20
-35.07500000000001
42
0.41421356237313145
10
-168.42499999999998
20
-35.574999999999989
10
-155.42499999999995
20
-35.575000000000017
42
0.41421356237313406
10
-154.92499999999995
20
-35.07500000000001
10
-154.92499999999995
20
-22.07500000000001
42
0.41421356237315227
10
-155.42500000000001
20
-21.574999999999992
0
LWPOLYLINE
5
119
100
AcDbEntity
8
0
100
AcDbPolyline
90
8
70
1
43
0.0
10
-162.06874999999997
20
-54.125000000000014
10
-162.06874999999997
20
-41.125
42
0.41421356237312101
10
-162.56875000000005
20
-40.625000000000014
10
-175.56874999999997
20
-40.625000000000007
42
0.4142135623730846
10
-176.06874999999999
20
-41.125
10
-176.06874999999997
20
-54.125000000000014
42
0.41421356237311063
10
-175.56874999999994
20
-54.624999999999993
10
-162.56875000000005
20
-54.625000000000014
42
0.41421356237313145
0
LWPOLYLINE
5
120
100
AcDbEntity
8
0
100
AcDbPolyline
90
8
70
1
43
0.0
10
86.368750000000091
20
-21.575000000000017
42
0.41421356237309764
10
85.868750000000091
20
-22.07500000000001
10
85.868750000000063
20
-35.07500000000001
42
0.41421356237309764
10
86.368750000000091
20
-35.575000000000031
10
99.368750000000077
20
-35.57500000000001
42
0.41421356237312101
10
99.868750000000105
20
-35.07500000000001
10
99.868750000000119
20
-22.07500000000001
42
0.41421356237309764
10
99.368750000000077
20
-21.574999999999992
0
LWPOLYLINE
5
121
100
AcDbEntity
8
0
100
AcDbPolyline
90
8
70
1
43
0.0
10
94.606250000000045
20
-54.625000000000014
42
0.41421356237312101
10
95.106250000000102
20
-54.125000000000014
10
95.106250000000074
20
-41.125
42
0.41421356237314183
10
94.606250000000045
20
-40.625000000000014
10
81.606250000000102
20
-40.625000000000014
42
0.41421356237314183
10
81.10625000000006
20
-41.125
10
81.10625000000006
20
-54.125000000000014
42
0.41421356237314705
10
81.606250000000102
20
-54.624999999999993
0
LWPOLYLINE
5
122
100
AcDbEntity
8
0
100
AcDbPolyline
90
8
70
1
43
0.0
10
73.675000000000082
20
-35.07500000000001
10
73.675000000000097
20
-22.07500000000001
42
0.41421356237312623
10
73.175000000000068
20
-21.574999999999992
10
60.17500000000009
20
-21.575000000000024
42
0.41421356237310281
10
59.675000000000082
20
-22.07500000000001
10
59.675000000000047
20
-35.07500000000001
42
0.41421356237314183
10
60.175000000000097
20
-35.575000000000031
10
73.175000000000068
20
-35.575000000000003
42
0.41421356237312362
0
LWPOLYLINE
5
123
100
AcDbEntity
8
0
100
AcDbPolyline
90
8
70
1
43
0.0
10
72.775500000000065
20
-17.77500000000002
10
72.775500000000065
20
-3.275000000000019
42
0.41421356237307422
10
72.275500000000065
20
-2.7750000000000208
10
65.775500000000051
20
-2.7750000000000181
42
0.41421356237308105
10
65.275500000000065
20
-3.275000000000019
10
65.275500000000065
20
-17.77500000000002
42
0.41421356237308593
10
65.775500000000051
20
-18.275000000000013
10
72.275500000000065
20
-18.27500000000002
42
0.41421356237309503
0
LWPOLYLINE
5
124
100
AcDbEntity
8
0
100
AcDbPolyline
90
8
70
1
43
0.0
10
68.156750000000073
20
19.824999999999982
42
-0.41421356237308721
10
67.656750000000073
20
20.324999999999985
10
67.656750000000073
20
34.824999999999989
42
-0.41421356237312362
10
68.156750000000073
20
35.324999999999989
10
74.656750000000073
20
35.324999999999996
42
-0.41421356237309764
10
75.156750000000073
20
34.824999999999989
10
75.156750000000073
20
20.324999999999985
42
-0.41421356237309764
10
74.656750000000073
20
19.824999999999985
0
LWPOLYLINE
5
125
100
AcDbEntity
8
0
100
AcDbPolyline
90
8
70
1
43
0.0
10
92.030750000000097
20
35.324999999999982
42
0.41421356237310542
10
91.530750000000083
20
34.824999999999989
10
91.530750000000083
20
20.324999999999985
42
0.41421356237311846
10
92.030750000000097
20
19.824999999999999
10
98.530750000000154
20
19.824999999999974
42
0.41421356237307683
10
99.030750000000083
20
20.324999999999985
10
99.030750000000083
20
34.824999999999989
42
0.41421356237307161
10
98.530750000000154
20
35.324999999999989
0
LWPOLYLINE
5
126
100
AcDbEntity
8
0
100
AcDbPolyline
90
8
70
1
43
0.0
10
89.649500000000089
20
-2.7750000000000243
42
0.41421356237309825
10
89.14950000000006
20
-3.275000000000019
10
89.149500000000103
20
-17.77500000000002
42
0.414213562373069
10
89.649500000000089
20
-18.275000000000006
10
96.149500000000089
20
-18.275000000000031
42
0.41421356237307555
10
96.649500000000103
20
-17.77500000000002
10
96.649500000000103
20
-3.275000000000019
42
0.41421356237307
10
96.149500000000089
20
-2.7750000000000248
0
LWPOLYLINE
5
127
100
AcDbEntity
8
0
100
AcDbPolyline
90
8
70
1
43
0.0
10
-153.73799999999994
20
-36.825000000000031
42
0.41421356237310281
10
-153.23799999999994
20
-37.325000000000017
10
-146.73799999999994
20
-37.325000000000038
42
0.4142135623730846
10
-146.23799999999994
20
-36.825000000000031
10
-146.23799999999994
20
-22.325000000000035
42
0.41421356237310025
10
-146.73799999999994
20
-21.825000000000042
10
-153.23799999999994
20
-21.825000000000045
42
0.41421356237310542
10
-153.73799999999994
20
-22.325000000000035
0
LWPOLYLINE
5
128
100
AcDbEntity
8
0
100
AcDbPolyline
90
8
70
1
43
0.0
10
180.08125000000013
20
-46.28700000000002
10
165.58125000000015
20
-46.287000000000006
42
0.41421356237313145
10
165.08125000000013
20
-46.786999999999999
10
165.08125000000013
20
-53.287000000000013
42
0.41421356237314183
10
165.58125000000015
20
-53.787000000000013
10
180.08125000000013
20
-53.78700000000002
42
0.41421356237313667
10
180.58125000000015
20
-53.287000000000013
10
180.58125000000013
20
-46.786999999999999
42
0.41421356237301177
0
LWPOLYLINE
5
129
100
AcDbEntity
8
0
100
AcDbPolyline
90
8
70
1
43
0.0
10
-170.11199999999999
20
-36.825000000000031
10
-170.11199999999999
20
-22.325000000000035
42
0.41421356237307683
10
-170.61199999999997
20
-21.825000000000024
10
-177.11199999999997
20
-21.825000000000049
42
0.41421356237312362
10
-177.61199999999999
20
-22.325000000000035
10
-177.61199999999999
20
-36.825000000000031
42
0.41421356237304041
10
-177.11199999999997
20
-37.32500000000001
10
-170.61199999999997
20
-37.325000000000003
42
0.41421356237309503
0
LWPOLYLINE
5
130
100
AcDbEntity
8
0
100
AcDbPolyline
90
8
70
1
43
0.0
10
-101.63124999999997
20
-37.625000000000014
10
-93.631249999999994
20
-37.625000000000021
42
-0.41421356237310281
10
-93.131249999999994
20
-38.125000000000007
10
-93.131249999999994
20
-54.125000000000014
42
-0.4142135623730846
10
-93.631249999999994
20
-54.625
10
-101.63124999999997
20
-54.625
42
-0.4142135623730846
10
-102.13124999999998
20
-54.125000000000014
10
-102.13124999999998
20
-38.125000000000007
42
-0.41421356237310281
0
LWPOLYLINE
5
131
100
AcDbEntity
8
0
100
AcDbPolyline
90
8
70
1
43
0.0
10
21.168750000000035
20
-38.125000000000007
42
0.4142135623730846
10
20.668750000000031
20
-37.625000000000014
10
12.66875000000006
20
-37.625000000000014
42
0.41421356237308593
10
12.168750000000053
20
-38.125000000000007
10
12.168750000000056
20
-54.125000000000014
42
0.41421356237310281
10
12.66875000000006
20
-54.625
10
20.668750000000031
20
-54.625
42
0.41421356237307422
10
21.168750000000038
20
-54.125000000000014
0
CIRCLE
5
132
100
AcDbEntity
8
0
100
AcDbCircle
10
-173.83125000000004
20
59.90000000000002
30
0
40
1.5000000000000111
210
0
220
0
230
1
0
CIRCLE
5
133
100
AcDbEntity
8
0
100
AcDbCircle
10
173.83125000000004
20
-59.90000000000002
30
0
40
1.5000000000000111
210
0
220
0
230
1
0
LWPOLYLINE
5
134
100
AcDbEntity
8
0
100
AcDbPolyline
90
8
70
1
43
0.0
10
110.51925000000006
20
-39.374999999999986
10
110.51925000000008
20
-53.874999999999972
42
0.41421356237313667
10
111.01925000000007
20
-54.374999999999972
10
117.51925000000007
20
-54.375
42
0.4142135623730846
10
118.01925000000008
20
-53.874999999999972
10
118.01925000000006
20
-39.374999999999986
42
0.41421356237311324
10
117.51925000000007
20
-38.874999999999993
10
111.01925000000007
20
-38.874999999999979
42
0.41421356237307161
0
LWPOLYLINE
5
135
100
AcDbEntity
8
0
100
AcDbPolyline
90
8
70
1
43
0.0
10
180.58125000000015
20
-22.913000000000004
10
180.58125000000015
20
-29.413000000000014
42
-0.41421356237312362
10
180.08125000000013
20
-29.91299999999999
10
165.58125000000015
20
-29.913000000000025
42
-0.41421356237313928
10
165.08125000000013
20
-29.413000000000014
10
165.08125000000013
20
-22.913000000000004
42
-0.41421356237317308
10
165.58125000000015
20
-22.413000000000011
10
180.08125000000013
20
-22.413000000000032
42
-0.41421356237315748
0
CIRCLE
5
136
100
AcDbEntity
8
0
100
AcDbCircle
10
83.343750000000014
20
59.90000000000002
30
0
40
1.5000000000000111
210
0
220
0
230
1
0
CIRCLE
5
137
100
AcDbEntity
8
0
100
AcDbCircle
10
-97.631250000000009
20
-59.90000000000002
30
0
40
1.5000000000000111
210
0
220
0
230
1
0
CIRCLE
5
138
100
AcDbEntity
8
0
100
AcDbCircle
10
83.343750000000014
20
-59.90000000000002
30
0
40
1.5000000000000111
210
0
220
0
230
1
0
CIRCLE
5
139
100
AcDbEntity
8
0
100
AcDbCircle
10
-169.06874999999999
20
-59.90000000000002
30
0
40
1.5000000000000111
210
0
220
0
230
1
0
CIRCLE
5
140
100
AcDbEntity
8
0
100
AcDbCircle
10
16.66875000000001
20
-59.90000000000002
30
0
40
1.5000000000000111
210
0
220
0
230
1
0
CIRCLE
5
141
100
AcDbEntity
8
0
100
AcDbCircle
10
-83.343750000000014
20
59.90000000000002
30
0
40
1.5000000000000111
210
0
220
0
230
1
0
CIRCLE
5
142
100
AcDbEntity
8
0
100
AcDbCircle
10
145.25624999999997
20
59.90000000000002
30
0
40
1.5000000000000111
210
0
220
0
230
1
0
CIRCLE
5
143
100
AcDbEntity
8
0
100
AcDbCircle
10
0
20
59.90000000000002
30
0
40
1.5000000000000111
210
0
220
0
230
1
0
LWPOLYLINE
5
144
100
AcDbEntity
8
0
100
AcDbPolyline
90
32
70
1
43
0.0
10
62.268750000000104
20
36.575000000000387
10
-162.28125
20
36.575000000000408
42
0.41421356237309764
10
-162.78125
20
36.075000000000401
10
-162.78124999999994
20
21.075000000000031
42
0.41421356237312362
10
-162.28124999999994
20
20.575000000000045
10
-153.75624999999997
20
20.575000000000028
42
-0.41421356237305862
10
-153.25624999999997
20
20.075000000000031
10
-153.25624999999997
20
2.0250000000000057
42
0.41421356237307094
10
-152.75624999999997
20
1.525000000000003
10
-148.99374999999995
20
1.525000000000001
42
-0.41421356237305862
10
-148.49374999999998
20
1.0250000000000026
10
-148.49374999999998
20
-17.025000000000009
42
0.414213562373069
10
-147.99374999999995
20
-17.525000000000009
10
-139.46875
20
-17.525000000000013
42
-0.41421356237308982
10
-138.96874999999997
20
-18.025000000000013
10
-138.96874999999997
20
-36.074999999999669
42
0.41421356237308982
10
-138.46874999999997
20
-36.574999999999669
10
47.98125000000006
20
-36.57499999999991
42
0.41421356237310802
10
48.481250000000067
20
-36.074999999999918
10
48.481250000000102
20
-18.024999999999999
42
-0.41421356237309892
10
48.981250000000088
20
-17.524999999999999
10
57.506250000000108
20
-17.524999999999999
42
0.41421356237309631
10
58.006250000000108
20
-17.024999999999999
10
58.006250000000108
20
1.0250000000000039
42
-0.41421356237309559
10
58.506250000000108
20
1.525000000000003
10
71.793750000000102
20
1.5250000000000048
42
0.41421356237309537
10
72.293750000000102
20
2.0250000000000035
10
72.293750000000102
20
17.025000000000002
42
0.41421356237309503
10
71.793750000000102
20
17.524999999999999
10
63.268750000000097
20
17.524999999999999
42
-0.41421356237309631
10
62.768750000000104
20
18.024999999999999
10
62.768750000000111
20
36.075000000000401
42
0.41421356237310542
0
LWPOLYLINE
5
145
100
AcDbEntity
8
0
100
AcDbPolyline
90
8
70
1
43
0.0
10
162.28125000000017
20
36.575000000000003
10
109.18124999999996
20
36.575000000000003
42
0.41421356237308721
10
108.68124999999995
20
36.075000000000003
10
108.68124999999995
20
-36.075000000000003
42
0.41421356237308721
10
109.18124999999996
20
-36.575000000000003
10
162.28125000000017
20
-36.574999999999989
42
0.41421356237312362
10
162.78125000000017
20
-36.075000000000003
10
162.78125000000017
20
36.075000000000003
42
0.41421356237312362
0
ENDSEC
0
SECTION
2
OBJECTS
0
DICTIONARY
5
C
100
AcDbDictionary
3
ACAD_GROUP
350
D
3
ACAD_MLINESTYLE
350
17
0
DICTIONARY
5
D
100
AcDbDictionary
0
DICTIONARY
5
1A
330
C
100
AcDbDictionary
0
DICTIONARY
5
17
100
AcDbDictionary
0
ENDSEC
0
EOF
