0
SECTION
2
HEADER
9
$INSUNITS
70
4
9
$ACADVER
1
AC1014
9
$HANDSEED
5
FFFF
0
ENDSEC
0
SECTION
2
TABLES
0
TABLE
2
VPORT
5
8
100
AcDbSymbolTable
0
ENDTAB
0
TABLE
2
LTYPE
5
5
100
AcDbSymbolTable
0
LTYPE
5
14
100
AcDbSymbolTableRecord
100
AcDbLinetypeTableRecord
2
BYBLOCK
70
0
0
LTYPE
5
15
100
AcDbSymbolTableRecord
100
AcDbLinetypeTableRecord
2
BYLAYER
70
0
0
ENDTAB
0
TABLE
2
LAYER
5
2
100
AcDbSymbolTable
70
2
0
LAYER
5
50
100
AcDbSymbolTableRecord
100
AcDbLayerTableRecord
2
0
70
0
6
CONTINUOUS
0
ENDTAB
0
TABLE
2
STYLE
5
3
100
AcDbSymbolTable
70
1
0
STYLE
5
11
100
AcDbSymbolTableRecord
100
AcDbTextStyleTableRecord
2
STANDARD
70
0
0
ENDTAB
0
TABLE
2
VIEW
5
6
100
AcDbSymbolTable
70
0
0
ENDTAB
0
TABLE
2
UCS
5
7
100
AcDbSymbolTable
70
0
0
ENDTAB
0
TABLE
2
APPID
5
9
100
AcDbSymbolTable
70
2
0
APPID
5
12
100
AcDbSymbolTableRecord
100
AcDbRegAppTableRecord
2
ACAD
70
0
0
ENDTAB
0
TABLE
2
DIMSTYLE
5
A
100
AcDbSymbolTable
70
1
0
ENDTAB
0
TABLE
2
BLOCK_RECORD
5
1
100
AcDbSymbolTable
70
1
0
BLOCK_RECORD
5
1F
100
AcDbSymbolTableRecord
100
AcDbBlockTableRecord
2
*MODEL_SPACE
0
BLOCK_RECORD
5
1B
100
AcDbSymbolTableRecord
100
AcDbBlockTableRecord
2
*PAPER_SPACE
0
ENDTAB
0
ENDSEC
0
SECTION
2
BLOCKS
0
BLOCK
5
20
100
AcDbEntity
100
AcDbBlockBegin
2
*MODEL_SPACE
0
ENDBLK
5
21
100
AcDbEntity
100
AcDbBlockEnd
0
BLOCK
5
1C
100
AcDbEntity
100
AcDbBlockBegin
2
*PAPER_SPACE
0
ENDBLK
5
1D
100
AcDbEntity
100
AcDbBlockEnd
0
ENDSEC
0
SECTION
2
ENTITIES
0
LWPOLYLINE
5
100
100
AcDbEntity
8
0
100
AcDbPolyline
90
44
70
1
43
0.0
10
-10.849999999999987
20
-42.625
10
-10.85
20
7.8499999999999837
42
-0.41421356237309503
10
-7.8499999999999925
20
10.849999999999991
10
33.100000000000009
20
10.849999999999989
42
-0.41421356237308943
10
36.100000000000001
20
7.8500000000000476
42
0.99999999999999989
10
40.100000000000009
20
7.8500000000000467
42
-0.41421356237308943
10
43.100000000000009
20
10.849999999999991
10
123.58800000000001
20
10.849999999999998
42
-0.41421356237308943
10
126.58800000000001
20
7.8500000000000476
42
0.99999999999999989
10
130.58799999999999
20
7.8500000000000467
42
-0.41421356237308943
10
133.58799999999999
20
10.849999999999991
10
233.125
20
10.85
42
-0.41421356237308876
10
236.125
20
7.8500000000000565
42
0.99999999999999989
10
240.125
20
7.8500000000000556
42
-0.41421356237308876
10
243.125
20
10.849999999999993
10
333.13800000000003
20
10.849999999999964
42
-0.41421356237308965
10
336.13799999999998
20
7.8500000000000476
42
0.99999999999999989
10
340.13800000000003
20
7.8500000000000476
42
-0.41421356237308965
10
343.13800000000003
20
10.849999999999993
10
355.51250000000016
20
10.849999999999964
42
-0.41421356237309503
10
358.51250000000016
20
7.8499999999999925
10
358.51250000000016
20
-42.625015611672055
42
-0.41348183075255429
10
355.51999679476046
20
-45.625006244668818
42
0.99750418295489252
10
355.51999679476046
20
-49.624993755331211
42
-0.41348183075255429
10
358.51250000000016
20
-52.624984388327945
10
358.51250000000022
20
-103.10000000000001
42
-0.41421356237309503
10
355.51250000000016
20
-106.10000000000001
10
323.88124999999997
20
-106.09999999999998
42
-0.41421356237308982
10
320.88124999999997
20
-103.10000000000005
42
0.99999999999999989
10
316.88124999999991
20
-103.10000000000005
42
-0.41421356237309159
10
313.88124999999997
20
-106.10000000000001
10
231.21925000000005
20
-106.10000000000001
42
-0.41421356237309159
10
228.21925000000005
20
-103.10000000000004
42
0.99999999999999989
10
224.21925000000005
20
-103.10000000000004
42
-0.41421356237309159
10
221.21925000000005
20
-106.10000000000001
10
45.481249999999989
20
-106.09999999999999
42
-0.41421356237309159
10
42.48125000000001
20
-103.10000000000002
42
0.99999999999999989
10
38.481250000000017
20
-103.10000000000002
42
-0.41421356237309159
10
35.48125000000006
20
-106.10000000000001
10
-7.8499999999999659
20
-106.10000000000001
42
-0.41421356237309503
10
-10.84999999999998
20
-103.10000000000001
10
-10.849999999999984
20
-52.625
42
-0.41421356237309498
10
-7.8499999999999872
20
-49.625
42
0.99999999999999989
10
-7.8499999999999872
20
-45.625
42
-0.41421356237309503
0
CIRCLE
5
101
100
AcDbEntity
8
0
100
AcDbCircle
10
83.831250000000097
20
-32.625000000000021
30
0
40
2.8999999999999915
210
0
220
0
230
1
0
CIRCLE
5
102
100
AcDbEntity
8
0
100
AcDbCircle
10
263.83125000000013
20
-32.625000000000021
30
0
40
2.8999999999999915
210
0
220
0
230
1
0
CIRCLE
5
103
100
AcDbEntity
8
0
100
AcDbCircle
10
143.8312500000001
20
-32.625000000000021
30
0
40
2.8999999999999915
210
0
220
0
230
1
0
CIRCLE
5
104
100
AcDbEntity
8
0
100
AcDbCircle
10
203.8312500000001
20
-32.625000000000021
30
0
40
2.8999999999999915
210
0
220
0
230
1
0
LWPOLYLINE
5
105
100
AcDbEntity
8
0
100
AcDbPolyline
90
8
70
1
43
0.0
10
284.60762889309336
20
-14.117677160341342
10
284.60762889309336
20
-8.1176771603413407
42
0.41421356237309503
10
281.60762889309336
20
-5.1176771603413407
10
275.60762889309336
20
-5.1176771603413398
42
0.41421356237309498
10
272.60762889309331
20
-8.1176771603413389
10
272.60762889309336
20
-14.117677160341342
42
0.41421356237309503
10
275.60762889309336
20
-17.117677160341344
10
281.60762889309336
20
-17.117677160341344
42
0.41421356237309503
0
ENDSEC
0
SECTION
2
OBJECTS
0
DICTIONARY
5
C
100
AcDbDictionary
3
ACAD_GROUP
350
D
3
ACAD_MLINESTYLE
350
17
0
DICTIONARY
5
D
100
AcDbDictionary
0
DICTIONARY
5
1A
330
C
100
AcDbDictionary
0
DICTIONARY
5
17
100
AcDbDictionary
0
ENDSEC
0
EOF
