0
SECTION
2
HEADER
9
$INSUNITS
70
4
9
$ACADVER
1
AC1014
9
$HANDSEED
5
FFFF
0
ENDSEC
0
SECTION
2
TABLES
0
TABLE
2
VPORT
5
8
100
AcDbSymbolTable
0
ENDTAB
0
TABLE
2
LTYPE
5
5
100
AcDbSymbolTable
0
LTYPE
5
14
100
AcDbSymbolTableRecord
100
AcDbLinetypeTableRecord
2
BYBLOCK
70
0
0
LTYPE
5
15
100
AcDbSymbolTableRecord
100
AcDbLinetypeTableRecord
2
BYLAYER
70
0
0
ENDTAB
0
TABLE
2
LAYER
5
2
100
AcDbSymbolTable
70
2
0
LAYER
5
50
100
AcDbSymbolTableRecord
100
AcDbLayerTableRecord
2
0
70
0
6
CONTINUOUS
0
ENDTAB
0
TABLE
2
STYLE
5
3
100
AcDbSymbolTable
70
1
0
STYLE
5
11
100
AcDbSymbolTableRecord
100
AcDbTextStyleTableRecord
2
STANDARD
70
0
0
ENDTAB
0
TABLE
2
VIEW
5
6
100
AcDbSymbolTable
70
0
0
ENDTAB
0
TABLE
2
UCS
5
7
100
AcDbSymbolTable
70
0
0
ENDTAB
0
TABLE
2
APPID
5
9
100
AcDbSymbolTable
70
2
0
APPID
5
12
100
AcDbSymbolTableRecord
100
AcDbRegAppTableRecord
2
ACAD
70
0
0
ENDTAB
0
TABLE
2
DIMSTYLE
5
A
100
AcDbSymbolTable
70
1
0
ENDTAB
0
TABLE
2
BLOCK_RECORD
5
1
100
AcDbSymbolTable
70
1
0
BLOCK_RECORD
5
1F
100
AcDbSymbolTableRecord
100
AcDbBlockTableRecord
2
*MODEL_SPACE
0
BLOCK_RECORD
5
1B
100
AcDbSymbolTableRecord
100
AcDbBlockTableRecord
2
*PAPER_SPACE
0
ENDTAB
0
ENDSEC
0
SECTION
2
BLOCKS
0
BLOCK
5
20
100
AcDbEntity
100
AcDbBlockBegin
2
*MODEL_SPACE
0
ENDBLK
5
21
100
AcDbEntity
100
AcDbBlockEnd
0
BLOCK
5
1C
100
AcDbEntity
100
AcDbBlockBegin
2
*PAPER_SPACE
0
ENDBLK
5
1D
100
AcDbEntity
100
AcDbBlockEnd
0
ENDSEC
0
SECTION
2
ENTITIES
0
CIRCLE
5
100
100
AcDbEntity
8
0
100
AcDbCircle
10
-49.929353714328677
20
-17.845139556888935
30
0
40
0.87500000000000011
210
0
220
0
230
1
0
CIRCLE
5
101
100
AcDbEntity
8
0
100
AcDbCircle
10
122.79064628567124
20
3.7448604431110488
30
0
40
0.73499999999999999
210
0
220
0
230
1
0
CIRCLE
5
102
100
AcDbEntity
8
0
100
AcDbCircle
10
78.975646285671274
20
20.254860443111042
30
0
40
1.9939
210
0
220
0
230
1
0
CIRCLE
5
103
100
AcDbEntity
8
0
100
AcDbCircle
10
-11.82935371432869
20
-17.845139556888942
30
0
40
0.87500000000000011
210
0
220
0
230
1
0
CIRCLE
5
104
100
AcDbEntity
8
0
100
AcDbCircle
10
75.165646285671272
20
22.794860443111034
30
0
40
0.73499999999999999
210
0
220
0
230
1
0
CIRCLE
5
105
100
AcDbEntity
8
0
100
AcDbCircle
10
73.89564628567129
20
20.254860443111042
30
0
40
0.87500000000000011
210
0
220
0
230
1
0
CIRCLE
5
106
100
AcDbEntity
8
0
100
AcDbCircle
10
84.055646285671273
20
20.254860443111042
30
0
40
0.87500000000000011
210
0
220
0
230
1
0
CIRCLE
5
107
100
AcDbEntity
8
0
100
AcDbCircle
10
121.52064628567125
20
1.2048604431110532
30
0
40
0.87500000000000011
210
0
220
0
230
1
0
ARC
5
108
100
AcDbEntity
8
0
100
AcDbCircle
10
129.10064628567125
20
5.7048604431110412
30
0
40
0.73500000001378307
210
0
220
0
230
1
100
AcDbArc
50
-207.24203677217736
51
19.351664314280036
0
CIRCLE
5
109
100
AcDbEntity
8
0
100
AcDbCircle
10
-20.719353714328683
20
-17.845139556888942
30
0
40
0.87500000000000011
210
0
220
0
230
1
0
CIRCLE
5
110
100
AcDbEntity
8
0
100
AcDbCircle
10
-39.769353714328695
20
-17.845139556888938
30
0
40
0.87500000000000011
210
0
220
0
230
1
0
CIRCLE
5
111
100
AcDbEntity
8
0
100
AcDbCircle
10
107.55064628567123
20
1.2048604431110532
30
0
40
1.9939
210
0
220
0
230
1
0
ARC
5
112
100
AcDbEntity
8
0
100
AcDbCircle
10
129.14064628567127
20
6.2848604431110395
30
0
40
0.73499999999999077
210
-0
220
0
230
1
100
AcDbArc
50
-27.242036769425127
51
199.3516643116055
0
CIRCLE
5
113
100
AcDbEntity
8
0
100
AcDbCircle
10
78.658146285671293
20
-17.845139556888942
30
0
40
0.87500000000000011
210
0
220
0
230
1
0
CIRCLE
5
114
100
AcDbEntity
8
0
100
AcDbCircle
10
103.74064628567123
20
3.7448604431110533
30
0
40
0.73499999999999999
210
0
220
0
230
1
0
ARC
5
115
100
AcDbEntity
8
0
100
AcDbCircle
10
86.278146285671298
20
63.434860443111027
30
0
40
0.73499999999998888
210
-0
220
0
230
1
100
AcDbArc
50
-27.242036772424978
51
199.35166431407171
0
CIRCLE
5
116
100
AcDbEntity
8
0
100
AcDbCircle
10
140.57064628567127
20
-36.895139556888942
30
0
40
0.87500000000000011
210
0
220
0
230
1
0
ARC
5
117
100
AcDbEntity
8
0
100
AcDbCircle
10
67.228146285671301
20
63.434860443111027
30
0
40
0.73499999999998888
210
-0
220
0
230
1
100
AcDbArc
50
-27.242036772424417
51
199.35166431407208
0
ARC
5
118
100
AcDbEntity
8
0
100
AcDbCircle
10
86.238146285671291
20
62.854860443111029
30
0
40
0.73499999999080456
210
0
220
0
230
1
100
AcDbArc
50
-207.24203677048328
51
19.351664312218507
0
CIRCLE
5
119
100
AcDbEntity
8
0
100
AcDbCircle
10
36.43064628567128
20
-17.845139556888945
30
0
40
0.87500000000000011
210
0
220
0
230
1
0
ARC
5
120
100
AcDbEntity
8
0
100
AcDbCircle
10
-80.40935371432866
20
-12.765139556888931
30
0
40
0.73499999999998877
210
-0
220
0
230
1
100
AcDbArc
50
-27.242036771166241
51
199.35166431234356
0
CIRCLE
5
121
100
AcDbEntity
8
0
100
AcDbCircle
10
16.745646285671327
20
1.2048604431110577
30
0
40
0.87500000000000011
210
0
220
0
230
1
0
ARC
5
122
100
AcDbEntity
8
0
100
AcDbCircle
10
148.15064628567129
20
-32.395139556888957
30
0
40
0.73499999999085142
210
0
220
0
230
1
100
AcDbArc
50
-207.24203677047882
51
19.35166431236609
0
LWPOLYLINE
5
123
100
AcDbEntity
8
0
100
AcDbPolyline
90
79
70
1
43
0.0
10
140.09439628567122
20
-46.42013955688892
42
-0.41421356237309503
10
139.30064628567123
20
-45.626389556888931
10
139.30064628567123
20
-43.24513955688893
42
0.66149558504000316
10
133.92258506118145
20
-40.958844247627695
42
-0.66149558503999151
10
133.07564628567127
20
-40.598797742232229
10
133.07564628567127
20
-25.395139556888935
42
0.414213562373069
10
132.57564628567127
20
-24.895139556888939
10
101.57564628567128
20
-24.895139556888942
42
0.41421356237306384
10
101.07564628567127
20
-25.395139556888932
10
101.0756462856713
20
-45.920139556888927
42
-0.41421356237310542
10
100.57564628567128
20
-46.42013955688892
10
47.225646285671274
20
-46.420139556888898
42
-0.41421356237309503
10
46.431896285671286
20
-45.62638955688891
10
46.431896285671286
20
-43.245139556888915
42
0.99999999999999989
10
40.08189628567127
20
-43.245139556888915
10
40.081896285671291
20
-45.62638955688891
42
-0.41421356237309503
10
39.288146285671282
20
-46.42013955688892
10
11.888146285671326
20
-46.42013955688892
42
-0.41421356237308982
10
11.388146285671327
20
-45.920139556888927
10
11.388146285671327
20
-25.395139556888935
42
0.41421356237310153
10
10.888146285671318
20
-24.895139556888939
10
-110.1118537143287
20
-24.895139556888942
42
0.4142135623730846
10
-110.6118537143287
20
-25.395139556888932
10
-110.6118537143287
20
-45.92013955688892
42
-0.41421356237308982
10
-111.1118537143287
20
-46.42013955688892
10
-138.51185371432862
20
-46.420139556888898
42
-0.41421356237309503
10
-139.30560371432861
20
-45.62638955688891
10
-139.30560371432861
20
-43.245139556888915
42
0.99999999999999989
10
-145.65560371432863
20
-43.245139556888915
10
-145.65560371432863
20
-45.62638955688891
42
-0.41421356237308193
10
-146.44935371432862
20
-46.42013955688892
10
-189.31185371432861
20
-46.420139556888927
42
-0.41421356237309503
10
-192.48685371432862
20
-43.245139556888901
10
-192.48685371432862
20
6.7611104431110665
42
-0.41421356237309503
10
-191.69310371432863
20
7.5548604431110729
10
-189.31185371432861
20
7.5548604431110729
42
0.99999999999999989
10
-189.31185371432861
20
13.904860443111062
10
-191.69310371432863
20
13.904860443111071
42
-0.41421356237309837
10
-192.48685371432862
20
14.698610443111066
10
-192.48685371432856
20
65.498610443111033
42
-0.41421356237309503
10
-190.10560371432859
20
67.879860443111028
10
-148.83060371432862
20
67.879860443111028
42
-0.41421356237309503
10
-148.03685371432863
20
67.086110443111039
10
-148.03685371432863
20
64.704860443111031
42
0.99999999999999989
10
-141.68685371432866
20
64.704860443111031
10
-141.68685371432866
20
67.086110443111039
42
-0.41421356237309503
10
-140.89310371432867
20
67.879860443111042
10
-58.34310371432867
20
67.879860443111028
42
-0.41421356237309503
10
-57.549353714328682
20
67.086110443111039
10
-57.549353714328682
20
64.704860443111031
42
0.99999999999999989
10
-51.199353714328666
20
64.704860443111016
10
-51.19935371432868
20
67.086110443111011
42
-0.41421356237309503
10
-50.405603714328677
20
67.879860443111028
10
51.194396285671303
20
67.879860443111028
42
-0.41421356237309503
10
51.988146285671291
20
67.086110443111039
10
51.988146285671291
20
64.704860443111031
42
0.99999999999999989
10
58.338146285671314
20
64.704860443111031
10
58.338146285671314
20
67.086110443111039
42
-0.41421356237309503
10
59.131896285671303
20
67.879860443111028
10
151.20689628567123
20
67.879860443110999
42
-0.41421356237309503
10
152.00064628567122
20
67.086110443111011
10
152.00064628567122
20
64.704860443111016
42
0.99999999999999989
10
158.35064628567127
20
64.704860443111016
10
158.35064628567125
20
67.086110443111011
42
-0.41421356237309503
10
159.14439628567126
20
67.879860443111028
10
171.84439628567119
20
67.879860443111056
42
-0.41421356237309725
10
174.22564628567125
20
65.498610443111005
10
174.22564628567125
20
14.698610443111033
42
-0.41421356237309503
10
173.43189628567126
20
13.904860443111035
10
171.05064628567121
20
13.904860443111035
42
0.99999999999999989
10
171.05064628567121
20
7.5548604431110462
10
173.43189628567126
20
7.5548604431110284
42
-0.41421356237309503
10
174.22564628567125
20
6.7611104431110398
10
174.22564628567125
20
-10.870139556888939
42
-0.41421356237312756
10
173.72564628567122
20
-11.37013955688893
10
153.20064628567133
20
-11.37013955688894
42
0.41421356237309115
10
152.7006462856713
20
-11.87013955688894
10
152.7006462856713
20
-45.920139556888941
42
-0.41421356237308982
10
152.2006462856713
20
-46.420139556888941
0
ARC
5
124
100
AcDbEntity
8
0
100
AcDbCircle
10
-61.399353714328697
20
-13.345139556888935
30
0
40
0.73500000000004062
210
0
220
0
230
1
100
AcDbArc
50
-207.2420367711683
51
19.351664313081724
0
CIRCLE
5
125
100
AcDbEntity
8
0
100
AcDbCircle
10
35.795646285671268
20
1.2048604431110532
30
0
40
0.87500000000000011
210
0
220
0
230
1
0
CIRCLE
5
126
100
AcDbEntity
8
0
100
AcDbCircle
10
18.015646285671281
20
3.7448604431110533
30
0
40
0.73499999999999999
210
0
220
0
230
1
0
CIRCLE
5
127
100
AcDbEntity
8
0
100
AcDbCircle
10
27.540646285671286
20
-15.305139556888932
30
0
40
0.73499999999999999
210
0
220
0
230
1
0
ARC
5
128
100
AcDbEntity
8
0
100
AcDbCircle
10
148.19064628567119
20
-31.815139556888958
30
0
40
0.73499999999998844
210
-0
220
0
230
1
100
AcDbArc
50
-27.242036772212362
51
199.35166431407541
0
CIRCLE
5
129
100
AcDbEntity
8
0
100
AcDbCircle
10
37.065646285671292
20
3.7448604431110488
30
0
40
0.73499999999999999
210
0
220
0
230
1
0
ARC
5
130
100
AcDbEntity
8
0
100
AcDbCircle
10
148.15064628567129
20
-13.345139556888952
30
0
40
0.73500000001387367
210
0
220
0
230
1
100
AcDbArc
50
-207.24203677217369
51
19.351664314284758
0
CIRCLE
5
131
100
AcDbEntity
8
0
100
AcDbCircle
10
31.350646285671289
20
-17.845139556888945
30
0
40
1.9939
210
0
220
0
230
1
0
ARC
5
132
100
AcDbEntity
8
0
100
AcDbCircle
10
-80.44935371432868
20
-13.345139556888929
30
0
40
0.73500000000691745
210
0
220
0
230
1
100
AcDbArc
50
-207.24203677167131
51
19.351664313082281
0
ARC
5
133
100
AcDbEntity
8
0
100
AcDbCircle
10
148.19064628567119
20
-12.765139556888954
30
0
40
0.7350000000000021
210
-0
220
0
230
1
100
AcDbArc
50
-27.242036769420036
51
199.35166431160692
0
ARC
5
134
100
AcDbEntity
8
0
100
AcDbCircle
10
-61.359353714328648
20
-12.765139556888936
30
0
40
0.73499999999998877
210
-0
220
0
230
1
100
AcDbArc
50
-27.242036771166493
51
199.35166431307755
0
CIRCLE
5
135
100
AcDbEntity
8
0
100
AcDbCircle
10
-77.869353714328682
20
-17.845139556888935
30
0
40
0.87500000000000011
210
0
220
0
230
1
0
ARC
5
136
100
AcDbEntity
8
0
100
AcDbCircle
10
-99.459353714328671
20
-12.765139556888931
30
0
40
0.7350000000000303
210
-0
220
0
230
1
100
AcDbArc
50
-27.242036771021514
51
199.35166431249766
0
CIRCLE
5
137
100
AcDbEntity
8
0
100
AcDbCircle
10
31.0331462856713
20
20.254860443111049
30
0
40
0.87500000000000011
210
0
220
0
230
1
0
CIRCLE
5
138
100
AcDbEntity
8
0
100
AcDbCircle
10
-68.979353714328653
20
-17.845139556888935
30
0
40
0.87500000000000011
210
0
220
0
230
1
0
CIRCLE
5
139
100
AcDbEntity
8
0
100
AcDbCircle
10
17.380646285671268
20
-17.845139556888945
30
0
40
0.87500000000000011
210
0
220
0
230
1
0
CIRCLE
5
140
100
AcDbEntity
8
0
100
AcDbCircle
10
36.113146285671256
20
20.254860443111049
30
0
40
1.9939
210
0
220
0
230
1
0
CIRCLE
5
141
100
AcDbEntity
8
0
100
AcDbCircle
10
26.270646285671262
20
-17.845139556888945
30
0
40
0.87500000000000011
210
0
220
0
230
1
0
CIRCLE
5
142
100
AcDbEntity
8
0
100
AcDbCircle
10
21.825646285671283
20
1.2048604431110577
30
0
40
1.9939
210
0
220
0
230
1
0
CIRCLE
5
143
100
AcDbEntity
8
0
100
AcDbCircle
10
40.875646285671294
20
1.2048604431110532
30
0
40
1.9939
210
0
220
0
230
1
0
CIRCLE
5
144
100
AcDbEntity
8
0
100
AcDbCircle
10
26.905646285671274
20
1.2048604431110577
30
0
40
0.87500000000000011
210
0
220
0
230
1
0
CIRCLE
5
145
100
AcDbEntity
8
0
100
AcDbCircle
10
32.303146285671254
20
22.794860443111045
30
0
40
0.73499999999999999
210
0
220
0
230
1
0
CIRCLE
5
146
100
AcDbEntity
8
0
100
AcDbCircle
10
-63.899353714328697
20
-17.845139556888935
30
0
40
1.9939
210
0
220
0
230
1
0
ARC
5
147
100
AcDbEntity
8
0
100
AcDbCircle
10
-99.499353714328649
20
-13.345139556888929
30
0
40
0.73500000000549914
210
0
220
0
230
1
100
AcDbArc
50
-207.24203677156547
51
19.351664313180816
0
CIRCLE
5
148
100
AcDbEntity
8
0
100
AcDbCircle
10
-67.709353714328699
20
-15.305139556888923
30
0
40
0.73499999999999999
210
0
220
0
230
1
0
CIRCLE
5
149
100
AcDbEntity
8
0
100
AcDbCircle
10
-58.81935371432867
20
-17.845139556888935
30
0
40
0.87500000000000011
210
0
220
0
230
1
0
CIRCLE
5
150
100
AcDbEntity
8
0
100
AcDbCircle
10
-16.274353714328704
20
1.2048604431110621
30
0
40
1.9939
210
0
220
0
230
1
0
CIRCLE
5
151
100
AcDbEntity
8
0
100
AcDbCircle
10
-54.374353714328691
20
1.2048604431110665
30
0
40
1.9939
210
0
220
0
230
1
0
CIRCLE
5
152
100
AcDbEntity
8
0
100
AcDbCircle
10
-11.194353714328678
20
1.2048604431110621
30
0
40
0.87500000000000011
210
0
220
0
230
1
0
ARC
5
153
100
AcDbEntity
8
0
100
AcDbCircle
10
57.703146285671281
20
-31.815139556888941
30
0
40
0.7350000000000102
210
-0
220
0
230
1
100
AcDbArc
50
-27.242036769421258
51
199.35166431160755
0
CIRCLE
5
154
100
AcDbEntity
8
0
100
AcDbCircle
10
-49.294353714328665
20
1.2048604431110665
30
0
40
0.87500000000000011
210
0
220
0
230
1
0
ARC
5
155
100
AcDbEntity
8
0
100
AcDbCircle
10
57.663146285671267
20
-32.395139556888935
30
0
40
0.73500000001377486
210
0
220
0
230
1
100
AcDbArc
50
-207.24203677217668
51
19.351664314280441
0
CIRCLE
5
156
100
AcDbEntity
8
0
100
AcDbCircle
10
-21.354353714328695
20
1.2048604431110621
30
0
40
0.87500000000000011
210
0
220
0
230
1
0
CIRCLE
5
157
100
AcDbEntity
8
0
100
AcDbCircle
10
-20.084353714328707
20
3.7448604431110577
30
0
40
0.73499999999999999
210
0
220
0
230
1
0
ARC
5
158
100
AcDbEntity
8
0
100
AcDbCircle
10
48.138146285671283
20
62.854860443111029
30
0
40
0.73500000000210908
210
0
220
0
230
1
100
AcDbArc
50
-207.24203677131766
51
19.351664313035688
0
CIRCLE
5
159
100
AcDbEntity
8
0
100
AcDbCircle
10
59.608146285671296
20
58.354860443111036
30
0
40
0.87500000000000011
210
0
220
0
230
1
0
ARC
5
160
100
AcDbEntity
8
0
100
AcDbCircle
10
-13.774353714328704
20
5.7048604431110501
30
0
40
0.73500000000692567
210
0
220
0
230
1
100
AcDbArc
50
-207.24203677167228
51
19.35166431308199
0
CIRCLE
5
161
100
AcDbEntity
8
0
100
AcDbCircle
10
60.878146285671292
20
60.894860443111028
30
0
40
0.73499999999999999
210
0
220
0
230
1
0
ARC
5
162
100
AcDbEntity
8
0
100
AcDbCircle
10
-32.82435371432868
20
5.704860443111059
30
0
40
0.7350000000069532
210
0
220
0
230
1
100
AcDbArc
50
-207.24203677167037
51
19.351664313083297
0
ARC
5
163
100
AcDbEntity
8
0
100
AcDbCircle
10
-51.834353714328678
20
6.2848604431110573
30
0
40
0.73499999999998467
210
-0
220
0
230
1
100
AcDbArc
50
-27.242036771165882
51
199.35166431234285
0
ARC
5
164
100
AcDbEntity
8
0
100
AcDbCircle
10
48.178146285671289
20
63.434860443111027
30
0
40
0.73499999999999899
210
-0
220
0
230
1
100
AcDbArc
50
-27.242036771234378
51
199.35166431285865
0
ARC
5
165
100
AcDbEntity
8
0
100
AcDbCircle
10
-32.784353714328702
20
6.2848604431110573
30
0
40
0.7350000000000162
210
-0
220
0
230
1
100
AcDbArc
50
-27.242036771164614
51
199.35166431234285
0
ARC
5
166
100
AcDbEntity
8
0
100
AcDbCircle
10
-51.874353714328691
20
5.704860443111059
30
0
40
0.73500000000692145
210
0
220
0
230
1
100
AcDbArc
50
-207.24203677167168
51
19.351664313083297
0
CIRCLE
5
167
100
AcDbEntity
8
0
100
AcDbCircle
10
103.74064628567123
20
60.894860443111014
30
0
40
0.73499999999999999
210
0
220
0
230
1
0
ARC
5
168
100
AcDbEntity
8
0
100
AcDbCircle
10
110.09064628567124
20
63.434860443111006
30
0
40
0.73499999999999399
210
-0
220
0
230
1
100
AcDbArc
50
-27.242036770047754
51
199.35166431190055
0
CIRCLE
5
169
100
AcDbEntity
8
0
100
AcDbCircle
10
-11.82935371432869
20
58.354860443111036
30
0
40
0.87500000000000011
210
0
220
0
230
1
0
CIRCLE
5
170
100
AcDbEntity
8
0
100
AcDbCircle
10
122.79064628567126
20
60.894860443111014
30
0
40
0.73499999999999999
210
0
220
0
230
1
0
ARC
5
171
100
AcDbEntity
8
0
100
AcDbCircle
10
-42.309353714328708
20
63.434860443111027
30
0
40
0.73499999999999899
210
-0
220
0
230
1
100
AcDbArc
50
-27.242036771234378
51
199.35166431285955
0
CIRCLE
5
172
100
AcDbEntity
8
0
100
AcDbCircle
10
112.63064628567122
20
58.354860443111022
30
0
40
0.87500000000000011
210
0
220
0
230
1
0
CIRCLE
5
173
100
AcDbEntity
8
0
100
AcDbCircle
10
131.68064628567126
20
58.354860443111022
30
0
40
0.87500000000000011
210
0
220
0
230
1
0
CIRCLE
5
174
100
AcDbEntity
8
0
100
AcDbCircle
10
102.47064628567124
20
58.354860443111022
30
0
40
0.87500000000000011
210
0
220
0
230
1
0
CIRCLE
5
175
100
AcDbEntity
8
0
100
AcDbCircle
10
-25.799353714328674
20
58.354860443111022
30
0
40
1.9939
210
0
220
0
230
1
0
CIRCLE
5
176
100
AcDbEntity
8
0
100
AcDbCircle
10
-29.609353714328677
20
60.894860443111028
30
0
40
0.73499999999999999
210
0
220
0
230
1
0
CIRCLE
5
177
100
AcDbEntity
8
0
100
AcDbCircle
10
-10.559353714328701
20
60.894860443111028
30
0
40
0.73499999999999999
210
0
220
0
230
1
0
CIRCLE
5
178
100
AcDbEntity
8
0
100
AcDbCircle
10
-20.719353714328683
20
58.354860443111036
30
0
40
0.87500000000000011
210
0
220
0
230
1
0
CIRCLE
5
179
100
AcDbEntity
8
0
100
AcDbCircle
10
-39.769353714328695
20
58.354860443111022
30
0
40
0.87500000000000011
210
0
220
0
230
1
0
CIRCLE
5
180
100
AcDbEntity
8
0
100
AcDbCircle
10
-44.849353714328686
20
58.354860443111022
30
0
40
1.9939
210
0
220
0
230
1
0
CIRCLE
5
181
100
AcDbEntity
8
0
100
AcDbCircle
10
169.78064628567125
20
20.254860443111031
30
0
40
0.87500000000000011
210
0
220
0
230
1
0
CIRCLE
5
182
100
AcDbEntity
8
0
100
AcDbCircle
10
150.73064628567124
20
20.254860443111031
30
0
40
0.87500000000000011
210
0
220
0
230
1
0
CIRCLE
5
183
100
AcDbEntity
8
0
100
AcDbCircle
10
159.6206462856712
20
20.254860443111031
30
0
40
0.87500000000000011
210
0
220
0
230
1
0
ARC
5
184
100
AcDbEntity
8
0
100
AcDbCircle
10
-23.299353714328674
20
62.854860443111029
30
0
40
0.73500000000626231
210
0
220
0
230
1
100
AcDbArc
50
-207.24203677162026
51
19.351664313321681
0
CIRCLE
5
185
100
AcDbEntity
8
0
100
AcDbCircle
10
164.7006462856713
20
20.254860443111031
30
0
40
1.9939
210
0
220
0
230
1
0
CIRCLE
5
186
100
AcDbEntity
8
0
100
AcDbCircle
10
160.89064628567129
20
22.794860443111027
30
0
40
0.73499999999999999
210
0
220
0
230
1
0
ARC
5
187
100
AcDbEntity
8
0
100
AcDbCircle
10
129.10064628567125
20
62.854860443111008
30
0
40
0.73500000001104304
210
0
220
0
230
1
100
AcDbArc
50
-207.24203677197579
51
19.35166431385101
0
ARC
5
188
100
AcDbEntity
8
0
100
AcDbCircle
10
-23.259353714328697
20
63.434860443111027
30
0
40
0.73500000000000743
210
-0
220
0
230
1
100
AcDbArc
50
-27.242036770818412
51
199.35166431241646
0
CIRCLE
5
189
100
AcDbEntity
8
0
100
AcDbCircle
10
-30.879353714328701
20
58.354860443111022
30
0
40
0.87500000000000011
210
0
220
0
230
1
0
ARC
5
190
100
AcDbEntity
8
0
100
AcDbCircle
10
129.14064628567127
20
63.434860443111006
30
0
40
0.73499999999999399
210
-0
220
0
230
1
100
AcDbArc
50
-27.242036770047754
51
199.35166431190089
0
CIRCLE
5
191
100
AcDbEntity
8
0
100
AcDbCircle
10
145.65064628567129
20
20.254860443111031
30
0
40
1.9939
210
0
220
0
230
1
0
CIRCLE
5
192
100
AcDbEntity
8
0
100
AcDbCircle
10
121.52064628567126
20
58.354860443111022
30
0
40
0.87500000000000011
210
0
220
0
230
1
0
CIRCLE
5
193
100
AcDbEntity
8
0
100
AcDbCircle
10
126.60064628567126
20
58.354860443111022
30
0
40
1.9939
210
0
220
0
230
1
0
ARC
5
194
100
AcDbEntity
8
0
100
AcDbCircle
10
-42.349353714328686
20
62.854860443111029
30
0
40
0.73500000000210908
210
0
220
0
230
1
100
AcDbArc
50
-207.24203677131791
51
19.351664313036441
0
CIRCLE
5
195
100
AcDbEntity
8
0
100
AcDbCircle
10
107.55064628567123
20
58.354860443111022
30
0
40
1.9939
210
0
220
0
230
1
0
CIRCLE
5
196
100
AcDbEntity
8
0
100
AcDbCircle
10
-49.929353714328677
20
58.354860443111022
30
0
40
0.87500000000000011
210
0
220
0
230
1
0
ARC
5
197
100
AcDbEntity
8
0
100
AcDbCircle
10
110.05064628567123
20
62.854860443111008
30
0
40
0.73500000001104304
210
0
220
0
230
1
100
AcDbArc
50
-207.24203677197477
51
19.351664313851373
0
CIRCLE
5
198
100
AcDbEntity
8
0
100
AcDbCircle
10
-48.659353714328688
20
60.894860443111028
30
0
40
0.73499999999999999
210
0
220
0
230
1
0
CIRCLE
5
199
100
AcDbEntity
8
0
100
AcDbCircle
10
140.57064628567127
20
20.254860443111031
30
0
40
0.87500000000000011
210
0
220
0
230
1
0
ARC
5
200
100
AcDbEntity
8
0
100
AcDbCircle
10
167.2406462856712
20
25.334860443111022
30
0
40
0.73499999999998844
210
-0
220
0
230
1
100
AcDbArc
50
-27.242036772212614
51
199.35166431407268
0
CIRCLE
5
201
100
AcDbEntity
8
0
100
AcDbCircle
10
-62.946853714328697
20
22.794860443111055
30
0
40
0.73499999999999999
210
0
220
0
230
1
0
ARC
5
202
100
AcDbEntity
8
0
100
AcDbCircle
10
-128.03435371432863
20
-31.815139556888941
30
0
40
0.73499999999996701
210
-0
220
0
230
1
100
AcDbArc
50
-27.242036771023599
51
199.35166431249695
0
ARC
5
203
100
AcDbEntity
8
0
100
AcDbCircle
10
-151.84685371432863
20
-31.81513955688893
30
0
40
0.73499999999999877
210
-0
220
0
230
1
100
AcDbArc
50
-27.242036771022782
51
199.35166431249797
0
CIRCLE
5
204
100
AcDbEntity
8
0
100
AcDbCircle
10
150.73064628567124
20
39.304860443111025
30
0
40
0.87500000000000011
210
0
220
0
230
1
0
CIRCLE
5
205
100
AcDbEntity
8
0
100
AcDbCircle
10
141.84064628567128
20
22.794860443111027
30
0
40
0.73499999999999999
210
0
220
0
230
1
0
ARC
5
206
100
AcDbEntity
8
0
100
AcDbCircle
10
-56.596853714328681
20
25.334860443111047
30
0
40
0.73499999999999854
210
-0
220
0
230
1
100
AcDbArc
50
-27.242036770472115
51
199.35166431234285
0
ARC
5
207
100
AcDbEntity
8
0
100
AcDbCircle
10
-56.636853714328694
20
24.754860443111049
30
0
40
0.73500000000692145
210
0
220
0
230
1
100
AcDbArc
50
-207.24203677167168
51
19.351664313559279
0
ARC
5
208
100
AcDbEntity
8
0
100
AcDbCircle
10
-94.696853714328668
20
25.334860443111047
30
0
40
0.7350000000000344
210
-0
220
0
230
1
100
AcDbArc
50
-27.242036771022018
51
199.35166431249891
0
ARC
5
209
100
AcDbEntity
8
0
100
AcDbCircle
10
-94.736853714328646
20
24.754860443111049
30
0
40
0.73500000000546351
210
0
220
0
230
1
100
AcDbArc
50
-207.24203677156601
51
19.351664313180301
0
ARC
5
210
100
AcDbEntity
8
0
100
AcDbCircle
10
-75.646853714328657
20
25.33486044311104
30
0
40
0.73499999999998877
210
-0
220
0
230
1
100
AcDbArc
50
-27.242036771166749
51
199.351664313079
0
CIRCLE
5
211
100
AcDbEntity
8
0
100
AcDbCircle
10
169.78064628567125
20
39.304860443111025
30
0
40
0.87500000000000011
210
0
220
0
230
1
0
CIRCLE
5
212
100
AcDbEntity
8
0
100
AcDbCircle
10
164.7006462856713
20
39.304860443111025
30
0
40
1.9939
210
0
220
0
230
1
0
ARC
5
213
100
AcDbEntity
8
0
100
AcDbCircle
10
148.19064628567119
20
25.334860443111022
30
0
40
0.73499999999998844
210
-0
220
0
230
1
100
AcDbArc
50
-27.242036772212614
51
199.35166431407268
0
CIRCLE
5
214
100
AcDbEntity
8
0
100
AcDbCircle
10
-59.136853714328694
20
20.254860443111049
30
0
40
1.9939
210
0
220
0
230
1
0
CIRCLE
5
215
100
AcDbEntity
8
0
100
AcDbCircle
10
-78.186853714328663
20
20.254860443111042
30
0
40
1.9939
210
0
220
0
230
1
0
ARC
5
216
100
AcDbEntity
8
0
100
AcDbCircle
10
-128.07435371432862
20
-32.395139556888935
30
0
40
0.73500000000549914
210
0
220
0
230
1
100
AcDbArc
50
-207.2420367715647
51
19.351664313181661
0
CIRCLE
5
217
100
AcDbEntity
8
0
100
AcDbCircle
10
160.89064628567129
20
41.844860443111017
30
0
40
0.73499999999999999
210
0
220
0
230
1
0
ARC
5
218
100
AcDbEntity
8
0
100
AcDbCircle
10
167.2006462856713
20
24.754860443111024
30
0
40
0.7349999999909228
210
0
220
0
230
1
100
AcDbArc
50
-207.24203677047802
51
19.35166431236582
0
ARC
5
219
100
AcDbEntity
8
0
100
AcDbCircle
10
148.15064628567129
20
24.754860443111024
30
0
40
0.7349999999909228
210
0
220
0
230
1
100
AcDbArc
50
-207.24203677047802
51
19.35166431236582
0
ARC
5
220
100
AcDbEntity
8
0
100
AcDbCircle
10
-75.686853714328663
20
24.754860443111042
30
0
40
0.73500000000006405
210
0
220
0
230
1
100
AcDbArc
50
-207.2420367711654
51
19.35166431308301
0
CIRCLE
5
221
100
AcDbEntity
8
0
100
AcDbCircle
10
141.84064628567128
20
41.844860443111017
30
0
40
0.73499999999999999
210
0
220
0
230
1
0
CIRCLE
5
222
100
AcDbEntity
8
0
100
AcDbCircle
10
-82.631853714328685
20
39.304860443111039
30
0
40
0.87500000000000011
210
0
220
0
230
1
0
CIRCLE
5
223
100
AcDbEntity
8
0
100
AcDbCircle
10
-106.44435371432866
20
1.2048604431110621
30
0
40
0.87500000000000011
210
0
220
0
230
1
0
CIRCLE
5
224
100
AcDbEntity
8
0
100
AcDbCircle
10
-87.71185371432864
20
39.304860443111032
30
0
40
1.9939
210
0
220
0
230
1
0
CIRCLE
5
225
100
AcDbEntity
8
0
100
AcDbCircle
10
-130.57435371432865
20
1.2048604431110665
30
0
40
1.9939
210
0
220
0
230
1
0
CIRCLE
5
226
100
AcDbEntity
8
0
100
AcDbCircle
10
-68.6618537143287
20
39.304860443111039
30
0
40
1.9939
210
0
220
0
230
1
0
CIRCLE
5
227
100
AcDbEntity
8
0
100
AcDbCircle
10
-101.04685371432865
20
22.794860443111055
30
0
40
0.73499999999999999
210
0
220
0
230
1
0
CIRCLE
5
228
100
AcDbEntity
8
0
100
AcDbCircle
10
-158.1968537143286
20
-34.355139556888908
30
0
40
0.73499999999999999
210
0
220
0
230
1
0
CIRCLE
5
229
100
AcDbEntity
8
0
100
AcDbCircle
10
-97.236853714328646
20
20.254860443111049
30
0
40
1.9939
210
0
220
0
230
1
0
CIRCLE
5
230
100
AcDbEntity
8
0
100
AcDbCircle
10
-135.65435371432864
20
-36.895139556888935
30
0
40
0.87500000000000011
210
0
220
0
230
1
0
CIRCLE
5
231
100
AcDbEntity
8
0
100
AcDbCircle
10
-73.106853714328679
20
20.254860443111042
30
0
40
0.87500000000000011
210
0
220
0
230
1
0
ARC
5
232
100
AcDbEntity
8
0
100
AcDbCircle
10
167.2406462856712
20
44.384860443111037
30
0
40
0.7350000000000102
210
-0
220
0
230
1
100
AcDbArc
50
-27.242036769421514
51
199.35166431161085
0
CIRCLE
5
233
100
AcDbEntity
8
0
100
AcDbCircle
10
140.57064628567127
20
39.304860443111025
30
0
40
0.87500000000000011
210
0
220
0
230
1
0
CIRCLE
5
234
100
AcDbEntity
8
0
100
AcDbCircle
10
-81.996853714328665
20
22.794860443111045
30
0
40
0.73499999999999999
210
0
220
0
230
1
0
CIRCLE
5
235
100
AcDbEntity
8
0
100
AcDbCircle
10
-102.31685371432867
20
20.254860443111049
30
0
40
0.87500000000000011
210
0
220
0
230
1
0
CIRCLE
5
236
100
AcDbEntity
8
0
100
AcDbCircle
10
-92.156853714328662
20
58.354860443111036
30
0
40
0.87500000000000011
210
0
220
0
230
1
0
CIRCLE
5
237
100
AcDbEntity
8
0
100
AcDbCircle
10
-67.709353714328699
20
60.89486044311105
30
0
40
0.73499999999999999
210
0
220
0
230
1
0
ARC
5
238
100
AcDbEntity
8
0
100
AcDbCircle
10
148.15064628567129
20
43.804860443111025
30
0
40
0.73500000001380239
210
0
220
0
230
1
100
AcDbArc
50
-207.2420367721744
51
19.351664314284243
0
CIRCLE
5
239
100
AcDbEntity
8
0
100
AcDbCircle
10
-64.21685371432865
20
20.254860443111042
30
0
40
0.87500000000000011
210
0
220
0
230
1
0
CIRCLE
5
240
100
AcDbEntity
8
0
100
AcDbCircle
10
159.6206462856712
20
39.304860443111025
30
0
40
0.87500000000000011
210
0
220
0
230
1
0
CIRCLE
5
241
100
AcDbEntity
8
0
100
AcDbCircle
10
-159.46685371432864
20
-36.895139556888921
30
0
40
0.87500000000000011
210
0
220
0
230
1
0
CIRCLE
5
242
100
AcDbEntity
8
0
100
AcDbCircle
10
-97.236853714328646
20
58.354860443111036
30
0
40
1.9939
210
0
220
0
230
1
0
CIRCLE
5
243
100
AcDbEntity
8
0
100
AcDbCircle
10
-130.57435371432862
20
-36.895139556888935
30
0
40
1.9939
210
0
220
0
230
1
0
CIRCLE
5
244
100
AcDbEntity
8
0
100
AcDbCircle
10
150.73064628567124
20
58.354860443111022
30
0
40
0.87500000000000011
210
0
220
0
230
1
0
CIRCLE
5
245
100
AcDbEntity
8
0
100
AcDbCircle
10
-58.81935371432867
20
58.354860443111036
30
0
40
0.87500000000000011
210
0
220
0
230
1
0
CIRCLE
5
246
100
AcDbEntity
8
0
100
AcDbCircle
10
141.84064628567128
20
60.894860443111014
30
0
40
0.73499999999999999
210
0
220
0
230
1
0
ARC
5
247
100
AcDbEntity
8
0
100
AcDbCircle
10
167.2006462856713
20
43.804860443111025
30
0
40
0.73500000001380239
210
0
220
0
230
1
100
AcDbArc
50
-207.2420367721744
51
19.351664314284243
0
CIRCLE
5
248
100
AcDbEntity
8
0
100
AcDbCircle
10
-63.899353714328697
20
58.354860443111036
30
0
40
1.9939
210
0
220
0
230
1
0
ARC
5
249
100
AcDbEntity
8
0
100
AcDbCircle
10
-151.88685371432865
20
-32.395139556888928
30
0
40
0.73500000000546772
210
0
220
0
230
1
100
AcDbArc
50
-207.24203677156672
51
19.35166431318018
0
CIRCLE
5
250
100
AcDbEntity
8
0
100
AcDbCircle
10
-134.38435371432863
20
-34.355139556888915
30
0
40
0.73499999999999999
210
0
220
0
230
1
0
ARC
5
251
100
AcDbEntity
8
0
100
AcDbCircle
10
148.19064628567119
20
44.384860443111016
30
0
40
0.7350000000000021
210
-0
220
0
230
1
100
AcDbArc
50
-27.242036769420036
51
199.35166431160931
0
CIRCLE
5
252
100
AcDbEntity
8
0
100
AcDbCircle
10
-154.38685371432865
20
-36.895139556888921
30
0
40
1.9939
210
0
220
0
230
1
0
CIRCLE
5
253
100
AcDbEntity
8
0
100
AcDbCircle
10
-125.49435371432864
20
-36.895139556888935
30
0
40
0.87500000000000011
210
0
220
0
230
1
0
CIRCLE
5
254
100
AcDbEntity
8
0
100
AcDbCircle
10
-68.979353714328653
20
58.354860443111036
30
0
40
0.87500000000000011
210
0
220
0
230
1
0
CIRCLE
5
255
100
AcDbEntity
8
0
100
AcDbCircle
10
140.57064628567127
20
58.354860443111022
30
0
40
0.87500000000000011
210
0
220
0
230
1
0
CIRCLE
5
256
100
AcDbEntity
8
0
100
AcDbCircle
10
-83.266853714328661
20
20.254860443111042
30
0
40
0.87500000000000011
210
0
220
0
230
1
0
CIRCLE
5
257
100
AcDbEntity
8
0
100
AcDbCircle
10
145.65064628567129
20
39.304860443111025
30
0
40
1.9939
210
0
220
0
230
1
0
CIRCLE
5
258
100
AcDbEntity
8
0
100
AcDbCircle
10
-102.31685371432867
20
58.354860443111036
30
0
40
0.87500000000000011
210
0
220
0
230
1
0
CIRCLE
5
259
100
AcDbEntity
8
0
100
AcDbCircle
10
-92.156853714328662
20
20.254860443111042
30
0
40
0.87500000000000011
210
0
220
0
230
1
0
CIRCLE
5
260
100
AcDbEntity
8
0
100
AcDbCircle
10
-149.30685371432861
20
-36.895139556888921
30
0
40
0.87500000000000011
210
0
220
0
230
1
0
CIRCLE
5
261
100
AcDbEntity
8
0
100
AcDbCircle
10
-101.04685371432865
20
60.894860443111028
30
0
40
0.73499999999999999
210
0
220
0
230
1
0
CIRCLE
5
262
100
AcDbEntity
8
0
100
AcDbCircle
10
-63.581853714328673
20
39.304860443111039
30
0
40
0.87500000000000011
210
0
220
0
230
1
0
CIRCLE
5
263
100
AcDbEntity
8
0
100
AcDbCircle
10
145.65064628567129
20
58.354860443111022
30
0
40
1.9939
210
0
220
0
230
1
0
ARC
5
264
100
AcDbEntity
8
0
100
AcDbCircle
10
148.15064628567129
20
62.854860443111008
30
0
40
0.7349999999909228
210
0
220
0
230
1
100
AcDbArc
50
-207.24203677047825
51
19.351664312223633
0
CIRCLE
5
265
100
AcDbEntity
8
0
100
AcDbCircle
10
-91.521853714328643
20
41.844860443111038
30
0
40
0.73499999999999999
210
0
220
0
230
1
0
CIRCLE
5
266
100
AcDbEntity
8
0
100
AcDbCircle
10
-115.96935371432863
20
-17.845139556888938
30
0
40
0.87500000000000011
210
0
220
0
230
1
0
ARC
5
267
100
AcDbEntity
8
0
100
AcDbCircle
10
148.19064628567119
20
63.434860443111006
30
0
40
0.73499999999999588
210
-0
220
0
230
1
100
AcDbArc
50
-27.24203677241999
51
199.35166431407242
0
CIRCLE
5
268
100
AcDbEntity
8
0
100
AcDbCircle
10
-107.07935371432868
20
-17.845139556888938
30
0
40
0.87500000000000011
210
0
220
0
230
1
0
ARC
5
269
100
AcDbEntity
8
0
100
AcDbCircle
10
-94.736853714328646
20
62.85486044311105
30
0
40
0.73499999999932841
210
0
220
0
230
1
100
AcDbArc
50
-207.24203677110862
51
19.351664313037418
0
ARC
5
270
100
AcDbEntity
8
0
100
AcDbCircle
10
-66.1618537143287
20
43.804860443111046
30
0
40
0.73500000000688581
210
0
220
0
230
1
100
AcDbArc
50
-207.24203677167196
51
19.351664313557571
0
ARC
5
271
100
AcDbEntity
8
0
100
AcDbCircle
10
-66.121853714328651
20
44.384860443111052
30
0
40
0.73500000000000676
210
-0
220
0
230
1
100
AcDbArc
50
-27.242036770473337
51
199.35166431234441
0
CIRCLE
5
272
100
AcDbEntity
8
0
100
AcDbCircle
10
-73.741853714328656
20
39.304860443111039
30
0
40
0.87500000000000011
210
0
220
0
230
1
0
CIRCLE
5
273
100
AcDbEntity
8
0
100
AcDbCircle
10
-72.471853714328702
20
41.844860443111038
30
0
40
0.73499999999999999
210
0
220
0
230
1
0
CIRCLE
5
274
100
AcDbEntity
8
0
100
AcDbCircle
10
-121.04935371432866
20
-17.845139556888935
30
0
40
1.9939
210
0
220
0
230
1
0
CIRCLE
5
275
100
AcDbEntity
8
0
100
AcDbCircle
10
-105.80935371432865
20
-15.305139556888927
30
0
40
0.73499999999999999
210
0
220
0
230
1
0
CIRCLE
5
276
100
AcDbEntity
8
0
100
AcDbCircle
10
-124.85935371432866
20
-15.305139556888923
30
0
40
0.73499999999999999
210
0
220
0
230
1
0
ARC
5
277
100
AcDbEntity
8
0
100
AcDbCircle
10
-61.399353714328697
20
62.85486044311105
30
0
40
0.73500000000207744
210
0
220
0
230
1
100
AcDbArc
50
-207.24203677131916
51
19.351664313033019
0
CIRCLE
5
278
100
AcDbEntity
8
0
100
AcDbCircle
10
-126.12935371432866
20
-17.845139556888935
30
0
40
0.87500000000000011
210
0
220
0
230
1
0
ARC
5
279
100
AcDbEntity
8
0
100
AcDbCircle
10
-61.359353714328648
20
63.434860443111049
30
0
40
0.7350000000000072
210
-0
220
0
230
1
100
AcDbArc
50
-27.242036771235856
51
199.35166431285865
0
ARC
5
280
100
AcDbEntity
8
0
100
AcDbCircle
10
-94.696853714328668
20
63.434860443111049
30
0
40
0.73500000000001442
210
-0
220
0
230
1
100
AcDbArc
50
-27.242036771230868
51
199.35166431316077
0
ARC
5
281
100
AcDbEntity
8
0
100
AcDbCircle
10
-85.21185371432864
20
43.804860443111039
30
0
40
0.73500000000573618
210
0
220
0
230
1
100
AcDbArc
50
-207.24203677158283
51
19.351664313706671
0
CIRCLE
5
282
100
AcDbEntity
8
0
100
AcDbCircle
10
-111.52435371432865
20
1.2048604431110665
30
0
40
1.9939
210
0
220
0
230
1
0
CIRCLE
5
283
100
AcDbEntity
8
0
100
AcDbCircle
10
-116.60435371432865
20
1.2048604431110665
30
0
40
0.87500000000000011
210
0
220
0
230
1
0
ARC
5
284
100
AcDbEntity
8
0
100
AcDbCircle
10
-85.171853714328662
20
44.384860443111052
30
0
40
0.73500000000002585
210
-0
220
0
230
1
100
AcDbArc
50
-27.242036770258277
51
199.35166431247302
0
CIRCLE
5
285
100
AcDbEntity
8
0
100
AcDbCircle
10
-92.791853714328667
20
39.304860443111039
30
0
40
0.87500000000000011
210
0
220
0
230
1
0
CIRCLE
5
286
100
AcDbEntity
8
0
100
AcDbCircle
10
-101.68185371432867
20
39.304860443111039
30
0
40
0.87500000000000011
210
0
220
0
230
1
0
CIRCLE
5
287
100
AcDbEntity
8
0
100
AcDbCircle
10
78.658146285671307
20
58.354860443111036
30
0
40
0.87500000000000011
210
0
220
0
230
1
0
CIRCLE
5
288
100
AcDbEntity
8
0
100
AcDbCircle
10
75.165646285671272
20
-34.355139556888929
30
0
40
0.73499999999999999
210
0
220
0
230
1
0
CIRCLE
5
289
100
AcDbEntity
8
0
100
AcDbCircle
10
79.928146285671303
20
60.894860443111028
30
0
40
0.73499999999999999
210
0
220
0
230
1
0
ARC
5
290
100
AcDbEntity
8
0
100
AcDbCircle
10
81.515646285671295
20
-31.815139556888951
30
0
40
0.73500000000000465
210
-0
220
0
230
1
100
AcDbArc
50
-27.242036772215364
51
199.35166431407313
0
ARC
5
291
100
AcDbEntity
8
0
100
AcDbCircle
10
81.475646285671274
20
-32.39513955688895
30
0
40
0.73499999999079635
210
0
220
0
230
1
100
AcDbArc
50
-207.24203677048331
51
19.35166431236091
0
CIRCLE
5
292
100
AcDbEntity
8
0
100
AcDbCircle
10
-39.134353714328682
20
3.7448604431110621
30
0
40
0.73499999999999999
210
0
220
0
230
1
0
CIRCLE
5
293
100
AcDbEntity
8
0
100
AcDbCircle
10
60.243146285671294
20
-36.895139556888935
30
0
40
0.87500000000000011
210
0
220
0
230
1
0
CIRCLE
5
294
100
AcDbEntity
8
0
100
AcDbCircle
10
50.083146285671276
20
-36.895139556888935
30
0
40
0.87500000000000011
210
0
220
0
230
1
0
CIRCLE
5
295
100
AcDbEntity
8
0
100
AcDbCircle
10
-30.244353714328689
20
1.2048604431110621
30
0
40
0.87500000000000011
210
0
220
0
230
1
0
CIRCLE
5
296
100
AcDbEntity
8
0
100
AcDbCircle
10
-40.404353714328707
20
1.2048604431110665
30
0
40
0.87500000000000011
210
0
220
0
230
1
0
CIRCLE
5
297
100
AcDbEntity
8
0
100
AcDbCircle
10
51.353146285671265
20
-34.355139556888915
30
0
40
0.73499999999999999
210
0
220
0
230
1
0
CIRCLE
5
298
100
AcDbEntity
8
0
100
AcDbCircle
10
78.975646285671274
20
-36.895139556888942
30
0
40
1.9939
210
0
220
0
230
1
0
CIRCLE
5
299
100
AcDbEntity
8
0
100
AcDbCircle
10
73.89564628567129
20
-36.895139556888942
30
0
40
0.87500000000000011
210
0
220
0
230
1
0
CIRCLE
5
300
100
AcDbEntity
8
0
100
AcDbCircle
10
-35.32435371432868
20
1.2048604431110621
30
0
40
1.9939
210
0
220
0
230
1
0
CIRCLE
5
301
100
AcDbEntity
8
0
100
AcDbCircle
10
55.163146285671267
20
-36.895139556888935
30
0
40
1.9939
210
0
220
0
230
1
0
CIRCLE
5
302
100
AcDbEntity
8
0
100
AcDbCircle
10
150.73064628567124
20
-36.89513955688895
30
0
40
0.87500000000000011
210
0
220
0
230
1
0
CIRCLE
5
303
100
AcDbEntity
8
0
100
AcDbCircle
10
150.73064628567124
20
-17.845139556888952
30
0
40
0.87500000000000011
210
0
220
0
230
1
0
CIRCLE
5
304
100
AcDbEntity
8
0
100
AcDbCircle
10
84.055646285671273
20
-36.895139556888942
30
0
40
0.87500000000000011
210
0
220
0
230
1
0
CIRCLE
5
305
100
AcDbEntity
8
0
100
AcDbCircle
10
83.738146285671291
20
58.354860443111036
30
0
40
1.9939
210
0
220
0
230
1
0
CIRCLE
5
306
100
AcDbEntity
8
0
100
AcDbCircle
10
69.768146285671278
20
58.354860443111036
30
0
40
0.87500000000000011
210
0
220
0
230
1
0
CIRCLE
5
307
100
AcDbEntity
8
0
100
AcDbCircle
10
141.84064628567128
20
-15.305139556888935
30
0
40
0.73499999999999999
210
0
220
0
230
1
0
ARC
5
308
100
AcDbEntity
8
0
100
AcDbCircle
10
67.188146285671294
20
62.854860443111029
30
0
40
0.73499999999080456
210
0
220
0
230
1
100
AcDbArc
50
-207.24203677048376
51
19.351664312218141
0
CIRCLE
5
309
100
AcDbEntity
8
0
100
AcDbCircle
10
88.818146285671247
20
58.354860443111022
30
0
40
0.87500000000000011
210
0
220
0
230
1
0
CIRCLE
5
310
100
AcDbEntity
8
0
100
AcDbCircle
10
145.65064628567129
20
-17.845139556888952
30
0
40
1.9939
210
0
220
0
230
1
0
CIRCLE
5
311
100
AcDbEntity
8
0
100
AcDbCircle
10
64.688146285671294
20
58.354860443111036
30
0
40
1.9939
210
0
220
0
230
1
0
CIRCLE
5
312
100
AcDbEntity
8
0
100
AcDbCircle
10
145.65064628567129
20
-36.89513955688895
30
0
40
1.9939
210
0
220
0
230
1
0
CIRCLE
5
313
100
AcDbEntity
8
0
100
AcDbCircle
10
141.84064628567128
20
-34.355139556888929
30
0
40
0.73499999999999999
210
0
220
0
230
1
0
CIRCLE
5
314
100
AcDbEntity
8
0
100
AcDbCircle
10
140.57064628567127
20
-17.845139556888952
30
0
40
0.87500000000000011
210
0
220
0
230
1
0
CIRCLE
5
315
100
AcDbEntity
8
0
100
AcDbCircle
10
-77.234353714328677
20
3.7448604431110666
30
0
40
0.73499999999999999
210
0
220
0
230
1
0
ARC
5
316
100
AcDbEntity
8
0
100
AcDbCircle
10
29.128146285671317
20
63.434860443111027
30
0
40
0.73499999999998888
210
-0
220
0
230
1
100
AcDbArc
50
-27.242036772424669
51
199.35166431407191
0
ARC
5
317
100
AcDbEntity
8
0
100
AcDbCircle
10
29.088146285671304
20
43.804860443111039
30
0
40
0.73500000000692967
210
0
220
0
230
1
100
AcDbArc
50
-207.24203677167264
51
19.351664313082395
0
CIRCLE
5
318
100
AcDbEntity
8
0
100
AcDbCircle
10
-25.481853714328722
20
39.304860443111039
30
0
40
0.87500000000000011
210
0
220
0
230
1
0
ARC
5
319
100
AcDbEntity
8
0
100
AcDbCircle
10
148.19064628567119
20
6.2848604431110395
30
0
40
0.73499999999999244
210
-0
220
0
230
1
100
AcDbArc
50
-27.242036772213279
51
199.35166431407328
0
CIRCLE
5
320
100
AcDbEntity
8
0
100
AcDbCircle
10
-30.561853714328677
20
39.304860443111039
30
0
40
1.9939
210
0
220
0
230
1
0
ARC
5
321
100
AcDbEntity
8
0
100
AcDbCircle
10
148.15064628567129
20
5.7048604431110412
30
0
40
0.73499999999091858
210
0
220
0
230
1
100
AcDbArc
50
-207.24203677047737
51
19.351664312365166
0
ARC
5
322
100
AcDbEntity
8
0
100
AcDbCircle
10
167.2406462856712
20
6.2848604431110395
30
0
40
0.73499999999999244
210
-0
220
0
230
1
100
AcDbArc
50
-27.242036772213279
51
199.35166431407328
0
ARC
5
323
100
AcDbEntity
8
0
100
AcDbCircle
10
29.128146285671317
20
44.384860443111037
30
0
40
0.73499999999998877
210
-0
220
0
230
1
100
AcDbArc
50
-27.242036771166749
51
199.35166431234182
0
ARC
5
324
100
AcDbEntity
8
0
100
AcDbCircle
10
167.2006462856713
20
5.7048604431110412
30
0
40
0.73499999999091858
210
0
220
0
230
1
100
AcDbArc
50
-207.24203677047737
51
19.351664312365166
0
CIRCLE
5
325
100
AcDbEntity
8
0
100
AcDbCircle
10
-15.321853714328704
20
41.844860443111031
30
0
40
0.73499999999999999
210
0
220
0
230
1
0
ARC
5
326
100
AcDbEntity
8
0
100
AcDbCircle
10
29.088146285671304
20
62.854860443111029
30
0
40
0.73499999999080456
210
0
220
0
230
1
100
AcDbArc
50
-207.24203677048376
51
19.351664312218141
0
CIRCLE
5
327
100
AcDbEntity
8
0
100
AcDbCircle
10
-16.591853714328693
20
39.304860443111032
30
0
40
0.87500000000000011
210
0
220
0
230
1
0
CIRCLE
5
328
100
AcDbEntity
8
0
100
AcDbCircle
10
145.65064628567129
20
1.2048604431110488
30
0
40
1.9939
210
0
220
0
230
1
0
CIRCLE
5
329
100
AcDbEntity
8
0
100
AcDbCircle
10
-88.029353714328664
20
-17.845139556888931
30
0
40
0.87500000000000011
210
0
220
0
230
1
0
ARC
5
330
100
AcDbEntity
8
0
100
AcDbCircle
10
19.603146285671293
20
25.33486044311104
30
0
40
0.73499999999999077
210
-0
220
0
230
1
100
AcDbArc
50
-27.242036769424264
51
199.35166431160627
0
ARC
5
331
100
AcDbEntity
8
0
100
AcDbCircle
10
33.890646285671266
20
-12.765139556888945
30
0
40
0.73500000000000809
210
-0
220
0
230
1
100
AcDbArc
50
-27.242036769420906
51
199.35166431160627
0
CIRCLE
5
332
100
AcDbEntity
8
0
100
AcDbCircle
10
-96.919353714328651
20
-17.845139556888931
30
0
40
0.87500000000000011
210
0
220
0
230
1
0
CIRCLE
5
333
100
AcDbEntity
8
0
100
AcDbCircle
10
-82.94935371432868
20
-17.845139556888935
30
0
40
1.9939
210
0
220
0
230
1
0
ARC
5
334
100
AcDbEntity
8
0
100
AcDbCircle
10
38.653146285671305
20
25.33486044311104
30
0
40
0.73499999999998877
210
-0
220
0
230
1
100
AcDbArc
50
-27.242036771166493
51
199.3516643123416
0
ARC
5
335
100
AcDbEntity
8
0
100
AcDbCircle
10
38.613146285671256
20
24.754860443111042
30
0
40
0.73500000000689802
210
0
220
0
230
1
100
AcDbArc
50
-207.24203677167412
51
19.351664313081724
0
CIRCLE
5
336
100
AcDbEntity
8
0
100
AcDbCircle
10
-86.75935371432864
20
-15.305139556888918
30
0
40
0.73499999999999999
210
0
220
0
230
1
0
CIRCLE
5
337
100
AcDbEntity
8
0
100
AcDbCircle
10
22.143146285671271
20
20.254860443111049
30
0
40
0.87500000000000011
210
0
220
0
230
1
0
CIRCLE
5
338
100
AcDbEntity
8
0
100
AcDbCircle
10
41.193146285671283
20
20.254860443111049
30
0
40
0.87500000000000011
210
0
220
0
230
1
0
ARC
5
339
100
AcDbEntity
8
0
100
AcDbCircle
10
24.325646285671283
20
5.7048604431110501
30
0
40
0.7350000000069572
210
0
220
0
230
1
100
AcDbArc
50
-207.24203677167102
51
19.351664313082914
0
CIRCLE
5
340
100
AcDbEntity
8
0
100
AcDbCircle
10
-101.99935371432865
20
-17.845139556888931
30
0
40
1.9939
210
0
220
0
230
1
0
CIRCLE
5
341
100
AcDbEntity
8
0
100
AcDbCircle
10
17.06314628567128
20
20.254860443111049
30
0
40
1.9939
210
0
220
0
230
1
0
ARC
5
342
100
AcDbEntity
8
0
100
AcDbCircle
10
19.56314628567128
20
24.754860443111042
30
0
40
0.73500000001378307
210
0
220
0
230
1
100
AcDbArc
50
-207.24203677217815
51
19.351664314279805
0
ARC
5
343
100
AcDbEntity
8
0
100
AcDbCircle
10
24.365646285671261
20
6.2848604431110484
30
0
40
0.73499999999999277
210
-0
220
0
230
1
100
AcDbArc
50
-27.242036771167104
51
199.35166431234225
0
ARC
5
344
100
AcDbEntity
8
0
100
AcDbCircle
10
33.850646285671289
20
-13.345139556888943
30
0
40
0.7350000000138146
210
0
220
0
230
1
100
AcDbArc
50
-207.24203677217685
51
19.351664314282015
0
ARC
5
345
100
AcDbEntity
8
0
100
AcDbCircle
10
-89.934353714328665
20
6.2848604431110573
30
0
40
0.73500000000001775
210
-0
220
0
230
1
100
AcDbArc
50
-27.242036770257311
51
199.35166431247188
0
CIRCLE
5
346
100
AcDbEntity
8
0
100
AcDbCircle
10
-73.424353714328703
20
1.2048604431110665
30
0
40
1.9939
210
0
220
0
230
1
0
CIRCLE
5
347
100
AcDbEntity
8
0
100
AcDbCircle
10
26.588146285671304
20
39.304860443111032
30
0
40
1.9939
210
0
220
0
230
1
0
ARC
5
348
100
AcDbEntity
8
0
100
AcDbCircle
10
-70.924353714328703
20
5.704860443111059
30
0
40
0.73500000000688581
210
0
220
0
230
1
100
AcDbArc
50
-207.24203677167228
51
19.35166431308155
0
CIRCLE
5
349
100
AcDbEntity
8
0
100
AcDbCircle
10
-2.3043537143286841
20
1.2048604431110621
30
0
40
0.87500000000000011
210
0
220
0
230
1
0
ARC
5
350
100
AcDbEntity
8
0
100
AcDbCircle
10
-89.974353714328643
20
5.704860443111059
30
0
40
0.73500000000573618
210
0
220
0
230
1
100
AcDbArc
50
-207.24203677158297
51
19.351664313706671
0
CIRCLE
5
351
100
AcDbEntity
8
0
100
AcDbCircle
10
2.7756462856713071
20
1.2048604431110577
30
0
40
1.9939
210
0
220
0
230
1
0
CIRCLE
5
352
100
AcDbEntity
8
0
100
AcDbCircle
10
8.4906462856713105
20
-15.305139556888932
30
0
40
0.73499999999999999
210
0
220
0
230
1
0
ARC
5
353
100
AcDbEntity
8
0
100
AcDbCircle
10
-70.884353714328654
20
6.2848604431110573
30
0
40
0.73499999999998877
210
-0
220
0
230
1
100
AcDbArc
50
-27.242036771166241
51
199.35166431234356
0
CIRCLE
5
354
100
AcDbEntity
8
0
100
AcDbCircle
10
22.778146285671301
20
60.894860443111028
30
0
40
0.73499999999999999
210
0
220
0
230
1
0
CIRCLE
5
355
100
AcDbEntity
8
0
100
AcDbCircle
10
-1.6693537143287074
20
-17.845139556888942
30
0
40
0.87500000000000011
210
0
220
0
230
1
0
CIRCLE
5
356
100
AcDbEntity
8
0
100
AcDbCircle
10
40.558146285671327
20
58.354860443111036
30
0
40
0.87500000000000011
210
0
220
0
230
1
0
CIRCLE
5
357
100
AcDbEntity
8
0
100
AcDbCircle
10
-78.504353714328658
20
1.204860443111071
30
0
40
0.87500000000000011
210
0
220
0
230
1
0
CIRCLE
5
358
100
AcDbEntity
8
0
100
AcDbCircle
10
31.668146285671295
20
58.354860443111036
30
0
40
0.87500000000000011
210
0
220
0
230
1
0
CIRCLE
5
359
100
AcDbEntity
8
0
100
AcDbCircle
10
-6.7493537143286986
20
-17.845139556888942
30
0
40
1.9939
210
0
220
0
230
1
0
CIRCLE
5
360
100
AcDbEntity
8
0
100
AcDbCircle
10
-58.184353714328694
20
3.7448604431110621
30
0
40
0.73499999999999999
210
0
220
0
230
1
0
CIRCLE
5
361
100
AcDbEntity
8
0
100
AcDbCircle
10
7.8556462856712983
20
1.2048604431110577
30
0
40
0.87500000000000011
210
0
220
0
230
1
0
CIRCLE
5
362
100
AcDbEntity
8
0
100
AcDbCircle
10
-1.0343537143286952
20
3.7448604431110533
30
0
40
0.73499999999999999
210
0
220
0
230
1
0
CIRCLE
5
363
100
AcDbEntity
8
0
100
AcDbCircle
10
26.588146285671304
20
58.354860443111036
30
0
40
1.9939
210
0
220
0
230
1
0
CIRCLE
5
364
100
AcDbEntity
8
0
100
AcDbCircle
10
21.508146285671312
20
58.354860443111036
30
0
40
0.87500000000000011
210
0
220
0
230
1
0
CIRCLE
5
365
100
AcDbEntity
8
0
100
AcDbCircle
10
12.300646285671313
20
-17.845139556888945
30
0
40
1.9939
210
0
220
0
230
1
0
CIRCLE
5
366
100
AcDbEntity
8
0
100
AcDbCircle
10
-59.454353714328683
20
1.2048604431110665
30
0
40
0.87500000000000011
210
0
220
0
230
1
0
CIRCLE
5
367
100
AcDbEntity
8
0
100
AcDbCircle
10
41.828146285671281
20
60.894860443111028
30
0
40
0.73499999999999999
210
0
220
0
230
1
0
CIRCLE
5
368
100
AcDbEntity
8
0
100
AcDbCircle
10
7.2206462856713216
20
-17.845139556888945
30
0
40
0.87500000000000011
210
0
220
0
230
1
0
CIRCLE
5
369
100
AcDbEntity
8
0
100
AcDbCircle
10
41.828146285671281
20
41.844860443111038
30
0
40
0.73499999999999999
210
0
220
0
230
1
0
ARC
5
370
100
AcDbEntity
8
0
100
AcDbCircle
10
5.2756462856713071
20
5.7048604431110501
30
0
40
0.73500000001378307
210
0
220
0
230
1
100
AcDbArc
50
-207.24203677217815
51
19.35166431428134
0
ARC
5
371
100
AcDbEntity
8
0
100
AcDbCircle
10
5.3156462856713205
20
6.2848604431110484
30
0
40
0.73500000000000609
210
-0
220
0
230
1
100
AcDbArc
50
-27.242036769420647
51
199.35166431160627
0
CIRCLE
5
372
100
AcDbEntity
8
0
100
AcDbCircle
10
-96.284353714328645
20
3.7448604431110666
30
0
40
0.73499999999999999
210
0
220
0
230
1
0
CIRCLE
5
373
100
AcDbEntity
8
0
100
AcDbCircle
10
-68.344353714328676
20
1.2048604431110665
30
0
40
0.87500000000000011
210
0
220
0
230
1
0
CIRCLE
5
374
100
AcDbEntity
8
0
100
AcDbCircle
10
40.558146285671327
20
39.304860443111039
30
0
40
0.87500000000000011
210
0
220
0
230
1
0
CIRCLE
5
375
100
AcDbEntity
8
0
100
AcDbCircle
10
-97.55435371432867
20
1.204860443111071
30
0
40
0.87500000000000011
210
0
220
0
230
1
0
CIRCLE
5
376
100
AcDbEntity
8
0
100
AcDbCircle
10
-92.474353714328643
20
1.204860443111071
30
0
40
1.9939
210
0
220
0
230
1
0
ARC
5
377
100
AcDbEntity
8
0
100
AcDbCircle
10
-4.2093537143286852
20
-12.76513955688894
30
0
40
0.73500000000000465
210
-0
220
0
230
1
100
AcDbArc
50
-27.24203677221562
51
199.3516643140706
0
ARC
5
378
100
AcDbEntity
8
0
100
AcDbCircle
10
14.840646285671326
20
-12.765139556888945
30
0
40
0.73499999999999666
210
-0
220
0
230
1
100
AcDbArc
50
-27.242036772214348
51
199.35166431407217
0
CIRCLE
5
379
100
AcDbEntity
8
0
100
AcDbCircle
10
21.508146285671312
20
39.304860443111032
30
0
40
0.87500000000000011
210
0
220
0
230
1
0
ARC
5
380
100
AcDbEntity
8
0
100
AcDbCircle
10
14.800646285671313
20
-13.345139556888943
30
0
40
0.73499999999077692
210
0
220
0
230
1
100
AcDbArc
50
-207.24203677048567
51
19.351664312362136
0
CIRCLE
5
381
100
AcDbEntity
8
0
100
AcDbCircle
10
31.668146285671295
20
39.304860443111032
30
0
40
0.87500000000000011
210
0
220
0
230
1
0
CIRCLE
5
382
100
AcDbEntity
8
0
100
AcDbCircle
10
22.778146285671301
20
41.844860443111038
30
0
40
0.73499999999999999
210
0
220
0
230
1
0
CIRCLE
5
383
100
AcDbEntity
8
0
100
AcDbCircle
10
-87.394353714328687
20
1.204860443111071
30
0
40
0.87500000000000011
210
0
220
0
230
1
0
ARC
5
384
100
AcDbEntity
8
0
100
AcDbCircle
10
-4.2493537143286986
20
-13.345139556888938
30
0
40
0.73499999999081256
210
0
220
0
230
1
100
AcDbArc
50
-207.24203677048504
51
19.351664312360828
0
CIRCLE
5
385
100
AcDbEntity
8
0
100
AcDbCircle
10
164.7006462856713
20
58.354860443111022
30
0
40
1.9939
210
0
220
0
230
1
0
CIRCLE
5
386
100
AcDbEntity
8
0
100
AcDbCircle
10
-144.54435371432865
20
1.2048604431110665
30
0
40
0.87500000000000011
210
0
220
0
230
1
0
CIRCLE
5
387
100
AcDbEntity
8
0
100
AcDbCircle
10
159.62064628567123
20
58.354860443111022
30
0
40
0.87500000000000011
210
0
220
0
230
1
0
CIRCLE
5
388
100
AcDbEntity
8
0
100
AcDbCircle
10
-140.09935371432863
20
-17.845139556888935
30
0
40
1.9939
210
0
220
0
230
1
0
CIRCLE
5
389
100
AcDbEntity
8
0
100
AcDbCircle
10
-125.49435371432864
20
1.2048604431110665
30
0
40
0.87500000000000011
210
0
220
0
230
1
0
ARC
5
390
100
AcDbEntity
8
0
100
AcDbCircle
10
-108.98435371432865
20
6.2848604431110573
30
0
40
0.73499999999999877
210
-0
220
0
230
1
100
AcDbArc
50
-27.24203677102253
51
199.35166431249831
0
ARC
5
391
100
AcDbEntity
8
0
100
AcDbCircle
10
-128.07435371432865
20
5.704860443111059
30
0
40
0.73500000000546351
210
0
220
0
230
1
100
AcDbArc
50
-207.24203677156535
51
19.351664313181178
0
ARC
5
392
100
AcDbEntity
8
0
100
AcDbCircle
10
-128.03435371432866
20
6.2848604431110573
30
0
40
0.73499999999999877
210
-0
220
0
230
1
100
AcDbArc
50
-27.24203677102253
51
199.35166431249831
0
ARC
5
393
100
AcDbEntity
8
0
100
AcDbCircle
10
-118.50935371432865
20
-12.765139556888936
30
0
40
0.73499999999999877
210
-0
220
0
230
1
100
AcDbArc
50
-27.24203677102253
51
199.35166431249766
0
ARC
5
394
100
AcDbEntity
8
0
100
AcDbCircle
10
167.2406462856712
20
63.434860443111006
30
0
40
0.73499999999997778
210
-0
220
0
230
1
100
AcDbArc
50
-27.24203677004531
51
199.35166431190046
0
ARC
5
395
100
AcDbEntity
8
0
100
AcDbCircle
10
167.2006462856713
20
62.854860443111008
30
0
40
0.73500000001116128
210
0
220
0
230
1
100
AcDbArc
50
-207.24203677196874
51
19.351664313856556
0
CIRCLE
5
396
100
AcDbEntity
8
0
100
AcDbCircle
10
169.78064628567125
20
58.354860443111022
30
0
40
0.87500000000000011
210
0
220
0
230
1
0
CIRCLE
5
397
100
AcDbEntity
8
0
100
AcDbCircle
10
-115.33435371432866
20
3.7448604431110621
30
0
40
0.73499999999999999
210
0
220
0
230
1
0
ARC
5
398
100
AcDbEntity
8
0
100
AcDbCircle
10
-109.02435371432865
20
5.704860443111059
30
0
40
0.73500000000546351
210
0
220
0
230
1
100
AcDbArc
50
-207.24203677156586
51
19.351664313180816
0
ARC
5
399
100
AcDbEntity
8
0
100
AcDbCircle
10
-118.54935371432866
20
-13.345139556888935
30
0
40
0.73500000000546772
210
0
220
0
230
1
100
AcDbArc
50
-207.24203677156649
51
19.351664313180816
0
CIRCLE
5
400
100
AcDbEntity
8
0
100
AcDbCircle
10
160.89064628567129
20
60.894860443111014
30
0
40
0.73499999999999999
210
0
220
0
230
1
0
CIRCLE
5
401
100
AcDbEntity
8
0
100
AcDbCircle
10
-154.70435371432865
20
1.204860443111071
30
0
40
0.87500000000000011
210
0
220
0
230
1
0
CIRCLE
5
402
100
AcDbEntity
8
0
100
AcDbCircle
10
-135.65435371432866
20
1.2048604431110665
30
0
40
0.87500000000000011
210
0
220
0
230
1
0
ARC
5
403
100
AcDbEntity
8
0
100
AcDbCircle
10
-137.55935371432861
20
-12.765139556888936
30
0
40
0.73499999999996457
210
-0
220
0
230
1
100
AcDbArc
50
-27.242036771060036
51
199.35166431325797
0
CIRCLE
5
404
100
AcDbEntity
8
0
100
AcDbCircle
10
-116.28685371432866
20
20.254860443111049
30
0
40
1.9939
210
0
220
0
230
1
0
CIRCLE
5
405
100
AcDbEntity
8
0
100
AcDbCircle
10
-121.36685371432864
20
20.254860443111049
30
0
40
0.87500000000000011
210
0
220
0
230
1
0
ARC
5
406
100
AcDbEntity
8
0
100
AcDbCircle
10
-123.27185371432864
20
44.384860443111037
30
0
40
0.73499999999999466
210
-0
220
0
230
1
100
AcDbArc
50
-27.242036771022832
51
199.35166431249758
0
ARC
5
407
100
AcDbEntity
8
0
100
AcDbCircle
10
-137.59935371432863
20
-13.345139556888935
30
0
40
0.73499999999840471
210
0
220
0
230
1
100
AcDbArc
50
-207.2420367710416
51
19.351664313157009
0
CIRCLE
5
408
100
AcDbEntity
8
0
100
AcDbCircle
10
-110.57185371432865
20
41.844860443111045
30
0
40
0.73499999999999999
210
0
220
0
230
1
0
CIRCLE
5
409
100
AcDbEntity
8
0
100
AcDbCircle
10
-153.43435371432864
20
3.7448604431110666
30
0
40
0.73499999999999999
210
0
220
0
230
1
0
ARC
5
410
100
AcDbEntity
8
0
100
AcDbCircle
10
-123.31185371432866
20
43.804860443111046
30
0
40
0.73500000000546351
210
0
220
0
230
1
100
AcDbArc
50
-207.24203677156575
51
19.351664313180549
0
CIRCLE
5
411
100
AcDbEntity
8
0
100
AcDbCircle
10
-111.20685371432867
20
20.254860443111049
30
0
40
0.87500000000000011
210
0
220
0
230
1
0
ARC
5
412
100
AcDbEntity
8
0
100
AcDbCircle
10
-175.65935371432863
20
-31.81513955688893
30
0
40
0.7350000000000303
210
-0
220
0
230
1
100
AcDbArc
50
-27.242036771021766
51
199.35166431249866
0
ARC
5
413
100
AcDbEntity
8
0
100
AcDbCircle
10
-113.74685371432864
20
25.334860443111047
30
0
40
0.73500000000000287
210
-0
220
0
230
1
100
AcDbArc
50
-27.24203677102355
51
199.3516643124978
0
CIRCLE
5
414
100
AcDbEntity
8
0
100
AcDbCircle
10
-149.62435371432863
20
1.204860443111071
30
0
40
1.9939
210
0
220
0
230
1
0
CIRCLE
5
415
100
AcDbEntity
8
0
100
AcDbCircle
10
-134.38435371432863
20
3.7448604431110621
30
0
40
0.73499999999999999
210
0
220
0
230
1
0
ARC
5
416
100
AcDbEntity
8
0
100
AcDbCircle
10
-104.26185371432865
20
43.804860443111046
30
0
40
0.73500000000549515
210
0
220
0
230
1
100
AcDbArc
50
-207.24203677156424
51
19.351664313181661
0
CIRCLE
5
417
100
AcDbEntity
8
0
100
AcDbCircle
10
-106.76185371432865
20
39.304860443111039
30
0
40
1.9939
210
0
220
0
230
1
0
ARC
5
418
100
AcDbEntity
8
0
100
AcDbCircle
10
-147.08435371432864
20
6.2848604431110573
30
0
40
0.73499999999999877
210
-0
220
0
230
1
100
AcDbArc
50
-27.24203677102253
51
199.351664312499
0
CIRCLE
5
419
100
AcDbEntity
8
0
100
AcDbCircle
10
-143.90935371432863
20
-15.305139556888923
30
0
40
0.73499999999999999
210
0
220
0
230
1
0
CIRCLE
5
420
100
AcDbEntity
8
0
100
AcDbCircle
10
-111.84185371432864
20
39.304860443111039
30
0
40
0.87500000000000011
210
0
220
0
230
1
0
ARC
5
421
100
AcDbEntity
8
0
100
AcDbCircle
10
-104.22185371432867
20
44.384860443111052
30
0
40
0.73500000000000287
210
-0
220
0
230
1
100
AcDbArc
50
-27.242036771023802
51
199.3516643124986
0
CIRCLE
5
422
100
AcDbEntity
8
0
100
AcDbCircle
10
-135.01935371432864
20
-17.845139556888935
30
0
40
0.87500000000000011
210
0
220
0
230
1
0
ARC
5
423
100
AcDbEntity
8
0
100
AcDbCircle
10
-147.12435371432863
20
5.704860443111059
30
0
40
0.73500000000545951
210
0
220
0
230
1
100
AcDbArc
50
-207.24203677156473
51
19.351664313181178
0
CIRCLE
5
424
100
AcDbEntity
8
0
100
AcDbCircle
10
-125.81185371432866
20
39.304860443111039
30
0
40
1.9939
210
0
220
0
230
1
0
CIRCLE
5
425
100
AcDbEntity
8
0
100
AcDbCircle
10
-145.17935371432861
20
-17.845139556888935
30
0
40
0.87500000000000011
210
0
220
0
230
1
0
CIRCLE
5
426
100
AcDbEntity
8
0
100
AcDbCircle
10
-120.09685371432866
20
22.794860443111055
30
0
40
0.73499999999999999
210
0
220
0
230
1
0
ARC
5
427
100
AcDbEntity
8
0
100
AcDbCircle
10
-113.78685371432866
20
24.754860443111049
30
0
40
0.73500000000546351
210
0
220
0
230
1
100
AcDbArc
50
-207.24203677156601
51
19.351664313180301
0
CIRCLE
5
428
100
AcDbEntity
8
0
100
AcDbCircle
10
-120.73185371432864
20
39.304860443111039
30
0
40
0.87500000000000011
210
0
220
0
230
1
0
ARC
5
429
100
AcDbEntity
8
0
100
AcDbCircle
10
-175.69935371432862
20
-32.395139556888928
30
0
40
0.73500000000546772
210
0
220
0
230
1
100
AcDbArc
50
-207.24203677156672
51
19.35166431318018
0
CIRCLE
5
430
100
AcDbEntity
8
0
100
AcDbCircle
10
-183.27935371432864
20
-36.895139556888921
30
0
40
0.87500000000000011
210
0
220
0
230
1
0
CIRCLE
5
431
100
AcDbEntity
8
0
100
AcDbCircle
10
-139.14685371432864
20
22.794860443111055
30
0
40
0.73499999999999999
210
0
220
0
230
1
0
ARC
5
432
100
AcDbEntity
8
0
100
AcDbCircle
10
-142.36185371432865
20
43.804860443111046
30
0
40
0.73500000000549515
210
0
220
0
230
1
100
AcDbArc
50
-207.24203677156424
51
19.351664313181661
0
LWPOLYLINE
5
433
100
AcDbEntity
8
0
100
AcDbPolyline
90
6
70
1
43
0.0
10
-179.38997871432687
20
2.8042507392487344
42
-0.54200742298144411
10
-176.25525667449452
20
1.6477192351801988
42
-3.6798478191374882
10
-176.25525667449426
20
0.7620016510482075
42
-0.54200742298359261
10
-179.38997871432949
20
-0.39452985302591032
42
-0.54200742298320126
10
-182.52470075415917
20
0.76200165104809592
42
-3.6798478191314565
10
-182.52470075416358
20
1.6477192351805043
42
-0.54200742298206561
0
ARC
5
434
100
AcDbEntity
8
0
100
AcDbCircle
10
-178.0406037143286
20
6.2848604431110662
30
0
40
0.73499999999996701
210
-0
220
0
230
1
100
AcDbArc
50
-27.242036771024566
51
199.35166431249687
0
CIRCLE
5
435
100
AcDbEntity
8
0
100
AcDbCircle
10
-130.89185371432865
20
39.304860443111039
30
0
40
0.87500000000000011
210
0
220
0
230
1
0
CIRCLE
5
436
100
AcDbEntity
8
0
100
AcDbCircle
10
-135.33685371432864
20
20.254860443111049
30
0
40
1.9939
210
0
220
0
230
1
0
ARC
5
437
100
AcDbEntity
8
0
100
AcDbCircle
10
-178.08060371432867
20
5.7048604431110679
30
0
40
0.73500000000546351
210
0
220
0
230
1
100
AcDbArc
50
-207.24203677156638
51
19.35166431318045
0
CIRCLE
5
438
100
AcDbEntity
8
0
100
AcDbCircle
10
-178.19935371432862
20
-36.895139556888921
30
0
40
1.9939
210
0
220
0
230
1
0
CIRCLE
5
439
100
AcDbEntity
8
0
100
AcDbCircle
10
-130.25685371432866
20
20.254860443111049
30
0
40
0.87500000000000011
210
0
220
0
230
1
0
CIRCLE
5
440
100
AcDbEntity
8
0
100
AcDbCircle
10
-182.00935371432863
20
-34.355139556888908
30
0
40
0.73499999999999999
210
0
220
0
230
1
0
ARC
5
441
100
AcDbEntity
8
0
100
AcDbCircle
10
-132.83685371432867
20
24.754860443111049
30
0
40
0.73500000000546351
210
0
220
0
230
1
100
AcDbArc
50
-207.24203677156649
51
19.351664313179931
0
CIRCLE
5
442
100
AcDbEntity
8
0
100
AcDbCircle
10
-173.11935371432861
20
-36.895139556888921
30
0
40
0.87500000000000011
210
0
220
0
230
1
0
CIRCLE
5
443
100
AcDbEntity
8
0
100
AcDbCircle
10
-139.78185371432863
20
39.304860443111039
30
0
40
0.87500000000000011
210
0
220
0
230
1
0
CIRCLE
5
444
100
AcDbEntity
8
0
100
AcDbCircle
10
-129.62185371432867
20
41.844860443111038
30
0
40
0.73499999999999999
210
0
220
0
230
1
0
ARC
5
445
100
AcDbEntity
8
0
100
AcDbCircle
10
-142.32185371432863
20
44.384860443111037
30
0
40
0.73499999999996302
210
-0
220
0
230
1
100
AcDbArc
50
-27.24203677102431
51
199.35166431249647
0
CIRCLE
5
446
100
AcDbEntity
8
0
100
AcDbCircle
10
-144.86185371432865
20
39.304860443111039
30
0
40
1.9939
210
0
220
0
230
1
0
ARC
5
447
100
AcDbEntity
8
0
100
AcDbCircle
10
-132.79685371432865
20
25.334860443111047
30
0
40
0.73500000000000287
210
-0
220
0
230
1
100
AcDbArc
50
-27.242036771023038
51
199.3516643124982
0
CIRCLE
5
448
100
AcDbEntity
8
0
100
AcDbCircle
10
-140.41685371432862
20
20.254860443111049
30
0
40
0.87500000000000011
210
0
220
0
230
1
0
CIRCLE
5
449
100
AcDbEntity
8
0
100
AcDbCircle
10
-130.25685371432866
20
58.354860443111036
30
0
40
0.87500000000000011
210
0
220
0
230
1
0
CIRCLE
5
450
100
AcDbEntity
8
0
100
AcDbCircle
10
-184.39060371432859
20
3.744860443111071
30
0
40
0.73499999999999999
210
0
220
0
230
1
0
CIRCLE
5
451
100
AcDbEntity
8
0
100
AcDbCircle
10
-120.09685371432866
20
60.894860443111028
30
0
40
0.73499999999999999
210
0
220
0
230
1
0
ARC
5
452
100
AcDbEntity
8
0
100
AcDbCircle
10
-113.74685371432864
20
63.434860443111049
30
0
40
0.73500000000001442
210
-0
220
0
230
1
100
AcDbArc
50
-27.24203677123138
51
199.3516643131604
0
CIRCLE
5
453
100
AcDbEntity
8
0
100
AcDbCircle
10
-121.36685371432864
20
58.354860443111036
30
0
40
0.87500000000000011
210
0
220
0
230
1
0
CIRCLE
5
454
100
AcDbEntity
8
0
100
AcDbCircle
10
-116.28685371432866
20
58.354860443111036
30
0
40
1.9939
210
0
220
0
230
1
0
CIRCLE
5
455
100
AcDbEntity
8
0
100
AcDbCircle
10
-182.00935371432863
20
3.7448604431110666
30
0
40
0.73499999999999999
210
0
220
0
230
1
0
ARC
5
456
100
AcDbEntity
8
0
100
AcDbCircle
10
-113.78685371432866
20
62.85486044311105
30
0
40
0.73499999999929688
210
0
220
0
230
1
100
AcDbArc
50
-207.24203677110964
51
19.351664313036668
0
ARC
5
457
100
AcDbEntity
8
0
100
AcDbCircle
10
-132.83685371432867
20
62.854860443111029
30
0
40
0.73500000000065513
210
0
220
0
230
1
100
AcDbArc
50
-207.24203677121292
51
19.351664313133497
0
CIRCLE
5
458
100
AcDbEntity
8
0
100
AcDbCircle
10
-185.6606037143286
20
1.2048604431110754
30
0
40
0.87500000000000011
210
0
220
0
230
1
0
CIRCLE
5
459
100
AcDbEntity
8
0
100
AcDbCircle
10
-140.41685371432862
20
58.354860443111036
30
0
40
0.87500000000000011
210
0
220
0
230
1
0
ARC
5
460
100
AcDbEntity
8
0
100
AcDbCircle
10
-132.79685371432865
20
63.434860443111049
30
0
40
0.7350000000000172
210
-0
220
0
230
1
100
AcDbArc
50
-27.242036771092145
51
199.35166431301437
0
CIRCLE
5
461
100
AcDbEntity
8
0
100
AcDbCircle
10
-111.20685371432867
20
58.354860443111036
30
0
40
0.87500000000000011
210
0
220
0
230
1
0
CIRCLE
5
462
100
AcDbEntity
8
0
100
AcDbCircle
10
126.60064628567125
20
39.304860443111025
30
0
40
1.9939
210
0
220
0
230
1
0
CIRCLE
5
463
100
AcDbEntity
8
0
100
AcDbCircle
10
122.79064628567124
20
41.844860443111031
30
0
40
0.73499999999999999
210
0
220
0
230
1
0
CIRCLE
5
464
100
AcDbEntity
8
0
100
AcDbCircle
10
-6.7493537143286986
20
58.354860443111036
30
0
40
1.9939
210
0
220
0
230
1
0
ARC
5
465
100
AcDbEntity
8
0
100
AcDbCircle
10
-47.071853714328711
20
44.384860443111037
30
0
40
0.7350000000000162
210
-0
220
0
230
1
100
AcDbArc
50
-27.242036771164969
51
199.35166431234342
0
CIRCLE
5
466
100
AcDbEntity
8
0
100
AcDbCircle
10
131.68064628567123
20
39.304860443111025
30
0
40
0.87500000000000011
210
0
220
0
230
1
0
CIRCLE
5
467
100
AcDbEntity
8
0
100
AcDbCircle
10
-44.531853714328662
20
39.304860443111039
30
0
40
0.87500000000000011
210
0
220
0
230
1
0
ARC
5
468
100
AcDbEntity
8
0
100
AcDbCircle
10
-37.586853714328683
20
24.754860443111049
30
0
40
0.7350000000069532
210
0
220
0
230
1
100
AcDbArc
50
-207.24203677167037
51
19.3516643135602
0
CIRCLE
5
469
100
AcDbEntity
8
0
100
AcDbCircle
10
107.55064628567123
20
39.304860443111032
30
0
40
1.9939
210
0
220
0
230
1
0
LWPOLYLINE
5
470
100
AcDbEntity
8
0
100
AcDbPolyline
90
2
70
1
43
0.0
10
109.39717191948046
20
44.141306951170762
42
-1.5193722919726986
10
110.74412065186975
20
44.048413935140161
42
-1.5193722921535888
0
LWPOLYLINE
5
471
100
AcDbEntity
8
0
100
AcDbPolyline
90
2
70
1
43
0.0
10
128.44717191948047
20
44.141306951170748
42
-1.5193722919727171
10
129.79412065186975
20
44.048413935140154
42
-1.5193722921535704
0
CIRCLE
5
472
100
AcDbEntity
8
0
100
AcDbCircle
10
112.63064628567122
20
39.304860443111032
30
0
40
0.87500000000000011
210
0
220
0
230
1
0
CIRCLE
5
473
100
AcDbEntity
8
0
100
AcDbCircle
10
121.52064628567125
20
39.304860443111032
30
0
40
0.87500000000000011
210
0
220
0
230
1
0
ARC
5
474
100
AcDbEntity
8
0
100
AcDbCircle
10
-37.546853714328705
20
25.334860443111047
30
0
40
0.73499999999999854
210
-0
220
0
230
1
100
AcDbArc
50
-27.242036770472115
51
199.35166431234285
0
CIRCLE
5
475
100
AcDbEntity
8
0
100
AcDbCircle
10
103.74064628567123
20
41.844860443111031
30
0
40
0.73499999999999999
210
0
220
0
230
1
0
CIRCLE
5
476
100
AcDbEntity
8
0
100
AcDbCircle
10
102.47064628567124
20
39.304860443111032
30
0
40
0.87500000000000011
210
0
220
0
230
1
0
ARC
5
477
100
AcDbEntity
8
0
100
AcDbCircle
10
-47.111853714328689
20
43.804860443111046
30
0
40
0.73500000000694898
210
0
220
0
230
1
100
AcDbArc
50
-207.2420367716694
51
19.351664313082395
0
CIRCLE
5
478
100
AcDbEntity
8
0
100
AcDbCircle
10
-24.846853714328674
20
22.794860443111055
30
0
40
0.73499999999999999
210
0
220
0
230
1
0
CIRCLE
5
479
100
AcDbEntity
8
0
100
AcDbCircle
10
-26.116853714328698
20
20.254860443111049
30
0
40
0.87500000000000011
210
0
220
0
230
1
0
CIRCLE
5
480
100
AcDbEntity
8
0
100
AcDbCircle
10
-21.036853714328672
20
20.254860443111049
30
0
40
1.9939
210
0
220
0
230
1
0
CIRCLE
5
481
100
AcDbEntity
8
0
100
AcDbCircle
10
160.89064628567129
20
3.7448604431110444
30
0
40
0.73499999999999999
210
0
220
0
230
1
0
ARC
5
482
100
AcDbEntity
8
0
100
AcDbCircle
10
33.850646285671289
20
-32.395139556888935
30
0
40
0.7350000000069612
210
0
220
0
230
1
100
AcDbArc
50
-207.24203677167139
51
19.351664313083297
0
CIRCLE
5
483
100
AcDbEntity
8
0
100
AcDbCircle
10
159.6206462856712
20
1.2048604431110488
30
0
40
0.87500000000000011
210
0
220
0
230
1
0
CIRCLE
5
484
100
AcDbEntity
8
0
100
AcDbCircle
10
27.540646285671286
20
-34.355139556888915
30
0
40
0.73499999999999999
210
0
220
0
230
1
0
CIRCLE
5
485
100
AcDbEntity
8
0
100
AcDbCircle
10
150.73064628567124
20
1.2048604431110488
30
0
40
0.87500000000000011
210
0
220
0
230
1
0
ARC
5
486
100
AcDbEntity
8
0
100
AcDbCircle
10
-28.021853714328699
20
44.384860443111037
30
0
40
0.73499999999999466
210
-0
220
0
230
1
100
AcDbArc
50
-27.242036770471859
51
199.35166431234236
0
ARC
5
487
100
AcDbEntity
8
0
100
AcDbCircle
10
33.890646285671266
20
-31.815139556888941
30
0
40
0.73499999999998877
210
-0
220
0
230
1
100
AcDbArc
50
-27.242036771166493
51
199.3516643123416
0
CIRCLE
5
488
100
AcDbEntity
8
0
100
AcDbCircle
10
-11.511853714328701
20
39.304860443111032
30
0
40
1.9939
210
0
220
0
230
1
0
CIRCLE
5
489
100
AcDbEntity
8
0
100
AcDbCircle
10
140.57064628567127
20
1.2048604431110532
30
0
40
0.87500000000000011
210
0
220
0
230
1
0
CIRCLE
5
490
100
AcDbEntity
8
0
100
AcDbCircle
10
164.7006462856713
20
1.2048604431110488
30
0
40
1.9939
210
0
220
0
230
1
0
ARC
5
491
100
AcDbEntity
8
0
100
AcDbCircle
10
-18.536853714328672
20
24.754860443111042
30
0
40
0.7350000000069532
210
0
220
0
230
1
100
AcDbArc
50
-207.24203677167037
51
19.351664313559411
0
ARC
5
492
100
AcDbEntity
8
0
100
AcDbCircle
10
-28.061853714328677
20
43.804860443111046
30
0
40
0.7350000000069532
210
0
220
0
230
1
100
AcDbArc
50
-207.24203677167037
51
19.351664313559947
0
CIRCLE
5
493
100
AcDbEntity
8
0
100
AcDbCircle
10
-15.95685371432868
20
20.254860443111042
30
0
40
0.87500000000000011
210
0
220
0
230
1
0
CIRCLE
5
494
100
AcDbEntity
8
0
100
AcDbCircle
10
26.270646285671262
20
-36.895139556888935
30
0
40
0.87500000000000011
210
0
220
0
230
1
0
CIRCLE
5
495
100
AcDbEntity
8
0
100
AcDbCircle
10
36.43064628567128
20
-36.895139556888935
30
0
40
0.87500000000000011
210
0
220
0
230
1
0
ARC
5
496
100
AcDbEntity
8
0
100
AcDbCircle
10
-18.496853714328694
20
25.33486044311104
30
0
40
0.73500000000000276
210
-0
220
0
230
1
100
AcDbArc
50
-27.242036770472883
51
199.35166431234285
0
CIRCLE
5
497
100
AcDbEntity
8
0
100
AcDbCircle
10
141.84064628567128
20
3.7448604431110488
30
0
40
0.73499999999999999
210
0
220
0
230
1
0
CIRCLE
5
498
100
AcDbEntity
8
0
100
AcDbCircle
10
169.78064628567125
20
1.2048604431110488
30
0
40
0.87500000000000011
210
0
220
0
230
1
0
CIRCLE
5
499
100
AcDbEntity
8
0
100
AcDbCircle
10
31.350646285671289
20
-36.895139556888935
30
0
40
1.9939
210
0
220
0
230
1
0
CIRCLE
5
500
100
AcDbEntity
8
0
100
AcDbCircle
10
-1.6693537143287074
20
58.354860443111036
30
0
40
0.87500000000000011
210
0
220
0
230
1
0
ARC
5
501
100
AcDbEntity
8
0
100
AcDbCircle
10
0.5531462856712821
20
25.33486044311104
30
0
40
0.7350000000000102
210
-0
220
0
230
1
100
AcDbArc
50
-27.242036769421258
51
199.35166431160755
0
ARC
5
502
100
AcDbEntity
8
0
100
AcDbCircle
10
129.14064628567127
20
25.334860443111022
30
0
40
0.73499999999998678
210
-0
220
0
230
1
100
AcDbArc
50
-27.242036769424516
51
199.3516643116055
0
ARC
5
503
100
AcDbEntity
8
0
100
AcDbCircle
10
-4.2093537143286852
20
63.434860443111027
30
0
40
0.73499999999999899
210
-0
220
0
230
1
100
AcDbArc
50
-27.242036771234378
51
199.35166431285865
0
ARC
5
504
100
AcDbEntity
8
0
100
AcDbCircle
10
110.09064628567124
20
25.334860443111033
30
0
40
0.73499999999998678
210
-0
220
0
230
1
100
AcDbArc
50
-27.242036769424008
51
199.35166431160627
0
ARC
5
505
100
AcDbEntity
8
0
100
AcDbCircle
10
0.51314628567130427
20
24.754860443111042
30
0
40
0.73500000001380661
210
0
220
0
230
1
100
AcDbArc
50
-207.24203677217565
51
19.35166431428161
0
ARC
5
506
100
AcDbEntity
8
0
100
AcDbCircle
10
-8.9718537143286881
20
44.384860443111037
30
0
40
0.73499999999999277
210
-0
220
0
230
1
100
AcDbArc
50
-27.242036771167257
51
199.35166431234342
0
ARC
5
507
100
AcDbEntity
8
0
100
AcDbCircle
10
10.078146285671341
20
44.384860443111037
30
0
40
0.73499999999998877
210
-0
220
0
230
1
100
AcDbArc
50
-27.242036771166749
51
199.35166431234182
0
CIRCLE
5
508
100
AcDbEntity
8
0
100
AcDbCircle
10
3.093146285671331
20
20.254860443111042
30
0
40
0.87500000000000011
210
0
220
0
230
1
0
ARC
5
509
100
AcDbEntity
8
0
100
AcDbCircle
10
110.05064628567123
20
24.754860443111035
30
0
40
0.73500000001378307
210
0
220
0
230
1
100
AcDbArc
50
-207.2420367721779
51
19.35166431428069
0
ARC
5
510
100
AcDbEntity
8
0
100
AcDbCircle
10
129.10064628567125
20
24.754860443111024
30
0
40
0.73500000001378307
210
0
220
0
230
1
100
AcDbArc
50
-207.24203677217736
51
19.35166431428069
0
ARC
5
511
100
AcDbEntity
8
0
100
AcDbCircle
10
-4.2493537143286986
20
62.854860443111029
30
0
40
0.73500000000210908
210
0
220
0
230
1
100
AcDbArc
50
-207.24203677131791
51
19.351664313035517
0
CIRCLE
5
512
100
AcDbEntity
8
0
100
AcDbCircle
10
11.983146285671324
20
20.254860443111042
30
0
40
0.87500000000000011
210
0
220
0
230
1
0
CIRCLE
5
513
100
AcDbEntity
8
0
100
AcDbCircle
10
-7.0668537143286869
20
20.254860443111042
30
0
40
0.87500000000000011
210
0
220
0
230
1
0
CIRCLE
5
514
100
AcDbEntity
8
0
100
AcDbCircle
10
122.79064628567124
20
22.794860443111034
30
0
40
0.73499999999999999
210
0
220
0
230
1
0
ARC
5
515
100
AcDbEntity
8
0
100
AcDbCircle
10
-9.0118537143287014
20
43.804860443111039
30
0
40
0.73500000000692145
210
0
220
0
230
1
100
AcDbArc
50
-207.24203677167117
51
19.351664313081859
0
ARC
5
516
100
AcDbEntity
8
0
100
AcDbCircle
10
10.038146285671328
20
43.804860443111039
30
0
40
0.73500000000692967
210
0
220
0
230
1
100
AcDbArc
50
-207.24203677167264
51
19.351664313082395
0
CIRCLE
5
517
100
AcDbEntity
8
0
100
AcDbCircle
10
-53.421853714328691
20
41.844860443111038
30
0
40
0.73499999999999999
210
0
220
0
230
1
0
CIRCLE
5
518
100
AcDbEntity
8
0
100
AcDbCircle
10
-49.611853714328689
20
39.304860443111039
30
0
40
1.9939
210
0
220
0
230
1
0
CIRCLE
5
519
100
AcDbEntity
8
0
100
AcDbCircle
10
-35.641853714328704
20
39.304860443111039
30
0
40
0.87500000000000011
210
0
220
0
230
1
0
CIRCLE
5
520
100
AcDbEntity
8
0
100
AcDbCircle
10
107.55064628567123
20
20.254860443111042
30
0
40
1.9939
210
0
220
0
230
1
0
CIRCLE
5
521
100
AcDbEntity
8
0
100
AcDbCircle
10
13.253146285671313
20
22.794860443111045
30
0
40
0.73499999999999999
210
0
220
0
230
1
0
CIRCLE
5
522
100
AcDbEntity
8
0
100
AcDbCircle
10
-5.796853714328698
20
22.794860443111045
30
0
40
0.73499999999999999
210
0
220
0
230
1
0
CIRCLE
5
523
100
AcDbEntity
8
0
100
AcDbCircle
10
-54.056853714328668
20
20.254860443111049
30
0
40
0.87500000000000011
210
0
220
0
230
1
0
CIRCLE
5
524
100
AcDbEntity
8
0
100
AcDbCircle
10
103.74064628567123
20
22.794860443111034
30
0
40
0.73499999999999999
210
0
220
0
230
1
0
CIRCLE
5
525
100
AcDbEntity
8
0
100
AcDbCircle
10
-1.9868537143286957
20
20.254860443111042
30
0
40
1.9939
210
0
220
0
230
1
0
CIRCLE
5
526
100
AcDbEntity
8
0
100
AcDbCircle
10
12.618146285671354
20
39.304860443111032
30
0
40
0.87500000000000011
210
0
220
0
230
1
0
CIRCLE
5
527
100
AcDbEntity
8
0
100
AcDbCircle
10
121.52064628567125
20
20.254860443111042
30
0
40
0.87500000000000011
210
0
220
0
230
1
0
CIRCLE
5
528
100
AcDbEntity
8
0
100
AcDbCircle
10
7.5381462856713277
20
39.304860443111032
30
0
40
1.9939
210
0
220
0
230
1
0
CIRCLE
5
529
100
AcDbEntity
8
0
100
AcDbCircle
10
-35.006853714328656
20
20.254860443111049
30
0
40
0.87500000000000011
210
0
220
0
230
1
0
CIRCLE
5
530
100
AcDbEntity
8
0
100
AcDbCircle
10
-45.16685371432871
20
20.254860443111049
30
0
40
0.87500000000000011
210
0
220
0
230
1
0
CIRCLE
5
531
100
AcDbEntity
8
0
100
AcDbCircle
10
102.47064628567124
20
20.254860443111042
30
0
40
0.87500000000000011
210
0
220
0
230
1
0
CIRCLE
5
532
100
AcDbEntity
8
0
100
AcDbCircle
10
-40.086853714328683
20
20.254860443111049
30
0
40
1.9939
210
0
220
0
230
1
0
CIRCLE
5
533
100
AcDbEntity
8
0
100
AcDbCircle
10
131.68064628567123
20
20.254860443111031
30
0
40
0.87500000000000011
210
0
220
0
230
1
0
CIRCLE
5
534
100
AcDbEntity
8
0
100
AcDbCircle
10
-6.4318537143286747
20
39.304860443111032
30
0
40
0.87500000000000011
210
0
220
0
230
1
0
CIRCLE
5
535
100
AcDbEntity
8
0
100
AcDbCircle
10
-43.896853714328685
20
22.794860443111055
30
0
40
0.73499999999999999
210
0
220
0
230
1
0
CIRCLE
5
536
100
AcDbEntity
8
0
100
AcDbCircle
10
112.63064628567122
20
20.254860443111042
30
0
40
0.87500000000000011
210
0
220
0
230
1
0
CIRCLE
5
537
100
AcDbEntity
8
0
100
AcDbCircle
10
2.458146285671301
20
39.304860443111032
30
0
40
0.87500000000000011
210
0
220
0
230
1
0
CIRCLE
5
538
100
AcDbEntity
8
0
100
AcDbCircle
10
-54.691853714328644
20
39.304860443111039
30
0
40
0.87500000000000011
210
0
220
0
230
1
0
CIRCLE
5
539
100
AcDbEntity
8
0
100
AcDbCircle
10
3.7281462856713254
20
41.844860443111038
30
0
40
0.73499999999999999
210
0
220
0
230
1
0
CIRCLE
5
540
100
AcDbEntity
8
0
100
AcDbCircle
10
-34.37185371432868
20
41.844860443111038
30
0
40
0.73499999999999999
210
0
220
0
230
1
0
CIRCLE
5
541
100
AcDbEntity
8
0
100
AcDbCircle
10
126.60064628567125
20
20.254860443111031
30
0
40
1.9939
210
0
220
0
230
1
0
CIRCLE
5
542
100
AcDbEntity
8
0
100
AcDbCircle
10
50.71814628567131
20
58.354860443111036
30
0
40
0.87500000000000011
210
0
220
0
230
1
0
CIRCLE
5
543
100
AcDbEntity
8
0
100
AcDbCircle
10
45.638146285671283
20
58.354860443111036
30
0
40
1.9939
210
0
220
0
230
1
0
ARC
5
544
100
AcDbEntity
8
0
100
AcDbCircle
10
-13.734353714328691
20
6.2848604431110484
30
0
40
0.73499999999999277
210
-0
220
0
230
1
100
AcDbArc
50
-27.242036771167104
51
199.35166431234225
0
ARC
5
545
100
AcDbEntity
8
0
100
AcDbCircle
10
86.238146285671291
20
-13.345139556888943
30
0
40
0.73499999999081256
210
0
220
0
230
1
100
AcDbArc
50
-207.24203677048453
51
19.351664312361002
0
ARC
5
546
100
AcDbEntity
8
0
100
AcDbCircle
10
110.05064628567123
20
5.7048604431110501
30
0
40
0.73500000001378307
210
0
220
0
230
1
100
AcDbArc
50
-207.2420367721779
51
19.351664314280036
0
ARC
5
547
100
AcDbEntity
8
0
100
AcDbCircle
10
81.475646285671274
20
24.754860443111035
30
0
40
0.73499999999080456
210
0
220
0
230
1
100
AcDbArc
50
-207.24203677048433
51
19.351664312360391
0
ARC
5
548
100
AcDbEntity
8
0
100
AcDbCircle
10
110.09064628567124
20
6.2848604431110484
30
0
40
0.73499999999999077
210
-0
220
0
230
1
100
AcDbArc
50
-27.242036769424619
51
199.35166431160627
0
ARC
5
549
100
AcDbEntity
8
0
100
AcDbCircle
10
81.515646285671295
20
25.334860443111033
30
0
40
0.73500000000000465
210
-0
220
0
230
1
100
AcDbArc
50
-27.242036772215872
51
199.35166431407208
0
CIRCLE
5
550
100
AcDbEntity
8
0
100
AcDbCircle
10
-25.799353714328674
20
-17.845139556888942
30
0
40
1.9939
210
0
220
0
230
1
0
ARC
5
551
100
AcDbEntity
8
0
100
AcDbCircle
10
86.278146285671298
20
-12.765139556888945
30
0
40
0.73500000000000465
210
-0
220
0
230
1
100
AcDbArc
50
-27.24203677221562
51
199.35166431407038
0
CIRCLE
5
552
100
AcDbEntity
8
0
100
AcDbCircle
10
-158.19685371432865
20
22.794860443111045
30
0
40
0.73499999999999999
210
0
220
0
230
1
0
CIRCLE
5
553
100
AcDbEntity
8
0
100
AcDbCircle
10
-180.69935371432862
20
24.254860443111063
30
0
40
0.73499999999999999
210
0
220
0
230
1
0
ARC
5
554
100
AcDbEntity
8
0
100
AcDbCircle
10
-151.88685371432865
20
24.754860443111042
30
0
40
0.73500000000549914
210
0
220
0
230
1
100
AcDbArc
50
-207.24203677156598
51
19.35166431318045
0
CIRCLE
5
555
100
AcDbEntity
8
0
100
AcDbCircle
10
-167.72185371432863
20
41.844860443111045
30
0
40
0.73499999999999999
210
0
220
0
230
1
0
ARC
5
556
100
AcDbEntity
8
0
100
AcDbCircle
10
-180.42185371432865
20
44.384860443111037
30
0
40
0.73500000000002619
210
-0
220
0
230
1
100
AcDbArc
50
-27.242036771021258
51
199.35166431249814
0
CIRCLE
5
557
100
AcDbEntity
8
0
100
AcDbCircle
10
-183.27935371432864
20
20.254860443111056
30
0
40
0.87500000000000011
210
0
220
0
230
1
0
CIRCLE
5
558
100
AcDbEntity
8
0
100
AcDbCircle
10
-139.14685371432864
20
60.894860443111028
30
0
40
0.73499999999999999
210
0
220
0
230
1
0
CIRCLE
5
559
100
AcDbEntity
8
0
100
AcDbCircle
10
-159.46685371432864
20
20.254860443111049
30
0
40
0.87500000000000011
210
0
220
0
230
1
0
CIRCLE
5
560
100
AcDbEntity
8
0
100
AcDbCircle
10
-182.96185371432864
20
39.304860443111053
30
0
40
1.9939
210
0
220
0
230
1
0
CIRCLE
5
561
100
AcDbEntity
8
0
100
AcDbCircle
10
-149.94185371432863
20
39.304860443111039
30
0
40
0.87500000000000011
210
0
220
0
230
1
0
CIRCLE
5
562
100
AcDbEntity
8
0
100
AcDbCircle
10
-173.11935371432861
20
20.254860443111056
30
0
40
0.87500000000000011
210
0
220
0
230
1
0
ARC
5
563
100
AcDbEntity
8
0
100
AcDbCircle
10
-175.69935371432862
20
24.754860443111049
30
0
40
0.73500000000546772
210
0
220
0
230
1
100
AcDbArc
50
-207.24203677156723
51
19.351664313180699
0
CIRCLE
5
564
100
AcDbEntity
8
0
100
AcDbCircle
10
-163.91185371432863
20
39.304860443111039
30
0
40
1.9939
210
0
220
0
230
1
0
CIRCLE
5
565
100
AcDbEntity
8
0
100
AcDbCircle
10
-154.38685371432865
20
20.254860443111049
30
0
40
1.9939
210
0
220
0
230
1
0
ARC
5
566
100
AcDbEntity
8
0
100
AcDbCircle
10
-151.84685371432863
20
25.33486044311104
30
0
40
0.73499999999999877
210
-0
220
0
230
1
100
AcDbArc
50
-27.24203677102253
51
199.35166431249695
0
CIRCLE
5
567
100
AcDbEntity
8
0
100
AcDbCircle
10
-149.30685371432867
20
20.254860443111049
30
0
40
0.87500000000000011
210
0
220
0
230
1
0
CIRCLE
5
568
100
AcDbEntity
8
0
100
AcDbCircle
10
-158.83185371432862
20
39.304860443111039
30
0
40
0.87500000000000011
210
0
220
0
230
1
0
ARC
5
569
100
AcDbEntity
8
0
100
AcDbCircle
10
-161.37185371432864
20
44.384860443111037
30
0
40
0.73500000000002619
210
-0
220
0
230
1
100
AcDbArc
50
-27.242036771021258
51
199.35166431249647
0
CIRCLE
5
570
100
AcDbEntity
8
0
100
AcDbCircle
10
-168.99185371432864
20
39.304860443111053
30
0
40
0.87500000000000011
210
0
220
0
230
1
0
ARC
5
571
100
AcDbEntity
8
0
100
AcDbCircle
10
-175.65935371432863
20
25.334860443111047
30
0
40
0.7350000000000303
210
-0
220
0
230
1
100
AcDbArc
50
-27.242036771021258
51
199.35166431249814
0
CIRCLE
5
572
100
AcDbEntity
8
0
100
AcDbCircle
10
-188.04185371432865
20
39.304860443111053
30
0
40
0.87500000000000011
210
0
220
0
230
1
0
CIRCLE
5
573
100
AcDbEntity
8
0
100
AcDbCircle
10
-135.33685371432864
20
58.354860443111036
30
0
40
1.9939
210
0
220
0
230
1
0
CIRCLE
5
574
100
AcDbEntity
8
0
100
AcDbCircle
10
-177.8818537143286
20
39.304860443111053
30
0
40
0.87500000000000011
210
0
220
0
230
1
0
ARC
5
575
100
AcDbEntity
8
0
100
AcDbCircle
10
-161.41185371432863
20
43.804860443111046
30
0
40
0.73500000000552668
210
0
220
0
230
1
100
AcDbArc
50
-207.24203677156319
51
19.35166431318018
0
CIRCLE
5
576
100
AcDbEntity
8
0
100
AcDbCircle
10
-148.67185371432865
20
41.844860443111038
30
0
40
0.73499999999999999
210
0
220
0
230
1
0
CIRCLE
5
577
100
AcDbEntity
8
0
100
AcDbCircle
10
-186.77185371432864
20
41.844860443111045
30
0
40
0.73499999999999999
210
0
220
0
230
1
0
CIRCLE
5
578
100
AcDbEntity
8
0
100
AcDbCircle
10
-182.00935371432863
20
22.794860443111055
30
0
40
0.73499999999999999
210
0
220
0
230
1
0
CIRCLE
5
579
100
AcDbEntity
8
0
100
AcDbCircle
10
-178.19935371432862
20
20.254860443111056
30
0
40
1.9939
210
0
220
0
230
1
0
ARC
5
580
100
AcDbEntity
8
0
100
AcDbCircle
10
-180.46185371432864
20
43.804860443111053
30
0
40
0.73500000000546351
210
0
220
0
230
1
100
AcDbArc
50
-207.24203677156623
51
19.351664313179665
0
CIRCLE
5
581
100
AcDbEntity
8
0
100
AcDbCircle
10
-159.46685371432864
20
58.354860443111036
30
0
40
0.87500000000000011
210
0
220
0
230
1
0
CIRCLE
5
582
100
AcDbEntity
8
0
100
AcDbCircle
10
-149.30685371432867
20
58.354860443111036
30
0
40
0.87500000000000011
210
0
220
0
230
1
0
CIRCLE
5
583
100
AcDbEntity
8
0
100
AcDbCircle
10
-154.38685371432865
20
58.354860443111036
30
0
40
1.9939
210
0
220
0
230
1
0
CIRCLE
5
584
100
AcDbEntity
8
0
100
AcDbCircle
10
-158.19685371432865
20
60.894860443111028
30
0
40
0.73499999999999999
210
0
220
0
230
1
0
ARC
5
585
100
AcDbEntity
8
0
100
AcDbCircle
10
-180.42185371432865
20
63.434860443111027
30
0
40
0.73499999999999588
210
-0
220
0
230
1
100
AcDbArc
50
-27.242036771161505
51
199.35166431308619
0
ARC
5
586
100
AcDbEntity
8
0
100
AcDbCircle
10
-180.46185371432864
20
62.854860443111029
30
0
40
0.73499999999999588
210
0
220
0
230
1
100
AcDbArc
50
-207.24203677116151
51
19.351664313086197
0
ARC
5
587
100
AcDbEntity
8
0
100
AcDbCircle
10
-151.88685371432865
20
62.854860443111029
30
0
40
0.73499999999999588
210
0
220
0
230
1
100
AcDbArc
50
-207.24203677116151
51
19.351664313085468
0
CIRCLE
5
588
100
AcDbEntity
8
0
100
AcDbCircle
10
-182.96185371432864
20
58.354860443111036
30
0
40
1.9939
210
0
220
0
230
1
0
CIRCLE
5
589
100
AcDbEntity
8
0
100
AcDbCircle
10
-186.77185371432864
20
60.894860443111028
30
0
40
0.73499999999999999
210
0
220
0
230
1
0
CIRCLE
5
590
100
AcDbEntity
8
0
100
AcDbCircle
10
-177.8818537143286
20
58.354860443111036
30
0
40
0.87500000000000011
210
0
220
0
230
1
0
CIRCLE
5
591
100
AcDbEntity
8
0
100
AcDbCircle
10
-188.04185371432865
20
58.354860443111036
30
0
40
0.87500000000000011
210
0
220
0
230
1
0
ARC
5
592
100
AcDbEntity
8
0
100
AcDbCircle
10
-151.84685371432863
20
63.434860443111049
30
0
40
0.73500000000000409
210
-0
220
0
230
1
100
AcDbArc
50
-27.242036771163033
51
199.35166431308701
0
CIRCLE
5
593
100
AcDbEntity
8
0
100
AcDbCircle
10
131.68064628567123
20
-17.845139556888949
30
0
40
0.87500000000000011
210
0
220
0
230
1
0
CIRCLE
5
594
100
AcDbEntity
8
0
100
AcDbCircle
10
50.71814628567131
20
39.304860443111039
30
0
40
0.87500000000000011
210
0
220
0
230
1
0
CIRCLE
5
595
100
AcDbEntity
8
0
100
AcDbCircle
10
53.734396285671266
20
-15.305139556888935
30
0
40
0.73499999999999999
210
0
220
0
230
1
0
CIRCLE
5
596
100
AcDbEntity
8
0
100
AcDbCircle
10
102.47064628567124
20
-17.845139556888945
30
0
40
0.87500000000000011
210
0
220
0
230
1
0
CIRCLE
5
597
100
AcDbEntity
8
0
100
AcDbCircle
10
112.63064628567122
20
-17.845139556888945
30
0
40
0.87500000000000011
210
0
220
0
230
1
0
CIRCLE
5
598
100
AcDbEntity
8
0
100
AcDbCircle
10
45.638146285671283
20
39.304860443111039
30
0
40
1.9939
210
0
220
0
230
1
0
CIRCLE
5
599
100
AcDbEntity
8
0
100
AcDbCircle
10
57.544396285671269
20
-17.845139556888942
30
0
40
1.9939
210
0
220
0
230
1
0
CIRCLE
5
600
100
AcDbEntity
8
0
100
AcDbCircle
10
103.74064628567123
20
-15.305139556888932
30
0
40
0.73499999999999999
210
0
220
0
230
1
0
CIRCLE
5
601
100
AcDbEntity
8
0
100
AcDbCircle
10
60.243146285671294
20
20.254860443111042
30
0
40
0.87500000000000011
210
0
220
0
230
1
0
CIRCLE
5
602
100
AcDbEntity
8
0
100
AcDbCircle
10
45.955646285671286
20
1.2048604431110532
30
0
40
0.87500000000000011
210
0
220
0
230
1
0
CIRCLE
5
603
100
AcDbEntity
8
0
100
AcDbCircle
10
50.083146285671276
20
20.254860443111049
30
0
40
0.87500000000000011
210
0
220
0
230
1
0
CIRCLE
5
604
100
AcDbEntity
8
0
100
AcDbCircle
10
51.353146285671265
20
22.794860443111045
30
0
40
0.73499999999999999
210
0
220
0
230
1
0
CIRCLE
5
605
100
AcDbEntity
8
0
100
AcDbCircle
10
62.624396285671295
20
-17.845139556888942
30
0
40
0.87500000000000011
210
0
220
0
230
1
0
CIRCLE
5
606
100
AcDbEntity
8
0
100
AcDbCircle
10
122.79064628567124
20
-15.305139556888935
30
0
40
0.73499999999999999
210
0
220
0
230
1
0
CIRCLE
5
607
100
AcDbEntity
8
0
100
AcDbCircle
10
107.55064628567123
20
-17.845139556888945
30
0
40
1.9939
210
0
220
0
230
1
0
ARC
5
608
100
AcDbEntity
8
0
100
AcDbCircle
10
-23.259353714328697
20
-12.76513955688894
30
0
40
0.73499999999999854
210
-0
220
0
230
1
100
AcDbArc
50
-27.242036770472215
51
199.35166431234225
0
ARC
5
609
100
AcDbEntity
8
0
100
AcDbCircle
10
48.178146285671289
20
44.384860443111037
30
0
40
0.73499999999998877
210
-0
220
0
230
1
100
AcDbArc
50
-27.242036771166493
51
199.35166431234342
0
CIRCLE
5
610
100
AcDbEntity
8
0
100
AcDbCircle
10
55.163146285671267
20
20.254860443111042
30
0
40
1.9939
210
0
220
0
230
1
0
ARC
5
611
100
AcDbEntity
8
0
100
AcDbCircle
10
48.138146285671283
20
43.804860443111039
30
0
40
0.73500000000692145
210
0
220
0
230
1
100
AcDbArc
50
-207.24203677167091
51
19.351664313082395
0
CIRCLE
5
612
100
AcDbEntity
8
0
100
AcDbCircle
10
121.52064628567125
20
-17.845139556888949
30
0
40
0.87500000000000011
210
0
220
0
230
1
0
ARC
5
613
100
AcDbEntity
8
0
100
AcDbCircle
10
43.415646285671272
20
6.2848604431110484
30
0
40
0.73499999999999277
210
-0
220
0
230
1
100
AcDbArc
50
-27.242036771167104
51
199.35166431234225
0
LWPOLYLINE
5
614
100
AcDbEntity
8
0
100
AcDbPolyline
90
2
70
1
43
0.0
10
129.79412065186975
20
-13.101586064859813
42
-1.5193722921535888
10
128.44717191948047
20
-13.008693048829212
42
-1.5193722919727171
0
CIRCLE
5
615
100
AcDbEntity
8
0
100
AcDbCircle
10
126.60064628567125
20
-17.845139556888949
30
0
40
1.9939
210
0
220
0
230
1
0
ARC
5
616
100
AcDbEntity
8
0
100
AcDbCircle
10
60.044396285671269
20
-13.345139556888938
30
0
40
0.73500000001378307
210
0
220
0
230
1
100
AcDbArc
50
-207.24203677217815
51
19.351664314280708
0
ARC
5
617
100
AcDbEntity
8
0
100
AcDbCircle
10
-42.309353714328708
20
-12.765139556888936
30
0
40
0.7350000000000162
210
-0
220
0
230
1
100
AcDbArc
50
-27.242036771164614
51
199.35166431234381
0
ARC
5
618
100
AcDbEntity
8
0
100
AcDbCircle
10
57.663146285671267
20
24.754860443111035
30
0
40
0.73500000000692567
210
0
220
0
230
1
100
AcDbArc
50
-207.24203677167213
51
19.351664313082395
0
ARC
5
619
100
AcDbEntity
8
0
100
AcDbCircle
10
60.084396285671282
20
-12.76513955688894
30
0
40
0.7350000000000102
210
-0
220
0
230
1
100
AcDbArc
50
-27.242036769421258
51
199.35166431160627
0
ARC
5
620
100
AcDbEntity
8
0
100
AcDbCircle
10
-42.349353714328686
20
-13.345139556888935
30
0
40
0.73500000000692145
210
0
220
0
230
1
100
AcDbArc
50
-207.24203677167168
51
19.351664313083297
0
CIRCLE
5
621
100
AcDbEntity
8
0
100
AcDbCircle
10
52.464396285671278
20
-17.845139556888949
30
0
40
0.87500000000000011
210
0
220
0
230
1
0
ARC
5
622
100
AcDbEntity
8
0
100
AcDbCircle
10
43.375646285671294
20
5.7048604431110501
30
0
40
0.7350000000069572
210
0
220
0
230
1
100
AcDbArc
50
-207.24203677167102
51
19.351664313082914
0
ARC
5
623
100
AcDbEntity
8
0
100
AcDbCircle
10
-23.299353714328674
20
-13.345139556888938
30
0
40
0.7350000000069572
210
0
220
0
230
1
100
AcDbArc
50
-207.24203677167102
51
19.351664313560065
0
CIRCLE
5
624
100
AcDbEntity
8
0
100
AcDbCircle
10
131.68064628567123
20
1.2048604431110532
30
0
40
0.87500000000000011
210
0
220
0
230
1
0
CIRCLE
5
625
100
AcDbEntity
8
0
100
AcDbCircle
10
-30.879353714328701
20
-17.845139556888938
30
0
40
0.87500000000000011
210
0
220
0
230
1
0
CIRCLE
5
626
100
AcDbEntity
8
0
100
AcDbCircle
10
-44.849353714328686
20
-17.845139556888938
30
0
40
1.9939
210
0
220
0
230
1
0
CIRCLE
5
627
100
AcDbEntity
8
0
100
AcDbCircle
10
112.63064628567122
20
1.2048604431110532
30
0
40
0.87500000000000011
210
0
220
0
230
1
0
CIRCLE
5
628
100
AcDbEntity
8
0
100
AcDbCircle
10
102.47064628567124
20
1.2048604431110577
30
0
40
0.87500000000000011
210
0
220
0
230
1
0
CIRCLE
5
629
100
AcDbEntity
8
0
100
AcDbCircle
10
88.818146285671247
20
-17.845139556888945
30
0
40
0.87500000000000011
210
0
220
0
230
1
0
CIRCLE
5
630
100
AcDbEntity
8
0
100
AcDbCircle
10
126.60064628567125
20
1.2048604431110532
30
0
40
1.9939
210
0
220
0
230
1
0
CIRCLE
5
631
100
AcDbEntity
8
0
100
AcDbCircle
10
79.928146285671289
20
-15.305139556888932
30
0
40
0.73499999999999999
210
0
220
0
230
1
0
CIRCLE
5
632
100
AcDbEntity
8
0
100
AcDbCircle
10
83.738146285671291
20
-17.845139556888945
30
0
40
1.9939
210
0
220
0
230
1
0
CIRCLE
5
633
100
AcDbEntity
8
0
100
AcDbCircle
10
-10.559353714328701
20
-15.305139556888927
30
0
40
0.73499999999999999
210
0
220
0
230
1
0
CIRCLE
5
634
100
AcDbEntity
8
0
100
AcDbCircle
10
-48.659353714328688
20
-15.305139556888923
30
0
40
0.73499999999999999
210
0
220
0
230
1
0
CIRCLE
5
635
100
AcDbEntity
8
0
100
AcDbCircle
10
-29.609353714328677
20
-15.305139556888927
30
0
40
0.73499999999999999
210
0
220
0
230
1
0
LWPOLYLINE
5
636
100
AcDbEntity
8
0
100
AcDbPolyline
90
2
70
1
43
0.0
10
110.74412065186975
20
-13.101586064859813
42
-1.5193722921535888
10
109.39717191948046
20
-13.008693048829212
42
-1.5193722919727171
0
ARC
5
637
100
AcDbEntity
8
0
100
AcDbCircle
10
57.703146285671281
20
25.334860443111033
30
0
40
0.73499999999998877
210
-0
220
0
230
1
100
AcDbArc
50
-27.242036771166749
51
199.35166431234236
0
LWPOLYLINE
5
638
100
AcDbEntity
8
0
100
AcDbPolyline
90
8
70
1
43
0.0
10
-186.55560371432867
20
-29.845139556888931
10
-155.55560371432864
20
-29.845139556888931
42
0.41421356237308982
10
-155.05560371432864
20
-29.345139556888931
10
-155.05560371432864
20
-7.3451395568889319
42
0.41421356237308982
10
-155.55560371432864
20
-6.8451395568889319
10
-186.55560371432867
20
-6.8451395568889319
42
0.41421356237312623
10
-187.05560371432867
20
-7.3451395568889311
10
-187.05560371432867
20
-29.345139556888931
42
0.41421356237312884
0
LWPOLYLINE
5
639
100
AcDbEntity
8
0
100
AcDbPolyline
90
8
70
1
43
0.0
10
58.7131462856713
20
27.304860443111032
10
89.713146285671286
20
27.304860443111032
42
0.41421356237308982
10
90.213146285671286
20
27.804860443111032
10
90.213146285671286
20
50.804860443111039
42
0.41421356237308982
10
89.713146285671286
20
51.304860443111039
10
58.7131462856713
20
51.304860443111025
42
0.4142135623730846
10
58.2131462856713
20
50.804860443111046
10
58.2131462856713
20
27.804860443111032
42
0.41421356237309503
0
LWPOLYLINE
5
640
100
AcDbEntity
8
0
100
AcDbPolyline
90
8
70
1
43
0.0
10
56.331896285671277
20
-10.795139556888941
10
87.331896285671263
20
-10.795139556888941
42
0.41421356237305601
10
87.831896285671263
20
-10.295139556888941
10
87.831896285671277
20
12.704860443111057
42
0.41421356237306772
10
87.331896285671263
20
13.204860443111057
10
56.33189628567127
20
13.204860443111057
42
0.41421356237309243
10
55.831896285671277
20
12.704860443111057
10
55.831896285671277
20
-10.295139556888941
42
0.41421356237309631
0
ENDSEC
0
SECTION
2
OBJECTS
0
DICTIONARY
5
C
100
AcDbDictionary
3
ACAD_GROUP
350
D
3
ACAD_MLINESTYLE
350
17
0
DICTIONARY
5
D
100
AcDbDictionary
0
DICTIONARY
5
1A
330
C
100
AcDbDictionary
0
DICTIONARY
5
17
100
AcDbDictionary
0
ENDSEC
0
EOF
