0
SECTION
2
HEADER
9
$INSUNITS
70
4
9
$ACADVER
1
AC1014
9
$HANDSEED
5
FFFF
0
ENDSEC
0
SECTION
2
TABLES
0
TABLE
2
VPORT
5
8
100
AcDbSymbolTable
0
ENDTAB
0
TABLE
2
LTYPE
5
5
100
AcDbSymbolTable
0
LTYPE
5
14
100
AcDbSymbolTableRecord
100
AcDbLinetypeTableRecord
2
BYBLOCK
70
0
0
LTYPE
5
15
100
AcDbSymbolTableRecord
100
AcDbLinetypeTableRecord
2
BYLAYER
70
0
0
ENDTAB
0
TABLE
2
LAYER
5
2
100
AcDbSymbolTable
70
2
0
LAYER
5
50
100
AcDbSymbolTableRecord
100
AcDbLayerTableRecord
2
0
70
0
6
CONTINUOUS
0
ENDTAB
0
TABLE
2
STYLE
5
3
100
AcDbSymbolTable
70
1
0
STYLE
5
11
100
AcDbSymbolTableRecord
100
AcDbTextStyleTableRecord
2
STANDARD
70
0
0
ENDTAB
0
TABLE
2
VIEW
5
6
100
AcDbSymbolTable
70
0
0
ENDTAB
0
TABLE
2
UCS
5
7
100
AcDbSymbolTable
70
0
0
ENDTAB
0
TABLE
2
APPID
5
9
100
AcDbSymbolTable
70
2
0
APPID
5
12
100
AcDbSymbolTableRecord
100
AcDbRegAppTableRecord
2
ACAD
70
0
0
ENDTAB
0
TABLE
2
DIMSTYLE
5
A
100
AcDbSymbolTable
70
1
0
ENDTAB
0
TABLE
2
BLOCK_RECORD
5
1
100
AcDbSymbolTable
70
1
0
BLOCK_RECORD
5
1F
100
AcDbSymbolTableRecord
100
AcDbBlockTableRecord
2
*MODEL_SPACE
0
BLOCK_RECORD
5
1B
100
AcDbSymbolTableRecord
100
AcDbBlockTableRecord
2
*PAPER_SPACE
0
ENDTAB
0
ENDSEC
0
SECTION
2
BLOCKS
0
BLOCK
5
20
100
AcDbEntity
100
AcDbBlockBegin
2
*MODEL_SPACE
0
ENDBLK
5
21
100
AcDbEntity
100
AcDbBlockEnd
0
BLOCK
5
1C
100
AcDbEntity
100
AcDbBlockBegin
2
*PAPER_SPACE
0
ENDBLK
5
1D
100
AcDbEntity
100
AcDbBlockEnd
0
ENDSEC
0
SECTION
2
ENTITIES
0
CIRCLE
5
100
100
AcDbEntity
8
0
100
AcDbCircle
10
-180.65750000000003
20
57.149999999999999
30
0
40
0.87500000000000011
210
0
220
0
230
1
0
CIRCLE
5
101
100
AcDbEntity
8
0
100
AcDbCircle
10
-191.45250000000001
20
73.659999999999997
30
0
40
0.73499999999999999
210
0
220
0
230
1
0
CIRCLE
5
102
100
AcDbEntity
8
0
100
AcDbCircle
10
-185.73750000000001
20
57.149999999999999
30
0
40
1.9939
210
0
220
0
230
1
0
LINE
5
103
100
AcDbEntity
8
0
100
AcDbLine
10
-357.1875
20
43.656250000000007
30
0
11
-357.1875
21
-7.1437499999999954
31
0
0
LINE
5
104
100
AcDbEntity
8
0
100
AcDbLine
10
-334.16874999999999
20
-9.5249999999999986
30
0
11
-242.09375
21
-9.5250000000000021
31
0
0
LINE
5
105
100
AcDbEntity
8
0
100
AcDbLine
10
-234.15625000000003
20
-9.5249999999999986
30
0
11
-132.55625000000003
21
-9.5250000000000021
31
0
0
LINE
5
106
100
AcDbEntity
8
0
100
AcDbLine
10
-124.61875000000001
20
-9.5249999999999986
30
0
11
-42.068750000000001
21
-9.5250000000000021
31
0
0
LINE
5
107
100
AcDbEntity
8
0
100
AcDbLine
10
-37.306250000000006
20
103.98125
30
0
11
-37.306249999999999
21
101.59999999999999
31
0
0
CIRCLE
5
108
100
AcDbEntity
8
0
100
AcDbCircle
10
-190.1825
20
76.200000000000017
30
0
40
0.87500000000000011
210
0
220
0
230
1
0
CIRCLE
5
109
100
AcDbEntity
8
0
100
AcDbCircle
10
-295.59249999999997
20
76.200000000000017
30
0
40
0.87500000000000011
210
0
220
0
230
1
0
ARC
5
110
100
AcDbEntity
8
0
100
AcDbCircle
10
-178.71250000000001
20
71.700000000000003
30
0
40
0.73499999999081256
210
0
220
0
230
1
100
AcDbArc
50
-27.24203677048428
51
199.35166431236024
0
CIRCLE
5
111
100
AcDbEntity
8
0
100
AcDbCircle
10
-285.4325
20
76.200000000000017
30
0
40
0.87500000000000011
210
0
220
0
230
1
0
CIRCLE
5
112
100
AcDbEntity
8
0
100
AcDbCircle
10
-181.92750000000001
20
54.609999999999999
30
0
40
0.73499999999999999
210
0
220
0
230
1
0
LINE
5
113
100
AcDbEntity
8
0
100
AcDbLine
10
-354.80624999999998
20
-9.5250000000000004
30
0
11
-342.10624999999999
21
-9.5250000000000021
31
0
0
LINE
5
114
100
AcDbEntity
8
0
100
AcDbLine
10
-341.3125
20
-8.7312499999999993
30
0
11
-341.3125
21
-6.3499999999999996
31
0
0
ARC
5
115
100
AcDbEntity
8
0
100
AcDbCircle
10
-124.61875000000001
20
-8.7312499999999993
30
0
40
0.79374999999998863
210
0
220
0
230
1
100
AcDbArc
50
180
51
270
0
ARC
5
116
100
AcDbEntity
8
0
100
AcDbCircle
10
-116.8
20
14.550000000000001
30
0
40
0.73500000000690469
210
0
220
0
230
1
100
AcDbArc
50
-27.242036771672328
51
199.35166431355844
0
CIRCLE
5
117
100
AcDbEntity
8
0
100
AcDbCircle
10
-28.574999999999999
20
0
30
0
40
1.9939
210
0
220
0
230
1
0
CIRCLE
5
118
100
AcDbEntity
8
0
100
AcDbCircle
10
-343.85250000000008
20
35.560000000000002
30
0
40
0.73499999999999999
210
0
220
0
230
1
0
ARC
5
119
100
AcDbEntity
8
0
100
AcDbCircle
10
7.1437499999999998
20
-7.1437499999999998
30
0
40
2.3812500000000005
210
0
220
0
230
1
100
AcDbArc
50
-90
51
0
0
CIRCLE
5
120
100
AcDbEntity
8
0
100
AcDbCircle
10
0
20
0
30
0
40
1.9939
210
0
220
0
230
1
0
ARC
5
121
100
AcDbEntity
8
0
100
AcDbCircle
10
-121.60250000000002
20
-5.0800000000000001
30
0
40
0.7350000000000021
210
0
220
0
230
1
100
AcDbArc
50
-207.24203677123509
51
19.351664312857604
0
CIRCLE
5
122
100
AcDbEntity
8
0
100
AcDbCircle
10
-119.38000000000001
20
19.050000000000004
30
0
40
0.87500000000000011
210
0
220
0
230
1
0
CIRCLE
5
123
100
AcDbEntity
8
0
100
AcDbCircle
10
-333.6925
20
38.100000000000009
30
0
40
0.87500000000000011
210
0
220
0
230
1
0
CIRCLE
5
124
100
AcDbEntity
8
0
100
AcDbCircle
10
-352.74250000000001
20
38.100000000000009
30
0
40
0.87500000000000011
210
0
220
0
230
1
0
ARC
5
125
100
AcDbEntity
8
0
100
AcDbCircle
10
-2.54
20
-5.0800000000000001
30
0
40
0.73499999999999999
210
0
220
0
230
1
100
AcDbArc
50
-207.24203677116168
51
19.351664313086541
0
CIRCLE
5
126
100
AcDbEntity
8
0
100
AcDbCircle
10
-115.2525
20
-2.54
30
0
40
0.73499999999999999
210
0
220
0
230
1
0
CIRCLE
5
127
100
AcDbEntity
8
0
100
AcDbCircle
10
-119.0625
20
0
30
0
40
1.9939
210
0
220
0
230
1
0
ARC
5
128
100
AcDbEntity
8
0
100
AcDbCircle
10
-31.074999999999999
20
-4.5
30
0
40
0.7349999999999961
210
0
220
0
230
1
100
AcDbArc
50
-27.242036771160844
51
199.35166431308593
0
ARC
5
129
100
AcDbEntity
8
0
100
AcDbCircle
10
-31.114999999999998
20
-5.0800000000000001
30
0
40
0.73500000000000065
210
0
220
0
230
1
100
AcDbArc
50
-207.24203677116154
51
19.351664313086637
0
CIRCLE
5
130
100
AcDbEntity
8
0
100
AcDbCircle
10
-113.98250000000002
20
0
30
0
40
0.87500000000000011
210
0
220
0
230
1
0
ARC
5
131
100
AcDbEntity
8
0
100
AcDbCircle
10
-2.5
20
-4.5
30
0
40
0.73499999999999577
210
0
220
0
230
1
100
AcDbArc
50
-27.242036771160898
51
199.35166431308579
0
CIRCLE
5
132
100
AcDbEntity
8
0
100
AcDbCircle
10
-109.22
20
19.050000000000004
30
0
40
0.87500000000000011
210
0
220
0
230
1
0
ARC
5
133
100
AcDbEntity
8
0
100
AcDbCircle
10
-121.5625
20
-4.5
30
0
40
0.73500000000211241
210
0
220
0
230
1
100
AcDbArc
50
-27.242036771318396
51
199.35166431303466
0
CIRCLE
5
134
100
AcDbEntity
8
0
100
AcDbCircle
10
5.0800000000000001
20
0
30
0
40
0.87500000000000011
210
0
220
0
230
1
0
CIRCLE
5
135
100
AcDbEntity
8
0
100
AcDbCircle
10
-342.58249999999998
20
38.100000000000009
30
0
40
0.87500000000000011
210
0
220
0
230
1
0
ARC
5
136
100
AcDbEntity
8
0
100
AcDbCircle
10
-116.84
20
13.970000000000002
30
0
40
0.73500000000000176
210
0
220
0
230
1
100
AcDbArc
50
-207.24203677047223
51
19.351664312343747
0
CIRCLE
5
137
100
AcDbEntity
8
0
100
AcDbCircle
10
-124.14250000000001
20
0
30
0
40
0.87500000000000011
210
0
220
0
230
1
0
ARC
5
138
100
AcDbEntity
8
0
100
AcDbCircle
10
-34.131250000000001
20
-8.7312499999999993
30
0
40
0.79374999999999307
210
0
220
0
230
1
100
AcDbArc
50
180
51
270
0
CIRCLE
5
139
100
AcDbEntity
8
0
100
AcDbCircle
10
-347.66250000000008
20
38.100000000000009
30
0
40
1.9939
210
0
220
0
230
1
0
CIRCLE
5
140
100
AcDbEntity
8
0
100
AcDbCircle
10
-5.0800000000000001
20
0
30
0
40
0.87500000000000011
210
0
220
0
230
1
0
CIRCLE
5
141
100
AcDbEntity
8
0
100
AcDbCircle
10
-114.3
20
19.050000000000004
30
0
40
1.9939
210
0
220
0
230
1
0
CIRCLE
5
142
100
AcDbEntity
8
0
100
AcDbCircle
10
-110.48999999999999
20
16.510000000000002
30
0
40
0.73499999999999999
210
0
220
0
230
1
0
CIRCLE
5
143
100
AcDbEntity
8
0
100
AcDbCircle
10
3.8100000000000001
20
-2.54
30
0
40
0.73499999999999999
210
0
220
0
230
1
0
CIRCLE
5
144
100
AcDbEntity
8
0
100
AcDbCircle
10
-323.53250000000003
20
38.100000000000009
30
0
40
0.87500000000000011
210
0
220
0
230
1
0
CIRCLE
5
145
100
AcDbEntity
8
0
100
AcDbCircle
10
-24.765000000000001
20
-2.54
30
0
40
0.73499999999999999
210
0
220
0
230
1
0
ARC
5
146
100
AcDbEntity
8
0
100
AcDbCircle
10
-334.16874999999999
20
-8.7312499999999993
30
0
40
0.79374999999998863
210
0
220
0
230
1
100
AcDbArc
50
180
51
270
0
CIRCLE
5
147
100
AcDbEntity
8
0
100
AcDbCircle
10
-333.6925
20
0
30
0
40
0.87500000000000011
210
0
220
0
230
1
0
CIRCLE
5
148
100
AcDbEntity
8
0
100
AcDbCircle
10
-328.61250000000007
20
38.100000000000009
30
0
40
1.9939
210
0
220
0
230
1
0
CIRCLE
5
149
100
AcDbEntity
8
0
100
AcDbCircle
10
-90.170000000000016
20
19.050000000000004
30
0
40
0.87500000000000011
210
0
220
0
230
1
0
CIRCLE
5
150
100
AcDbEntity
8
0
100
AcDbCircle
10
-323.53250000000003
20
0
30
0
40
0.87500000000000011
210
0
220
0
230
1
0
CIRCLE
5
151
100
AcDbEntity
8
0
100
AcDbCircle
10
-333.6925
20
19.050000000000004
30
0
40
0.87500000000000011
210
0
220
0
230
1
0
ARC
5
152
100
AcDbEntity
8
0
100
AcDbCircle
10
-331.11250000000007
20
33.600000000000001
30
0
40
0.73499999999091858
210
0
220
0
230
1
100
AcDbArc
50
-27.242036770476236
51
199.3516643123663
0
CIRCLE
5
153
100
AcDbEntity
8
0
100
AcDbCircle
10
-90.805000000000007
20
0
30
0
40
0.87500000000000011
210
0
220
0
230
1
0
CIRCLE
5
154
100
AcDbEntity
8
0
100
AcDbCircle
10
-100.33000000000001
20
19.050000000000004
30
0
40
0.87500000000000011
210
0
220
0
230
1
0
CIRCLE
5
155
100
AcDbEntity
8
0
100
AcDbCircle
10
-81.280000000000001
20
19.050000000000004
30
0
40
0.87500000000000011
210
0
220
0
230
1
0
ARC
5
156
100
AcDbEntity
8
0
100
AcDbCircle
10
-331.15249999999997
20
33.020000000000003
30
0
40
0.73499999999999055
210
0
220
0
230
1
100
AcDbArc
50
-207.24203677221388
51
19.35166431407271
0
LINE
5
157
100
AcDbEntity
8
0
100
AcDbLine
10
-125.41249999999999
20
-6.3499999999999996
30
0
11
-125.41249999999999
21
-8.7312499999999993
31
0
0
ARC
5
158
100
AcDbEntity
8
0
100
AcDbCircle
10
-331.15249999999997
20
-5.0800000000000001
30
0
40
0.73500000000000054
210
0
220
0
230
1
100
AcDbArc
50
-207.24203677242065
51
19.351664314072906
0
CIRCLE
5
159
100
AcDbEntity
8
0
100
AcDbCircle
10
-80.64500000000001
20
0
30
0
40
0.87500000000000011
210
0
220
0
230
1
0
ARC
5
160
100
AcDbEntity
8
0
100
AcDbCircle
10
-350.16250000000008
20
33.600000000000001
30
0
40
0.73499999999091858
210
0
220
0
230
1
100
AcDbArc
50
-27.242036770476236
51
199.3516643123663
0
CIRCLE
5
161
100
AcDbEntity
8
0
100
AcDbCircle
10
-352.74250000000001
20
19.050000000000004
30
0
40
0.87500000000000011
210
0
220
0
230
1
0
ARC
5
162
100
AcDbEntity
8
0
100
AcDbCircle
10
-350.20249999999999
20
33.020000000000003
30
0
40
0.73499999999999055
210
0
220
0
230
1
100
AcDbArc
50
-207.24203677221388
51
19.35166431407271
0
CIRCLE
5
163
100
AcDbEntity
8
0
100
AcDbCircle
10
-324.80250000000007
20
-2.54
30
0
40
0.73499999999999999
210
0
220
0
230
1
0
CIRCLE
5
164
100
AcDbEntity
8
0
100
AcDbCircle
10
-328.61250000000007
20
0
30
0
40
1.9939
210
0
220
0
230
1
0
ARC
5
165
100
AcDbEntity
8
0
100
AcDbCircle
10
-331.11250000000007
20
-4.5
30
0
40
0.73499999999091736
210
0
220
0
230
1
100
AcDbArc
50
-27.242036770476187
51
199.35166431222305
0
ARC
5
166
100
AcDbEntity
8
0
100
AcDbCircle
10
-338.13749999999999
20
-6.3499999999999996
30
0
40
3.1750000000000256
210
0
220
0
230
1
100
AcDbArc
50
0
51
180
0
CIRCLE
5
167
100
AcDbEntity
8
0
100
AcDbCircle
10
-33.655000000000001
20
0
30
0
40
0.87500000000000011
210
0
220
0
230
1
0
CIRCLE
5
168
100
AcDbEntity
8
0
100
AcDbCircle
10
-85.724999999999994
20
0
30
0
40
1.9939
210
0
220
0
230
1
0
CIRCLE
5
169
100
AcDbEntity
8
0
100
AcDbCircle
10
-81.91500000000002
20
-2.54
30
0
40
0.73499999999999999
210
0
220
0
230
1
0
LINE
5
170
100
AcDbEntity
8
0
100
AcDbLine
10
-334.96249999999998
20
-6.3499999999999996
30
0
11
-334.96249999999998
21
-8.7312499999999993
31
0
0
CIRCLE
5
171
100
AcDbEntity
8
0
100
AcDbCircle
10
-23.495000000000005
20
0
30
0
40
0.87500000000000011
210
0
220
0
230
1
0
CIRCLE
5
172
100
AcDbEntity
8
0
100
AcDbCircle
10
-324.80250000000007
20
35.560000000000002
30
0
40
0.73499999999999999
210
0
220
0
230
1
0
CIRCLE
5
173
100
AcDbEntity
8
0
100
AcDbCircle
10
-95.25
20
19.050000000000004
30
0
40
1.9939
210
0
220
0
230
1
0
CIRCLE
5
174
100
AcDbEntity
8
0
100
AcDbCircle
10
-347.66250000000008
20
19.050000000000004
30
0
40
1.9939
210
0
220
0
230
1
0
CIRCLE
5
175
100
AcDbEntity
8
0
100
AcDbCircle
10
-343.85250000000008
20
16.510000000000002
30
0
40
0.73499999999999999
210
0
220
0
230
1
0
CIRCLE
5
176
100
AcDbEntity
8
0
100
AcDbCircle
10
-91.439999999999998
20
16.510000000000002
30
0
40
0.73499999999999999
210
0
220
0
230
1
0
ARC
5
177
100
AcDbEntity
8
0
100
AcDbCircle
10
-350.20249999999999
20
13.970000000000002
30
0
40
0.73500000000000509
210
0
220
0
230
1
100
AcDbArc
50
-207.24203676942051
51
19.35166431161003
0
CIRCLE
5
178
100
AcDbEntity
8
0
100
AcDbCircle
10
-342.58249999999998
20
19.050000000000004
30
0
40
0.87500000000000011
210
0
220
0
230
1
0
ARC
5
179
100
AcDbEntity
8
0
100
AcDbCircle
10
-88.224999999999994
20
-4.5
30
0
40
0.73499999999930177
210
0
220
0
230
1
100
AcDbArc
50
-27.242036771111128
51
199.35166431303753
0
ARC
5
180
100
AcDbEntity
8
0
100
AcDbCircle
10
-97.79000000000002
20
13.970000000000002
30
0
40
0.73500000000000398
210
0
220
0
230
1
100
AcDbArc
50
-207.24203677025807
51
19.351664312471151
0
CIRCLE
5
181
100
AcDbEntity
8
0
100
AcDbCircle
10
-352.74250000000001
20
0
30
0
40
0.87500000000000011
210
0
220
0
230
1
0
ARC
5
182
100
AcDbEntity
8
0
100
AcDbCircle
10
-350.16250000000008
20
-4.5
30
0
40
0.73500000001115995
210
0
220
0
230
1
100
AcDbArc
50
-27.242036771969016
51
199.35166431385551
0
ARC
5
183
100
AcDbEntity
8
0
100
AcDbCircle
10
-331.11250000000007
20
14.550000000000001
30
0
40
0.7350000000138045
210
0
220
0
230
1
100
AcDbArc
50
-27.24203677217389
51
199.35166431428422
0
CIRCLE
5
184
100
AcDbEntity
8
0
100
AcDbCircle
10
-343.85250000000008
20
-2.54
30
0
40
0.73499999999999999
210
0
220
0
230
1
0
ARC
5
185
100
AcDbEntity
8
0
100
AcDbCircle
10
-350.20249999999999
20
-5.0800000000000001
30
0
40
0.73499999999998333
210
0
220
0
230
1
100
AcDbArc
50
-207.24203677004641
51
19.351664311902127
0
ARC
5
186
100
AcDbEntity
8
0
100
AcDbCircle
10
-354.80624999999998
20
-7.1437499999999998
30
0
40
2.3812500000000369
210
0
220
0
230
1
100
AcDbArc
50
180
51
270
0
ARC
5
187
100
AcDbEntity
8
0
100
AcDbCircle
10
-97.75
20
14.550000000000001
30
0
40
0.73500000000572041
210
0
220
0
230
1
100
AcDbArc
50
-27.242036771583479
51
199.3516643137057
0
CIRCLE
5
188
100
AcDbEntity
8
0
100
AcDbCircle
10
-323.53250000000003
20
19.050000000000004
30
0
40
0.87500000000000011
210
0
220
0
230
1
0
CIRCLE
5
189
100
AcDbEntity
8
0
100
AcDbCircle
10
-324.80250000000007
20
16.510000000000002
30
0
40
0.73499999999999999
210
0
220
0
230
1
0
ARC
5
190
100
AcDbEntity
8
0
100
AcDbCircle
10
-88.265000000000015
20
-5.0800000000000001
30
0
40
0.73499999999999799
210
0
220
0
230
1
100
AcDbArc
50
-207.2420367712316
51
19.35166431315989
0
ARC
5
191
100
AcDbEntity
8
0
100
AcDbCircle
10
-350.16250000000008
20
14.550000000000001
30
0
40
0.7350000000138045
210
0
220
0
230
1
100
AcDbArc
50
-27.242036772175926
51
199.35166431428422
0
ARC
5
192
100
AcDbEntity
8
0
100
AcDbCircle
10
-342.10624999999999
20
-8.7312499999999993
30
0
40
0.79375000000000195
210
0
220
0
230
1
100
AcDbArc
50
-90
51
0
0
CIRCLE
5
193
100
AcDbEntity
8
0
100
AcDbCircle
10
-342.58249999999998
20
0
30
0
40
0.87500000000000011
210
0
220
0
230
1
0
CIRCLE
5
194
100
AcDbEntity
8
0
100
AcDbCircle
10
-328.61250000000007
20
19.050000000000004
30
0
40
1.9939
210
0
220
0
230
1
0
CIRCLE
5
195
100
AcDbEntity
8
0
100
AcDbCircle
10
-347.66250000000008
20
0
30
0
40
1.9939
210
0
220
0
230
1
0
ARC
5
196
100
AcDbEntity
8
0
100
AcDbCircle
10
-331.15249999999997
20
13.970000000000002
30
0
40
0.73500000000000509
210
0
220
0
230
1
100
AcDbArc
50
-207.24203676942051
51
19.35166431160857
0
ARC
5
197
100
AcDbEntity
8
0
100
AcDbCircle
10
-44.450000000000003
20
103.98125
30
0
40
0.79374999999999751
210
0
220
0
230
1
100
AcDbArc
50
0
51
90
0
ARC
5
198
100
AcDbEntity
8
0
100
AcDbCircle
10
-40.481250000000003
20
101.59999999999999
30
0
40
3.1749999999999989
210
0
220
0
230
1
100
AcDbArc
50
-180
51
0
0
CIRCLE
5
199
100
AcDbEntity
8
0
100
AcDbCircle
10
-138.43000000000001
20
95.25
30
0
40
0.87500000000000011
210
0
220
0
230
1
0
CIRCLE
5
200
100
AcDbEntity
8
0
100
AcDbCircle
10
-133.35000000000002
20
95.25
30
0
40
1.9939
210
0
220
0
230
1
0
ARC
5
201
100
AcDbEntity
8
0
100
AcDbCircle
10
-36.512500000000003
20
103.98125
30
0
40
0.79375000000000639
210
0
220
0
230
1
100
AcDbArc
50
90.000000000000526
51
180
0
CIRCLE
5
202
100
AcDbEntity
8
0
100
AcDbCircle
10
-209.23249999999999
20
76.200000000000017
30
0
40
0.87500000000000011
210
0
220
0
230
1
0
ARC
5
203
100
AcDbEntity
8
0
100
AcDbCircle
10
-293.05250000000001
20
52.070000000000007
30
0
40
0.73499999999999077
210
0
220
0
230
1
100
AcDbArc
50
-207.242036769425
51
19.351664311605518
0
ARC
5
204
100
AcDbEntity
8
0
100
AcDbCircle
10
-216.85249999999999
20
71.120000000000005
30
0
40
0.73500000000000609
210
0
220
0
230
1
100
AcDbArc
50
-207.24203676942051
51
19.351664311606267
0
ARC
5
205
100
AcDbEntity
8
0
100
AcDbCircle
10
-312.10250000000002
20
52.070000000000007
30
0
40
0.73499999999999077
210
0
220
0
230
1
100
AcDbArc
50
-207.242036769425
51
19.351664311606996
0
ARC
5
206
100
AcDbEntity
8
0
100
AcDbCircle
10
-207.28750000000002
20
52.650000000000006
30
0
40
0.7350000000069572
210
0
220
0
230
1
100
AcDbArc
50
-27.242036771670392
51
199.35166431308298
0
ARC
5
207
100
AcDbEntity
8
0
100
AcDbCircle
10
-216.81250000000003
20
71.700000000000003
30
0
40
0.7350000000138146
210
0
220
0
230
1
100
AcDbArc
50
-27.242036772176384
51
199.35166431428274
0
ARC
5
208
100
AcDbEntity
8
0
100
AcDbCircle
10
-293.01249999999999
20
52.650000000000006
30
0
40
0.73500000001378307
210
0
220
0
230
1
100
AcDbArc
50
-27.2420367721774
51
199.35166431428016
0
CIRCLE
5
209
100
AcDbEntity
8
0
100
AcDbCircle
10
-223.83750000000003
20
57.149999999999999
30
0
40
1.9939
210
0
220
0
230
1
0
ARC
5
210
100
AcDbEntity
8
0
100
AcDbCircle
10
-216.85249999999999
20
90.170000000000016
30
0
40
0.73499999999998877
210
0
220
0
230
1
100
AcDbArc
50
-207.24203677116552
51
19.351664312341306
0
CIRCLE
5
211
100
AcDbEntity
8
0
100
AcDbCircle
10
-209.23249999999999
20
95.25
30
0
40
0.87500000000000011
210
0
220
0
230
1
0
CIRCLE
5
212
100
AcDbEntity
8
0
100
AcDbCircle
10
-294.95749999999998
20
95.25
30
0
40
0.87500000000000011
210
0
220
0
230
1
0
CIRCLE
5
213
100
AcDbEntity
8
0
100
AcDbCircle
10
-186.69
20
16.510000000000002
30
0
40
0.73499999999999999
210
0
220
0
230
1
0
CIRCLE
5
214
100
AcDbEntity
8
0
100
AcDbCircle
10
-300.03750000000002
20
95.25
30
0
40
1.9939
210
0
220
0
230
1
0
CIRCLE
5
215
100
AcDbEntity
8
0
100
AcDbCircle
10
-185.41999999999999
20
19.050000000000004
30
0
40
0.87500000000000011
210
0
220
0
230
1
0
CIRCLE
5
216
100
AcDbEntity
8
0
100
AcDbCircle
10
-219.39250000000001
20
95.25
30
0
40
0.87500000000000011
210
0
220
0
230
1
0
CIRCLE
5
217
100
AcDbEntity
8
0
100
AcDbCircle
10
-214.31250000000003
20
95.25
30
0
40
1.9939
210
0
220
0
230
1
0
CIRCLE
5
218
100
AcDbEntity
8
0
100
AcDbCircle
10
-195.58000000000004
20
19.050000000000004
30
0
40
0.87500000000000011
210
0
220
0
230
1
0
CIRCLE
5
219
100
AcDbEntity
8
0
100
AcDbCircle
10
-180.97499999999999
20
38.100000000000009
30
0
40
1.9939
210
0
220
0
230
1
0
ARC
5
220
100
AcDbEntity
8
0
100
AcDbCircle
10
-216.81250000000003
20
90.750000000000014
30
0
40
0.7350000000069612
210
0
220
0
230
1
100
AcDbArc
50
-27.242036771671362
51
199.35166431308451
0
CIRCLE
5
221
100
AcDbEntity
8
0
100
AcDbCircle
10
-210.50250000000003
20
92.709999999999994
30
0
40
0.73499999999999999
210
0
220
0
230
1
0
CIRCLE
5
222
100
AcDbEntity
8
0
100
AcDbCircle
10
-190.5
20
19.050000000000004
30
0
40
1.9939
210
0
220
0
230
1
0
CIRCLE
5
223
100
AcDbEntity
8
0
100
AcDbCircle
10
-305.11750000000001
20
95.25
30
0
40
0.87500000000000011
210
0
220
0
230
1
0
CIRCLE
5
224
100
AcDbEntity
8
0
100
AcDbCircle
10
-176.53000000000003
20
19.050000000000004
30
0
40
0.87500000000000011
210
0
220
0
230
1
0
CIRCLE
5
225
100
AcDbEntity
8
0
100
AcDbCircle
10
-176.21250000000001
20
0
30
0
40
1.9939
210
0
220
0
230
1
0
CIRCLE
5
226
100
AcDbEntity
8
0
100
AcDbCircle
10
-181.29249999999999
20
0
30
0
40
0.87500000000000011
210
0
220
0
230
1
0
CIRCLE
5
227
100
AcDbEntity
8
0
100
AcDbCircle
10
-213.99500000000003
20
38.100000000000009
30
0
40
0.87500000000000011
210
0
220
0
230
1
0
CIRCLE
5
228
100
AcDbEntity
8
0
100
AcDbCircle
10
-215.26499999999999
20
35.560000000000002
30
0
40
0.73499999999999999
210
0
220
0
230
1
0
CIRCLE
5
229
100
AcDbEntity
8
0
100
AcDbCircle
10
-219.07499999999999
20
38.100000000000009
30
0
40
1.9939
210
0
220
0
230
1
0
CIRCLE
5
230
100
AcDbEntity
8
0
100
AcDbCircle
10
-228.91750000000002
20
57.149999999999999
30
0
40
0.87500000000000011
210
0
220
0
230
1
0
CIRCLE
5
231
100
AcDbEntity
8
0
100
AcDbCircle
10
-333.6925
20
95.25
30
0
40
0.87500000000000011
210
0
220
0
230
1
0
CIRCLE
5
232
100
AcDbEntity
8
0
100
AcDbCircle
10
-236.69624999999999
20
73.659999999999997
30
0
40
0.73499999999999999
210
0
220
0
230
1
0
CIRCLE
5
233
100
AcDbEntity
8
0
100
AcDbCircle
10
-28.2575
20
57.149999999999999
30
0
40
0.87500000000000011
210
0
220
0
230
1
0
CIRCLE
5
234
100
AcDbEntity
8
0
100
AcDbCircle
10
-205.10500000000002
20
38.100000000000009
30
0
40
0.87500000000000011
210
0
220
0
230
1
0
CIRCLE
5
235
100
AcDbEntity
8
0
100
AcDbCircle
10
-42.862499999999997
20
76.200000000000017
30
0
40
1.9939
210
0
220
0
230
1
0
CIRCLE
5
236
100
AcDbEntity
8
0
100
AcDbCircle
10
-333.6925
20
76.200000000000017
30
0
40
0.87500000000000011
210
0
220
0
230
1
0
CIRCLE
5
237
100
AcDbEntity
8
0
100
AcDbCircle
10
-240.50624999999999
20
76.200000000000017
30
0
40
1.9939
210
0
220
0
230
1
0
CIRCLE
5
238
100
AcDbEntity
8
0
100
AcDbCircle
10
-38.417499999999997
20
57.149999999999999
30
0
40
0.87500000000000011
210
0
220
0
230
1
0
ARC
5
239
100
AcDbEntity
8
0
100
AcDbCircle
10
-243.04625000000001
20
71.120000000000005
30
0
40
0.7350000000000102
210
0
220
0
230
1
100
AcDbArc
50
-207.2420367694215
51
19.351664311606267
0
CIRCLE
5
240
100
AcDbEntity
8
0
100
AcDbCircle
10
-328.61250000000007
20
95.25
30
0
40
1.9939
210
0
220
0
230
1
0
CIRCLE
5
241
100
AcDbEntity
8
0
100
AcDbCircle
10
-37.782499999999999
20
76.200000000000017
30
0
40
0.87500000000000011
210
0
220
0
230
1
0
CIRCLE
5
242
100
AcDbEntity
8
0
100
AcDbCircle
10
-324.80250000000007
20
73.659999999999997
30
0
40
0.73499999999999999
210
0
220
0
230
1
0
ARC
5
243
100
AcDbEntity
8
0
100
AcDbCircle
10
-226.33750000000003
20
52.650000000000006
30
0
40
0.7350000000069572
210
0
220
0
230
1
100
AcDbArc
50
-27.242036771670392
51
199.35166431308298
0
ARC
5
244
100
AcDbEntity
8
0
100
AcDbCircle
10
-226.3775
20
52.070000000000007
30
0
40
0.73499999999999277
210
0
220
0
230
1
100
AcDbArc
50
-207.24203677116697
51
19.351664312342361
0
ARC
5
245
100
AcDbEntity
8
0
100
AcDbCircle
10
-243.00624999999999
20
71.700000000000003
30
0
40
0.73500000001378307
210
0
220
0
230
1
100
AcDbArc
50
-27.24203677217842
51
199.35166431428027
0
CIRCLE
5
246
100
AcDbEntity
8
0
100
AcDbCircle
10
-115.2525
20
73.659999999999997
30
0
40
0.73499999999999999
210
0
220
0
230
1
0
CIRCLE
5
247
100
AcDbEntity
8
0
100
AcDbCircle
10
-47.307499999999997
20
57.149999999999999
30
0
40
0.87500000000000011
210
0
220
0
230
1
0
CIRCLE
5
248
100
AcDbEntity
8
0
100
AcDbCircle
10
-245.58625000000004
20
76.200000000000017
30
0
40
0.87500000000000011
210
0
220
0
230
1
0
ARC
5
249
100
AcDbEntity
8
0
100
AcDbCircle
10
-221.57499999999999
20
33.600000000000001
30
0
40
0.73500000000689802
210
0
220
0
230
1
100
AcDbArc
50
-27.242036771673909
51
199.35166431308127
0
CIRCLE
5
250
100
AcDbEntity
8
0
100
AcDbCircle
10
-324.80250000000007
20
92.709999999999994
30
0
40
0.73499999999999999
210
0
220
0
230
1
0
CIRCLE
5
251
100
AcDbEntity
8
0
100
AcDbCircle
10
-235.42625000000001
20
76.200000000000017
30
0
40
0.87500000000000011
210
0
220
0
230
1
0
ARC
5
252
100
AcDbEntity
8
0
100
AcDbCircle
10
-202.56500000000003
20
33.020000000000003
30
0
40
0.73499999999999077
210
0
220
0
230
1
100
AcDbArc
50
-207.24203676942398
51
19.351664311606267
0
CIRCLE
5
253
100
AcDbEntity
8
0
100
AcDbCircle
10
-323.53250000000003
20
76.200000000000017
30
0
40
0.87500000000000011
210
0
220
0
230
1
0
CIRCLE
5
254
100
AcDbEntity
8
0
100
AcDbCircle
10
-323.53250000000003
20
95.25
30
0
40
0.87500000000000011
210
0
220
0
230
1
0
CIRCLE
5
255
100
AcDbEntity
8
0
100
AcDbCircle
10
-47.94250000000001
20
76.200000000000017
30
0
40
0.87500000000000011
210
0
220
0
230
1
0
ARC
5
256
100
AcDbEntity
8
0
100
AcDbCircle
10
-121.60250000000002
20
71.120000000000005
30
0
40
0.73500000000000454
210
0
220
0
230
1
100
AcDbArc
50
-207.24203677116648
51
19.351664313078821
0
ARC
5
257
100
AcDbEntity
8
0
100
AcDbCircle
10
-102.55250000000001
20
71.120000000000005
30
0
40
0.73500000000000454
210
0
220
0
230
1
100
AcDbArc
50
-207.24203677116648
51
19.351664312343765
0
CIRCLE
5
258
100
AcDbEntity
8
0
100
AcDbCircle
10
-29.5275
20
54.609999999999999
30
0
40
0.73499999999999999
210
0
220
0
230
1
0
ARC
5
259
100
AcDbEntity
8
0
100
AcDbCircle
10
-83.502500000000012
20
71.120000000000005
30
0
40
0.73499999999999877
210
0
220
0
230
1
100
AcDbArc
50
-207.24203677102329
51
19.351664312497206
0
ARC
5
260
100
AcDbEntity
8
0
100
AcDbCircle
10
-102.5125
20
71.700000000000003
30
0
40
0.73500000000691745
210
0
220
0
230
1
100
AcDbArc
50
-27.242036771671415
51
199.35166431308238
0
ARC
5
261
100
AcDbEntity
8
0
100
AcDbCircle
10
-121.5625
20
71.700000000000003
30
0
40
0.7350000000000565
210
0
220
0
230
1
100
AcDbArc
50
-27.242036771166951
51
199.35166431308198
0
ARC
5
262
100
AcDbEntity
8
0
100
AcDbCircle
10
-221.61500000000004
20
33.020000000000003
30
0
40
0.73499999999999077
210
0
220
0
230
1
100
AcDbArc
50
-207.24203677116648
51
19.351664312341825
0
ARC
5
263
100
AcDbEntity
8
0
100
AcDbCircle
10
-83.462500000000006
20
71.700000000000003
30
0
40
0.73500000000549914
210
0
220
0
230
1
100
AcDbArc
50
-27.242036771565211
51
199.35166431318089
0
CIRCLE
5
264
100
AcDbEntity
8
0
100
AcDbCircle
10
-200.02500000000001
20
38.100000000000009
30
0
40
1.9939
210
0
220
0
230
1
0
CIRCLE
5
265
100
AcDbEntity
8
0
100
AcDbCircle
10
-224.15500000000003
20
38.100000000000009
30
0
40
0.87500000000000011
210
0
220
0
230
1
0
CIRCLE
5
266
100
AcDbEntity
8
0
100
AcDbCircle
10
-39.052500000000009
20
73.659999999999997
30
0
40
0.73499999999999999
210
0
220
0
230
1
0
ARC
5
267
100
AcDbEntity
8
0
100
AcDbCircle
10
-202.52500000000001
20
33.600000000000001
30
0
40
0.73500000001378307
210
0
220
0
230
1
100
AcDbArc
50
-27.24203677217842
51
199.35166431427945
0
CIRCLE
5
268
100
AcDbEntity
8
0
100
AcDbCircle
10
-328.61250000000007
20
76.200000000000017
30
0
40
1.9939
210
0
220
0
230
1
0
CIRCLE
5
269
100
AcDbEntity
8
0
100
AcDbCircle
10
-33.337500000000006
20
57.149999999999999
30
0
40
1.9939
210
0
220
0
230
1
0
ARC
5
270
100
AcDbEntity
8
0
100
AcDbCircle
10
-323.05624999999998
20
103.98125
30
0
40
0.79374999999998863
210
0
220
0
230
1
100
AcDbArc
50
0
51
90
0
ARC
5
271
100
AcDbEntity
8
0
100
AcDbCircle
10
-45.362499999999997
20
71.700000000000003
30
0
40
0.73499999999838894
210
0
220
0
230
1
100
AcDbArc
50
-27.242036771041867
51
199.35166431315594
0
ARC
5
272
100
AcDbEntity
8
0
100
AcDbCircle
10
-35.837500000000006
20
52.650000000000006
30
0
40
0.73500000000547516
210
0
220
0
230
1
100
AcDbArc
50
-27.242036771564496
51
199.35166431318112
0
ARC
5
273
100
AcDbEntity
8
0
100
AcDbCircle
10
-331.11250000000007
20
90.750000000000014
30
0
40
0.73499999999085142
210
0
220
0
230
1
100
AcDbArc
50
-27.242036770478272
51
199.35166431236735
0
CIRCLE
5
274
100
AcDbEntity
8
0
100
AcDbCircle
10
-80.962500000000006
20
76.200000000000017
30
0
40
1.9939
210
0
220
0
230
1
0
CIRCLE
5
275
100
AcDbEntity
8
0
100
AcDbCircle
10
-124.14250000000001
20
76.200000000000017
30
0
40
0.87500000000000011
210
0
220
0
230
1
0
CIRCLE
5
276
100
AcDbEntity
8
0
100
AcDbCircle
10
-94.932500000000019
20
76.200000000000017
30
0
40
0.87500000000000011
210
0
220
0
230
1
0
CIRCLE
5
277
100
AcDbEntity
8
0
100
AcDbCircle
10
-96.202500000000001
20
73.659999999999997
30
0
40
0.73499999999999999
210
0
220
0
230
1
0
CIRCLE
5
278
100
AcDbEntity
8
0
100
AcDbCircle
10
-48.577500000000001
20
54.609999999999999
30
0
40
0.73499999999999999
210
0
220
0
230
1
0
CIRCLE
5
279
100
AcDbEntity
8
0
100
AcDbCircle
10
-86.042500000000004
20
76.200000000000017
30
0
40
0.87500000000000011
210
0
220
0
230
1
0
CIRCLE
5
280
100
AcDbEntity
8
0
100
AcDbCircle
10
-243.20500000000004
20
38.100000000000009
30
0
40
0.87500000000000011
210
0
220
0
230
1
0
CIRCLE
5
281
100
AcDbEntity
8
0
100
AcDbCircle
10
-228.59999999999999
20
19.050000000000004
30
0
40
1.9939
210
0
220
0
230
1
0
CIRCLE
5
282
100
AcDbEntity
8
0
100
AcDbCircle
10
-100.0125
20
76.200000000000017
30
0
40
1.9939
210
0
220
0
230
1
0
ARC
5
283
100
AcDbEntity
8
0
100
AcDbCircle
10
-331.15249999999997
20
71.120000000000005
30
0
40
0.7350000000000021
210
0
220
0
230
1
100
AcDbArc
50
-207.24203676942051
51
19.351664311606573
0
CIRCLE
5
284
100
AcDbEntity
8
0
100
AcDbCircle
10
-105.09250000000002
20
76.200000000000017
30
0
40
0.87500000000000011
210
0
220
0
230
1
0
CIRCLE
5
285
100
AcDbEntity
8
0
100
AcDbCircle
10
-119.0625
20
76.200000000000017
30
0
40
1.9939
210
0
220
0
230
1
0
CIRCLE
5
286
100
AcDbEntity
8
0
100
AcDbCircle
10
-233.68000000000001
20
19.050000000000004
30
0
40
0.87500000000000011
210
0
220
0
230
1
0
ARC
5
287
100
AcDbEntity
8
0
100
AcDbCircle
10
-45.402500000000003
20
71.120000000000005
30
0
40
0.73499999999999621
210
0
220
0
230
1
100
AcDbArc
50
-207.24203677105925
51
19.351664313259427
0
ARC
5
288
100
AcDbEntity
8
0
100
AcDbCircle
10
-331.15249999999997
20
90.170000000000016
30
0
40
0.73499999999998844
210
0
220
0
230
1
100
AcDbArc
50
-207.24203677221294
51
19.351664314074171
0
ARC
5
289
100
AcDbEntity
8
0
100
AcDbCircle
10
-331.11250000000007
20
71.700000000000003
30
0
40
0.73500000001387367
210
0
220
0
230
1
100
AcDbArc
50
-27.242036772172362
51
199.35166431428422
0
CIRCLE
5
290
100
AcDbEntity
8
0
100
AcDbCircle
10
-113.98250000000002
20
76.200000000000017
30
0
40
0.87500000000000011
210
0
220
0
230
1
0
ARC
5
291
100
AcDbEntity
8
0
100
AcDbCircle
10
-35.877499999999998
20
52.070000000000007
30
0
40
0.73499999999999877
210
0
220
0
230
1
100
AcDbArc
50
-207.24203677102304
51
19.351664312498798
0
CIRCLE
5
292
100
AcDbEntity
8
0
100
AcDbCircle
10
-286.70249999999999
20
73.659999999999997
30
0
40
0.73499999999999999
210
0
220
0
230
1
0
CIRCLE
5
293
100
AcDbEntity
8
0
100
AcDbCircle
10
-195.26250000000002
20
76.200000000000017
30
0
40
1.9939
210
0
220
0
230
1
0
CIRCLE
5
294
100
AcDbEntity
8
0
100
AcDbCircle
10
-190.8175
20
57.149999999999999
30
0
40
0.87500000000000011
210
0
220
0
230
1
0
CIRCLE
5
295
100
AcDbEntity
8
0
100
AcDbCircle
10
-81.91500000000002
20
35.560000000000002
30
0
40
0.73499999999999999
210
0
220
0
230
1
0
ARC
5
296
100
AcDbEntity
8
0
100
AcDbCircle
10
-293.05250000000001
20
-5.0800000000000001
30
0
40
0.73499999999999344
210
0
220
0
230
1
100
AcDbArc
50
-207.24203677004795
51
19.351664311901356
0
CIRCLE
5
297
100
AcDbEntity
8
0
100
AcDbCircle
10
-104.77500000000001
20
38.100000000000009
30
0
40
1.9939
210
0
220
0
230
1
0
CIRCLE
5
298
100
AcDbEntity
8
0
100
AcDbCircle
10
-100.965
20
35.560000000000002
30
0
40
0.73499999999999999
210
0
220
0
230
1
0
CIRCLE
5
299
100
AcDbEntity
8
0
100
AcDbCircle
10
-290.51249999999999
20
0
30
0
40
1.9939
210
0
220
0
230
1
0
ARC
5
300
100
AcDbEntity
8
0
100
AcDbCircle
10
-293.01249999999999
20
-4.5
30
0
40
0.73500000001103816
210
0
220
0
230
1
100
AcDbArc
50
-27.242036771973794
51
199.35166431385093
0
ARC
5
301
100
AcDbEntity
8
0
100
AcDbCircle
10
-312.10250000000002
20
-5.0800000000000001
30
0
40
0.73499999999999344
210
0
220
0
230
1
100
AcDbArc
50
-207.24203677004795
51
19.351664311901356
0
CIRCLE
5
302
100
AcDbEntity
8
0
100
AcDbCircle
10
-90.805000000000007
20
38.100000000000009
30
0
40
0.87500000000000011
210
0
220
0
230
1
0
CIRCLE
5
303
100
AcDbEntity
8
0
100
AcDbCircle
10
-85.724999999999994
20
38.100000000000009
30
0
40
1.9939
210
0
220
0
230
1
0
CIRCLE
5
304
100
AcDbEntity
8
0
100
AcDbCircle
10
-305.7525
20
-2.54
30
0
40
0.73499999999999999
210
0
220
0
230
1
0
CIRCLE
5
305
100
AcDbEntity
8
0
100
AcDbCircle
10
-285.4325
20
0
30
0
40
0.87500000000000011
210
0
220
0
230
1
0
CIRCLE
5
306
100
AcDbEntity
8
0
100
AcDbCircle
10
-123.825
20
38.100000000000009
30
0
40
1.9939
210
0
220
0
230
1
0
CIRCLE
5
307
100
AcDbEntity
8
0
100
AcDbCircle
10
-99.694999999999993
20
38.100000000000009
30
0
40
0.87500000000000011
210
0
220
0
230
1
0
CIRCLE
5
308
100
AcDbEntity
8
0
100
AcDbCircle
10
-118.745
20
38.100000000000009
30
0
40
0.87500000000000011
210
0
220
0
230
1
0
CIRCLE
5
309
100
AcDbEntity
8
0
100
AcDbCircle
10
-309.5625
20
0
30
0
40
1.9939
210
0
220
0
230
1
0
ARC
5
310
100
AcDbEntity
8
0
100
AcDbCircle
10
-312.0625
20
-4.5
30
0
40
0.73500000001103816
210
0
220
0
230
1
100
AcDbArc
50
-27.242036771973794
51
199.35166431385093
0
CIRCLE
5
311
100
AcDbEntity
8
0
100
AcDbCircle
10
-295.59249999999997
20
0
30
0
40
0.87500000000000011
210
0
220
0
230
1
0
CIRCLE
5
312
100
AcDbEntity
8
0
100
AcDbCircle
10
-304.48250000000002
20
0
30
0
40
0.87500000000000011
210
0
220
0
230
1
0
CIRCLE
5
313
100
AcDbEntity
8
0
100
AcDbCircle
10
-120.015
20
35.560000000000002
30
0
40
0.73499999999999999
210
0
220
0
230
1
0
CIRCLE
5
314
100
AcDbEntity
8
0
100
AcDbCircle
10
-286.70249999999999
20
-2.54
30
0
40
0.73499999999999999
210
0
220
0
230
1
0
CIRCLE
5
315
100
AcDbEntity
8
0
100
AcDbCircle
10
-109.85500000000002
20
38.100000000000009
30
0
40
0.87500000000000011
210
0
220
0
230
1
0
LINE
5
316
100
AcDbEntity
8
0
100
AcDbLine
10
-34.131250000000001
20
-9.5249999999999986
30
0
11
7.1437499999999998
21
-9.5250000000000004
31
0
0
CIRCLE
5
317
100
AcDbEntity
8
0
100
AcDbCircle
10
-314.64249999999998
20
0
30
0
40
0.87500000000000011
210
0
220
0
230
1
0
CIRCLE
5
318
100
AcDbEntity
8
0
100
AcDbCircle
10
-80.64500000000001
20
38.100000000000009
30
0
40
0.87500000000000011
210
0
220
0
230
1
0
LINE
5
319
100
AcDbEntity
8
0
100
AcDbLine
10
-34.925000000000004
20
-6.3499999999999996
30
0
11
-34.924999999999997
21
-8.7312499999999993
31
0
0
ARC
5
320
100
AcDbEntity
8
0
100
AcDbCircle
10
-69.175000000000011
20
-4.5
30
0
40
0.73499999999930965
210
0
220
0
230
1
100
AcDbArc
50
-27.242036771110158
51
199.35166431303784
0
CIRCLE
5
321
100
AcDbEntity
8
0
100
AcDbCircle
10
-19.050000000000004
20
19.050000000000004
30
0
40
1.9939
210
0
220
0
230
1
0
CIRCLE
5
322
100
AcDbEntity
8
0
100
AcDbCircle
10
-285.4325
20
38.100000000000009
30
0
40
0.87500000000000011
210
0
220
0
230
1
0
ARC
5
323
100
AcDbEntity
8
0
100
AcDbCircle
10
-21.550000000000004
20
14.550000000000001
30
0
40
0.73500000000548327
210
0
220
0
230
1
100
AcDbArc
50
-27.242036771565004
51
199.35166431318103
0
CIRCLE
5
324
100
AcDbEntity
8
0
100
AcDbCircle
10
-304.48250000000002
20
38.100000000000009
30
0
40
0.87500000000000011
210
0
220
0
230
1
0
CIRCLE
5
325
100
AcDbEntity
8
0
100
AcDbCircle
10
-290.51249999999999
20
38.100000000000009
30
0
40
1.9939
210
0
220
0
230
1
0
ARC
5
326
100
AcDbEntity
8
0
100
AcDbCircle
10
-159.70249999999999
20
-5.0800000000000001
30
0
40
0.73500000000000898
210
0
220
0
230
1
100
AcDbArc
50
-207.24203677081789
51
19.351664312416883
0
ARC
5
327
100
AcDbEntity
8
0
100
AcDbCircle
10
-21.590000000000003
20
13.970000000000002
30
0
40
0.73499999999999988
210
0
220
0
230
1
100
AcDbArc
50
-207.24203677102292
51
19.351664312497874
0
ARC
5
328
100
AcDbEntity
8
0
100
AcDbCircle
10
-31.074999999999999
20
33.600000000000001
30
0
40
0.73500000000548527
210
0
220
0
230
1
100
AcDbArc
50
-27.242036771565463
51
199.35166431318089
0
CIRCLE
5
329
100
AcDbEntity
8
0
100
AcDbCircle
10
-157.16249999999999
20
0
30
0
40
1.9939
210
0
220
0
230
1
0
ARC
5
330
100
AcDbEntity
8
0
100
AcDbCircle
10
-42.068750000000001
20
-8.7312499999999993
30
0
40
0.79375000000000195
210
0
220
0
230
1
100
AcDbArc
50
-90
51
0
0
CIRCLE
5
331
100
AcDbEntity
8
0
100
AcDbCircle
10
-28.574999999999999
20
38.100000000000009
30
0
40
1.9939
210
0
220
0
230
1
0
ARC
5
332
100
AcDbEntity
8
0
100
AcDbCircle
10
-140.6525
20
-5.0800000000000001
30
0
40
0.73499999999999954
210
0
220
0
230
1
100
AcDbArc
50
-207.24203677123467
51
19.351664312858659
0
ARC
5
333
100
AcDbEntity
8
0
100
AcDbCircle
10
-69.215000000000003
20
-5.0800000000000001
30
0
40
0.73499999999999799
210
0
220
0
230
1
100
AcDbArc
50
-207.24203677123108
51
19.35166431315989
0
CIRCLE
5
334
100
AcDbEntity
8
0
100
AcDbCircle
10
-52.704999999999998
20
0
30
0
40
0.87500000000000011
210
0
220
0
230
1
0
CIRCLE
5
335
100
AcDbEntity
8
0
100
AcDbCircle
10
-309.5625
20
19.050000000000004
30
0
40
1.9939
210
0
220
0
230
1
0
CIRCLE
5
336
100
AcDbEntity
8
0
100
AcDbCircle
10
-295.59249999999997
20
38.100000000000009
30
0
40
0.87500000000000011
210
0
220
0
230
1
0
CIRCLE
5
337
100
AcDbEntity
8
0
100
AcDbCircle
10
-143.1925
20
0
30
0
40
0.87500000000000011
210
0
220
0
230
1
0
CIRCLE
5
338
100
AcDbEntity
8
0
100
AcDbCircle
10
-66.675000000000011
20
0
30
0
40
1.9939
210
0
220
0
230
1
0
CIRCLE
5
339
100
AcDbEntity
8
0
100
AcDbCircle
10
-133.0325
20
0
30
0
40
0.87500000000000011
210
0
220
0
230
1
0
ARC
5
340
100
AcDbEntity
8
0
100
AcDbCircle
10
-159.66249999999999
20
-4.5
30
0
40
0.73500000000624832
210
0
220
0
230
1
100
AcDbArc
50
-27.242036771621748
51
199.35166431332064
0
CIRCLE
5
341
100
AcDbEntity
8
0
100
AcDbCircle
10
-314.64249999999998
20
38.100000000000009
30
0
40
0.87500000000000011
210
0
220
0
230
1
0
ARC
5
342
100
AcDbEntity
8
0
100
AcDbCircle
10
-50.125
20
-4.5
30
0
40
0.73500000000067711
210
0
220
0
230
1
100
AcDbArc
50
-27.242036771211684
51
199.3516643131332
0
CIRCLE
5
343
100
AcDbEntity
8
0
100
AcDbCircle
10
-286.70249999999999
20
35.560000000000002
30
0
40
0.73499999999999999
210
0
220
0
230
1
0
CIRCLE
5
344
100
AcDbEntity
8
0
100
AcDbCircle
10
-24.765000000000001
20
35.560000000000002
30
0
40
0.73499999999999999
210
0
220
0
230
1
0
ARC
5
345
100
AcDbEntity
8
0
100
AcDbCircle
10
-132.55625000000003
20
-8.7312499999999993
30
0
40
0.79375000000000195
210
0
220
0
230
1
100
AcDbArc
50
-90
51
0
0
CIRCLE
5
346
100
AcDbEntity
8
0
100
AcDbCircle
10
-24.130000000000003
20
19.050000000000004
30
0
40
0.87500000000000011
210
0
220
0
230
1
0
CIRCLE
5
347
100
AcDbEntity
8
0
100
AcDbCircle
10
-309.5625
20
38.100000000000009
30
0
40
1.9939
210
0
220
0
230
1
0
ARC
5
348
100
AcDbEntity
8
0
100
AcDbCircle
10
-31.114999999999998
20
33.020000000000003
30
0
40
0.73499999999999877
210
0
220
0
230
1
100
AcDbArc
50
-207.24203677102304
51
19.351664312497569
0
ARC
5
349
100
AcDbEntity
8
0
100
AcDbCircle
10
-50.165000000000006
20
-5.0800000000000001
30
0
40
0.73499999999999888
210
0
220
0
230
1
100
AcDbArc
50
-207.2420367710923
51
19.351664313012808
0
ARC
5
350
100
AcDbEntity
8
0
100
AcDbCircle
10
-38.100000000000009
20
-6.3499999999999996
30
0
40
3.1749999999999989
210
0
220
0
230
1
100
AcDbArc
50
0
51
180
0
ARC
5
351
100
AcDbEntity
8
0
100
AcDbCircle
10
-140.61250000000001
20
-4.5
30
0
40
0.73500000000212595
210
0
220
0
230
1
100
AcDbArc
50
-27.242036771318094
51
199.35166431303588
0
CIRCLE
5
352
100
AcDbEntity
8
0
100
AcDbCircle
10
-152.08250000000001
20
0
30
0
40
0.87500000000000011
210
0
220
0
230
1
0
CIRCLE
5
353
100
AcDbEntity
8
0
100
AcDbCircle
10
-62.865000000000002
20
-2.54
30
0
40
0.73499999999999999
210
0
220
0
230
1
0
ARC
5
354
100
AcDbEntity
8
0
100
AcDbCircle
10
-128.58750000000001
20
-6.3499999999999996
30
0
40
3.1750000000000078
210
0
220
0
230
1
100
AcDbArc
50
0
51
180
0
CIRCLE
5
355
100
AcDbEntity
8
0
100
AcDbCircle
10
-153.35249999999999
20
-2.54
30
0
40
0.73499999999999999
210
0
220
0
230
1
0
CIRCLE
5
356
100
AcDbEntity
8
0
100
AcDbCircle
10
-134.30250000000001
20
-2.54
30
0
40
0.73499999999999999
210
0
220
0
230
1
0
CIRCLE
5
357
100
AcDbEntity
8
0
100
AcDbCircle
10
-172.4025
20
-2.54
30
0
40
0.73499999999999999
210
0
220
0
230
1
0
CIRCLE
5
358
100
AcDbEntity
8
0
100
AcDbCircle
10
-43.814999999999998
20
-2.54
30
0
40
0.73499999999999999
210
0
220
0
230
1
0
LWPOLYLINE
5
359
100
AcDbEntity
8
0
100
AcDbPolyline
90
2
70
1
43
0.0
10
-311.40902563380922
20
14.213553491940276
42
-1.519372291972731
10
-312.75597436619853
20
14.306446507970874
42
-1.5193722921535753
0
CIRCLE
5
360
100
AcDbEntity
8
0
100
AcDbCircle
10
0.3175
20
38.100000000000009
30
0
40
0.87500000000000011
210
0
220
0
230
1
0
CIRCLE
5
361
100
AcDbEntity
8
0
100
AcDbCircle
10
-71.754999999999995
20
0
30
0
40
0.87500000000000011
210
0
220
0
230
1
0
CIRCLE
5
362
100
AcDbEntity
8
0
100
AcDbCircle
10
-162.24250000000001
20
0
30
0
40
0.87500000000000011
210
0
220
0
230
1
0
CIRCLE
5
363
100
AcDbEntity
8
0
100
AcDbCircle
10
-42.545000000000002
20
0
30
0
40
0.87500000000000011
210
0
220
0
230
1
0
CIRCLE
5
364
100
AcDbEntity
8
0
100
AcDbCircle
10
-314.64249999999998
20
19.050000000000004
30
0
40
0.87500000000000011
210
0
220
0
230
1
0
CIRCLE
5
365
100
AcDbEntity
8
0
100
AcDbCircle
10
-61.595000000000006
20
0
30
0
40
0.87500000000000011
210
0
220
0
230
1
0
CIRCLE
5
366
100
AcDbEntity
8
0
100
AcDbCircle
10
5.0800000000000001
20
19.050000000000004
30
0
40
0.87500000000000011
210
0
220
0
230
1
0
CIRCLE
5
367
100
AcDbEntity
8
0
100
AcDbCircle
10
-305.7525
20
16.510000000000002
30
0
40
0.73499999999999999
210
0
220
0
230
1
0
CIRCLE
5
368
100
AcDbEntity
8
0
100
AcDbCircle
10
-304.48250000000002
20
19.050000000000004
30
0
40
0.87500000000000011
210
0
220
0
230
1
0
CIRCLE
5
369
100
AcDbEntity
8
0
100
AcDbCircle
10
-138.11250000000001
20
0
30
0
40
1.9939
210
0
220
0
230
1
0
CIRCLE
5
370
100
AcDbEntity
8
0
100
AcDbCircle
10
-47.625
20
0
30
0
40
1.9939
210
0
220
0
230
1
0
CIRCLE
5
371
100
AcDbEntity
8
0
100
AcDbCircle
10
-285.4325
20
19.050000000000004
30
0
40
0.87500000000000011
210
0
220
0
230
1
0
CIRCLE
5
372
100
AcDbEntity
8
0
100
AcDbCircle
10
-0.95250000000000001
20
35.560000000000002
30
0
40
0.73499999999999999
210
0
220
0
230
1
0
CIRCLE
5
373
100
AcDbEntity
8
0
100
AcDbCircle
10
-286.70249999999999
20
16.510000000000002
30
0
40
0.73499999999999999
210
0
220
0
230
1
0
CIRCLE
5
374
100
AcDbEntity
8
0
100
AcDbCircle
10
-171.13249999999999
20
0
30
0
40
0.87500000000000011
210
0
220
0
230
1
0
CIRCLE
5
375
100
AcDbEntity
8
0
100
AcDbCircle
10
-5.0800000000000001
20
19.050000000000004
30
0
40
0.87500000000000011
210
0
220
0
230
1
0
LWPOLYLINE
5
376
100
AcDbEntity
8
0
100
AcDbPolyline
90
2
70
1
43
0.0
10
-293.70597436619852
20
14.306446507970874
42
-1.5193722921535753
10
-292.35902563380921
20
14.213553491940276
42
-1.519372291972731
0
CIRCLE
5
377
100
AcDbEntity
8
0
100
AcDbCircle
10
0
20
19.050000000000004
30
0
40
1.9939
210
0
220
0
230
1
0
CIRCLE
5
378
100
AcDbEntity
8
0
100
AcDbCircle
10
-4.7625000000000011
20
38.100000000000009
30
0
40
1.9939
210
0
220
0
230
1
0
CIRCLE
5
379
100
AcDbEntity
8
0
100
AcDbCircle
10
-290.51249999999999
20
19.050000000000004
30
0
40
1.9939
210
0
220
0
230
1
0
CIRCLE
5
380
100
AcDbEntity
8
0
100
AcDbCircle
10
3.8100000000000001
20
16.510000000000002
30
0
40
0.73499999999999999
210
0
220
0
230
1
0
CIRCLE
5
381
100
AcDbEntity
8
0
100
AcDbCircle
10
-295.59249999999997
20
19.050000000000004
30
0
40
0.87500000000000011
210
0
220
0
230
1
0
CIRCLE
5
382
100
AcDbEntity
8
0
100
AcDbCircle
10
-9.8424999999999994
20
38.100000000000009
30
0
40
0.87500000000000011
210
0
220
0
230
1
0
ARC
5
383
100
AcDbEntity
8
0
100
AcDbCircle
10
-2.5
20
14.550000000000001
30
0
40
0.73500000000547838
210
0
220
0
230
1
100
AcDbArc
50
-27.242036771565104
51
199.351664313181
0
ARC
5
384
100
AcDbEntity
8
0
100
AcDbCircle
10
-88.224999999999994
20
33.600000000000001
30
0
40
0.73500000000546561
210
0
220
0
230
1
100
AcDbArc
50
-27.242036771566227
51
199.35166431318004
0
ARC
5
385
100
AcDbEntity
8
0
100
AcDbCircle
10
-107.27500000000001
20
33.600000000000001
30
0
40
0.73500000000006405
210
0
220
0
230
1
100
AcDbArc
50
-27.242036771165932
51
199.35166431308238
0
ARC
5
386
100
AcDbEntity
8
0
100
AcDbCircle
10
-107.315
20
33.020000000000003
30
0
40
0.73500000000000454
210
0
220
0
230
1
100
AcDbArc
50
-207.242036771166
51
19.351664313079706
0
ARC
5
387
100
AcDbEntity
8
0
100
AcDbCircle
10
-7.2625000000000011
20
33.600000000000001
30
0
40
0.73500000000548338
210
0
220
0
230
1
100
AcDbArc
50
-27.242036771565513
51
199.35166431318092
0
ARC
5
388
100
AcDbEntity
8
0
100
AcDbCircle
10
-126.325
20
33.600000000000001
30
0
40
0.73500000000693733
210
0
220
0
230
1
100
AcDbArc
50
-27.242036771670904
51
199.35166431356006
0
ARC
5
389
100
AcDbEntity
8
0
100
AcDbCircle
10
-2.54
20
13.970000000000002
30
0
40
0.73499999999999988
210
0
220
0
230
1
100
AcDbArc
50
-207.24203677102292
51
19.351664312498183
0
ARC
5
390
100
AcDbEntity
8
0
100
AcDbCircle
10
-7.3025000000000002
20
33.020000000000003
30
0
40
0.73499999999999988
210
0
220
0
230
1
100
AcDbArc
50
-207.24203677102309
51
19.351664312497586
0
ARC
5
391
100
AcDbEntity
8
0
100
AcDbCircle
10
-88.265000000000015
20
33.020000000000003
30
0
40
0.73500000000000287
210
0
220
0
230
1
100
AcDbArc
50
-207.24203677102381
51
19.351664312497569
0
ARC
5
392
100
AcDbEntity
8
0
100
AcDbCircle
10
-126.36499999999999
20
33.020000000000003
30
0
40
0.73499999999999666
210
0
220
0
230
1
100
AcDbArc
50
-207.24203677047188
51
19.35166431234288
0
CIRCLE
5
393
100
AcDbEntity
8
0
100
AcDbCircle
10
-109.53749999999999
20
57.149999999999999
30
0
40
1.9939
210
0
220
0
230
1
0
ARC
5
394
100
AcDbEntity
8
0
100
AcDbCircle
10
-7.3025000000000002
20
90.170000000000016
30
0
40
0.73499999999999965
210
0
220
0
230
1
100
AcDbArc
50
-207.24203677102298
51
19.351664312496531
0
CIRCLE
5
395
100
AcDbEntity
8
0
100
AcDbCircle
10
-104.45750000000001
20
57.149999999999999
30
0
40
0.87500000000000011
210
0
220
0
230
1
0
CIRCLE
5
396
100
AcDbEntity
8
0
100
AcDbCircle
10
-16.986249999999998
20
76.200000000000017
30
0
40
0.87500000000000011
210
0
220
0
230
1
0
ARC
5
397
100
AcDbEntity
8
0
100
AcDbCircle
10
6.3499999999999996
20
101.59999999999999
30
0
40
3.1750000000000012
210
0
220
0
230
1
100
AcDbArc
50
0
51
90
0
CIRCLE
5
398
100
AcDbEntity
8
0
100
AcDbCircle
10
-252.09500000000003
20
19.050000000000004
30
0
40
0.87500000000000011
210
0
220
0
230
1
0
CIRCLE
5
399
100
AcDbEntity
8
0
100
AcDbCircle
10
-11.90625
20
76.200000000000017
30
0
40
1.9939
210
0
220
0
230
1
0
ARC
5
400
100
AcDbEntity
8
0
100
AcDbCircle
10
-212.05000000000001
20
14.550000000000001
30
0
40
0.73500000000692767
210
0
220
0
230
1
100
AcDbArc
50
-27.24203677167289
51
199.35166431308198
0
LINE
5
401
100
AcDbEntity
8
0
100
AcDbLine
10
-323.05624999999998
20
104.77500000000001
30
0
11
-354.01249999999999
21
104.77500000000001
31
0
0
CIRCLE
5
402
100
AcDbEntity
8
0
100
AcDbCircle
10
-267.01749999999998
20
38.100000000000009
30
0
40
0.87500000000000011
210
0
220
0
230
1
0
ARC
5
403
100
AcDbEntity
8
0
100
AcDbCircle
10
-7.2625000000000011
20
90.750000000000014
30
0
40
0.73500000000548638
210
0
220
0
230
1
100
AcDbArc
50
-27.242036771566479
51
199.35166431318086
0
CIRCLE
5
404
100
AcDbEntity
8
0
100
AcDbCircle
10
-257.17500000000001
20
19.050000000000004
30
0
40
1.9939
210
0
220
0
230
1
0
ARC
5
405
100
AcDbEntity
8
0
100
AcDbCircle
10
-354.01249999999999
20
101.59999999999999
30
0
40
3.1750000000000078
210
0
220
-0
230
1
100
AcDbArc
50
90
51
180
0
CIRCLE
5
406
100
AcDbEntity
8
0
100
AcDbCircle
10
-256.85750000000002
20
38.100000000000009
30
0
40
0.87500000000000011
210
0
220
0
230
1
0
CIRCLE
5
407
100
AcDbEntity
8
0
100
AcDbCircle
10
-114.61750000000002
20
57.149999999999999
30
0
40
0.87500000000000011
210
0
220
0
230
1
0
CIRCLE
5
408
100
AcDbEntity
8
0
100
AcDbCircle
10
-85.407500000000013
20
57.149999999999999
30
0
40
0.87500000000000011
210
0
220
0
230
1
0
CIRCLE
5
409
100
AcDbEntity
8
0
100
AcDbCircle
10
-124.7775
20
54.609999999999999
30
0
40
0.73499999999999999
210
0
220
0
230
1
0
ARC
5
410
100
AcDbEntity
8
0
100
AcDbCircle
10
-342.58249999999998
20
83.185000000000002
30
0
40
0.73499999999999055
210
0
220
0
230
1
100
AcDbArc
50
-117.24203677185869
51
109.35166431407701
0
CIRCLE
5
411
100
AcDbEntity
8
0
100
AcDbCircle
10
-90.487499999999997
20
57.149999999999999
30
0
40
1.9939
210
0
220
0
230
1
0
ARC
5
412
100
AcDbEntity
8
0
100
AcDbCircle
10
-212.09000000000003
20
13.970000000000002
30
0
40
0.73499999999999077
210
0
220
0
230
1
100
AcDbArc
50
-207.24203677116648
51
19.351664312341825
0
ARC
5
413
100
AcDbEntity
8
0
100
AcDbCircle
10
-14.446250000000001
20
71.120000000000005
30
0
40
0.73500000000000065
210
0
220
0
230
1
100
AcDbArc
50
-207.24203677102298
51
19.351664312497569
0
CIRCLE
5
414
100
AcDbEntity
8
0
100
AcDbCircle
10
-9.8424999999999994
20
95.25
30
0
40
0.87500000000000011
210
0
220
0
230
1
0
CIRCLE
5
415
100
AcDbEntity
8
0
100
AcDbCircle
10
-253.36500000000001
20
16.510000000000002
30
0
40
0.73499999999999999
210
0
220
0
230
1
0
CIRCLE
5
416
100
AcDbEntity
8
0
100
AcDbCircle
10
-123.50749999999999
20
57.149999999999999
30
0
40
0.87500000000000011
210
0
220
0
230
1
0
CIRCLE
5
417
100
AcDbEntity
8
0
100
AcDbCircle
10
-262.255
20
19.050000000000004
30
0
40
0.87500000000000011
210
0
220
0
230
1
0
ARC
5
418
100
AcDbEntity
8
0
100
AcDbCircle
10
-14.40625
20
71.700000000000003
30
0
40
0.73500000000548549
210
0
220
0
230
1
100
AcDbArc
50
-27.242036771565566
51
199.35166431318083
0
CIRCLE
5
419
100
AcDbEntity
8
0
100
AcDbCircle
10
-86.677499999999995
20
54.609999999999999
30
0
40
0.73499999999999999
210
0
220
0
230
1
0
ARC
5
420
100
AcDbEntity
8
0
100
AcDbCircle
10
-259.71499999999997
20
13.970000000000002
30
0
40
0.73500000000000509
210
0
220
0
230
1
100
AcDbArc
50
-207.24203676942051
51
19.351664311608168
0
CIRCLE
5
421
100
AcDbEntity
8
0
100
AcDbCircle
10
-258.1275
20
35.560000000000002
30
0
40
0.73499999999999999
210
0
220
0
230
1
0
ARC
5
422
100
AcDbEntity
8
0
100
AcDbCircle
10
-226.21875000000003
20
101.59999999999999
30
0
40
3.1749999999999901
210
0
220
0
230
1
100
AcDbArc
50
-180
51
0
0
ARC
5
423
100
AcDbEntity
8
0
100
AcDbCircle
10
-230.1875
20
103.98125
30
0
40
0.79374999999998863
210
0
220
0
230
1
100
AcDbArc
50
0
51
90
0
CIRCLE
5
424
100
AcDbEntity
8
0
100
AcDbCircle
10
-152.40000000000003
20
19.050000000000004
30
0
40
1.9939
210
0
220
0
230
1
0
CIRCLE
5
425
100
AcDbEntity
8
0
100
AcDbCircle
10
-171.44999999999999
20
19.050000000000004
30
0
40
1.9939
210
0
220
0
230
1
0
CIRCLE
5
426
100
AcDbEntity
8
0
100
AcDbCircle
10
-0.95250000000000001
20
92.709999999999994
30
0
40
0.73499999999999999
210
0
220
0
230
1
0
CIRCLE
5
427
100
AcDbEntity
8
0
100
AcDbCircle
10
-76.200000000000017
20
19.050000000000004
30
0
40
1.9939
210
0
220
0
230
1
0
ARC
5
428
100
AcDbEntity
8
0
100
AcDbCircle
10
-259.67500000000001
20
14.550000000000001
30
0
40
0.7350000000138075
210
0
220
0
230
1
100
AcDbArc
50
-27.242036772176284
51
199.35166431428274
0
CIRCLE
5
429
100
AcDbEntity
8
0
100
AcDbCircle
10
-95.567499999999995
20
57.149999999999999
30
0
40
0.87500000000000011
210
0
220
0
230
1
0
CIRCLE
5
430
100
AcDbEntity
8
0
100
AcDbCircle
10
-261.9375
20
38.100000000000009
30
0
40
1.9939
210
0
220
0
230
1
0
CIRCLE
5
431
100
AcDbEntity
8
0
100
AcDbCircle
10
-8.0962500000000013
20
73.659999999999997
30
0
40
0.73499999999999999
210
0
220
0
230
1
0
CIRCLE
5
432
100
AcDbEntity
8
0
100
AcDbCircle
10
-166.37
20
19.050000000000004
30
0
40
0.87500000000000011
210
0
220
0
230
1
0
CIRCLE
5
433
100
AcDbEntity
8
0
100
AcDbCircle
10
-105.72750000000001
20
54.609999999999999
30
0
40
0.73499999999999999
210
0
220
0
230
1
0
CIRCLE
5
434
100
AcDbEntity
8
0
100
AcDbCircle
10
-156.845
20
38.100000000000009
30
0
40
0.87500000000000011
210
0
220
0
230
1
0
CIRCLE
5
435
100
AcDbEntity
8
0
100
AcDbCircle
10
-157.47999999999999
20
19.050000000000004
30
0
40
0.87500000000000011
210
0
220
0
230
1
0
CIRCLE
5
436
100
AcDbEntity
8
0
100
AcDbCircle
10
-6.8262499999999999
20
76.200000000000017
30
0
40
0.87500000000000011
210
0
220
0
230
1
0
CIRCLE
5
437
100
AcDbEntity
8
0
100
AcDbCircle
10
-167.63999999999999
20
16.510000000000002
30
0
40
0.73499999999999999
210
0
220
0
230
1
0
LINE
5
438
100
AcDbEntity
8
0
100
AcDbLine
10
-229.39375000000001
20
101.59999999999999
30
0
11
-229.39375000000001
21
103.98125
31
0
0
CIRCLE
5
439
100
AcDbEntity
8
0
100
AcDbCircle
10
0.3175
20
95.25
30
0
40
0.87500000000000011
210
0
220
0
230
1
0
CIRCLE
5
440
100
AcDbEntity
8
0
100
AcDbCircle
10
-4.7625000000000011
20
95.25
30
0
40
1.9939
210
0
220
0
230
1
0
ARC
5
441
100
AcDbEntity
8
0
100
AcDbCircle
10
-264.4375
20
33.600000000000001
30
0
40
0.73499999999080246
210
0
220
0
230
1
100
AcDbArc
50
-27.242036770483818
51
199.35166431236078
0
ARC
5
442
100
AcDbEntity
8
0
100
AcDbCircle
10
-264.47750000000002
20
33.020000000000003
30
0
40
0.73500000000000465
210
0
220
0
230
1
100
AcDbArc
50
-207.24203677221632
51
19.351664314072597
0
LINE
5
443
100
AcDbEntity
8
0
100
AcDbLine
10
9.5250000000000004
20
-7.1437499999999998
30
0
11
9.5250000000000021
21
43.65625
31
0
0
LINE
5
444
100
AcDbEntity
8
0
100
AcDbLine
10
-356.39375000000001
20
50.800000000000011
30
0
11
-354.01249999999999
21
50.799999999999997
31
0
0
CIRCLE
5
445
100
AcDbEntity
8
0
100
AcDbCircle
10
-71.754999999999995
20
38.100000000000009
30
0
40
0.87500000000000011
210
0
220
0
230
1
0
ARC
5
446
100
AcDbEntity
8
0
100
AcDbCircle
10
-164.465
20
33.020000000000003
30
0
40
0.73500000000000065
210
0
220
0
230
1
100
AcDbArc
50
-207.24203677047234
51
19.351664312342361
0
ARC
5
447
100
AcDbEntity
8
0
100
AcDbCircle
10
-164.42500000000001
20
33.600000000000001
30
0
40
0.7350000000069572
210
0
220
0
230
1
100
AcDbArc
50
-27.242036771671415
51
199.3516643135587
0
CIRCLE
5
448
100
AcDbEntity
8
0
100
AcDbCircle
10
-71.120000000000005
20
19.050000000000004
30
0
40
0.87500000000000011
210
0
220
0
230
1
0
CIRCLE
5
449
100
AcDbEntity
8
0
100
AcDbCircle
10
-233.04500000000002
20
95.25
30
0
40
0.87500000000000011
210
0
220
0
230
1
0
LWPOLYLINE
5
450
100
AcDbEntity
8
0
100
AcDbPolyline
90
6
70
1
43
0.0
10
-3.5718749999991344
20
58.749390296136959
42
-0.54200742298320814
10
-0.43715296016945243
20
57.592858792062984
42
-3.6798478191312274
10
-0.43715296016500094
20
56.707141207930569
42
-0.54200742298206583
10
-3.5718750000017652
20
55.550609703862371
42
-0.54200742298144677
10
-6.706597039834139
20
56.707141207930896
42
-3.6798478191375201
10
-6.706597039834338
20
57.592858792062849
42
-0.54200742298359161
0
ARC
5
451
100
AcDbEntity
8
0
100
AcDbCircle
10
-240.625
20
90.750000000000014
30
0
40
0.73500000001377486
210
0
220
0
230
1
100
AcDbArc
50
-27.2420367721774
51
199.35166431428129
0
CIRCLE
5
452
100
AcDbEntity
8
0
100
AcDbCircle
10
-72.390000000000015
20
16.510000000000002
30
0
40
0.73499999999999999
210
0
220
0
230
1
0
ARC
5
453
100
AcDbEntity
8
0
100
AcDbCircle
10
-154.94
20
13.970000000000002
30
0
40
0.73499999999999854
210
0
220
0
230
1
100
AcDbArc
50
-207.24203677047274
51
19.351664312343747
0
CIRCLE
5
454
100
AcDbEntity
8
0
100
AcDbCircle
10
-256.85750000000002
20
95.25
30
0
40
0.87500000000000011
210
0
220
0
230
1
0
CIRCLE
5
455
100
AcDbEntity
8
0
100
AcDbCircle
10
-57.149999999999999
20
19.050000000000004
30
0
40
1.9939
210
0
220
0
230
1
0
CIRCLE
5
456
100
AcDbEntity
8
0
100
AcDbCircle
10
-61.595000000000006
20
38.100000000000009
30
0
40
0.87500000000000011
210
0
220
0
230
1
0
CIRCLE
5
457
100
AcDbEntity
8
0
100
AcDbCircle
10
-62.865000000000002
20
35.560000000000002
30
0
40
0.73499999999999999
210
0
220
0
230
1
0
CIRCLE
5
458
100
AcDbEntity
8
0
100
AcDbCircle
10
-238.125
20
95.25
30
0
40
1.9939
210
0
220
0
230
1
0
CIRCLE
5
459
100
AcDbEntity
8
0
100
AcDbCircle
10
-161.92500000000001
20
38.100000000000009
30
0
40
1.9939
210
0
220
0
230
1
0
ARC
5
460
100
AcDbEntity
8
0
100
AcDbCircle
10
-264.4375
20
90.750000000000014
30
0
40
0.73499999999079635
210
0
220
0
230
1
100
AcDbArc
50
-27.242036770483313
51
199.35166431236129
0
ARC
5
461
100
AcDbEntity
8
0
100
AcDbCircle
10
-240.66500000000002
20
90.170000000000016
30
0
40
0.7350000000000102
210
0
220
0
230
1
100
AcDbArc
50
-207.24203676942051
51
19.351664311607305
0
ARC
5
462
100
AcDbEntity
8
0
100
AcDbCircle
10
-154.90000000000003
20
14.550000000000001
30
0
40
0.73500000000693633
210
0
220
0
230
1
100
AcDbArc
50
-27.242036771670801
51
199.3516643135608
0
ARC
5
463
100
AcDbEntity
8
0
100
AcDbCircle
10
-264.47750000000002
20
90.170000000000016
30
0
40
0.73500000000000465
210
0
220
0
230
1
100
AcDbArc
50
-207.24203677221587
51
19.351664314073133
0
CIRCLE
5
464
100
AcDbEntity
8
0
100
AcDbCircle
10
-9.8424999999999994
20
57.149999999999999
30
0
40
0.87500000000000011
210
0
220
0
230
1
0
CIRCLE
5
465
100
AcDbEntity
8
0
100
AcDbCircle
10
-233.68000000000001
20
0
30
0
40
0.87500000000000011
210
0
220
0
230
1
0
CIRCLE
5
466
100
AcDbEntity
8
0
100
AcDbCircle
10
-167.00500000000002
20
38.100000000000009
30
0
40
0.87500000000000011
210
0
220
0
230
1
0
CIRCLE
5
467
100
AcDbEntity
8
0
100
AcDbCircle
10
-243.20500000000004
20
95.25
30
0
40
0.87500000000000011
210
0
220
0
230
1
0
CIRCLE
5
468
100
AcDbEntity
8
0
100
AcDbCircle
10
-158.11500000000001
20
35.560000000000002
30
0
40
0.73499999999999999
210
0
220
0
230
1
0
LINE
5
469
100
AcDbEntity
8
0
100
AcDbLine
10
-354.01249999999999
20
44.450000000000003
30
0
11
-356.39375000000001
21
44.450000000000003
31
0
0
CIRCLE
5
470
100
AcDbEntity
8
0
100
AcDbCircle
10
-66.675000000000011
20
38.100000000000009
30
0
40
1.9939
210
0
220
0
230
1
0
CIRCLE
5
471
100
AcDbEntity
8
0
100
AcDbCircle
10
-62.229999999999997
20
19.050000000000004
30
0
40
0.87500000000000011
210
0
220
0
230
1
0
CIRCLE
5
472
100
AcDbEntity
8
0
100
AcDbCircle
10
-234.315
20
92.709999999999994
30
0
40
0.73499999999999999
210
0
220
0
230
1
0
CIRCLE
5
473
100
AcDbEntity
8
0
100
AcDbCircle
10
-228.59999999999999
20
0
30
0
40
1.9939
210
0
220
0
230
1
0
CIRCLE
5
474
100
AcDbEntity
8
0
100
AcDbCircle
10
-261.9375
20
95.25
30
0
40
1.9939
210
0
220
0
230
1
0
ARC
5
475
100
AcDbEntity
8
0
100
AcDbCircle
10
-4.9212499999999997
20
52.070000000000007
30
0
40
0.73500000000000021
210
0
220
0
230
1
100
AcDbArc
50
-207.24203677102298
51
19.351664312498183
0
ARC
5
476
100
AcDbEntity
8
0
100
AcDbCircle
10
-59.649999999999999
20
14.550000000000001
30
0
40
0.73500000000546928
210
0
220
0
230
1
100
AcDbArc
50
-27.24203677156526
51
199.35166431318086
0
ARC
5
477
100
AcDbEntity
8
0
100
AcDbCircle
10
-231.09999999999999
20
-4.5
30
0
40
0.73500000000211041
210
0
220
0
230
1
100
AcDbArc
50
-27.242036771318094
51
199.35166431303466
0
CIRCLE
5
478
100
AcDbEntity
8
0
100
AcDbCircle
10
-243.84
20
-2.54
30
0
40
0.73499999999999999
210
0
220
0
230
1
0
ARC
5
479
100
AcDbEntity
8
0
100
AcDbCircle
10
-234.15625000000003
20
-8.7312499999999993
30
0
40
0.79374999999998863
210
0
220
0
230
1
100
AcDbArc
50
180
51
270
0
ARC
5
480
100
AcDbEntity
8
0
100
AcDbCircle
10
-78.700000000000017
20
14.550000000000001
30
0
40
0.73500000000548626
210
0
220
0
230
1
100
AcDbArc
50
-27.242036771564752
51
199.35166431318154
0
CIRCLE
5
481
100
AcDbEntity
8
0
100
AcDbCircle
10
-242.57000000000002
20
0
30
0
40
0.87500000000000011
210
0
220
0
230
1
0
ARC
5
482
100
AcDbEntity
8
0
100
AcDbCircle
10
-59.690000000000005
20
13.970000000000002
30
0
40
0.73499999999999988
210
0
220
0
230
1
100
AcDbArc
50
-207.24203677102292
51
19.351664312498546
0
ARC
5
483
100
AcDbEntity
8
0
100
AcDbCircle
10
-69.175000000000011
20
33.600000000000001
30
0
40
0.73500000000548127
210
0
220
0
230
1
100
AcDbArc
50
-27.242036771565211
51
199.35166431318038
0
ARC
5
484
100
AcDbEntity
8
0
100
AcDbCircle
10
-242.09375
20
-8.7312499999999993
30
0
40
0.79375000000000195
210
0
220
0
230
1
100
AcDbArc
50
-90
51
0
0
ARC
5
485
100
AcDbEntity
8
0
100
AcDbCircle
10
-238.125
20
-6.3499999999999996
30
0
40
3.1749999999999901
210
0
220
0
230
1
100
AcDbArc
50
0
51
180
0
ARC
5
486
100
AcDbEntity
8
0
100
AcDbCircle
10
-4.8812499999999996
20
52.650000000000006
30
0
40
0.73500000000547994
210
0
220
0
230
1
100
AcDbArc
50
-27.242036771565104
51
199.35166431318086
0
ARC
5
487
100
AcDbEntity
8
0
100
AcDbCircle
10
-78.739999999999995
20
13.970000000000002
30
0
40
0.73499999999999877
210
0
220
0
230
1
100
AcDbArc
50
-207.24203677102253
51
19.351664312498471
0
ARC
5
488
100
AcDbEntity
8
0
100
AcDbCircle
10
-231.14000000000001
20
-5.0800000000000001
30
0
40
0.7350000000000021
210
0
220
0
230
1
100
AcDbArc
50
-207.24203677123509
51
19.351664312857928
0
CIRCLE
5
489
100
AcDbEntity
8
0
100
AcDbCircle
10
-267.01749999999998
20
95.25
30
0
40
0.87500000000000011
210
0
220
0
230
1
0
CIRCLE
5
490
100
AcDbEntity
8
0
100
AcDbCircle
10
-258.1275
20
92.709999999999994
30
0
40
0.73499999999999999
210
0
220
0
230
1
0
ARC
5
491
100
AcDbEntity
8
0
100
AcDbCircle
10
-69.215000000000003
20
33.020000000000003
30
0
40
0.73500000000000287
210
0
220
0
230
1
100
AcDbArc
50
-207.24203677102329
51
19.351664312497569
0
CIRCLE
5
492
100
AcDbEntity
8
0
100
AcDbCircle
10
-305.7525
20
35.560000000000002
30
0
40
0.73499999999999999
210
0
220
0
230
1
0
CIRCLE
5
493
100
AcDbEntity
8
0
100
AcDbCircle
10
-34.290000000000006
20
16.510000000000002
30
0
40
0.73499999999999999
210
0
220
0
230
1
0
CIRCLE
5
494
100
AcDbEntity
8
0
100
AcDbCircle
10
-33.020000000000003
20
19.050000000000004
30
0
40
0.87500000000000011
210
0
220
0
230
1
0
LINE
5
495
100
AcDbEntity
8
0
100
AcDbLine
10
9.5249999999999986
20
51.593750000000007
30
0
11
9.5250000000000021
21
101.59999999999999
31
0
0
CIRCLE
5
496
100
AcDbEntity
8
0
100
AcDbCircle
10
-23.495000000000005
20
38.100000000000009
30
0
40
0.87500000000000011
210
0
220
0
230
1
0
CIRCLE
5
497
100
AcDbEntity
8
0
100
AcDbCircle
10
-13.970000000000002
20
19.050000000000004
30
0
40
0.87500000000000011
210
0
220
0
230
1
0
ARC
5
498
100
AcDbEntity
8
0
100
AcDbCircle
10
-312.0625
20
33.600000000000001
30
0
40
0.73500000001377908
210
0
220
0
230
1
100
AcDbArc
50
-27.242036772178928
51
199.35166431428016
0
CIRCLE
5
499
100
AcDbEntity
8
0
100
AcDbCircle
10
-33.655000000000001
20
38.100000000000009
30
0
40
0.87500000000000011
210
0
220
0
230
1
0
LINE
5
500
100
AcDbEntity
8
0
100
AcDbLine
10
-41.275000000000006
20
-8.7312499999999993
30
0
11
-41.275000000000006
21
-6.3499999999999996
31
0
0
ARC
5
501
100
AcDbEntity
8
0
100
AcDbCircle
10
-312.10250000000002
20
33.020000000000003
30
0
40
0.73499999999999077
210
0
220
0
230
1
100
AcDbArc
50
-207.242036769425
51
19.351664311607514
0
LINE
5
502
100
AcDbEntity
8
0
100
AcDbLine
10
6.3499999999999996
20
104.77500000000001
30
0
11
-36.51250000000001
21
104.77500000000001
31
0
0
ARC
5
503
100
AcDbEntity
8
0
100
AcDbCircle
10
-293.05250000000001
20
33.020000000000003
30
0
40
0.73499999999999077
210
0
220
0
230
1
100
AcDbArc
50
-207.242036769425
51
19.351664311606054
0
LINE
5
504
100
AcDbEntity
8
0
100
AcDbLine
10
-131.76250000000002
20
-8.7312499999999993
30
0
11
-131.76249999999999
21
-6.3499999999999996
31
0
0
ARC
5
505
100
AcDbEntity
8
0
100
AcDbCircle
10
-293.01249999999999
20
33.600000000000001
30
0
40
0.73500000001377908
210
0
220
0
230
1
100
AcDbArc
50
-27.242036772176892
51
199.35166431428016
0
CIRCLE
5
506
100
AcDbEntity
8
0
100
AcDbCircle
10
-15.24
20
16.510000000000002
30
0
40
0.73499999999999999
210
0
220
0
230
1
0
LINE
5
507
100
AcDbEntity
8
0
100
AcDbLine
10
-241.30000000000001
20
-8.7312499999999993
30
0
11
-241.30000000000001
21
-6.3499999999999996
31
0
0
CIRCLE
5
508
100
AcDbEntity
8
0
100
AcDbCircle
10
-139.065
20
35.560000000000002
30
0
40
0.73499999999999999
210
0
220
0
230
1
0
CIRCLE
5
509
100
AcDbEntity
8
0
100
AcDbCircle
10
-147.95500000000001
20
38.100000000000009
30
0
40
0.87500000000000011
210
0
220
0
230
1
0
ARC
5
510
100
AcDbEntity
8
0
100
AcDbCircle
10
-356.39375000000001
20
51.593750000000007
30
0
40
0.79374999999998863
210
0
220
0
230
1
100
AcDbArc
50
180
51
270
0
LINE
5
511
100
AcDbEntity
8
0
100
AcDbLine
10
-234.95000000000002
20
-6.3499999999999996
30
0
11
-234.95000000000002
21
-8.7312499999999993
31
0
0
CIRCLE
5
512
100
AcDbEntity
8
0
100
AcDbCircle
10
-129.54000000000002
20
16.510000000000002
30
0
40
0.73499999999999999
210
0
220
0
230
1
0
CIRCLE
5
513
100
AcDbEntity
8
0
100
AcDbCircle
10
-148.59000000000003
20
16.510000000000002
30
0
40
0.73499999999999999
210
0
220
0
230
1
0
CIRCLE
5
514
100
AcDbEntity
8
0
100
AcDbCircle
10
-137.79499999999999
20
38.100000000000009
30
0
40
0.87500000000000011
210
0
220
0
230
1
0
CIRCLE
5
515
100
AcDbEntity
8
0
100
AcDbCircle
10
-133.35000000000002
20
19.050000000000004
30
0
40
1.9939
210
0
220
0
230
1
0
CIRCLE
5
516
100
AcDbEntity
8
0
100
AcDbCircle
10
-147.31999999999999
20
19.050000000000004
30
0
40
0.87500000000000011
210
0
220
0
230
1
0
CIRCLE
5
517
100
AcDbEntity
8
0
100
AcDbCircle
10
-128.905
20
38.100000000000009
30
0
40
0.87500000000000011
210
0
220
0
230
1
0
CIRCLE
5
518
100
AcDbEntity
8
0
100
AcDbCircle
10
-142.875
20
38.100000000000009
30
0
40
1.9939
210
0
220
0
230
1
0
CIRCLE
5
519
100
AcDbEntity
8
0
100
AcDbCircle
10
-43.180000000000007
20
19.050000000000004
30
0
40
0.87500000000000011
210
0
220
0
230
1
0
ARC
5
520
100
AcDbEntity
8
0
100
AcDbCircle
10
-354.01249999999999
20
47.625
30
0
40
3.1749999999999989
210
0
220
0
230
1
100
AcDbArc
50
-90
51
90
0
CIRCLE
5
521
100
AcDbEntity
8
0
100
AcDbCircle
10
-52.070000000000007
20
19.050000000000004
30
0
40
0.87500000000000011
210
0
220
0
230
1
0
CIRCLE
5
522
100
AcDbEntity
8
0
100
AcDbCircle
10
-53.340000000000003
20
16.510000000000002
30
0
40
0.73499999999999999
210
0
220
0
230
1
0
ARC
5
523
100
AcDbEntity
8
0
100
AcDbCircle
10
-356.39375000000001
20
43.656250000000007
30
0
40
0.79374999999999751
210
0
220
-0
230
1
100
AcDbArc
50
90
51
180
0
ARC
5
524
100
AcDbEntity
8
0
100
AcDbCircle
10
-50.165000000000006
20
33.020000000000003
30
0
40
0.73500000000000076
210
0
220
0
230
1
100
AcDbArc
50
-207.24203677102304
51
19.351664312497569
0
ARC
5
525
100
AcDbEntity
8
0
100
AcDbCircle
10
-350.20249999999999
20
52.070000000000007
30
0
40
0.73499999999999244
210
0
220
0
230
1
100
AcDbArc
50
-207.24203677221442
51
19.35166431407271
0
ARC
5
526
100
AcDbEntity
8
0
100
AcDbCircle
10
-135.85000000000002
20
14.550000000000001
30
0
40
0.73500000000695109
210
0
220
0
230
1
100
AcDbArc
50
-27.242036771669632
51
199.35166431308437
0
CIRCLE
5
527
100
AcDbEntity
8
0
100
AcDbCircle
10
-343.85250000000008
20
54.609999999999999
30
0
40
0.73499999999999999
210
0
220
0
230
1
0
CIRCLE
5
528
100
AcDbEntity
8
0
100
AcDbCircle
10
-128.27000000000001
20
19.050000000000004
30
0
40
0.87500000000000011
210
0
220
0
230
1
0
ARC
5
529
100
AcDbEntity
8
0
100
AcDbCircle
10
-350.16250000000008
20
52.650000000000006
30
0
40
0.73499999999091858
210
0
220
0
230
1
100
AcDbArc
50
-27.242036770476236
51
199.35166431236576
0
ARC
5
530
100
AcDbEntity
8
0
100
AcDbCircle
10
8.7312499999999993
20
51.593750000000007
30
0
40
0.79375000000000639
210
0
220
0
230
1
100
AcDbArc
50
-90
51
0
0
CIRCLE
5
531
100
AcDbEntity
8
0
100
AcDbCircle
10
-328.61250000000007
20
57.149999999999999
30
0
40
1.9939
210
0
220
0
230
1
0
ARC
5
532
100
AcDbEntity
8
0
100
AcDbCircle
10
-331.11250000000007
20
52.650000000000006
30
0
40
0.73499999999091858
210
0
220
0
230
1
100
AcDbArc
50
-27.242036770476236
51
199.35166431236576
0
CIRCLE
5
533
100
AcDbEntity
8
0
100
AcDbCircle
10
-43.814999999999998
20
35.560000000000002
30
0
40
0.73499999999999999
210
0
220
0
230
1
0
CIRCLE
5
534
100
AcDbEntity
8
0
100
AcDbCircle
10
-271.77999999999997
20
0
30
0
40
0.87500000000000011
210
0
220
0
230
1
0
CIRCLE
5
535
100
AcDbEntity
8
0
100
AcDbCircle
10
2.6987500000000004
20
57.149999999999999
30
0
40
0.87500000000000011
210
0
220
0
230
1
0
ARC
5
536
100
AcDbEntity
8
0
100
AcDbCircle
10
-145.375
20
33.600000000000001
30
0
40
0.7350000000069532
210
0
220
0
230
1
100
AcDbArc
50
-27.242036771670904
51
199.3516643135597
0
CIRCLE
5
537
100
AcDbEntity
8
0
100
AcDbCircle
10
-262.88999999999999
20
-2.54
30
0
40
0.73499999999999999
210
0
220
0
230
1
0
ARC
5
538
100
AcDbEntity
8
0
100
AcDbCircle
10
8.7312499999999993
20
43.656250000000007
30
0
40
0.79375000000000195
210
0
220
0
230
1
100
AcDbArc
50
0
51
90
0
CIRCLE
5
539
100
AcDbEntity
8
0
100
AcDbCircle
10
-266.70000000000005
20
0
30
0
40
1.9939
210
0
220
0
230
1
0
ARC
5
540
100
AcDbEntity
8
0
100
AcDbCircle
10
-50.125
20
33.600000000000001
30
0
40
0.73500000000548127
210
0
220
0
230
1
100
AcDbArc
50
-27.242036771565715
51
199.35166431318072
0
CIRCLE
5
541
100
AcDbEntity
8
0
100
AcDbCircle
10
-52.704999999999998
20
38.100000000000009
30
0
40
0.87500000000000011
210
0
220
0
230
1
0
CIRCLE
5
542
100
AcDbEntity
8
0
100
AcDbCircle
10
-42.545000000000002
20
38.100000000000009
30
0
40
0.87500000000000011
210
0
220
0
230
1
0
ARC
5
543
100
AcDbEntity
8
0
100
AcDbCircle
10
-250.19000000000003
20
-5.0800000000000001
30
0
40
0.7349999999999911
210
0
220
0
230
1
100
AcDbArc
50
-207.24203677242505
51
19.351664314071275
0
ARC
5
544
100
AcDbEntity
8
0
100
AcDbCircle
10
-331.15249999999997
20
52.070000000000007
30
0
40
0.73499999999999244
210
0
220
0
230
1
100
AcDbArc
50
-207.24203677221442
51
19.35166431407271
0
CIRCLE
5
545
100
AcDbEntity
8
0
100
AcDbCircle
10
-261.62
20
0
30
0
40
0.87500000000000011
210
0
220
0
230
1
0
CIRCLE
5
546
100
AcDbEntity
8
0
100
AcDbCircle
10
-38.100000000000009
20
19.050000000000004
30
0
40
1.9939
210
0
220
0
230
1
0
ARC
5
547
100
AcDbEntity
8
0
100
AcDbCircle
10
-250.15000000000001
20
-4.5
30
0
40
0.73499999999080545
210
0
220
0
230
1
100
AcDbArc
50
-27.242036770483516
51
199.35166431221722
0
CIRCLE
5
548
100
AcDbEntity
8
0
100
AcDbCircle
10
1.42875
20
54.609999999999999
30
0
40
0.73499999999999999
210
0
220
0
230
1
0
CIRCLE
5
549
100
AcDbEntity
8
0
100
AcDbCircle
10
-47.625
20
38.100000000000009
30
0
40
1.9939
210
0
220
0
230
1
0
CIRCLE
5
550
100
AcDbEntity
8
0
100
AcDbCircle
10
-247.65000000000001
20
0
30
0
40
1.9939
210
0
220
0
230
1
0
ARC
5
551
100
AcDbEntity
8
0
100
AcDbCircle
10
-145.41499999999999
20
33.020000000000003
30
0
40
0.73499999999999666
210
0
220
0
230
1
100
AcDbArc
50
-207.24203677047137
51
19.35166431234288
0
ARC
5
552
100
AcDbEntity
8
0
100
AcDbCircle
10
-135.88999999999999
20
13.970000000000002
30
0
40
0.73500000000000032
210
0
220
0
230
1
100
AcDbArc
50
-207.24203677116563
51
19.351664312343132
0
CIRCLE
5
553
100
AcDbEntity
8
0
100
AcDbCircle
10
-324.80250000000007
20
54.609999999999999
30
0
40
0.73499999999999999
210
0
220
0
230
1
0
CIRCLE
5
554
100
AcDbEntity
8
0
100
AcDbCircle
10
-138.43000000000001
20
19.050000000000004
30
0
40
0.87500000000000011
210
0
220
0
230
1
0
ARC
5
555
100
AcDbEntity
8
0
100
AcDbCircle
10
-40.640000000000001
20
13.970000000000002
30
0
40
0.73499999999999988
210
0
220
0
230
1
100
AcDbArc
50
-207.24203677102292
51
19.351664312498105
0
ARC
5
556
100
AcDbEntity
8
0
100
AcDbCircle
10
6.3499999999999996
20
47.625
30
0
40
3.1749999999999989
210
0
220
-0
230
1
100
AcDbArc
50
90
51
270
0
ARC
5
557
100
AcDbEntity
8
0
100
AcDbCircle
10
-40.600000000000009
20
14.550000000000001
30
0
40
0.73500000000548227
210
0
220
0
230
1
100
AcDbArc
50
-27.242036771564752
51
199.35166431318123
0
CIRCLE
5
558
100
AcDbEntity
8
0
100
AcDbCircle
10
-323.53250000000003
20
57.149999999999999
30
0
40
0.87500000000000011
210
0
220
0
230
1
0
CIRCLE
5
559
100
AcDbEntity
8
0
100
AcDbCircle
10
-252.72999999999999
20
0
30
0
40
0.87500000000000011
210
0
220
0
230
1
0
ARC
5
560
100
AcDbEntity
8
0
100
AcDbCircle
10
-269.20000000000005
20
-4.5
30
0
40
0.73499999999080545
210
0
220
0
230
1
100
AcDbArc
50
-27.242036770482496
51
199.35166431221796
0
CIRCLE
5
561
100
AcDbEntity
8
0
100
AcDbCircle
10
-342.58249999999998
20
57.149999999999999
30
0
40
0.87500000000000011
210
0
220
0
230
1
0
CIRCLE
5
562
100
AcDbEntity
8
0
100
AcDbCircle
10
-352.74250000000001
20
57.149999999999999
30
0
40
0.87500000000000011
210
0
220
0
230
1
0
LINE
5
563
100
AcDbEntity
8
0
100
AcDbLine
10
8.7312499999999993
20
44.450000000000003
30
0
11
6.3499999999999996
21
44.450000000000003
31
0
0
CIRCLE
5
564
100
AcDbEntity
8
0
100
AcDbCircle
10
-347.66250000000008
20
57.149999999999999
30
0
40
1.9939
210
0
220
0
230
1
0
LINE
5
565
100
AcDbEntity
8
0
100
AcDbLine
10
6.3499999999999996
20
50.799999999999997
30
0
11
8.7312499999999993
21
50.799999999999997
31
0
0
ARC
5
566
100
AcDbEntity
8
0
100
AcDbCircle
10
-269.24000000000001
20
-5.0800000000000001
30
0
40
0.7349999999999911
210
0
220
0
230
1
100
AcDbArc
50
-207.24203677242406
51
19.351664314072021
0
CIRCLE
5
567
100
AcDbEntity
8
0
100
AcDbCircle
10
-333.6925
20
57.149999999999999
30
0
40
0.87500000000000011
210
0
220
0
230
1
0
CIRCLE
5
568
100
AcDbEntity
8
0
100
AcDbCircle
10
-134.30250000000001
20
73.659999999999997
30
0
40
0.73499999999999999
210
0
220
0
230
1
0
CIRCLE
5
569
100
AcDbEntity
8
0
100
AcDbCircle
10
-153.35249999999999
20
73.659999999999997
30
0
40
0.73499999999999999
210
0
220
0
230
1
0
CIRCLE
5
570
100
AcDbEntity
8
0
100
AcDbCircle
10
-133.0325
20
76.200000000000017
30
0
40
0.87500000000000011
210
0
220
0
230
1
0
CIRCLE
5
571
100
AcDbEntity
8
0
100
AcDbCircle
10
-28.574999999999999
20
95.25
30
0
40
1.9939
210
0
220
0
230
1
0
CIRCLE
5
572
100
AcDbEntity
8
0
100
AcDbCircle
10
-162.24250000000001
20
76.200000000000017
30
0
40
0.87500000000000011
210
0
220
0
230
1
0
CIRCLE
5
573
100
AcDbEntity
8
0
100
AcDbCircle
10
-48.577500000000001
20
92.709999999999994
30
0
40
0.73499999999999999
210
0
220
0
230
1
0
CIRCLE
5
574
100
AcDbEntity
8
0
100
AcDbCircle
10
-200.97750000000002
20
54.609999999999999
30
0
40
0.73499999999999999
210
0
220
0
230
1
0
CIRCLE
5
575
100
AcDbEntity
8
0
100
AcDbCircle
10
-171.13249999999999
20
76.200000000000017
30
0
40
0.87500000000000011
210
0
220
0
230
1
0
ARC
5
576
100
AcDbEntity
8
0
100
AcDbCircle
10
-31.114999999999998
20
90.170000000000016
30
0
40
0.73499999999999877
210
0
220
0
230
1
100
AcDbArc
50
-207.24203677102304
51
19.351664312496531
0
CIRCLE
5
577
100
AcDbEntity
8
0
100
AcDbCircle
10
-143.1925
20
76.200000000000017
30
0
40
0.87500000000000011
210
0
220
0
230
1
0
CIRCLE
5
578
100
AcDbEntity
8
0
100
AcDbCircle
10
-52.387500000000003
20
95.25
30
0
40
1.9939
210
0
220
0
230
1
0
CIRCLE
5
579
100
AcDbEntity
8
0
100
AcDbCircle
10
-309.5625
20
57.149999999999999
30
0
40
1.9939
210
0
220
0
230
1
0
CIRCLE
5
580
100
AcDbEntity
8
0
100
AcDbCircle
10
-47.307499999999997
20
95.25
30
0
40
0.87500000000000011
210
0
220
0
230
1
0
CIRCLE
5
581
100
AcDbEntity
8
0
100
AcDbCircle
10
-129.54000000000002
20
92.709999999999994
30
0
40
0.73499999999999999
210
0
220
0
230
1
0
CIRCLE
5
582
100
AcDbEntity
8
0
100
AcDbCircle
10
-218.75749999999999
20
57.149999999999999
30
0
40
0.87500000000000011
210
0
220
0
230
1
0
CIRCLE
5
583
100
AcDbEntity
8
0
100
AcDbCircle
10
-314.64249999999998
20
57.149999999999999
30
0
40
0.87500000000000011
210
0
220
0
230
1
0
ARC
5
584
100
AcDbEntity
8
0
100
AcDbCircle
10
-54.927500000000009
20
90.170000000000016
30
0
40
0.73499999999999877
210
0
220
0
230
1
100
AcDbArc
50
-207.24203677102304
51
19.351664312496531
0
ARC
5
585
100
AcDbEntity
8
0
100
AcDbCircle
10
-54.887500000000003
20
90.750000000000014
30
0
40
0.73500000000548338
210
0
220
0
230
1
100
AcDbArc
50
-27.242036771566735
51
199.35166431318072
0
ARC
5
586
100
AcDbEntity
8
0
100
AcDbCircle
10
-31.074999999999999
20
90.750000000000014
30
0
40
0.73500000000548737
210
0
220
0
230
1
100
AcDbArc
50
-27.242036771566479
51
199.35166431318089
0
CIRCLE
5
587
100
AcDbEntity
8
0
100
AcDbCircle
10
-152.08250000000001
20
76.200000000000017
30
0
40
0.87500000000000011
210
0
220
0
230
1
0
CIRCLE
5
588
100
AcDbEntity
8
0
100
AcDbCircle
10
-138.11250000000001
20
76.200000000000017
30
0
40
1.9939
210
0
220
0
230
1
0
ARC
5
589
100
AcDbEntity
8
0
100
AcDbCircle
10
-135.88999999999999
20
90.170000000000016
30
0
40
0.73499999999999632
210
0
220
0
230
1
100
AcDbArc
50
-207.24203677116449
51
19.351664313079187
0
LWPOLYLINE
5
590
100
AcDbEntity
8
0
100
AcDbPolyline
90
2
70
1
43
0.0
10
-311.40902563380922
20
71.36355349194028
42
-1.5193722919727171
10
-312.75597436619853
20
71.456446507970867
42
-1.5193722921535888
0
LWPOLYLINE
5
591
100
AcDbEntity
8
0
100
AcDbPolyline
90
2
70
1
43
0.0
10
-293.70597436619852
20
71.456446507970867
42
-1.5193722921535888
10
-292.35902563380921
20
71.36355349194028
42
-1.5193722919727171
0
ARC
5
592
100
AcDbEntity
8
0
100
AcDbCircle
10
-135.85000000000002
20
90.750000000000014
30
0
40
0.73500000000008392
210
0
220
0
230
1
100
AcDbArc
50
-27.242036771165427
51
199.35166431308556
0
CIRCLE
5
593
100
AcDbEntity
8
0
100
AcDbCircle
10
-172.4025
20
73.659999999999997
30
0
40
0.73499999999999999
210
0
220
0
230
1
0
CIRCLE
5
594
100
AcDbEntity
8
0
100
AcDbCircle
10
-305.7525
20
73.659999999999997
30
0
40
0.73499999999999999
210
0
220
0
230
1
0
ARC
5
595
100
AcDbEntity
8
0
100
AcDbCircle
10
-178.7525
20
71.120000000000005
30
0
40
0.73500000000000465
210
0
220
0
230
1
100
AcDbArc
50
-207.24203677221584
51
19.351664314071041
0
CIRCLE
5
596
100
AcDbEntity
8
0
100
AcDbCircle
10
-309.5625
20
76.200000000000017
30
0
40
1.9939
210
0
220
0
230
1
0
ARC
5
597
100
AcDbEntity
8
0
100
AcDbCircle
10
-207.32749999999999
20
52.070000000000007
30
0
40
0.73499999999999277
210
0
220
0
230
1
100
AcDbArc
50
-207.24203677116697
51
19.351664312342361
0
CIRCLE
5
598
100
AcDbEntity
8
0
100
AcDbCircle
10
-75.882499999999993
20
76.200000000000017
30
0
40
0.87500000000000011
210
0
220
0
230
1
0
CIRCLE
5
599
100
AcDbEntity
8
0
100
AcDbCircle
10
-66.992500000000007
20
76.200000000000017
30
0
40
0.87500000000000011
210
0
220
0
230
1
0
ARC
5
600
100
AcDbEntity
8
0
100
AcDbCircle
10
-169.22750000000002
20
52.070000000000007
30
0
40
0.73499999999999277
210
0
220
0
230
1
100
AcDbArc
50
-207.24203677116799
51
19.351664312341633
0
ARC
5
601
100
AcDbEntity
8
0
100
AcDbCircle
10
-169.1875
20
52.650000000000006
30
0
40
0.73500000000692567
210
0
220
0
230
1
100
AcDbArc
50
-27.242036771671415
51
199.35166431308221
0
CIRCLE
5
602
100
AcDbEntity
8
0
100
AcDbCircle
10
-76.517499999999998
20
57.149999999999999
30
0
40
0.87500000000000011
210
0
220
0
230
1
0
CIRCLE
5
603
100
AcDbEntity
8
0
100
AcDbCircle
10
-52.387500000000003
20
57.149999999999999
30
0
40
1.9939
210
0
220
0
230
1
0
ARC
5
604
100
AcDbEntity
8
0
100
AcDbCircle
10
-183.51499999999999
20
33.020000000000003
30
0
40
0.7350000000000102
210
0
220
0
230
1
100
AcDbArc
50
-207.2420367694215
51
19.351664311606786
0
CIRCLE
5
605
100
AcDbEntity
8
0
100
AcDbCircle
10
-33.655000000000001
20
95.25
30
0
40
0.87500000000000011
210
0
220
0
230
1
0
CIRCLE
5
606
100
AcDbEntity
8
0
100
AcDbCircle
10
-199.70750000000004
20
57.149999999999999
30
0
40
0.87500000000000011
210
0
220
0
230
1
0
CIRCLE
5
607
100
AcDbEntity
8
0
100
AcDbCircle
10
-304.48250000000002
20
57.149999999999999
30
0
40
0.87500000000000011
210
0
220
0
230
1
0
CIRCLE
5
608
100
AcDbEntity
8
0
100
AcDbCircle
10
-200.3425
20
76.200000000000017
30
0
40
0.87500000000000011
210
0
220
0
230
1
0
CIRCLE
5
609
100
AcDbEntity
8
0
100
AcDbCircle
10
-128.27000000000001
20
95.25
30
0
40
0.87500000000000011
210
0
220
0
230
1
0
CIRCLE
5
610
100
AcDbEntity
8
0
100
AcDbCircle
10
-214.31250000000003
20
76.200000000000017
30
0
40
1.9939
210
0
220
0
230
1
0
CIRCLE
5
611
100
AcDbEntity
8
0
100
AcDbCircle
10
-210.50250000000003
20
73.659999999999997
30
0
40
0.73499999999999999
210
0
220
0
230
1
0
CIRCLE
5
612
100
AcDbEntity
8
0
100
AcDbCircle
10
-219.39250000000001
20
76.200000000000017
30
0
40
0.87500000000000011
210
0
220
0
230
1
0
CIRCLE
5
613
100
AcDbEntity
8
0
100
AcDbCircle
10
-290.51249999999999
20
57.149999999999999
30
0
40
1.9939
210
0
220
0
230
1
0
CIRCLE
5
614
100
AcDbEntity
8
0
100
AcDbCircle
10
-204.78750000000002
20
57.149999999999999
30
0
40
1.9939
210
0
220
0
230
1
0
CIRCLE
5
615
100
AcDbEntity
8
0
100
AcDbCircle
10
-57.467500000000001
20
95.25
30
0
40
0.87500000000000011
210
0
220
0
230
1
0
CIRCLE
5
616
100
AcDbEntity
8
0
100
AcDbCircle
10
-305.7525
20
54.609999999999999
30
0
40
0.73499999999999999
210
0
220
0
230
1
0
CIRCLE
5
617
100
AcDbEntity
8
0
100
AcDbCircle
10
-24.765000000000001
20
92.709999999999994
30
0
40
0.73499999999999999
210
0
220
0
230
1
0
CIRCLE
5
618
100
AcDbEntity
8
0
100
AcDbCircle
10
-23.495000000000005
20
95.25
30
0
40
0.87500000000000011
210
0
220
0
230
1
0
CIRCLE
5
619
100
AcDbEntity
8
0
100
AcDbCircle
10
-295.59249999999997
20
57.149999999999999
30
0
40
0.87500000000000011
210
0
220
0
230
1
0
CIRCLE
5
620
100
AcDbEntity
8
0
100
AcDbCircle
10
-157.16249999999999
20
76.200000000000017
30
0
40
1.9939
210
0
220
0
230
1
0
ARC
5
621
100
AcDbEntity
8
0
100
AcDbCircle
10
-312.0625
20
52.650000000000006
30
0
40
0.73500000001378307
210
0
220
0
230
1
100
AcDbArc
50
-27.242036772179386
51
199.35166431428016
0
CIRCLE
5
622
100
AcDbEntity
8
0
100
AcDbCircle
10
-209.86750000000001
20
57.149999999999999
30
0
40
0.87500000000000011
210
0
220
0
230
1
0
CIRCLE
5
623
100
AcDbEntity
8
0
100
AcDbCircle
10
-285.4325
20
57.149999999999999
30
0
40
0.87500000000000011
210
0
220
0
230
1
0
CIRCLE
5
624
100
AcDbEntity
8
0
100
AcDbCircle
10
-220.02750000000003
20
54.609999999999999
30
0
40
0.73499999999999999
210
0
220
0
230
1
0
CIRCLE
5
625
100
AcDbEntity
8
0
100
AcDbCircle
10
-286.70249999999999
20
54.609999999999999
30
0
40
0.73499999999999999
210
0
220
0
230
1
0
ARC
5
626
100
AcDbEntity
8
0
100
AcDbCircle
10
-197.76250000000002
20
71.700000000000003
30
0
40
0.73499999999077692
210
0
220
0
230
1
100
AcDbArc
50
-27.242036770485349
51
199.35166431236229
0
ARC
5
627
100
AcDbEntity
8
0
100
AcDbCircle
10
-197.80250000000001
20
71.120000000000005
30
0
40
0.73499999999999666
210
0
220
0
230
1
100
AcDbArc
50
-207.24203677221388
51
19.351664314073556
0
ARC
5
628
100
AcDbEntity
8
0
100
AcDbCircle
10
-159.66249999999999
20
71.700000000000003
30
0
40
0.73500000000694143
210
0
220
0
230
1
100
AcDbArc
50
-27.242036771672378
51
199.35166431355921
0
CIRCLE
5
629
100
AcDbEntity
8
0
100
AcDbCircle
10
-290.51249999999999
20
76.200000000000017
30
0
40
1.9939
210
0
220
0
230
1
0
ARC
5
630
100
AcDbEntity
8
0
100
AcDbCircle
10
-140.6525
20
71.120000000000005
30
0
40
0.73500000000000032
210
0
220
0
230
1
100
AcDbArc
50
-207.24203677116552
51
19.351664312343399
0
ARC
5
631
100
AcDbEntity
8
0
100
AcDbCircle
10
-140.61250000000001
20
71.700000000000003
30
0
40
0.73500000000693733
210
0
220
0
230
1
100
AcDbArc
50
-27.242036771670392
51
199.3516643130838
0
CIRCLE
5
632
100
AcDbEntity
8
0
100
AcDbCircle
10
-77.152500000000003
20
73.659999999999997
30
0
40
0.73499999999999999
210
0
220
0
230
1
0
ARC
5
633
100
AcDbEntity
8
0
100
AcDbCircle
10
-150.17750000000001
20
52.070000000000007
30
0
40
0.73500000000000032
210
0
220
0
230
1
100
AcDbArc
50
-207.24203677116446
51
19.35166431234288
0
CIRCLE
5
634
100
AcDbEntity
8
0
100
AcDbCircle
10
-56.83250000000001
20
76.200000000000017
30
0
40
0.87500000000000011
210
0
220
0
230
1
0
CIRCLE
5
635
100
AcDbEntity
8
0
100
AcDbCircle
10
-166.6875
20
57.149999999999999
30
0
40
1.9939
210
0
220
0
230
1
0
ARC
5
636
100
AcDbEntity
8
0
100
AcDbCircle
10
-173.94999999999999
20
14.550000000000001
30
0
40
0.73500000000692245
210
0
220
0
230
1
100
AcDbArc
50
-27.242036771672023
51
199.35166431308198
0
CIRCLE
5
637
100
AcDbEntity
8
0
100
AcDbCircle
10
-61.912500000000001
20
76.200000000000017
30
0
40
1.9939
210
0
220
0
230
1
0
CIRCLE
5
638
100
AcDbEntity
8
0
100
AcDbCircle
10
-171.76750000000001
20
57.149999999999999
30
0
40
0.87500000000000011
210
0
220
0
230
1
0
ARC
5
639
100
AcDbEntity
8
0
100
AcDbCircle
10
-131.1275
20
52.070000000000007
30
0
40
0.73500000000000032
210
0
220
0
230
1
100
AcDbArc
50
-207.24203677116446
51
19.35166431234288
0
CIRCLE
5
640
100
AcDbEntity
8
0
100
AcDbCircle
10
-57.467500000000001
20
57.149999999999999
30
0
40
0.87500000000000011
210
0
220
0
230
1
0
ARC
5
641
100
AcDbEntity
8
0
100
AcDbCircle
10
-178.71250000000001
20
-4.5
30
0
40
0.73500000000211041
210
0
220
0
230
1
100
AcDbArc
50
-27.242036771318094
51
199.35166431303466
0
CIRCLE
5
642
100
AcDbEntity
8
0
100
AcDbCircle
10
-58.102499999999999
20
73.659999999999997
30
0
40
0.73499999999999999
210
0
220
0
230
1
0
CIRCLE
5
643
100
AcDbEntity
8
0
100
AcDbCircle
10
-71.4375
20
57.149999999999999
30
0
40
1.9939
210
0
220
0
230
1
0
ARC
5
644
100
AcDbEntity
8
0
100
AcDbCircle
10
-173.99000000000001
20
13.970000000000002
30
0
40
0.73499999999999077
210
0
220
0
230
1
100
AcDbArc
50
-207.24203677116648
51
19.351664312342749
0
ARC
5
645
100
AcDbEntity
8
0
100
AcDbCircle
10
-131.08750000000001
20
52.650000000000006
30
0
40
0.73500000000693733
210
0
220
0
230
1
100
AcDbArc
50
-27.242036771670904
51
199.35166431308303
0
ARC
5
646
100
AcDbEntity
8
0
100
AcDbCircle
10
-150.13749999999999
20
52.650000000000006
30
0
40
0.73500000000692145
210
0
220
0
230
1
100
AcDbArc
50
-27.242036771671923
51
199.35166431308232
0
ARC
5
647
100
AcDbEntity
8
0
100
AcDbCircle
10
-193.04000000000002
20
13.970000000000002
30
0
40
0.73499999999999077
210
0
220
0
230
1
100
AcDbArc
50
-207.24203677116648
51
19.351664312341825
0
ARC
5
648
100
AcDbEntity
8
0
100
AcDbCircle
10
-193
20
14.550000000000001
30
0
40
0.73500000000692767
210
0
220
0
230
1
100
AcDbArc
50
-27.24203677167289
51
199.35166431308198
0
CIRCLE
5
649
100
AcDbEntity
8
0
100
AcDbCircle
10
-66.357500000000002
20
57.149999999999999
30
0
40
0.87500000000000011
210
0
220
0
230
1
0
ARC
5
650
100
AcDbEntity
8
0
100
AcDbCircle
10
-183.47499999999999
20
33.600000000000001
30
0
40
0.73500000001381061
210
0
220
0
230
1
100
AcDbArc
50
-27.242036772176892
51
199.35166431428101
0
ARC
5
651
100
AcDbEntity
8
0
100
AcDbCircle
10
-178.7525
20
-5.0800000000000001
30
0
40
0.7350000000000021
210
0
220
0
230
1
100
AcDbArc
50
-207.2420367712341
51
19.351664312858659
0
CIRCLE
5
652
100
AcDbEntity
8
0
100
AcDbCircle
10
-161.60750000000002
20
57.149999999999999
30
0
40
0.87500000000000011
210
0
220
0
230
1
0
CIRCLE
5
653
100
AcDbEntity
8
0
100
AcDbCircle
10
-194.94500000000002
20
38.100000000000009
30
0
40
0.87500000000000011
210
0
220
0
230
1
0
CIRCLE
5
654
100
AcDbEntity
8
0
100
AcDbCircle
10
-162.8775
20
54.609999999999999
30
0
40
0.73499999999999999
210
0
220
0
230
1
0
ARC
5
655
100
AcDbEntity
8
0
100
AcDbCircle
10
-64.452500000000001
20
71.120000000000005
30
0
40
0.73499999999999877
210
0
220
0
230
1
100
AcDbArc
50
-207.24203677102278
51
19.351664312497569
0
CIRCLE
5
656
100
AcDbEntity
8
0
100
AcDbCircle
10
-133.66749999999999
20
57.149999999999999
30
0
40
0.87500000000000011
210
0
220
0
230
1
0
ARC
5
657
100
AcDbEntity
8
0
100
AcDbCircle
10
-222.25
20
103.98125
30
0
40
0.79375000000000639
210
0
220
-0
230
1
100
AcDbArc
50
90
51
180
0
ARC
5
658
100
AcDbEntity
8
0
100
AcDbCircle
10
-302.53750000000002
20
90.750000000000014
30
0
40
0.73499999999083621
210
0
220
0
230
1
100
AcDbArc
50
-27.242036770482294
51
199.35166431236129
0
CIRCLE
5
659
100
AcDbEntity
8
0
100
AcDbCircle
10
-186.05500000000004
20
38.100000000000009
30
0
40
0.87500000000000011
210
0
220
0
230
1
0
CIRCLE
5
660
100
AcDbEntity
8
0
100
AcDbCircle
10
-128.58750000000001
20
57.149999999999999
30
0
40
1.9939
210
0
220
0
230
1
0
LINE
5
661
100
AcDbEntity
8
0
100
AcDbLine
10
-223.04374999999999
20
103.98125
30
0
11
-223.04374999999999
21
101.59999999999999
31
0
0
ARC
5
662
100
AcDbEntity
8
0
100
AcDbCircle
10
-64.412499999999994
20
71.700000000000003
30
0
40
0.73500000000548338
210
0
220
0
230
1
100
AcDbArc
50
-27.242036771565715
51
199.35166431318058
0
CIRCLE
5
663
100
AcDbEntity
8
0
100
AcDbCircle
10
-196.215
20
35.560000000000002
30
0
40
0.73499999999999999
210
0
220
0
230
1
0
ARC
5
664
100
AcDbEntity
8
0
100
AcDbCircle
10
-54.887500000000003
20
52.650000000000006
30
0
40
0.73500000000547139
210
0
220
0
230
1
100
AcDbArc
50
-27.242036771565513
51
199.35166431318072
0
CIRCLE
5
665
100
AcDbEntity
8
0
100
AcDbCircle
10
-175.89500000000001
20
38.100000000000009
30
0
40
0.87500000000000011
210
0
220
0
230
1
0
ARC
5
666
100
AcDbEntity
8
0
100
AcDbCircle
10
-73.9375
20
52.650000000000006
30
0
40
0.73500000000547139
210
0
220
0
230
1
100
AcDbArc
50
-27.242036771565765
51
199.35166431318058
0
CIRCLE
5
667
100
AcDbEntity
8
0
100
AcDbCircle
10
-177.16499999999999
20
35.560000000000002
30
0
40
0.73499999999999999
210
0
220
0
230
1
0
ARC
5
668
100
AcDbEntity
8
0
100
AcDbCircle
10
-319.08749999999998
20
101.59999999999999
30
0
40
3.1750000000000256
210
0
220
0
230
1
100
AcDbArc
50
180
51
315.2958316743966
0
CIRCLE
5
669
100
AcDbEntity
8
0
100
AcDbCircle
10
-147.63749999999999
20
57.149999999999999
30
0
40
1.9939
210
0
220
0
230
1
0
ARC
5
670
100
AcDbEntity
8
0
100
AcDbCircle
10
-302.57749999999999
20
90.170000000000016
30
0
40
0.73500000000000465
210
0
220
0
230
1
100
AcDbArc
50
-207.24203677221385
51
19.351664314072078
0
ARC
5
671
100
AcDbEntity
8
0
100
AcDbCircle
10
-54.927500000000009
20
52.070000000000007
30
0
40
0.73499999999999877
210
0
220
0
230
1
100
AcDbArc
50
-207.24203677102304
51
19.351664312498279
0
CIRCLE
5
672
100
AcDbEntity
8
0
100
AcDbCircle
10
-143.82749999999999
20
54.609999999999999
30
0
40
0.73499999999999999
210
0
220
0
230
1
0
CIRCLE
5
673
100
AcDbEntity
8
0
100
AcDbCircle
10
-142.5575
20
57.149999999999999
30
0
40
0.87500000000000011
210
0
220
0
230
1
0
CIRCLE
5
674
100
AcDbEntity
8
0
100
AcDbCircle
10
-67.627499999999998
20
54.609999999999999
30
0
40
0.73499999999999999
210
0
220
0
230
1
0
ARC
5
675
100
AcDbEntity
8
0
100
AcDbCircle
10
-73.977500000000006
20
52.070000000000007
30
0
40
0.73499999999999877
210
0
220
0
230
1
100
AcDbArc
50
-207.24203677102278
51
19.351664312498471
0
CIRCLE
5
676
100
AcDbEntity
8
0
100
AcDbCircle
10
-152.7175
20
57.149999999999999
30
0
40
0.87500000000000011
210
0
220
0
230
1
0
CIRCLE
5
677
100
AcDbEntity
8
0
100
AcDbCircle
10
-261.62
20
76.200000000000017
30
0
40
0.87500000000000011
210
0
220
0
230
1
0
CIRCLE
5
678
100
AcDbEntity
8
0
100
AcDbCircle
10
-266.70000000000005
20
76.200000000000017
30
0
40
1.9939
210
0
220
0
230
1
0
CIRCLE
5
679
100
AcDbEntity
8
0
100
AcDbCircle
10
-209.55000000000001
20
0
30
0
40
1.9939
210
0
220
0
230
1
0
CIRCLE
5
680
100
AcDbEntity
8
0
100
AcDbCircle
10
-224.78999999999999
20
16.510000000000002
30
0
40
0.73499999999999999
210
0
220
0
230
1
0
CIRCLE
5
681
100
AcDbEntity
8
0
100
AcDbCircle
10
-347.66250000000008
20
80.64500000000001
30
0
40
0.87500000000000011
210
0
220
0
230
1
0
CIRCLE
5
682
100
AcDbEntity
8
0
100
AcDbCircle
10
-223.52000000000004
20
0
30
0
40
0.87500000000000011
210
0
220
0
230
1
0
LINE
5
683
100
AcDbEntity
8
0
100
AcDbLine
10
-322.26249999999999
20
101.59999999999999
30
0
11
-322.26249999999999
21
103.98125
31
0
0
CIRCLE
5
684
100
AcDbEntity
8
0
100
AcDbCircle
10
-249.71375
20
57.149999999999999
30
0
40
0.87500000000000011
210
0
220
0
230
1
0
CIRCLE
5
685
100
AcDbEntity
8
0
100
AcDbCircle
10
-234.315
20
35.560000000000002
30
0
40
0.73499999999999999
210
0
220
0
230
1
0
CIRCLE
5
686
100
AcDbEntity
8
0
100
AcDbCircle
10
-262.88999999999999
20
73.659999999999997
30
0
40
0.73499999999999999
210
0
220
0
230
1
0
ARC
5
687
100
AcDbEntity
8
0
100
AcDbCircle
10
-231.09999999999999
20
14.550000000000001
30
0
40
0.73500000000692245
210
0
220
0
230
1
100
AcDbArc
50
-27.242036771672023
51
199.35166431308198
0
CIRCLE
5
688
100
AcDbEntity
8
0
100
AcDbCircle
10
-214.63
20
0
30
0
40
0.87500000000000011
210
0
220
0
230
1
0
CIRCLE
5
689
100
AcDbEntity
8
0
100
AcDbCircle
10
-238.125
20
38.100000000000009
30
0
40
1.9939
210
0
220
0
230
1
0
CIRCLE
5
690
100
AcDbEntity
8
0
100
AcDbCircle
10
-224.78999999999999
20
-2.54
30
0
40
0.73499999999999999
210
0
220
0
230
1
0
CIRCLE
5
691
100
AcDbEntity
8
0
100
AcDbCircle
10
-209.55000000000001
20
19.050000000000004
30
0
40
1.9939
210
0
220
0
230
1
0
CIRCLE
5
692
100
AcDbEntity
8
0
100
AcDbCircle
10
-233.04500000000002
20
38.100000000000009
30
0
40
0.87500000000000011
210
0
220
0
230
1
0
CIRCLE
5
693
100
AcDbEntity
8
0
100
AcDbCircle
10
-254.79375000000002
20
57.149999999999999
30
0
40
1.9939
210
0
220
0
230
1
0
ARC
5
694
100
AcDbEntity
8
0
100
AcDbCircle
10
-231.14000000000001
20
13.970000000000002
30
0
40
0.73499999999999077
210
0
220
0
230
1
100
AcDbArc
50
-207.24203677116648
51
19.351664312342749
0
CIRCLE
5
695
100
AcDbEntity
8
0
100
AcDbCircle
10
-204.47000000000003
20
0
30
0
40
0.87500000000000011
210
0
220
0
230
1
0
ARC
5
696
100
AcDbEntity
8
0
100
AcDbCircle
10
-240.625
20
33.600000000000001
30
0
40
0.73500000000692567
210
0
220
0
230
1
100
AcDbArc
50
-27.242036771672378
51
199.35166431308275
0
ARC
5
697
100
AcDbEntity
8
0
100
AcDbCircle
10
-240.66500000000002
20
33.020000000000003
30
0
40
0.73499999999999077
210
0
220
0
230
1
100
AcDbArc
50
-207.24203677116748
51
19.351664312342361
0
CIRCLE
5
698
100
AcDbEntity
8
0
100
AcDbCircle
10
-205.74000000000001
20
-2.54
30
0
40
0.73499999999999999
210
0
220
0
230
1
0
CIRCLE
5
699
100
AcDbEntity
8
0
100
AcDbCircle
10
-271.77999999999997
20
76.200000000000017
30
0
40
0.87500000000000011
210
0
220
0
230
1
0
CIRCLE
5
700
100
AcDbEntity
8
0
100
AcDbCircle
10
-259.87374999999997
20
57.149999999999999
30
0
40
0.87500000000000011
210
0
220
0
230
1
0
CIRCLE
5
701
100
AcDbEntity
8
0
100
AcDbCircle
10
-250.98375000000001
20
54.609999999999999
30
0
40
0.73499999999999999
210
0
220
0
230
1
0
ARC
5
702
100
AcDbEntity
8
0
100
AcDbCircle
10
-257.29374999999999
20
52.650000000000006
30
0
40
0.73500000001378307
210
0
220
0
230
1
100
AcDbArc
50
-27.242036772179386
51
199.35166431427868
0
CIRCLE
5
703
100
AcDbEntity
8
0
100
AcDbCircle
10
-345.1225
20
89.534999999999997
30
0
40
0.73499999999999999
210
0
220
0
230
1
0
ARC
5
704
100
AcDbEntity
8
0
100
AcDbCircle
10
-93.027500000000018
20
52.070000000000007
30
0
40
0.73500000000000187
210
0
220
0
230
1
100
AcDbArc
50
-207.24203677025832
51
19.351664312471652
0
ARC
5
705
100
AcDbEntity
8
0
100
AcDbCircle
10
-92.987499999999997
20
52.650000000000006
30
0
40
0.73500000000572041
210
0
220
0
230
1
100
AcDbArc
50
-27.242036771583834
51
199.35166431370629
0
ARC
5
706
100
AcDbEntity
8
0
100
AcDbCircle
10
-269.24000000000001
20
71.120000000000005
30
0
40
0.73500000000000465
210
0
220
0
230
1
100
AcDbArc
50
-207.24203677221482
51
19.351664314071041
0
CIRCLE
5
707
100
AcDbEntity
8
0
100
AcDbCircle
10
-223.52000000000004
20
19.050000000000004
30
0
40
0.87500000000000011
210
0
220
0
230
1
0
CIRCLE
5
708
100
AcDbEntity
8
0
100
AcDbCircle
10
-204.47000000000003
20
19.050000000000004
30
0
40
0.87500000000000011
210
0
220
0
230
1
0
CIRCLE
5
709
100
AcDbEntity
8
0
100
AcDbCircle
10
-347.66250000000008
20
85.724999999999994
30
0
40
1.9939
210
0
220
0
230
1
0
ARC
5
710
100
AcDbEntity
8
0
100
AcDbCircle
10
-212.05000000000001
20
-4.5
30
0
40
0.73499999999080545
210
0
220
0
230
1
100
AcDbArc
50
-27.242036770484479
51
199.35166431221722
0
CIRCLE
5
711
100
AcDbEntity
8
0
100
AcDbCircle
10
-214.63
20
19.050000000000004
30
0
40
0.87500000000000011
210
0
220
0
230
1
0
ARC
5
712
100
AcDbEntity
8
0
100
AcDbCircle
10
-343.16250000000002
20
83.224999999999994
30
0
40
0.73499999999078869
210
0
220
-0
230
1
100
AcDbArc
50
62.757963229516669
51
289.35166431261115
0
ARC
5
713
100
AcDbEntity
8
0
100
AcDbCircle
10
-112.07750000000001
20
52.070000000000007
30
0
40
0.73500000000000454
210
0
220
0
230
1
100
AcDbArc
50
-207.24203677116648
51
19.351664312343765
0
CIRCLE
5
714
100
AcDbEntity
8
0
100
AcDbCircle
10
-205.74000000000001
20
16.510000000000002
30
0
40
0.73499999999999999
210
0
220
0
230
1
0
ARC
5
715
100
AcDbEntity
8
0
100
AcDbCircle
10
-212.09000000000003
20
-5.0800000000000001
30
0
40
0.7349999999999911
210
0
220
0
230
1
100
AcDbArc
50
-207.24203677242505
51
19.351664314072021
0
ARC
5
716
100
AcDbEntity
8
0
100
AcDbCircle
10
-112.03749999999999
20
52.650000000000006
30
0
40
0.73500000000690169
210
0
220
0
230
1
100
AcDbArc
50
-27.242036771671923
51
199.35166431308198
0
ARC
5
717
100
AcDbEntity
8
0
100
AcDbCircle
10
-257.33375000000001
20
52.070000000000007
30
0
40
0.73499999999999077
210
0
220
0
230
1
100
AcDbArc
50
-207.24203676942298
51
19.351664311606996
0
ARC
5
718
100
AcDbEntity
8
0
100
AcDbCircle
10
-269.20000000000005
20
71.700000000000003
30
0
40
0.73499999999081256
210
0
220
0
230
1
100
AcDbArc
50
-27.242036770483256
51
199.35166431236024
0
CIRCLE
5
719
100
AcDbEntity
8
0
100
AcDbCircle
10
-347.66250000000008
20
90.805000000000007
30
0
40
0.87500000000000011
210
0
220
0
230
1
0
LINE
5
720
100
AcDbEntity
8
0
100
AcDbLine
10
-43.656250000000007
20
101.59999999999999
30
0
11
-43.656250000000007
21
103.98125
31
0
0
ARC
5
721
100
AcDbEntity
8
0
100
AcDbCircle
10
-188.23750000000001
20
52.650000000000006
30
0
40
0.73500000001378307
210
0
220
0
230
1
100
AcDbArc
50
-27.2420367721774
51
199.35166431428129
0
CIRCLE
5
722
100
AcDbEntity
8
0
100
AcDbCircle
10
-304.48250000000002
20
76.200000000000017
30
0
40
0.87500000000000011
210
0
220
0
230
1
0
ARC
5
723
100
AcDbEntity
8
0
100
AcDbCircle
10
-188.27750000000003
20
52.070000000000007
30
0
40
0.73500000000000609
210
0
220
0
230
1
100
AcDbArc
50
-207.24203676942051
51
19.351664311605518
0
ARC
5
724
100
AcDbEntity
8
0
100
AcDbCircle
10
-159.70249999999999
20
71.120000000000005
30
0
40
0.73499999999999854
210
0
220
0
230
1
100
AcDbArc
50
-207.24203677047188
51
19.35166431234309
0
CIRCLE
5
725
100
AcDbEntity
8
0
100
AcDbCircle
10
-314.64249999999998
20
76.200000000000017
30
0
40
0.87500000000000011
210
0
220
0
230
1
0
CIRCLE
5
726
100
AcDbEntity
8
0
100
AcDbCircle
10
-181.29249999999999
20
76.200000000000017
30
0
40
0.87500000000000011
210
0
220
0
230
1
0
CIRCLE
5
727
100
AcDbEntity
8
0
100
AcDbCircle
10
-176.21250000000001
20
76.200000000000017
30
0
40
1.9939
210
0
220
0
230
1
0
LWPOLYLINE
5
728
100
AcDbEntity
8
0
100
AcDbPolyline
90
8
70
1
43
0.0
10
-27.344249999999999
20
65.835000000000008
10
-20.344249999999995
20
65.835000000000008
42
0.41421356237310542
10
-19.844250000000009
20
66.335000000000008
10
-19.844249999999999
20
87.334999999999994
42
0.41421356237308982
10
-20.344249999999995
20
87.835000000000008
10
-27.344249999999999
20
87.835000000000008
42
0.41421356237308982
10
-27.844249999999995
20
87.334999999999994
10
-27.844249999999995
20
66.335000000000008
42
0.41421356237309503
0
LWPOLYLINE
5
729
100
AcDbEntity
8
0
100
AcDbPolyline
90
8
70
1
43
0.0
10
4.0317499999999962
20
87.334999999999994
10
4.0317499999999944
20
66.335000000000008
42
-0.41421356237309503
10
3.5317499999999962
20
65.835000000000008
10
-3.4682500000000021
20
65.835000000000008
42
-0.41421356237310708
10
-3.9682499999999941
20
66.335000000000008
10
-3.9682500000000012
20
87.334999999999994
42
-0.41421356237309015
10
-3.4682500000000021
20
87.835000000000008
10
3.5317499999999962
20
87.835000000000008
42
-0.41421356237309015
0
LWPOLYLINE
5
730
100
AcDbEntity
8
0
100
AcDbPolyline
90
4
70
1
43
0.0
10
-270.73175000000003
20
46.785000000000011
10
-262.73174999999998
20
46.785000000000011
10
-262.73174999999998
20
68.785000000000011
10
-270.73175000000003
20
68.785000000000011
0
LWPOLYLINE
5
731
100
AcDbEntity
8
0
100
AcDbPolyline
90
4
70
1
43
0.0
10
-238.85575
20
68.785000000000011
10
-238.85575
20
46.785000000000011
10
-246.85575000000003
20
46.785000000000011
10
-246.85575000000003
20
68.785000000000011
0
LWPOLYLINE
5
732
100
AcDbEntity
8
0
100
AcDbPolyline
90
4
70
1
43
0.0
10
-273.11300000000006
20
8.6850000000000005
10
-265.113
20
8.6850000000000005
10
-265.113
20
30.685000000000002
10
-273.11300000000006
20
30.685000000000002
0
LWPOLYLINE
5
733
100
AcDbEntity
8
0
100
AcDbPolyline
90
4
70
1
43
0.0
10
-241.23699999999999
20
30.685000000000002
10
-241.23699999999999
20
8.6850000000000005
10
-249.23700000000002
20
8.6850000000000005
10
-249.23700000000002
20
30.685000000000002
0
LINE
5
734
100
AcDbEntity
8
0
100
AcDbLine
10
-307.97550000000007
20
83.615000000000009
30
0
11
-315.97550000000001
21
83.615000000000009
31
0
0
LINE
5
735
100
AcDbEntity
8
0
100
AcDbLine
10
-315.97550000000001
20
83.615000000000009
30
0
11
-315.97550000000001
21
99.014834434702408
31
0
0
LINE
5
736
100
AcDbEntity
8
0
100
AcDbLine
10
-307.97550000000007
20
104.77500000000001
30
0
11
-307.97550000000007
21
83.615000000000009
31
0
0
LINE
5
737
100
AcDbEntity
8
0
100
AcDbLine
10
-284.09950000000003
20
83.615000000000009
30
0
11
-284.09950000000003
21
104.77500000000001
31
0
0
LINE
5
738
100
AcDbEntity
8
0
100
AcDbLine
10
-292.09950000000003
20
83.615000000000009
30
0
11
-284.09950000000003
21
83.615000000000009
31
0
0
LINE
5
739
100
AcDbEntity
8
0
100
AcDbLine
10
-292.09950000000003
20
104.77500000000001
30
0
11
-292.09950000000003
21
83.615000000000009
31
0
0
ARC
5
740
100
AcDbEntity
8
0
100
AcDbCircle
10
-316.47550000000001
20
99.014834434702394
30
0
40
0.50000000000000711
210
0
220
-0
230
1
100
AcDbArc
50
0
51
135.29583167439543
0
LINE
5
741
100
AcDbEntity
8
0
100
AcDbLine
10
-230.1875
20
104.77500000000001
30
0
11
-284.09950000000003
21
104.77500000000001
31
0
0
LINE
5
742
100
AcDbEntity
8
0
100
AcDbLine
10
-292.09950000000003
20
104.77500000000001
30
0
11
-307.97550000000007
21
104.77500000000001
31
0
0
CIRCLE
5
743
100
AcDbEntity
8
0
100
AcDbCircle
10
-296.22750000000002
20
92.710000000000008
30
0
40
0.73499999999999999
210
0
220
0
230
1
0
LINE
5
744
100
AcDbEntity
8
0
100
AcDbLine
10
-336.02750000000003
20
93.663000000000011
30
0
11
-357.1875
21
93.663000000000011
31
0
0
LINE
5
745
100
AcDbEntity
8
0
100
AcDbLine
10
-357.18687489909428
20
101.66300000000001
30
0
11
-336.02750000000003
21
101.66300000000001
31
0
0
LINE
5
746
100
AcDbEntity
8
0
100
AcDbLine
10
-336.02750000000003
20
101.66300000000001
30
0
11
-336.02750000000003
21
93.663000000000011
31
0
0
LINE
5
747
100
AcDbEntity
8
0
100
AcDbLine
10
-357.1875
20
69.786999999999978
30
0
11
-336.02750000000003
21
69.786999999999978
31
0
0
LINE
5
748
100
AcDbEntity
8
0
100
AcDbLine
10
-336.02750000000003
20
69.786999999999978
30
0
11
-336.02750000000003
21
77.786999999999992
31
0
0
LINE
5
749
100
AcDbEntity
8
0
100
AcDbLine
10
-336.02750000000003
20
77.786999999999992
30
0
11
-357.1875
21
77.786999999999992
31
0
0
LINE
5
750
100
AcDbEntity
8
0
100
AcDbLine
10
-357.1875
20
93.663000000000011
30
0
11
-357.1875
21
77.786999999999992
31
0
0
LINE
5
751
100
AcDbEntity
8
0
100
AcDbLine
10
-357.1875
20
69.786999999999978
30
0
11
-357.1875
21
51.593750000000007
31
0
0
LINE
5
752
100
AcDbEntity
8
0
100
AcDbLine
10
-186.50000000000003
20
83.615000000000009
30
0
11
-194.5
21
83.615000000000009
31
0
0
LINE
5
753
100
AcDbEntity
8
0
100
AcDbLine
10
-194.5
20
83.615000000000009
30
0
11
-194.5
21
104.77500000000001
31
0
0
LINE
5
754
100
AcDbEntity
8
0
100
AcDbLine
10
-186.50000000000003
20
104.77500000000001
30
0
11
-186.50000000000003
21
83.615000000000009
31
0
0
LINE
5
755
100
AcDbEntity
8
0
100
AcDbLine
10
-194.5
20
104.77500000000001
30
0
11
-222.25
21
104.77500000000001
31
0
0
LINE
5
756
100
AcDbEntity
8
0
100
AcDbLine
10
-72.200000000000017
20
83.615000000000009
30
0
11
-72.200000000000017
21
104.77500000000001
31
0
0
LINE
5
757
100
AcDbEntity
8
0
100
AcDbLine
10
-80.199999999999989
20
104.77500000000001
30
0
11
-80.199999999999989
21
83.615000000000009
31
0
0
LINE
5
758
100
AcDbEntity
8
0
100
AcDbLine
10
-80.199999999999989
20
83.615000000000009
30
0
11
-72.200000000000017
21
83.615000000000009
31
0
0
LINE
5
759
100
AcDbEntity
8
0
100
AcDbLine
10
-44.450000000000003
20
104.77500000000001
30
0
11
-72.200000000000017
21
104.77500000000001
31
0
0
LINE
5
760
100
AcDbEntity
8
0
100
AcDbLine
10
-186.50000000000003
20
104.77500000000001
30
0
11
-80.199999999999989
21
104.77500000000001
31
0
0
ENDSEC
0
SECTION
2
OBJECTS
0
DICTIONARY
5
C
100
AcDbDictionary
3
ACAD_GROUP
350
D
3
ACAD_MLINESTYLE
350
17
0
DICTIONARY
5
D
100
AcDbDictionary
0
DICTIONARY
5
1A
330
C
100
AcDbDictionary
0
DICTIONARY
5
17
100
AcDbDictionary
0
ENDSEC
0
EOF
