0
SECTION
2
HEADER
9
$INSUNITS
70
4
9
$ACADVER
1
AC1014
9
$HANDSEED
5
FFFF
0
ENDSEC
0
SECTION
2
TABLES
0
TABLE
2
VPORT
5
8
100
AcDbSymbolTable
0
ENDTAB
0
TABLE
2
LTYPE
5
5
100
AcDbSymbolTable
0
LTYPE
5
14
100
AcDbSymbolTableRecord
100
AcDbLinetypeTableRecord
2
BYBLOCK
70
0
0
LTYPE
5
15
100
AcDbSymbolTableRecord
100
AcDbLinetypeTableRecord
2
BYLAYER
70
0
0
ENDTAB
0
TABLE
2
LAYER
5
2
100
AcDbSymbolTable
70
2
0
LAYER
5
50
100
AcDbSymbolTableRecord
100
AcDbLayerTableRecord
2
0
70
0
6
CONTINUOUS
0
ENDTAB
0
TABLE
2
STYLE
5
3
100
AcDbSymbolTable
70
1
0
STYLE
5
11
100
AcDbSymbolTableRecord
100
AcDbTextStyleTableRecord
2
STANDARD
70
0
0
ENDTAB
0
TABLE
2
VIEW
5
6
100
AcDbSymbolTable
70
0
0
ENDTAB
0
TABLE
2
UCS
5
7
100
AcDbSymbolTable
70
0
0
ENDTAB
0
TABLE
2
APPID
5
9
100
AcDbSymbolTable
70
2
0
APPID
5
12
100
AcDbSymbolTableRecord
100
AcDbRegAppTableRecord
2
ACAD
70
0
0
ENDTAB
0
TABLE
2
DIMSTYLE
5
A
100
AcDbSymbolTable
70
1
0
ENDTAB
0
TABLE
2
BLOCK_RECORD
5
1
100
AcDbSymbolTable
70
1
0
BLOCK_RECORD
5
1F
100
AcDbSymbolTableRecord
100
AcDbBlockTableRecord
2
*MODEL_SPACE
0
BLOCK_RECORD
5
1B
100
AcDbSymbolTableRecord
100
AcDbBlockTableRecord
2
*PAPER_SPACE
0
ENDTAB
0
ENDSEC
0
SECTION
2
BLOCKS
0
BLOCK
5
20
100
AcDbEntity
100
AcDbBlockBegin
2
*MODEL_SPACE
0
ENDBLK
5
21
100
AcDbEntity
100
AcDbBlockEnd
0
BLOCK
5
1C
100
AcDbEntity
100
AcDbBlockBegin
2
*PAPER_SPACE
0
ENDBLK
5
1D
100
AcDbEntity
100
AcDbBlockEnd
0
ENDSEC
0
SECTION
2
ENTITIES
0
LWPOLYLINE
5
100
100
AcDbEntity
8
0
100
AcDbPolyline
90
8
70
1
43
0.0
10
-170.11199999999999
20
-36.825000000000031
10
-170.11199999999999
20
-22.325000000000035
42
0.41421356237307683
10
-170.61199999999997
20
-21.825000000000024
10
-177.11199999999997
20
-21.825000000000049
42
0.41421356237312362
10
-177.61199999999999
20
-22.325000000000035
10
-177.61199999999999
20
-36.825000000000031
42
0.41421356237304041
10
-177.11199999999997
20
-37.32500000000001
10
-170.61199999999997
20
-37.325000000000003
42
0.41421356237309503
0
LWPOLYLINE
5
101
100
AcDbEntity
8
0
100
AcDbPolyline
90
8
70
1
43
0.0
10
-146.73799999999994
20
-37.325000000000038
42
0.4142135623730846
10
-146.23799999999994
20
-36.825000000000031
10
-146.23799999999994
20
-22.325000000000035
42
0.41421356237310025
10
-146.73799999999994
20
-21.825000000000042
10
-153.23799999999994
20
-21.825000000000045
42
0.41421356237310542
10
-153.73799999999994
20
-22.325000000000035
10
-153.73799999999994
20
-36.825000000000031
42
0.41421356237310281
10
-153.23799999999994
20
-37.325000000000017
0
LWPOLYLINE
5
102
100
AcDbEntity
8
0
100
AcDbPolyline
90
8
70
1
43
0.0
10
-101.63124999999997
20
-54.625
42
-0.4142135623730846
10
-102.13124999999998
20
-54.125000000000014
10
-102.13124999999998
20
-38.125000000000007
42
-0.41421356237310281
10
-101.63124999999997
20
-37.625000000000014
10
-93.631249999999994
20
-37.625000000000021
42
-0.41421356237310281
10
-93.131249999999994
20
-38.125000000000007
10
-93.131249999999994
20
-54.125000000000014
42
-0.4142135623730846
10
-93.631249999999994
20
-54.625
0
LWPOLYLINE
5
103
100
AcDbEntity
8
0
100
AcDbPolyline
90
8
70
1
43
0.0
10
72.775500000000065
20
-17.77500000000002
10
72.775500000000065
20
-3.275000000000019
42
0.41421356237307422
10
72.275500000000065
20
-2.7750000000000208
10
65.775500000000051
20
-2.7750000000000181
42
0.41421356237308105
10
65.275500000000065
20
-3.275000000000019
10
65.275500000000065
20
-17.77500000000002
42
0.41421356237308593
10
65.775500000000051
20
-18.275000000000013
10
72.275500000000065
20
-18.27500000000002
42
0.41421356237309503
0
LWPOLYLINE
5
104
100
AcDbEntity
8
0
100
AcDbPolyline
90
8
70
1
43
0.0
10
81.10625000000006
20
-41.125
10
81.10625000000006
20
-54.125000000000014
42
0.41421356237314705
10
81.606250000000102
20
-54.624999999999993
10
94.606250000000045
20
-54.625000000000014
42
0.41421356237312101
10
95.106250000000102
20
-54.125000000000014
10
95.106250000000074
20
-41.125
42
0.41421356237314183
10
94.606250000000045
20
-40.625000000000014
10
81.606250000000102
20
-40.625000000000014
42
0.41421356237314183
0
LWPOLYLINE
5
105
100
AcDbEntity
8
0
100
AcDbPolyline
90
8
70
1
43
0.0
10
89.649500000000089
20
-18.275000000000006
10
96.149500000000089
20
-18.275000000000031
42
0.41421356237307555
10
96.649500000000103
20
-17.77500000000002
10
96.649500000000103
20
-3.275000000000019
42
0.41421356237307
10
96.149500000000089
20
-2.7750000000000248
10
89.649500000000089
20
-2.7750000000000243
42
0.41421356237309825
10
89.14950000000006
20
-3.275000000000019
10
89.149500000000103
20
-17.77500000000002
42
0.414213562373069
0
LWPOLYLINE
5
106
100
AcDbEntity
8
0
100
AcDbPolyline
90
8
70
1
43
0.0
10
117.51925000000007
20
-54.375
42
0.4142135623730846
10
118.01925000000008
20
-53.874999999999972
10
118.01925000000006
20
-39.374999999999986
42
0.41421356237311324
10
117.51925000000007
20
-38.874999999999993
10
111.01925000000007
20
-38.874999999999979
42
0.41421356237307161
10
110.51925000000006
20
-39.374999999999986
10
110.51925000000008
20
-53.874999999999972
42
0.41421356237313667
10
111.01925000000007
20
-54.374999999999972
0
LWPOLYLINE
5
107
100
AcDbEntity
8
0
100
AcDbPolyline
90
8
70
1
43
0.0
10
75.156750000000073
20
34.824999999999989
10
75.156750000000073
20
20.324999999999985
42
-0.41421356237309764
10
74.656750000000073
20
19.824999999999985
10
68.156750000000073
20
19.824999999999982
42
-0.41421356237308721
10
67.656750000000073
20
20.324999999999985
10
67.656750000000073
20
34.824999999999989
42
-0.41421356237312362
10
68.156750000000073
20
35.324999999999989
10
74.656750000000073
20
35.324999999999996
42
-0.41421356237309764
0
LWPOLYLINE
5
108
100
AcDbEntity
8
0
100
AcDbPolyline
90
216
70
1
43
0.0
10
148.84375000000003
20
-57.149999999999999
10
181.35625000000002
20
-57.149999999999999
42
0.41421356237309503
10
183.35624999999999
20
-55.150000000000006
10
183.35624999999999
20
-3.0249999999999932
42
0.41421356237317242
10
182.85624999999999
20
-2.5250000000000021
10
181.33125000000013
20
-2.5249999999999955
42
0.41421356237313633
10
180.83125000000013
20
-3.0250000000000021
10
180.83125000000013
20
-16.025000000000006
42
-0.41421356237310281
10
180.3312500000001
20
-16.525000000000006
10
167.33125000000013
20
-16.525000000000013
42
-0.41421356237313534
10
166.83125000000013
20
-16.025000000000006
10
166.83125000000015
20
-3.0250000000000021
42
-0.41421356237309798
10
167.33125000000013
20
-2.5250000000000217
10
176.85624999999999
20
-2.5249999999999839
42
0.41421356237312723
10
177.35624999999999
20
-2.0249999999999928
10
177.35624999999999
20
2.0250000000000092
42
0.41421356237317358
10
176.85624999999999
20
2.5250000000000017
10
167.33125000000013
20
2.5249999999999968
42
-0.41421356237313567
10
166.83125000000013
20
3.0250000000000021
10
166.83125000000015
20
16.025000000000006
42
-0.41421356237309892
10
167.33125000000013
20
16.524999999999991
10
180.3312500000001
20
16.525000000000006
42
-0.41421356237311063
10
180.83125000000013
20
16.025000000000006
10
180.83125000000013
20
3.0250000000000066
42
0.41421356237301277
10
181.33125000000013
20
2.5249999999999959
10
182.85624999999999
20
2.5249999999999986
42
0.41421356237314022
10
183.35624999999999
20
3.025000000000011
10
183.35624999999999
20
55.150000000000013
42
0.41421356237308721
10
181.35625000000002
20
57.150000000000027
10
168.30625000000009
20
57.149999999999999
42
0.41421356237313667
10
167.80625000000012
20
56.650000000000027
10
167.80625000000012
20
55.124999999999993
42
0.41421356237310542
10
168.30625000000009
20
54.624999999999993
10
180.3312500000001
20
54.625000000000028
42
-0.41421356237307422
10
180.83125000000013
20
54.125000000000021
10
180.83125000000018
20
41.125000000000007
42
-0.41421356237310025
10
180.3312500000001
20
40.625000000000007
10
167.33125000000013
20
40.624999999999993
42
-0.41421356237314183
10
166.83125000000013
20
41.125000000000007
10
166.83124999999995
20
51.125000000000007
42
0.41421356237314705
10
166.33124999999995
20
51.625000000000014
10
162.28125000000017
20
51.625000000000014
42
0.41421356237313667
10
161.78125000000009
20
51.125000000000007
10
161.78125000000017
20
41.125000000000007
42
-0.41421356237304302
10
161.28125000000009
20
40.625000000000007
10
148.28125000000014
20
40.625
42
-0.41421356237313667
10
147.78125000000006
20
41.125000000000007
10
147.78125000000014
20
54.125000000000021
42
-0.41421356237307944
10
148.28125000000014
20
54.624999999999993
10
160.3062500000002
20
54.625000000000014
42
0.41421356237314183
10
160.80625000000023
20
55.125000000000028
10
160.8062500000002
20
56.650000000000027
42
0.4142135623730222
10
160.3062500000002
20
57.150000000000027
10
68.293750000000131
20
57.150000000000027
42
0.41421356237310542
10
67.793750000000131
20
56.650000000000027
10
67.793750000000131
20
55.124999999999993
42
0.41421356237313667
10
68.293750000000131
20
54.624999999999993
10
80.318750000000108
20
54.625000000000021
42
-0.41421356237310025
10
80.818750000000122
20
54.125000000000021
10
80.818750000000136
20
41.125000000000007
42
-0.41421356237311585
10
80.318750000000108
20
40.625000000000007
10
67.318750000000136
20
40.625000000000007
42
-0.41421356237312623
10
66.81875000000008
20
41.125000000000007
10
66.818749999999824
20
51.125000000000028
42
0.41421356237308982
10
66.318749999999824
20
51.625000000000014
10
62.268750000000139
20
51.625000000000014
42
0.41421356237311585
10
61.768750000000132
20
51.125000000000007
10
61.768750000000132
20
41.125000000000007
42
-0.41421356237310542
10
61.268750000000097
20
40.625000000000007
10
48.268750000000118
20
40.625
42
-0.41421356237311585
10
47.768750000000075
20
41.125000000000007
10
47.768750000000104
20
54.125000000000021
42
-0.41421356237308982
10
48.268750000000118
20
54.624999999999993
10
60.293750000000102
20
54.625000000000021
42
0.41421356237313145
10
60.793750000000102
20
55.125000000000028
10
60.793750000000102
20
56.650000000000027
42
0.41421356237310542
10
60.293750000000102
20
57.150000000000027
10
-41.243749999999899
20
57.150000000000027
42
0.41421356237310542
10
-41.743749999999899
20
56.650000000000027
10
-41.743749999999899
20
55.124999999999993
42
0.41421356237313667
10
-41.243749999999899
20
54.624999999999993
10
-29.218749999999929
20
54.625000000000021
42
-0.41421356237310802
10
-28.71874999999989
20
54.125000000000021
10
-28.71874999999989
20
41.125000000000007
42
-0.41421356237312884
10
-29.218749999999929
20
40.625000000000007
10
-42.218749999999908
20
40.625
42
-0.41421356237311585
10
-42.718749999999936
20
41.125000000000007
10
-42.71875000000022
20
51.125000000000028
42
0.41421356237308982
10
-43.218750000000213
20
51.625000000000014
10
-47.268749999999898
20
51.625000000000014
42
0.41421356237307944
10
-47.768749999999898
20
51.125000000000007
10
-47.768749999999905
20
41.125000000000007
42
-0.41421356237311585
10
-48.26874999999994
20
40.625000000000007
10
-61.268749999999912
20
40.625000000000007
42
-0.41421356237312623
10
-61.768749999999962
20
41.125000000000007
10
-61.768749999999926
20
54.125000000000021
42
-0.41421356237308982
10
-61.268749999999912
20
54.624999999999993
10
-49.24374999999992
20
54.625000000000021
42
0.41421356237309503
10
-48.743749999999935
20
55.125000000000028
10
-48.743749999999935
20
56.650000000000027
42
0.41421356237311063
10
-49.24374999999992
20
57.150000000000027
10
-131.73124999999996
20
57.150000000000027
42
0.41421356237307944
10
-132.23124999999996
20
56.650000000000027
10
-132.23124999999996
20
55.124999999999993
42
0.41421356237311585
10
-131.73124999999996
20
54.625
10
-119.70624999999998
20
54.625000000000014
42
-0.4142135623730846
10
-119.20624999999994
20
54.125000000000021
10
-119.20624999999994
20
41.125000000000007
42
-0.41421356237308982
10
-119.70624999999998
20
40.625000000000007
10
-132.70624999999995
20
40.625000000000007
42
-0.41421356237312101
10
-133.20625000000001
20
41.125000000000007
10
-133.2062500000001
20
51.125000000000028
42
0.41421356237312101
10
-133.70625000000013
20
51.625000000000021
10
-137.75624999999994
20
51.625000000000014
42
0.41421356237309503
10
-138.25624999999997
20
51.125000000000028
10
-138.25624999999997
20
41.125000000000007
42
-0.41421356237311585
10
-138.75624999999999
20
40.625000000000007
10
-151.75624999999997
20
40.625000000000007
42
-0.41421356237312101
10
-152.25625000000005
20
41.125000000000007
10
-152.25624999999997
20
54.125000000000021
42
-0.41421356237311585
10
-151.75624999999997
20
54.624999999999993
10
-139.73124999999999
20
54.625000000000028
42
0.41421356237308982
10
-139.23124999999999
20
55.125000000000028
10
-139.23124999999999
20
56.650000000000027
42
0.41421356237310542
10
-139.73124999999999
20
57.150000000000027
10
-181.35624999999999
20
57.150000000000027
42
0.41421356237309764
10
-183.35624999999999
20
55.150000000000013
10
-183.35624999999999
20
3.0250000000000288
42
0.41421356237317308
10
-182.85624999999999
20
2.5250000000000368
10
-177.85624999999999
20
2.525000000000043
42
-0.41421356237313978
10
-177.35624999999999
20
2.0250000000000301
10
-177.35624999999999
20
-2.0250000000000123
42
0.41421356237317358
10
-176.85624999999999
20
-2.5250000000000048
10
-162.56875000000005
20
-2.5249999999999839
42
-0.41421356237313794
10
-162.06874999999997
20
-3.0249999999999932
10
-162.06874999999997
20
-16.024999999999999
42
-0.41421356237304169
10
-162.56875000000005
20
-16.524999999999999
10
-177.94999999999999
20
-16.525000000000006
42
-0.41421356237313667
10
-178.45000000000005
20
-16.024999999999999
10
-178.44999999999999
20
-3.0250000000000155
42
0.41421356237314089
10
-178.94999999999999
20
-2.525000000000019
10
-182.85624999999999
20
-2.5250000000000004
42
0.41421356237313894
10
-183.35624999999999
20
-3.025000000000011
10
-183.35624999999999
20
-55.150000000000006
42
0.41421356237309503
10
-181.35625000000002
20
-57.149999999999999
10
-138.34999999999997
20
-57.149999999999991
42
0.4142135623730846
10
-137.84999999999997
20
-56.649999999999999
10
-137.84999999999997
20
-55.125
42
0.41421356237308982
10
-138.34999999999997
20
-54.625
10
-151.75624999999994
20
-54.625
42
-0.41421356237313667
10
-152.25624999999997
20
-54.125000000000014
10
-152.25624999999997
20
-41.125
42
-0.41421356237313667
10
-151.75624999999994
20
-40.625000000000014
10
-138.75624999999999
20
-40.625
42
-0.41421356237310025
10
-138.25624999999997
20
-41.125
10
-138.25624999999999
20
-51.125000000000007
42
0.41421356237311585
10
-137.75624999999994
20
-51.625000000000007
10
-128.94374999999999
20
-51.625000000000021
42
0.41421356237310025
10
-128.44374999999999
20
-51.125000000000007
10
-128.44374999999999
20
-41.125
42
-0.41421356237313667
10
-127.94374999999997
20
-40.625000000000014
10
-114.94375000000005
20
-40.625
42
-0.41421356237312101
10
-114.44374999999997
20
-41.125
10
-114.44374999999997
20
-54.125000000000014
42
-0.4142135623731783
10
-114.94375000000004
20
-54.625
10
-128.34999999999997
20
-54.625000000000014
42
0.4142135623730846
10
-128.84999999999997
20
-55.125
10
-128.84999999999997
20
-56.649999999999999
42
0.41421356237308982
10
-128.34999999999999
20
-57.149999999999999
10
47.387500000000045
20
-57.149999999999999
42
0.41421356237309503
10
47.887500000000067
20
-56.649999999999999
10
47.887500000000067
20
-55.125
42
0.41421356237309503
10
47.387500000000067
20
-54.625
10
33.981250000000074
20
-54.625
42
-0.41421356237313667
10
33.481250000000031
20
-54.125000000000014
10
33.481250000000024
20
-41.125
42
-0.41421356237313667
10
33.981250000000074
20
-40.625000000000014
10
46.98125000000001
20
-40.625
42
-0.41421356237313667
10
47.481250000000045
20
-41.125
10
47.481250000000053
20
-51.125000000000007
42
0.41421356237311063
10
47.981250000000053
20
-51.625000000000014
10
56.793750000000045
20
-51.625000000000014
42
0.41421356237307944
10
57.293750000000045
20
-51.125000000000007
10
57.293750000000053
20
-41.125
42
-0.41421356237315227
10
57.793750000000095
20
-40.625000000000014
10
70.793750000000017
20
-40.625
42
-0.41421356237312623
10
71.293750000000074
20
-41.125
10
71.293750000000074
20
-54.125000000000014
42
-0.41421356237312101
10
70.793750000000017
20
-54.625
10
57.387500000000038
20
-54.625
42
0.41421356237310025
10
56.887500000000053
20
-55.125
10
56.887500000000053
20
-56.649999999999999
42
0.41421356237310025
10
57.387500000000031
20
-57.149999999999999
10
140.84375
20
-57.149999999999991
42
0.4142135623730534
10
141.34375000000003
20
-56.649999999999999
10
141.34375000000006
20
-54.874999999999979
42
0.4142135623730846
10
140.84375
20
-54.375
10
134.89325000000008
20
-54.375
42
-0.41421356237311585
10
134.39325000000008
20
-53.874999999999972
10
134.39325000000008
20
-39.374999999999986
42
-0.41421356237305862
10
134.89325000000008
20
-38.874999999999979
10
141.39325000000014
20
-38.874999999999979
42
-0.41421356237309243
10
141.89325000000011
20
-39.374999999999986
10
141.89325000000011
20
-50.650000000000013
42
0.414213562373069
10
142.39325000000011
20
-51.15000000000002
10
147.28125000000009
20
-51.149999999999991
42
0.41421356237310025
10
147.78125000000011
20
-50.650000000000013
10
147.78125000000014
20
-41.125000000000007
42
-0.41421356237312623
10
148.28125000000014
20
-40.625000000000028
10
161.28125000000009
20
-40.624999999999993
42
-0.41421356237314183
10
161.78125000000017
20
-41.125000000000007
10
161.78125000000017
20
-54.125000000000021
42
-0.41421356237304818
10
161.28125000000009
20
-54.625000000000021
10
148.84375000000006
20
-54.625000000000014
42
0.41421356237311063
10
148.34375
20
-55.125000000000028
10
148.34375
20
-56.649999999999999
42
0.41421356237310025
0
LWPOLYLINE
5
109
100
AcDbEntity
8
0
100
AcDbPolyline
90
8
70
1
43
0.0
10
-167.33125000000001
20
40.625000000000007
10
-180.33125000000001
20
40.624999999999993
42
-0.41421356237314183
10
-180.83125000000001
20
41.125000000000007
10
-180.83125000000001
20
54.125000000000021
42
-0.41421356237318868
10
-180.33125000000001
20
54.624999999999993
10
-167.33125000000001
20
54.625000000000028
42
-0.41421356237307422
10
-166.83124999999995
20
54.125000000000021
10
-166.83124999999995
20
41.125000000000007
42
-0.41421356237310025
0
LWPOLYLINE
5
110
100
AcDbEntity
8
0
100
AcDbPolyline
90
8
70
1
43
0.0
10
33.19375000000008
20
16.025000000000006
10
33.19375000000008
20
3.0250000000000021
42
-0.41421356237311679
10
32.693750000000037
20
2.5250000000000039
10
19.693750000000065
20
2.525000000000003
42
-0.41421356237312168
10
19.193750000000023
20
3.0250000000000021
10
19.193750000000055
20
16.025000000000006
42
-0.41421356237312495
10
19.693750000000065
20
16.524999999999991
10
32.693750000000037
20
16.525000000000002
42
-0.41421356237312495
0
LWPOLYLINE
5
111
100
AcDbEntity
8
0
100
AcDbPolyline
90
8
70
1
43
0.0
10
-114.15625
20
3.0250000000000021
10
-114.15624999999994
20
16.025000000000006
42
-0.41421356237314444
10
-113.65624999999994
20
16.524999999999991
10
-100.65624999999997
20
16.525000000000016
42
-0.41421356237313794
10
-100.15624999999993
20
16.025000000000006
10
-100.15624999999993
20
3.0250000000000021
42
-0.41421356237309209
10
-100.65624999999997
20
2.5250000000000039
10
-113.65624999999994
20
2.5250000000000004
42
-0.41421356237312301
0
LWPOLYLINE
5
112
100
AcDbEntity
8
0
100
AcDbPolyline
90
8
70
1
43
0.0
10
71.293750000000102
20
16.025000000000006
10
71.293750000000088
20
3.0250000000000021
42
-0.41421356237311424
10
70.79375000000006
20
2.5250000000000039
10
57.793750000000095
20
2.5250000000000035
42
-0.41421356237312656
10
57.293750000000045
20
3.0250000000000021
10
57.293750000000081
20
16.025000000000006
42
-0.41421356237313667
10
57.793750000000095
20
16.524999999999991
10
70.79375000000006
20
16.525000000000009
42
-0.41421356237311324
0
LWPOLYLINE
5
113
100
AcDbEntity
8
0
100
AcDbPolyline
90
8
70
1
43
0.0
10
-138.25624999999997
20
3.0250000000000021
42
-0.41421356237311713
10
-138.75624999999999
20
2.5250000000000039
10
-151.75624999999997
20
2.5250000000000017
42
-0.41421356237312235
10
-152.25625000000005
20
3.0250000000000021
10
-152.25624999999997
20
16.025000000000006
42
-0.41421356237314444
10
-151.75624999999997
20
16.524999999999991
10
-138.75624999999999
20
16.525000000000002
42
-0.41421356237311846
10
-138.25624999999997
20
16.025000000000006
0
LWPOLYLINE
5
114
100
AcDbEntity
8
0
100
AcDbPolyline
90
8
70
1
43
0.0
10
-119.70624999999998
20
16.525000000000016
42
-0.41421356237313794
10
-119.20624999999994
20
16.025000000000006
10
-119.20624999999994
20
3.0250000000000021
42
-0.41421356237309209
10
-119.70624999999998
20
2.5250000000000039
10
-132.70624999999995
20
2.5250000000000004
42
-0.41421356237312301
10
-133.20625000000001
20
3.0250000000000021
10
-133.20624999999995
20
16.025000000000006
42
-0.41421356237314444
10
-132.70624999999995
20
16.524999999999991
0
LWPOLYLINE
5
115
100
AcDbEntity
8
0
100
AcDbPolyline
90
8
70
1
43
0.0
10
-18.90625
20
3.0250000000000021
42
0.41421356237311846
10
-18.406249999999961
20
2.5249999999999861
10
-5.4062499999999858
20
2.5250000000000039
42
0.41421356237311974
10
-4.9062499999999609
20
3.0250000000000021
10
-4.9062499999999432
20
16.025000000000006
42
0.41421356237312362
10
-5.4062499999999858
20
16.525000000000027
10
-18.406249999999961
20
16.524999999999991
42
0.41421356237311846
10
-18.906249999999964
20
16.025000000000006
0
LWPOLYLINE
5
116
100
AcDbEntity
8
0
100
AcDbPolyline
90
8
70
1
43
0.0
10
-81.606250000000017
20
2.5250000000000128
42
0.41421356237314705
10
-81.106249999999974
20
3.0250000000000021
10
-81.10624999999996
20
16.025000000000006
42
0.41421356237315488
10
-81.606250000000017
20
16.525000000000027
10
-94.60624999999996
20
16.524999999999991
42
0.41421356237313406
10
-95.10624999999996
20
16.025000000000006
10
-95.106250000000017
20
3.0250000000000021
42
0.41421356237312462
10
-94.60624999999996
20
2.5249999999999861
0
LWPOLYLINE
5
117
100
AcDbEntity
8
0
100
AcDbPolyline
90
8
70
1
43
0.0
10
52.243750000000084
20
3.0250000000000021
10
52.243750000000105
20
16.025000000000006
42
0.41421356237311585
10
51.743750000000048
20
16.525000000000027
10
38.743750000000077
20
16.524999999999991
42
0.41421356237312884
10
38.24375000000007
20
16.025000000000006
10
38.243750000000034
20
3.0250000000000021
42
0.4142135623731204
10
38.743750000000077
20
2.5249999999999861
10
51.743750000000048
20
2.5249999999999995
42
0.41421356237311846
0
LWPOLYLINE
5
118
100
AcDbEntity
8
0
100
AcDbPolyline
90
8
70
1
43
0.0
10
81.106250000000117
20
16.025000000000006
10
81.10625000000006
20
3.0250000000000021
42
0.41421356237312462
10
81.606250000000102
20
2.5249999999999861
10
94.606250000000074
20
2.525000000000011
42
0.41421356237311679
10
95.106250000000102
20
3.0250000000000021
10
95.106250000000131
20
16.025000000000006
42
0.41421356237309503
10
94.606250000000074
20
16.525000000000027
10
81.606250000000102
20
16.524999999999991
42
0.41421356237313406
0
LWPOLYLINE
5
119
100
AcDbEntity
8
0
100
AcDbPolyline
90
8
70
1
43
0.0
10
56.506250000000051
20
-2.5249999999999977
42
-0.4142135623731194
10
57.006250000000108
20
-3.0249999999999932
10
57.006250000000108
20
-16.024999999999999
42
-0.41421356237311846
10
56.506250000000051
20
-16.524999999999999
10
43.50625000000008
20
-16.525000000000006
42
-0.41421356237311585
10
43.006250000000037
20
-16.024999999999999
10
43.006250000000065
20
-3.0249999999999932
42
-0.41421356237311552
10
43.50625000000008
20
-2.5250000000000128
0
LWPOLYLINE
5
120
100
AcDbEntity
8
0
100
AcDbPolyline
90
8
70
1
43
0.0
10
-51.743749999999942
20
-2.5250000000000128
42
0.41421356237311585
10
-52.243749999999942
20
-3.0249999999999932
10
-52.243749999999984
20
-16.024999999999999
42
0.41421356237313145
10
-51.743749999999942
20
-16.525000000000016
10
-38.74374999999997
20
-16.524999999999999
42
0.41421356237311846
10
-38.243749999999949
20
-16.024999999999999
10
-38.243749999999928
20
-3.0249999999999932
42
0.4142135623731204
10
-38.74374999999997
20
-2.5249999999999773
0
LWPOLYLINE
5
121
100
AcDbEntity
8
0
100
AcDbPolyline
90
8
70
1
43
0.0
10
-76.84375
20
-2.5249999999999773
10
-89.843749999999972
20
-2.5250000000000261
42
0.41421356237314444
10
-90.343749999999957
20
-3.0249999999999932
10
-90.34375
20
-16.024999999999999
42
0.41421356237312623
10
-89.843749999999972
20
-16.525000000000016
10
-76.84375
20
-16.524999999999995
42
0.41421356237311324
10
-76.343749999999972
20
-16.024999999999999
10
-76.343749999999943
20
-3.0249999999999932
42
0.41421356237310936
0
LWPOLYLINE
5
122
100
AcDbEntity
8
0
100
AcDbPolyline
90
8
70
1
43
0.0
10
-14.143749999999997
20
-16.024999999999999
42
0.41421356237312101
10
-13.643749999999955
20
-16.525000000000016
10
-0.64374999999998295
20
-16.524999999999995
42
0.41421356237311935
10
-0.14374999999995808
20
-16.024999999999999
10
-0.14374999999994031
20
-3.0249999999999932
42
0.41421356237312101
10
-0.64374999999998295
20
-2.5249999999999773
10
-13.643749999999955
20
-2.5250000000000128
42
0.41421356237312101
10
-14.143749999999962
20
-3.0249999999999932
0
LWPOLYLINE
5
123
100
AcDbEntity
8
0
100
AcDbPolyline
90
8
70
1
43
0.0
10
-108.89374999999994
20
-2.5250000000000128
10
-95.893749999999983
20
-2.5249999999999928
42
-0.41421356237312235
10
-95.393749999999926
20
-3.0249999999999932
10
-95.393749999999926
20
-16.024999999999999
42
-0.41421356237312101
10
-95.893749999999983
20
-16.524999999999999
10
-108.89374999999994
20
-16.525000000000006
42
-0.41421356237313667
10
-109.39374999999998
20
-16.024999999999999
10
-109.39374999999998
20
-3.0249999999999932
42
-0.41421356237310381
0
LWPOLYLINE
5
124
100
AcDbEntity
8
0
100
AcDbPolyline
90
8
70
1
43
0.0
10
18.406250000000025
20
-16.524999999999995
42
0.41421356237312235
10
18.90625000000005
20
-16.024999999999999
10
18.906250000000075
20
-3.0249999999999932
42
0.41421356237311485
10
18.406250000000025
20
-2.5249999999999773
10
5.4062500000000568
20
-2.5250000000000128
42
0.41421356237312101
10
4.9062500000000497
20
-3.0249999999999932
10
4.9062500000000151
20
-16.024999999999999
42
0.41421356237312301
10
5.4062500000000568
20
-16.525000000000016
0
LWPOLYLINE
5
125
100
AcDbEntity
8
0
100
AcDbPolyline
90
8
70
1
43
0.0
10
-33.193749999999966
20
-16.024999999999999
10
-33.19374999999993
20
-3.0249999999999932
42
-0.41421356237312007
10
-32.69374999999993
20
-2.5250000000000128
10
-19.693749999999962
20
-2.5249999999999941
42
-0.41421356237312168
10
-19.19374999999992
20
-3.0249999999999932
10
-19.193749999999923
20
-16.024999999999999
42
-0.41421356237312235
10
-19.693749999999962
20
-16.524999999999999
10
-32.69374999999993
20
-16.524999999999995
42
-0.41421356237312235
0
LWPOLYLINE
5
126
100
AcDbEntity
8
0
100
AcDbPolyline
90
8
70
1
43
0.0
10
-70.79374999999996
20
-16.525000000000016
10
-57.793749999999982
20
-16.525000000000002
42
0.41421356237312884
10
-57.293749999999967
20
-16.024999999999999
10
-57.293749999999939
20
-3.0249999999999932
42
0.41421356237312984
10
-57.793749999999982
20
-2.5249999999999773
10
-70.79374999999996
20
-2.5250000000000128
42
0.41421356237311585
10
-71.293749999999946
20
-3.0249999999999932
10
-71.293749999999974
20
-16.024999999999999
42
0.41421356237312101
0
LWPOLYLINE
5
127
100
AcDbEntity
8
0
100
AcDbPolyline
90
8
70
1
43
0.0
10
-4.6187499999999586
20
-22.07500000000001
42
-0.41421356237312007
10
-4.1187499999999488
20
-21.575000000000024
10
8.8812500000000227
20
-21.57500000000001
42
-0.41421356237311519
10
9.3812500000000636
20
-22.07500000000001
10
9.3812500000000636
20
-35.07500000000001
42
-0.4142135623731204
10
8.8812500000000227
20
-35.57500000000001
10
-4.1187499999999488
20
-35.57500000000001
42
-0.41421356237312656
10
-4.6187499999999924
20
-35.07500000000001
0
LWPOLYLINE
5
128
100
AcDbEntity
8
0
100
AcDbPolyline
90
8
70
1
43
0.0
10
-127.94374999999997
20
-2.5250000000000155
42
0.41421356237309859
10
-128.44374999999997
20
-3.0249999999999932
10
-128.44374999999999
20
-16.024999999999999
42
0.41421356237311063
10
-127.94374999999997
20
-16.525000000000016
10
-114.94374999999998
20
-16.524999999999991
42
0.41421356237314705
10
-114.44374999999997
20
-16.024999999999999
10
-114.44374999999994
20
-3.0249999999999932
42
0.41421356237312462
10
-114.94374999999998
20
-2.5249999999999773
0
LWPOLYLINE
5
129
100
AcDbEntity
8
0
100
AcDbPolyline
90
8
70
1
43
0.0
10
-146.99374999999998
20
-2.5250000000000261
42
0.41421356237314444
10
-147.49374999999995
20
-3.0249999999999932
10
-147.49375000000001
20
-16.024999999999999
42
0.41421356237312623
10
-146.99374999999998
20
-16.525000000000016
10
-133.99374999999998
20
-16.524999999999991
42
0.41421356237314705
10
-133.49374999999998
20
-16.024999999999999
10
-133.49374999999995
20
-3.0249999999999932
42
0.41421356237312462
10
-133.99374999999998
20
-2.5249999999999773
0
LWPOLYLINE
5
130
100
AcDbEntity
8
0
100
AcDbPolyline
90
8
70
1
43
0.0
10
27.931250000000034
20
-21.57500000000001
42
-0.41421356237311063
10
28.431250000000077
20
-22.07500000000001
10
28.431250000000077
20
-35.07500000000001
42
-0.41421356237311585
10
27.931250000000034
20
-35.57500000000001
10
14.931250000000064
20
-35.57500000000001
42
-0.41421356237312623
10
14.43125000000002
20
-35.07500000000001
10
14.431250000000055
20
-22.075000000000003
42
-0.41421356237311713
10
14.931250000000064
20
-21.575000000000024
0
LWPOLYLINE
5
131
100
AcDbEntity
8
0
100
AcDbPolyline
90
8
70
1
43
0.0
10
73.962500000000091
20
-3.0249999999999932
10
73.962500000000077
20
-16.024999999999999
42
0.41421356237311974
10
74.462500000000091
20
-16.525000000000016
10
87.462500000000063
20
-16.524999999999991
42
0.41421356237311585
10
87.962500000000091
20
-16.024999999999999
10
87.962500000000134
20
-3.0249999999999932
42
0.41421356237309437
10
87.462500000000063
20
-2.5249999999999773
10
74.462500000000091
20
-2.5250000000000177
42
0.41421356237312851
0
LWPOLYLINE
5
132
100
AcDbEntity
8
0
100
AcDbPolyline
90
8
70
1
43
0.0
10
37.45625000000004
20
-16.524999999999999
10
24.456250000000075
20
-16.525000000000002
42
-0.41421356237311974
10
23.956250000000026
20
-16.024999999999999
10
23.956250000000058
20
-3.0249999999999932
42
-0.41421356237312168
10
24.456250000000072
20
-2.5250000000000128
10
37.45625000000004
20
-2.5249999999999959
42
-0.41421356237312301
10
37.956250000000075
20
-3.0249999999999932
10
37.956250000000075
20
-16.024999999999999
42
-0.41421356237312623
0
LWPOLYLINE
5
133
100
AcDbEntity
8
0
100
AcDbPolyline
90
8
70
1
43
0.0
10
-99.368749999999935
20
-35.575000000000017
42
-0.41421356237313667
10
-99.868749999999977
20
-35.07500000000001
10
-99.868749999999963
20
-22.07500000000001
42
-0.41421356237313145
10
-99.368749999999935
20
-21.575000000000024
10
-86.368749999999963
20
-21.575000000000003
42
-0.41421356237313667
10
-85.86874999999992
20
-22.07500000000001
10
-85.86874999999992
20
-35.07500000000001
42
-0.41421356237309503
10
-86.368749999999963
20
-35.57500000000001
0
LWPOLYLINE
5
134
100
AcDbEntity
8
0
100
AcDbPolyline
90
8
70
1
43
0.0
10
-80.81874999999998
20
-35.07500000000001
42
0.41421356237312362
10
-80.31874999999998
20
-35.575000000000031
10
-67.318750000000009
20
-35.575000000000017
42
0.41421356237312362
10
-66.818749999999966
20
-35.07500000000001
10
-66.818749999999937
20
-22.07500000000001
42
0.41421356237312623
10
-67.318749999999994
20
-21.574999999999992
10
-80.31874999999998
20
-21.575000000000017
42
0.41421356237309764
10
-80.818749999999966
20
-22.07500000000001
0
LWPOLYLINE
5
135
100
AcDbEntity
8
0
100
AcDbPolyline
90
8
70
1
43
0.0
10
-124.46875
20
-21.574999999999992
10
-137.46874999999994
20
-21.575000000000028
42
0.41421356237311063
10
-137.96874999999997
20
-22.07500000000001
10
-137.96875
20
-35.07500000000001
42
0.41421356237312623
10
-137.46874999999994
20
-35.575000000000031
10
-124.46875
20
-35.575000000000003
42
0.41421356237314705
10
-123.96874999999996
20
-35.07500000000001
10
-123.96874999999994
20
-22.07500000000001
42
0.41421356237315227
0
LWPOLYLINE
5
136
100
AcDbEntity
8
0
100
AcDbPolyline
90
8
70
1
43
0.0
10
-61.76874999999999
20
-35.07500000000001
10
-61.768749999999962
20
-22.07500000000001
42
-0.41421356237312362
10
-61.26874999999994
20
-21.575000000000024
10
-48.268749999999997
20
-21.575000000000006
42
-0.41421356237311846
10
-47.768749999999933
20
-22.07500000000001
10
-47.768749999999933
20
-35.07500000000001
42
-0.41421356237312884
10
-48.268749999999983
20
-35.57500000000001
10
-61.26874999999994
20
-35.57500000000001
42
-0.41421356237312623
0
LWPOLYLINE
5
137
100
AcDbEntity
8
0
100
AcDbPolyline
90
8
70
1
43
0.0
10
-105.41874999999997
20
-21.575000000000003
42
-0.41421356237313667
10
-104.91874999999993
20
-22.07500000000001
10
-104.91874999999993
20
-35.07500000000001
42
-0.41421356237309503
10
-105.41874999999997
20
-35.57500000000001
10
-118.41874999999996
20
-35.575000000000003
42
-0.41421356237314705
10
-118.91875
20
-35.07500000000001
10
-118.91874999999997
20
-22.07500000000001
42
-0.41421356237314183
10
-118.41874999999996
20
-21.575000000000024
0
LWPOLYLINE
5
138
100
AcDbEntity
8
0
100
AcDbPolyline
90
8
70
1
43
0.0
10
-42.218749999999936
20
-35.575000000000031
10
-29.218749999999968
20
-35.57500000000001
42
0.41421356237312623
10
-28.718749999999943
20
-35.07500000000001
10
-28.718749999999929
20
-22.07500000000001
42
0.41421356237311846
10
-29.218749999999968
20
-21.574999999999992
10
-42.218749999999936
20
-21.575000000000024
42
0.41421356237310802
10
-42.718749999999936
20
-22.07500000000001
10
-42.718749999999979
20
-35.07500000000001
42
0.41421356237312623
0
LWPOLYLINE
5
139
100
AcDbEntity
8
0
100
AcDbPolyline
90
8
70
1
43
0.0
10
-23.168749999999925
20
-21.575000000000024
10
-10.168749999999953
20
-21.575000000000017
42
-0.41421356237311197
10
-9.6687499999999105
20
-22.07500000000001
10
-9.6687499999999122
20
-35.07500000000001
42
-0.41421356237311974
10
-10.168749999999953
20
-35.57500000000001
10
-23.168749999999925
20
-35.57500000000001
42
-0.41421356237311585
10
-23.668749999999967
20
-35.07500000000001
10
-23.668749999999928
20
-22.07500000000001
42
-0.41421356237313145
0
LWPOLYLINE
5
140
100
AcDbEntity
8
0
100
AcDbPolyline
90
8
70
1
43
0.0
10
46.981250000000045
20
-35.57500000000001
42
0.41421356237312623
10
47.481250000000081
20
-35.07500000000001
10
47.481250000000095
20
-22.07500000000001
42
0.41421356237311585
10
46.981250000000045
20
-21.574999999999992
10
33.981250000000074
20
-21.575000000000024
42
0.41421356237312362
10
33.481250000000074
20
-22.07500000000001
10
33.481250000000024
20
-35.07500000000001
42
0.41421356237312101
10
33.981250000000074
20
-35.575000000000031
0
LWPOLYLINE
5
141
100
AcDbEntity
8
0
100
AcDbPolyline
90
8
70
1
43
0.0
10
-155.42500000000001
20
-21.574999999999992
10
-168.42499999999995
20
-21.575000000000056
42
0.41421356237312623
10
-168.92499999999995
20
-22.07500000000001
10
-168.92499999999998
20
-35.07500000000001
42
0.41421356237313145
10
-168.42499999999998
20
-35.574999999999989
10
-155.42499999999995
20
-35.575000000000017
42
0.41421356237313406
10
-154.92499999999995
20
-35.07500000000001
10
-154.92499999999995
20
-22.07500000000001
42
0.41421356237315227
0
LWPOLYLINE
5
142
100
AcDbEntity
8
0
100
AcDbPolyline
90
8
70
1
43
0.0
10
-175.56874999999997
20
-40.625000000000007
42
0.4142135623730846
10
-176.06874999999999
20
-41.125
10
-176.06874999999997
20
-54.125000000000014
42
0.41421356237311063
10
-175.56874999999994
20
-54.624999999999993
10
-162.56875000000005
20
-54.625000000000014
42
0.41421356237313145
10
-162.06874999999997
20
-54.125000000000014
10
-162.06874999999997
20
-41.125
42
0.41421356237312101
10
-162.56875000000005
20
-40.625000000000014
0
LWPOLYLINE
5
143
100
AcDbEntity
8
0
100
AcDbPolyline
90
8
70
1
43
0.0
10
92.030750000000097
20
19.824999999999999
10
98.530750000000154
20
19.824999999999974
42
0.41421356237307683
10
99.030750000000083
20
20.324999999999985
10
99.030750000000083
20
34.824999999999989
42
0.41421356237307161
10
98.530750000000154
20
35.324999999999989
10
92.030750000000097
20
35.324999999999982
42
0.41421356237310542
10
91.530750000000083
20
34.824999999999989
10
91.530750000000083
20
20.324999999999985
42
0.41421356237311846
0
LWPOLYLINE
5
144
100
AcDbEntity
8
0
100
AcDbPolyline
90
8
70
1
43
0.0
10
59.675000000000082
20
-22.07500000000001
10
59.675000000000047
20
-35.07500000000001
42
0.41421356237314183
10
60.175000000000097
20
-35.575000000000031
10
73.175000000000082
20
-35.575000000000003
42
0.41421356237311846
10
73.675000000000082
20
-35.07500000000001
10
73.675000000000097
20
-22.07500000000001
42
0.41421356237312623
10
73.175000000000068
20
-21.574999999999992
10
60.17500000000009
20
-21.575000000000024
42
0.41421356237310281
0
LWPOLYLINE
5
145
100
AcDbEntity
8
0
100
AcDbPolyline
90
8
70
1
43
0.0
10
-33.981250000000003
20
-54.625
42
0.41421356237314183
10
-33.481249999999946
20
-54.125000000000014
10
-33.481249999999953
20
-41.125
42
0.41421356237313667
10
-33.981250000000003
20
-40.625000000000014
10
-46.981249999999932
20
-40.625000000000007
42
0.41421356237315227
10
-47.481249999999982
20
-41.125
10
-47.481249999999982
20
-54.125000000000014
42
0.41421356237315748
10
-46.981249999999932
20
-54.624999999999993
0
LWPOLYLINE
5
146
100
AcDbEntity
8
0
100
AcDbPolyline
90
8
70
1
43
0.0
10
86.368750000000091
20
-21.575000000000017
42
0.41421356237309764
10
85.868750000000091
20
-22.07500000000001
10
85.868750000000063
20
-35.07500000000001
42
0.41421356237309764
10
86.368750000000091
20
-35.575000000000031
10
99.368750000000077
20
-35.57500000000001
42
0.41421356237312101
10
99.868750000000105
20
-35.07500000000001
10
99.868750000000119
20
-22.07500000000001
42
0.41421356237309764
10
99.368750000000077
20
-21.574999999999992
0
LWPOLYLINE
5
147
100
AcDbEntity
8
0
100
AcDbPolyline
90
8
70
1
43
0.0
10
20.668750000000031
20
-54.625
42
0.41421356237307422
10
21.168750000000038
20
-54.125000000000014
10
21.168750000000035
20
-38.125000000000007
42
0.4142135623730846
10
20.668750000000031
20
-37.625000000000014
10
12.66875000000006
20
-37.625000000000014
42
0.41421356237308593
10
12.168750000000053
20
-38.125000000000007
10
12.168750000000056
20
-54.125000000000014
42
0.41421356237310281
10
12.66875000000006
20
-54.625
0
LWPOLYLINE
5
148
100
AcDbEntity
8
0
100
AcDbPolyline
90
8
70
1
43
0.0
10
180.58125000000015
20
-53.287000000000013
10
180.58125000000013
20
-46.786999999999999
42
0.41421356237301177
10
180.08125000000013
20
-46.28700000000002
10
165.58125000000015
20
-46.287000000000006
42
0.41421356237313145
10
165.08125000000013
20
-46.786999999999999
10
165.08125000000013
20
-53.287000000000013
42
0.41421356237314183
10
165.58125000000015
20
-53.787000000000013
10
180.08125000000013
20
-53.78700000000002
42
0.41421356237313667
0
LWPOLYLINE
5
149
100
AcDbEntity
8
0
100
AcDbPolyline
90
8
70
1
43
0.0
10
165.58125000000015
20
-29.913000000000025
42
-0.41421356237313928
10
165.08125000000013
20
-29.413000000000014
10
165.08125000000013
20
-22.913000000000004
42
-0.41421356237317308
10
165.58125000000015
20
-22.413000000000011
10
180.08125000000013
20
-22.413000000000032
42
-0.41421356237315748
10
180.58125000000015
20
-22.913000000000004
10
180.58125000000015
20
-29.413000000000014
42
-0.41421356237312362
10
180.08125000000013
20
-29.91299999999999
0
LWPOLYLINE
5
150
100
AcDbEntity
8
0
100
AcDbPolyline
90
8
70
1
43
0.0
10
-148.28125
20
35.575000000000031
10
-161.28124999999997
20
35.574999999999996
42
0.41421356237316526
10
-161.78124999999997
20
35.07500000000001
10
-161.78125
20
22.07500000000001
42
0.41421356237308721
10
-161.28124999999997
20
21.574999999999992
10
-148.28125
20
21.575000000000021
42
0.41421356237311585
10
-147.78124999999997
20
22.07500000000001
10
-147.78124999999994
20
35.07500000000001
42
0.41421356237312623
0
LWPOLYLINE
5
151
100
AcDbEntity
8
0
100
AcDbPolyline
90
8
70
1
43
0.0
10
-180.33125000000001
20
35.574999999999989
42
0.41421356237316009
10
-180.83125000000001
20
35.07500000000001
10
-180.83125000000001
20
22.07500000000001
42
0.41421356237314705
10
-180.33125000000001
20
21.574999999999992
10
-167.33125000000001
20
21.575000000000017
42
0.41421356237310802
10
-166.83124999999995
20
22.07500000000001
10
-166.83124999999995
20
35.07500000000001
42
0.41421356237308721
10
-167.33125000000001
20
35.575000000000031
0
LWPOLYLINE
5
152
100
AcDbEntity
8
0
100
AcDbPolyline
90
8
70
1
43
0.0
10
-123.68125000000003
20
22.07500000000001
42
0.41421356237313406
10
-123.18124999999996
20
21.574999999999992
10
-110.18124999999998
20
21.575000000000006
42
0.41421356237313406
10
-109.68124999999998
20
22.07500000000001
10
-109.68124999999993
20
35.07500000000001
42
0.41421356237312623
10
-110.18124999999998
20
35.575000000000031
10
-123.18124999999995
20
35.574999999999989
42
0.41421356237310025
10
-123.68124999999998
20
35.07500000000001
0
LWPOLYLINE
5
153
100
AcDbEntity
8
0
100
AcDbPolyline
90
8
70
1
43
0.0
10
-46.981249999999939
20
21.575000000000006
42
-0.41421356237311324
10
-47.481249999999982
20
22.07500000000001
10
-47.481249999999932
20
35.07500000000001
42
-0.41421356237312362
10
-46.981249999999932
20
35.574999999999989
10
-33.981249999999967
20
35.57500000000001
42
-0.41421356237311585
10
-33.481249999999925
20
35.07500000000001
10
-33.481249999999925
20
22.07500000000001
42
-0.41421356237311063
10
-33.981249999999967
20
21.57500000000001
0
LWPOLYLINE
5
154
100
AcDbEntity
8
0
100
AcDbPolyline
90
8
70
1
43
0.0
10
180.3312500000001
20
-31.099999999999994
10
167.33125000000013
20
-31.100000000000026
42
0.41421356237309764
10
166.83125000000015
20
-31.600000000000001
10
166.83125000000013
20
-44.600000000000009
42
0.41421356237314705
10
167.33125000000013
20
-45.100000000000016
10
180.33125000000007
20
-45.099999999999994
42
0.41421356237310542
10
180.83125000000007
20
-44.600000000000009
10
180.8312500000001
20
-31.600000000000001
42
0.4142135623730846
0
LWPOLYLINE
5
155
100
AcDbEntity
8
0
100
AcDbPolyline
90
8
70
1
43
0.0
10
-142.73124999999999
20
22.07500000000001
42
0.41421356237312362
10
-142.23124999999996
20
21.574999999999992
10
-129.23124999999999
20
21.575000000000021
42
0.41421356237311585
10
-128.73124999999996
20
22.07500000000001
10
-128.73124999999993
20
35.07500000000001
42
0.41421356237312623
10
-129.23124999999999
20
35.575000000000031
10
-142.23124999999996
20
35.574999999999989
42
0.41421356237312101
10
-142.73124999999996
20
35.07500000000001
0
LWPOLYLINE
5
156
100
AcDbEntity
8
0
100
AcDbPolyline
90
8
70
1
43
0.0
10
-52.531249999999936
20
22.07500000000001
42
-0.41421356237311063
10
-53.031249999999979
20
21.57500000000001
10
-66.031249999999929
20
21.57500000000001
42
-0.41421356237312623
10
-66.53125
20
22.07500000000001
10
-66.531249999999957
20
35.07500000000001
42
-0.41421356237312884
10
-66.031249999999929
20
35.574999999999989
10
-53.031249999999979
20
35.575000000000017
42
-0.41421356237311324
10
-52.531249999999936
20
35.07500000000001
0
LWPOLYLINE
5
157
100
AcDbEntity
8
0
100
AcDbPolyline
90
8
70
1
43
0.0
10
-85.581250000000011
20
22.07500000000001
42
0.41421356237309764
10
-85.081249999999955
20
21.574999999999992
10
-72.081249999999983
20
21.575000000000017
42
0.41421356237313406
10
-71.581249999999969
20
22.07500000000001
10
-71.581249999999969
20
35.07500000000001
42
0.41421356237314183
10
-72.081249999999983
20
35.575000000000031
10
-85.081249999999955
20
35.574999999999996
42
0.41421356237311324
10
-85.581249999999983
20
35.07500000000001
0
LWPOLYLINE
5
158
100
AcDbEntity
8
0
100
AcDbPolyline
90
8
70
1
43
0.0
10
110.18125000000013
20
40.624999999999993
10
123.18125000000009
20
40.625
42
0.41421356237313667
10
123.68125000000013
20
41.125000000000007
10
123.68125000000013
20
54.125000000000021
42
0.4142135623730846
10
123.18125000000009
20
54.625000000000021
10
110.18125000000013
20
54.624999999999993
42
0.41421356237310542
10
109.68125000000015
20
54.125000000000021
10
109.68125000000008
20
41.125000000000007
42
0.41421356237315748
0
LWPOLYLINE
5
159
100
AcDbEntity
8
0
100
AcDbPolyline
90
8
70
1
43
0.0
10
-9.6687499999999087
20
54.125000000000021
42
0.41421356237313273
10
-10.168749999999953
20
54.625000000000021
10
-23.168749999999925
20
54.625
42
0.41421356237312101
10
-23.668749999999928
20
54.125000000000021
10
-23.668749999999967
20
41.125000000000007
42
0.41421356237313145
10
-23.168749999999925
20
40.624999999999993
10
-10.168749999999953
20
40.625
42
0.41421356237311846
10
-9.6687499999999282
20
41.125000000000007
0
LWPOLYLINE
5
160
100
AcDbEntity
8
0
100
AcDbPolyline
90
8
70
1
43
0.0
10
-113.65624999999994
20
40.624999999999993
10
-100.65624999999997
20
40.625000000000014
42
0.41421356237311585
10
-100.15624999999994
20
41.125000000000007
10
-100.15624999999993
20
54.125000000000021
42
0.4142135623730846
10
-100.65624999999997
20
54.625000000000021
10
-113.65624999999994
20
54.624999999999993
42
0.41421356237311585
10
-114.15624999999994
20
54.125000000000021
10
-114.15624999999999
20
41.125000000000007
42
0.41421356237309503
0
LWPOLYLINE
5
161
100
AcDbEntity
8
0
100
AcDbPolyline
90
8
70
1
43
0.0
10
99.368750000000077
20
40.625000000000014
42
0.41421356237311585
10
99.868750000000105
20
41.125000000000007
10
99.868750000000119
20
54.125000000000021
42
0.4142135623730846
10
99.368750000000077
20
54.625000000000021
10
86.368750000000091
20
54.624999999999993
42
0.41421356237310542
10
85.868750000000091
20
54.125000000000021
10
85.868750000000063
20
41.125000000000007
42
0.41421356237311063
10
86.368750000000091
20
40.624999999999993
0
LWPOLYLINE
5
162
100
AcDbEntity
8
0
100
AcDbPolyline
90
8
70
1
43
0.0
10
8.8812500000000583
20
54.625000000000021
10
-4.1187499999999124
20
54.625
42
0.41421356237311358
10
-4.6187499999999204
20
54.125000000000021
10
-4.6187499999999639
20
41.125000000000007
42
0.41421356237312557
10
-4.1187499999999133
20
40.624999999999993
10
8.8812500000000583
20
40.625000000000007
42
0.41421356237311907
10
9.3812500000000831
20
41.125000000000007
10
9.3812500000001044
20
54.125000000000021
42
0.41421356237313339
0
LWPOLYLINE
5
163
100
AcDbEntity
8
0
100
AcDbPolyline
90
8
70
1
43
0.0
10
142.73125000000016
20
41.125000000000007
10
142.73125000000016
20
54.125000000000021
42
0.4142135623730846
10
142.2312500000001
20
54.625000000000021
10
129.23125000000013
20
54.624999999999986
42
0.41421356237314183
10
128.73125000000013
20
54.125000000000021
10
128.7312500000001
20
41.125000000000007
42
0.41421356237315227
10
129.23125000000013
20
40.624999999999993
10
142.2312500000001
20
40.625
42
0.41421356237313667
0
LWPOLYLINE
5
164
100
AcDbEntity
8
0
100
AcDbPolyline
90
8
70
1
43
0.0
10
42.218750000000078
20
40.625
42
0.41421356237314183
10
42.718750000000092
20
41.125000000000007
10
42.718750000000121
20
54.125000000000021
42
0.41421356237314183
10
42.218750000000078
20
54.625000000000021
10
29.21875000000011
20
54.625
42
0.41421356237311324
10
28.718750000000099
20
54.125000000000021
10
28.718750000000068
20
41.125000000000007
42
0.41421356237313145
10
29.21875000000011
20
40.624999999999993
0
LWPOLYLINE
5
165
100
AcDbEntity
8
0
100
AcDbPolyline
90
8
70
1
43
0.0
10
-81.606249999999946
20
40.625
42
0.41421356237313667
10
-81.106249999999932
20
41.125000000000007
10
-81.106249999999875
20
54.125000000000021
42
0.4142135623730846
10
-81.606249999999946
20
54.625000000000021
10
-94.606249999999918
20
54.624999999999993
42
0.41421356237309503
10
-95.106249999999918
20
54.125000000000021
10
-95.106249999999974
20
41.125000000000007
42
0.41421356237313667
10
-94.606249999999918
20
40.624999999999993
0
LWPOLYLINE
5
166
100
AcDbEntity
8
0
100
AcDbPolyline
90
8
70
1
43
0.0
10
148.28125000000014
20
21.575000000000021
42
-0.41421356237314705
10
147.78125000000006
20
22.07500000000001
10
147.78125000000014
20
35.07500000000001
42
-0.41421356237312623
10
148.28125000000014
20
35.574999999999989
10
161.28125000000009
20
35.575000000000024
42
-0.41421356237313928
10
161.78125000000017
20
35.07500000000001
10
161.78125000000017
20
22.07500000000001
42
-0.41421356237304041
10
161.28125000000009
20
21.57500000000001
0
LWPOLYLINE
5
167
100
AcDbEntity
8
0
100
AcDbPolyline
90
8
70
1
43
0.0
10
142.73125000000016
20
22.07500000000001
42
-0.41421356237307683
10
142.2312500000001
20
21.57500000000001
10
129.23125000000013
20
21.575000000000021
42
-0.41421356237311585
10
128.7312500000001
20
22.07500000000001
10
128.73125000000013
20
35.07500000000001
42
-0.41421356237312623
10
129.23125000000013
20
35.574999999999989
10
142.2312500000001
20
35.575000000000017
42
-0.41421356237312362
10
142.73125000000016
20
35.07500000000001
0
LWPOLYLINE
5
168
100
AcDbEntity
8
0
100
AcDbPolyline
90
8
70
1
43
0.0
10
123.68125000000013
20
35.07500000000001
42
0.41421356237312623
10
123.18125000000009
20
35.575000000000031
10
110.18125000000015
20
35.574999999999989
42
0.41421356237311063
10
109.68125000000015
20
35.07500000000001
10
109.68125000000008
20
22.07500000000001
42
0.41421356237315227
10
110.18125000000013
20
21.574999999999992
10
123.18125000000009
20
21.575000000000003
42
0.41421356237313667
10
123.68125000000013
20
22.07500000000001
0
LWPOLYLINE
5
169
100
AcDbEntity
8
0
100
AcDbPolyline
90
8
70
1
43
0.0
10
166.83125000000013
20
22.07500000000001
10
166.83125000000015
20
35.07500000000001
42
-0.41421356237309764
10
167.33125000000013
20
35.574999999999989
10
180.3312500000001
20
35.575000000000003
42
-0.41421356237310802
10
180.83125000000013
20
35.07500000000001
10
180.83125000000013
20
22.07500000000001
42
-0.41421356237310281
10
180.3312500000001
20
21.57500000000001
10
167.33125000000013
20
21.575000000000003
42
-0.41421356237313667
0
LWPOLYLINE
5
170
100
AcDbEntity
8
0
100
AcDbPolyline
90
8
70
1
43
0.0
10
142.2312500000001
20
2.5250000000000039
10
129.23125000000013
20
2.5250000000000119
42
-0.41421356237311652
10
128.7312500000001
20
3.0250000000000021
10
128.73125000000013
20
16.025000000000006
42
-0.41421356237313017
10
129.23125000000013
20
16.524999999999991
10
142.2312500000001
20
16.525000000000009
42
-0.41421356237312362
10
142.73125000000016
20
16.025000000000006
10
142.73125000000016
20
3.0250000000000021
42
-0.41421356237307777
0
LWPOLYLINE
5
171
100
AcDbEntity
8
0
100
AcDbPolyline
90
8
70
1
43
0.0
10
161.78125000000017
20
16.025000000000006
10
161.78125000000017
20
3.0250000000000021
42
-0.41421356237304202
10
161.28125000000009
20
2.5250000000000039
10
148.28125000000014
20
2.524999999999995
42
-0.41421356237313667
10
147.78125000000006
20
3.0250000000000021
10
147.78125000000014
20
16.025000000000006
42
-0.41421356237313017
10
148.28125000000014
20
16.524999999999991
10
161.28125000000009
20
16.525000000000016
42
-0.41421356237313794
0
LWPOLYLINE
5
172
100
AcDbEntity
8
0
100
AcDbPolyline
90
8
70
1
43
0.0
10
128.73125000000013
20
-3.0250000000000021
42
-0.41421356237312817
10
129.23125000000013
20
-2.5250000000000217
10
142.2312500000001
20
-2.5250000000000004
42
-0.41421356237312301
10
142.73125000000016
20
-3.0250000000000021
10
142.73125000000016
20
-16.025000000000006
42
-0.41421356237307683
10
142.2312500000001
20
-16.525000000000006
10
129.23125000000013
20
-16.525000000000002
42
-0.41421356237311846
10
128.7312500000001
20
-16.025000000000006
0
LWPOLYLINE
5
173
100
AcDbEntity
8
0
100
AcDbPolyline
90
8
70
1
43
0.0
10
161.28125000000009
20
-2.5249999999999928
42
-0.41421356237313794
10
161.78125000000017
20
-3.0250000000000021
10
161.78125000000017
20
-16.025000000000006
42
-0.41421356237304302
10
161.28125000000009
20
-16.525000000000006
10
148.28125000000014
20
-16.525000000000013
42
-0.41421356237313667
10
147.78125000000006
20
-16.025000000000006
10
147.78125000000014
20
-3.0250000000000021
42
-0.41421356237312817
10
148.28125000000014
20
-2.5250000000000217
0
LWPOLYLINE
5
174
100
AcDbEntity
8
0
100
AcDbPolyline
90
8
70
1
43
0.0
10
123.68125000000013
20
16.025000000000006
42
0.41421356237312495
10
123.18125000000009
20
16.525000000000027
10
110.18125000000013
20
16.524999999999991
42
0.41421356237311324
10
109.68125000000015
20
16.025000000000006
10
109.68125000000008
20
3.0250000000000021
42
0.41421356237315521
10
110.18125000000013
20
2.5249999999999861
10
123.18125000000009
20
2.524999999999995
42
0.41421356237313667
10
123.68125000000013
20
3.0250000000000021
0
LWPOLYLINE
5
175
100
AcDbEntity
8
0
100
AcDbPolyline
90
8
70
1
43
0.0
10
142.2312500000001
20
-35.57500000000001
10
129.23125000000013
20
-35.57500000000001
42
-0.41421356237310542
10
128.7312500000001
20
-35.075000000000003
10
128.73125000000013
20
-22.074999999999999
42
-0.41421356237312884
10
129.23125000000013
20
-21.575000000000017
10
142.2312500000001
20
-21.574999999999996
42
-0.41421356237312362
10
142.73125000000016
20
-22.074999999999999
10
142.73125000000016
20
-35.075000000000003
42
-0.41421356237309243
0
LWPOLYLINE
5
176
100
AcDbEntity
8
0
100
AcDbPolyline
90
8
70
1
43
0.0
10
161.78125000000017
20
-22.074999999999999
10
161.78125000000017
20
-35.075000000000003
42
-0.41421356237304302
10
161.28125000000009
20
-35.57500000000001
10
148.28125000000014
20
-35.575000000000003
42
-0.41421356237313406
10
147.78125000000006
20
-35.075000000000003
10
147.78125000000014
20
-22.074999999999999
42
-0.41421356237312884
10
148.28125000000014
20
-21.575000000000017
10
161.28125000000009
20
-21.574999999999996
42
-0.41421356237313406
0
LWPOLYLINE
5
177
100
AcDbEntity
8
0
100
AcDbPolyline
90
8
70
1
43
0.0
10
110.18125000000013
20
-16.525000000000027
10
123.18125000000009
20
-16.525000000000016
42
0.41421356237313794
10
123.68125000000013
20
-16.025000000000006
10
123.68125000000013
20
-3.0250000000000021
42
0.41421356237312462
10
123.18125000000009
20
-2.5249999999999861
10
110.18125000000013
20
-2.5250000000000181
42
0.41421356237311258
10
109.68125000000015
20
-3.0250000000000021
10
109.68125000000008
20
-16.025000000000006
42
0.41421356237315488
0
LWPOLYLINE
5
178
100
AcDbEntity
8
0
100
AcDbPolyline
90
8
70
1
43
0.0
10
110.18125000000013
20
-21.575000000000006
42
0.41421356237309764
10
109.68125000000015
20
-22.074999999999999
10
109.68125000000008
20
-35.075000000000003
42
0.41421356237315748
10
110.18125000000013
20
-35.575000000000017
10
123.18125000000009
20
-35.57500000000001
42
0.41421356237313667
10
123.68125000000013
20
-35.075000000000003
10
123.68125000000013
20
-22.074999999999999
42
0.41421356237312362
10
123.18125000000009
20
-21.574999999999985
0
LWPOLYLINE
5
179
100
AcDbEntity
8
0
100
AcDbPolyline
90
8
70
1
43
0.0
10
132.7062500000001
20
-40.624999999999993
10
119.70625000000014
20
-40.625000000000014
42
0.41421356237309503
10
119.20625000000015
20
-41.125000000000007
10
119.20625000000008
20
-54.125000000000021
42
0.41421356237312101
10
119.70625000000014
20
-54.625000000000021
10
132.7062500000001
20
-54.625000000000014
42
0.4142135623730846
10
133.20625000000013
20
-54.125000000000021
10
133.20625000000013
20
-41.125000000000007
42
0.41421356237312623
0
LWPOLYLINE
5
180
100
AcDbEntity
8
0
100
AcDbPolyline
90
8
70
1
43
0.0
10
13.643750000000026
20
16.525000000000027
10
0.64375000000005389
20
16.524999999999995
42
0.41421356237312529
10
0.1437500000000469
20
16.025000000000006
10
0.14375000000001137
20
3.0250000000000021
42
0.41421356237312101
10
0.643750000000054
20
2.5249999999999861
10
13.643750000000026
20
2.525000000000003
42
0.41421356237312168
10
14.14375000000005
20
3.0250000000000021
10
14.143750000000072
20
16.025000000000006
42
0.41421356237312101
0
LWPOLYLINE
5
181
100
AcDbEntity
8
0
100
AcDbPolyline
90
8
70
1
43
0.0
10
-43.506249999999973
20
2.5249999999999986
42
0.41421356237312951
10
-43.006249999999959
20
3.0250000000000021
10
-43.00624999999993
20
16.025000000000006
42
0.41421356237312495
10
-43.506249999999973
20
16.525000000000027
10
-56.506249999999937
20
16.524999999999999
42
0.41421356237310153
10
-57.006249999999952
20
16.025000000000006
10
-57.006249999999987
20
3.0250000000000021
42
0.41421356237312529
10
-56.506249999999937
20
2.5249999999999861
0
LWPOLYLINE
5
182
100
AcDbEntity
8
0
100
AcDbPolyline
90
8
70
1
43
0.0
10
4.1187500000000208
20
35.575000000000031
10
-8.8812499999999499
20
35.574999999999989
42
0.41421356237312235
10
-9.3812499999999588
20
35.07500000000001
10
-9.3812499999999925
20
22.07500000000001
42
0.41421356237312101
10
-8.8812499999999517
20
21.574999999999992
10
4.1187500000000199
20
21.57500000000001
42
0.41421356237312201
10
4.6187500000000448
20
22.07500000000001
10
4.6187500000000643
20
35.07500000000001
42
0.41421356237311907
0
LWPOLYLINE
5
183
100
AcDbEntity
8
0
100
AcDbPolyline
90
8
70
1
43
0.0
10
-14.931249999999993
20
21.57500000000001
10
-27.931249999999967
20
21.57500000000001
42
-0.41421356237311063
10
-28.431250000000009
20
22.07500000000001
10
-28.43124999999997
20
35.07500000000001
42
-0.41421356237312362
10
-27.931249999999967
20
35.574999999999989
10
-14.931249999999993
20
35.57500000000001
42
-0.41421356237312623
10
-14.431249999999949
20
35.07500000000001
10
-14.431249999999951
20
22.07500000000001
42
-0.41421356237312623
0
LWPOLYLINE
5
184
100
AcDbEntity
8
0
100
AcDbPolyline
90
8
70
1
43
0.0
10
61.768750000000104
20
35.07500000000001
10
61.768750000000104
20
22.07500000000001
42
-0.41421356237309503
10
61.268750000000054
20
21.57500000000001
10
48.268750000000082
20
21.57500000000001
42
-0.41421356237311063
10
47.76875000000004
20
22.07500000000001
10
47.768750000000075
20
35.07500000000001
42
-0.41421356237312884
10
48.268750000000082
20
35.574999999999989
10
61.268750000000054
20
35.57500000000001
42
-0.41421356237312623
0
LWPOLYLINE
5
185
100
AcDbEntity
8
0
100
AcDbPolyline
90
8
70
1
43
0.0
10
76.343750000000043
20
22.07500000000001
42
0.41421356237311585
10
76.843750000000099
20
21.574999999999992
10
89.843750000000057
20
21.575000000000021
42
0.41421356237314705
10
90.343750000000099
20
22.07500000000001
10
90.343750000000128
20
35.07500000000001
42
0.41421356237312623
10
89.843750000000057
20
35.575000000000031
10
76.843750000000099
20
35.574999999999989
42
0.41421356237312884
10
76.343750000000071
20
35.07500000000001
0
LWPOLYLINE
5
186
100
AcDbEntity
8
0
100
AcDbPolyline
90
8
70
1
43
0.0
10
-176.06874999999999
20
16.025000000000006
10
-176.06875000000008
20
3.0250000000000021
42
0.41421356237316753
10
-175.56874999999997
20
2.5249999999999861
10
-162.56875000000005
20
2.5249999999999928
42
0.41421356237313794
10
-162.06874999999997
20
3.0250000000000021
10
-162.06874999999997
20
16.025000000000006
42
0.41421356237310542
10
-162.56875000000005
20
16.525000000000027
10
-175.56874999999997
20
16.524999999999984
42
0.41421356237316009
0
LWPOLYLINE
5
187
100
AcDbEntity
8
0
100
AcDbPolyline
90
8
70
1
43
0.0
10
-37.95624999999994
20
16.025000000000006
42
-0.41421356237312235
10
-37.456249999999926
20
16.524999999999991
10
-24.456249999999962
20
16.525000000000009
42
-0.41421356237312101
10
-23.956249999999923
20
16.025000000000006
10
-23.956249999999923
20
3.0250000000000021
42
-0.41421356237312462
10
-24.456249999999962
20
2.5250000000000039
10
-37.456249999999926
20
2.5250000000000035
42
-0.41421356237311879
10
-37.956249999999976
20
3.0250000000000021
0
LWPOLYLINE
5
188
100
AcDbEntity
8
0
100
AcDbPolyline
90
8
70
1
43
0.0
10
23.668750000000077
20
35.07500000000001
10
23.668750000000077
20
22.07500000000001
42
-0.41421356237311063
10
23.168750000000035
20
21.57500000000001
10
10.168750000000061
20
21.57500000000001
42
-0.41421356237312756
10
9.6687500000000153
20
22.07500000000001
10
9.6687500000000526
20
35.07500000000001
42
-0.41421356237312235
10
10.168750000000061
20
35.574999999999989
10
23.168750000000035
20
35.57500000000001
42
-0.41421356237311585
0
LWPOLYLINE
5
189
100
AcDbEntity
8
0
100
AcDbPolyline
90
8
70
1
43
0.0
10
42.718750000000092
20
35.07500000000001
10
42.718750000000099
20
22.07500000000001
42
-0.41421356237311846
10
42.218750000000036
20
21.57500000000001
10
29.218750000000071
20
21.57500000000001
42
-0.41421356237311846
10
28.718750000000032
20
22.07500000000001
10
28.718750000000068
20
35.07500000000001
42
-0.41421356237313406
10
29.218750000000071
20
35.574999999999989
10
42.218750000000028
20
35.575000000000003
42
-0.41421356237311846
0
LWPOLYLINE
5
190
100
AcDbEntity
8
0
100
AcDbPolyline
90
8
70
1
43
0.0
10
-62.056249999999949
20
3.0250000000000021
42
-0.41421356237311424
10
-62.556249999999984
20
2.5250000000000039
10
-75.556249999999949
20
2.5250000000000035
42
-0.41421356237312656
10
-76.056250000000006
20
3.0250000000000021
10
-76.056249999999977
20
16.025000000000006
42
-0.41421356237312495
10
-75.556249999999949
20
16.524999999999991
10
-62.556249999999984
20
16.525000000000009
42
-0.41421356237311324
10
-62.056249999999942
20
16.025000000000006
0
LWPOLYLINE
5
191
100
AcDbEntity
8
0
100
AcDbPolyline
90
8
70
1
43
0.0
10
-91.131249999999994
20
21.57500000000001
10
-104.13124999999997
20
21.575000000000006
42
-0.41421356237312362
10
-104.63125000000004
20
22.07500000000001
10
-104.63124999999998
20
35.07500000000001
42
-0.41421356237312101
10
-104.13124999999997
20
35.574999999999989
10
-91.131249999999994
20
35.57500000000001
42
-0.41421356237312101
10
-90.63124999999998
20
35.07500000000001
10
-90.631249999999966
20
22.07500000000001
42
-0.41421356237311585
0
ENDSEC
0
SECTION
2
OBJECTS
0
DICTIONARY
5
C
100
AcDbDictionary
3
ACAD_GROUP
350
D
3
ACAD_MLINESTYLE
350
17
0
DICTIONARY
5
D
100
AcDbDictionary
0
DICTIONARY
5
1A
330
C
100
AcDbDictionary
0
DICTIONARY
5
17
100
AcDbDictionary
0
ENDSEC
0
EOF
