0
SECTION
2
HEADER
9
$INSUNITS
70
4
9
$ACADVER
1
AC1014
9
$HANDSEED
5
FFFF
0
ENDSEC
0
SECTION
2
TABLES
0
TABLE
2
VPORT
5
8
100
AcDbSymbolTable
0
ENDTAB
0
TABLE
2
LTYPE
5
5
100
AcDbSymbolTable
0
LTYPE
5
14
100
AcDbSymbolTableRecord
100
AcDbLinetypeTableRecord
2
BYBLOCK
70
0
0
LTYPE
5
15
100
AcDbSymbolTableRecord
100
AcDbLinetypeTableRecord
2
BYLAYER
70
0
0
ENDTAB
0
TABLE
2
LAYER
5
2
100
AcDbSymbolTable
70
2
0
LAYER
5
50
100
AcDbSymbolTableRecord
100
AcDbLayerTableRecord
2
0
70
0
6
CONTINUOUS
0
ENDTAB
0
TABLE
2
STYLE
5
3
100
AcDbSymbolTable
70
1
0
STYLE
5
11
100
AcDbSymbolTableRecord
100
AcDbTextStyleTableRecord
2
STANDARD
70
0
0
ENDTAB
0
TABLE
2
VIEW
5
6
100
AcDbSymbolTable
70
0
0
ENDTAB
0
TABLE
2
UCS
5
7
100
AcDbSymbolTable
70
0
0
ENDTAB
0
TABLE
2
APPID
5
9
100
AcDbSymbolTable
70
2
0
APPID
5
12
100
AcDbSymbolTableRecord
100
AcDbRegAppTableRecord
2
ACAD
70
0
0
ENDTAB
0
TABLE
2
DIMSTYLE
5
A
100
AcDbSymbolTable
70
1
0
ENDTAB
0
TABLE
2
BLOCK_RECORD
5
1
100
AcDbSymbolTable
70
1
0
BLOCK_RECORD
5
1F
100
AcDbSymbolTableRecord
100
AcDbBlockTableRecord
2
*MODEL_SPACE
0
BLOCK_RECORD
5
1B
100
AcDbSymbolTableRecord
100
AcDbBlockTableRecord
2
*PAPER_SPACE
0
ENDTAB
0
ENDSEC
0
SECTION
2
BLOCKS
0
BLOCK
5
20
100
AcDbEntity
100
AcDbBlockBegin
2
*MODEL_SPACE
0
ENDBLK
5
21
100
AcDbEntity
100
AcDbBlockEnd
0
BLOCK
5
1C
100
AcDbEntity
100
AcDbBlockBegin
2
*PAPER_SPACE
0
ENDBLK
5
1D
100
AcDbEntity
100
AcDbBlockEnd
0
ENDSEC
0
SECTION
2
ENTITIES
0
LWPOLYLINE
5
100
100
AcDbEntity
8
0
100
AcDbPolyline
90
8
70
1
43
0.0
10
-132.70624999999995
20
16.524999999999995
42
0.41421356237314705
10
-133.20624999999995
20
16.025000000000006
10
-133.20625000000001
20
3.0250000000000021
42
0.41421356237310736
10
-132.70624999999995
20
2.5250000000000004
10
-119.70624999999998
20
2.5250000000000057
42
0.41421356237308887
10
-119.20624999999994
20
3.0250000000000021
10
-119.20624999999994
20
16.025000000000006
42
0.41421356237313794
10
-119.70624999999998
20
16.525000000000016
0
LWPOLYLINE
5
101
100
AcDbEntity
8
0
100
AcDbPolyline
90
8
70
1
43
0.0
10
-152.25624999999997
20
16.025000000000006
10
-152.25625000000008
20
3.0250000000000021
42
0.41421356237317764
10
-151.75624999999997
20
2.5250000000000017
10
-138.75624999999999
20
2.525000000000015
42
0.41421356237311452
10
-138.25624999999997
20
3.0250000000000021
10
-138.25624999999997
20
16.025000000000006
42
0.41421356237311846
10
-138.75624999999999
20
16.525000000000002
10
-151.75624999999997
20
16.524999999999995
42
0.41421356237314705
0
LWPOLYLINE
5
102
100
AcDbEntity
8
0
100
AcDbPolyline
90
8
70
1
43
0.0
10
-95.10624999999996
20
16.025000000000006
42
-0.41421356237313406
10
-94.60624999999996
20
16.524999999999991
10
-81.606250000000017
20
16.525000000000027
42
-0.41421356237315354
10
-81.10624999999996
20
16.025000000000006
10
-81.10624999999996
20
3.0250000000000021
42
-0.41421356237316037
10
-81.606250000000017
20
2.5250000000000128
10
-94.60624999999996
20
2.5249999999999764
42
-0.4142135623731269
10
-95.106250000000017
20
3.0250000000000021
0
LWPOLYLINE
5
103
100
AcDbEntity
8
0
100
AcDbPolyline
90
8
70
1
43
0.0
10
71.293750000000102
20
16.025000000000006
42
0.41421356237311197
10
70.79375000000006
20
16.525000000000006
10
57.793750000000102
20
16.524999999999991
42
0.41421356237313273
10
57.293750000000081
20
16.025000000000006
10
57.293750000000045
20
3.0250000000000021
42
0.4142135623731194
10
57.793750000000102
20
2.5250000000000035
10
70.79375000000006
20
2.524999999999999
42
0.41421356237311358
10
71.293750000000102
20
3.0250000000000021
0
LWPOLYLINE
5
104
100
AcDbEntity
8
0
100
AcDbPolyline
90
8
70
1
43
0.0
10
-5.4062499999999858
20
16.525000000000027
42
-0.41421356237312362
10
-4.9062499999999432
20
16.025000000000006
10
-4.9062499999999618
20
3.0250000000000021
42
-0.41421356237311879
10
-5.4062499999999858
20
2.5250000000000039
10
-18.406249999999961
20
2.5249999999999857
42
-0.41421356237311618
10
-18.90625
20
3.0250000000000021
10
-18.906249999999964
20
16.025000000000006
42
-0.41421356237311846
10
-18.406249999999961
20
16.524999999999991
0
LWPOLYLINE
5
105
100
AcDbEntity
8
0
100
AcDbPolyline
90
8
70
1
43
0.0
10
52.243750000000105
20
16.025000000000006
10
52.243750000000084
20
3.0250000000000021
42
-0.41421356237312817
10
51.743750000000048
20
2.5249999999999995
10
38.743750000000077
20
2.524999999999987
42
-0.4142135623731204
10
38.243750000000034
20
3.0250000000000021
10
38.24375000000007
20
16.025000000000006
42
-0.41421356237312884
10
38.743750000000077
20
16.524999999999991
10
51.743750000000048
20
16.525000000000027
42
-0.41421356237313273
0
LWPOLYLINE
5
106
100
AcDbEntity
8
0
100
AcDbPolyline
90
8
70
1
43
0.0
10
-114.15624999999999
20
3.0250000000000021
42
0.41421356237310736
10
-113.65624999999994
20
2.5250000000000004
10
-100.65624999999997
20
2.5250000000000057
42
0.41421356237308887
10
-100.15624999999993
20
3.0250000000000021
10
-100.15624999999993
20
16.025000000000006
42
0.41421356237313794
10
-100.65624999999997
20
16.525000000000016
10
-113.65624999999994
20
16.524999999999995
42
0.41421356237314705
10
-114.15624999999994
20
16.025000000000006
0
LWPOLYLINE
5
107
100
AcDbEntity
8
0
100
AcDbPolyline
90
8
70
1
43
0.0
10
81.606250000000102
20
2.5249999999999764
42
-0.4142135623731269
10
81.10625000000006
20
3.0250000000000021
10
81.106250000000117
20
16.025000000000006
42
-0.41421356237313406
10
81.606250000000102
20
16.524999999999991
10
94.606250000000074
20
16.525000000000027
42
-0.41421356237309115
10
95.106250000000131
20
16.025000000000006
10
95.106250000000102
20
3.0250000000000021
42
-0.41421356237311519
10
94.606250000000074
20
2.5250000000000106
0
LWPOLYLINE
5
108
100
AcDbEntity
8
0
100
AcDbPolyline
90
8
70
1
43
0.0
10
43.50625000000008
20
-16.525000000000006
10
56.506250000000051
20
-16.524999999999995
42
0.41421356237311846
10
57.006250000000108
20
-16.024999999999999
10
57.006250000000108
20
-3.0249999999999932
42
0.4142135623731194
10
56.506250000000051
20
-2.5249999999999977
10
43.50625000000008
20
-2.5250000000000163
42
0.41421356237312429
10
43.006250000000065
20
-3.0249999999999932
10
43.006250000000037
20
-16.024999999999999
42
0.41421356237310802
0
LWPOLYLINE
5
109
100
AcDbEntity
8
0
100
AcDbPolyline
90
8
70
1
43
0.0
10
-52.243749999999949
20
-3.0249999999999932
42
-0.41421356237314383
10
-51.743749999999942
20
-2.5250000000000128
10
-38.74374999999997
20
-2.5249999999999782
42
-0.4142135623731204
10
-38.243749999999928
20
-3.0249999999999932
10
-38.243749999999949
20
-16.024999999999999
42
-0.41421356237312235
10
-38.74374999999997
20
-16.524999999999999
10
-51.743749999999942
20
-16.52500000000002
42
-0.41421356237313273
10
-52.243749999999984
20
-16.024999999999999
0
LWPOLYLINE
5
110
100
AcDbEntity
8
0
100
AcDbPolyline
90
8
70
1
43
0.0
10
-89.843749999999972
20
-2.5250000000000261
10
-76.84375
20
-2.5249999999999706
42
-0.41421356237310936
10
-76.343749999999929
20
-3.0249999999999932
10
-76.343749999999972
20
-16.024999999999999
42
-0.41421356237311063
10
-76.84375
20
-16.524999999999995
10
-89.843749999999972
20
-16.525000000000027
42
-0.41421356237312756
10
-90.34375
20
-16.024999999999999
10
-90.343749999999972
20
-3.0249999999999932
42
-0.41421356237315649
0
LWPOLYLINE
5
111
100
AcDbEntity
8
0
100
AcDbPolyline
90
8
70
1
43
0.0
10
-170.11199999999999
20
-22.325000000000035
10
-170.11199999999997
20
-36.825000000000031
42
-0.41421356237311846
10
-170.61199999999997
20
-37.325000000000003
10
-177.11199999999997
20
-37.325000000000038
42
-0.41421356237301177
10
-177.61199999999999
20
-36.825000000000031
10
-177.61199999999999
20
-22.325000000000035
42
-0.41421356237304041
10
-177.11199999999997
20
-21.825000000000049
10
-170.61199999999997
20
-21.825000000000038
42
-0.414213562373069
0
LWPOLYLINE
5
112
100
AcDbEntity
8
0
100
AcDbPolyline
90
8
70
1
43
0.0
10
-153.73799999999994
20
-36.825000000000031
10
-153.73799999999994
20
-22.325000000000035
42
-0.41421356237310542
10
-153.23799999999994
20
-21.825000000000049
10
-146.73799999999994
20
-21.825000000000028
42
-0.4142135623730846
10
-146.23799999999994
20
-22.325000000000035
10
-146.23799999999994
20
-36.825000000000031
42
-0.41421356237308721
10
-146.73799999999994
20
-37.325000000000038
10
-153.23799999999994
20
-37.325000000000017
42
-0.41421356237310281
0
LWPOLYLINE
5
113
100
AcDbEntity
8
0
100
AcDbPolyline
90
216
70
1
43
0.0
10
177.35624999999996
20
-2.0249999999999928
42
-0.41421356237313978
10
176.85624999999999
20
-2.5249999999999839
10
167.33125000000013
20
-2.5250000000000266
42
0.41421356237309731
10
166.83125000000015
20
-3.0250000000000021
10
166.83125000000013
20
-16.025000000000006
42
0.41421356237310414
10
167.33125000000013
20
-16.525000000000013
10
180.3312500000001
20
-16.52500000000002
42
0.41421356237307683
10
180.83125000000013
20
-16.025000000000006
10
180.83125000000018
20
-3.0250000000000021
42
-0.41421356237302254
10
181.33125000000013
20
-2.5249999999999955
10
182.85624999999999
20
-2.5249999999999813
42
-0.41421356237313955
10
183.35624999999999
20
-3.0249999999999932
10
183.35624999999999
20
-55.150000000000013
42
-0.41421356237309243
10
181.35625000000002
20
-57.149999999999999
10
148.84375000000003
20
-57.149999999999991
42
-0.41421356237311585
10
148.34375
20
-56.649999999999999
10
148.34375
20
-55.125000000000028
42
-0.41421356237312101
10
148.84375000000006
20
-54.625000000000021
10
161.28125000000009
20
-54.624999999999993
42
0.41421356237303258
10
161.78125000000017
20
-54.125000000000021
10
161.7812500000002
20
-41.125000000000007
42
0.41421356237304302
10
161.28125000000009
20
-40.624999999999993
10
148.28125000000014
20
-40.625000000000036
42
0.41421356237314705
10
147.78125000000014
20
-41.125000000000007
10
147.78125000000014
20
-50.650000000000013
42
-0.414213562373069
10
147.28125000000009
20
-51.149999999999991
10
142.39325000000014
20
-51.150000000000013
42
-0.41421356237308982
10
141.89325000000014
20
-50.650000000000013
10
141.89325000000014
20
-39.374999999999993
42
0.41421356237311846
10
141.39325000000014
20
-38.874999999999979
10
134.89325000000008
20
-38.874999999999986
42
0.41421356237304563
10
134.39325000000008
20
-39.374999999999993
10
134.39325000000008
20
-53.874999999999972
42
0.41421356237311585
10
134.89325000000008
20
-54.375
10
140.84375
20
-54.375
42
-0.41421356237310025
10
141.34375000000006
20
-54.874999999999979
10
141.34375000000006
20
-56.649999999999999
42
-0.414213562373069
10
140.84375
20
-57.149999999999999
10
57.387500000000031
20
-57.150000000000006
42
-0.41421356237310025
10
56.887500000000053
20
-56.649999999999999
10
56.887500000000053
20
-55.125
42
-0.41421356237311063
10
57.387500000000038
20
-54.625
10
70.793750000000017
20
-54.625
42
0.41421356237310542
10
71.293750000000074
20
-54.125000000000021
10
71.293750000000074
20
-41.125
42
0.41421356237312623
10
70.793750000000017
20
-40.625
10
57.793750000000102
20
-40.625000000000014
42
0.41421356237316265
10
57.293750000000045
20
-41.125
10
57.293750000000045
20
-51.125000000000007
42
-0.41421356237306384
10
56.793750000000045
20
-51.625000000000021
10
47.981250000000053
20
-51.625000000000028
42
-0.41421356237309503
10
47.481250000000045
20
-51.125000000000007
10
47.481250000000045
20
-41.125
42
0.41421356237315748
10
46.98125000000001
20
-40.625
10
33.981250000000074
20
-40.625000000000014
42
0.41421356237315227
10
33.481250000000024
20
-41.125
10
33.481250000000024
20
-54.125000000000021
42
0.41421356237312362
10
33.981250000000074
20
-54.625
10
47.387500000000067
20
-54.625
42
-0.4142135623730846
10
47.887500000000067
20
-55.125
10
47.887500000000067
20
-56.649999999999999
42
-0.41421356237306384
10
47.387500000000031
20
-57.149999999999999
10
-128.35000000000002
20
-57.149999999999999
42
-0.41421356237308982
10
-128.84999999999997
20
-56.649999999999999
10
-128.84999999999997
20
-55.125
42
-0.41421356237310542
10
-128.34999999999997
20
-54.625000000000021
10
-114.94375000000005
20
-54.625000000000014
42
0.41421356237316787
10
-114.44374999999997
20
-54.125000000000021
10
-114.44374999999997
20
-41.125
42
0.41421356237307422
10
-114.94375000000005
20
-40.625
10
-127.94374999999997
20
-40.625000000000007
42
0.41421356237313667
10
-128.44374999999999
20
-41.125
10
-128.44374999999999
20
-51.125000000000007
42
-0.41421356237312101
10
-128.94374999999999
20
-51.625000000000021
10
-137.75624999999994
20
-51.625000000000021
42
-0.41421356237311063
10
-138.25624999999999
20
-51.125000000000007
10
-138.25624999999997
20
-41.125
42
0.41421356237310025
10
-138.75624999999999
20
-40.625
10
-151.75624999999994
20
-40.625000000000007
42
0.41421356237313667
10
-152.25624999999997
20
-41.125
10
-152.25624999999997
20
-54.125000000000021
42
0.41421356237313667
10
-151.75624999999994
20
-54.625
10
-138.34999999999997
20
-54.625000000000014
42
-0.4142135623730846
10
-137.84999999999997
20
-55.125
10
-137.84999999999997
20
-56.649999999999999
42
-0.41421356237308982
10
-138.34999999999997
20
-57.149999999999999
10
-181.35624999999999
20
-57.149999999999991
42
-0.41421356237309243
10
-183.35624999999999
20
-55.150000000000013
10
-183.35624999999999
20
-3.0250000000000115
42
-0.41421356237314444
10
-182.85624999999999
20
-2.5250000000000004
10
-178.94999999999999
20
-2.5250000000000128
42
-0.41421356237313406
10
-178.44999999999999
20
-3.0250000000000155
10
-178.45000000000002
20
-16.024999999999999
42
0.41421356237311197
10
-177.94999999999999
20
-16.525000000000006
10
-162.56875000000005
20
-16.524999999999988
42
0.41421356237304169
10
-162.06874999999997
20
-16.024999999999999
10
-162.06874999999994
20
-3.0249999999999932
42
0.41421356237304363
10
-162.56875000000005
20
-2.5249999999999839
10
-176.85624999999999
20
-2.5250000000000252
42
-0.41421356237313989
10
-177.35624999999999
20
-2.0250000000000123
10
-177.35624999999999
20
2.0250000000000301
42
0.41421356237314477
10
-177.85624999999999
20
2.5250000000000434
10
-182.85624999999999
20
2.5250000000000163
42
-0.41421356237313989
10
-183.35624999999999
20
3.0250000000000288
10
-183.35624999999999
20
55.150000000000013
42
-0.41421356237307683
10
-181.35625000000002
20
57.150000000000027
10
-139.73124999999999
20
57.150000000000034
42
-0.41421356237311585
10
-139.23124999999999
20
56.650000000000027
10
-139.23124999999999
20
55.125000000000028
42
-0.41421356237310025
10
-139.73124999999999
20
54.625000000000021
10
-151.75624999999997
20
54.624999999999993
42
0.41421356237311585
10
-152.25624999999997
20
54.125000000000021
10
-152.25625000000005
20
41.125000000000007
42
0.41421356237312101
10
-151.75624999999997
20
40.625000000000007
10
-138.75624999999999
20
40.625000000000014
42
0.41421356237311585
10
-138.25624999999997
20
41.125000000000007
10
-138.25624999999999
20
51.125000000000028
42
-0.41421356237311585
10
-137.75624999999994
20
51.625000000000021
10
-133.70625000000013
20
51.625000000000028
42
-0.41421356237312623
10
-133.2062500000001
20
51.125000000000028
10
-133.20625000000001
20
41.125000000000007
42
0.41421356237306384
10
-132.70624999999995
20
40.625000000000007
10
-119.70624999999998
20
40.625000000000007
42
0.41421356237308982
10
-119.20624999999994
20
41.125000000000007
10
-119.20624999999994
20
54.125000000000021
42
0.4142135623730846
10
-119.70624999999998
20
54.625000000000021
10
-131.73124999999996
20
54.625
42
-0.41421356237311585
10
-132.23124999999996
20
55.124999999999993
10
-132.23124999999996
20
56.650000000000027
42
-0.41421356237305862
10
-131.73124999999996
20
57.150000000000027
10
-49.24374999999992
20
57.150000000000027
42
-0.41421356237311063
10
-48.743749999999935
20
56.650000000000027
10
-48.743749999999935
20
55.125000000000028
42
-0.41421356237309503
10
-49.24374999999992
20
54.625000000000021
10
-61.268749999999912
20
54.624999999999993
42
0.41421356237310542
10
-61.76874999999994
20
54.125000000000021
10
-61.768749999999962
20
41.125000000000007
42
0.41421356237310542
10
-61.268749999999912
20
40.625000000000007
10
-48.26874999999994
20
40.625
42
0.41421356237312101
10
-47.768749999999905
20
41.125000000000007
10
-47.768749999999898
20
51.125000000000007
42
-0.41421356237306384
10
-47.268749999999898
20
51.625000000000021
10
-43.218750000000213
20
51.625000000000021
42
-0.41421356237310542
10
-42.71875000000022
20
51.125000000000028
10
-42.718749999999936
20
41.125000000000007
42
0.41421356237311585
10
-42.218749999999908
20
40.625
10
-29.218749999999929
20
40.625000000000007
42
0.41421356237312884
10
-28.71874999999989
20
41.125000000000007
10
-28.71874999999989
20
54.125000000000014
42
0.41421356237310802
10
-29.218749999999929
20
54.625000000000021
10
-41.243749999999899
20
54.624999999999993
42
-0.41421356237313667
10
-41.743749999999899
20
55.124999999999993
10
-41.743749999999899
20
56.650000000000027
42
-0.41421356237313667
10
-41.243749999999899
20
57.150000000000027
10
60.293750000000102
20
57.150000000000027
42
-0.41421356237313667
10
60.793750000000102
20
56.650000000000027
10
60.793750000000102
20
55.125000000000028
42
-0.41421356237313145
10
60.293750000000102
20
54.625000000000021
10
48.268750000000118
20
54.624999999999993
42
0.41421356237308982
10
47.768750000000104
20
54.125000000000021
10
47.768750000000082
20
41.125000000000007
42
0.41421356237311063
10
48.268750000000118
20
40.625
10
61.268750000000111
20
40.625
42
0.41421356237311585
10
61.768750000000132
20
41.125000000000007
10
61.768750000000125
20
51.125000000000007
42
-0.41421356237314183
10
62.268750000000146
20
51.625000000000021
10
66.318749999999824
20
51.625000000000021
42
-0.41421356237310542
10
66.818749999999824
20
51.125000000000028
10
66.81875000000008
20
41.125000000000007
42
0.41421356237312623
10
67.318750000000136
20
40.625000000000007
10
80.318750000000108
20
40.625000000000014
42
0.41421356237311585
10
80.818750000000122
20
41.125000000000007
10
80.818750000000122
20
54.125000000000021
42
0.41421356237310025
10
80.318750000000108
20
54.625000000000021
10
68.293750000000131
20
54.624999999999993
42
-0.41421356237313667
10
67.793750000000131
20
55.124999999999993
10
67.793750000000131
20
56.650000000000027
42
-0.41421356237313667
10
68.293750000000131
20
57.150000000000027
10
160.3062500000002
20
57.150000000000034
42
-0.41421356237301177
10
160.80625000000023
20
56.650000000000027
10
160.80625000000026
20
55.125000000000028
42
-0.41421356237319906
10
160.3062500000002
20
54.625000000000021
10
148.28125000000014
20
54.624999999999986
42
0.41421356237307944
10
147.78125000000014
20
54.125000000000021
10
147.78125000000006
20
41.125000000000007
42
0.41421356237313145
10
148.28125000000014
20
40.625
10
161.28125000000009
20
40.625000000000007
42
0.41421356237304818
10
161.78125000000017
20
41.125000000000007
10
161.78125000000006
20
51.125000000000007
42
-0.41421356237304302
10
162.28125000000017
20
51.625000000000021
10
166.33124999999995
20
51.62500000000005
42
-0.41421356237311585
10
166.83124999999995
20
51.125000000000007
10
166.83125000000013
20
41.125000000000007
42
0.41421356237311063
10
167.33125000000013
20
40.624999999999993
10
180.3312500000001
20
40.624999999999993
42
0.41421356237310025
10
180.83125000000018
20
41.125000000000007
10
180.83125000000013
20
54.125000000000021
42
0.414213562373069
10
180.3312500000001
20
54.625000000000021
10
168.30625000000012
20
54.625
42
-0.41421356237310542
10
167.80625000000012
20
55.124999999999993
10
167.80625000000009
20
56.650000000000027
42
-0.41421356237312623
10
168.30625000000009
20
57.149999999999999
10
181.35625000000005
20
57.150000000000027
42
-0.41421356237308204
10
183.35624999999999
20
55.150000000000013
10
183.35624999999999
20
3.0250000000000115
42
-0.4142135623732241
10
182.85624999999999
20
2.524999999999999
10
181.33125000000013
20
2.5249999999999915
42
-0.41421356237301632
10
180.83125000000013
20
3.0250000000000066
10
180.83125000000013
20
16.025000000000006
42
0.41421356237310281
10
180.3312500000001
20
16.525000000000006
10
167.33125000000013
20
16.524999999999984
42
0.41421356237309892
10
166.83125000000015
20
16.025000000000006
10
166.83125000000015
20
3.0250000000000021
42
0.4142135623731929
10
167.33125000000013
20
2.5249999999999968
10
176.85624999999999
20
2.5250000000000217
42
-0.41421356237313989
10
177.35624999999999
20
2.0250000000000092
0
LWPOLYLINE
5
114
100
AcDbEntity
8
0
100
AcDbPolyline
90
8
70
1
43
0.0
10
89.14950000000006
20
-3.275000000000019
42
-0.41421356237311713
10
89.649500000000089
20
-2.7750000000000248
10
96.149500000000089
20
-2.7750000000000243
42
-0.41421356237306706
10
96.649500000000103
20
-3.275000000000019
10
96.649500000000103
20
-17.77500000000002
42
-0.4142135623730599
10
96.149500000000089
20
-18.275000000000034
10
89.649500000000089
20
-18.275000000000002
42
-0.414213562373069
10
89.149500000000103
20
-17.77500000000002
0
LWPOLYLINE
5
115
100
AcDbEntity
8
0
100
AcDbPolyline
90
8
70
1
43
0.0
10
67.656750000000073
20
34.824999999999989
10
67.656750000000088
20
20.324999999999985
42
0.41421356237309764
10
68.156750000000073
20
19.824999999999985
10
74.656750000000073
20
19.824999999999982
42
0.41421356237308721
10
75.156750000000073
20
20.324999999999985
10
75.156750000000088
20
34.824999999999989
42
0.41421356237312362
10
74.656750000000073
20
35.325000000000003
10
68.156750000000073
20
35.324999999999982
42
0.41421356237312362
0
LWPOLYLINE
5
116
100
AcDbEntity
8
0
100
AcDbPolyline
90
8
70
1
43
0.0
10
-93.631249999999994
20
-37.625000000000014
10
-101.63124999999997
20
-37.625000000000021
42
0.41421356237310542
10
-102.13124999999998
20
-38.125000000000007
10
-102.13124999999998
20
-54.125000000000021
42
0.41421356237310542
10
-101.63124999999997
20
-54.625
10
-93.631249999999994
20
-54.625000000000014
42
0.41421356237310542
10
-93.131249999999994
20
-54.125000000000021
10
-93.131249999999994
20
-38.125000000000007
42
0.41421356237310802
0
LWPOLYLINE
5
117
100
AcDbEntity
8
0
100
AcDbPolyline
90
8
70
1
43
0.0
10
72.275500000000065
20
-2.7750000000000274
42
-0.41421356237308071
10
72.775500000000065
20
-3.275000000000019
10
72.775500000000065
20
-17.77500000000002
42
-0.41421356237307555
10
72.275500000000065
20
-18.27500000000002
10
65.775500000000051
20
-18.275000000000013
42
-0.41421356237307555
10
65.275500000000065
20
-17.77500000000002
10
65.275500000000065
20
-3.275000000000019
42
-0.41421356237307227
10
65.775500000000051
20
-2.7750000000000181
0
LWPOLYLINE
5
118
100
AcDbEntity
8
0
100
AcDbPolyline
90
8
70
1
43
0.0
10
110.51925000000006
20
-39.374999999999993
42
-0.41421356237308982
10
111.01925000000008
20
-38.874999999999979
10
117.51925000000007
20
-38.874999999999993
42
-0.41421356237312362
10
118.01925000000006
20
-39.374999999999993
10
118.01925000000008
20
-53.874999999999972
42
-0.4142135623730846
10
117.51925000000007
20
-54.375
10
111.01925000000008
20
-54.374999999999972
42
-0.41421356237315227
10
110.51925000000008
20
-53.874999999999972
0
LWPOLYLINE
5
119
100
AcDbEntity
8
0
100
AcDbPolyline
90
8
70
1
43
0.0
10
81.606250000000102
20
-54.624999999999993
42
-0.41421356237315748
10
81.10625000000006
20
-54.125000000000021
10
81.10625000000006
20
-41.125
42
-0.41421356237314183
10
81.606250000000102
20
-40.625000000000014
10
94.606250000000045
20
-40.625000000000014
42
-0.41421356237314183
10
95.106250000000074
20
-41.125
10
95.106250000000074
20
-54.125000000000021
42
-0.4142135623730846
10
94.606250000000045
20
-54.625000000000021
0
LWPOLYLINE
5
120
100
AcDbEntity
8
0
100
AcDbPolyline
90
8
70
1
43
0.0
10
73.675000000000097
20
-22.07500000000001
10
73.675000000000082
20
-35.07500000000001
42
-0.41421356237310281
10
73.175000000000082
20
-35.57500000000001
10
60.175000000000111
20
-35.575000000000031
42
-0.41421356237314444
10
59.675000000000047
20
-35.07500000000001
10
59.675000000000082
20
-22.07500000000001
42
-0.41421356237310802
10
60.175000000000097
20
-21.575000000000024
10
73.175000000000082
20
-21.574999999999996
42
-0.41421356237312884
0
LWPOLYLINE
5
121
100
AcDbEntity
8
0
100
AcDbPolyline
90
8
70
1
43
0.0
10
-176.06874999999999
20
-41.125
42
-0.41421356237304302
10
-175.56874999999997
20
-40.625000000000007
10
-162.56875000000005
20
-40.625000000000014
42
-0.41421356237316265
10
-162.06874999999997
20
-41.125
10
-162.06874999999994
20
-54.125000000000021
42
-0.41421356237303258
10
-162.56875000000005
20
-54.625000000000021
10
-175.56874999999994
20
-54.625
42
-0.41421356237310025
10
-176.06874999999999
20
-54.125000000000021
0
LWPOLYLINE
5
122
100
AcDbEntity
8
0
100
AcDbPolyline
90
8
70
1
43
0.0
10
-46.981249999999932
20
-54.624999999999986
42
-0.41421356237314705
10
-47.481249999999982
20
-54.125000000000021
10
-47.481249999999982
20
-41.125
42
-0.41421356237314183
10
-46.981249999999932
20
-40.625000000000007
10
-33.981250000000003
20
-40.625000000000014
42
-0.41421356237315227
10
-33.481249999999953
20
-41.125
10
-33.481249999999953
20
-54.125000000000021
42
-0.41421356237314705
10
-33.981250000000003
20
-54.625
0
LWPOLYLINE
5
123
100
AcDbEntity
8
0
100
AcDbPolyline
90
8
70
1
43
0.0
10
-168.92499999999995
20
-35.07500000000001
10
-168.92499999999995
20
-22.07500000000001
42
-0.41421356237312101
10
-168.42499999999998
20
-21.575000000000056
10
-155.42500000000001
20
-21.574999999999992
42
-0.41421356237314183
10
-154.92499999999995
20
-22.07500000000001
10
-154.92499999999995
20
-35.07500000000001
42
-0.41421356237313928
10
-155.42499999999995
20
-35.575000000000017
10
-168.42499999999998
20
-35.57499999999996
42
-0.41421356237312362
0
LWPOLYLINE
5
124
100
AcDbEntity
8
0
100
AcDbPolyline
90
8
70
1
43
0.0
10
46.981250000000045
20
-35.57500000000001
10
33.981250000000074
20
-35.575000000000031
42
-0.41421356237312101
10
33.481250000000024
20
-35.07500000000001
10
33.481250000000074
20
-22.07500000000001
42
-0.41421356237312362
10
33.981250000000074
20
-21.575000000000024
10
46.981250000000045
20
-21.574999999999992
42
-0.41421356237311063
10
47.481250000000102
20
-22.07500000000001
10
47.481250000000081
20
-35.07500000000001
42
-0.41421356237312623
0
LWPOLYLINE
5
125
100
AcDbEntity
8
0
100
AcDbPolyline
90
8
70
1
43
0.0
10
85.868750000000091
20
-22.07500000000001
42
-0.41421356237309764
10
86.368750000000091
20
-21.575000000000017
10
99.368750000000077
20
-21.574999999999985
42
-0.41421356237309503
10
99.868750000000134
20
-22.07500000000001
10
99.868750000000105
20
-35.07500000000001
42
-0.41421356237312101
10
99.368750000000077
20
-35.57500000000001
10
86.368750000000091
20
-35.575000000000038
42
-0.41421356237309764
10
85.868750000000063
20
-35.07500000000001
0
LWPOLYLINE
5
126
100
AcDbEntity
8
0
100
AcDbPolyline
90
8
70
1
43
0.0
10
-23.168749999999925
20
-21.575000000000024
42
0.41421356237311585
10
-23.668749999999928
20
-22.07500000000001
10
-23.668749999999967
20
-35.07500000000001
42
0.41421356237311585
10
-23.168749999999925
20
-35.57500000000001
10
-10.168749999999953
20
-35.57500000000001
42
0.41421356237311974
10
-9.6687499999999122
20
-35.07500000000001
10
-9.6687499999999087
20
-22.075000000000014
42
0.41421356237310936
10
-10.168749999999953
20
-21.575000000000017
0
LWPOLYLINE
5
127
100
AcDbEntity
8
0
100
AcDbPolyline
90
8
70
1
43
0.0
10
99.030750000000083
20
34.824999999999989
10
99.030750000000083
20
20.324999999999985
42
-0.41421356237310542
10
98.530750000000168
20
19.824999999999974
10
92.030750000000097
20
19.82500000000001
42
-0.41421356237311846
10
91.530750000000083
20
20.324999999999985
10
91.530750000000083
20
34.824999999999989
42
-0.41421356237312884
10
92.030750000000097
20
35.324999999999989
10
98.530750000000168
20
35.324999999999974
42
-0.41421356237305079
0
LWPOLYLINE
5
128
100
AcDbEntity
8
0
100
AcDbPolyline
90
8
70
1
43
0.0
10
-42.718749999999979
20
-35.07500000000001
10
-42.718749999999936
20
-22.07500000000001
42
-0.41421356237310802
10
-42.218749999999936
20
-21.575000000000024
10
-29.218749999999968
20
-21.574999999999992
42
-0.41421356237312362
10
-28.718749999999929
20
-22.07500000000001
10
-28.718749999999954
20
-35.07500000000001
42
-0.41421356237313145
10
-29.218749999999968
20
-35.57500000000001
10
-42.218749999999936
20
-35.575000000000038
42
-0.41421356237313667
0
LWPOLYLINE
5
129
100
AcDbEntity
8
0
100
AcDbPolyline
90
8
70
1
43
0.0
10
165.08125000000013
20
-22.913000000000004
10
165.08125000000013
20
-29.413000000000014
42
0.41421356237314183
10
165.58125000000015
20
-29.913000000000025
10
180.08125000000013
20
-29.912999999999972
42
0.41421356237314966
10
180.58125000000015
20
-29.413000000000014
10
180.58125000000015
20
-22.913000000000004
42
0.41421356237315488
10
180.08125000000013
20
-22.413000000000032
10
165.58125000000015
20
-22.412999999999997
42
0.41421356237313667
0
LWPOLYLINE
5
130
100
AcDbEntity
8
0
100
AcDbPolyline
90
8
70
1
43
0.0
10
-148.28125
20
35.575000000000045
42
-0.41421356237313145
10
-147.78124999999994
20
35.07500000000001
10
-147.78124999999997
20
22.07500000000001
42
-0.41421356237311585
10
-148.28125
20
21.575000000000021
10
-161.28124999999997
20
21.574999999999992
42
-0.41421356237307944
10
-161.78125
20
22.07500000000001
10
-161.78124999999997
20
35.07500000000001
42
-0.41421356237312623
10
-161.28124999999997
20
35.575000000000003
0
LWPOLYLINE
5
131
100
AcDbEntity
8
0
100
AcDbPolyline
90
8
70
1
43
0.0
10
21.168750000000035
20
-38.125000000000007
10
21.168750000000038
20
-54.125000000000021
42
-0.41421356237307944
10
20.668750000000031
20
-54.625
10
12.66875000000006
20
-54.625
42
-0.41421356237311846
10
12.168750000000054
20
-54.125000000000021
10
12.168750000000054
20
-38.125000000000007
42
-0.41421356237308593
10
12.66875000000006
20
-37.625000000000014
10
20.668750000000031
20
-37.625000000000021
42
-0.41421356237307161
0
LWPOLYLINE
5
132
100
AcDbEntity
8
0
100
AcDbPolyline
90
8
70
1
43
0.0
10
-47.481249999999939
20
35.07500000000001
10
-47.481249999999982
20
22.07500000000001
42
0.41421356237312884
10
-46.981249999999932
20
21.57500000000001
10
-33.981249999999967
20
21.57500000000001
42
0.41421356237311063
10
-33.481249999999925
20
22.07500000000001
10
-33.481249999999925
20
35.07500000000001
42
0.41421356237311585
10
-33.981249999999967
20
35.57500000000001
10
-46.981249999999939
20
35.574999999999996
42
0.41421356237311846
0
LWPOLYLINE
5
133
100
AcDbEntity
8
0
100
AcDbPolyline
90
8
70
1
43
0.0
10
165.08125000000013
20
-46.786999999999999
42
-0.41421356237317308
10
165.58125000000015
20
-46.287000000000013
10
180.08125000000013
20
-46.286999999999992
42
-0.41421356237301177
10
180.58125000000015
20
-46.786999999999999
10
180.58125000000015
20
-53.287000000000013
42
-0.41421356237313667
10
180.08125000000013
20
-53.78700000000002
10
165.58125000000015
20
-53.787000000000013
42
-0.41421356237313145
10
165.08125000000013
20
-53.287000000000013
0
LWPOLYLINE
5
134
100
AcDbEntity
8
0
100
AcDbPolyline
90
8
70
1
43
0.0
10
-180.33125000000001
20
35.574999999999989
10
-167.33125000000001
20
35.575000000000024
42
-0.41421356237307683
10
-166.83124999999995
20
35.07500000000001
10
-166.83124999999995
20
22.07500000000001
42
-0.41421356237310025
10
-167.33125000000001
20
21.575000000000017
10
-180.33125000000001
20
21.575000000000006
42
-0.41421356237313406
10
-180.83125000000001
20
22.07500000000001
10
-180.83125000000001
20
35.07500000000001
42
-0.41421356237316787
0
LWPOLYLINE
5
135
100
AcDbEntity
8
0
100
AcDbPolyline
90
8
70
1
43
0.0
10
-110.18124999999998
20
35.575000000000045
42
-0.41421356237313145
10
-109.68124999999993
20
35.07500000000001
10
-109.68124999999998
20
22.07500000000001
42
-0.41421356237313406
10
-110.18124999999998
20
21.57500000000001
10
-123.18124999999996
20
21.574999999999996
42
-0.41421356237313928
10
-123.68125000000005
20
22.07500000000001
10
-123.68124999999999
20
35.07500000000001
42
-0.41421356237307161
10
-123.18124999999996
20
35.574999999999989
0
LWPOLYLINE
5
136
100
AcDbEntity
8
0
100
AcDbPolyline
90
8
70
1
43
0.0
10
166.83125000000015
20
-31.600000000000001
42
-0.41421356237309764
10
167.33125000000013
20
-31.100000000000026
10
180.3312500000001
20
-31.100000000000023
42
-0.41421356237310025
10
180.83125000000007
20
-31.600000000000001
10
180.83125000000007
20
-44.600000000000009
42
-0.41421356237310542
10
180.3312500000001
20
-45.100000000000009
10
167.33125000000007
20
-45.100000000000037
42
-0.41421356237314705
10
166.83125000000015
20
-44.600000000000009
0
LWPOLYLINE
5
137
100
AcDbEntity
8
0
100
AcDbPolyline
90
8
70
1
43
0.0
10
-10.168749999999953
20
54.625000000000014
42
-0.41421356237312623
10
-9.6687499999999069
20
54.125000000000021
10
-9.6687499999999282
20
41.125000000000007
42
-0.41421356237312623
10
-10.168749999999953
20
40.625
10
-23.168749999999925
20
40.624999999999993
42
-0.41421356237311063
10
-23.668749999999967
20
41.125000000000007
10
-23.668749999999925
20
54.125000000000021
42
-0.41421356237312623
10
-23.168749999999925
20
54.625
0
LWPOLYLINE
5
138
100
AcDbEntity
8
0
100
AcDbPolyline
90
8
70
1
43
0.0
10
-71.581249999999969
20
22.07500000000001
42
-0.41421356237312101
10
-72.081249999999983
20
21.575000000000017
10
-85.081249999999955
20
21.574999999999985
42
-0.41421356237309503
10
-85.581250000000026
20
22.07500000000001
10
-85.581249999999983
20
35.07500000000001
42
-0.41421356237311585
10
-85.081249999999955
20
35.575000000000003
10
-72.081249999999983
20
35.575000000000038
42
-0.41421356237314183
10
-71.581249999999969
20
35.07500000000001
0
LWPOLYLINE
5
139
100
AcDbEntity
8
0
100
AcDbPolyline
90
8
70
1
43
0.0
10
-52.531249999999936
20
35.07500000000001
42
0.41421356237310802
10
-53.031249999999979
20
35.575000000000017
10
-66.031249999999929
20
35.574999999999989
42
0.41421356237312884
10
-66.531249999999957
20
35.07500000000001
10
-66.53125
20
22.07500000000001
42
0.41421356237313667
10
-66.031249999999929
20
21.57500000000001
10
-53.031249999999979
20
21.57500000000001
42
0.41421356237311063
10
-52.531249999999936
20
22.07500000000001
0
LWPOLYLINE
5
140
100
AcDbEntity
8
0
100
AcDbPolyline
90
8
70
1
43
0.0
10
-100.65624999999997
20
54.625000000000021
42
-0.414213562373069
10
-100.15624999999993
20
54.125000000000021
10
-100.15624999999993
20
41.125000000000007
42
-0.41421356237313145
10
-100.65624999999997
20
40.625000000000014
10
-113.65624999999994
20
40.624999999999993
42
-0.41421356237308982
10
-114.15625
20
41.125000000000007
10
-114.15624999999994
20
54.125000000000021
42
-0.41421356237311585
10
-113.65624999999994
20
54.624999999999993
0
LWPOLYLINE
5
141
100
AcDbEntity
8
0
100
AcDbPolyline
90
8
70
1
43
0.0
10
-4.6187499999999639
20
41.125000000000007
10
-4.6187499999999257
20
54.125000000000021
42
-0.41421356237311424
10
-4.1187499999999133
20
54.625
10
8.8812500000000583
20
54.625000000000021
42
-0.41421356237312623
10
9.3812500000001044
20
54.125000000000021
10
9.3812500000000796
20
41.125000000000007
42
-0.41421356237311907
10
8.8812500000000583
20
40.625000000000007
10
-4.1187499999999124
20
40.624999999999993
42
-0.41421356237310447
0
LWPOLYLINE
5
142
100
AcDbEntity
8
0
100
AcDbPolyline
90
8
70
1
43
0.0
10
110.18125000000013
20
40.625
42
-0.41421356237314705
10
109.68125000000008
20
41.125000000000007
10
109.68125000000015
20
54.125000000000021
42
-0.41421356237312623
10
110.18125000000013
20
54.624999999999993
10
123.18125000000009
20
54.625000000000021
42
-0.414213562373069
10
123.68125000000013
20
54.125000000000021
10
123.68125000000013
20
41.125000000000007
42
-0.41421356237313667
10
123.18125000000009
20
40.625
0
LWPOLYLINE
5
143
100
AcDbEntity
8
0
100
AcDbPolyline
90
8
70
1
43
0.0
10
-142.73124999999996
20
35.07500000000001
42
-0.41421356237312101
10
-142.23124999999996
20
35.574999999999989
10
-129.23124999999999
20
35.575000000000045
42
-0.41421356237313145
10
-128.73124999999993
20
35.07500000000001
10
-128.73124999999996
20
22.07500000000001
42
-0.41421356237311585
10
-129.23124999999999
20
21.575000000000021
10
-142.23124999999996
20
21.574999999999989
42
-0.41421356237312362
10
-142.73124999999999
20
22.07500000000001
0
LWPOLYLINE
5
144
100
AcDbEntity
8
0
100
AcDbPolyline
90
8
70
1
43
0.0
10
86.368750000000091
20
54.624999999999993
10
99.368750000000077
20
54.625000000000021
42
-0.41421356237305862
10
99.868750000000134
20
54.125000000000021
10
99.868750000000119
20
41.125000000000007
42
-0.41421356237313145
10
99.368750000000077
20
40.625000000000014
10
86.368750000000063
20
40.624999999999993
42
-0.41421356237310025
10
85.868750000000063
20
41.125000000000007
10
85.868750000000091
20
54.125000000000021
42
-0.41421356237312623
0
LWPOLYLINE
5
145
100
AcDbEntity
8
0
100
AcDbPolyline
90
8
70
1
43
0.0
10
42.218750000000078
20
40.625
10
29.21875000000011
20
40.625
42
-0.41421356237312101
10
28.718750000000071
20
41.125000000000007
10
28.718750000000096
20
54.125000000000021
42
-0.41421356237311585
10
29.21875000000011
20
54.625
10
42.218750000000078
20
54.625000000000021
42
-0.41421356237312101
10
42.718750000000121
20
54.125000000000021
10
42.718750000000092
20
41.125000000000007
42
-0.41421356237313145
0
LWPOLYLINE
5
146
100
AcDbEntity
8
0
100
AcDbPolyline
90
8
70
1
43
0.0
10
167.33125000000013
20
21.575000000000006
10
180.3312500000001
20
21.574999999999992
42
0.41421356237307944
10
180.83125000000013
20
22.07500000000001
10
180.83125000000013
20
35.07500000000001
42
0.41421356237310542
10
180.3312500000001
20
35.57500000000001
10
167.33125000000013
20
35.574999999999982
42
0.41421356237309503
10
166.83125000000015
20
35.07500000000001
10
166.83125000000015
20
22.07500000000001
42
0.41421356237319129
0
LWPOLYLINE
5
147
100
AcDbEntity
8
0
100
AcDbPolyline
90
8
70
1
43
0.0
10
110.18125000000015
20
35.574999999999989
10
123.18125000000009
20
35.575000000000045
42
-0.41421356237313145
10
123.68125000000013
20
35.07500000000001
10
123.68125000000013
20
22.07500000000001
42
-0.41421356237313928
10
123.18125000000009
20
21.575000000000006
10
110.18125000000012
20
21.574999999999992
42
-0.41421356237314183
10
109.68125000000008
20
22.07500000000001
10
109.68125000000015
20
35.07500000000001
42
-0.41421356237310025
0
LWPOLYLINE
5
148
100
AcDbEntity
8
0
100
AcDbPolyline
90
8
70
1
43
0.0
10
128.73125000000013
20
54.125000000000021
42
-0.41421356237314183
10
129.23125000000013
20
54.624999999999993
10
142.2312500000001
20
54.625000000000021
42
-0.41421356237305862
10
142.73125000000016
20
54.125000000000021
10
142.73125000000016
20
41.125000000000007
42
-0.41421356237311063
10
142.2312500000001
20
40.625
10
129.23125000000013
20
40.625
42
-0.41421356237310542
10
128.7312500000001
20
41.125000000000007
0
LWPOLYLINE
5
149
100
AcDbEntity
8
0
100
AcDbPolyline
90
8
70
1
43
0.0
10
142.2312500000001
20
35.575000000000017
10
129.23125000000013
20
35.574999999999982
42
0.41421356237314705
10
128.73125000000013
20
35.07500000000001
10
128.7312500000001
20
22.07500000000001
42
0.41421356237311585
10
129.23125000000013
20
21.575000000000021
10
142.2312500000001
20
21.575000000000017
42
0.41421356237307683
10
142.73125000000016
20
22.07500000000001
10
142.73125000000016
20
35.07500000000001
42
0.41421356237309243
0
LWPOLYLINE
5
150
100
AcDbEntity
8
0
100
AcDbPolyline
90
8
70
1
43
0.0
10
-81.606249999999946
20
40.625
10
-94.606249999999946
20
40.625
42
-0.41421356237313667
10
-95.10624999999996
20
41.125000000000007
10
-95.10624999999996
20
54.125000000000021
42
-0.41421356237309503
10
-94.606249999999946
20
54.624999999999993
10
-81.606249999999932
20
54.625000000000021
42
-0.41421356237302737
10
-81.106249999999875
20
54.125000000000021
10
-81.10624999999996
20
41.125000000000007
42
-0.41421356237314183
0
LWPOLYLINE
5
151
100
AcDbEntity
8
0
100
AcDbPolyline
90
8
70
1
43
0.0
10
161.28125000000009
20
35.575000000000031
10
148.28125000000014
20
35.574999999999982
42
0.41421356237314705
10
147.78125000000014
20
35.07500000000001
10
147.78125000000006
20
22.07500000000001
42
0.41421356237315227
10
148.28125000000014
20
21.575000000000021
10
161.28125000000009
20
21.575000000000024
42
0.41421356237304041
10
161.78125000000017
20
22.07500000000001
10
161.78125000000017
20
35.07500000000001
42
0.4142135623730222
0
LWPOLYLINE
5
152
100
AcDbEntity
8
0
100
AcDbPolyline
90
8
70
1
43
0.0
10
129.23125000000013
20
16.524999999999984
42
0.41421356237314966
10
128.73125000000013
20
16.025000000000006
10
128.7312500000001
20
3.0250000000000021
42
0.41421356237315976
10
129.23125000000013
20
2.5250000000000123
10
142.2312500000001
20
2.5250000000000017
42
0.41421356237310153
10
142.73125000000016
20
3.0250000000000021
10
142.73125000000016
20
16.025000000000006
42
0.41421356237310802
10
142.2312500000001
20
16.525000000000006
0
LWPOLYLINE
5
153
100
AcDbEntity
8
0
100
AcDbPolyline
90
8
70
1
43
0.0
10
123.18125000000009
20
-16.525000000000016
10
110.18125000000013
20
-16.525000000000027
42
-0.41421356237315354
10
109.68125000000008
20
-16.025000000000006
10
109.68125000000015
20
-3.0250000000000021
42
-0.41421356237311324
10
110.18125000000013
20
-2.5250000000000181
10
123.18125000000009
20
-2.524999999999975
42
-0.41421356237312756
10
123.68125000000013
20
-3.0250000000000021
10
123.68125000000013
20
-16.025000000000006
42
-0.41421356237313794
0
LWPOLYLINE
5
154
100
AcDbEntity
8
0
100
AcDbPolyline
90
8
70
1
43
0.0
10
161.28125000000009
20
-2.5249999999999928
10
148.28125000000014
20
-2.5250000000000283
42
0.41421356237314838
10
147.78125000000014
20
-3.0250000000000021
10
147.78125000000006
20
-16.025000000000006
42
0.41421356237313794
10
148.28125000000014
20
-16.525000000000013
10
161.28125000000006
20
-16.524999999999995
42
0.41421356237304302
10
161.78125000000017
20
-16.025000000000006
10
161.7812500000002
20
-3.0250000000000021
42
0.41421356237304363
0
LWPOLYLINE
5
155
100
AcDbEntity
8
0
100
AcDbPolyline
90
8
70
1
43
0.0
10
109.68125000000008
20
3.0250000000000021
10
109.68125000000016
20
16.025000000000006
42
-0.41421356237312101
10
110.18125000000013
20
16.524999999999991
10
123.18125000000009
20
16.525000000000031
42
-0.41421356237312495
10
123.68125000000013
20
16.025000000000006
10
123.68125000000013
20
3.0250000000000021
42
-0.41421356237313794
10
123.18125000000009
20
2.524999999999995
10
110.18125000000013
20
2.5249999999999817
42
-0.41421356237315488
0
LWPOLYLINE
5
156
100
AcDbEntity
8
0
100
AcDbPolyline
90
8
70
1
43
0.0
10
142.2312500000001
20
-21.575000000000003
10
129.23125000000013
20
-21.575000000000017
42
0.41421356237313406
10
128.73125000000013
20
-22.074999999999999
10
128.7312500000001
20
-35.075000000000003
42
0.41421356237314705
10
129.23125000000013
20
-35.57500000000001
10
142.2312500000001
20
-35.575000000000024
42
0.41421356237309243
10
142.73125000000016
20
-35.075000000000003
10
142.73125000000016
20
-22.074999999999999
42
0.41421356237310542
0
LWPOLYLINE
5
157
100
AcDbEntity
8
0
100
AcDbPolyline
90
8
70
1
43
0.0
10
142.73125000000016
20
-3.0250000000000021
42
0.41421356237310736
10
142.2312500000001
20
-2.5250000000000004
10
129.23125000000013
20
-2.5250000000000283
42
0.41421356237314838
10
128.73125000000013
20
-3.0250000000000021
10
128.7312500000001
20
-16.025000000000006
42
0.41421356237311846
10
129.23125000000013
20
-16.525000000000002
10
142.2312500000001
20
-16.525000000000006
42
0.41421356237310153
10
142.73125000000016
20
-16.025000000000006
0
LWPOLYLINE
5
158
100
AcDbEntity
8
0
100
AcDbPolyline
90
8
70
1
43
0.0
10
161.78125000000017
20
-22.074999999999999
42
0.41421356237313145
10
161.28125000000009
20
-21.575000000000003
10
148.28125000000014
20
-21.575000000000017
42
0.41421356237313406
10
147.78125000000014
20
-22.074999999999999
10
147.78125000000006
20
-35.075000000000003
42
0.41421356237313928
10
148.28125000000014
20
-35.57500000000001
10
161.28125000000011
20
-35.574999999999989
42
0.4142135623730222
10
161.78125000000017
20
-35.075000000000003
0
LWPOLYLINE
5
159
100
AcDbEntity
8
0
100
AcDbPolyline
90
8
70
1
43
0.0
10
109.68125000000008
20
-35.075000000000003
10
109.68125000000015
20
-22.074999999999999
42
-0.41421356237311585
10
110.18125000000013
20
-21.57500000000001
10
123.18125000000009
20
-21.574999999999982
42
-0.41421356237312362
10
123.68125000000013
20
-22.074999999999999
10
123.68125000000013
20
-35.075000000000003
42
-0.41421356237313667
10
123.18125000000009
20
-35.57500000000001
10
110.18125000000013
20
-35.575000000000031
42
-0.41421356237315748
0
LWPOLYLINE
5
160
100
AcDbEntity
8
0
100
AcDbPolyline
90
8
70
1
43
0.0
10
-14.431249999999947
20
35.07500000000001
42
0.41421356237312884
10
-14.931249999999993
20
35.57500000000001
10
-27.931249999999967
20
35.574999999999989
42
0.41421356237312884
10
-28.43124999999997
20
35.07500000000001
10
-28.431250000000009
20
22.07500000000001
42
0.41421356237311063
10
-27.931249999999967
20
21.57500000000001
10
-14.931249999999993
20
21.575000000000017
42
0.41421356237313145
10
-14.431249999999952
20
22.07500000000001
0
LWPOLYLINE
5
161
100
AcDbEntity
8
0
100
AcDbPolyline
90
8
70
1
43
0.0
10
4.1187500000000208
20
21.57500000000001
10
-8.8812499999999499
20
21.574999999999992
42
-0.41421356237312101
10
-9.3812499999999925
20
22.07500000000001
10
-9.3812499999999606
20
35.07500000000001
42
-0.41421356237312235
10
-8.8812499999999499
20
35.574999999999989
10
4.1187500000000208
20
35.575000000000031
42
-0.41421356237312462
10
4.6187500000000643
20
35.07500000000001
10
4.6187500000000465
20
22.07500000000001
42
-0.41421356237312168
0
LWPOLYLINE
5
162
100
AcDbEntity
8
0
100
AcDbPolyline
90
8
70
1
43
0.0
10
161.78125000000017
20
3.0250000000000021
10
161.78125000000017
20
16.025000000000006
42
0.4142135623730443
10
161.28125000000009
20
16.525000000000016
10
148.28125000000014
20
16.524999999999984
42
0.41421356237314966
10
147.78125000000014
20
16.025000000000006
10
147.78125000000006
20
3.0250000000000021
42
0.41421356237313861
10
148.28125000000014
20
2.524999999999995
10
161.28125000000009
20
2.5250000000000146
42
0.41421356237304202
0
LWPOLYLINE
5
163
100
AcDbEntity
8
0
100
AcDbPolyline
90
8
70
1
43
0.0
10
61.768750000000097
20
35.07500000000001
42
0.41421356237310025
10
61.268750000000054
20
35.57500000000001
10
48.268750000000082
20
35.574999999999989
42
0.41421356237312884
10
47.768750000000075
20
35.07500000000001
10
47.76875000000004
20
22.07500000000001
42
0.41421356237311063
10
48.268750000000082
20
21.57500000000001
10
61.268750000000054
20
21.57500000000001
42
0.41421356237309503
10
61.768750000000104
20
22.07500000000001
0
LWPOLYLINE
5
164
100
AcDbEntity
8
0
100
AcDbPolyline
90
8
70
1
43
0.0
10
90.343750000000128
20
35.07500000000001
10
90.343750000000114
20
22.07500000000001
42
-0.41421356237316009
10
89.843750000000057
20
21.575000000000021
10
76.843750000000099
20
21.574999999999992
42
-0.41421356237311585
10
76.343750000000028
20
22.07500000000001
10
76.343750000000071
20
35.07500000000001
42
-0.41421356237312884
10
76.843750000000099
20
35.574999999999989
10
89.843750000000057
20
35.575000000000038
42
-0.41421356237312623
0
LWPOLYLINE
5
165
100
AcDbEntity
8
0
100
AcDbPolyline
90
8
70
1
43
0.0
10
-43.506249999999973
20
2.524999999999999
10
-56.506249999999937
20
2.5249999999999884
42
-0.41421356237312495
10
-57.006249999999987
20
3.0250000000000021
10
-57.006249999999952
20
16.025000000000006
42
-0.41421356237310153
10
-56.506249999999937
20
16.524999999999999
10
-43.506249999999973
20
16.525000000000031
42
-0.41421356237312495
10
-43.00624999999993
20
16.025000000000006
10
-43.006249999999959
20
3.0250000000000021
42
-0.41421356237313045
0
LWPOLYLINE
5
166
100
AcDbEntity
8
0
100
AcDbPolyline
90
8
70
1
43
0.0
10
119.20625000000015
20
-41.125000000000007
42
-0.41421356237311585
10
119.70625000000014
20
-40.625000000000014
10
132.7062500000001
20
-40.624999999999986
42
-0.41421356237312623
10
133.20625000000013
20
-41.125000000000007
10
133.20625000000013
20
-54.125000000000021
42
-0.4142135623730846
10
132.7062500000001
20
-54.625000000000021
10
119.70625000000013
20
-54.625000000000021
42
-0.41421356237308982
10
119.20625000000008
20
-54.125000000000021
0
LWPOLYLINE
5
167
100
AcDbEntity
8
0
100
AcDbPolyline
90
8
70
1
43
0.0
10
-175.56874999999997
20
2.524999999999999
42
-0.41421356237319679
10
-176.06875000000008
20
3.0250000000000021
10
-176.06874999999997
20
16.025000000000006
42
-0.41421356237304691
10
-175.56874999999997
20
16.524999999999984
10
-162.56875000000005
20
16.525000000000034
42
-0.41421356237310675
10
-162.06874999999997
20
16.025000000000006
10
-162.06874999999994
20
3.0250000000000021
42
-0.41421356237304363
10
-162.56875000000005
20
2.5249999999999928
0
LWPOLYLINE
5
168
100
AcDbEntity
8
0
100
AcDbPolyline
90
8
70
1
43
0.0
10
13.643750000000026
20
2.5250000000000035
10
0.643750000000054
20
2.5249999999999861
42
-0.4142135623731209
10
0.14375000000001142
20
3.0250000000000021
10
0.14375000000004801
20
16.025000000000006
42
-0.41421356237312551
10
0.643750000000054
20
16.524999999999995
10
13.643750000000026
20
16.525000000000027
42
-0.41421356237312101
10
14.143750000000072
20
16.025000000000006
10
14.14375000000005
20
3.0250000000000021
42
-0.41421356237312168
0
LWPOLYLINE
5
169
100
AcDbEntity
8
0
100
AcDbPolyline
90
8
70
1
43
0.0
10
-118.91875
20
-35.07500000000001
42
0.41421356237314966
10
-118.41874999999996
20
-35.57500000000001
10
-105.41874999999997
20
-35.57500000000001
42
0.41421356237308982
10
-104.91874999999993
20
-35.07500000000001
10
-104.91874999999993
20
-22.07500000000001
42
0.41421356237313928
10
-105.41874999999997
20
-21.575000000000006
10
-118.41874999999996
20
-21.575000000000021
42
0.41421356237314705
10
-118.91874999999997
20
-22.07500000000001
0
LWPOLYLINE
5
170
100
AcDbEntity
8
0
100
AcDbPolyline
90
8
70
1
43
0.0
10
-108.89374999999994
20
-2.5250000000000119
42
0.41421356237310086
10
-109.39374999999998
20
-3.0249999999999932
10
-109.39374999999998
20
-16.024999999999999
42
0.41421356237313928
10
-108.89374999999994
20
-16.525000000000006
10
-95.893749999999969
20
-16.524999999999999
42
0.41421356237311063
10
-95.393749999999926
20
-16.024999999999999
10
-95.393749999999926
20
-3.0249999999999932
42
0.41421356237316753
10
-95.893749999999983
20
-2.5249999999999928
0
LWPOLYLINE
5
171
100
AcDbEntity
8
0
100
AcDbPolyline
90
8
70
1
43
0.0
10
18.406250000000025
20
-2.5249999999999755
42
-0.41421356237311291
10
18.906250000000075
20
-3.0249999999999932
10
18.90625000000005
20
-16.024999999999999
42
-0.41421356237311974
10
18.406250000000025
20
-16.524999999999995
10
5.4062500000000568
20
-16.52500000000002
42
-0.41421356237312429
10
4.9062500000000151
20
-16.024999999999999
10
4.9062500000000497
20
-3.0249999999999932
42
-0.41421356237312101
10
5.4062500000000568
20
-2.5250000000000128
0
LWPOLYLINE
5
172
100
AcDbEntity
8
0
100
AcDbPolyline
90
8
70
1
43
0.0
10
-0.14374999999995863
20
-16.024999999999999
42
-0.41421356237311679
10
-0.64374999999998295
20
-16.524999999999995
10
-13.643749999999955
20
-16.525000000000016
42
-0.41421356237312101
10
-14.143749999999997
20
-16.024999999999999
10
-14.143749999999962
20
-3.0249999999999932
42
-0.41421356237312101
10
-13.643749999999955
20
-2.5250000000000128
10
-0.64374999999998295
20
-2.5249999999999773
42
-0.41421356237312101
10
-0.14374999999994031
20
-3.0249999999999932
0
LWPOLYLINE
5
173
100
AcDbEntity
8
0
100
AcDbPolyline
90
8
70
1
43
0.0
10
-71.293749999999974
20
-16.024999999999999
10
-71.293749999999932
20
-3.0249999999999932
42
-0.41421356237310869
10
-70.79374999999996
20
-2.5250000000000128
10
-57.793749999999982
20
-2.5249999999999773
42
-0.41421356237313145
10
-57.293749999999939
20
-3.0249999999999932
10
-57.293749999999967
20
-16.024999999999999
42
-0.41421356237311974
10
-57.793749999999982
20
-16.525000000000002
10
-70.79374999999996
20
-16.525000000000016
42
-0.41421356237312101
0
LWPOLYLINE
5
174
100
AcDbEntity
8
0
100
AcDbPolyline
90
8
70
1
43
0.0
10
-4.1187499999999488
20
-21.575000000000024
42
0.41421356237311519
10
-4.6187499999999595
20
-22.07500000000001
10
-4.6187499999999932
20
-35.07500000000001
42
0.41421356237312756
10
-4.1187499999999488
20
-35.57500000000001
10
8.8812500000000227
20
-35.57500000000001
42
0.4142135623731204
10
9.3812500000000636
20
-35.07500000000001
10
9.3812500000000671
20
-22.07500000000001
42
0.4142135623731113
10
8.8812500000000227
20
-21.57500000000001
0
LWPOLYLINE
5
175
100
AcDbEntity
8
0
100
AcDbPolyline
90
8
70
1
43
0.0
10
-127.94374999999997
20
-16.525000000000031
42
-0.41421356237311846
10
-128.44374999999999
20
-16.024999999999999
10
-128.44374999999997
20
-3.0249999999999932
42
-0.41421356237308204
10
-127.94374999999997
20
-2.5250000000000155
10
-114.94374999999998
20
-2.5249999999999662
42
-0.41421356237312756
10
-114.44374999999994
20
-3.0249999999999932
10
-114.44374999999997
20
-16.024999999999999
42
-0.41421356237314966
10
-114.94374999999998
20
-16.524999999999991
0
LWPOLYLINE
5
176
100
AcDbEntity
8
0
100
AcDbPolyline
90
8
70
1
43
0.0
10
-133.99374999999998
20
-16.524999999999991
10
-146.99374999999998
20
-16.525000000000027
42
-0.41421356237312756
10
-147.49375000000001
20
-16.024999999999999
10
-147.49374999999998
20
-3.0249999999999932
42
-0.41421356237315649
10
-146.99374999999998
20
-2.5250000000000261
10
-133.99374999999998
20
-2.5249999999999662
42
-0.41421356237312756
10
-133.49374999999995
20
-3.0249999999999932
10
-133.49374999999998
20
-16.024999999999999
42
-0.41421356237314966
0
LWPOLYLINE
5
177
100
AcDbEntity
8
0
100
AcDbPolyline
90
8
70
1
43
0.0
10
-32.69374999999993
20
-2.5250000000000092
42
0.41421356237311519
10
-33.19374999999993
20
-3.0249999999999932
10
-33.193749999999966
20
-16.024999999999999
42
0.41421356237312884
10
-32.69374999999993
20
-16.524999999999995
10
-19.693749999999962
20
-16.524999999999999
42
0.41421356237311974
10
-19.193749999999927
20
-16.024999999999999
10
-19.19374999999992
20
-3.0249999999999932
42
0.41421356237312201
10
-19.693749999999962
20
-2.5249999999999946
0
LWPOLYLINE
5
178
100
AcDbEntity
8
0
100
AcDbPolyline
90
8
70
1
43
0.0
10
-86.368749999999963
20
-35.57500000000001
42
0.41421356237308982
10
-85.86874999999992
20
-35.07500000000001
10
-85.86874999999992
20
-22.07500000000001
42
0.41421356237313928
10
-86.368749999999963
20
-21.575000000000006
10
-99.368749999999935
20
-21.575000000000021
42
0.41421356237314705
10
-99.868749999999977
20
-22.07500000000001
10
-99.868749999999977
20
-35.07500000000001
42
0.41421356237313667
10
-99.368749999999935
20
-35.575000000000017
0
LWPOLYLINE
5
179
100
AcDbEntity
8
0
100
AcDbPolyline
90
8
70
1
43
0.0
10
37.956250000000075
20
-3.0249999999999932
42
0.41421356237313761
10
37.45625000000004
20
-2.5249999999999959
10
24.456250000000068
20
-2.5250000000000106
42
0.41421356237311974
10
23.956250000000058
20
-3.0249999999999932
10
23.956250000000026
20
-16.024999999999999
42
0.41421356237311713
10
24.456250000000075
20
-16.525000000000002
10
37.45625000000004
20
-16.525000000000002
42
0.41421356237312623
10
37.956250000000075
20
-16.024999999999999
0
LWPOLYLINE
5
180
100
AcDbEntity
8
0
100
AcDbPolyline
90
8
70
1
43
0.0
10
-80.31874999999998
20
-35.575000000000031
42
-0.41421356237312362
10
-80.81874999999998
20
-35.07500000000001
10
-80.818749999999966
20
-22.07500000000001
42
-0.41421356237309764
10
-80.31874999999998
20
-21.575000000000017
10
-67.318749999999994
20
-21.574999999999992
42
-0.41421356237312623
10
-66.818749999999937
20
-22.07500000000001
10
-66.818749999999966
20
-35.07500000000001
42
-0.41421356237313667
10
-67.318750000000009
20
-35.575000000000017
0
LWPOLYLINE
5
181
100
AcDbEntity
8
0
100
AcDbPolyline
90
8
70
1
43
0.0
10
73.962500000000063
20
-16.024999999999999
10
73.962500000000077
20
-3.0249999999999932
42
-0.414213562373135
10
74.462500000000091
20
-2.5250000000000177
10
87.462500000000063
20
-2.5249999999999733
42
-0.41421356237309209
10
87.962500000000134
20
-3.0249999999999932
10
87.962500000000091
20
-16.024999999999999
42
-0.41421356237311585
10
87.462500000000063
20
-16.524999999999991
10
74.462500000000091
20
-16.52500000000002
42
-0.41421356237310802
0
LWPOLYLINE
5
182
100
AcDbEntity
8
0
100
AcDbPolyline
90
8
70
1
43
0.0
10
-48.268750000000004
20
-21.57500000000001
10
-61.268749999999926
20
-21.575000000000024
42
0.41421356237312362
10
-61.768749999999962
20
-22.07500000000001
10
-61.76874999999999
20
-35.07500000000001
42
0.41421356237312884
10
-61.26874999999994
20
-35.57500000000001
10
-48.268749999999983
20
-35.57500000000001
42
0.41421356237312623
10
-47.768749999999933
20
-35.07500000000001
10
-47.768749999999933
20
-22.07500000000001
42
0.41421356237310281
0
LWPOLYLINE
5
183
100
AcDbEntity
8
0
100
AcDbPolyline
90
8
70
1
43
0.0
10
-123.96874999999996
20
-35.07500000000001
42
-0.41421356237314966
10
-124.46875
20
-35.57500000000001
10
-137.46874999999994
20
-35.575000000000045
42
-0.41421356237313145
10
-137.96875
20
-35.07500000000001
10
-137.96874999999997
20
-22.07500000000001
42
-0.41421356237311324
10
-137.46874999999994
20
-21.575000000000028
10
-124.46875000000003
20
-21.574999999999992
42
-0.41421356237315227
10
-123.96874999999994
20
-22.07500000000001
0
LWPOLYLINE
5
184
100
AcDbEntity
8
0
100
AcDbPolyline
90
8
70
1
43
0.0
10
27.931250000000034
20
-21.57500000000001
10
14.931250000000064
20
-21.575000000000024
42
0.41421356237311452
10
14.431250000000055
20
-22.07500000000001
10
14.431250000000018
20
-35.07500000000001
42
0.41421356237312884
10
14.931250000000064
20
-35.57500000000001
10
27.931250000000034
20
-35.57500000000001
42
0.41421356237311585
10
28.431250000000077
20
-35.07500000000001
10
28.431250000000077
20
-22.07500000000001
42
0.41421356237311063
0
LWPOLYLINE
5
185
100
AcDbEntity
8
0
100
AcDbPolyline
90
8
70
1
43
0.0
10
19.193750000000051
20
16.025000000000006
10
19.193750000000023
20
3.0250000000000021
42
0.41421356237312201
10
19.693750000000065
20
2.5250000000000035
10
32.693750000000037
20
2.5250000000000035
42
0.41421356237311618
10
33.19375000000008
20
3.0250000000000021
10
33.19375000000008
20
16.025000000000006
42
0.41421356237313017
10
32.693750000000037
20
16.525000000000002
10
19.693750000000065
20
16.524999999999991
42
0.41421356237312495
0
LWPOLYLINE
5
186
100
AcDbEntity
8
0
100
AcDbPolyline
90
8
70
1
43
0.0
10
-180.83125000000001
20
54.125000000000021
10
-180.83125000000001
20
41.125000000000007
42
0.41421356237314705
10
-180.33125000000001
20
40.624999999999993
10
-167.33125000000001
20
40.625000000000028
42
0.41421356237310025
10
-166.83124999999995
20
41.125000000000007
10
-166.83124999999995
20
54.125000000000021
42
0.414213562373069
10
-167.33125000000001
20
54.625000000000021
10
-180.33124999999998
20
54.624999999999979
42
0.41421356237318868
0
LWPOLYLINE
5
187
100
AcDbEntity
8
0
100
AcDbPolyline
90
8
70
1
43
0.0
10
42.218750000000043
20
21.575000000000017
42
0.41421356237311324
10
42.718750000000092
20
22.07500000000001
10
42.718750000000099
20
35.07500000000001
42
0.41421356237313406
10
42.218750000000028
20
35.57500000000001
10
29.218750000000071
20
35.574999999999989
42
0.41421356237312623
10
28.718750000000071
20
35.07500000000001
10
28.718750000000032
20
22.07500000000001
42
0.41421356237311846
10
29.218750000000071
20
21.57500000000001
0
LWPOLYLINE
5
188
100
AcDbEntity
8
0
100
AcDbPolyline
90
8
70
1
43
0.0
10
-104.13124999999997
20
21.57500000000001
10
-91.131249999999994
20
21.575000000000024
42
0.41421356237311324
10
-90.63124999999998
20
22.07500000000001
10
-90.63124999999998
20
35.07500000000001
42
0.41421356237312101
10
-91.131249999999994
20
35.57500000000001
10
-104.13124999999997
20
35.574999999999989
42
0.41421356237312101
10
-104.63124999999998
20
35.07500000000001
10
-104.63125000000005
20
22.07500000000001
42
0.41421356237314705
0
LWPOLYLINE
5
189
100
AcDbEntity
8
0
100
AcDbPolyline
90
8
70
1
43
0.0
10
-62.056249999999942
20
16.025000000000006
42
0.41421356237311197
10
-62.556249999999984
20
16.525000000000006
10
-75.556249999999949
20
16.524999999999991
42
0.41421356237312362
10
-76.056249999999977
20
16.025000000000006
10
-76.056250000000006
20
3.0250000000000021
42
0.41421356237309925
10
-75.556249999999949
20
2.5250000000000035
10
-62.556249999999984
20
2.524999999999999
42
0.41421356237311358
10
-62.056249999999942
20
3.0250000000000021
0
LWPOLYLINE
5
190
100
AcDbEntity
8
0
100
AcDbPolyline
90
8
70
1
43
0.0
10
-37.956249999999969
20
3.0250000000000021
42
0.41421356237312101
10
-37.456249999999926
20
2.5250000000000035
10
-24.456249999999962
20
2.5250000000000035
42
0.41421356237312396
10
-23.956249999999923
20
3.0250000000000021
10
-23.956249999999926
20
16.025000000000006
42
0.41421356237312101
10
-24.456249999999962
20
16.525000000000006
10
-37.456249999999933
20
16.524999999999995
42
0.41421356237311974
10
-37.95624999999994
20
16.025000000000006
0
LWPOLYLINE
5
191
100
AcDbEntity
8
0
100
AcDbPolyline
90
8
70
1
43
0.0
10
23.668750000000077
20
22.07500000000001
10
23.668750000000077
20
35.07500000000001
42
0.41421356237311585
10
23.168750000000035
20
35.57500000000001
10
10.168750000000061
20
35.574999999999989
42
0.41421356237312235
10
9.6687500000000508
20
35.07500000000001
10
9.6687500000000153
20
22.07500000000001
42
0.41421356237312884
10
10.168750000000061
20
21.57500000000001
10
23.168750000000035
20
21.57500000000001
42
0.41421356237311063
0
LWPOLYLINE
5
192
100
AcDbEntity
8
0
100
AcDbPolyline
90
44
70
1
43
0.0
10
-184.21251929422297
20
-68.37884750019677
10
-143.26251929422301
20
-68.378847500196798
42
-0.41421356237308982
10
-140.26251929422304
20
-71.378847500196727
42
0.99999999999999989
10
-136.26251929422301
20
-71.378847500196727
42
-0.41421356237308982
10
-133.26251929422304
20
-68.378847500196798
10
-52.77451929422309
20
-68.378847500196827
42
-0.41421356237308898
10
-49.774519294223097
20
-71.378847500196756
42
0.99999999999999989
10
-45.774519294223104
20
-71.378847500196756
42
-0.41421356237308898
10
-42.774519294223111
20
-68.378847500196812
10
56.762480705776817
20
-68.378847500196841
42
-0.41421356237308898
10
59.762480705776824
20
-71.378847500196784
42
0.99999999999999989
10
63.762480705776817
20
-71.378847500196784
42
-0.41421356237308815
10
66.762480705776824
20
-68.378847500196855
10
156.77548070577672
20
-68.378847500196912
42
-0.41421356237308982
10
159.77548070577669
20
-71.378847500196827
42
0.99999999999999989
10
163.77548070577672
20
-71.378847500196827
42
-0.41421356237308898
10
166.77548070577672
20
-68.378847500196883
10
179.1499807057769
20
-68.378847500196912
42
-0.41421356237309503
10
182.14998070577684
20
-71.378847500196883
10
182.14998070577684
20
-121.85386311186889
42
-0.41348183075255429
10
179.1574775005372
20
-124.85385374486566
42
0.99750418295489252
10
179.1574775005372
20
-128.85384125552804
42
-0.41348183075255429
10
182.14998070577684
20
-131.85383188852478
10
182.1499807057769
20
-182.32884750019679
42
-0.41421356237309503
10
179.1499807057769
20
-185.32884750019679
10
147.51873070577665
20
-185.32884750019676
42
-0.41421356237309159
10
144.5187307057767
20
-182.32884750019682
42
0.99999999999999989
10
140.51873070577668
20
-182.32884750019682
42
-0.41421356237309159
10
137.51873070577665
20
-185.32884750019679
10
54.856730705776826
20
-185.32884750019676
42
-0.41421356237309159
10
51.856730705776819
20
-182.32884750019679
42
0.99999999999999989
10
47.856730705776833
20
-182.32884750019679
42
-0.41421356237309159
10
44.856730705776826
20
-185.32884750019676
10
-130.8812692942231
20
-185.32884750019667
42
-0.41421356237308982
10
-133.88126929422305
20
-182.32884750019673
42
0.99999999999999989
10
-137.88126929422307
20
-182.32884750019673
42
-0.41421356237309159
10
-140.88126929422302
20
-185.32884750019667
10
-184.212519294223
20
-185.32884750019667
42
-0.41421356237309503
10
-187.212519294223
20
-182.32884750019667
10
-187.212519294223
20
-131.85384750019671
42
-0.41421356237309503
10
-184.212519294223
20
-128.85384750019671
42
0.99999999999999989
10
-184.212519294223
20
-124.85384750019674
42
-0.41421356237309503
10
-187.212519294223
20
-121.85384750019672
10
-187.212519294223
20
-71.37884750019677
42
-0.41421356237309853
0
CIRCLE
5
193
100
AcDbEntity
8
0
100
AcDbCircle
10
-92.531269294222994
20
-111.85384750019678
30
0
40
2.8999999999999915
210
0
220
0
230
1
0
CIRCLE
5
194
100
AcDbEntity
8
0
100
AcDbCircle
10
-32.531269294223023
20
-111.85384750019679
30
0
40
2.8999999999999915
210
0
220
0
230
1
0
LWPOLYLINE
5
195
100
AcDbEntity
8
0
100
AcDbPolyline
90
8
70
1
43
0.0
10
108.24510959887014
20
-93.346524660538179
10
108.24510959887014
20
-87.346524660538179
42
0.41421356237309503
10
105.24510959887013
20
-84.346524660538194
10
99.245109598870158
20
-84.346524660538179
42
0.41421356237309503
10
96.245109598870116
20
-87.346524660538179
10
96.245109598870158
20
-93.346524660538179
42
0.41421356237309503
10
99.245109598870158
20
-96.346524660538165
10
105.24510959887013
20
-96.346524660538194
42
0.41421356237309503
0
CIRCLE
5
196
100
AcDbEntity
8
0
100
AcDbCircle
10
87.468730705776892
20
-111.85384750019682
30
0
40
2.8999999999999915
210
0
220
0
230
1
0
CIRCLE
5
197
100
AcDbEntity
8
0
100
AcDbCircle
10
27.468730705776956
20
-111.85384750019681
30
0
40
2.8999999999999915
210
0
220
0
230
1
0
ENDSEC
0
SECTION
2
OBJECTS
0
DICTIONARY
5
C
100
AcDbDictionary
3
ACAD_GROUP
350
D
3
ACAD_MLINESTYLE
350
17
0
DICTIONARY
5
D
100
AcDbDictionary
0
DICTIONARY
5
1A
330
C
100
AcDbDictionary
0
DICTIONARY
5
17
100
AcDbDictionary
0
ENDSEC
0
EOF
