  0
SECTION
  2
HEADER
  9
$ACADVER
  1
AC1015
  9
$ACADMAINTVER
 70
     6
  9
$DWGCODEPAGE
  3
ANSI_1252
  9
$INSBASE
 10
0.0
 20
0.0
 30
0.0
  9
$EXTMIN
 10
32.1160011291
 20
30.2679987221
 30
0.0
  9
$EXTMAX
 10
380.7789916992
 20
158.2310037087
 30
0.0
  9
$LIMMIN
 10
0.0
 20
0.0
  9
$LIMMAX
 10
420.0
 20
297.0
  9
$ORTHOMODE
 70
     0
  9
$REGENMODE
 70
     1
  9
$FILLMODE
 70
     1
  9
$QTEXTMODE
 70
     0
  9
$MIRRTEXT
 70
     1
  9
$LTSCALE
 40
1.0
  9
$ATTMODE
 70
     1
  9
$TEXTSIZE
 40
3.5
  9
$TRACEWID
 40
1.0
  9
$TEXTSTYLE
  7
Standard
  9
$CLAYER
  8
0
  9
$CELTYPE
  6
ByLayer
  9
$CECOLOR
 62
   256
  9
$CELTSCALE
 40
1.0
  9
$DISPSILH
 70
     0
  9
$DIMSCALE
 40
1.0
  9
$DIMASZ
 40
3.302
  9
$DIMEXO
 40
0.0
  9
$DIMDLI
 40
3.75
  9
$DIMRND
 40
0.0
  9
$DIMDLE
 40
0.0
  9
$DIMEXE
 40
1.0
  9
$DIMTP
 40
0.0
  9
$DIMTM
 40
0.0
  9
$DIMTXT
 40
3.5
  9
$DIMCEN
 40
2.5
  9
$DIMTSZ
 40
0.0
  9
$DIMTOL
 70
     0
  9
$DIMLIM
 70
     0
  9
$DIMTIH
 70
     1
  9
$DIMTOH
 70
     1
  9
$DIMSE1
 70
     0
  9
$DIMSE2
 70
     0
  9
$DIMTAD
 70
     1
  9
$DIMZIN
 70
     0
  9
$DIMBLK
  1

  9
$DIMASO
 70
     1
  9
$DIMSHO
 70
     1
  9
$DIMPOST
  1

  9
$DIMAPOST
  1

  9
$DIMALT
 70
     0
  9
$DIMALTD
 70
     3
  9
$DIMALTF
 40
0.0393700787
  9
$DIMLFAC
 40
1.0
  9
$DIMTOFL
 70
     1
  9
$DIMTVP
 40
0.0
  9
$DIMTIX
 70
     0
  9
$DIMSOXD
 70
     0
  9
$DIMSAH
 70
     0
  9
$DIMBLK1
  1

  9
$DIMBLK2
  1

  9
$DIMSTYLE
  2
ISO-25
  9
$DIMCLRD
 70
     0
  9
$DIMCLRE
 70
     0
  9
$DIMCLRT
 70
     0
  9
$DIMTFAC
 40
1.0
  9
$DIMGAP
 40
1.524
  9
$DIMJUST
 70
     0
  9
$DIMSD1
 70
     0
  9
$DIMSD2
 70
     0
  9
$DIMTOLJ
 70
     0
  9
$DIMTZIN
 70
     0
  9
$DIMALTZ
 70
     0
  9
$DIMALTTZ
 70
     0
  9
$DIMUPT
 70
     0
  9
$DIMDEC
 70
     2
  9
$DIMTDEC
 70
     2
  9
$DIMALTU
 70
     2
  9
$DIMALTTD
 70
     3
  9
$DIMTXSTY
  7
Standard
  9
$DIMAUNIT
 70
     0
  9
$DIMADEC
 70
     2
  9
$DIMALTRND
 40
0.0
  9
$DIMAZIN
 70
     0
  9
$DIMDSEP
 70
    44
  9
$DIMATFIT
 70
     3
  9
$DIMFRAC
 70
     0
  9
$DIMLDRBLK
  1

  9
$DIMLUNIT
 70
     2
  9
$DIMLWD
 70
    -2
  9
$DIMLWE
 70
    -2
  9
$DIMTMOVE
 70
     0
  9
$LUNITS
 70
     2
  9
$LUPREC
 70
     2
  9
$SKETCHINC
 40
1.0
  9
$FILLETRAD
 40
10.0
  9
$AUNITS
 70
     0
  9
$AUPREC
 70
     2
  9
$MENU
  1
.
  9
$ELEVATION
 40
0.0
  9
$PELEVATION
 40
0.0
  9
$THICKNESS
 40
0.0
  9
$LIMCHECK
 70
     0
  9
$CHAMFERA
 40
0.0
  9
$CHAMFERB
 40
0.0
  9
$CHAMFERC
 40
0.0
  9
$CHAMFERD
 40
0.0
  9
$SKPOLY
 70
     0
  9
$TDCREATE
 40
2459265.612792893
  9
$TDUCREATE
 40
2459265.821126227
  9
$TDUPDATE
 40
2459265.612818241
  9
$TDUUPDATE
 40
2459265.821151574
  9
$TDINDWG
 40
0.0000000116
  9
$TDUSRTIMER
 40
0.0000000116
  9
$USRTIMER
 70
     1
  9
$ANGBASE
 50
0.0
  9
$ANGDIR
 70
     0
  9
$PDMODE
 70
     0
  9
$PDSIZE
 40
-1.0
  9
$PLINEWID
 40
0.0
  9
$SPLFRAME
 70
     0
  9
$SPLINETYPE
 70
     6
  9
$SPLINESEGS
 70
     8
  9
$HANDSEED
  5
2D0
  9
$SURFTAB1
 70
     6
  9
$SURFTAB2
 70
     6
  9
$SURFTYPE
 70
     6
  9
$SURFU
 70
     6
  9
$SURFV
 70
     6
  9
$UCSBASE
  2

  9
$UCSNAME
  2

  9
$UCSORG
 10
0.0
 20
0.0
 30
0.0
  9
$UCSXDIR
 10
1.0
 20
0.0
 30
0.0
  9
$UCSYDIR
 10
0.0
 20
1.0
 30
0.0
  9
$UCSORTHOREF
  2

  9
$UCSORTHOVIEW
 70
     0
  9
$UCSORGTOP
 10
0.0
 20
0.0
 30
0.0
  9
$UCSORGBOTTOM
 10
0.0
 20
0.0
 30
0.0
  9
$UCSORGLEFT
 10
0.0
 20
0.0
 30
0.0
  9
$UCSORGRIGHT
 10
0.0
 20
0.0
 30
0.0
  9
$UCSORGFRONT
 10
0.0
 20
0.0
 30
0.0
  9
$UCSORGBACK
 10
0.0
 20
0.0
 30
0.0
  9
$PUCSBASE
  2

  9
$PUCSNAME
  2

  9
$PUCSORG
 10
0.0
 20
0.0
 30
0.0
  9
$PUCSXDIR
 10
1.0
 20
0.0
 30
0.0
  9
$PUCSYDIR
 10
0.0
 20
1.0
 30
0.0
  9
$PUCSORTHOREF
  2

  9
$PUCSORTHOVIEW
 70
     0
  9
$PUCSORGTOP
 10
0.0
 20
0.0
 30
0.0
  9
$PUCSORGBOTTOM
 10
0.0
 20
0.0
 30
0.0
  9
$PUCSORGLEFT
 10
0.0
 20
0.0
 30
0.0
  9
$PUCSORGRIGHT
 10
0.0
 20
0.0
 30
0.0
  9
$PUCSORGFRONT
 10
0.0
 20
0.0
 30
0.0
  9
$PUCSORGBACK
 10
0.0
 20
0.0
 30
0.0
  9
$USERI1
 70
     0
  9
$USERI2
 70
     0
  9
$USERI3
 70
     0
  9
$USERI4
 70
     0
  9
$USERI5
 70
     0
  9
$USERR1
 40
0.0
  9
$USERR2
 40
0.0
  9
$USERR3
 40
0.0
  9
$USERR4
 40
0.0
  9
$USERR5
 40
0.0
  9
$WORLDVIEW
 70
     1
  9
$SHADEDGE
 70
     3
  9
$SHADEDIF
 70
    70
  9
$TILEMODE
 70
     1
  9
$MAXACTVP
 70
    64
  9
$PINSBASE
 10
0.0
 20
0.0
 30
0.0
  9
$PLIMCHECK
 70
     0
  9
$PEXTMIN
 10
1.0000000000E+20
 20
1.0000000000E+20
 30
1.0000000000E+20
  9
$PEXTMAX
 10
-1.0000000000E+20
 20
-1.0000000000E+20
 30
-1.0000000000E+20
  9
$PLIMMIN
 10
0.0
 20
0.0
  9
$PLIMMAX
 10
420.0
 20
297.0
  9
$UNITMODE
 70
     0
  9
$VISRETAIN
 70
     1
  9
$PLINEGEN
 70
     0
  9
$PSLTSCALE
 70
     1
  9
$TREEDEPTH
 70
  3020
  9
$CMLSTYLE
  2
Standard
  9
$CMLJUST
 70
     0
  9
$CMLSCALE
 40
20.0
  9
$PROXYGRAPHICS
 70
     1
  9
$MEASUREMENT
 70
     1
  9
$CELWEIGHT
370
    -1
  9
$ENDCAPS
280
     0
  9
$JOINSTYLE
280
     0
  9
$LWDISPLAY
290
     1
  9
$INSUNITS
 70
     4
  9
$HYPERLINKBASE
  1

  9
$STYLESHEET
  1

  9
$XEDIT
290
     1
  9
$CEPSNTYPE
380
     0
  9
$PSTYLEMODE
290
     1
  9
$FINGERPRINTGUID
  2
{c2a688b5-9e15-49d9-8f95-818711b040dd}
  9
$VERSIONGUID
  2
{FAEB1C32-E019-11D5-929B-00C0DF256EC4}
  9
$EXTNAMES
290
     1
  9
$PSVPSCALE
 40
0.0
  9
$OLESTARTUP
290
     0
  0
ENDSEC
  0
SECTION
  2
CLASSES
  0
CLASS
  1
ACDBDICTIONARYWDFLT
  2
AcDbDictionaryWithDefault
  3
ObjectDBX Classes
 90
        0
280
     0
281
     0
  0
CLASS
  1
VISUALSTYLE
  2
AcDbVisualStyle
  3
ObjectDBX Classes
 90
     4095
280
     0
281
     0
  0
CLASS
  1
MATERIAL
  2
AcDbMaterial
  3
ObjectDBX Classes
 90
     1153
280
     0
281
     0
  0
CLASS
  1
SCALE
  2
AcDbScale
  3
ObjectDBX Classes
 90
     1153
280
     0
281
     0
  0
CLASS
  1
TABLESTYLE
  2
AcDbTableStyle
  3
ObjectDBX Classes
 90
     4095
280
     0
281
     0
  0
CLASS
  1
MLEADERSTYLE
  2
AcDbMLeaderStyle
  3
ACDB_MLEADERSTYLE_CLASS
 90
     4095
280
     0
281
     0
  0
CLASS
  1
SUN
  2
AcDbSun
  3
SCENEOE
 90
     1153
280
     0
281
     0
  0
CLASS
  1
ACDBPLACEHOLDER
  2
AcDbPlaceHolder
  3
ObjectDBX Classes
 90
        0
280
     0
281
     0
  0
CLASS
  1
LAYOUT
  2
AcDbLayout
  3
ObjectDBX Classes
 90
        0
280
     0
281
     0
  0
ENDSEC
  0
SECTION
  2
TABLES
  0
TABLE
  2
VPORT
  5
8
330
0
100
AcDbSymbolTable
 70
     1
  0
VPORT
  5
29
330
8
100
AcDbSymbolTableRecord
100
AcDbViewportTableRecord
  2
*Active
 70
     0
 10
0.0
 20
0.0
 11
1.0
 21
1.0
 12
206.4474964142
 22
94.2495012154
 13
0.0
 23
0.0
 14
10.0
 24
10.0
 15
10.0
 25
10.0
 16
0.0
 26
0.0
 36
1.0
 17
0.0
 27
0.0
 37
0.0
 40
130.5222650863
 41
2.7247171212
 42
50.0
 43
0.0
 44
0.0
 50
0.0
 51
0.0
 71
     0
 72
   100
 73
     1
 74
     3
 75
     0
 76
     0
 77
     0
 78
     0
281
     0
 65
     1
110
0.0
120
0.0
130
0.0
111
1.0
121
0.0
131
0.0
112
0.0
122
1.0
132
0.0
 79
     0
146
0.0
  0
ENDTAB
  0
TABLE
  2
LTYPE
  5
5
330
0
100
AcDbSymbolTable
 70
     6
  0
LTYPE
  5
14
330
5
100
AcDbSymbolTableRecord
100
AcDbLinetypeTableRecord
  2
ByBlock
 70
     0
  3

 72
    65
 73
     0
 40
0.0
  0
LTYPE
  5
15
330
5
100
AcDbSymbolTableRecord
100
AcDbLinetypeTableRecord
  2
ByLayer
 70
     0
  3

 72
    65
 73
     0
 40
0.0
  0
LTYPE
  5
16
330
5
100
AcDbSymbolTableRecord
100
AcDbLinetypeTableRecord
  2
Continuous
 70
     0
  3
Solid line
 72
    65
 73
     0
 40
0.0
  0
LTYPE
  5
6E
330
5
100
AcDbSymbolTableRecord
100
AcDbLinetypeTableRecord
  2
HIDDEN
 70
     0
  3
Hidden __ __ __ __ __ __ __ __ __ __ __ __ __ __
 72
    65
 73
     2
 40
1.905
 49
1.27
 74
     0
 49
-0.635
 74
     0
  0
LTYPE
  5
6F
330
5
100
AcDbSymbolTableRecord
100
AcDbLinetypeTableRecord
  2
PHANTOM
 70
     0
  3
Phantom ______  __  __  ______  __  __  ______
 72
    65
 73
     6
 40
12.7
 49
6.35
 74
     0
 49
-1.27
 74
     0
 49
1.27
 74
     0
 49
-1.27
 74
     0
 49
1.27
 74
     0
 49
-1.27
 74
     0
  0
LTYPE
  5
70
330
5
100
AcDbSymbolTableRecord
100
AcDbLinetypeTableRecord
  2
CENTER
 70
     0
  3
Center ____ _ ____ _ ____ _ ____ _ ____ _ ____
 72
    65
 73
     4
 40
10.16
 49
6.35
 74
     0
 49
-1.27
 74
     0
 49
1.27
 74
     0
 49
-1.27
 74
     0
  0
LTYPE
  5
71
330
5
100
AcDbSymbolTableRecord
100
AcDbLinetypeTableRecord
  2
CENTERX2
 70
     0
  3
Center (2x) ________  __  ________  __  _____
 72
    65
 73
     4
 40
20.32
 49
12.7
 74
     0
 49
-2.54
 74
     0
 49
2.54
 74
     0
 49
-2.54
 74
     0
  0
LTYPE
  5
72
330
5
100
AcDbSymbolTableRecord
100
AcDbLinetypeTableRecord
  2
DOT2
 70
     0
  3
Dot (.5x) ........................................
 72
    65
 73
     2
 40
0.635
 49
0.0
 74
     0
 49
-0.635
 74
     0
  0
ENDTAB
  0
TABLE
  2
LAYER
  5
2
330
0
100
AcDbSymbolTable
 70
     1
  0
LAYER
  5
10
330
2
100
AcDbSymbolTableRecord
100
AcDbLayerTableRecord
  2
0
 70
     0
 62
     7
  6
Continuous
370
    -3
390
F
  0
ENDTAB
  0
TABLE
  2
STYLE
  5
3
330
0
100
AcDbSymbolTable
 70
     1
  0
STYLE
  5
11
330
3
100
AcDbSymbolTableRecord
100
AcDbTextStyleTableRecord
  2
Standard
 70
     0
 40
0.0
 41
1.0
 50
0.0
 71
     0
 42
3.5
  3
txt
  4

  0
ENDTAB
  0
TABLE
  2
VIEW
  5
6
330
0
100
AcDbSymbolTable
 70
     0
  0
ENDTAB
  0
TABLE
  2
UCS
  5
7
330
0
100
AcDbSymbolTable
 70
     0
  0
ENDTAB
  0
TABLE
  2
APPID
  5
9
330
0
100
AcDbSymbolTable
 70
     1
  0
APPID
  5
12
330
9
100
AcDbSymbolTableRecord
100
AcDbRegAppTableRecord
  2
ACAD
 70
     0
  0
ENDTAB
  0
TABLE
  2
DIMSTYLE
  5
A
330
0
100
AcDbSymbolTable
 70
     1
100
AcDbDimStyleTable
  0
DIMSTYLE
105
27
330
A
100
AcDbSymbolTableRecord
100
AcDbDimStyleTableRecord
  2
ISO-25
 70
     0
 41
2.5
 42
0.625
 43
3.75
 44
1.25
 73
     0
 74
     0
 77
     1
 78
     8
140
2.5
141
2.5
143
0.0393700787
147
0.625
171
     3
172
     1
178
     0
271
     2
272
     2
274
     3
278
    44
283
     0
284
     8
340
11
  0
ENDTAB
  0
TABLE
  2
BLOCK_RECORD
  5
1
330
0
100
AcDbSymbolTable
 70
     1
  0
BLOCK_RECORD
  5
1F
330
1
100
AcDbSymbolTableRecord
100
AcDbBlockTableRecord
  2
*Model_Space
340
22
  0
BLOCK_RECORD
  5
1B
330
1
100
AcDbSymbolTableRecord
100
AcDbBlockTableRecord
  2
*Paper_Space
340
1E
  0
BLOCK_RECORD
  5
23
330
1
100
AcDbSymbolTableRecord
100
AcDbBlockTableRecord
  2
*Paper_Space0
340
26
  0
ENDTAB
  0
ENDSEC
  0
SECTION
  2
BLOCKS
  0
BLOCK
  5
20
330
1F
100
AcDbEntity
  8
0
100
AcDbBlockBegin
  2
*Model_Space
 70
     0
 10
0.0
 20
0.0
 30
0.0
  3
*Model_Space
  1

  0
ENDBLK
  5
21
330
1F
100
AcDbEntity
  8
0
100
AcDbBlockEnd
  0
BLOCK
  5
1C
330
1B
100
AcDbEntity
 67
     1
  8
0
100
AcDbBlockBegin
  2
*Paper_Space
 70
     0
 10
0.0
 20
0.0
 30
0.0
  3
*Paper_Space
  1

  0
ENDBLK
  5
1D
330
1B
100
AcDbEntity
 67
     1
  8
0
100
AcDbBlockEnd
  0
BLOCK
  5
24
330
23
100
AcDbEntity
  8
0
100
AcDbBlockBegin
  2
*Paper_Space0
 70
     0
 10
0.0
 20
0.0
 30
0.0
  3
*Paper_Space0
  1

  0
ENDBLK
  5
25
330
23
100
AcDbEntity
  8
0
100
AcDbBlockEnd
  0
ENDSEC
  0
SECTION
  2
ENTITIES
  0
LINE
  5
73
330
1F
100
AcDbEntity
  8
0
  6
Continuous
 62
     7
370
    25
100
AcDbLine
 10
306.3729858398
 20
73.5930023193
 30
0.0
 11
311.3729858398
 21
73.5930023193
 31
0.0
  0
ARC
  5
74
330
1F
100
AcDbEntity
  8
0
  6
Continuous
 62
     7
370
    25
100
AcDbCircle
 10
306.3729858398
 20
74.5930023193
 30
0.0
 40
1.0
100
AcDbArc
 50
180.0
 51
270.0
  0
LINE
  5
75
330
1F
100
AcDbEntity
  8
0
  6
Continuous
 62
     7
370
    25
100
AcDbLine
 10
305.3729858398
 20
89.5930023193
 30
0.0
 11
305.3729858398
 21
74.5930023193
 31
0.0
  0
ARC
  5
76
330
1F
100
AcDbEntity
  8
0
  6
Continuous
 62
     7
370
    25
100
AcDbCircle
 10
306.3729858398
 20
89.5930023193
 30
0.0
 40
1.0
100
AcDbArc
 50
90.0
 51
180.0
  0
LINE
  5
77
330
1F
100
AcDbEntity
  8
0
  6
Continuous
 62
     7
370
    25
100
AcDbLine
 10
311.3729858398
 20
90.5930023193
 30
0.0
 11
306.3729858398
 21
90.5930023193
 31
0.0
  0
ARC
  5
78
330
1F
100
AcDbEntity
  8
0
  6
Continuous
 62
     7
370
    25
100
AcDbCircle
 10
311.3729858398
 20
89.5930023193
 30
0.0
 40
1.0
100
AcDbArc
 50
0.0
 51
90.0
  0
LINE
  5
79
330
1F
100
AcDbEntity
  8
0
  6
Continuous
 62
     7
370
    25
100
AcDbLine
 10
312.3729858398
 20
74.5930023193
 30
0.0
 11
312.3729858398
 21
89.5930023193
 31
0.0
  0
ARC
  5
7A
330
1F
100
AcDbEntity
  8
0
  6
Continuous
 62
     7
370
    25
100
AcDbCircle
 10
311.3729858398
 20
74.5930023193
 30
0.0
 40
1.0
100
AcDbArc
 50
270.0
 51
0.0
  0
LINE
  5
7B
330
1F
100
AcDbEntity
  8
0
  6
Continuous
 62
     7
370
    25
100
AcDbLine
 10
282.4970092773
 20
73.5930023193
 30
0.0
 11
287.4970092773
 21
73.5930023193
 31
0.0
  0
ARC
  5
7C
330
1F
100
AcDbEntity
  8
0
  6
Continuous
 62
     7
370
    25
100
AcDbCircle
 10
282.4970092773
 20
74.5930023193
 30
0.0
 40
1.0
100
AcDbArc
 50
180.0
 51
270.0
  0
LINE
  5
7D
330
1F
100
AcDbEntity
  8
0
  6
Continuous
 62
     7
370
    25
100
AcDbLine
 10
281.4970092773
 20
89.5930023193
 30
0.0
 11
281.4970092773
 21
74.5930023193
 31
0.0
  0
ARC
  5
7E
330
1F
100
AcDbEntity
  8
0
  6
Continuous
 62
     7
370
    25
100
AcDbCircle
 10
282.4970092773
 20
89.5930023193
 30
0.0
 40
1.0
100
AcDbArc
 50
90.0
 51
180.0
  0
LINE
  5
7F
330
1F
100
AcDbEntity
  8
0
  6
Continuous
 62
     7
370
    25
100
AcDbLine
 10
287.4970092773
 20
90.5930023193
 30
0.0
 11
282.4970092773
 21
90.5930023193
 31
0.0
  0
ARC
  5
80
330
1F
100
AcDbEntity
  8
0
  6
Continuous
 62
     7
370
    25
100
AcDbCircle
 10
287.4970092773
 20
89.5930023193
 30
0.0
 40
1.0
100
AcDbArc
 50
0.0
 51
90.0
  0
LINE
  5
81
330
1F
100
AcDbEntity
  8
0
  6
Continuous
 62
     7
370
    25
100
AcDbLine
 10
288.4970092773
 20
74.5930023193
 30
0.0
 11
288.4970092773
 21
89.5930023193
 31
0.0
  0
ARC
  5
82
330
1F
100
AcDbEntity
  8
0
  6
Continuous
 62
     7
370
    25
100
AcDbCircle
 10
287.4970092773
 20
74.5930023193
 30
0.0
 40
1.0
100
AcDbArc
 50
270.0
 51
0.0
  0
ARC
  5
83
330
1F
100
AcDbEntity
  8
0
  6
Continuous
 62
     7
370
    25
100
AcDbCircle
 10
364.7543600342
 20
49.9926377991
 30
0.0
 40
1.000362297042031
100
AcDbArc
 50
90.0207468178
 51
179.9792531822
  0
LINE
  5
84
330
1F
100
AcDbEntity
  8
0
  6
Continuous
 62
     7
370
    25
100
AcDbLine
 10
376.7539978027
 20
50.9930000305
 30
0.0
 11
364.7539978027
 21
50.9930000305
 31
0.0
  0
ARC
  5
85
330
1F
100
AcDbEntity
  8
0
  6
Continuous
 62
     7
370
    25
100
AcDbCircle
 10
376.7536355713
 20
49.9926377991
 30
0.0
 40
1.00036229704206
100
AcDbArc
 50
0.0207468178
 51
89.9792531822
  0
LINE
  5
86
330
1F
100
AcDbEntity
  8
0
  6
Continuous
 62
     7
370
    25
100
AcDbLine
 10
377.7539978027
 20
37.9930000305
 30
0.0
 11
377.7539978027
 21
49.9930000305
 31
0.0
  0
ARC
  5
87
330
1F
100
AcDbEntity
  8
0
  6
Continuous
 62
     7
370
    25
100
AcDbCircle
 10
376.7536355713
 20
37.993362262
 30
0.0
 40
1.000362297042031
100
AcDbArc
 50
270.0207468178
 51
359.9792531823
  0
LINE
  5
88
330
1F
100
AcDbEntity
  8
0
  6
Continuous
 62
     7
370
    25
100
AcDbLine
 10
364.7539978027
 20
36.9930000305
 30
0.0
 11
376.7539978027
 21
36.9930000305
 31
0.0
  0
ARC
  5
89
330
1F
100
AcDbEntity
  8
0
  6
Continuous
 62
     7
370
    25
100
AcDbCircle
 10
364.7543600342
 20
37.993362262
 30
0.0
 40
1.000362297042031
100
AcDbArc
 50
180.0207468178
 51
269.9792531822
  0
LINE
  5
8A
330
1F
100
AcDbEntity
  8
0
  6
Continuous
 62
     7
370
    25
100
AcDbLine
 10
363.7539978027
 20
49.9930000305
 30
0.0
 11
363.7539978027
 21
37.9930000305
 31
0.0
  0
ARC
  5
8B
330
1F
100
AcDbEntity
  8
0
  6
Continuous
 62
     7
370
    25
100
AcDbCircle
 10
364.7543600342
 20
150.0056344726
 30
0.0
 40
1.000362297042031
100
AcDbArc
 50
90.0207468178
 51
179.9792531822
  0
LINE
  5
8C
330
1F
100
AcDbEntity
  8
0
  6
Continuous
 62
     7
370
    25
100
AcDbLine
 10
376.7539978027
 20
151.0059967041
 30
0.0
 11
364.7539978027
 21
151.0059967041
 31
0.0
  0
ARC
  5
8D
330
1F
100
AcDbEntity
  8
0
  6
Continuous
 62
     7
370
    25
100
AcDbCircle
 10
376.7536355713
 20
150.0056344726
 30
0.0
 40
1.00036229704206
100
AcDbArc
 50
0.0207468178
 51
89.9792531822
  0
LINE
  5
8E
330
1F
100
AcDbEntity
  8
0
  6
Continuous
 62
     7
370
    25
100
AcDbLine
 10
377.7539978027
 20
138.0059967041
 30
0.0
 11
377.7539978027
 21
150.0059967041
 31
0.0
  0
ARC
  5
8F
330
1F
100
AcDbEntity
  8
0
  6
Continuous
 62
     7
370
    25
100
AcDbCircle
 10
376.7536355713
 20
138.0063589356
 30
0.0
 40
1.000362297042031
100
AcDbArc
 50
270.0207468178
 51
359.9792531822
  0
LINE
  5
90
330
1F
100
AcDbEntity
  8
0
  6
Continuous
 62
     7
370
    25
100
AcDbLine
 10
364.7539978027
 20
137.0059967041
 30
0.0
 11
376.7539978027
 21
137.0059967041
 31
0.0
  0
ARC
  5
91
330
1F
100
AcDbEntity
  8
0
  6
Continuous
 62
     7
370
    25
100
AcDbCircle
 10
364.7543600342
 20
138.0063589356
 30
0.0
 40
1.00036229704206
100
AcDbArc
 50
180.0207468178
 51
269.9792531822
  0
LINE
  5
92
330
1F
100
AcDbEntity
  8
0
  6
Continuous
 62
     7
370
    25
100
AcDbLine
 10
363.7539978027
 20
150.0059967041
 30
0.0
 11
363.7539978027
 21
138.0059967041
 31
0.0
  0
ARC
  5
93
330
1F
100
AcDbEntity
  8
0
  6
Continuous
 62
     7
370
    25
100
AcDbCircle
 10
364.7543600342
 20
126.192638562
 30
0.0
 40
1.000362297042031
100
AcDbArc
 50
90.0207468178
 51
179.9792531822
  0
LINE
  5
94
330
1F
100
AcDbEntity
  8
0
  6
Continuous
 62
     7
370
    25
100
AcDbLine
 10
376.7539978027
 20
127.1930007934
 30
0.0
 11
364.7539978027
 21
127.1930007934
 31
0.0
  0
ARC
  5
95
330
1F
100
AcDbEntity
  8
0
  6
Continuous
 62
     7
370
    25
100
AcDbCircle
 10
376.7536355713
 20
126.192638562
 30
0.0
 40
1.000362297042045
100
AcDbArc
 50
0.0207468178
 51
89.9792531822
  0
LINE
  5
96
330
1F
100
AcDbEntity
  8
0
  6
Continuous
 62
     7
370
    25
100
AcDbLine
 10
377.7539978027
 20
114.1930007934
 30
0.0
 11
377.7539978027
 21
126.1930007934
 31
0.0
  0
ARC
  5
97
330
1F
100
AcDbEntity
  8
0
  6
Continuous
 62
     7
370
    25
100
AcDbCircle
 10
376.7536355713
 20
114.1933630249
 30
0.0
 40
1.000362297042031
100
AcDbArc
 50
270.0207468178
 51
359.9792531822
  0
LINE
  5
98
330
1F
100
AcDbEntity
  8
0
  6
Continuous
 62
     7
370
    25
100
AcDbLine
 10
364.7539978027
 20
113.1930007934
 30
0.0
 11
376.7539978027
 21
113.1930007935
 31
0.0
  0
ARC
  5
99
330
1F
100
AcDbEntity
  8
0
  6
Continuous
 62
     7
370
    25
100
AcDbCircle
 10
364.7543600342
 20
114.1933630249
 30
0.0
 40
1.00036229704206
100
AcDbArc
 50
180.0207468178
 51
269.9792531822
  0
LINE
  5
9A
330
1F
100
AcDbEntity
  8
0
  6
Continuous
 62
     7
370
    25
100
AcDbLine
 10
363.7539978027
 20
126.1930007934
 30
0.0
 11
363.7539978027
 21
114.1930007934
 31
0.0
  0
ARC
  5
9B
330
1F
100
AcDbEntity
  8
0
  6
Continuous
 62
     7
370
    25
100
AcDbCircle
 10
364.7543600342
 20
107.1426355102
 30
0.0
 40
1.000362297042028
100
AcDbArc
 50
90.0207468178
 51
179.9792531828
  0
LINE
  5
9C
330
1F
100
AcDbEntity
  8
0
  6
Continuous
 62
     7
370
    25
100
AcDbLine
 10
376.7539978027
 20
108.1429977417
 30
0.0
 11
364.7539978027
 21
108.1429977417
 31
0.0
  0
ARC
  5
9D
330
1F
100
AcDbEntity
  8
0
  6
Continuous
 62
     7
370
    25
100
AcDbCircle
 10
376.7536355713
 20
107.1426355102
 30
0.0
 40
1.000362297042028
100
AcDbArc
 50
0.0207468172
 51
89.9792531822
  0
LINE
  5
9E
330
1F
100
AcDbEntity
  8
0
  6
Continuous
 62
     7
370
    25
100
AcDbLine
 10
377.7539978027
 20
95.1429977417
 30
0.0
 11
377.7539978027
 21
107.1429977417
 31
0.0
  0
ARC
  5
9F
330
1F
100
AcDbEntity
  8
0
  6
Continuous
 62
     7
370
    25
100
AcDbCircle
 10
376.7536355713
 20
95.1433599732
 30
0.0
 40
1.000362297042031
100
AcDbArc
 50
270.0207468178
 51
359.9792531822
  0
LINE
  5
A0
330
1F
100
AcDbEntity
  8
0
  6
Continuous
 62
     7
370
    25
100
AcDbLine
 10
364.7539978027
 20
94.1429977417
 30
0.0
 11
376.7539978027
 21
94.1429977417
 31
0.0
  0
ARC
  5
A1
330
1F
100
AcDbEntity
  8
0
  6
Continuous
 62
     7
370
    25
100
AcDbCircle
 10
364.7543600342
 20
95.1433599732
 30
0.0
 40
1.000362297042031
100
AcDbArc
 50
180.0207468178
 51
269.9792531822
  0
LINE
  5
A2
330
1F
100
AcDbEntity
  8
0
  6
Continuous
 62
     7
370
    25
100
AcDbLine
 10
363.7539978027
 20
107.1429977417
 30
0.0
 11
363.7539978027
 21
95.1429977417
 31
0.0
  0
ARC
  5
A3
330
1F
100
AcDbEntity
  8
0
  6
Continuous
 62
     7
370
    25
100
AcDbCircle
 10
345.7043722412
 20
49.9926377991
 30
0.0
 40
1.000362297042031
100
AcDbArc
 50
90.0207468178
 51
179.9792531822
  0
LINE
  5
A4
330
1F
100
AcDbEntity
  8
0
  6
Continuous
 62
     7
370
    25
100
AcDbLine
 10
357.7040100098
 20
50.9930000305
 30
0.0
 11
345.7040100098
 21
50.9930000305
 31
0.0
  0
ARC
  5
A5
330
1F
100
AcDbEntity
  8
0
  6
Continuous
 62
     7
370
    25
100
AcDbCircle
 10
357.7036477783
 20
49.9926377991
 30
0.0
 40
1.00036229704206
100
AcDbArc
 50
0.0207468178
 51
89.9792531822
  0
LINE
  5
A6
330
1F
100
AcDbEntity
  8
0
  6
Continuous
 62
     7
370
    25
100
AcDbLine
 10
358.7040100098
 20
37.9930000305
 30
0.0
 11
358.7040100098
 21
49.9930000305
 31
0.0
  0
ARC
  5
A7
330
1F
100
AcDbEntity
  8
0
  6
Continuous
 62
     7
370
    25
100
AcDbCircle
 10
357.7036477783
 20
37.993362262
 30
0.0
 40
1.000362297042031
100
AcDbArc
 50
270.0207468178
 51
359.9792531823
  0
LINE
  5
A8
330
1F
100
AcDbEntity
  8
0
  6
Continuous
 62
     7
370
    25
100
AcDbLine
 10
345.7040100098
 20
36.9930000305
 30
0.0
 11
357.7040100098
 21
36.9930000305
 31
0.0
  0
ARC
  5
A9
330
1F
100
AcDbEntity
  8
0
  6
Continuous
 62
     7
370
    25
100
AcDbCircle
 10
345.7043722412
 20
37.993362262
 30
0.0
 40
1.000362297042031
100
AcDbArc
 50
180.0207468178
 51
269.9792531822
  0
LINE
  5
AA
330
1F
100
AcDbEntity
  8
0
  6
Continuous
 62
     7
370
    25
100
AcDbLine
 10
344.7040100098
 20
49.9930000305
 30
0.0
 11
344.7040100098
 21
37.9930000305
 31
0.0
  0
ARC
  5
AB
330
1F
100
AcDbEntity
  8
0
  6
Continuous
 62
     7
370
    25
100
AcDbCircle
 10
298.0793722412
 20
49.973636792
 30
0.0
 40
1.000362297042088
100
AcDbArc
 50
90.0207468178
 51
179.9792531822
  0
LINE
  5
AC
330
1F
100
AcDbEntity
  8
0
  6
Continuous
 62
     7
370
    25
100
AcDbLine
 10
312.4599914551
 20
50.9739990234
 30
0.0
 11
298.0790100098
 21
50.9739990234
 31
0.0
  0
ARC
  5
AD
330
1F
100
AcDbEntity
  8
0
  6
Continuous
 62
     7
370
    25
100
AcDbCircle
 10
312.4596292236
 20
49.973636792
 30
0.0
 40
1.000362297042045
100
AcDbArc
 50
0.0207468178
 51
89.9792531822
  0
LINE
  5
AE
330
1F
100
AcDbEntity
  8
0
  6
Continuous
 62
     7
370
    25
100
AcDbLine
 10
313.4599914551
 20
37.9739990234
 30
0.0
 11
313.4599914551
 21
49.9739990234
 31
0.0
  0
ARC
  5
AF
330
1F
100
AcDbEntity
  8
0
  6
Continuous
 62
     7
370
    25
100
AcDbCircle
 10
312.4596292236
 20
37.9743612549
 30
0.0
 40
1.000362297042088
100
AcDbArc
 50
270.0207468178
 51
359.9792531823
  0
LINE
  5
B0
330
1F
100
AcDbEntity
  8
0
  6
Continuous
 62
     7
370
    25
100
AcDbLine
 10
298.0790100098
 20
36.9739990234
 30
0.0
 11
312.4599914551
 21
36.9739990234
 31
0.0
  0
ARC
  5
B1
330
1F
100
AcDbEntity
  8
0
  6
Continuous
 62
     7
370
    25
100
AcDbCircle
 10
298.0793722412
 20
37.9743612549
 30
0.0
 40
1.000362297042031
100
AcDbArc
 50
180.0207468178
 51
269.9792531822
  0
LINE
  5
B2
330
1F
100
AcDbEntity
  8
0
  6
Continuous
 62
     7
370
    25
100
AcDbLine
 10
297.0790100098
 20
49.9739990234
 30
0.0
 11
297.0790100098
 21
37.9739990234
 31
0.0
  0
ARC
  5
B3
330
1F
100
AcDbEntity
  8
0
  6
Continuous
 62
     7
370
    25
100
AcDbCircle
 10
326.6543539307
 20
49.9926377991
 30
0.0
 40
1.000362297042088
100
AcDbArc
 50
90.0207468178
 51
179.9792531822
  0
LINE
  5
B4
330
1F
100
AcDbEntity
  8
0
  6
Continuous
 62
     7
370
    25
100
AcDbLine
 10
338.6539916992
 20
50.9930000305
 30
0.0
 11
326.6539916992
 21
50.9930000305
 31
0.0
  0
ARC
  5
B5
330
1F
100
AcDbEntity
  8
0
  6
Continuous
 62
     7
370
    25
100
AcDbCircle
 10
338.6536294678
 20
49.9926377991
 30
0.0
 40
1.00036229704206
100
AcDbArc
 50
0.0207468178
 51
89.9792531822
  0
LINE
  5
B6
330
1F
100
AcDbEntity
  8
0
  6
Continuous
 62
     7
370
    25
100
AcDbLine
 10
339.6539916992
 20
37.9930000305
 30
0.0
 11
339.6539916992
 21
49.9930000305
 31
0.0
  0
ARC
  5
B7
330
1F
100
AcDbEntity
  8
0
  6
Continuous
 62
     7
370
    25
100
AcDbCircle
 10
338.6536294678
 20
37.993362262
 30
0.0
 40
1.000362297042031
100
AcDbArc
 50
270.0207468178
 51
359.9792531823
  0
LINE
  5
B8
330
1F
100
AcDbEntity
  8
0
  6
Continuous
 62
     7
370
    25
100
AcDbLine
 10
326.6539916992
 20
36.9930000305
 30
0.0
 11
338.6539916992
 21
36.9930000305
 31
0.0
  0
ARC
  5
B9
330
1F
100
AcDbEntity
  8
0
  6
Continuous
 62
     7
370
    25
100
AcDbCircle
 10
326.6543539307
 20
37.993362262
 30
0.0
 40
1.000362297042031
100
AcDbArc
 50
180.0207468178
 51
269.9792531822
  0
LINE
  5
BA
330
1F
100
AcDbEntity
  8
0
  6
Continuous
 62
     7
370
    25
100
AcDbLine
 10
325.6539916992
 20
49.9930000305
 30
0.0
 11
325.6539916992
 21
37.9930000305
 31
0.0
  0
ARC
  5
BB
330
1F
100
AcDbEntity
  8
0
  6
Continuous
 62
     7
370
    25
100
AcDbCircle
 10
274.2663534424
 20
49.973636792
 30
0.0
 40
1.000362297042088
100
AcDbArc
 50
90.0207468178
 51
179.9792531822
  0
LINE
  5
BC
330
1F
100
AcDbEntity
  8
0
  6
Continuous
 62
     7
370
    25
100
AcDbLine
 10
288.6480102539
 20
50.9739990234
 30
0.0
 11
274.2659912109
 21
50.9739990234
 31
0.0
  0
ARC
  5
BD
330
1F
100
AcDbEntity
  8
0
  6
Continuous
 62
     7
370
    25
100
AcDbCircle
 10
288.6476480224
 20
49.973636792
 30
0.0
 40
1.000362297042045
100
AcDbArc
 50
0.0207468178
 51
89.9792531822
  0
LINE
  5
BE
330
1F
100
AcDbEntity
  8
0
  6
Continuous
 62
     7
370
    25
100
AcDbLine
 10
289.6480102539
 20
37.9739990234
 30
0.0
 11
289.6480102539
 21
49.9739990234
 31
0.0
  0
ARC
  5
BF
330
1F
100
AcDbEntity
  8
0
  6
Continuous
 62
     7
370
    25
100
AcDbCircle
 10
288.6476480224
 20
37.9743612549
 30
0.0
 40
1.000362297042031
100
AcDbArc
 50
270.0207468178
 51
359.9792531823
  0
LINE
  5
C0
330
1F
100
AcDbEntity
  8
0
  6
Continuous
 62
     7
370
    25
100
AcDbLine
 10
274.2659912109
 20
36.9739990234
 30
0.0
 11
288.6480102539
 21
36.9739990234
 31
0.0
  0
ARC
  5
C1
330
1F
100
AcDbEntity
  8
0
  6
Continuous
 62
     7
370
    25
100
AcDbCircle
 10
274.2663534424
 20
37.9743612549
 30
0.0
 40
1.000362297042031
100
AcDbArc
 50
180.0207468178
 51
269.9792531822
  0
LINE
  5
C2
330
1F
100
AcDbEntity
  8
0
  6
Continuous
 62
     7
370
    25
100
AcDbLine
 10
273.2659912109
 20
49.9739990234
 30
0.0
 11
273.2659912109
 21
37.9739990234
 31
0.0
  0
ARC
  5
C3
330
1F
100
AcDbEntity
  8
0
  6
Continuous
 62
     7
370
    25
100
AcDbCircle
 10
211.0913721673
 20
48.9696324714
 30
0.0
 40
1.000368817262966
100
AcDbArc
 50
90.0211199897
 51
179.9788800107
  0
LINE
  5
C4
330
1F
100
AcDbEntity
  8
0
  6
Continuous
 62
     7
370
    25
100
AcDbLine
 10
216.091003418
 20
49.9700012207
 30
0.0
 11
211.091003418
 21
49.9700012207
 31
0.0
  0
ARC
  5
C5
330
1F
100
AcDbEntity
  8
0
  6
Continuous
 62
     7
370
    25
100
AcDbCircle
 10
216.0923264609
 20
48.9713242636
 30
0.0
 40
0.9986778334384239
100
AcDbArc
 50
359.9240948419
 51
90.0759051586
  0
LINE
  5
C6
330
1F
100
AcDbEntity
  8
0
  6
Continuous
 62
     7
370
    25
100
AcDbLine
 10
217.091003418
 20
35.9700012207
 30
0.0
 11
217.091003418
 21
48.9700012207
 31
0.0
  0
ARC
  5
C7
330
1F
100
AcDbEntity
  8
0
  6
Continuous
 62
     7
370
    25
100
AcDbCircle
 10
216.0923329476
 20
35.9686716911
 30
0.0
 40
0.9986713553529408
100
AcDbArc
 50
269.9237221937
 51
0.0762778062
  0
LINE
  5
C8
330
1F
100
AcDbEntity
  8
0
  6
Continuous
 62
     7
370
    25
100
AcDbLine
 10
211.091003418
 20
34.9700012207
 30
0.0
 11
216.091003418
 21
34.9700012207
 31
0.0
  0
ARC
  5
C9
330
1F
100
AcDbEntity
  8
0
  6
Continuous
 62
     7
370
    25
100
AcDbCircle
 10
211.0913656494
 20
35.9703634522
 30
0.0
 40
1.00036229704206
100
AcDbArc
 50
180.0207468178
 51
269.9792531822
  0
LINE
  5
CA
330
1F
100
AcDbEntity
  8
0
  6
Continuous
 62
     7
370
    25
100
AcDbLine
 10
210.091003418
 20
48.9700012207
 30
0.0
 11
210.091003418
 21
35.9700012207
 31
0.0
  0
ARC
  5
CB
330
1F
100
AcDbEntity
  8
0
  6
Continuous
 62
     7
370
    25
100
AcDbCircle
 10
229.0233572266
 20
49.973636792
 30
0.0
 40
1.00036229704206
100
AcDbArc
 50
90.0207468178
 51
179.9792531822
  0
LINE
  5
CC
330
1F
100
AcDbEntity
  8
0
  6
Continuous
 62
     7
370
    25
100
AcDbLine
 10
241.0229949951
 20
50.9739990234
 30
0.0
 11
229.0229949951
 21
50.9739990234
 31
0.0
  0
ARC
  5
CD
330
1F
100
AcDbEntity
  8
0
  6
Continuous
 62
     7
370
    25
100
AcDbCircle
 10
241.0226327636
 20
49.973636792
 30
0.0
 40
1.000362297042045
100
AcDbArc
 50
0.0207468178
 51
89.9792531822
  0
LINE
  5
CE
330
1F
100
AcDbEntity
  8
0
  6
Continuous
 62
     7
370
    25
100
AcDbLine
 10
242.0229949951
 20
37.9739990234
 30
0.0
 11
242.0229949951
 21
49.9739990234
 31
0.0
  0
ARC
  5
CF
330
1F
100
AcDbEntity
  8
0
  6
Continuous
 62
     7
370
    25
100
AcDbCircle
 10
241.0226327636
 20
37.9743612549
 30
0.0
 40
1.000362297042088
100
AcDbArc
 50
270.0207468178
 51
359.9792531823
  0
LINE
  5
D0
330
1F
100
AcDbEntity
  8
0
  6
Continuous
 62
     7
370
    25
100
AcDbLine
 10
236.1410064697
 20
36.9739990234
 30
0.0
 11
241.0229949951
 21
36.9739990234
 31
0.0
  0
LINE
  5
D1
330
1F
100
AcDbEntity
  8
0
  6
Continuous
 62
     7
370
    25
100
AcDbLine
 10
236.1410064697
 20
35.9739990234
 30
0.0
 11
236.1410064697
 21
36.9739990234
 31
0.0
  0
ARC
  5
D2
330
1F
100
AcDbEntity
  8
0
  6
Continuous
 62
     7
370
    25
100
AcDbCircle
 10
235.1423359994
 20
35.9726694938
 30
0.0
 40
0.9986713553529478
100
AcDbArc
 50
269.9237221937
 51
0.0762778062
  0
LINE
  5
D3
330
1F
100
AcDbEntity
  8
0
  6
Continuous
 62
     7
370
    25
100
AcDbLine
 10
229.0229949951
 20
34.9739990234
 30
0.0
 11
235.1410064697
 21
34.9739990234
 31
0.0
  0
ARC
  5
D4
330
1F
100
AcDbEntity
  8
0
  6
Continuous
 62
     7
370
    25
100
AcDbCircle
 10
229.0233572266
 20
35.9743612549
 30
0.0
 40
1.000362297042031
100
AcDbArc
 50
180.0207468178
 51
269.9792531822
  0
LINE
  5
D5
330
1F
100
AcDbEntity
  8
0
  6
Continuous
 62
     7
370
    25
100
AcDbLine
 10
228.0229949951
 20
49.9739990234
 30
0.0
 11
228.0229949951
 21
35.9739990234
 31
0.0
  0
ARC
  5
D6
330
1F
100
AcDbEntity
  8
0
  6
Continuous
 62
     7
370
    25
100
AcDbCircle
 10
250.4543569824
 20
49.973636792
 30
0.0
 40
1.000362297042088
100
AcDbArc
 50
90.0207468178
 51
179.9792531822
  0
LINE
  5
D7
330
1F
100
AcDbEntity
  8
0
  6
Continuous
 62
     7
370
    25
100
AcDbLine
 10
264.8349914551
 20
50.9739990234
 30
0.0
 11
250.453994751
 21
50.9739990234
 31
0.0
  0
ARC
  5
D8
330
1F
100
AcDbEntity
  8
0
  6
Continuous
 62
     7
370
    25
100
AcDbCircle
 10
264.8346292236
 20
49.973636792
 30
0.0
 40
1.000362297042045
100
AcDbArc
 50
0.0207468178
 51
89.9792531822
  0
LINE
  5
D9
330
1F
100
AcDbEntity
  8
0
  6
Continuous
 62
     7
370
    25
100
AcDbLine
 10
265.8349914551
 20
37.9739990234
 30
0.0
 11
265.8349914551
 21
49.9739990234
 31
0.0
  0
ARC
  5
DA
330
1F
100
AcDbEntity
  8
0
  6
Continuous
 62
     7
370
    25
100
AcDbCircle
 10
264.8346292236
 20
37.9743612549
 30
0.0
 40
1.000362297042031
100
AcDbArc
 50
270.0207468178
 51
359.9792531823
  0
LINE
  5
DB
330
1F
100
AcDbEntity
  8
0
  6
Continuous
 62
     7
370
    25
100
AcDbLine
 10
250.453994751
 20
36.9739990234
 30
0.0
 11
264.8349914551
 21
36.9739990234
 31
0.0
  0
ARC
  5
DC
330
1F
100
AcDbEntity
  8
0
  6
Continuous
 62
     7
370
    25
100
AcDbCircle
 10
250.4543569824
 20
37.9743612549
 30
0.0
 40
1.000362297042059
100
AcDbArc
 50
180.0207468178
 51
269.9792531822
  0
LINE
  5
DD
330
1F
100
AcDbEntity
  8
0
  6
Continuous
 62
     7
370
    25
100
AcDbLine
 10
249.453994751
 20
49.9739990234
 30
0.0
 11
249.453994751
 21
37.9739990234
 31
0.0
  0
ARC
  5
DE
330
1F
100
AcDbEntity
  8
0
  6
Continuous
 62
     7
370
    25
100
AcDbCircle
 10
86.148364856
 20
49.973636792
 30
0.0
 40
1.000362297042017
100
AcDbArc
 50
90.0207468178
 51
179.9792531822
  0
LINE
  5
DF
330
1F
100
AcDbEntity
  8
0
  6
Continuous
 62
     7
370
    25
100
AcDbLine
 10
100.5289993286
 20
50.9739990234
 30
0.0
 11
86.1480026245
 21
50.9739990234
 31
0.0
  0
ARC
  5
E0
330
1F
100
AcDbEntity
  8
0
  6
Continuous
 62
     7
370
    25
100
AcDbCircle
 10
100.5286370971
 20
49.973636792
 30
0.0
 40
1.000362297042045
100
AcDbArc
 50
0.0207468178
 51
89.9792531822
  0
LINE
  5
E1
330
1F
100
AcDbEntity
  8
0
  6
Continuous
 62
     7
370
    25
100
AcDbLine
 10
101.5289993286
 20
37.9739990234
 30
0.0
 11
101.5289993286
 21
49.9739990234
 31
0.0
  0
ARC
  5
E2
330
1F
100
AcDbEntity
  8
0
  6
Continuous
 62
     7
370
    25
100
AcDbCircle
 10
100.5286370971
 20
37.9743612549
 30
0.0
 40
1.000362297042059
100
AcDbArc
 50
270.0207468178
 51
359.9792531823
  0
LINE
  5
E3
330
1F
100
AcDbEntity
  8
0
  6
Continuous
 62
     7
370
    25
100
AcDbLine
 10
86.1480026245
 20
36.9739990234
 30
0.0
 11
100.5289993286
 21
36.9739990234
 31
0.0
  0
ARC
  5
E4
330
1F
100
AcDbEntity
  8
0
  6
Continuous
 62
     7
370
    25
100
AcDbCircle
 10
86.148364856
 20
37.9743612549
 30
0.0
 40
1.000362297041533
100
AcDbArc
 50
180.0207468178
 51
269.9792531823
  0
LINE
  5
E5
330
1F
100
AcDbEntity
  8
0
  6
Continuous
 62
     7
370
    25
100
AcDbLine
 10
85.1480026245
 20
49.9739990234
 30
0.0
 11
85.1480026245
 21
37.9739990234
 31
0.0
  0
ARC
  5
E6
330
1F
100
AcDbEntity
  8
0
  6
Continuous
 62
     7
370
    25
100
AcDbCircle
 10
111.0793711297
 20
48.9696324714
 30
0.0
 40
1.000368817257145
100
AcDbArc
 50
90.0211199891
 51
179.9788800107
  0
LINE
  5
E7
330
1F
100
AcDbEntity
  8
0
  6
Continuous
 62
     7
370
    25
100
AcDbLine
 10
120.841003418
 20
49.9739990234
 30
0.0
 11
111.0790023804
 21
49.9700012207
 31
0.0
  0
ARC
  5
E8
330
1F
100
AcDbEntity
  8
0
  6
Continuous
 62
     7
370
    25
100
AcDbCircle
 10
120.842345939
 20
48.9753415445
 30
0.0
 40
0.9986583813514551
100
AcDbArc
 50
359.9229758502
 51
90.0770241503
  0
LINE
  5
E9
330
1F
100
AcDbEntity
  8
0
  6
Continuous
 62
     7
370
    25
100
AcDbLine
 10
121.841003418
 20
35.9739990234
 30
0.0
 11
121.841003418
 21
48.9739990234
 31
0.0
  0
ARC
  5
EA
330
1F
100
AcDbEntity
  8
0
  6
Continuous
 62
     7
370
    25
100
AcDbCircle
 10
120.842345939
 20
35.9726565024
 30
0.0
 40
0.9986583813510217
100
AcDbArc
 50
269.9229758497
 51
0.0770241498
  0
LINE
  5
EB
330
1F
100
AcDbEntity
  8
0
  6
Continuous
 62
     7
370
    25
100
AcDbLine
 10
111.0790023804
 20
34.9700012207
 30
0.0
 11
120.841003418
 21
34.9739990234
 31
0.0
  0
ARC
  5
EC
330
1F
100
AcDbEntity
  8
0
  6
Continuous
 62
     7
370
    25
100
AcDbCircle
 10
111.0793646118
 20
35.9703634522
 30
0.0
 40
1.00036229704206
100
AcDbArc
 50
180.0207468178
 51
269.9792531822
  0
LINE
  5
ED
330
1F
100
AcDbEntity
  8
0
  6
Continuous
 62
     7
370
    25
100
AcDbLine
 10
110.0790023804
 20
48.9700012207
 30
0.0
 11
110.0790023804
 21
35.9700012207
 31
0.0
  0
ARC
  5
EE
330
1F
100
AcDbEntity
  8
0
  6
Continuous
 62
     7
370
    25
100
AcDbCircle
 10
62.3353613159
 20
49.973636792
 30
0.0
 40
1.000362297042017
100
AcDbArc
 50
90.0207468178
 51
179.9792531822
  0
LINE
  5
EF
330
1F
100
AcDbEntity
  8
0
  6
Continuous
 62
     7
370
    25
100
AcDbLine
 10
76.716003418
 20
50.9739990234
 30
0.0
 11
62.3349990845
 21
50.9739990234
 31
0.0
  0
ARC
  5
F0
330
1F
100
AcDbEntity
  8
0
  6
Continuous
 62
     7
370
    25
100
AcDbCircle
 10
76.717345939
 20
49.9753415445
 30
0.0
 40
0.998658381351443
100
AcDbArc
 50
359.9229758502
 51
90.0770241498
  0
LINE
  5
F1
330
1F
100
AcDbEntity
  8
0
  6
Continuous
 62
     7
370
    25
100
AcDbLine
 10
77.716003418
 20
37.9739990234
 30
0.0
 11
77.716003418
 21
49.9739990234
 31
0.0
  0
ARC
  5
F2
330
1F
100
AcDbEntity
  8
0
  6
Continuous
 62
     7
370
    25
100
AcDbCircle
 10
76.717345939
 20
37.9726565024
 30
0.0
 40
0.9986583813514515
100
AcDbArc
 50
269.9229758502
 51
0.0770241498
  0
LINE
  5
F3
330
1F
100
AcDbEntity
  8
0
  6
Continuous
 62
     7
370
    25
100
AcDbLine
 10
62.3349990845
 20
36.9739990234
 30
0.0
 11
76.716003418
 21
36.9739990234
 31
0.0
  0
ARC
  5
F4
330
1F
100
AcDbEntity
  8
0
  6
Continuous
 62
     7
370
    25
100
AcDbCircle
 10
62.3353613159
 20
37.9743612549
 30
0.0
 40
1.000362297041533
100
AcDbArc
 50
180.0207468178
 51
269.9792531822
  0
LINE
  5
F5
330
1F
100
AcDbEntity
  8
0
  6
Continuous
 62
     7
370
    25
100
AcDbLine
 10
61.3349990845
 20
49.9739990234
 30
0.0
 11
61.3349990845
 21
37.9739990234
 31
0.0
  0
ARC
  5
F6
330
1F
100
AcDbEntity
  8
0
  6
Continuous
 62
     7
370
    25
100
AcDbCircle
 10
38.5233675591
 20
49.9736302741
 30
0.0
 40
1.00036881725795
100
AcDbArc
 50
90.0211199894
 51
179.9788800106
  0
LINE
  5
F7
330
1F
100
AcDbEntity
  8
0
  6
Continuous
 62
     7
370
    25
100
AcDbLine
 10
52.9039993286
 20
50.9739990234
 30
0.0
 11
38.5229988098
 21
50.9739990234
 31
0.0
  0
ARC
  5
F8
330
1F
100
AcDbEntity
  8
0
  6
Continuous
 62
     7
370
    25
100
AcDbCircle
 10
52.9036370972
 20
49.973636792
 30
0.0
 40
1.000362297042045
100
AcDbArc
 50
0.0207468178
 51
89.9792531822
  0
LINE
  5
F9
330
1F
100
AcDbEntity
  8
0
  6
Continuous
 62
     7
370
    25
100
AcDbLine
 10
53.9039993286
 20
37.9739990234
 30
0.0
 11
53.9039993286
 21
49.9739990234
 31
0.0
  0
ARC
  5
FA
330
1F
100
AcDbEntity
  8
0
  6
Continuous
 62
     7
370
    25
100
AcDbCircle
 10
52.9036370972
 20
37.9743612549
 30
0.0
 40
1.000362297041768
100
AcDbArc
 50
270.0207468178
 51
359.9792531823
  0
LINE
  5
FB
330
1F
100
AcDbEntity
  8
0
  6
Continuous
 62
     7
370
    25
100
AcDbLine
 10
38.5229988098
 20
36.9739990234
 30
0.0
 11
52.9039993286
 21
36.9739990234
 31
0.0
  0
ARC
  5
FC
330
1F
100
AcDbEntity
  8
0
  6
Continuous
 62
     7
370
    25
100
AcDbCircle
 10
38.5233675591
 20
37.9743677727
 30
0.0
 40
1.000368817257473
100
AcDbArc
 50
180.0211199893
 51
269.9788800106
  0
LINE
  5
FD
330
1F
100
AcDbEntity
  8
0
  6
Continuous
 62
     7
370
    25
100
AcDbLine
 10
37.5229988098
 20
49.9739990234
 30
0.0
 11
37.5229988098
 21
37.9739990234
 31
0.0
  0
ARC
  5
FE
330
1F
100
AcDbEntity
  8
0
  6
Continuous
 62
     7
370
    25
100
AcDbCircle
 10
36.1413610718
 20
150.0056344726
 30
0.0
 40
1.000362297042052
100
AcDbArc
 50
90.0207468178
 51
179.9792531822
  0
LINE
  5
FF
330
1F
100
AcDbEntity
  8
0
  6
Continuous
 62
     7
370
    25
100
AcDbLine
 10
48.1409988403
 20
151.0059967041
 30
0.0
 11
36.1409988403
 21
151.0059967041
 31
0.0
  0
ARC
  5
100
330
1F
100
AcDbEntity
  8
0
  6
Continuous
 62
     7
370
    25
100
AcDbCircle
 10
48.1423413614
 20
150.0073392251
 30
0.0
 40
0.9986583813524591
100
AcDbArc
 50
359.9229758503
 51
90.0770241498
  0
LINE
  5
101
330
1F
100
AcDbEntity
  8
0
  6
Continuous
 62
     7
370
    25
100
AcDbLine
 10
49.1409988403
 20
138.0059967041
 30
0.0
 11
49.1409988403
 21
150.0059967041
 31
0.0
  0
ARC
  5
102
330
1F
100
AcDbEntity
  8
0
  6
Continuous
 62
     7
370
    25
100
AcDbCircle
 10
48.1423413614
 20
138.0046541831
 30
0.0
 40
0.9986583813514488
100
AcDbArc
 50
269.9229758502
 51
0.0770241497
  0
LINE
  5
103
330
1F
100
AcDbEntity
  8
0
  6
Continuous
 62
     7
370
    25
100
AcDbLine
 10
36.1409988403
 20
137.0059967041
 30
0.0
 11
48.1409988403
 21
137.0059967041
 31
0.0
  0
ARC
  5
104
330
1F
100
AcDbEntity
  8
0
  6
Continuous
 62
     7
370
    25
100
AcDbCircle
 10
36.1413610718
 20
138.0063589356
 30
0.0
 40
1.00036229704206
100
AcDbArc
 50
180.0207468178
 51
269.9792531822
  0
LINE
  5
105
330
1F
100
AcDbEntity
  8
0
  6
Continuous
 62
     7
370
    25
100
AcDbLine
 10
35.1409988403
 20
150.0059967041
 30
0.0
 11
35.1409988403
 21
138.0059967041
 31
0.0
  0
ARC
  5
106
330
1F
100
AcDbEntity
  8
0
  6
Continuous
 62
     7
370
    25
100
AcDbCircle
 10
326.6543539307
 20
150.0056344726
 30
0.0
 40
1.000362297042088
100
AcDbArc
 50
90.0207468178
 51
179.9792531822
  0
LINE
  5
107
330
1F
100
AcDbEntity
  8
0
  6
Continuous
 62
     7
370
    25
100
AcDbLine
 10
338.6539916992
 20
151.0059967041
 30
0.0
 11
326.6539916992
 21
151.0059967041
 31
0.0
  0
ARC
  5
108
330
1F
100
AcDbEntity
  8
0
  6
Continuous
 62
     7
370
    25
100
AcDbCircle
 10
338.6536294678
 20
150.0056344726
 30
0.0
 40
1.00036229704206
100
AcDbArc
 50
0.0207468178
 51
89.9792531822
  0
LINE
  5
109
330
1F
100
AcDbEntity
  8
0
  6
Continuous
 62
     7
370
    25
100
AcDbLine
 10
339.6539916992
 20
138.0059967041
 30
0.0
 11
339.6539916992
 21
150.0059967041
 31
0.0
  0
ARC
  5
10A
330
1F
100
AcDbEntity
  8
0
  6
Continuous
 62
     7
370
    25
100
AcDbCircle
 10
338.6536294678
 20
138.0063589356
 30
0.0
 40
1.000362297042031
100
AcDbArc
 50
270.0207468178
 51
359.9792531822
  0
LINE
  5
10B
330
1F
100
AcDbEntity
  8
0
  6
Continuous
 62
     7
370
    25
100
AcDbLine
 10
326.6539916992
 20
137.0059967041
 30
0.0
 11
338.6539916992
 21
137.0059967041
 31
0.0
  0
ARC
  5
10C
330
1F
100
AcDbEntity
  8
0
  6
Continuous
 62
     7
370
    25
100
AcDbCircle
 10
326.6543539307
 20
138.0063589356
 30
0.0
 40
1.00036229704206
100
AcDbArc
 50
180.0207468178
 51
269.9792531822
  0
LINE
  5
10D
330
1F
100
AcDbEntity
  8
0
  6
Continuous
 62
     7
370
    25
100
AcDbLine
 10
325.6539916992
 20
150.0059967041
 30
0.0
 11
325.6539916992
 21
138.0059967041
 31
0.0
  0
ARC
  5
10E
330
1F
100
AcDbEntity
  8
0
  6
Continuous
 62
     7
370
    25
100
AcDbCircle
 10
345.7043722412
 20
150.0056344726
 30
0.0
 40
1.000362297042031
100
AcDbArc
 50
90.0207468178
 51
179.9792531822
  0
LINE
  5
10F
330
1F
100
AcDbEntity
  8
0
  6
Continuous
 62
     7
370
    25
100
AcDbLine
 10
357.7040100098
 20
151.0059967041
 30
0.0
 11
345.7040100098
 21
151.0059967041
 31
0.0
  0
ARC
  5
110
330
1F
100
AcDbEntity
  8
0
  6
Continuous
 62
     7
370
    25
100
AcDbCircle
 10
357.7036477783
 20
150.0056344726
 30
0.0
 40
1.00036229704206
100
AcDbArc
 50
0.0207468178
 51
89.9792531822
  0
LINE
  5
111
330
1F
100
AcDbEntity
  8
0
  6
Continuous
 62
     7
370
    25
100
AcDbLine
 10
358.7040100098
 20
138.0059967041
 30
0.0
 11
358.7040100098
 21
150.0059967041
 31
0.0
  0
ARC
  5
112
330
1F
100
AcDbEntity
  8
0
  6
Continuous
 62
     7
370
    25
100
AcDbCircle
 10
357.7036477783
 20
138.0063589356
 30
0.0
 40
1.000362297042031
100
AcDbArc
 50
270.0207468178
 51
359.9792531822
  0
LINE
  5
113
330
1F
100
AcDbEntity
  8
0
  6
Continuous
 62
     7
370
    25
100
AcDbLine
 10
345.7040100098
 20
137.0059967041
 30
0.0
 11
357.7040100098
 21
137.0059967041
 31
0.0
  0
ARC
  5
114
330
1F
100
AcDbEntity
  8
0
  6
Continuous
 62
     7
370
    25
100
AcDbCircle
 10
345.7043722412
 20
138.0063589356
 30
0.0
 40
1.00036229704206
100
AcDbArc
 50
180.0207468178
 51
269.9792531822
  0
LINE
  5
115
330
1F
100
AcDbEntity
  8
0
  6
Continuous
 62
     7
370
    25
100
AcDbLine
 10
344.7040100098
 20
150.0059967041
 30
0.0
 11
344.7040100098
 21
138.0059967041
 31
0.0
  0
ARC
  5
116
330
1F
100
AcDbEntity
  8
0
  6
Continuous
 62
     7
370
    25
100
AcDbCircle
 10
131.3913687012
 20
150.0056344726
 30
0.0
 40
1.00036229704206
100
AcDbArc
 50
90.0207468178
 51
179.9792531822
  0
LINE
  5
117
330
1F
100
AcDbEntity
  8
0
  6
Continuous
 62
     7
370
    25
100
AcDbLine
 10
143.3910064697
 20
151.0059967041
 30
0.0
 11
131.3910064697
 21
151.0059967041
 31
0.0
  0
ARC
  5
118
330
1F
100
AcDbEntity
  8
0
  6
Continuous
 62
     7
370
    25
100
AcDbCircle
 10
143.3923359994
 20
150.0073262338
 30
0.0
 40
0.9986713553524577
100
AcDbArc
 50
359.9237221937
 51
90.0762778063
  0
LINE
  5
119
330
1F
100
AcDbEntity
  8
0
  6
Continuous
 62
     7
370
    25
100
AcDbLine
 10
144.3910064697
 20
138.0059967041
 30
0.0
 11
144.3910064697
 21
150.0059967041
 31
0.0
  0
ARC
  5
11A
330
1F
100
AcDbEntity
  8
0
  6
Continuous
 62
     7
370
    25
100
AcDbCircle
 10
143.3923359994
 20
138.0046671745
 30
0.0
 40
0.9986713553524577
100
AcDbArc
 50
269.9237221937
 51
0.0762778063
  0
LINE
  5
11B
330
1F
100
AcDbEntity
  8
0
  6
Continuous
 62
     7
370
    25
100
AcDbLine
 10
131.3910064697
 20
137.0059967041
 30
0.0
 11
143.3910064697
 21
137.0059967041
 31
0.0
  0
ARC
  5
11C
330
1F
100
AcDbEntity
  8
0
  6
Continuous
 62
     7
370
    25
100
AcDbCircle
 10
131.3913687012
 20
138.0063589356
 30
0.0
 40
1.00036229704206
100
AcDbArc
 50
180.0207468178
 51
269.9792531822
  0
LINE
  5
11D
330
1F
100
AcDbEntity
  8
0
  6
Continuous
 62
     7
370
    25
100
AcDbLine
 10
130.3910064697
 20
150.0059967041
 30
0.0
 11
130.3910064697
 21
138.0059967041
 31
0.0
  0
ARC
  5
11E
330
1F
100
AcDbEntity
  8
0
  6
Continuous
 62
     7
370
    25
100
AcDbCircle
 10
112.3413656494
 20
150.0056344726
 30
0.0
 40
1.00036229704206
100
AcDbArc
 50
90.0207468178
 51
179.9792531822
  0
LINE
  5
11F
330
1F
100
AcDbEntity
  8
0
  6
Continuous
 62
     7
370
    25
100
AcDbLine
 10
124.341003418
 20
151.0059967041
 30
0.0
 11
112.341003418
 21
151.0059967041
 31
0.0
  0
ARC
  5
120
330
1F
100
AcDbEntity
  8
0
  6
Continuous
 62
     7
370
    25
100
AcDbCircle
 10
124.342345939
 20
150.0073392251
 30
0.0
 40
0.9986583813524712
100
AcDbArc
 50
359.9229758503
 51
90.0770241503
  0
LINE
  5
121
330
1F
100
AcDbEntity
  8
0
  6
Continuous
 62
     7
370
    25
100
AcDbLine
 10
125.341003418
 20
138.0059967041
 30
0.0
 11
125.341003418
 21
150.0059967041
 31
0.0
  0
ARC
  5
122
330
1F
100
AcDbEntity
  8
0
  6
Continuous
 62
     7
370
    25
100
AcDbCircle
 10
124.342345939
 20
138.0046541831
 30
0.0
 40
0.9986583813513628
100
AcDbArc
 50
269.9229758497
 51
0.0770241497
  0
LINE
  5
123
330
1F
100
AcDbEntity
  8
0
  6
Continuous
 62
     7
370
    25
100
AcDbLine
 10
112.341003418
 20
137.0059967041
 30
0.0
 11
124.341003418
 21
137.0059967041
 31
0.0
  0
ARC
  5
124
330
1F
100
AcDbEntity
  8
0
  6
Continuous
 62
     7
370
    25
100
AcDbCircle
 10
112.3413656494
 20
138.0063589356
 30
0.0
 40
1.00036229704206
100
AcDbArc
 50
180.0207468178
 51
269.9792531822
  0
LINE
  5
125
330
1F
100
AcDbEntity
  8
0
  6
Continuous
 62
     7
370
    25
100
AcDbLine
 10
111.341003418
 20
150.0059967041
 30
0.0
 11
111.341003418
 21
138.0059967041
 31
0.0
  0
ARC
  5
126
330
1F
100
AcDbEntity
  8
0
  6
Continuous
 62
     7
370
    25
100
AcDbCircle
 10
93.2913625977
 20
150.0056344726
 30
0.0
 40
1.00036229704206
100
AcDbArc
 50
90.0207468178
 51
179.9792531822
  0
LINE
  5
127
330
1F
100
AcDbEntity
  8
0
  6
Continuous
 62
     7
370
    25
100
AcDbLine
 10
105.2910003662
 20
151.0059967041
 30
0.0
 11
93.2910003662
 21
151.0059967041
 31
0.0
  0
ARC
  5
128
330
1F
100
AcDbEntity
  8
0
  6
Continuous
 62
     7
370
    25
100
AcDbCircle
 10
105.2923428873
 20
150.0073392251
 30
0.0
 40
0.9986583813524578
100
AcDbArc
 50
359.9229758503
 51
90.0770241497
  0
LINE
  5
129
330
1F
100
AcDbEntity
  8
0
  6
Continuous
 62
     7
370
    25
100
AcDbLine
 10
106.2910003662
 20
138.0059967041
 30
0.0
 11
106.2910003662
 21
150.0059967041
 31
0.0
  0
ARC
  5
12A
330
1F
100
AcDbEntity
  8
0
  6
Continuous
 62
     7
370
    25
100
AcDbCircle
 10
105.2923428873
 20
138.0046541831
 30
0.0
 40
0.9986583813524436
100
AcDbArc
 50
269.9229758503
 51
0.0770241497
  0
LINE
  5
12B
330
1F
100
AcDbEntity
  8
0
  6
Continuous
 62
     7
370
    25
100
AcDbLine
 10
93.2910003662
 20
137.0059967041
 30
0.0
 11
105.2910003662
 21
137.0059967041
 31
0.0
  0
ARC
  5
12C
330
1F
100
AcDbEntity
  8
0
  6
Continuous
 62
     7
370
    25
100
AcDbCircle
 10
93.2913625977
 20
138.0063589356
 30
0.0
 40
1.00036229704206
100
AcDbArc
 50
180.0207468178
 51
269.9792531822
  0
LINE
  5
12D
330
1F
100
AcDbEntity
  8
0
  6
Continuous
 62
     7
370
    25
100
AcDbLine
 10
92.2910003662
 20
150.0059967041
 30
0.0
 11
92.2910003662
 21
138.0059967041
 31
0.0
  0
LINE
  5
12E
330
1F
100
AcDbEntity
  8
0
  6
Continuous
 62
     7
370
    25
100
AcDbLine
 10
73.2409973145
 20
150.0059967041
 30
0.0
 11
73.2409973145
 21
138.0059967041
 31
0.0
  0
ARC
  5
12F
330
1F
100
AcDbEntity
  8
0
  6
Continuous
 62
     7
370
    25
100
AcDbCircle
 10
74.2413595459
 20
150.0056344726
 30
0.0
 40
1.00036229704206
100
AcDbArc
 50
90.0207468178
 51
179.9792531822
  0
LINE
  5
130
330
1F
100
AcDbEntity
  8
0
  6
Continuous
 62
     7
370
    25
100
AcDbLine
 10
86.2409973145
 20
151.0059967041
 30
0.0
 11
74.2409973145
 21
151.0059967041
 31
0.0
  0
ARC
  5
131
330
1F
100
AcDbEntity
  8
0
  6
Continuous
 62
     7
370
    25
100
AcDbCircle
 10
86.2423398355
 20
150.0073392251
 30
0.0
 40
0.9986583813524591
100
AcDbArc
 50
359.9229758503
 51
90.0770241498
  0
LINE
  5
132
330
1F
100
AcDbEntity
  8
0
  6
Continuous
 62
     7
370
    25
100
AcDbLine
 10
87.2409973145
 20
138.0059967041
 30
0.0
 11
87.2409973145
 21
150.0059967041
 31
0.0
  0
ARC
  5
133
330
1F
100
AcDbEntity
  8
0
  6
Continuous
 62
     7
370
    25
100
AcDbCircle
 10
86.2423398355
 20
138.0046541831
 30
0.0
 40
0.9986583813514488
100
AcDbArc
 50
269.9229758502
 51
0.0770241497
  0
LINE
  5
134
330
1F
100
AcDbEntity
  8
0
  6
Continuous
 62
     7
370
    25
100
AcDbLine
 10
74.2409973145
 20
137.0059967041
 30
0.0
 11
86.2409973145
 21
137.0059967041
 31
0.0
  0
ARC
  5
135
330
1F
100
AcDbEntity
  8
0
  6
Continuous
 62
     7
370
    25
100
AcDbCircle
 10
74.2413595459
 20
138.0063589356
 30
0.0
 40
1.000362297042031
100
AcDbArc
 50
180.0207468178
 51
269.9792531822
  0
ARC
  5
136
330
1F
100
AcDbEntity
  8
0
  6
Continuous
 62
     7
370
    25
100
AcDbCircle
 10
179.0163687012
 20
150.0056344726
 30
0.0
 40
1.00036229704206
100
AcDbArc
 50
90.0207468178
 51
179.9792531822
  0
LINE
  5
137
330
1F
100
AcDbEntity
  8
0
  6
Continuous
 62
     7
370
    25
100
AcDbLine
 10
191.0160064697
 20
151.0059967041
 30
0.0
 11
179.0160064697
 21
151.0059967041
 31
0.0
  0
ARC
  5
138
330
1F
100
AcDbEntity
  8
0
  6
Continuous
 62
     7
370
    25
100
AcDbCircle
 10
191.0173359994
 20
150.0073262338
 30
0.0
 40
0.9986713553524577
100
AcDbArc
 50
359.9237221937
 51
90.0762778063
  0
LINE
  5
139
330
1F
100
AcDbEntity
  8
0
  6
Continuous
 62
     7
370
    25
100
AcDbLine
 10
192.0160064697
 20
138.0059967041
 30
0.0
 11
192.0160064697
 21
150.0059967041
 31
0.0
  0
ARC
  5
13A
330
1F
100
AcDbEntity
  8
0
  6
Continuous
 62
     7
370
    25
100
AcDbCircle
 10
191.0173359994
 20
138.0046671745
 30
0.0
 40
0.9986713553524577
100
AcDbArc
 50
269.9237221937
 51
0.0762778063
  0
LINE
  5
13B
330
1F
100
AcDbEntity
  8
0
  6
Continuous
 62
     7
370
    25
100
AcDbLine
 10
179.0160064697
 20
137.0059967041
 30
0.0
 11
191.0160064697
 21
137.0059967041
 31
0.0
  0
ARC
  5
13C
330
1F
100
AcDbEntity
  8
0
  6
Continuous
 62
     7
370
    25
100
AcDbCircle
 10
179.0163687012
 20
138.0063589356
 30
0.0
 40
1.00036229704206
100
AcDbArc
 50
180.0207468178
 51
269.9792531822
  0
LINE
  5
13D
330
1F
100
AcDbEntity
  8
0
  6
Continuous
 62
     7
370
    25
100
AcDbLine
 10
178.0160064697
 20
150.0059967041
 30
0.0
 11
178.0160064697
 21
138.0059967041
 31
0.0
  0
ARC
  5
13E
330
1F
100
AcDbEntity
  8
0
  6
Continuous
 62
     7
370
    25
100
AcDbCircle
 10
159.9663656494
 20
150.0056344726
 30
0.0
 40
1.00036229704206
100
AcDbArc
 50
90.0207468178
 51
179.9792531822
  0
LINE
  5
13F
330
1F
100
AcDbEntity
  8
0
  6
Continuous
 62
     7
370
    25
100
AcDbLine
 10
171.966003418
 20
151.0059967041
 30
0.0
 11
159.966003418
 21
151.0059967041
 31
0.0
  0
ARC
  5
140
330
1F
100
AcDbEntity
  8
0
  6
Continuous
 62
     7
370
    25
100
AcDbCircle
 10
171.9673329476
 20
150.0073262338
 30
0.0
 40
0.9986713553524292
100
AcDbArc
 50
359.9237221937
 51
90.0762778063
  0
LINE
  5
141
330
1F
100
AcDbEntity
  8
0
  6
Continuous
 62
     7
370
    25
100
AcDbLine
 10
172.966003418
 20
138.0059967041
 30
0.0
 11
172.966003418
 21
150.0059967041
 31
0.0
  0
ARC
  5
142
330
1F
100
AcDbEntity
  8
0
  6
Continuous
 62
     7
370
    25
100
AcDbCircle
 10
171.9673329476
 20
138.0046671745
 30
0.0
 40
0.9986713553524577
100
AcDbArc
 50
269.9237221937
 51
0.0762778063
  0
LINE
  5
143
330
1F
100
AcDbEntity
  8
0
  6
Continuous
 62
     7
370
    25
100
AcDbLine
 10
159.966003418
 20
137.0059967041
 30
0.0
 11
171.966003418
 21
137.0059967041
 31
0.0
  0
ARC
  5
144
330
1F
100
AcDbEntity
  8
0
  6
Continuous
 62
     7
370
    25
100
AcDbCircle
 10
159.9663656494
 20
138.0063589356
 30
0.0
 40
1.00036229704206
100
AcDbArc
 50
180.0207468178
 51
269.9792531822
  0
LINE
  5
145
330
1F
100
AcDbEntity
  8
0
  6
Continuous
 62
     7
370
    25
100
AcDbLine
 10
158.966003418
 20
150.0059967041
 30
0.0
 11
158.966003418
 21
138.0059967041
 31
0.0
  0
ARC
  5
146
330
1F
100
AcDbEntity
  8
0
  6
Continuous
 62
     7
370
    25
100
AcDbCircle
 10
217.1163595459
 20
150.0056344726
 30
0.0
 40
1.00036229704206
100
AcDbArc
 50
90.0207468178
 51
179.9792531822
  0
LINE
  5
147
330
1F
100
AcDbEntity
  8
0
  6
Continuous
 62
     7
370
    25
100
AcDbLine
 10
229.1159973144
 20
151.0059967041
 30
0.0
 11
217.1159973144
 21
151.0059967041
 31
0.0
  0
ARC
  5
148
330
1F
100
AcDbEntity
  8
0
  6
Continuous
 62
     7
370
    25
100
AcDbCircle
 10
229.1173528265
 20
150.0073522162
 30
0.0
 40
0.9986454078631244
100
AcDbArc
 50
359.922229507
 51
90.0777704936
  0
LINE
  5
149
330
1F
100
AcDbEntity
  8
0
  6
Continuous
 62
     7
370
    25
100
AcDbLine
 10
230.1159973144
 20
138.0059967041
 30
0.0
 11
230.1159973145
 21
150.0059967041
 31
0.0
  0
ARC
  5
14A
330
1F
100
AcDbEntity
  8
0
  6
Continuous
 62
     7
370
    25
100
AcDbCircle
 10
229.1173528265
 20
138.004641192
 30
0.0
 40
0.9986454078552516
100
AcDbArc
 50
269.9222295064
 51
0.0777704936
  0
LINE
  5
14B
330
1F
100
AcDbEntity
  8
0
  6
Continuous
 62
     7
370
    25
100
AcDbLine
 10
217.1159973144
 20
137.0059967041
 30
0.0
 11
229.1159973144
 21
137.0059967041
 31
0.0
  0
ARC
  5
14C
330
1F
100
AcDbEntity
  8
0
  6
Continuous
 62
     7
370
    25
100
AcDbCircle
 10
217.1163595459
 20
138.0063589356
 30
0.0
 40
1.00036229704206
100
AcDbArc
 50
180.0207468178
 51
269.9792531822
  0
LINE
  5
14D
330
1F
100
AcDbEntity
  8
0
  6
Continuous
 62
     7
370
    25
100
AcDbLine
 10
216.1159973144
 20
150.0059967041
 30
0.0
 11
216.1159973145
 21
138.0059967041
 31
0.0
  0
ARC
  5
14E
330
1F
100
AcDbEntity
  8
0
  6
Continuous
 62
     7
370
    25
100
AcDbCircle
 10
198.0663564941
 20
150.0056344726
 30
0.0
 40
1.00036229704206
100
AcDbArc
 50
90.0207468178
 51
179.9792531822
  0
LINE
  5
14F
330
1F
100
AcDbEntity
  8
0
  6
Continuous
 62
     7
370
    25
100
AcDbLine
 10
210.0659942627
 20
151.0059967041
 30
0.0
 11
198.0659942627
 21
151.0059967041
 31
0.0
  0
ARC
  5
150
330
1F
100
AcDbEntity
  8
0
  6
Continuous
 62
     7
370
    25
100
AcDbCircle
 10
210.0673497748
 20
150.0073522162
 30
0.0
 40
0.9986454078631243
100
AcDbArc
 50
359.922229507
 51
90.0777704936
  0
LINE
  5
151
330
1F
100
AcDbEntity
  8
0
  6
Continuous
 62
     7
370
    25
100
AcDbLine
 10
211.0659942627
 20
138.0059967041
 30
0.0
 11
211.0659942627
 21
150.0059967041
 31
0.0
  0
ARC
  5
152
330
1F
100
AcDbEntity
  8
0
  6
Continuous
 62
     7
370
    25
100
AcDbCircle
 10
210.0673497748
 20
138.004641192
 30
0.0
 40
0.9986454078552516
100
AcDbArc
 50
269.9222295064
 51
0.0777704936
  0
LINE
  5
153
330
1F
100
AcDbEntity
  8
0
  6
Continuous
 62
     7
370
    25
100
AcDbLine
 10
198.0659942627
 20
137.0059967041
 30
0.0
 11
210.0659942627
 21
137.0059967041
 31
0.0
  0
ARC
  5
154
330
1F
100
AcDbEntity
  8
0
  6
Continuous
 62
     7
370
    25
100
AcDbCircle
 10
198.0663564941
 20
138.0063589356
 30
0.0
 40
1.00036229704206
100
AcDbArc
 50
180.0207468178
 51
269.9792531822
  0
LINE
  5
155
330
1F
100
AcDbEntity
  8
0
  6
Continuous
 62
     7
370
    25
100
AcDbLine
 10
197.0659942627
 20
150.0059967041
 30
0.0
 11
197.0659942627
 21
138.0059967041
 31
0.0
  0
ARC
  5
156
330
1F
100
AcDbEntity
  8
0
  6
Continuous
 62
     7
370
    25
100
AcDbCircle
 10
283.8043478272
 20
150.0056344726
 30
0.0
 40
1.000362297042031
100
AcDbArc
 50
90.0207468178
 51
179.9792531822
  0
LINE
  5
157
330
1F
100
AcDbEntity
  8
0
  6
Continuous
 62
     7
370
    25
100
AcDbLine
 10
295.8039855957
 20
151.0059967041
 30
0.0
 11
283.8039855957
 21
151.0059967041
 31
0.0
  0
ARC
  5
158
330
1F
100
AcDbEntity
  8
0
  6
Continuous
 62
     7
370
    25
100
AcDbCircle
 10
295.8036233642
 20
150.0056344726
 30
0.0
 40
1.00036229704206
100
AcDbArc
 50
0.0207468178
 51
89.9792531822
  0
LINE
  5
159
330
1F
100
AcDbEntity
  8
0
  6
Continuous
 62
     7
370
    25
100
AcDbLine
 10
296.8039855957
 20
138.0059967041
 30
0.0
 11
296.8039855957
 21
150.0059967041
 31
0.0
  0
ARC
  5
15A
330
1F
100
AcDbEntity
  8
0
  6
Continuous
 62
     7
370
    25
100
AcDbCircle
 10
295.8036233642
 20
138.0063589356
 30
0.0
 40
1.000362297042031
100
AcDbArc
 50
270.0207468178
 51
359.9792531822
  0
LINE
  5
15B
330
1F
100
AcDbEntity
  8
0
  6
Continuous
 62
     7
370
    25
100
AcDbLine
 10
283.8039855957
 20
137.0059967041
 30
0.0
 11
295.8039855957
 21
137.0059967041
 31
0.0
  0
ARC
  5
15C
330
1F
100
AcDbEntity
  8
0
  6
Continuous
 62
     7
370
    25
100
AcDbCircle
 10
283.8043478272
 20
138.0063589356
 30
0.0
 40
1.00036229704206
100
AcDbArc
 50
180.0207468178
 51
269.9792531822
  0
LINE
  5
15D
330
1F
100
AcDbEntity
  8
0
  6
Continuous
 62
     7
370
    25
100
AcDbLine
 10
282.8039855957
 20
150.0059967041
 30
0.0
 11
282.8039855957
 21
138.0059967041
 31
0.0
  0
ARC
  5
15E
330
1F
100
AcDbEntity
  8
0
  6
Continuous
 62
     7
370
    25
100
AcDbCircle
 10
302.8453634522
 20
150.0056344726
 30
0.0
 40
1.000362297042031
100
AcDbArc
 50
90.0207468178
 51
179.9792531822
  0
LINE
  5
15F
330
1F
100
AcDbEntity
  8
0
  6
Continuous
 62
     7
370
    25
100
AcDbLine
 10
314.8450012207
 20
151.0059967041
 30
0.0
 11
302.8450012207
 21
151.0059967041
 31
0.0
  0
ARC
  5
160
330
1F
100
AcDbEntity
  8
0
  6
Continuous
 62
     7
370
    25
100
AcDbCircle
 10
314.8446389892
 20
150.0056344726
 30
0.0
 40
1.000362297042088
100
AcDbArc
 50
0.0207468178
 51
89.9792531822
  0
LINE
  5
161
330
1F
100
AcDbEntity
  8
0
  6
Continuous
 62
     7
370
    25
100
AcDbLine
 10
315.8450012207
 20
138.0059967041
 30
0.0
 11
315.8450012207
 21
150.0059967041
 31
0.0
  0
ARC
  5
162
330
1F
100
AcDbEntity
  8
0
  6
Continuous
 62
     7
370
    25
100
AcDbCircle
 10
314.8446389892
 20
138.0063589356
 30
0.0
 40
1.000362297042088
100
AcDbArc
 50
270.0207468178
 51
359.9792531822
  0
LINE
  5
163
330
1F
100
AcDbEntity
  8
0
  6
Continuous
 62
     7
370
    25
100
AcDbLine
 10
302.8450012207
 20
137.0059967041
 30
0.0
 11
314.8450012207
 21
137.0059967041
 31
0.0
  0
ARC
  5
164
330
1F
100
AcDbEntity
  8
0
  6
Continuous
 62
     7
370
    25
100
AcDbCircle
 10
302.8453634522
 20
138.0063589356
 30
0.0
 40
1.00036229704206
100
AcDbArc
 50
180.0207468178
 51
269.9792531822
  0
LINE
  5
165
330
1F
100
AcDbEntity
  8
0
  6
Continuous
 62
     7
370
    25
100
AcDbLine
 10
301.8450012207
 20
150.0059967041
 30
0.0
 11
301.8450012207
 21
138.0059967041
 31
0.0
  0
ARC
  5
166
330
1F
100
AcDbEntity
  8
0
  6
Continuous
 62
     7
370
    25
100
AcDbCircle
 10
264.7413595459
 20
150.0056344726
 30
0.0
 40
1.000362297042031
100
AcDbArc
 50
90.0207468178
 51
179.9792531822
  0
LINE
  5
167
330
1F
100
AcDbEntity
  8
0
  6
Continuous
 62
     7
370
    25
100
AcDbLine
 10
276.7409973144
 20
151.0059967041
 30
0.0
 11
264.7409973144
 21
151.0059967041
 31
0.0
  0
ARC
  5
168
330
1F
100
AcDbEntity
  8
0
  6
Continuous
 62
     7
370
    25
100
AcDbCircle
 10
276.7423528266
 20
150.0073522162
 30
0.0
 40
0.9986454078631244
100
AcDbArc
 50
359.922229507
 51
90.0777704936
  0
LINE
  5
169
330
1F
100
AcDbEntity
  8
0
  6
Continuous
 62
     7
370
    25
100
AcDbLine
 10
277.7409973144
 20
138.0059967041
 30
0.0
 11
277.7409973145
 21
150.0059967041
 31
0.0
  0
ARC
  5
16A
330
1F
100
AcDbEntity
  8
0
  6
Continuous
 62
     7
370
    25
100
AcDbCircle
 10
276.7423528266
 20
138.004641192
 30
0.0
 40
0.9986454078552516
100
AcDbArc
 50
269.9222295064
 51
0.0777704936
  0
LINE
  5
16B
330
1F
100
AcDbEntity
  8
0
  6
Continuous
 62
     7
370
    25
100
AcDbLine
 10
264.7409973144
 20
137.0059967041
 30
0.0
 11
276.7409973144
 21
137.0059967041
 31
0.0
  0
ARC
  5
16C
330
1F
100
AcDbEntity
  8
0
  6
Continuous
 62
     7
370
    25
100
AcDbCircle
 10
264.7413595459
 20
138.0063589356
 30
0.0
 40
1.00036229704206
100
AcDbArc
 50
180.0207468178
 51
269.9792531822
  0
LINE
  5
16D
330
1F
100
AcDbEntity
  8
0
  6
Continuous
 62
     7
370
    25
100
AcDbLine
 10
263.7409973144
 20
150.0059967041
 30
0.0
 11
263.7409973144
 21
138.0059967041
 31
0.0
  0
ARC
  5
16E
330
1F
100
AcDbEntity
  8
0
  6
Continuous
 62
     7
370
    25
100
AcDbCircle
 10
245.6913564941
 20
150.0056344726
 30
0.0
 40
1.00036229704206
100
AcDbArc
 50
90.0207468178
 51
179.9792531822
  0
LINE
  5
16F
330
1F
100
AcDbEntity
  8
0
  6
Continuous
 62
     7
370
    25
100
AcDbLine
 10
257.6910095215
 20
151.0059967041
 30
0.0
 11
245.6909942627
 21
151.0059967041
 31
0.0
  0
ARC
  5
170
330
1F
100
AcDbEntity
  8
0
  6
Continuous
 62
     7
370
    25
100
AcDbCircle
 10
257.6923130673
 20
150.0073002499
 30
0.0
 40
0.9986973048748647
100
AcDbArc
 50
359.925214881
 51
90.074785119
  0
LINE
  5
171
330
1F
100
AcDbEntity
  8
0
  6
Continuous
 62
     7
370
    25
100
AcDbLine
 10
258.6910095215
 20
138.0059967041
 30
0.0
 11
258.6910095215
 21
150.0059967041
 31
0.0
  0
ARC
  5
172
330
1F
100
AcDbEntity
  8
0
  6
Continuous
 62
     7
370
    25
100
AcDbCircle
 10
257.6923130673
 20
138.0046931583
 30
0.0
 40
0.9986973048748647
100
AcDbArc
 50
269.925214881
 51
0.074785119
  0
LINE
  5
173
330
1F
100
AcDbEntity
  8
0
  6
Continuous
 62
     7
370
    25
100
AcDbLine
 10
245.6909942627
 20
137.0059967041
 30
0.0
 11
257.6910095215
 21
137.0059967041
 31
0.0
  0
ARC
  5
174
330
1F
100
AcDbEntity
  8
0
  6
Continuous
 62
     7
370
    25
100
AcDbCircle
 10
245.6913564941
 20
138.0063589356
 30
0.0
 40
1.00036229704206
100
AcDbArc
 50
180.0207468178
 51
269.9792531822
  0
LINE
  5
175
330
1F
100
AcDbEntity
  8
0
  6
Continuous
 62
     7
370
    25
100
AcDbLine
 10
244.6909942627
 20
150.0059967041
 30
0.0
 11
244.6909942627
 21
138.0059967041
 31
0.0
  0
ARC
  5
176
330
1F
100
AcDbEntity
  8
0
  6
Continuous
 62
     7
370
    25
100
AcDbCircle
 10
345.7043722412
 20
69.0426370361
 30
0.0
 40
1.000362297042031
100
AcDbArc
 50
90.0207468178
 51
179.9792531822
  0
LINE
  5
177
330
1F
100
AcDbEntity
  8
0
  6
Continuous
 62
     7
370
    25
100
AcDbLine
 10
357.7040100098
 20
70.0429992676
 30
0.0
 11
345.7040100098
 21
70.0429992676
 31
0.0
  0
ARC
  5
178
330
1F
100
AcDbEntity
  8
0
  6
Continuous
 62
     7
370
    25
100
AcDbCircle
 10
357.7036477783
 20
69.0426370361
 30
0.0
 40
1.00036229704206
100
AcDbArc
 50
0.0207468178
 51
89.9792531822
  0
LINE
  5
179
330
1F
100
AcDbEntity
  8
0
  6
Continuous
 62
     7
370
    25
100
AcDbLine
 10
358.7040100098
 20
57.0429992676
 30
0.0
 11
358.7040100098
 21
69.0429992676
 31
0.0
  0
ARC
  5
17A
330
1F
100
AcDbEntity
  8
0
  6
Continuous
 62
     7
370
    25
100
AcDbCircle
 10
357.7036477783
 20
57.043361499
 30
0.0
 40
1.000362297042031
100
AcDbArc
 50
270.0207468178
 51
359.9792531822
  0
LINE
  5
17B
330
1F
100
AcDbEntity
  8
0
  6
Continuous
 62
     7
370
    25
100
AcDbLine
 10
345.7040100098
 20
56.0429992676
 30
0.0
 11
357.7040100098
 21
56.0429992676
 31
0.0
  0
ARC
  5
17C
330
1F
100
AcDbEntity
  8
0
  6
Continuous
 62
     7
370
    25
100
AcDbCircle
 10
345.7043722412
 20
57.043361499
 30
0.0
 40
1.00036229704206
100
AcDbArc
 50
180.0207468178
 51
269.9792531822
  0
LINE
  5
17D
330
1F
100
AcDbEntity
  8
0
  6
Continuous
 62
     7
370
    25
100
AcDbLine
 10
344.7040100098
 20
69.0429992676
 30
0.0
 11
344.7040100098
 21
57.0429992676
 31
0.0
  0
ARC
  5
17E
330
1F
100
AcDbEntity
  8
0
  6
Continuous
 62
     7
370
    25
100
AcDbCircle
 10
345.7043722412
 20
107.1426355102
 30
0.0
 40
1.000362297042028
100
AcDbArc
 50
90.0207468178
 51
179.9792531828
  0
LINE
  5
17F
330
1F
100
AcDbEntity
  8
0
  6
Continuous
 62
     7
370
    25
100
AcDbLine
 10
357.7040100098
 20
108.1429977417
 30
0.0
 11
345.7040100098
 21
108.1429977417
 31
0.0
  0
ARC
  5
180
330
1F
100
AcDbEntity
  8
0
  6
Continuous
 62
     7
370
    25
100
AcDbCircle
 10
357.7036477783
 20
107.1426355102
 30
0.0
 40
1.000362297042028
100
AcDbArc
 50
0.0207468172
 51
89.9792531822
  0
LINE
  5
181
330
1F
100
AcDbEntity
  8
0
  6
Continuous
 62
     7
370
    25
100
AcDbLine
 10
358.7040100098
 20
95.1429977417
 30
0.0
 11
358.7040100098
 21
107.1429977417
 31
0.0
  0
ARC
  5
182
330
1F
100
AcDbEntity
  8
0
  6
Continuous
 62
     7
370
    25
100
AcDbCircle
 10
357.7036477783
 20
95.1433599732
 30
0.0
 40
1.000362297042031
100
AcDbArc
 50
270.0207468178
 51
359.9792531822
  0
LINE
  5
183
330
1F
100
AcDbEntity
  8
0
  6
Continuous
 62
     7
370
    25
100
AcDbLine
 10
345.7040100098
 20
94.1429977417
 30
0.0
 11
357.7040100098
 21
94.1429977417
 31
0.0
  0
ARC
  5
184
330
1F
100
AcDbEntity
  8
0
  6
Continuous
 62
     7
370
    25
100
AcDbCircle
 10
345.7043722412
 20
95.1433599732
 30
0.0
 40
1.000362297042031
100
AcDbArc
 50
180.0207468178
 51
269.9792531822
  0
LINE
  5
185
330
1F
100
AcDbEntity
  8
0
  6
Continuous
 62
     7
370
    25
100
AcDbLine
 10
344.7040100098
 20
107.1429977417
 30
0.0
 11
344.7040100098
 21
95.1429977417
 31
0.0
  0
ARC
  5
186
330
1F
100
AcDbEntity
  8
0
  6
Continuous
 62
     7
370
    25
100
AcDbCircle
 10
345.7043722412
 20
126.192638562
 30
0.0
 40
1.000362297042031
100
AcDbArc
 50
90.0207468178
 51
179.9792531822
  0
LINE
  5
187
330
1F
100
AcDbEntity
  8
0
  6
Continuous
 62
     7
370
    25
100
AcDbLine
 10
357.7040100098
 20
127.1930007934
 30
0.0
 11
345.7040100098
 21
127.1930007934
 31
0.0
  0
ARC
  5
188
330
1F
100
AcDbEntity
  8
0
  6
Continuous
 62
     7
370
    25
100
AcDbCircle
 10
357.7036477783
 20
126.192638562
 30
0.0
 40
1.000362297042045
100
AcDbArc
 50
0.0207468178
 51
89.9792531822
  0
LINE
  5
189
330
1F
100
AcDbEntity
  8
0
  6
Continuous
 62
     7
370
    25
100
AcDbLine
 10
358.7040100098
 20
114.1930007934
 30
0.0
 11
358.7040100098
 21
126.1930007934
 31
0.0
  0
ARC
  5
18A
330
1F
100
AcDbEntity
  8
0
  6
Continuous
 62
     7
370
    25
100
AcDbCircle
 10
357.7036477783
 20
114.1933630249
 30
0.0
 40
1.000362297042031
100
AcDbArc
 50
270.0207468178
 51
359.9792531822
  0
LINE
  5
18B
330
1F
100
AcDbEntity
  8
0
  6
Continuous
 62
     7
370
    25
100
AcDbLine
 10
345.7040100098
 20
113.1930007934
 30
0.0
 11
357.7040100098
 21
113.1930007935
 31
0.0
  0
ARC
  5
18C
330
1F
100
AcDbEntity
  8
0
  6
Continuous
 62
     7
370
    25
100
AcDbCircle
 10
345.7043722412
 20
114.1933630249
 30
0.0
 40
1.00036229704206
100
AcDbArc
 50
180.0207468178
 51
269.9792531822
  0
LINE
  5
18D
330
1F
100
AcDbEntity
  8
0
  6
Continuous
 62
     7
370
    25
100
AcDbLine
 10
344.7040100098
 20
126.1930007934
 30
0.0
 11
344.7040100098
 21
114.1930007934
 31
0.0
  0
LINE
  5
18E
330
1F
100
AcDbEntity
  8
0
  6
Continuous
 62
     7
370
    25
100
AcDbLine
 10
49.1409988403
 20
126.2730026245
 30
0.0
 11
49.1030006409
 21
126.466003418
 31
0.0
  0
LINE
  5
18F
330
1F
100
AcDbEntity
  8
0
  6
Continuous
 62
     7
370
    25
100
AcDbLine
 10
49.1409988403
 20
114.0759963989
 30
0.0
 11
49.1409988403
 21
126.2730026245
 31
0.0
  0
LINE
  5
190
330
1F
100
AcDbEntity
  8
0
  6
Continuous
 62
     7
370
    25
100
AcDbLine
 10
49.1030006409
 20
113.8820037842
 30
0.0
 11
49.1409988403
 21
114.0759963989
 31
0.0
  0
LINE
  5
191
330
1F
100
AcDbEntity
  8
0
  6
Continuous
 62
     7
370
    25
100
AcDbLine
 10
49.0279998779
 20
113.6999969482
 30
0.0
 11
49.1030006409
 21
113.8820037842
 31
0.0
  0
LINE
  5
192
330
1F
100
AcDbEntity
  8
0
  6
Continuous
 62
     7
370
    25
100
AcDbLine
 10
48.9179992676
 20
113.5370025635
 30
0.0
 11
49.0279998779
 21
113.6999969482
 31
0.0
  0
LINE
  5
193
330
1F
100
AcDbEntity
  8
0
  6
Continuous
 62
     7
370
    25
100
AcDbLine
 10
48.7789993286
 20
113.3970031738
 30
0.0
 11
48.9179992676
 21
113.5370025635
 31
0.0
  0
LINE
  5
194
330
1F
100
AcDbEntity
  8
0
  6
Continuous
 62
     7
370
    25
100
AcDbLine
 10
48.6150016785
 20
113.2880020142
 30
0.0
 11
48.7789993286
 21
113.3970031738
 31
0.0
  0
LINE
  5
195
330
1F
100
AcDbEntity
  8
0
  6
Continuous
 62
     7
370
    25
100
AcDbLine
 10
48.4329986572
 20
113.2119979858
 30
0.0
 11
48.6150016785
 21
113.2880020142
 31
0.0
  0
LINE
  5
196
330
1F
100
AcDbEntity
  8
0
  6
Continuous
 62
     7
370
    25
100
AcDbLine
 10
48.2400016785
 20
113.1740036011
 30
0.0
 11
48.4329986572
 21
113.2119979858
 31
0.0
  0
LINE
  5
197
330
1F
100
AcDbEntity
  8
0
  6
Continuous
 62
     7
370
    25
100
AcDbLine
 10
36.0429992676
 20
113.1740036011
 30
0.0
 11
48.2400016785
 21
113.1740036011
 31
0.0
  0
LINE
  5
198
330
1F
100
AcDbEntity
  8
0
  6
Continuous
 62
     7
370
    25
100
AcDbLine
 10
35.8499984741
 20
113.2119979858
 30
0.0
 11
36.0429992676
 21
113.1740036011
 31
0.0
  0
LINE
  5
199
330
1F
100
AcDbEntity
  8
0
  6
Continuous
 62
     7
370
    25
100
AcDbLine
 10
35.6679992676
 20
113.2880020142
 30
0.0
 11
35.8499984741
 21
113.2119979858
 31
0.0
  0
LINE
  5
19A
330
1F
100
AcDbEntity
  8
0
  6
Continuous
 62
     7
370
    25
100
AcDbLine
 10
35.5040016174
 20
113.3970031738
 30
0.0
 11
35.6679992676
 21
113.2880020142
 31
0.0
  0
LINE
  5
19B
330
1F
100
AcDbEntity
  8
0
  6
Continuous
 62
     7
370
    25
100
AcDbLine
 10
35.3650016785
 20
113.5370025635
 30
0.0
 11
35.5040016174
 21
113.3970031738
 31
0.0
  0
LINE
  5
19C
330
1F
100
AcDbEntity
  8
0
  6
Continuous
 62
     7
370
    25
100
AcDbLine
 10
35.2550010681
 20
113.6999969482
 30
0.0
 11
35.3650016785
 21
113.5370025635
 31
0.0
  0
LINE
  5
19D
330
1F
100
AcDbEntity
  8
0
  6
Continuous
 62
     7
370
    25
100
AcDbLine
 10
35.1800003052
 20
113.8820037842
 30
0.0
 11
35.2550010681
 21
113.6999969482
 31
0.0
  0
LINE
  5
19E
330
1F
100
AcDbEntity
  8
0
  6
Continuous
 62
     7
370
    25
100
AcDbLine
 10
35.1409988403
 20
114.0759963989
 30
0.0
 11
35.1800003052
 21
113.8820037842
 31
0.0
  0
LINE
  5
19F
330
1F
100
AcDbEntity
  8
0
  6
Continuous
 62
     7
370
    25
100
AcDbLine
 10
35.1409988403
 20
126.2730026245
 30
0.0
 11
35.1409988403
 21
114.0759963989
 31
0.0
  0
LINE
  5
1A0
330
1F
100
AcDbEntity
  8
0
  6
Continuous
 62
     7
370
    25
100
AcDbLine
 10
35.1800003052
 20
126.466003418
 30
0.0
 11
35.1409988403
 21
126.2730026245
 31
0.0
  0
LINE
  5
1A1
330
1F
100
AcDbEntity
  8
0
  6
Continuous
 62
     7
370
    25
100
AcDbLine
 10
35.2550010681
 20
126.6480026245
 30
0.0
 11
35.1800003052
 21
126.466003418
 31
0.0
  0
LINE
  5
1A2
330
1F
100
AcDbEntity
  8
0
  6
Continuous
 62
     7
370
    25
100
AcDbLine
 10
35.3650016785
 20
126.81199646
 30
0.0
 11
35.2550010681
 21
126.6480026245
 31
0.0
  0
LINE
  5
1A3
330
1F
100
AcDbEntity
  8
0
  6
Continuous
 62
     7
370
    25
100
AcDbLine
 10
35.5040016174
 20
126.9509963989
 30
0.0
 11
35.3650016785
 21
126.81199646
 31
0.0
  0
LINE
  5
1A4
330
1F
100
AcDbEntity
  8
0
  6
Continuous
 62
     7
370
    25
100
AcDbLine
 10
35.6679992676
 20
127.0599975586
 30
0.0
 11
35.5040016174
 21
126.9509963989
 31
0.0
  0
LINE
  5
1A5
330
1F
100
AcDbEntity
  8
0
  6
Continuous
 62
     7
370
    25
100
AcDbLine
 10
35.8499984741
 20
127.1360015869
 30
0.0
 11
35.6679992676
 21
127.0599975586
 31
0.0
  0
LINE
  5
1A6
330
1F
100
AcDbEntity
  8
0
  6
Continuous
 62
     7
370
    25
100
AcDbLine
 10
36.0429992676
 20
127.1740036011
 30
0.0
 11
35.8499984741
 21
127.1360015869
 31
0.0
  0
LINE
  5
1A7
330
1F
100
AcDbEntity
  8
0
  6
Continuous
 62
     7
370
    25
100
AcDbLine
 10
48.2400016785
 20
127.1740036011
 30
0.0
 11
36.0429992676
 21
127.1740036011
 31
0.0
  0
LINE
  5
1A8
330
1F
100
AcDbEntity
  8
0
  6
Continuous
 62
     7
370
    25
100
AcDbLine
 10
48.4329986572
 20
127.1360015869
 30
0.0
 11
48.2400016785
 21
127.1740036011
 31
0.0
  0
LINE
  5
1A9
330
1F
100
AcDbEntity
  8
0
  6
Continuous
 62
     7
370
    25
100
AcDbLine
 10
48.6150016785
 20
127.0599975586
 30
0.0
 11
48.4329986572
 21
127.1360015869
 31
0.0
  0
LINE
  5
1AA
330
1F
100
AcDbEntity
  8
0
  6
Continuous
 62
     7
370
    25
100
AcDbLine
 10
48.7789993286
 20
126.9509963989
 30
0.0
 11
48.6150016785
 21
127.0599975586
 31
0.0
  0
LINE
  5
1AB
330
1F
100
AcDbEntity
  8
0
  6
Continuous
 62
     7
370
    25
100
AcDbLine
 10
48.9179992676
 20
126.81199646
 30
0.0
 11
48.7789993286
 21
126.9509963989
 31
0.0
  0
LINE
  5
1AC
330
1F
100
AcDbEntity
  8
0
  6
Continuous
 62
     7
370
    25
100
AcDbLine
 10
49.0279998779
 20
126.6480026245
 30
0.0
 11
48.9179992676
 21
126.81199646
 31
0.0
  0
LINE
  5
1AD
330
1F
100
AcDbEntity
  8
0
  6
Continuous
 62
     7
370
    25
100
AcDbLine
 10
49.1030006409
 20
126.466003418
 30
0.0
 11
49.0279998779
 21
126.6480026245
 31
0.0
  0
ARC
  5
1AE
330
1F
100
AcDbEntity
  8
0
  6
Continuous
 62
     7
370
    25
100
AcDbCircle
 10
39.6103628418
 20
68.0426370361
 30
0.0
 40
1.000362297042017
100
AcDbArc
 50
90.0207468178
 51
179.9792531822
  0
LINE
  5
1AF
330
1F
100
AcDbEntity
  8
0
  6
Continuous
 62
     7
370
    25
100
AcDbLine
 10
44.6100006104
 20
69.0429992676
 30
0.0
 11
39.6100006104
 21
69.0429992676
 31
0.0
  0
ARC
  5
1B0
330
1F
100
AcDbEntity
  8
0
  6
Continuous
 62
     7
370
    25
100
AcDbCircle
 10
44.6096383789
 20
68.0426370361
 30
0.0
 40
1.00036229704206
100
AcDbArc
 50
0.0207468178
 51
89.9792531822
  0
LINE
  5
1B1
330
1F
100
AcDbEntity
  8
0
  6
Continuous
 62
     7
370
    25
100
AcDbLine
 10
45.6100006104
 20
55.0429992676
 30
0.0
 11
45.6100006104
 21
68.0429992676
 31
0.0
  0
ARC
  5
1B2
330
1F
100
AcDbEntity
  8
0
  6
Continuous
 62
     7
370
    25
100
AcDbCircle
 10
44.6096383789
 20
55.043361499
 30
0.0
 40
1.00036229704206
100
AcDbArc
 50
270.0207468178
 51
359.9792531822
  0
LINE
  5
1B3
330
1F
100
AcDbEntity
  8
0
  6
Continuous
 62
     7
370
    25
100
AcDbLine
 10
39.6100006104
 20
54.0429992676
 30
0.0
 11
44.6100006104
 21
54.0429992676
 31
0.0
  0
ARC
  5
1B4
330
1F
100
AcDbEntity
  8
0
  6
Continuous
 62
     7
370
    25
100
AcDbCircle
 10
39.6103628418
 20
55.043361499
 30
0.0
 40
1.000362297042059
100
AcDbArc
 50
180.0207468178
 51
269.9792531823
  0
LINE
  5
1B5
330
1F
100
AcDbEntity
  8
0
  6
Continuous
 62
     7
370
    25
100
AcDbLine
 10
38.6100006104
 20
68.0429992676
 30
0.0
 11
38.6100006104
 21
55.0429992676
 31
0.0
  0
ARC
  5
1B6
330
1F
100
AcDbEntity
  8
0
  6
Continuous
 62
     7
370
    25
100
AcDbCircle
 10
40.9043615601
 20
107.1426355102
 30
0.0
 40
1.000362297042056
100
AcDbArc
 50
90.0207468178
 51
179.9792531828
  0
LINE
  5
1B7
330
1F
100
AcDbEntity
  8
0
  6
Continuous
 62
     7
370
    25
100
AcDbLine
 10
52.9039993286
 20
108.1429977417
 30
0.0
 11
40.9039993286
 21
108.1429977417
 31
0.0
  0
ARC
  5
1B8
330
1F
100
AcDbEntity
  8
0
  6
Continuous
 62
     7
370
    25
100
AcDbCircle
 10
52.9036370972
 20
107.1426355102
 30
0.0
 40
1.000362297041764
100
AcDbArc
 50
0.0207468172
 51
89.9792531822
  0
LINE
  5
1B9
330
1F
100
AcDbEntity
  8
0
  6
Continuous
 62
     7
370
    25
100
AcDbLine
 10
53.9039993286
 20
95.1429977417
 30
0.0
 11
53.9039993286
 21
107.1429977417
 31
0.0
  0
ARC
  5
1BA
330
1F
100
AcDbEntity
  8
0
  6
Continuous
 62
     7
370
    25
100
AcDbCircle
 10
52.9036370972
 20
95.1433599732
 30
0.0
 40
1.000362297042002
100
AcDbArc
 50
270.0207468178
 51
359.9792531822
  0
LINE
  5
1BB
330
1F
100
AcDbEntity
  8
0
  6
Continuous
 62
     7
370
    25
100
AcDbLine
 10
40.9039993286
 20
94.1429977417
 30
0.0
 11
52.9039993286
 21
94.1429977417
 31
0.0
  0
ARC
  5
1BC
330
1F
100
AcDbEntity
  8
0
  6
Continuous
 62
     7
370
    25
100
AcDbCircle
 10
40.9043615601
 20
95.1433599732
 30
0.0
 40
1.000362297042031
100
AcDbArc
 50
180.0207468178
 51
269.9792531822
  0
LINE
  5
1BD
330
1F
100
AcDbEntity
  8
0
  6
Continuous
 62
     7
370
    25
100
AcDbLine
 10
39.9039993286
 20
107.1429977417
 30
0.0
 11
39.9039993286
 21
95.1429977417
 31
0.0
  0
LINE
  5
1BE
330
1F
100
AcDbEntity
  8
0
  6
Continuous
 62
     7
370
    25
100
AcDbLine
 10
37.5229988098
 20
88.0930023193
 30
0.0
 11
37.5229988098
 21
76.0930023193
 31
0.0
  0
ARC
  5
1BF
330
1F
100
AcDbEntity
  8
0
  6
Continuous
 62
     7
370
    25
100
AcDbCircle
 10
38.5233675591
 20
88.09263357
 30
0.0
 40
1.00036881725795
100
AcDbArc
 50
90.0211199894
 51
179.9788800106
  0
LINE
  5
1C0
330
1F
100
AcDbEntity
  8
0
  6
Continuous
 62
     7
370
    25
100
AcDbLine
 10
55.2849998474
 20
89.0930023193
 30
0.0
 11
38.5229988098
 21
89.0930023193
 31
0.0
  0
ARC
  5
1C1
330
1F
100
AcDbEntity
  8
0
  6
Continuous
 62
     7
370
    25
100
AcDbCircle
 10
55.284637616
 20
88.0926400879
 30
0.0
 40
1.000362297042045
100
AcDbArc
 50
0.0207468178
 51
89.9792531822
  0
LINE
  5
1C2
330
1F
100
AcDbEntity
  8
0
  6
Continuous
 62
     7
370
    25
100
AcDbLine
 10
56.2849998474
 20
76.0930023193
 30
0.0
 11
56.2849998474
 21
88.0930023193
 31
0.0
  0
ARC
  5
1C3
330
1F
100
AcDbEntity
  8
0
  6
Continuous
 62
     7
370
    25
100
AcDbCircle
 10
55.284637616
 20
76.0933645508
 30
0.0
 40
1.00036229704206
100
AcDbArc
 50
270.0207468178
 51
359.9792531822
  0
LINE
  5
1C4
330
1F
100
AcDbEntity
  8
0
  6
Continuous
 62
     7
370
    25
100
AcDbLine
 10
38.5229988098
 20
75.0930023193
 30
0.0
 11
55.2849998474
 21
75.0930023193
 31
0.0
  0
ARC
  5
1C5
330
1F
100
AcDbEntity
  8
0
  6
Continuous
 62
     7
370
    25
100
AcDbCircle
 10
38.5233675591
 20
76.0933710686
 30
0.0
 40
1.000368817257239
100
AcDbArc
 50
180.0211199893
 51
269.9788800106
  0
ARC
  5
1C6
330
1F
100
AcDbEntity
  8
0
  6
Continuous
 62
     7
370
    25
100
AcDbCircle
 10
63.4863622925
 20
68.0426370361
 30
0.0
 40
1.00036229704206
100
AcDbArc
 50
90.0207468178
 51
179.9792531822
  0
LINE
  5
1C7
330
1F
100
AcDbEntity
  8
0
  6
Continuous
 62
     7
370
    25
100
AcDbLine
 10
68.486000061
 20
69.0429992676
 30
0.0
 11
63.486000061
 21
69.0429992676
 31
0.0
  0
ARC
  5
1C8
330
1F
100
AcDbEntity
  8
0
  6
Continuous
 62
     7
370
    25
100
AcDbCircle
 10
68.4856378296
 20
68.0426370361
 30
0.0
 40
1.00036229704206
100
AcDbArc
 50
0.0207468178
 51
89.9792531822
  0
LINE
  5
1C9
330
1F
100
AcDbEntity
  8
0
  6
Continuous
 62
     7
370
    25
100
AcDbLine
 10
69.486000061
 20
55.0429992676
 30
0.0
 11
69.486000061
 21
68.0429992676
 31
0.0
  0
ARC
  5
1CA
330
1F
100
AcDbEntity
  8
0
  6
Continuous
 62
     7
370
    25
100
AcDbCircle
 10
68.4856378296
 20
55.043361499
 30
0.0
 40
1.00036229704206
100
AcDbArc
 50
270.0207468178
 51
359.9792531822
  0
LINE
  5
1CB
330
1F
100
AcDbEntity
  8
0
  6
Continuous
 62
     7
370
    25
100
AcDbLine
 10
63.486000061
 20
54.0429992676
 30
0.0
 11
68.486000061
 21
54.0429992676
 31
0.0
  0
ARC
  5
1CC
330
1F
100
AcDbEntity
  8
0
  6
Continuous
 62
     7
370
    25
100
AcDbCircle
 10
63.4863622925
 20
55.043361499
 30
0.0
 40
1.00036229704206
100
AcDbArc
 50
180.0207468178
 51
269.9792531822
  0
LINE
  5
1CD
330
1F
100
AcDbEntity
  8
0
  6
Continuous
 62
     7
370
    25
100
AcDbLine
 10
62.486000061
 20
68.0429992676
 30
0.0
 11
62.486000061
 21
55.0429992676
 31
0.0
  0
ARC
  5
1CE
330
1F
100
AcDbEntity
  8
0
  6
Continuous
 62
     7
370
    25
100
AcDbCircle
 10
66.4793393472
 20
92.1443402627
 30
0.0
 40
0.9986583813514359
100
AcDbArc
 50
359.9229758502
 51
90.0770241498
  0
LINE
  5
1CF
330
1F
100
AcDbEntity
  8
0
  6
Continuous
 62
     7
370
    25
100
AcDbLine
 10
63.7159996033
 20
93.1429977417
 30
0.0
 11
66.4779968262
 21
93.1429977417
 31
0.0
  0
ARC
  5
1D0
330
1F
100
AcDbEntity
  8
0
  6
Continuous
 62
     7
370
    25
100
AcDbCircle
 10
63.7163618347
 20
94.1433599732
 30
0.0
 40
1.000362297042031
100
AcDbArc
 50
180.0207468178
 51
269.9792531822
  0
LINE
  5
1D1
330
1F
100
AcDbEntity
  8
0
  6
Continuous
 62
     7
370
    25
100
AcDbLine
 10
62.7159996033
 20
111.1740036011
 30
0.0
 11
62.7159996033
 21
94.1429977417
 31
0.0
  0
ARC
  5
1D2
330
1F
100
AcDbEntity
  8
0
  6
Continuous
 62
     7
370
    25
100
AcDbCircle
 10
61.7173291513
 20
111.1753331491
 30
0.0
 40
0.9986713370035779
100
AcDbArc
 50
359.9237211384
 51
90.0762788618
  0
LINE
  5
1D3
330
1F
100
AcDbEntity
  8
0
  6
Continuous
 62
     7
370
    25
100
AcDbLine
 10
54.1910018921
 20
112.1740036011
 30
0.0
 11
61.7159996033
 21
112.1740036011
 31
0.0
  0
ARC
  5
1D4
330
1F
100
AcDbEntity
  8
0
  6
Continuous
 62
     7
370
    25
100
AcDbCircle
 10
54.1913641236
 20
113.1743658325
 30
0.0
 40
1.00036229704206
100
AcDbArc
 50
180.0207468178
 51
269.9792531822
  0
LINE
  5
1D5
330
1F
100
AcDbEntity
  8
0
  6
Continuous
 62
     7
370
    25
100
AcDbLine
 10
53.1910018921
 20
127.1740036011
 30
0.0
 11
53.1910018921
 21
113.1740036011
 31
0.0
  0
ARC
  5
1D6
330
1F
100
AcDbEntity
  8
0
  6
Continuous
 62
     7
370
    25
100
AcDbCircle
 10
54.1913641255
 20
127.1736337354
 30
0.0
 40
1.000362301812193
100
AcDbArc
 50
90.0207469309
 51
179.9788159355
  0
LINE
  5
1D7
330
1F
100
AcDbEntity
  8
0
  6
Continuous
 62
     7
370
    25
100
AcDbLine
 10
277.4710083008
 20
128.1739959717
 30
0.0
 11
54.1910018921
 21
128.1739959717
 31
0.0
  0
ARC
  5
1D8
330
1F
100
AcDbEntity
  8
0
  6
Continuous
 62
     7
370
    25
100
AcDbCircle
 10
277.470904233
 20
126.9039028909
 30
0.0
 40
1.270093085073504
100
AcDbArc
 50
0.0043504492
 51
89.9953053502
  0
LINE
  5
1D9
330
1F
100
AcDbEntity
  8
0
  6
Continuous
 62
     7
370
    25
100
AcDbLine
 10
278.7409973144
 20
110.1429977417
 30
0.0
 11
278.7409973144
 21
126.9039993286
 31
0.0
  0
ARC
  5
1DA
330
1F
100
AcDbEntity
  8
0
  6
Continuous
 62
     7
370
    25
100
AcDbCircle
 10
279.7413595459
 20
110.1433599731
 30
0.0
 40
1.000362297042031
100
AcDbArc
 50
180.0207468178
 51
269.9792531822
  0
LINE
  5
1DB
330
1F
100
AcDbEntity
  8
0
  6
Continuous
 62
     7
370
    25
100
AcDbLine
 10
287.2659912109
 20
109.1429977417
 30
0.0
 11
279.7409973144
 21
109.1429977417
 31
0.0
  0
ARC
  5
1DC
330
1F
100
AcDbEntity
  8
0
  6
Continuous
 62
     7
370
    25
100
AcDbCircle
 10
287.267346723
 20
108.1443532538
 30
0.0
 40
0.9986454078552516
100
AcDbArc
 50
359.9222295064
 51
90.0777704936
  0
LINE
  5
1DD
330
1F
100
AcDbEntity
  8
0
  6
Continuous
 62
     7
370
    25
100
AcDbLine
 10
288.2659912109
 20
94.1429977417
 30
0.0
 11
288.2659912109
 21
108.1429977417
 31
0.0
  0
ARC
  5
1DE
330
1F
100
AcDbEntity
  8
0
  6
Continuous
 62
     7
370
    25
100
AcDbCircle
 10
287.267346723
 20
94.1416422296
 30
0.0
 40
0.998645407856019
100
AcDbArc
 50
269.9222295064
 51
0.0777704934
  0
LINE
  5
1DF
330
1F
100
AcDbEntity
  8
0
  6
Continuous
 62
     7
370
    25
100
AcDbLine
 10
274.9779968262
 20
93.1429977417
 30
0.0
 11
287.2659912109
 21
93.1429977417
 31
0.0
  0
ARC
  5
1E0
330
1F
100
AcDbEntity
  8
0
  6
Continuous
 62
     7
370
    25
100
AcDbCircle
 10
274.9783590576
 20
92.1426355102
 30
0.0
 40
1.000362297042031
100
AcDbArc
 50
90.0207468178
 51
179.9792531822
  0
LINE
  5
1E1
330
1F
100
AcDbEntity
  8
0
  6
Continuous
 62
     7
370
    25
100
AcDbLine
 10
273.9779968262
 20
75.0930023193
 30
0.0
 11
273.9779968262
 21
92.1429977417
 31
0.0
  0
ARC
  5
1E2
330
1F
100
AcDbEntity
  8
0
  6
Continuous
 62
     7
370
    25
100
AcDbCircle
 10
272.9793523383
 20
75.0916468072
 30
0.0
 40
0.9986454078630919
100
AcDbArc
 50
269.922229507
 51
0.0777704934
  0
LINE
  5
1E3
330
1F
100
AcDbEntity
  8
0
  6
Continuous
 62
     7
370
    25
100
AcDbLine
 10
265.4530029297
 20
74.0930023193
 30
0.0
 11
272.9779968262
 21
74.0930023193
 31
0.0
  0
ARC
  5
1E4
330
1F
100
AcDbEntity
  8
0
  6
Continuous
 62
     7
370
    25
100
AcDbCircle
 10
265.4533651611
 20
73.0926400879
 30
0.0
 40
1.000362297042045
100
AcDbArc
 50
90.0207468178
 51
179.9792531822
  0
LINE
  5
1E5
330
1F
100
AcDbEntity
  8
0
  6
Continuous
 62
     7
370
    25
100
AcDbLine
 10
264.4530029297
 20
56.0429992676
 30
0.0
 11
264.4530029297
 21
73.0930023193
 31
0.0
  0
ARC
  5
1E6
330
1F
100
AcDbEntity
  8
0
  6
Continuous
 62
     7
370
    25
100
AcDbCircle
 10
263.4543584418
 20
56.0416437555
 30
0.0
 40
0.9986454078560261
100
AcDbArc
 50
269.9222295064
 51
0.0777704934
  0
LINE
  5
1E7
330
1F
100
AcDbEntity
  8
0
  6
Continuous
 62
     7
370
    25
100
AcDbLine
 10
78.0029983521
 20
55.0429992676
 30
0.0
 11
263.4530029297
 21
55.0429992676
 31
0.0
  0
ARC
  5
1E8
330
1F
100
AcDbEntity
  8
0
  6
Continuous
 62
     7
370
    25
100
AcDbCircle
 10
78.0033605835
 20
56.043361499
 30
0.0
 40
1.000362297042059
100
AcDbArc
 50
180.0207468178
 51
269.9792531822
  0
LINE
  5
1E9
330
1F
100
AcDbEntity
  8
0
  6
Continuous
 62
     7
370
    25
100
AcDbLine
 10
77.0029983521
 20
73.0930023193
 30
0.0
 11
77.0029983521
 21
56.0429992676
 31
0.0
  0
ARC
  5
1EA
330
1F
100
AcDbEntity
  8
0
  6
Continuous
 62
     7
370
    25
100
AcDbCircle
 10
76.0043408731
 20
73.0943448404
 30
0.0
 40
0.9986583813514501
100
AcDbArc
 50
359.9229758502
 51
90.0770241498
  0
LINE
  5
1EB
330
1F
100
AcDbEntity
  8
0
  6
Continuous
 62
     7
370
    25
100
AcDbLine
 10
68.4789962769
 20
74.0930023193
 30
0.0
 11
76.0029983521
 21
74.0930023193
 31
0.0
  0
ARC
  5
1EC
330
1F
100
AcDbEntity
  8
0
  6
Continuous
 62
     7
370
    25
100
AcDbCircle
 10
68.4800788935
 20
75.0950843867
 30
0.0
 40
1.002082652174825
100
AcDbArc
 50
180.0619004615
 51
269.9380995385
  0
LINE
  5
1ED
330
1F
100
AcDbEntity
  8
0
  6
Continuous
 62
     7
370
    25
100
AcDbLine
 10
67.4779968262
 20
92.1429977417
 30
0.0
 11
67.4779968262
 21
75.09400177
 31
0.0
  0
ARC
  5
1EE
330
1F
100
AcDbEntity
  8
0
  6
Continuous
 62
     7
370
    25
100
AcDbCircle
 10
48.0483625672
 20
69.0426370361
 30
0.0
 40
1.000362297042052
100
AcDbArc
 50
90.0207468178
 51
179.9792531822
  0
LINE
  5
1EF
330
1F
100
AcDbEntity
  8
0
  6
Continuous
 62
     7
370
    25
100
AcDbLine
 10
60.0480003357
 20
70.0429992676
 30
0.0
 11
48.0480003357
 21
70.0429992676
 31
0.0
  0
ARC
  5
1F0
330
1F
100
AcDbEntity
  8
0
  6
Continuous
 62
     7
370
    25
100
AcDbCircle
 10
60.0476381042
 20
69.0426370361
 30
0.0
 40
1.000362297042059
100
AcDbArc
 50
0.0207468178
 51
89.9792531822
  0
LINE
  5
1F1
330
1F
100
AcDbEntity
  8
0
  6
Continuous
 62
     7
370
    25
100
AcDbLine
 10
61.0480003357
 20
57.0429992676
 30
0.0
 11
61.0480003357
 21
69.0429992676
 31
0.0
  0
ARC
  5
1F2
330
1F
100
AcDbEntity
  8
0
  6
Continuous
 62
     7
370
    25
100
AcDbCircle
 10
60.0476381042
 20
57.043361499
 30
0.0
 40
1.000362297042017
100
AcDbArc
 50
270.0207468178
 51
359.9792531822
  0
LINE
  5
1F3
330
1F
100
AcDbEntity
  8
0
  6
Continuous
 62
     7
370
    25
100
AcDbLine
 10
48.0480003357
 20
56.0429992676
 30
0.0
 11
60.0480003357
 21
56.0429992676
 31
0.0
  0
ARC
  5
1F4
330
1F
100
AcDbEntity
  8
0
  6
Continuous
 62
     7
370
    25
100
AcDbCircle
 10
48.0483625672
 20
57.043361499
 30
0.0
 40
1.00036229704206
100
AcDbArc
 50
180.0207468178
 51
269.9792531822
  0
LINE
  5
1F5
330
1F
100
AcDbEntity
  8
0
  6
Continuous
 62
     7
370
    25
100
AcDbLine
 10
47.0480003357
 20
69.0429992676
 30
0.0
 11
47.0480003357
 21
57.0429992676
 31
0.0
  0
ARC
  5
1F6
330
1F
100
AcDbEntity
  8
0
  6
Continuous
 62
     7
370
    25
100
AcDbCircle
 10
301.6096812595
 20
69.0443164018
 30
0.0
 40
0.9986896964710378
100
AcDbArc
 50
90.2119121874
 51
180.075565269
  0
LINE
  5
1F7
330
1F
100
AcDbEntity
  8
0
  6
Continuous
 62
     7
370
    25
100
AcDbLine
 10
314.841003418
 20
70.0429992676
 30
0.0
 11
301.6059875488
 21
70.0429992676
 31
0.0
  0
ARC
  5
1F8
330
1F
100
AcDbEntity
  8
0
  6
Continuous
 62
     7
370
    25
100
AcDbCircle
 10
314.8423589301
 20
69.0443547797
 30
0.0
 40
0.9986454078561042
100
AcDbArc
 50
359.9222295066
 51
90.0777704936
  0
LINE
  5
1F9
330
1F
100
AcDbEntity
  8
0
  6
Continuous
 62
     7
370
    25
100
AcDbLine
 10
315.841003418
 20
57.0429992676
 30
0.0
 11
315.841003418
 21
69.0429992676
 31
0.0
  0
ARC
  5
1FA
330
1F
100
AcDbEntity
  8
0
  6
Continuous
 62
     7
370
    25
100
AcDbCircle
 10
314.8423589301
 20
57.0416437555
 30
0.0
 40
0.9986454078560261
100
AcDbArc
 50
269.9222295064
 51
0.0777704934
  0
LINE
  5
1FB
330
1F
100
AcDbEntity
  8
0
  6
Continuous
 62
     7
370
    25
100
AcDbLine
 10
307.6109924316
 20
56.0429992676
 30
0.0
 11
314.841003418
 21
56.0429992676
 31
0.0
  0
LINE
  5
1FC
330
1F
100
AcDbEntity
  8
0
  6
Continuous
 62
     7
370
    25
100
AcDbLine
 10
307.6109924316
 20
55.0429992676
 30
0.0
 11
307.6109924316
 21
56.0429992676
 31
0.0
  0
ARC
  5
1FD
330
1F
100
AcDbEntity
  8
0
  6
Continuous
 62
     7
370
    25
100
AcDbCircle
 10
306.6106302002
 20
55.043361499
 30
0.0
 40
1.000362297042088
100
AcDbArc
 50
270.0207468178
 51
359.9792531822
  0
LINE
  5
1FE
330
1F
100
AcDbEntity
  8
0
  6
Continuous
 62
     7
370
    25
100
AcDbLine
 10
301.6109924316
 20
54.0429992676
 30
0.0
 11
306.6109924316
 21
54.0429992676
 31
0.0
  0
ARC
  5
1FF
330
1F
100
AcDbEntity
  8
0
  6
Continuous
 62
     7
370
    25
100
AcDbCircle
 10
301.6113546631
 20
55.043361499
 30
0.0
 40
1.00036229704206
100
AcDbArc
 50
180.0207468178
 51
269.9792531822
  0
LINE
  5
200
330
1F
100
AcDbEntity
  8
0
  6
Continuous
 62
     7
370
    25
100
AcDbLine
 10
300.6109924316
 20
69.0429992676
 30
0.0
 11
300.6109924316
 21
55.0429992676
 31
0.0
  0
ARC
  5
201
330
1F
100
AcDbEntity
  8
0
  6
Continuous
 62
     7
370
    25
100
AcDbCircle
 10
276.6483724854
 20
69.0426370361
 30
0.0
 40
1.000362297042145
100
AcDbArc
 50
90.0207468178
 51
179.9792531822
  0
LINE
  5
202
330
1F
100
AcDbEntity
  8
0
  6
Continuous
 62
     7
370
    25
100
AcDbLine
 10
298.1730041504
 20
70.0429992676
 30
0.0
 11
276.6480102539
 21
70.0429992676
 31
0.0
  0
ARC
  5
203
330
1F
100
AcDbEntity
  8
0
  6
Continuous
 62
     7
370
    25
100
AcDbCircle
 10
298.1726419189
 20
69.0426370361
 30
0.0
 40
1.000362297042059
100
AcDbArc
 50
0.0207468178
 51
89.9792531822
  0
LINE
  5
204
330
1F
100
AcDbEntity
  8
0
  6
Continuous
 62
     7
370
    25
100
AcDbLine
 10
299.1730041504
 20
57.0429992676
 30
0.0
 11
299.1730041504
 21
69.0429992676
 31
0.0
  0
ARC
  5
205
330
1F
100
AcDbEntity
  8
0
  6
Continuous
 62
     7
370
    25
100
AcDbCircle
 10
298.1726419189
 20
57.043361499
 30
0.0
 40
1.000362297042017
100
AcDbArc
 50
270.0207468178
 51
359.9792531822
  0
LINE
  5
206
330
1F
100
AcDbEntity
  8
0
  6
Continuous
 62
     7
370
    25
100
AcDbLine
 10
283.7349853516
 20
56.0429992676
 30
0.0
 11
298.1730041504
 21
56.0429992676
 31
0.0
  0
LINE
  5
207
330
1F
100
AcDbEntity
  8
0
  6
Continuous
 62
     7
370
    25
100
AcDbLine
 10
283.7349853516
 20
55.0429992676
 30
0.0
 11
283.7349853516
 21
56.0429992676
 31
0.0
  0
ARC
  5
208
330
1F
100
AcDbEntity
  8
0
  6
Continuous
 62
     7
370
    25
100
AcDbCircle
 10
282.7346231201
 20
55.043361499
 30
0.0
 40
1.000362297042031
100
AcDbArc
 50
270.0207468178
 51
359.9792531822
  0
LINE
  5
209
330
1F
100
AcDbEntity
  8
0
  6
Continuous
 62
     7
370
    25
100
AcDbLine
 10
277.7349853516
 20
54.0429992676
 30
0.0
 11
282.7349853516
 21
54.0429992676
 31
0.0
  0
ARC
  5
20A
330
1F
100
AcDbEntity
  8
0
  6
Continuous
 62
     7
370
    25
100
AcDbCircle
 10
277.7353997281
 20
55.0434136441
 30
0.0
 40
1.000414462336606
100
AcDbArc
 50
180.0237321901
 51
269.9762678097
  0
LINE
  5
20B
330
1F
100
AcDbEntity
  8
0
  6
Continuous
 62
     7
370
    25
100
AcDbLine
 10
276.7349853516
 20
56.0429992676
 30
0.0
 11
276.7349853516
 21
55.0429992676
 31
0.0
  0
LINE
  5
20C
330
1F
100
AcDbEntity
  8
0
  6
Continuous
 62
     7
370
    25
100
AcDbLine
 10
276.6480102539
 20
56.0429992676
 30
0.0
 11
276.7349853516
 21
56.0429992676
 31
0.0
  0
ARC
  5
20D
330
1F
100
AcDbEntity
  8
0
  6
Continuous
 62
     7
370
    25
100
AcDbCircle
 10
276.6483724854
 20
57.043361499
 30
0.0
 40
1.000362297042088
100
AcDbArc
 50
180.0207468178
 51
269.9792531822
  0
LINE
  5
20E
330
1F
100
AcDbEntity
  8
0
  6
Continuous
 62
     7
370
    25
100
AcDbLine
 10
275.6480102539
 20
69.0429992676
 30
0.0
 11
275.6480102539
 21
57.0429992676
 31
0.0
  0
ARC
  5
20F
330
1F
100
AcDbEntity
  8
0
  6
Continuous
 62
     7
370
    25
100
AcDbCircle
 10
290.93535979
 20
88.0926400879
 30
0.0
 40
1.000362297042031
100
AcDbArc
 50
90.0207468178
 51
179.9792531822
  0
LINE
  5
210
330
1F
100
AcDbEntity
  8
0
  6
Continuous
 62
     7
370
    25
100
AcDbLine
 10
302.9349975586
 20
89.0930023193
 30
0.0
 11
290.9349975586
 21
89.0930023193
 31
0.0
  0
ARC
  5
211
330
1F
100
AcDbEntity
  8
0
  6
Continuous
 62
     7
370
    25
100
AcDbCircle
 10
302.9346353271
 20
88.0926400879
 30
0.0
 40
1.000362297042045
100
AcDbArc
 50
0.0207468178
 51
89.9792531822
  0
LINE
  5
212
330
1F
100
AcDbEntity
  8
0
  6
Continuous
 62
     7
370
    25
100
AcDbLine
 10
303.9349975586
 20
76.0930023193
 30
0.0
 11
303.9349975586
 21
88.0930023193
 31
0.0
  0
ARC
  5
213
330
1F
100
AcDbEntity
  8
0
  6
Continuous
 62
     7
370
    25
100
AcDbCircle
 10
302.9346353271
 20
76.0933645508
 30
0.0
 40
1.000362297042003
100
AcDbArc
 50
270.0207468178
 51
359.9792531822
  0
LINE
  5
214
330
1F
100
AcDbEntity
  8
0
  6
Continuous
 62
     7
370
    25
100
AcDbLine
 10
290.9349975586
 20
75.0930023193
 30
0.0
 11
302.9349975586
 21
75.0930023193
 31
0.0
  0
ARC
  5
215
330
1F
100
AcDbEntity
  8
0
  6
Continuous
 62
     7
370
    25
100
AcDbCircle
 10
290.93535979
 20
76.0933645508
 30
0.0
 40
1.00036229704206
100
AcDbArc
 50
180.0207468178
 51
269.9792531822
  0
LINE
  5
216
330
1F
100
AcDbEntity
  8
0
  6
Continuous
 62
     7
370
    25
100
AcDbLine
 10
289.9349975586
 20
88.0930023193
 30
0.0
 11
289.9349975586
 21
76.0930023193
 31
0.0
  0
ARC
  5
217
330
1F
100
AcDbEntity
  8
0
  6
Continuous
 62
     7
370
    25
100
AcDbCircle
 10
298.0793722412
 20
107.1426355102
 30
0.0
 40
1.000362297042084
100
AcDbArc
 50
90.0207468178
 51
179.9792531828
  0
LINE
  5
218
330
1F
100
AcDbEntity
  8
0
  6
Continuous
 62
     7
370
    25
100
AcDbLine
 10
310.0790100098
 20
108.1429977417
 30
0.0
 11
298.0790100098
 21
108.1429977417
 31
0.0
  0
ARC
  5
219
330
1F
100
AcDbEntity
  8
0
  6
Continuous
 62
     7
370
    25
100
AcDbCircle
 10
310.0786477783
 20
107.1426355102
 30
0.0
 40
1.000362297042028
100
AcDbArc
 50
0.0207468172
 51
89.9792531822
  0
LINE
  5
21A
330
1F
100
AcDbEntity
  8
0
  6
Continuous
 62
     7
370
    25
100
AcDbLine
 10
311.0790100098
 20
95.1429977417
 30
0.0
 11
311.0790100098
 21
107.1429977417
 31
0.0
  0
ARC
  5
21B
330
1F
100
AcDbEntity
  8
0
  6
Continuous
 62
     7
370
    25
100
AcDbCircle
 10
310.0786477783
 20
95.1433599732
 30
0.0
 40
1.000362297042031
100
AcDbArc
 50
270.0207468178
 51
359.9792531822
  0
LINE
  5
21C
330
1F
100
AcDbEntity
  8
0
  6
Continuous
 62
     7
370
    25
100
AcDbLine
 10
298.0790100098
 20
94.1429977417
 30
0.0
 11
310.0790100098
 21
94.1429977417
 31
0.0
  0
ARC
  5
21D
330
1F
100
AcDbEntity
  8
0
  6
Continuous
 62
     7
370
    25
100
AcDbCircle
 10
298.0793722412
 20
95.1433599732
 30
0.0
 40
1.000362297042031
100
AcDbArc
 50
180.0207468178
 51
269.9792531822
  0
LINE
  5
21E
330
1F
100
AcDbEntity
  8
0
  6
Continuous
 62
     7
370
    25
100
AcDbLine
 10
297.0790100098
 20
107.1429977417
 30
0.0
 11
297.0790100098
 21
95.1429977417
 31
0.0
  0
LINE
  5
21F
330
1F
100
AcDbEntity
  8
0
  6
Continuous
 62
     7
370
    25
100
AcDbLine
 10
283.7909851074
 20
113.1930007934
 30
0.0
 11
283.8779907226
 21
113.1930007934
 31
0.0
  0
ARC
  5
220
330
1F
100
AcDbEntity
  8
0
  6
Continuous
 62
     7
370
    25
100
AcDbCircle
 10
283.7913994839
 20
114.19341517
 30
0.0
 40
1.000414462338394
100
AcDbArc
 50
180.0237321903
 51
269.9762678103
  0
LINE
  5
221
330
1F
100
AcDbEntity
  8
0
  6
Continuous
 62
     7
370
    25
100
AcDbLine
 10
282.7909851074
 20
126.1930007934
 30
0.0
 11
282.7909851074
 21
114.1930007934
 31
0.0
  0
ARC
  5
222
330
1F
100
AcDbEntity
  8
0
  6
Continuous
 62
     7
370
    25
100
AcDbCircle
 10
283.7913994839
 20
126.1925864169
 30
0.0
 40
1.000414462334102
100
AcDbArc
 50
90.0237321897
 51
179.9762678103
  0
LINE
  5
223
330
1F
100
AcDbEntity
  8
0
  6
Continuous
 62
     7
370
    25
100
AcDbLine
 10
314.841003418
 20
127.1930007934
 30
0.0
 11
283.7909851074
 21
127.1930007935
 31
0.0
  0
ARC
  5
224
330
1F
100
AcDbEntity
  8
0
  6
Continuous
 62
     7
370
    25
100
AcDbCircle
 10
314.8423589301
 20
126.1943563056
 30
0.0
 40
0.9986454078552516
100
AcDbArc
 50
359.9222295064
 51
90.0777704936
  0
LINE
  5
225
330
1F
100
AcDbEntity
  8
0
  6
Continuous
 62
     7
370
    25
100
AcDbLine
 10
315.841003418
 20
114.1930007934
 30
0.0
 11
315.841003418
 21
126.1930007934
 31
0.0
  0
ARC
  5
226
330
1F
100
AcDbEntity
  8
0
  6
Continuous
 62
     7
370
    25
100
AcDbCircle
 10
314.8423589301
 20
114.1916452814
 30
0.0
 40
0.9986454078577811
100
AcDbArc
 50
269.9222295064
 51
0.077770493
  0
LINE
  5
227
330
1F
100
AcDbEntity
  8
0
  6
Continuous
 62
     7
370
    25
100
AcDbLine
 10
314.7539978027
 20
113.1930007934
 30
0.0
 11
314.841003418
 21
113.1930007935
 31
0.0
  0
LINE
  5
228
330
1F
100
AcDbEntity
  8
0
  6
Continuous
 62
     7
370
    25
100
AcDbLine
 10
314.7539978027
 20
112.1930007934
 30
0.0
 11
314.7539978027
 21
113.1930007934
 31
0.0
  0
ARC
  5
229
330
1F
100
AcDbEntity
  8
0
  6
Continuous
 62
     7
370
    25
100
AcDbCircle
 10
313.7553533148
 20
112.1916452814
 30
0.0
 40
0.9986454078577811
100
AcDbArc
 50
269.9222295064
 51
0.077770493
  0
LINE
  5
22A
330
1F
100
AcDbEntity
  8
0
  6
Continuous
 62
     7
370
    25
100
AcDbLine
 10
308.7539978027
 20
111.1930007934
 30
0.0
 11
313.7539978027
 21
111.1930007935
 31
0.0
  0
ARC
  5
22B
330
1F
100
AcDbEntity
  8
0
  6
Continuous
 62
     7
370
    25
100
AcDbCircle
 10
308.7543600342
 20
112.1933630249
 30
0.0
 40
1.00036229704206
100
AcDbArc
 50
180.0207468178
 51
269.9792531822
  0
LINE
  5
22C
330
1F
100
AcDbEntity
  8
0
  6
Continuous
 62
     7
370
    25
100
AcDbLine
 10
307.7539978027
 20
113.1930007934
 30
0.0
 11
307.7539978027
 21
112.1930007934
 31
0.0
  0
LINE
  5
22D
330
1F
100
AcDbEntity
  8
0
  6
Continuous
 62
     7
370
    25
100
AcDbLine
 10
290.8779907227
 20
113.1930007934
 30
0.0
 11
307.7539978027
 21
113.1930007934
 31
0.0
  0
LINE
  5
22E
330
1F
100
AcDbEntity
  8
0
  6
Continuous
 62
     7
370
    25
100
AcDbLine
 10
290.8779907227
 20
112.1930007934
 30
0.0
 11
290.8779907227
 21
113.1930007934
 31
0.0
  0
ARC
  5
22F
330
1F
100
AcDbEntity
  8
0
  6
Continuous
 62
     7
370
    25
100
AcDbCircle
 10
289.8793462348
 20
112.1916452814
 30
0.0
 40
0.9986454078577811
100
AcDbArc
 50
269.9222295064
 51
0.077770493
  0
LINE
  5
230
330
1F
100
AcDbEntity
  8
0
  6
Continuous
 62
     7
370
    25
100
AcDbLine
 10
284.8779907226
 20
111.1930007934
 30
0.0
 11
289.8779907226
 21
111.1930007935
 31
0.0
  0
ARC
  5
231
330
1F
100
AcDbEntity
  8
0
  6
Continuous
 62
     7
370
    25
100
AcDbCircle
 10
284.8783529541
 20
112.1933630249
 30
0.0
 40
1.00036229704206
100
AcDbArc
 50
180.0207468178
 51
269.9792531822
  0
LINE
  5
232
330
1F
100
AcDbEntity
  8
0
  6
Continuous
 62
     7
370
    25
100
AcDbLine
 10
283.8779907226
 20
113.1930007934
 30
0.0
 11
283.8779907227
 21
112.1930007934
 31
0.0
  0
ARC
  5
233
330
1F
100
AcDbEntity
  8
0
  6
Continuous
 62
     7
370
    25
100
AcDbCircle
 10
326.6543539307
 20
126.192638562
 30
0.0
 40
1.000362297042088
100
AcDbArc
 50
90.0207468178
 51
179.9792531822
  0
LINE
  5
234
330
1F
100
AcDbEntity
  8
0
  6
Continuous
 62
     7
370
    25
100
AcDbLine
 10
338.6539916992
 20
127.1930007934
 30
0.0
 11
326.6539916992
 21
127.1930007934
 31
0.0
  0
ARC
  5
235
330
1F
100
AcDbEntity
  8
0
  6
Continuous
 62
     7
370
    25
100
AcDbCircle
 10
338.6536294678
 20
126.192638562
 30
0.0
 40
1.000362297042045
100
AcDbArc
 50
0.0207468178
 51
89.9792531822
  0
LINE
  5
236
330
1F
100
AcDbEntity
  8
0
  6
Continuous
 62
     7
370
    25
100
AcDbLine
 10
339.6539916992
 20
114.1930007934
 30
0.0
 11
339.6539916992
 21
126.1930007934
 31
0.0
  0
ARC
  5
237
330
1F
100
AcDbEntity
  8
0
  6
Continuous
 62
     7
370
    25
100
AcDbCircle
 10
338.6536294678
 20
114.1933630249
 30
0.0
 40
1.000362297042031
100
AcDbArc
 50
270.0207468178
 51
359.9792531822
  0
LINE
  5
238
330
1F
100
AcDbEntity
  8
0
  6
Continuous
 62
     7
370
    25
100
AcDbLine
 10
326.6539916992
 20
113.1930007934
 30
0.0
 11
338.6539916992
 21
113.1930007935
 31
0.0
  0
ARC
  5
239
330
1F
100
AcDbEntity
  8
0
  6
Continuous
 62
     7
370
    25
100
AcDbCircle
 10
326.6543539307
 20
114.1933630249
 30
0.0
 40
1.00036229704206
100
AcDbArc
 50
180.0207468178
 51
269.9792531822
  0
LINE
  5
23A
330
1F
100
AcDbEntity
  8
0
  6
Continuous
 62
     7
370
    25
100
AcDbLine
 10
325.6539916992
 20
126.1930007934
 30
0.0
 11
325.6539916992
 21
114.1930007934
 31
0.0
  0
ARC
  5
23B
330
1F
100
AcDbEntity
  8
0
  6
Continuous
 62
     7
370
    25
100
AcDbCircle
 10
326.6543539307
 20
107.1426355102
 30
0.0
 40
1.000362297042084
100
AcDbArc
 50
90.0207468178
 51
179.9792531828
  0
LINE
  5
23C
330
1F
100
AcDbEntity
  8
0
  6
Continuous
 62
     7
370
    25
100
AcDbLine
 10
338.6539916992
 20
108.1429977417
 30
0.0
 11
326.6539916992
 21
108.1429977417
 31
0.0
  0
ARC
  5
23D
330
1F
100
AcDbEntity
  8
0
  6
Continuous
 62
     7
370
    25
100
AcDbCircle
 10
338.6536294678
 20
107.1426355102
 30
0.0
 40
1.000362297041971
100
AcDbArc
 50
0.0207468172
 51
89.9792531822
  0
LINE
  5
23E
330
1F
100
AcDbEntity
  8
0
  6
Continuous
 62
     7
370
    25
100
AcDbLine
 10
339.6539916992
 20
95.1429977417
 30
0.0
 11
339.6539916992
 21
107.1429977417
 31
0.0
  0
ARC
  5
23F
330
1F
100
AcDbEntity
  8
0
  6
Continuous
 62
     7
370
    25
100
AcDbCircle
 10
338.6536294678
 20
95.1433599732
 30
0.0
 40
1.000362297042031
100
AcDbArc
 50
270.0207468178
 51
359.9792531822
  0
LINE
  5
240
330
1F
100
AcDbEntity
  8
0
  6
Continuous
 62
     7
370
    25
100
AcDbLine
 10
326.6539916992
 20
94.1429977417
 30
0.0
 11
338.6539916992
 21
94.1429977417
 31
0.0
  0
ARC
  5
241
330
1F
100
AcDbEntity
  8
0
  6
Continuous
 62
     7
370
    25
100
AcDbCircle
 10
326.6543539307
 20
95.1433599732
 30
0.0
 40
1.000362297042031
100
AcDbArc
 50
180.0207468178
 51
269.9792531822
  0
LINE
  5
242
330
1F
100
AcDbEntity
  8
0
  6
Continuous
 62
     7
370
    25
100
AcDbLine
 10
325.6539916992
 20
107.1429977417
 30
0.0
 11
325.6539916992
 21
95.1429977417
 31
0.0
  0
LINE
  5
243
330
1F
100
AcDbEntity
  8
0
  6
Continuous
 62
     7
370
    25
100
AcDbLine
 10
78.7409973145
 20
34.2929992676
 30
0.0
 11
78.7409973145
 21
30.767999649
 31
0.0
  0
ARC
  5
244
330
1F
100
AcDbEntity
  8
0
  6
Continuous
 62
     7
370
    25
100
AcDbCircle
 10
80.2409973145
 20
34.2929992676
 30
0.0
 40
1.5
100
AcDbArc
 50
0.0
 51
180.0
  0
LINE
  5
245
330
1F
100
AcDbEntity
  8
0
  6
Continuous
 62
     7
370
    25
100
AcDbLine
 10
81.7409973145
 20
30.767999649
 30
0.0
 11
81.7409973145
 21
34.2929992676
 31
0.0
  0
ARC
  5
246
330
1F
100
AcDbEntity
  8
0
  6
Continuous
 62
     7
370
    25
100
AcDbCircle
 10
82.2429030226
 20
30.7699053572
 30
0.0
 40
0.5019093260991669
100
AcDbArc
 50
180.2175478563
 51
269.7824521437
  0
LINE
  5
247
330
1F
100
AcDbEntity
  8
0
  6
Continuous
 62
     7
370
    25
100
AcDbLine
 10
84.327003479
 20
30.267999649
 30
0.0
 11
82.2409973145
 21
30.267999649
 31
0.0
  0
ARC
  5
248
330
1F
100
AcDbEntity
  8
0
  6
Continuous
 62
     7
370
    25
100
AcDbCircle
 10
84.3283624506
 20
31.2641857041
 30
0.0
 40
0.9961869819917424
100
AcDbArc
 50
269.9218386085
 51
315.0996094036
  0
LINE
  5
249
330
1F
100
AcDbEntity
  8
0
  6
Continuous
 62
     7
370
    25
100
AcDbLine
 10
87.5019989014
 20
33.0289993286
 30
0.0
 11
85.033996582
 21
30.561000824
 31
0.0
  0
ARC
  5
24A
330
1F
100
AcDbEntity
  8
0
  6
Continuous
 62
     7
370
    25
100
AcDbCircle
 10
88.5628279554
 20
31.9667672955
 30
0.0
 40
1.501231219437047
100
AcDbArc
 50
89.9932986631
 51
134.9621373271
  0
LINE
  5
24B
330
1F
100
AcDbEntity
  8
0
  6
Continuous
 62
     7
370
    25
100
AcDbLine
 10
99.6760025024
 20
33.4679985046
 30
0.0
 11
88.56300354
 21
33.4679985046
 31
0.0
  0
ARC
  5
24C
330
1F
100
AcDbEntity
  8
0
  6
Continuous
 62
     7
370
    25
100
AcDbCircle
 10
99.6769344748
 20
34.4637853005
 30
0.0
 40
0.9957872319360103
100
AcDbArc
 50
269.946376003
 51
318.3493577476
  0
ARC
  5
24D
330
1F
100
AcDbEntity
  8
0
  6
Continuous
 62
     7
370
    25
100
AcDbCircle
 10
104.1474990845
 20
30.4672882791
 30
0.0
 40
5.00071025089701
100
AcDbArc
 50
41.824197605
 51
138.175802395
  0
ARC
  5
24E
330
1F
100
AcDbEntity
  8
0
  6
Continuous
 62
     7
370
    25
100
AcDbCircle
 10
108.6199703127
 20
34.4680394847
 30
0.0
 40
1.000040980636835
100
AcDbArc
 50
221.7601678458
 51
270.001858246
  0
LINE
  5
24F
330
1F
100
AcDbEntity
  8
0
  6
Continuous
 62
     7
370
    25
100
AcDbLine
 10
120.0210037231
 20
33.4679985046
 30
0.0
 11
108.6200027466
 21
33.4679985046
 31
0.0
  0
ARC
  5
250
330
1F
100
AcDbEntity
  8
0
  6
Continuous
 62
     7
370
    25
100
AcDbCircle
 10
120.017619203
 20
35.4779270095
 30
0.0
 40
2.009931354495035
100
AcDbArc
 50
270.0964803161
 51
301.1061264668
  0
LINE
  5
251
330
1F
100
AcDbEntity
  8
0
  6
Continuous
 62
     7
370
    25
100
AcDbLine
 10
125.1019973755
 20
36.7039985657
 30
0.0
 11
121.0559997558
 21
33.7569999695
 31
0.0
  0
ARC
  5
252
330
1F
100
AcDbEntity
  8
0
  6
Continuous
 62
     7
370
    25
100
AcDbCircle
 10
126.1314251995
 20
35.0151339283
 30
0.0
 40
1.977873961675038
100
AcDbArc
 50
89.8384768605
 51
121.363911119
  0
LINE
  5
253
330
1F
100
AcDbEntity
  8
0
  6
Continuous
 62
     7
370
    25
100
AcDbLine
 10
154.5850067139
 20
36.9930000305
 30
0.0
 11
126.1370010376
 21
36.9930000305
 31
0.0
  0
ARC
  5
254
330
1F
100
AcDbEntity
  8
0
  6
Continuous
 62
     7
370
    25
100
AcDbCircle
 10
154.5842561794
 20
38.9937505649
 30
0.0
 40
2.000750675201382
100
AcDbArc
 50
270.0214931609
 51
359.9785068391
  0
LINE
  5
255
330
1F
100
AcDbEntity
  8
0
  6
Continuous
 62
     7
370
    25
100
AcDbLine
 10
156.5850067139
 20
49.9930000305
 30
0.0
 11
156.5850067139
 21
38.9930000305
 31
0.0
  0
ARC
  5
256
330
1F
100
AcDbEntity
  8
0
  6
Continuous
 62
     7
370
    25
100
AcDbCircle
 10
157.5853689453
 20
49.9926377991
 30
0.0
 40
1.00036229704206
100
AcDbArc
 50
90.0207468178
 51
179.9792531822
  0
LINE
  5
257
330
1F
100
AcDbEntity
  8
0
  6
Continuous
 62
     7
370
    25
100
AcDbLine
 10
181.4909973144
 20
50.9930000305
 30
0.0
 11
157.5850067139
 21
50.9930000305
 31
0.0
  0
ARC
  5
258
330
1F
100
AcDbEntity
  8
0
  6
Continuous
 62
     7
370
    25
100
AcDbCircle
 10
181.4923528265
 20
49.9943555426
 30
0.0
 40
0.9986454078561184
100
AcDbArc
 50
359.9222295066
 51
90.0777704936
  0
LINE
  5
259
330
1F
100
AcDbEntity
  8
0
  6
Continuous
 62
     7
370
    25
100
AcDbLine
 10
182.4909973144
 20
38.9930000305
 30
0.0
 11
182.4909973145
 21
49.9930000305
 31
0.0
  0
ARC
  5
25A
330
1F
100
AcDbEntity
  8
0
  6
Continuous
 62
     7
370
    25
100
AcDbCircle
 10
184.4917217774
 20
38.9937244934
 30
0.0
 40
2.000724594084119
100
AcDbArc
 50
180.0207468178
 51
269.9792531822
  0
LINE
  5
25B
330
1F
100
AcDbEntity
  8
0
  6
Continuous
 62
     7
370
    25
100
AcDbLine
 10
201.033996582
 20
36.9930000305
 30
0.0
 11
184.4909973144
 21
36.9930000305
 31
0.0
  0
ARC
  5
25C
330
1F
100
AcDbEntity
  8
0
  6
Continuous
 62
     7
370
    25
100
AcDbCircle
 10
201.0376431355
 20
35.0082245633
 30
0.0
 40
1.984778817008127
100
AcDbArc
 50
58.6923447526
 51
90.1052672676
  0
LINE
  5
25D
330
1F
100
AcDbEntity
  8
0
  6
Continuous
 62
     7
370
    25
100
AcDbLine
 10
206.1139984131
 20
33.7569999695
 30
0.0
 11
202.0690002442
 21
36.7039985657
 31
0.0
  0
ARC
  5
25E
330
1F
100
AcDbEntity
  8
0
  6
Continuous
 62
     7
370
    25
100
AcDbCircle
 10
207.1523788954
 20
35.4779268461
 30
0.0
 40
2.009931178130034
100
AcDbArc
 50
238.8938728481
 51
269.9037391728
  0
LINE
  5
25F
330
1F
100
AcDbEntity
  8
0
  6
Continuous
 62
     7
370
    25
100
AcDbLine
 10
218.550994873
 20
33.4679985046
 30
0.0
 11
207.1490020752
 21
33.4679985046
 31
0.0
  0
ARC
  5
260
330
1F
100
AcDbEntity
  8
0
  6
Continuous
 62
     7
370
    25
100
AcDbCircle
 10
218.5519275383
 20
34.4638177477
 30
0.0
 40
0.9958196798550027
100
AcDbArc
 50
269.946337882
 51
318.3485197501
  0
ARC
  5
261
330
1F
100
AcDbEntity
  8
0
  6
Continuous
 62
     7
370
    25
100
AcDbCircle
 10
223.0224990845
 20
30.4673053422
 30
0.0
 40
5.000693187052494
100
AcDbArc
 50
41.8241102104
 51
138.1758897896
  0
ARC
  5
262
330
1F
100
AcDbEntity
  8
0
  6
Continuous
 62
     7
370
    25
100
AcDbCircle
 10
227.4949918176
 20
34.4681045574
 30
0.0
 40
1.00010605278863
100
AcDbArc
 50
221.7618370622
 51
270.0000945148
  0
LINE
  5
263
330
1F
100
AcDbEntity
  8
0
  6
Continuous
 62
     7
370
    25
100
AcDbLine
 10
238.608001709
 20
33.4679985046
 30
0.0
 11
227.4949934674
 21
33.4679985046
 31
0.0
  0
ARC
  5
264
330
1F
100
AcDbEntity
  8
0
  6
Continuous
 62
     7
370
    25
100
AcDbCircle
 10
238.6091054787
 20
31.9714408957
 30
0.0
 40
1.496558015985575
100
AcDbArc
 50
44.9638497623
 51
90.042257868
  0
LINE
  5
265
330
1F
100
AcDbEntity
  8
0
  6
Continuous
 62
     7
370
    25
100
AcDbLine
 10
242.1360015869
 20
30.561000824
 30
0.0
 11
239.6679992676
 21
33.0289993286
 31
0.0
  0
ARC
  5
266
330
1F
100
AcDbEntity
  8
0
  6
Continuous
 62
     7
370
    25
100
AcDbCircle
 10
242.8416503435
 20
31.2642209586
 30
0.0
 40
0.9962222269158939
100
AcDbArc
 50
224.9012330716
 51
270.0777562778
  0
LINE
  5
267
330
1F
100
AcDbEntity
  8
0
  6
Continuous
 62
     7
370
    25
100
AcDbLine
 10
244.9290008545
 20
30.267999649
 30
0.0
 11
242.8430023193
 21
30.267999649
 31
0.0
  0
ARC
  5
268
330
1F
100
AcDbEntity
  8
0
  6
Continuous
 62
     7
370
    25
100
AcDbCircle
 10
244.9288242179
 20
30.7681762857
 30
0.0
 40
0.5001766678083786
100
AcDbArc
 50
270.0202339167
 51
359.9797660835
  0
LINE
  5
269
330
1F
100
AcDbEntity
  8
0
  6
Continuous
 62
     7
370
    25
100
AcDbLine
 10
245.4290008545
 20
34.2929992676
 30
0.0
 11
245.4290008545
 21
30.767999649
 31
0.0
  0
ARC
  5
26A
330
1F
100
AcDbEntity
  8
0
  6
Continuous
 62
     7
370
    25
100
AcDbCircle
 10
246.9290008545
 20
34.2929992676
 30
0.0
 40
1.5
100
AcDbArc
 50
0.0
 51
180.0
  0
LINE
  5
26B
330
1F
100
AcDbEntity
  8
0
  6
Continuous
 62
     7
370
    25
100
AcDbLine
 10
248.4290008545
 20
30.767999649
 30
0.0
 11
248.4290008545
 21
34.2929992676
 31
0.0
  0
ARC
  5
26C
330
1F
100
AcDbEntity
  8
0
  6
Continuous
 62
     7
370
    25
100
AcDbCircle
 10
248.9291774911
 20
30.7681762857
 30
0.0
 40
0.5001766678094586
100
AcDbArc
 50
180.0202339165
 51
269.9797660833
  0
LINE
  5
26D
330
1F
100
AcDbEntity
  8
0
  6
Continuous
 62
     7
370
    25
100
AcDbLine
 10
251.0149993896
 20
30.267999649
 30
0.0
 11
248.9290008545
 21
30.267999649
 31
0.0
  0
ARC
  5
26E
330
1F
100
AcDbEntity
  8
0
  6
Continuous
 62
     7
370
    25
100
AcDbCircle
 10
251.014448063
 20
31.2688135554
 30
0.0
 40
1.000814058234174
100
AcDbArc
 50
270.0315629999
 51
314.9894476504
  0
LINE
  5
26F
330
1F
100
AcDbEntity
  8
0
  6
Continuous
 62
     7
370
    25
100
AcDbLine
 10
254.1900024414
 20
33.0289993286
 30
0.0
 11
251.7220001221
 21
30.561000824
 31
0.0
  0
ARC
  5
270
330
1F
100
AcDbEntity
  8
0
  6
Continuous
 62
     7
370
    25
100
AcDbCircle
 10
255.2488962303
 20
31.9714408957
 30
0.0
 40
1.496558015985141
100
AcDbArc
 50
89.957742132
 51
135.036150238
  0
LINE
  5
271
330
1F
100
AcDbEntity
  8
0
  6
Continuous
 62
     7
370
    25
100
AcDbLine
 10
316.2760009766
 20
33.4679985046
 30
0.0
 11
255.25
 21
33.4679985046
 31
0.0
  0
ARC
  5
272
330
1F
100
AcDbEntity
  8
0
  6
Continuous
 62
     7
370
    25
100
AcDbCircle
 10
316.2769184319
 20
34.4638176812
 30
0.0
 40
0.9958195991520137
100
AcDbArc
 50
269.9472130052
 51
318.3485207465
  0
ARC
  5
273
330
1F
100
AcDbEntity
  8
0
  6
Continuous
 62
     7
370
    25
100
AcDbCircle
 10
320.7474975586
 20
30.4672882746
 30
0.0
 40
5.00071025392915
100
AcDbArc
 50
41.8241976438
 51
138.1758023562
  0
ARC
  5
274
330
1F
100
AcDbEntity
  8
0
  6
Continuous
 62
     7
370
    25
100
AcDbCircle
 10
325.2199979212
 20
34.4681045574
 30
0.0
 40
1.00010605278559
100
AcDbArc
 50
221.7618370622
 51
270.0000945151
  0
LINE
  5
275
330
1F
100
AcDbEntity
  8
0
  6
Continuous
 62
     7
370
    25
100
AcDbLine
 10
333.858001709
 20
33.4679985046
 30
0.0
 11
325.2199995709
 21
33.4679985046
 31
0.0
  0
ARC
  5
276
330
1F
100
AcDbEntity
  8
0
  6
Continuous
 62
     7
370
    25
100
AcDbCircle
 10
333.8591054787
 20
31.9714408957
 30
0.0
 40
1.496558015985575
100
AcDbArc
 50
44.9638497623
 51
90.042257868
  0
LINE
  5
277
330
1F
100
AcDbEntity
  8
0
  6
Continuous
 62
     7
370
    25
100
AcDbLine
 10
337.3859863281
 20
30.561000824
 30
0.0
 11
334.9179992676
 21
33.0289993286
 31
0.0
  0
ARC
  5
278
330
1F
100
AcDbEntity
  8
0
  6
Continuous
 62
     7
370
    25
100
AcDbCircle
 10
338.0916350847
 20
31.2642209586
 30
0.0
 40
0.9962222269160296
100
AcDbArc
 50
224.9012330716
 51
270.0777562778
  0
LINE
  5
279
330
1F
100
AcDbEntity
  8
0
  6
Continuous
 62
     7
370
    25
100
AcDbLine
 10
340.1789855957
 20
30.267999649
 30
0.0
 11
338.0929870605
 21
30.267999649
 31
0.0
  0
ARC
  5
27A
330
1F
100
AcDbEntity
  8
0
  6
Continuous
 62
     7
370
    25
100
AcDbCircle
 10
340.1771324597
 20
30.7698527851
 30
0.0
 40
0.5018565574601717
100
AcDbArc
 50
270.2115686518
 51
359.7884313483
  0
LINE
  5
27B
330
1F
100
AcDbEntity
  8
0
  6
Continuous
 62
     7
370
    25
100
AcDbLine
 10
340.6789855957
 20
34.2929992676
 30
0.0
 11
340.6789855957
 21
30.767999649
 31
0.0
  0
ARC
  5
27C
330
1F
100
AcDbEntity
  8
0
  6
Continuous
 62
     7
370
    25
100
AcDbCircle
 10
342.1789855957
 20
34.2929992676
 30
0.0
 40
1.5
100
AcDbArc
 50
0.0
 51
180.0
  0
LINE
  5
27D
330
1F
100
AcDbEntity
  8
0
  6
Continuous
 62
     7
370
    25
100
AcDbLine
 10
343.6789855957
 20
30.767999649
 30
0.0
 11
343.6789855957
 21
34.2929992676
 31
0.0
  0
ARC
  5
27E
330
1F
100
AcDbEntity
  8
0
  6
Continuous
 62
     7
370
    25
100
AcDbCircle
 10
344.1792144532
 20
30.7682285065
 30
0.0
 40
0.5002289098519447
100
AcDbArc
 50
180.0262131377
 51
269.9737868623
  0
LINE
  5
27F
330
1F
100
AcDbEntity
  8
0
  6
Continuous
 62
     7
370
    25
100
AcDbLine
 10
346.2650146484
 20
30.267999649
 30
0.0
 11
344.1789855957
 21
30.267999649
 31
0.0
  0
ARC
  5
280
330
1F
100
AcDbEntity
  8
0
  6
Continuous
 62
     7
370
    25
100
AcDbCircle
 10
346.2644621311
 20
31.2687427348
 30
0.0
 40
1.000743238255234
100
AcDbArc
 50
270.0316334039
 51
314.9911267425
  0
LINE
  5
281
330
1F
100
AcDbEntity
  8
0
  6
Continuous
 62
     7
370
    25
100
AcDbLine
 10
349.4400024414
 20
33.0289993286
 30
0.0
 11
346.9719848633
 21
30.561000824
 31
0.0
  0
ARC
  5
282
330
1F
100
AcDbEntity
  8
0
  6
Continuous
 62
     7
370
    25
100
AcDbCircle
 10
350.4988962303
 20
31.9714408957
 30
0.0
 40
1.496558015985141
100
AcDbArc
 50
89.957742132
 51
135.036150238
  0
LINE
  5
283
330
1F
100
AcDbEntity
  8
0
  6
Continuous
 62
     7
370
    25
100
AcDbLine
 10
377.7789916992
 20
33.4679985046
 30
0.0
 11
350.5
 21
33.4679985046
 31
0.0
  0
LINE
  5
284
330
1F
100
AcDbEntity
  8
0
  6
Continuous
 62
     7
370
    25
100
AcDbLine
 10
380.7789916992
 20
36.4679985046
 30
0.0
 11
377.7789916992
 21
33.4679985046
 31
0.0
  0
LINE
  5
285
330
1F
100
AcDbEntity
  8
0
  6
Continuous
 62
     7
370
    25
100
AcDbLine
 10
380.7789916992
 20
150.0310058594
 30
0.0
 11
380.7789916992
 21
36.4679985046
 31
0.0
  0
LINE
  5
286
330
1F
100
AcDbEntity
  8
0
  6
Continuous
 62
     7
370
    25
100
AcDbLine
 10
377.7789916992
 20
153.0310058594
 30
0.0
 11
380.7789916992
 21
150.0310058594
 31
0.0
  0
LINE
  5
287
330
1F
100
AcDbEntity
  8
0
  6
Continuous
 62
     7
370
    25
100
AcDbLine
 10
371.549987793
 20
153.0310058594
 30
0.0
 11
377.7789916992
 21
153.0310058594
 31
0.0
  0
ARC
  5
288
330
1F
100
AcDbEntity
  8
0
  6
Continuous
 62
     7
370
    25
100
AcDbCircle
 10
371.5489460582
 20
154.5277224476
 30
0.0
 40
1.496716950730892
100
AcDbArc
 50
224.9665810204
 51
270.0398786223
  0
LINE
  5
289
330
1F
100
AcDbEntity
  8
0
  6
Continuous
 62
     7
370
    25
100
AcDbLine
 10
366.0220031738
 20
157.93800354
 30
0.0
 11
370.4899902344
 21
153.4700012207
 31
0.0
  0
ARC
  5
28A
330
1F
100
AcDbEntity
  8
0
  6
Continuous
 62
     7
370
    25
100
AcDbCircle
 10
365.314402194
 20
157.2300662489
 30
0.0
 40
1.000936738685224
100
AcDbArc
 50
45.0136126426
 51
89.9656405399
  0
LINE
  5
28B
330
1F
100
AcDbEntity
  8
0
  6
Continuous
 62
     7
370
    25
100
AcDbLine
 10
363.2290039062
 20
158.2310028076
 30
0.0
 11
365.3150024414
 21
158.2310028076
 31
0.0
  0
ARC
  5
28C
330
1F
100
AcDbEntity
  8
0
  6
Continuous
 62
     7
370
    25
100
AcDbCircle
 10
363.2291837971
 20
157.7308229168
 30
0.0
 40
0.5001799231912935
100
AcDbArc
 50
90.0206065571
 51
179.9793934429
  0
LINE
  5
28D
330
1F
100
AcDbEntity
  8
0
  6
Continuous
 62
     7
370
    25
100
AcDbLine
 10
362.7290039062
 20
152.2059936523
 30
0.0
 11
362.7290039062
 21
157.7310028076
 31
0.0
  0
ARC
  5
28E
330
1F
100
AcDbEntity
  8
0
  6
Continuous
 62
     7
370
    25
100
AcDbCircle
 10
361.2290039062
 20
152.2059936523
 30
0.0
 40
1.5
100
AcDbArc
 50
180.0
 51
0.0
  0
LINE
  5
28F
330
1F
100
AcDbEntity
  8
0
  6
Continuous
 62
     7
370
    25
100
AcDbLine
 10
359.7290039062
 20
157.7310028076
 30
0.0
 11
359.7290039062
 21
152.2059936523
 31
0.0
  0
ARC
  5
290
330
1F
100
AcDbEntity
  8
0
  6
Continuous
 62
     7
370
    25
100
AcDbCircle
 10
359.2270949119
 20
157.7290938133
 30
0.0
 40
0.5019126247153585
100
AcDbArc
 50
0.2179215584
 51
89.7820784404
  0
LINE
  5
291
330
1F
100
AcDbEntity
  8
0
  6
Continuous
 62
     7
370
    25
100
AcDbLine
 10
357.1430053711
 20
158.2310028076
 30
0.0
 11
359.2290039062
 21
158.2310028076
 31
0.0
  0
ARC
  5
292
330
1F
100
AcDbEntity
  8
0
  6
Continuous
 62
     7
370
    25
100
AcDbCircle
 10
357.1416727254
 20
157.2347302771
 30
0.0
 40
0.99627342180414
100
AcDbArc
 50
89.9233593964
 51
135.0973874209
  0
LINE
  5
293
330
1F
100
AcDbEntity
  8
0
  6
Continuous
 62
     7
370
    25
100
AcDbLine
 10
351.9679870605
 20
153.4700012207
 30
0.0
 11
356.4360046387
 21
157.93800354
 31
0.0
  0
ARC
  5
294
330
1F
100
AcDbEntity
  8
0
  6
Continuous
 62
     7
370
    25
100
AcDbCircle
 10
350.9090897649
 20
154.5275811255
 30
0.0
 40
1.496575670563574
100
AcDbArc
 50
269.957876885
 51
315.0356634725
  0
LINE
  5
295
330
1F
100
AcDbEntity
  8
0
  6
Continuous
 62
     7
370
    25
100
AcDbLine
 10
326.3190002441
 20
153.0310058594
 30
0.0
 11
350.9079895019
 21
153.0310058594
 31
0.0
  0
ARC
  5
296
330
1F
100
AcDbEntity
  8
0
  6
Continuous
 62
     7
370
    25
100
AcDbCircle
 10
326.3177305262
 20
152.0318633346
 30
0.0
 40
0.9991433315933556
100
AcDbArc
 50
89.9271881228
 51
170.2537083469
  0
ARC
  5
297
330
1F
100
AcDbEntity
  8
0
  6
Continuous
 62
     7
370
    25
100
AcDbCircle
 10
323.8561038771
 20
152.4544931622
 30
0.0
 40
1.498499908378436
100
AcDbArc
 50
269.9582128542
 51
350.260904625
  0
LINE
  5
298
330
1F
100
AcDbEntity
  8
0
  6
Continuous
 62
     7
370
    25
100
AcDbLine
 10
317.6400146484
 20
150.9559936523
 30
0.0
 11
323.8550109863
 21
150.9559936523
 31
0.0
  0
ARC
  5
299
330
1F
100
AcDbEntity
  8
0
  6
Continuous
 62
     7
370
    25
100
AcDbCircle
 10
317.6389450069
 20
152.4545569649
 30
0.0
 40
1.498563694314952
100
AcDbArc
 50
189.7411518913
 51
270.0408964587
  0
ARC
  5
29A
330
1F
100
AcDbEntity
  8
0
  6
Continuous
 62
     7
370
    25
100
AcDbCircle
 10
315.1773199092
 20
152.0319280524
 30
0.0
 40
0.9990778575564117
100
AcDbArc
 50
9.7431707841
 51
90.0182343536
  0
LINE
  5
29B
330
1F
100
AcDbEntity
  8
0
  6
Continuous
 62
     7
370
    25
100
AcDbLine
 10
247.7250061035
 20
153.0310058594
 30
0.0
 11
315.1770019531
 21
153.0310058594
 31
0.0
  0
ARC
  5
29C
330
1F
100
AcDbEntity
  8
0
  6
Continuous
 62
     7
370
    25
100
AcDbCircle
 10
247.7239198856
 20
154.5276518448
 30
0.0
 40
1.496646379651138
100
AcDbArc
 50
224.9654593331
 51
270.0415834435
  0
LINE
  5
29D
330
1F
100
AcDbEntity
  8
0
  6
Continuous
 62
     7
370
    25
100
AcDbLine
 10
242.1970062256
 20
157.93800354
 30
0.0
 11
246.6649932861
 21
153.4700012207
 31
0.0
  0
ARC
  5
29E
330
1F
100
AcDbEntity
  8
0
  6
Continuous
 62
     7
370
    25
100
AcDbCircle
 10
241.4894052457
 20
157.2300662489
 30
0.0
 40
1.000936738690095
100
AcDbArc
 50
45.0136126422
 51
89.9656405394
  0
LINE
  5
29F
330
1F
100
AcDbEntity
  8
0
  6
Continuous
 62
     7
370
    25
100
AcDbLine
 10
239.404006958
 20
158.2310028076
 30
0.0
 11
241.4900054932
 21
158.2310028076
 31
0.0
  0
ARC
  5
2A0
330
1F
100
AcDbEntity
  8
0
  6
Continuous
 62
     7
370
    25
100
AcDbCircle
 10
239.4041868489
 20
157.7308229168
 30
0.0
 40
0.5001799231937377
100
AcDbArc
 50
90.0206065582
 51
179.9793934429
  0
LINE
  5
2A1
330
1F
100
AcDbEntity
  8
0
  6
Continuous
 62
     7
370
    25
100
AcDbLine
 10
238.904006958
 20
152.2059936523
 30
0.0
 11
238.904006958
 21
157.7310028076
 31
0.0
  0
ARC
  5
2A2
330
1F
100
AcDbEntity
  8
0
  6
Continuous
 62
     7
370
    25
100
AcDbCircle
 10
237.404006958
 20
152.2059936523
 30
0.0
 40
1.5
100
AcDbArc
 50
180.0
 51
0.0
  0
LINE
  5
2A3
330
1F
100
AcDbEntity
  8
0
  6
Continuous
 62
     7
370
    25
100
AcDbLine
 10
235.904006958
 20
157.7310028076
 30
0.0
 11
235.904006958
 21
152.2059936523
 31
0.0
  0
ARC
  5
2A4
330
1F
100
AcDbEntity
  8
0
  6
Continuous
 62
     7
370
    25
100
AcDbCircle
 10
235.4020979637
 20
157.7290938133
 30
0.0
 40
0.5019126247066048
100
AcDbArc
 50
0.2179215584
 51
89.7820784416
  0
LINE
  5
2A5
330
1F
100
AcDbEntity
  8
0
  6
Continuous
 62
     7
370
    25
100
AcDbLine
 10
233.3179931641
 20
158.2310028076
 30
0.0
 11
235.404006958
 21
158.2310028076
 31
0.0
  0
ARC
  5
2A6
330
1F
100
AcDbEntity
  8
0
  6
Continuous
 62
     7
370
    25
100
AcDbCircle
 10
233.3166605184
 20
157.2347302771
 30
0.0
 40
0.99627342180414
100
AcDbArc
 50
89.9233593964
 51
135.0973874209
  0
LINE
  5
2A7
330
1F
100
AcDbEntity
  8
0
  6
Continuous
 62
     7
370
    25
100
AcDbLine
 10
228.1430053711
 20
153.4700012207
 30
0.0
 11
232.6109924316
 21
157.93800354
 31
0.0
  0
ARC
  5
2A8
330
1F
100
AcDbEntity
  8
0
  6
Continuous
 62
     7
370
    25
100
AcDbCircle
 10
227.0840787717
 20
154.5276518448
 30
0.0
 40
1.496646379659833
100
AcDbArc
 50
269.9584165565
 51
315.0345406669
  0
LINE
  5
2A9
330
1F
100
AcDbEntity
  8
0
  6
Continuous
 62
     7
370
    25
100
AcDbLine
 10
162.0
 20
153.0310058594
 30
0.0
 11
227.0829925537
 21
153.0310058594
 31
0.0
  0
ARC
  5
2AA
330
1F
100
AcDbEntity
  8
0
  6
Continuous
 62
     7
370
    25
100
AcDbCircle
 10
161.998899737
 20
154.5275811255
 30
0.0
 40
1.496575670559589
100
AcDbArc
 50
224.9643365275
 51
270.0421231154
  0
LINE
  5
2AB
330
1F
100
AcDbEntity
  8
0
  6
Continuous
 62
     7
370
    25
100
AcDbLine
 10
156.4720001221
 20
157.93800354
 30
0.0
 11
160.9400024414
 21
153.4700012207
 31
0.0
  0
ARC
  5
2AC
330
1F
100
AcDbEntity
  8
0
  6
Continuous
 62
     7
370
    25
100
AcDbCircle
 10
155.7644285366
 20
157.230137177
 30
0.0
 40
1.000865793439674
100
AcDbArc
 50
45.0119323587
 51
89.9673208234
  0
LINE
  5
2AD
330
1F
100
AcDbEntity
  8
0
  6
Continuous
 62
     7
370
    25
100
AcDbLine
 10
153.6790008545
 20
158.2310028076
 30
0.0
 11
155.7649993896
 21
158.2310028076
 31
0.0
  0
ARC
  5
2AE
330
1F
100
AcDbEntity
  8
0
  6
Continuous
 62
     7
370
    25
100
AcDbCircle
 10
153.6791807453
 20
157.7308229168
 30
0.0
 40
0.500179923191265
100
AcDbArc
 50
90.0206065571
 51
179.9793934429
  0
LINE
  5
2AF
330
1F
100
AcDbEntity
  8
0
  6
Continuous
 62
     7
370
    25
100
AcDbLine
 10
153.1790008545
 20
152.2059936523
 30
0.0
 11
153.1790008545
 21
157.7310028076
 31
0.0
  0
ARC
  5
2B0
330
1F
100
AcDbEntity
  8
0
  6
Continuous
 62
     7
370
    25
100
AcDbCircle
 10
151.6790008545
 20
152.2059936523
 30
0.0
 40
1.5
100
AcDbArc
 50
180.0
 51
0.0
  0
LINE
  5
2B1
330
1F
100
AcDbEntity
  8
0
  6
Continuous
 62
     7
370
    25
100
AcDbLine
 10
150.1790008545
 20
157.7310028076
 30
0.0
 11
150.1790008545
 21
152.2059936523
 31
0.0
  0
ARC
  5
2B2
330
1F
100
AcDbEntity
  8
0
  6
Continuous
 62
     7
370
    25
100
AcDbCircle
 10
149.6770918602
 20
157.7290938133
 30
0.0
 40
0.5019126247066047
100
AcDbArc
 50
0.2179215584
 51
89.7820784416
  0
LINE
  5
2B3
330
1F
100
AcDbEntity
  8
0
  6
Continuous
 62
     7
370
    25
100
AcDbLine
 10
147.5930023193
 20
158.2310028076
 30
0.0
 11
149.6790008545
 21
158.2310028076
 31
0.0
  0
ARC
  5
2B4
330
1F
100
AcDbEntity
  8
0
  6
Continuous
 62
     7
370
    25
100
AcDbCircle
 10
147.5916696737
 20
157.2347302771
 30
0.0
 40
0.9962734218050602
100
AcDbArc
 50
89.923359397
 51
135.0973874213
  0
LINE
  5
2B5
330
1F
100
AcDbEntity
  8
0
  6
Continuous
 62
     7
370
    25
100
AcDbLine
 10
142.4179992676
 20
153.4700012207
 30
0.0
 11
146.8860015869
 21
157.93800354
 31
0.0
  0
ARC
  5
2B6
330
1F
100
AcDbEntity
  8
0
  6
Continuous
 62
     7
370
    25
100
AcDbCircle
 10
141.3591019719
 20
154.5275811255
 30
0.0
 40
1.496575670558707
100
AcDbArc
 50
269.9578768846
 51
315.0356634723
  0
LINE
  5
2B7
330
1F
100
AcDbEntity
  8
0
  6
Continuous
 62
     7
370
    25
100
AcDbLine
 10
76.2750015259
 20
153.0310058594
 30
0.0
 11
141.358001709
 21
153.0310058594
 31
0.0
  0
ARC
  5
2B8
330
1F
100
AcDbEntity
  8
0
  6
Continuous
 62
     7
370
    25
100
AcDbCircle
 10
76.2739082853
 20
154.5276164848
 30
0.0
 40
1.496611024724481
100
AcDbArc
 50
224.9648979357
 51
270.0418532758
  0
LINE
  5
2B9
330
1F
100
AcDbEntity
  8
0
  6
Continuous
 62
     7
370
    25
100
AcDbLine
 10
70.747001648
 20
157.93800354
 30
0.0
 11
75.2149963379
 21
153.4700012207
 31
0.0
  0
ARC
  5
2BA
330
1F
100
AcDbEntity
  8
0
  6
Continuous
 62
     7
370
    25
100
AcDbCircle
 10
70.0394153657
 20
157.230101714
 30
0.0
 40
1.000901264945977
100
AcDbArc
 50
45.0127725063
 51
89.9664806755
  0
LINE
  5
2BB
330
1F
100
AcDbEntity
  8
0
  6
Continuous
 62
     7
370
    25
100
AcDbLine
 10
67.9540023804
 20
158.2310028076
 30
0.0
 11
70.0400009155
 21
158.2310028076
 31
0.0
  0
ARC
  5
2BC
330
1F
100
AcDbEntity
  8
0
  6
Continuous
 62
     7
370
    25
100
AcDbCircle
 10
67.9541822712
 20
157.7308229168
 30
0.0
 40
0.5001799231920182
100
AcDbArc
 50
90.0206065574
 51
179.9793934429
  0
LINE
  5
2BD
330
1F
100
AcDbEntity
  8
0
  6
Continuous
 62
     7
370
    25
100
AcDbLine
 10
67.4540023804
 20
152.2059936523
 30
0.0
 11
67.4540023804
 21
157.7310028076
 31
0.0
  0
ARC
  5
2BE
330
1F
100
AcDbEntity
  8
0
  6
Continuous
 62
     7
370
    25
100
AcDbCircle
 10
65.9540023804
 20
152.2059936523
 30
0.0
 40
1.5
100
AcDbArc
 50
180.0
 51
0.0
  0
LINE
  5
2BF
330
1F
100
AcDbEntity
  8
0
  6
Continuous
 62
     7
370
    25
100
AcDbLine
 10
64.4540023804
 20
157.7310028076
 30
0.0
 11
64.4540023804
 21
152.2059936523
 31
0.0
  0
ARC
  5
2C0
330
1F
100
AcDbEntity
  8
0
  6
Continuous
 62
     7
370
    25
100
AcDbCircle
 10
63.952093411
 20
157.7290938237
 30
0.0
 40
0.5019125997353214
100
AcDbArc
 50
0.2179203843
 51
89.7825167462
  0
LINE
  5
2C1
330
1F
100
AcDbEntity
  8
0
  6
Continuous
 62
     7
370
    25
100
AcDbLine
 10
61.8680000305
 20
158.2310028076
 30
0.0
 11
63.9539985657
 21
158.2310028076
 31
0.0
  0
ARC
  5
2C2
330
1F
100
AcDbEntity
  8
0
  6
Continuous
 62
     7
370
    25
100
AcDbCircle
 10
61.8666600907
 20
157.2347478777
 30
0.0
 40
0.996255830995137
100
AcDbArc
 50
89.9229385487
 51
135.0978082692
  0
LINE
  5
2C3
330
1F
100
AcDbEntity
  8
0
  6
Continuous
 62
     7
370
    25
100
AcDbLine
 10
56.6930007935
 20
153.4700012207
 30
0.0
 11
61.1609992981
 21
157.93800354
 31
0.0
  0
ARC
  5
2C4
330
1F
100
AcDbEntity
  8
0
  6
Continuous
 62
     7
370
    25
100
AcDbCircle
 10
55.6340888563
 20
154.5276164694
 30
0.0
 40
1.496611006524334
100
AcDbArc
 50
269.9582923694
 51
315.0351022032
  0
LINE
  5
2C5
330
1F
100
AcDbEntity
  8
0
  6
Continuous
 62
     7
370
    25
100
AcDbLine
 10
35.1160011292
 20
153.0310058594
 30
0.0
 11
55.6329994202
 21
153.0310058594
 31
0.0
  0
LINE
  5
2C6
330
1F
100
AcDbEntity
  8
0
  6
Continuous
 62
     7
370
    25
100
AcDbLine
 10
32.1160011292
 20
150.0310058594
 30
0.0
 11
35.1160011292
 21
153.0310058594
 31
0.0
  0
LINE
  5
2C7
330
1F
100
AcDbEntity
  8
0
  6
Continuous
 62
     7
370
    25
100
AcDbLine
 10
32.1160011291
 20
36.4679985046
 30
0.0
 11
32.1160011292
 21
150.0310058594
 31
0.0
  0
LINE
  5
2C8
330
1F
100
AcDbEntity
  8
0
  6
Continuous
 62
     7
370
    25
100
AcDbLine
 10
35.1160011292
 20
33.4679985046
 30
0.0
 11
32.1160011291
 21
36.4679985046
 31
0.0
  0
LINE
  5
2C9
330
1F
100
AcDbEntity
  8
0
  6
Continuous
 62
     7
370
    25
100
AcDbLine
 10
71.9199981689
 20
33.4679985046
 30
0.0
 11
35.1160011292
 21
33.4679985046
 31
0.0
  0
ARC
  5
2CA
330
1F
100
AcDbEntity
  8
0
  6
Continuous
 62
     7
370
    25
100
AcDbCircle
 10
71.9201737535
 20
31.9667672955
 30
0.0
 40
1.501231219437217
100
AcDbArc
 50
45.0378626729
 51
90.0067013369
  0
LINE
  5
2CB
330
1F
100
AcDbEntity
  8
0
  6
Continuous
 62
     7
370
    25
100
AcDbLine
 10
75.4489974976
 20
30.561000824
 30
0.0
 11
72.9810028076
 21
33.0289993286
 31
0.0
  0
ARC
  5
2CC
330
1F
100
AcDbEntity
  8
0
  6
Continuous
 62
     7
370
    25
100
AcDbCircle
 10
76.1546462542
 20
31.2642209586
 30
0.0
 40
0.9962222269119324
100
AcDbArc
 50
224.9012330718
 51
270.0777562781
  0
LINE
  5
2CD
330
1F
100
AcDbEntity
  8
0
  6
Continuous
 62
     7
370
    25
100
AcDbLine
 10
78.2409973145
 20
30.267999649
 30
0.0
 11
76.15599823
 21
30.267999649
 31
0.0
  0
ARC
  5
2CE
330
1F
100
AcDbEntity
  8
0
  6
Continuous
 62
     7
370
    25
100
AcDbCircle
 10
78.2408206778
 20
30.7681762857
 30
0.0
 40
0.5001766678078527
100
AcDbArc
 50
270.0202339165
 51
359.9797660835
  0
ENDSEC
  0
SECTION
  2
OBJECTS
  0
DICTIONARY
  5
C
330
0
100
AcDbDictionary
281
     1
  3
ACAD_GROUP
350
D
  3
ACAD_LAYOUT
350
1A
  3
ACAD_MLINESTYLE
350
17
  3
ACAD_PLOTSETTINGS
350
19
  3
ACAD_PLOTSTYLENAME
350
E
  3
ACAD_SCALELIST
350
47
  3
DWGPROPS
350
2CF
  0
DICTIONARY
  5
D
102
{ACAD_REACTORS
330
C
102
}
330
C
100
AcDbDictionary
281
     1
  0
DICTIONARY
  5
1A
102
{ACAD_REACTORS
330
C
102
}
330
C
100
AcDbDictionary
281
     1
  3
Layout1
350
1E
  3
Layout2
350
26
  3
Model
350
22
  0
DICTIONARY
  5
17
102
{ACAD_REACTORS
330
C
102
}
330
C
100
AcDbDictionary
281
     1
  3
Standard
350
18
  0
DICTIONARY
  5
19
102
{ACAD_REACTORS
330
C
102
}
330
C
100
AcDbDictionary
281
     1
  0
ACDBDICTIONARYWDFLT
  5
E
102
{ACAD_REACTORS
330
C
102
}
330
C
100
AcDbDictionary
281
     1
  3
Normal
350
F
100
AcDbDictionaryWithDefault
340
F
  0
DICTIONARY
  5
47
102
{ACAD_REACTORS
330
C
102
}
330
C
100
AcDbDictionary
281
     1
  3
A0
350
48
  3
A1
350
49
  3
A2
350
4A
  3
A3
350
4B
  3
A4
350
4C
  3
A5
350
4D
  3
A6
350
4E
  3
A7
350
4F
  3
A8
350
50
  3
A9
350
51
  3
B0
350
52
  3
B1
350
53
  3
B2
350
54
  3
B3
350
55
  3
B4
350
56
  3
B5
350
57
  3
B6
350
58
  3
B7
350
59
  3
B8
350
5A
  3
B9
350
5B
  3
C0
350
5C
  3
C1
350
5D
  3
C2
350
5E
  3
C3
350
5F
  3
C4
350
60
  3
C5
350
61
  3
C6
350
62
  3
C7
350
63
  3
C8
350
64
  3
C9
350
65
  3
D0
350
66
  3
D1
350
67
  3
D2
350
68
  0
XRECORD
  5
2CF
102
{ACAD_REACTORS
330
C
102
}
330
C
100
AcDbXrecord
280
     1
  1
DWGPROPS COOKIE
  2

  3

  4

  6

  7

  8
Josh
  9

300
=
301
=
302
=
303
=
304
=
305
=
306
=
307
=
308
=
309
=
 40
0.0
 41
2459265.821126227
 42
2459265.821151574
  1

 90
        0
  0
LAYOUT
  5
1E
102
{ACAD_REACTORS
330
1A
102
}
330
1A
100
AcDbPlotSettings
  1

  2
none_device
  4

  6

 40
0.0
 41
0.0
 42
0.0
 43
0.0
 44
0.0
 45
0.0
 46
0.0
 47
0.0
 48
0.0
 49
0.0
140
0.0
141
0.0
142
1.0
143
1.0
 70
   688
 72
     1
 73
     0
 74
     5
  7

 75
    16
147
1.0
148
0.0
149
0.0
100
AcDbLayout
  1
Layout1
 70
     1
 71
     1
 10
0.0
 20
0.0
 11
420.0
 21
297.0
 12
0.0
 22
0.0
 32
0.0
 14
1.0000000000E+20
 24
1.0000000000E+20
 34
1.0000000000E+20
 15
-1.0000000000E+20
 25
-1.0000000000E+20
 35
-1.0000000000E+20
146
0.0
 13
0.0
 23
0.0
 33
0.0
 16
1.0
 26
0.0
 36
0.0
 17
0.0
 27
1.0
 37
0.0
 76
     0
330
1B
  0
LAYOUT
  5
26
102
{ACAD_REACTORS
330
1A
102
}
330
1A
100
AcDbPlotSettings
  1

  2
none_device
  4

  6

 40
0.0
 41
0.0
 42
0.0
 43
0.0
 44
0.0
 45
0.0
 46
0.0
 47
0.0
 48
0.0
 49
0.0
140
0.0
141
0.0
142
1.0
143
1.0
 70
   688
 72
     1
 73
     0
 74
     5
  7

 75
    16
147
1.0
148
0.0
149
0.0
100
AcDbLayout
  1
Layout2
 70
     1
 71
     2
 10
0.0
 20
0.0
 11
0.0
 21
0.0
 12
0.0
 22
0.0
 32
0.0
 14
0.0
 24
0.0
 34
0.0
 15
0.0
 25
0.0
 35
0.0
146
0.0
 13
0.0
 23
0.0
 33
0.0
 16
1.0
 26
0.0
 36
0.0
 17
0.0
 27
1.0
 37
0.0
 76
     0
330
23
  0
LAYOUT
  5
22
102
{ACAD_REACTORS
330
1A
102
}
330
1A
100
AcDbPlotSettings
  1

  2
none_device
  4
ANSI_A_(11.00_x_8.50_Inches)
  6

 40
6.35
 41
19.05
 42
6.35000508
 43
19.05000254
 44
279.4
 45
215.9
 46
-30.4316993005
 47
14.1287203372
 48
0.0
 49
0.0
140
0.0
141
0.0
142
0.0312335989
143
1.0
 70
  1696
 72
     0
 73
     0
 74
     0
  7

 75
     0
147
0.0179189148
148
-1300.4909072572
149
0.0
100
AcDbLayout
  1
Model
 70
     1
 71
     0
 10
0.0
 20
0.0
 11
420.0
 21
297.0
 12
0.0
 22
0.0
 32
0.0
 14
32.1160011291
 24
30.2679987221
 34
0.0
 15
380.7789916992
 25
158.2310037087
 35
0.0
146
0.0
 13
0.0
 23
0.0
 33
0.0
 16
1.0
 26
0.0
 36
0.0
 17
0.0
 27
1.0
 37
0.0
 76
     0
330
1F
331
29
  0
MLINESTYLE
  5
18
102
{ACAD_REACTORS
330
17
102
}
330
17
100
AcDbMlineStyle
  2
Standard
 70
     0
  3

 62
   256
 51
90.0
 52
90.0
 71
     2
 49
0.5
 62
   256
  6
BYLAYER
 49
-0.5
 62
   256
  6
BYLAYER
  0
ACDBPLACEHOLDER
  5
F
102
{ACAD_REACTORS
330
E
102
}
330
E
  0
SCALE
  5
48
102
{ACAD_REACTORS
330
47
102
}
330
47
100
AcDbScale
 70
     0
300
1:1
140
1.0
141
1.0
290
     1
  0
SCALE
  5
49
102
{ACAD_REACTORS
330
47
102
}
330
47
100
AcDbScale
 70
     0
300
1:2
140
1.0
141
2.0
290
     0
  0
SCALE
  5
4A
102
{ACAD_REACTORS
330
47
102
}
330
47
100
AcDbScale
 70
     0
300
1:4
140
1.0
141
4.0
290
     0
  0
SCALE
  5
4B
102
{ACAD_REACTORS
330
47
102
}
330
47
100
AcDbScale
 70
     0
300
1:5
140
1.0
141
5.0
290
     0
  0
SCALE
  5
4C
102
{ACAD_REACTORS
330
47
102
}
330
47
100
AcDbScale
 70
     0
300
1:8
140
1.0
141
8.0
290
     0
  0
SCALE
  5
4D
102
{ACAD_REACTORS
330
47
102
}
330
47
100
AcDbScale
 70
     0
300
1:10
140
1.0
141
10.0
290
     0
  0
SCALE
  5
4E
102
{ACAD_REACTORS
330
47
102
}
330
47
100
AcDbScale
 70
     0
300
1:16
140
1.0
141
16.0
290
     0
  0
SCALE
  5
4F
102
{ACAD_REACTORS
330
47
102
}
330
47
100
AcDbScale
 70
     0
300
1:20
140
1.0
141
20.0
290
     0
  0
SCALE
  5
50
102
{ACAD_REACTORS
330
47
102
}
330
47
100
AcDbScale
 70
     0
300
1:30
140
1.0
141
30.0
290
     0
  0
SCALE
  5
51
102
{ACAD_REACTORS
330
47
102
}
330
47
100
AcDbScale
 70
     0
300
1:40
140
1.0
141
40.0
290
     0
  0
SCALE
  5
52
102
{ACAD_REACTORS
330
47
102
}
330
47
100
AcDbScale
 70
     0
300
1:50
140
1.0
141
50.0
290
     0
  0
SCALE
  5
53
102
{ACAD_REACTORS
330
47
102
}
330
47
100
AcDbScale
 70
     0
300
1:100
140
1.0
141
100.0
290
     0
  0
SCALE
  5
54
102
{ACAD_REACTORS
330
47
102
}
330
47
100
AcDbScale
 70
     0
300
2:1
140
2.0
141
1.0
290
     0
  0
SCALE
  5
55
102
{ACAD_REACTORS
330
47
102
}
330
47
100
AcDbScale
 70
     0
300
4:1
140
4.0
141
1.0
290
     0
  0
SCALE
  5
56
102
{ACAD_REACTORS
330
47
102
}
330
47
100
AcDbScale
 70
     0
300
8:1
140
8.0
141
1.0
290
     0
  0
SCALE
  5
57
102
{ACAD_REACTORS
330
47
102
}
330
47
100
AcDbScale
 70
     0
300
10:1
140
10.0
141
1.0
290
     0
  0
SCALE
  5
58
102
{ACAD_REACTORS
330
47
102
}
330
47
100
AcDbScale
 70
     0
300
100:1
140
100.0
141
1.0
290
     0
  0
SCALE
  5
59
102
{ACAD_REACTORS
330
47
102
}
330
47
100
AcDbScale
 70
     0
300
1/128" = 1'-0"
140
0.0078125
141
12.0
290
     0
  0
SCALE
  5
5A
102
{ACAD_REACTORS
330
47
102
}
330
47
100
AcDbScale
 70
     0
300
1/64" = 1'-0"
140
0.015625
141
12.0
290
     0
  0
SCALE
  5
5B
102
{ACAD_REACTORS
330
47
102
}
330
47
100
AcDbScale
 70
     0
300
1/32" = 1'-0"
140
0.03125
141
12.0
290
     0
  0
SCALE
  5
5C
102
{ACAD_REACTORS
330
47
102
}
330
47
100
AcDbScale
 70
     0
300
1/16" = 1'-0"
140
0.0625
141
12.0
290
     0
  0
SCALE
  5
5D
102
{ACAD_REACTORS
330
47
102
}
330
47
100
AcDbScale
 70
     0
300
3/32" = 1'-0"
140
0.09375
141
12.0
290
     0
  0
SCALE
  5
5E
102
{ACAD_REACTORS
330
47
102
}
330
47
100
AcDbScale
 70
     0
300
1/8" = 1'-0"
140
0.125
141
12.0
290
     0
  0
SCALE
  5
5F
102
{ACAD_REACTORS
330
47
102
}
330
47
100
AcDbScale
 70
     0
300
3/16" = 1'-0"
140
0.1875
141
12.0
290
     0
  0
SCALE
  5
60
102
{ACAD_REACTORS
330
47
102
}
330
47
100
AcDbScale
 70
     0
300
1/4" = 1'-0"
140
0.25
141
12.0
290
     0
  0
SCALE
  5
61
102
{ACAD_REACTORS
330
47
102
}
330
47
100
AcDbScale
 70
     0
300
3/8" = 1'-0"
140
0.375
141
12.0
290
     0
  0
SCALE
  5
62
102
{ACAD_REACTORS
330
47
102
}
330
47
100
AcDbScale
 70
     0
300
1/2" = 1'-0"
140
0.5
141
12.0
290
     0
  0
SCALE
  5
63
102
{ACAD_REACTORS
330
47
102
}
330
47
100
AcDbScale
 70
     0
300
3/4" = 1'-0"
140
0.75
141
12.0
290
     0
  0
SCALE
  5
64
102
{ACAD_REACTORS
330
47
102
}
330
47
100
AcDbScale
 70
     0
300
1" = 1'-0"
140
1.0
141
12.0
290
     0
  0
SCALE
  5
65
102
{ACAD_REACTORS
330
47
102
}
330
47
100
AcDbScale
 70
     0
300
1-1/2" = 1'-0"
140
1.5
141
12.0
290
     0
  0
SCALE
  5
66
102
{ACAD_REACTORS
330
47
102
}
330
47
100
AcDbScale
 70
     0
300
3" = 1'-0"
140
3.0
141
12.0
290
     0
  0
SCALE
  5
67
102
{ACAD_REACTORS
330
47
102
}
330
47
100
AcDbScale
 70
     0
300
6" = 1'-0"
140
6.0
141
12.0
290
     0
  0
SCALE
  5
68
102
{ACAD_REACTORS
330
47
102
}
330
47
100
AcDbScale
 70
     0
300
1'-0" = 1'-0"
140
12.0
141
12.0
290
     0
  0
ENDSEC
  0
EOF
