G04 #@! TF.GenerationSoftware,KiCad,Pcbnew,(5.1.4)-1*
G04 #@! TF.CreationDate,2021-12-17T17:06:35-08:00*
G04 #@! TF.ProjectId,JKP,4a4b502e-6b69-4636-9164-5f7063625858,rev?*
G04 #@! TF.SameCoordinates,Original*
G04 #@! TF.FileFunction,Profile,NP*
%FSLAX46Y46*%
G04 Gerber Fmt 4.6, Leading zero omitted, Abs format (unit mm)*
G04 Created by KiCad (PCBNEW (5.1.4)-1) date 2021-12-17 17:06:35*
%MOMM*%
%LPD*%
G04 APERTURE LIST*
%ADD10C,0.050000*%
G04 APERTURE END LIST*
D10*
X-9525000Y-51593750D02*
G75*
G02X-8731250Y-50800000I793750J0D01*
G01*
X-8731250Y-44450000D02*
G75*
G02X-9525000Y-43656250I0J793750D01*
G01*
X37306250Y-103981250D02*
G75*
G02X36512500Y-104775000I-793750J0D01*
G01*
X44450000Y-104775000D02*
G75*
G02X43656250Y-103981250I0J793750D01*
G01*
X223043750Y-103981250D02*
G75*
G02X222250000Y-104775000I-793750J0D01*
G01*
X230187500Y-104775000D02*
G75*
G02X229393750Y-103981250I0J793750D01*
G01*
X315912500Y-103981250D02*
G75*
G02X315118750Y-104775000I-793750J0D01*
G01*
X323056250Y-104775000D02*
G75*
G02X322262500Y-103981250I0J793750D01*
G01*
X356393750Y-50800000D02*
G75*
G02X357187500Y-51593750I0J-793750D01*
G01*
X357187500Y-43656250D02*
G75*
G02X356393750Y-44450000I-793750J0D01*
G01*
X341312500Y8731250D02*
G75*
G02X342106250Y9525000I793750J0D01*
G01*
X334168750Y9525000D02*
G75*
G02X334962500Y8731250I0J-793750D01*
G01*
X241300000Y8731250D02*
G75*
G02X242093750Y9525000I793750J0D01*
G01*
X234156250Y9525000D02*
G75*
G02X234950000Y8731250I0J-793750D01*
G01*
X131762500Y8731250D02*
G75*
G02X132556250Y9525000I793750J0D01*
G01*
X124618750Y9525000D02*
G75*
G02X125412500Y8731250I0J-793750D01*
G01*
X41275000Y8731250D02*
G75*
G02X42068750Y9525000I793750J0D01*
G01*
X34131250Y9525000D02*
G75*
G02X34925000Y8731250I0J-793750D01*
G01*
X357187500Y-51593750D02*
X357187500Y-101600000D01*
X357187500Y-43656250D02*
X357187500Y7143750D01*
X-9525000Y-51593750D02*
X-9525000Y-101600000D01*
X-9525000Y-43656250D02*
X-9525000Y7143750D01*
X-6350000Y-44450000D02*
G75*
G02X-6350000Y-50800000I0J-3175000D01*
G01*
X-8731250Y-50800000D02*
X-6350000Y-50800000D01*
X-8731250Y-44450000D02*
X-6350000Y-44450000D01*
X354012500Y-50800000D02*
G75*
G02X354012500Y-44450000I0J3175000D01*
G01*
X356393750Y-44450000D02*
X354012500Y-44450000D01*
X356393750Y-50800000D02*
X354012500Y-50800000D01*
X37306250Y-101600000D02*
G75*
G02X43656250Y-101600000I3175000J0D01*
G01*
X43656250Y-103981250D02*
X43656250Y-101600000D01*
X37306250Y-103981250D02*
X37306250Y-101600000D01*
X223043750Y-101600000D02*
G75*
G02X229393750Y-101600000I3175000J0D01*
G01*
X229393750Y-103981250D02*
X229393750Y-101600000D01*
X223043750Y-103981250D02*
X223043750Y-101600000D01*
X315912500Y-101600000D02*
G75*
G02X322262500Y-101600000I3175000J0D01*
G01*
X322262500Y-103981250D02*
X322262500Y-101600000D01*
X315912500Y-103981250D02*
X315912500Y-101600000D01*
X341312500Y6350000D02*
G75*
G02X334962500Y6350000I-3175000J0D01*
G01*
X334962500Y8731250D02*
X334962500Y6350000D01*
X341312500Y8731250D02*
X341312500Y6350000D01*
X241300000Y6350000D02*
G75*
G02X234950000Y6350000I-3175000J0D01*
G01*
X234950000Y8731250D02*
X234950000Y6350000D01*
X241300000Y8731250D02*
X241300000Y6350000D01*
X131762500Y6350000D02*
G75*
G02X125412500Y6350000I-3175000J0D01*
G01*
X125412500Y8731250D02*
X125412500Y6350000D01*
X131762500Y8731250D02*
X131762500Y6350000D01*
X41275000Y6350000D02*
G75*
G02X34925000Y6350000I-3175000J0D01*
G01*
X41275000Y8731250D02*
X41275000Y6350000D01*
X34925000Y8731250D02*
X34925000Y6350000D01*
X230187500Y-104775000D02*
X315118750Y-104775000D01*
X103981250Y-104775000D02*
X44450000Y-104775000D01*
X36512500Y-104775000D02*
X-6350000Y-104775000D01*
X222250000Y-104775000D02*
X103981250Y-104775000D01*
X354012500Y-104775000D02*
X323056250Y-104775000D01*
X242093750Y9525000D02*
X334168750Y9525000D01*
X354806250Y9525000D02*
X342106250Y9525000D01*
X132556250Y9525000D02*
X234156250Y9525000D01*
X42068750Y9525000D02*
X124618750Y9525000D01*
X-7143750Y9525000D02*
X34131250Y9525000D01*
X357187500Y-101600000D02*
G75*
G02X354012500Y-104775000I-3175000J0D01*
G01*
X354806250Y9525000D02*
G75*
G02X357187500Y7143750I0J-2381250D01*
G01*
X-6350000Y-104775000D02*
G75*
G02X-9525000Y-101600000I0J3175000D01*
G01*
X-9525000Y7143750D02*
G75*
G02X-7143750Y9525000I2381250J0D01*
G01*
M02*
