M48
; DRILL file {KiCad (5.1.4)-1} date 12/17/2021 5:06:39 PM
; FORMAT={-:-/ absolute / inch / decimal}
; #@! TF.CreationDate,2021-12-17T17:06:39-08:00
; #@! TF.GenerationSoftware,Kicad,Pcbnew,(5.1.4)-1
; #@! TF.FileFunction,Plated,1,2,PTH
FMAT,2
INCH
T1C0.0157
T2C0.0579
%
G90
G05
T1
X10.0Y-1.8438
X10.295Y-2.4062
X10.5312Y-0.5625
X10.5894Y-1.8094
X10.7188Y-1.3125
X11.0938Y-0.625
X11.0994Y-1.8094
X11.15Y-2.124
X11.15Y-2.6081
X11.1562Y-2.0312
X11.245Y-1.61
X11.25Y-0.5625
X11.25Y-1.3125
T2
X8.85Y0.1
X8.9016Y0.1575
X9.0984Y0.1772
X9.1Y0.2
X3.0375Y-2.9
X3.0891Y-2.8425
X3.2859Y-2.8228
X3.2875Y-2.8
X1.725Y0.1
X1.7766Y0.1575
X1.9734Y0.1772
X1.975Y0.2
X12.7875Y-2.9
X12.8391Y-2.8425
X13.0359Y-2.8228
X13.0375Y-2.8
X0.975Y-3.65
X1.0266Y-3.5925
X1.2234Y-3.5728
X1.225Y-3.55
X12.7875Y0.1
X12.8391Y0.1575
X13.0359Y0.1772
X13.0375Y0.2
X2.475Y-1.4
X2.5266Y-1.3425
X2.7234Y-1.3228
X2.725Y-1.3
X11.2875Y-2.15
X11.3391Y-2.0925
X11.5359Y-2.0728
X11.5375Y-2.05
X9.975Y-0.65
X10.0266Y-0.5925
X10.2234Y-0.5728
X10.225Y-0.55
X5.475Y-1.4
X5.5266Y-1.3425
X5.7234Y-1.3228
X5.725Y-1.3
X4.5375Y-2.9
X4.5891Y-2.8425
X4.7859Y-2.8228
X4.7875Y-2.8
X7.725Y-1.4
X7.7766Y-1.3425
X7.9734Y-1.3228
X7.975Y-1.3
X9.8812Y-2.15
X9.9328Y-2.0925
X10.1297Y-2.0728
X10.1312Y-2.05
X1.725Y-1.4
X1.7766Y-1.3425
X1.9734Y-1.3228
X1.975Y-1.3
X13.5375Y-1.4
X13.5891Y-1.3425
X13.7859Y-1.3228
X13.7875Y-1.3
X6.225Y-1.4
X6.2766Y-1.3425
X6.4734Y-1.3228
X6.475Y-1.3
X10.35Y-2.9
X10.4016Y-2.8425
X10.5984Y-2.8228
X10.6Y-2.8
X11.6625Y-3.65
X11.7141Y-3.5925
X11.9109Y-3.5728
X11.9125Y-3.55
X5.6625Y-2.15
X5.7141Y-2.0925
X5.9109Y-2.0728
X5.9125Y-2.05
X6.4125Y-2.15
X6.4641Y-2.0925
X6.6609Y-2.0728
X6.6625Y-2.05
X5.2875Y-2.9
X5.3391Y-2.8425
X5.5359Y-2.8228
X5.5375Y-2.8
X1.9125Y-3.65
X1.9641Y-3.5925
X2.1609Y-3.5728
X2.1625Y-3.55
X12.0375Y-2.15
X12.0891Y-2.0925
X12.2859Y-2.0728
X12.2875Y-2.05
X4.1625Y-2.15
X4.2141Y-2.0925
X4.4109Y-2.0728
X4.4125Y-2.05
X0.0375Y-3.65
X0.0891Y-3.5925
X0.2859Y-3.5728
X0.2875Y-3.55
X8.85Y-0.65
X8.9016Y-0.5925
X9.0984Y-0.5728
X9.1Y-0.55
X0.6Y-0.65
X0.6516Y-0.5925
X0.8484Y-0.5728
X0.85Y-0.55
X3.7875Y-2.9
X3.8391Y-2.8425
X4.0359Y-2.8228
X4.0375Y-2.8
X0.0375Y-1.4
X0.0891Y-1.3425
X0.2859Y-1.3228
X0.2875Y-1.3
X12.7875Y-0.65
X12.8391Y-0.5925
X13.0359Y-0.5728
X13.0375Y-0.55
X9.6Y0.1
X9.6516Y0.1575
X9.8484Y0.1772
X9.85Y0.2
X2.85Y-0.65
X2.9016Y-0.5925
X3.0984Y-0.5728
X3.1Y-0.55
X12.0375Y-1.4
X12.0891Y-1.3425
X12.2859Y-1.3228
X12.2875Y-1.3
X0.3187Y-2.9
X0.3703Y-2.8425
X0.5672Y-2.8228
X0.5687Y-2.8
X8.6625Y-2.15
X8.7141Y-2.0925
X8.9109Y-2.0728
X8.9125Y-2.05
X4.5375Y0.1
X4.5891Y0.1575
X4.7859Y0.1772
X4.7875Y0.2
X10.35Y0.1
X10.4016Y0.1575
X10.5984Y0.1772
X10.6Y0.2
X12.0375Y-2.9
X12.0891Y-2.8425
X12.2859Y-2.8228
X12.2875Y-2.8
X1.35Y-0.65
X1.4016Y-0.5925
X1.5984Y-0.5728
X1.6Y-0.55
X7.1625Y-2.15
X7.2141Y-2.0925
X7.4109Y-2.0728
X7.4125Y-2.05
X2.1Y-0.65
X2.1516Y-0.5925
X2.3484Y-0.5728
X2.35Y-0.55
X13.4875Y-3.275
X13.5103Y-3.2766
X13.53Y-3.4734
X13.5875Y-3.525
X9.225Y-3.65
X9.2766Y-3.5925
X9.4734Y-3.5728
X9.475Y-3.55
X12.0375Y-0.65
X12.0891Y-0.5925
X12.2859Y-0.5728
X12.2875Y-0.55
X7.5375Y-2.9
X7.5891Y-2.8425
X7.7859Y-2.8228
X7.7875Y-2.8
X-0.0563Y-2.15
X-0.0047Y-2.0925
X0.1922Y-2.0728
X0.1938Y-2.05
X4.725Y-1.4
X4.7766Y-1.3425
X4.9734Y-1.3228
X4.975Y-1.3
X2.2875Y-2.9
X2.3391Y-2.8425
X2.5359Y-2.8228
X2.5375Y-2.8
X13.5375Y-0.65
X13.5891Y-0.5925
X13.7859Y-0.5728
X13.7875Y-0.55
X5.85Y-0.65
X5.9016Y-0.5925
X6.0984Y-0.5728
X6.1Y-0.55
X6.975Y-1.4
X7.0266Y-1.3425
X7.2234Y-1.3228
X7.225Y-1.3
X-0.15Y0.1
X-0.0984Y0.1575
X0.0984Y0.1772
X0.1Y0.2
X5.1Y-0.65
X5.1516Y-0.5925
X5.3484Y-0.5728
X5.35Y-0.55
X0.975Y0.1
X1.0266Y0.1575
X1.2234Y0.1772
X1.225Y0.2
X11.2875Y0.1
X11.3391Y0.1575
X11.5359Y0.1772
X11.5375Y0.2
X0.975Y-1.4
X1.0266Y-1.3425
X1.2234Y-1.3228
X1.225Y-1.3
X4.9125Y-2.15
X4.9641Y-2.0925
X5.1609Y-2.0728
X5.1625Y-2.05
X8.2875Y-3.65
X8.3391Y-3.5925
X8.5359Y-3.5728
X8.5375Y-3.55
X12.0375Y0.1
X12.0891Y0.1575
X12.2859Y0.1772
X12.2875Y0.2
X3.975Y-1.4
X4.0266Y-1.3425
X4.2234Y-1.3228
X4.225Y-1.3
X8.1Y-0.65
X8.1516Y-0.5925
X8.3484Y-0.5728
X8.35Y-0.55
X3.4125Y-2.15
X3.4641Y-2.0925
X3.6609Y-2.0728
X3.6625Y-2.05
X10.1625Y-1.4
X10.2141Y-1.3425
X10.4109Y-1.3228
X10.4125Y-1.3
X6.6Y-0.65
X6.6516Y-0.5925
X6.8484Y-0.5728
X6.85Y-0.55
X9.225Y-1.4
X9.2766Y-1.3425
X9.4734Y-1.3228
X9.475Y-1.3
X3.225Y0.1
X3.2766Y0.1575
X3.4734Y0.1772
X3.475Y0.2
X11.2875Y-0.65
X11.3391Y-0.5925
X11.5359Y-0.5728
X11.5375Y-0.55
X6.7875Y-2.9
X6.8391Y-2.8425
X7.0359Y-2.8228
X7.0375Y-2.8
X2.6625Y-2.15
X2.7141Y-2.0925
X2.9109Y-2.0728
X2.9125Y-2.05
X11.2875Y-1.4
X11.3391Y-1.3425
X11.5359Y-1.3228
X11.5375Y-1.3
X0.0375Y-2.15
X0.0891Y-2.0925
X0.2859Y-2.0728
X0.2875Y-2.05
X11.2875Y-2.9
X11.3391Y-2.8425
X11.5359Y-2.8228
X11.5375Y-2.8
X1.1625Y-2.15
X1.2141Y-2.0925
X1.4109Y-2.0728
X1.4125Y-2.05
X6.7875Y0.1
X6.8391Y0.1575
X7.0359Y0.1772
X7.0375Y0.2
X2.475Y0.1
X2.5266Y0.1575
X2.7234Y0.1772
X2.725Y0.2
X8.2875Y-2.9
X8.3391Y-2.8425
X8.5359Y-2.8228
X8.5375Y-2.8
X5.1Y-3.65
X5.1516Y-3.5925
X5.3484Y-3.5728
X5.35Y-3.55
X13.5375Y-2.15
X13.5891Y-2.0925
X13.7859Y-2.0728
X13.7875Y-2.05
X8.1Y0.1
X8.1516Y0.1575
X8.3484Y0.1772
X8.35Y0.2
X-0.15Y-0.65
X-0.0984Y-0.5925
X0.0984Y-0.5728
X0.1Y-0.55
X5.2875Y0.1
X5.3391Y0.1575
X5.5359Y0.1772
X5.5375Y0.2
X1.9125Y-2.15
X1.9641Y-2.0925
X2.1609Y-2.0728
X2.1625Y-2.05
X13.5375Y0.1
X13.5891Y0.1575
X13.7859Y0.1772
X13.7875Y0.2
X6.0375Y-2.9
X6.0891Y-2.8425
X6.2859Y-2.8228
X6.2875Y-2.8
X7.9125Y-2.15
X7.9641Y-2.0925
X8.1609Y-2.0728
X8.1625Y-2.05
X12.7875Y-3.65
X12.8391Y-3.5925
X13.0359Y-3.5728
X13.0375Y-3.55
X6.0375Y0.1
X6.0891Y0.1575
X6.2859Y0.1772
X6.2875Y0.2
X12.7875Y-1.4
X12.8391Y-1.3425
X13.0359Y-1.3228
X13.0375Y-1.3
X4.35Y-0.65
X4.4016Y-0.5925
X4.5984Y-0.5728
X4.6Y-0.55
X9.3187Y-2.9
X9.3703Y-2.8425
X9.5672Y-2.8228
X9.5687Y-2.8
X8.475Y-1.4
X8.5266Y-1.3425
X8.7234Y-1.3228
X8.725Y-1.3
X3.6Y-0.65
X3.6516Y-0.5925
X3.8484Y-0.5728
X3.85Y-0.55
X7.35Y-0.65
X7.4016Y-0.5925
X7.5984Y-0.5728
X7.6Y-0.55
X1.5375Y-2.9
X1.5891Y-2.8425
X1.7859Y-2.8228
X1.7875Y-2.8
X3.225Y-1.4
X3.2766Y-1.3425
X3.4734Y-1.3228
X3.475Y-1.3
X12.7875Y-2.15
X12.8391Y-2.0925
X13.0359Y-2.0728
X13.0375Y-2.05
X10.1625Y-3.65
X10.2141Y-3.5925
X10.4109Y-3.5728
X10.4125Y-3.55
T0
M30
